<?xml version="1.0" encoding="UTF-8"?>
<svg xmlns="http://www.w3.org/2000/svg" xmlns:xlink="http://www.w3.org/1999/xlink" version="1.2" >
<font id="LeanOSans FY Bold">
<font-face  font-family="LeanOSans FY" units-per-em="1000" ascent="740" descent="-250" font-style="normal" font-weight="700" font-stretch="normal" cap-height="690" x-height="507" underline-position="-75" underline-thickness="50" />
<missing-glyph  horiz-adv-x="588" d="M298 435 Q314 464 339.5 482 Q365 500 396 500 Q439 500 467 470.5 Q495 441 495 395 Q495 365 481.5 330 Q468 295 442.5 260 Q417 225 379.5 192.5 Q342 160 294 135 Q246 160 208.5 192.5 Q171 225 145.5 260 Q120 295 106.5 330 Q93 365 93 395 Q93 441 121 470.5 Q149 500 192 500 Q223 500 248.5 482 Q274 464 290 435 L298 435 Z " />
<glyph glyph-name=".null" d="" />
<glyph glyph-name="&amp;#x0;" d="" />
<glyph glyph-name="&amp;#xd;" unicode="&#xd;" d="" />
<glyph glyph-name="space" unicode="&#x20;" horiz-adv-x="213" d="" />
<glyph glyph-name="exclam" unicode="&#x21;" horiz-adv-x="336" d="M117 214 L108 690 L228 690 L220 214 L117 214 Z M92 57 Q92 91 113 111.5 Q134 132 168 132 Q202 132 222.5 111.5 Q243 91 243 57 Q243 23 222.5 2 Q202 -19 168 -19 Q134 -19 113 2 Q92 23 92 57 Z " />
<glyph glyph-name="quotedbl" unicode="&#x22;" horiz-adv-x="390" d="M226 474 L226 690 L333 690 L333 474 L226 474 Z M57 474 L57 690 L164 690 L164 474 L57 474 Z " />
<glyph glyph-name="numbersign" unicode="&#x23;" horiz-adv-x="756" d="M135 540 L260 540 L323 690 L438 690 L375 540 L528 540 L591 690 L706 690 L643 540 L727 540 L727 451 L605 451 L516 239 L621 239 L621 149 L478 149 L416 0 L301 0 L363 149 L210 149 L148 0 L33 0 L95 149 L29 149 L29 239 L133 239 L222 451 L135 451 L135 540 Z M248 239 L401 239 L490 451 L337 451 L248 239 Z " />
<glyph glyph-name="dollar" unicode="&#x24;" horiz-adv-x="535" d="M216 -7 Q173 -1 141 14.5 Q109 30 85.5 54 Q62 78 47.5 109.5 Q33 141 24 178 L145 213 Q150 191 159 171 Q168 151 183 135.5 Q198 120 219 111 Q240 102 269 102 Q289 102 308 107 Q327 112 341.5 123 Q356 134 364.5 151.5 Q373 169 373 194 Q373 217 362.5 233.5 Q352 250 333.5 262.5 Q315 275 289.5 284.5 Q264 294 234 303 Q201 312 168.5 327 Q136 342 110 365.5 Q84 389 68 421.5 Q52 454 52 499 Q52 573 93.5 626.5 Q135 680 216 695 L216 793 L331 793 L331 694 Q400 680 443 631 Q486 582 488 501 L361 486 Q353 543 326.5 566 Q300 589 263 589 Q230 589 206 569 Q182 549 182 511 Q182 488 191 471.5 Q200 455 216.5 442.5 Q233 430 256 420.5 Q279 411 307 402 Q356 385 393 366.5 Q430 348 454 324.5 Q478 301 490 271 Q502 241 502 202 Q502 160 489 126 Q476 92 453.5 66 Q431 40 399.5 22.5 Q368 5 331 -3 L331 -105 L216 -105 L216 -7 Z " />
<glyph glyph-name="percent" unicode="&#x25;" horiz-adv-x="836" d="M113 38 L658 708 L722 655 L179 -19 L113 38 Z M217 424 Q245 424 263.5 446.5 Q282 469 282 522 Q282 573 264 596 Q246 619 217 619 Q189 619 170 596.5 Q151 574 151 521 Q151 470 169.5 447 Q188 424 217 424 Z M217 334 Q143 334 97 380.5 Q51 427 51 519 Q51 570 65.5 605.5 Q80 641 103 664 Q126 687 156 697.5 Q186 708 217 708 Q290 708 336 662.5 Q382 617 382 524 Q382 473 367.5 437 Q353 401 330 378 Q307 355 277.5 344.5 Q248 334 217 334 Z M619 71 Q647 71 666 93.5 Q685 116 685 169 Q685 220 666.5 243 Q648 266 619 266 Q591 266 572.5 243.5 Q554 221 554 168 Q554 117 572 94 Q590 71 619 71 Z M619 -19 Q546 -19 500 27 Q454 73 454 166 Q454 217 468 252.5 Q482 288 505.5 311 Q529 334 558.5 344.5 Q588 355 619 355 Q656 355 686.5 343.5 Q717 332 739 309 Q761 286 773 251.5 Q785 217 785 171 Q785 120 770.5 84 Q756 48 733 25 Q710 2 680 -8.5 Q650 -19 619 -19 Z " />
<glyph glyph-name="ampersand" unicode="&#x26;" horiz-adv-x="616" d="M298 -19 Q235 -19 187.5 -1.5 Q140 16 107.5 46.5 Q75 77 59 117.5 Q43 158 43 203 Q43 263 72 311 Q101 359 161 389 Q116 414 98.5 451.5 Q81 489 81 531 Q81 566 93 598 Q105 630 130 654.5 Q155 679 194.5 693.5 Q234 708 288 708 Q336 708 372.5 694.5 Q409 681 433.5 657 Q458 633 470 601 Q482 569 482 532 L376 521 Q373 562 349.5 584 Q326 606 284 606 Q240 606 220.5 583 Q201 560 201 529 Q201 493 225 467.5 Q249 442 300 434 L301 358 L301 350 Q238 333 206 295 Q174 257 174 206 Q174 182 182 160 Q190 138 206 121.5 Q222 105 246.5 95 Q271 85 304 85 Q333 85 355 93.5 Q377 102 392 115 Q407 128 415 144.5 Q423 161 423 178 Q423 235 372 239 L372 332 Q429 348 459.5 361 Q490 374 490 395 Q490 404 483.5 410.5 Q477 417 462 419 L490 492 Q509 492 527.5 486 Q546 480 561 468 Q576 456 585.5 438 Q595 420 595 396 Q595 371 584 353.5 Q573 336 556.5 323.5 Q540 311 520 302.5 Q500 294 481 287 Q540 254 540 177 Q540 136 523 100 Q506 64 474.5 37.5 Q443 11 398.5 -4 Q354 -19 298 -19 Z " />
<glyph glyph-name="quotesingle" unicode="&#x27;" horiz-adv-x="221" d="M57 474 L57 690 L164 690 L164 474 L57 474 Z " />
<glyph glyph-name="parenleft" unicode="&#x28;" horiz-adv-x="384" d="M182 232 Q182 166 193.5 108.5 Q205 51 229.5 -1.5 Q254 -54 291 -104 Q328 -154 379 -203 L318 -275 Q190 -174 123.5 -47.5 Q57 79 57 232 Q57 385 123.5 511.5 Q190 638 318 740 L379 667 Q328 617 291 567.5 Q254 518 229.5 465.5 Q205 413 193.5 355.5 Q182 298 182 232 Z " />
<glyph glyph-name="parenright" unicode="&#x29;" horiz-adv-x="384" d="M202 233 Q202 298 190 355.5 Q178 413 154 465.5 Q130 518 93 567.5 Q56 617 5 667 L66 740 Q194 638 260 512 Q326 386 326 233 Q326 80 260 -47 Q194 -174 66 -275 L5 -203 Q56 -154 93 -104 Q130 -54 154 -1 Q178 52 190 109.5 Q202 167 202 233 Z " />
<glyph glyph-name="asterisk" unicode="&#x2a;" horiz-adv-x="271" d="M151 639 L241 685 L261 624 L161 610 L232 539 L180 501 L135 592 L89 502 L38 539 L110 610 L10 626 L30 687 L120 639 L104 740 L168 740 L151 639 Z " />
<glyph glyph-name="plus" unicode="&#x2b;" horiz-adv-x="482" d="M44 376 L188 376 L188 525 L294 525 L294 376 L437 376 L437 278 L294 278 L294 129 L188 129 L188 278 L44 278 L44 376 Z " />
<glyph glyph-name="comma" unicode="&#x2c;" horiz-adv-x="264" d="M75 119 L197 119 L152 -130 L54 -129 L75 119 Z " />
<glyph glyph-name="hyphen" unicode="&#x2d;" horiz-adv-x="424" d="M81 214 L81 303 L342 303 L342 214 L81 214 Z " />
<glyph glyph-name="period" unicode="&#x2e;" horiz-adv-x="268" d="M58 57 Q58 91 79 112 Q100 133 134 133 Q168 133 189 112 Q210 91 210 57 Q210 23 189 2 Q168 -19 134 -19 Q100 -19 79 2 Q58 23 58 57 Z " />
<glyph glyph-name="slash" unicode="&#x2f;" horiz-adv-x="439" d="M3 0 L313 740 L436 740 L126 0 L3 0 Z " />
<glyph glyph-name="zero" unicode="0" horiz-adv-x="595" d="M299 -10 Q174 -10 105.5 78 Q37 166 37 345 Q37 436 57.5 503 Q78 570 113 613.5 Q148 657 195.5 678.5 Q243 700 297 700 Q421 700 489.5 611.5 Q558 523 558 345 Q558 254 538 187 Q518 120 482.5 76.5 Q447 33 400 11.5 Q353 -10 299 -10 Z M299 107 Q329 107 352.5 119.5 Q376 132 392.5 160 Q409 188 417.5 233 Q426 278 426 344 Q426 411 416.5 457 Q407 503 390 531.5 Q373 560 349 572.5 Q325 585 297 585 Q267 585 243 572.5 Q219 560 202.5 531.5 Q186 503 177.5 457.5 Q169 412 169 346 Q169 279 178.5 233.5 Q188 188 205.5 160 Q223 132 246.5 119.5 Q270 107 299 107 Z " />
<glyph glyph-name="one" unicode="1" horiz-adv-x="423" d="M198 0 L198 542 L91 456 L27 544 L216 690 L326 690 L326 0 L198 0 Z " />
<glyph glyph-name="two" unicode="2" horiz-adv-x="556" d="M511 517 Q511 481 501.5 451.5 Q492 422 468 393.5 Q444 365 403.5 335 Q363 305 302 268 Q264 244 239.5 224 Q215 204 200.5 184.5 Q186 165 180.5 145.5 Q175 126 174 104 L518 104 L518 0 L42 0 L42 73 Q42 116 50 151.5 Q58 187 79 219 Q100 251 135.5 281.5 Q171 312 227 347 Q276 377 305.5 398.5 Q335 420 351.5 437.5 Q368 455 373.5 471 Q379 487 379 506 Q379 546 352.5 565.5 Q326 585 286 585 Q239 585 208 559.5 Q177 534 164 473 L49 486 Q53 532 70 571 Q87 610 116.5 638.5 Q146 667 189 683.5 Q232 700 289 700 Q342 700 383.5 685.5 Q425 671 453.5 646.5 Q482 622 496.5 588.5 Q511 555 511 517 Z " />
<glyph glyph-name="three" unicode="3" horiz-adv-x="548" d="M232 395 Q270 396 295.5 404 Q321 412 336.5 425.5 Q352 439 358.5 457.5 Q365 476 365 497 Q365 540 338.5 562.5 Q312 585 270 585 Q227 585 195.5 560 Q164 535 153 478 L32 506 Q38 549 58 585 Q78 621 109 646.5 Q140 672 181.5 686 Q223 700 274 700 Q323 700 364.5 687 Q406 674 435 650 Q464 626 480.5 592 Q497 558 497 516 Q497 469 472.5 430.5 Q448 392 405 363 Q460 340 489.5 300.5 Q519 261 519 202 Q519 150 498.5 110.5 Q478 71 443.5 44 Q409 17 363 3.5 Q317 -10 267 -10 Q217 -10 174 2.5 Q131 15 98.5 40 Q66 65 44.5 103 Q23 141 17 192 L142 224 Q152 173 181.5 139 Q211 105 270 105 Q324 105 355.5 132 Q387 159 387 204 Q387 225 380.5 244 Q374 263 356.5 276.5 Q339 290 309 298.5 Q279 307 231 307 L232 395 Z " />
<glyph glyph-name="four" unicode="4" horiz-adv-x="583" d="M39 225 L337 691 L451 691 L451 233 L543 233 L543 129 L451 129 L451 0 L328 0 L328 129 L39 129 L39 225 Z M164 233 L328 233 L328 502 L164 233 Z " />
<glyph glyph-name="five" unicode="5" horiz-adv-x="551" d="M267 -10 Q219 -10 177.5 0 Q136 10 104 32 Q72 54 50 89.5 Q28 125 19 175 L143 207 Q154 160 185.5 132.5 Q217 105 266 105 Q323 105 355.5 136.5 Q388 168 388 222 Q388 279 353.5 310.5 Q319 342 264 342 Q233 342 211 332.5 Q189 323 169 306 Q143 312 118.5 318.5 Q94 325 69 332 L69 690 L491 690 L491 586 L192 586 L192 439 Q213 447 235 451 Q257 455 279 455 Q334 455 379 438.5 Q424 422 455 392 Q486 362 503 319.5 Q520 277 520 226 Q520 169 499.5 125 Q479 81 444.5 51 Q410 21 364 5.5 Q318 -10 267 -10 Z " />
<glyph glyph-name="six" unicode="6" horiz-adv-x="579" d="M299 -10 Q250 -10 203 7.5 Q156 25 119 65.5 Q82 106 59.5 172.5 Q37 239 37 337 Q37 432 58.5 500.5 Q80 569 118 613.5 Q156 658 207.5 679 Q259 700 319 700 Q410 700 465 659 Q520 618 543 551 L431 507 Q416 544 384.5 564.5 Q353 585 310 585 Q274 585 246.5 569.5 Q219 554 200.5 526.5 Q182 499 172.5 461 Q163 423 163 378 L163 360 Q183 402 226.5 426 Q270 450 327 450 Q379 450 420.5 432 Q462 414 491 384 Q520 354 535.5 314 Q551 274 551 230 Q551 179 534 135 Q517 91 484.5 59 Q452 27 405.5 8.5 Q359 -10 299 -10 Z M305 101 Q332 101 353 111 Q374 121 388.5 137.5 Q403 154 411 175.5 Q419 197 419 221 Q419 270 387 302.5 Q355 335 304 335 Q280 335 259 326.5 Q238 318 222.5 303 Q207 288 198 267 Q189 246 189 221 Q189 195 198 173 Q207 151 222.5 135 Q238 119 259.5 110 Q281 101 305 101 Z " />
<glyph glyph-name="seven" unicode="7" horiz-adv-x="525" d="M92 0 L369 586 L29 586 L29 690 L502 690 L502 593 L229 0 L92 0 Z " />
<glyph glyph-name="eight" unicode="8" horiz-adv-x="577" d="M286 -10 Q221 -10 173.5 6.5 Q126 23 95 52 Q64 81 49 119 Q34 157 34 201 Q34 269 62.5 312 Q91 355 136 379 Q102 399 82.5 433 Q63 467 63 515 Q63 554 78 587.5 Q93 621 121.5 646 Q150 671 191.5 685.5 Q233 700 287 700 Q341 700 383 686.5 Q425 673 454.5 649 Q484 625 499 592.5 Q514 560 514 521 Q514 471 493.5 436.5 Q473 402 438 380 Q488 354 515.5 309.5 Q543 265 543 203 Q543 154 524.5 114.5 Q506 75 472 47.5 Q438 20 391 5 Q344 -10 286 -10 Z M287 102 Q341 102 376 130.5 Q411 159 411 211 Q411 231 404 251 Q397 271 382.5 287 Q368 303 345 313 Q322 323 290 323 Q233 323 200 292 Q167 261 167 210 Q167 159 199.5 130.5 Q232 102 287 102 Z M289 418 Q332 418 357 440.5 Q382 463 382 505 Q382 540 358.5 564.5 Q335 589 290 589 Q245 589 220.5 565 Q196 541 196 505 Q196 469 218.5 443.5 Q241 418 289 418 Z " />
<glyph glyph-name="nine" unicode="9" horiz-adv-x="575" d="M258 -10 Q167 -10 112.5 29.5 Q58 69 33 136 L145 181 Q162 143 192 122 Q222 101 266 101 Q302 101 329 116.5 Q356 132 374.5 159.5 Q393 187 402.5 224.5 Q412 262 413 306 Q413 311 413 318 Q413 325 412 331 Q393 290 350 266.5 Q307 243 251 243 Q199 243 157.5 260.5 Q116 278 87.5 308 Q59 338 43.5 377.5 Q28 417 28 461 Q28 512 45 556 Q62 600 94 632 Q126 664 172.5 682 Q219 700 278 700 Q327 700 374 682.5 Q421 665 457.5 624.5 Q494 584 516 518 Q538 452 538 355 Q538 259 516.5 189.5 Q495 120 457.5 76 Q420 32 368.5 11 Q317 -10 258 -10 Z M273 358 Q323 358 355 389 Q387 420 387 471 Q387 496 378.5 517.5 Q370 539 354.5 555 Q339 571 318 580 Q297 589 273 589 Q246 589 225 579.5 Q204 570 189.5 553.5 Q175 537 167.5 516 Q160 495 160 471 Q160 422 190.5 390 Q221 358 273 358 Z " />
<glyph glyph-name="colon" unicode="&#x3a;" horiz-adv-x="268" d="M58 441 Q58 475 79 496 Q100 517 134 517 Q168 517 189 496 Q210 475 210 441 Q210 407 189 386 Q168 365 134 365 Q100 365 79 386 Q58 407 58 441 Z M58 57 Q58 91 79 112 Q100 133 134 133 Q168 133 189 112 Q210 91 210 57 Q210 23 189 2 Q168 -19 134 -19 Q100 -19 79 2 Q58 23 58 57 Z " />
<glyph glyph-name="semicolon" unicode="&#x3b;" horiz-adv-x="264" d="M71 119 L193 119 L148 -130 L50 -129 L71 119 Z M58 441 Q58 475 79 496 Q100 517 134 517 Q168 517 189 496 Q210 475 210 441 Q210 407 189 386 Q168 365 134 365 Q100 365 79 386 Q58 407 58 441 Z " />
<glyph glyph-name="less" unicode="&#x3c;" horiz-adv-x="482" d="M34 385 L427 563 L427 448 L153 336 L427 223 L427 108 L34 287 L34 385 Z " />
<glyph glyph-name="equal" unicode="&#x3d;" horiz-adv-x="482" d="M44 276 L437 276 L437 178 L44 178 L44 276 Z M44 476 L437 476 L437 378 L44 378 L44 476 Z " />
<glyph glyph-name="greater" unicode="&#x3e;" horiz-adv-x="482" d="M448 287 L55 108 L55 223 L329 336 L55 448 L55 563 L448 385 L448 287 Z " />
<glyph glyph-name="question" unicode="&#x3f;" horiz-adv-x="513" d="M171 214 Q171 257 175 287 Q179 317 191 340.5 Q203 364 224 384 Q245 404 278 428 Q313 454 329.5 472.5 Q346 491 346 518 Q346 550 322 569.5 Q298 589 257 589 Q208 589 180 562.5 Q152 536 144 485 L33 514 Q37 553 53.5 586.5 Q70 620 99 645.5 Q128 671 170 685.5 Q212 700 268 700 Q320 700 359.5 687 Q399 674 425 651 Q451 628 464 597 Q477 566 477 530 Q477 497 467 472 Q457 447 440.5 427 Q424 407 402.5 390.5 Q381 374 358 359 Q335 344 320 330.5 Q305 317 295.5 301.5 Q286 286 282 265 Q278 244 278 214 L171 214 Z M153 57 Q153 91 174 111.5 Q195 132 228 132 Q262 132 283 111.5 Q304 91 304 57 Q304 23 283 2 Q262 -19 228 -19 Q195 -19 174 2 Q153 23 153 57 Z " />
<glyph glyph-name="at" unicode="&#x40;" horiz-adv-x="900" d="M408 -10 Q349 -10 310 25 Q271 60 271 128 Q271 193 320.5 228 Q370 263 473 263 L521 263 L521 272 Q521 320 504 340 Q487 360 444 360 Q411 360 380.5 345 Q350 330 328 303 L270 388 Q304 426 352 444 Q400 462 452 462 Q503 462 538 449.5 Q573 437 594.5 414.5 Q616 392 625 361 Q634 330 634 293 L634 153 Q634 121 643.5 99.5 Q653 78 676 78 Q691 78 704.5 86.5 Q718 95 728 115 Q738 135 744 168 Q750 201 750 249 Q750 316 729.5 371.5 Q709 427 671.5 466 Q634 505 580.5 526.5 Q527 548 461 548 Q394 548 337 525 Q280 502 238 459 Q196 416 172.5 354 Q149 292 149 214 Q149 133 173.5 73.5 Q198 14 242.5 -25 Q287 -64 347.5 -83 Q408 -102 480 -102 L480 -209 Q381 -209 299 -182 Q217 -155 158 -101 Q99 -47 66.5 32.5 Q34 112 34 217 Q34 307 63.5 386.5 Q93 466 148 525.5 Q203 585 282.5 619.5 Q362 654 461 654 Q545 654 618.5 629 Q692 604 747 555 Q802 506 833.5 432.5 Q865 359 865 263 Q865 194 850.5 142.5 Q836 91 810 57 Q784 23 747.5 6.5 Q711 -10 667 -10 Q619 -10 584.5 9.5 Q550 29 537 63 Q514 25 481.5 7.5 Q449 -10 408 -10 Z M442 76 Q465 76 484.5 88 Q504 100 521 130 L521 192 L465 192 Q424 192 405.5 177 Q387 162 387 134 Q387 107 401.5 91.5 Q416 76 442 76 Z " />
<glyph glyph-name="A" unicode="A" horiz-adv-x="678" d="M20 0 L295 690 L384 690 L658 0 L517 0 L470 132 L197 132 L149 0 L20 0 Z M235 236 L433 236 L336 511 L235 236 Z " />
<glyph glyph-name="B" unicode="B" horiz-adv-x="594" d="M79 0 L79 690 L261 690 Q331 690 380 675.5 Q429 661 460 636 Q491 611 504.5 577 Q518 543 518 505 Q518 457 497.5 420.5 Q477 384 445 358 Q502 335 529 295.5 Q556 256 556 205 Q556 158 540.5 120.5 Q525 83 492 56 Q459 29 407.5 14.5 Q356 0 284 0 L79 0 Z M425 205 Q425 226 417 243.5 Q409 261 391 273 Q373 285 343.5 292 Q314 299 270 299 L207 299 L207 104 L278 104 Q351 104 388 127.5 Q425 151 425 205 Z M207 395 L266 396 Q328 397 357.5 423.5 Q387 450 387 493 Q387 540 354 563 Q321 586 245 586 L207 586 L207 395 Z " />
<glyph glyph-name="C" unicode="C" horiz-adv-x="656" d="M365 -10 Q293 -10 234.5 15 Q176 40 134.5 86.5 Q93 133 70.5 199 Q48 265 48 346 Q48 427 72 492.5 Q96 558 138.5 604 Q181 650 238.5 675 Q296 700 363 700 Q420 700 463 687.5 Q506 675 537.5 652.5 Q569 630 591 599 Q613 568 628 532 L506 485 Q487 533 449.5 559 Q412 585 358 585 Q317 585 284.5 568 Q252 551 228.5 520 Q205 489 192.5 445 Q180 401 180 347 Q180 231 229 168 Q278 105 370 105 Q424 105 465 131.5 Q506 158 535 208 L631 135 Q589 63 523.5 26.5 Q458 -10 365 -10 Z " />
<glyph glyph-name="D" unicode="D" horiz-adv-x="697" d="M81 0 L81 690 L282 690 Q369 690 437.5 666.5 Q506 643 553 598.5 Q600 554 624.5 490 Q649 426 649 345 Q649 271 623 207.5 Q597 144 547.5 98 Q498 52 427.5 26 Q357 0 268 0 L81 0 Z M265 104 Q328 104 375.5 122 Q423 140 454.5 172.5 Q486 205 501.5 249 Q517 293 517 345 Q517 459 459 521.5 Q401 584 281 584 L209 584 L209 104 L265 104 Z " />
<glyph glyph-name="E" unicode="E" horiz-adv-x="549" d="M81 0 L81 690 L502 690 L502 586 L209 586 L209 411 L417 411 L417 307 L209 307 L209 104 L506 104 L506 0 L81 0 Z " />
<glyph glyph-name="F" unicode="F" horiz-adv-x="545" d="M81 0 L81 690 L502 690 L502 586 L209 586 L209 362 L435 362 L435 258 L209 258 L209 0 L81 0 Z " />
<glyph glyph-name="G" unicode="G" horiz-adv-x="728" d="M368 585 Q325 585 290.5 568 Q256 551 231.5 520 Q207 489 193.5 445 Q180 401 180 347 Q180 231 231 166 Q282 101 376 101 Q412 101 444 111 Q476 121 500 142.5 Q524 164 539.5 197 Q555 230 559 277 L418 277 L418 383 L685 383 L685 321 Q685 250 664.5 189.5 Q644 129 605 85 Q566 41 509 15.5 Q452 -10 379 -10 Q304 -10 242.5 15 Q181 40 138 86.5 Q95 133 71.5 199 Q48 265 48 346 Q48 424 73 489 Q98 554 141.5 601 Q185 648 244.5 674 Q304 700 373 700 Q483 700 545.5 657.5 Q608 615 643 540 L524 485 Q504 533 463 559 Q422 585 368 585 Z " />
<glyph glyph-name="H" unicode="H" horiz-adv-x="718" d="M81 0 L81 690 L209 690 L209 402 L509 402 L509 690 L637 690 L637 0 L509 0 L509 298 L209 298 L209 0 L81 0 Z " />
<glyph glyph-name="I" unicode="I" horiz-adv-x="289" d="M81 0 L81 690 L209 690 L209 0 L81 0 Z " />
<glyph glyph-name="J" unicode="J" horiz-adv-x="301" d="M220 27 Q220 -33 205 -74.5 Q190 -116 162 -141 Q134 -166 95.5 -177 Q57 -188 9 -188 L-15 -188 L-15 -84 L0 -84 Q54 -84 73.5 -53 Q93 -22 93 48 L93 690 L220 690 L220 27 Z " />
<glyph glyph-name="K" unicode="K" horiz-adv-x="638" d="M81 0 L81 690 L209 690 L209 403 L249 403 Q334 403 381 445.5 Q428 488 428 556 Q428 593 418.5 618.5 Q409 644 395 666 L510 717 Q530 694 543 654 Q556 614 556 569 Q556 507 525.5 451.5 Q495 396 429 359 Q493 333 527.5 275 Q562 217 576 113 Q581 73 585.5 47 Q590 21 597 0 L467 0 Q462 20 458.5 42.5 Q455 65 449 104 Q439 166 424.5 204 Q410 242 388.5 263 Q367 284 336.5 291.5 Q306 299 264 299 L209 299 L209 0 L81 0 Z " />
<glyph glyph-name="L" unicode="L" horiz-adv-x="544" d="M503 104 L503 0 L81 0 L81 690 L209 690 L209 104 L503 104 Z " />
<glyph glyph-name="M" unicode="M" horiz-adv-x="806" d="M81 0 L81 690 L200 690 L404 340 L597 690 L725 690 L725 0 L597 0 L597 479 L438 192 L366 192 L200 477 L200 0 L81 0 Z " />
<glyph glyph-name="N" unicode="N" horiz-adv-x="713" d="M200 483 L200 0 L81 0 L81 690 L200 690 L513 209 L513 690 L633 690 L633 0 L513 0 L200 483 Z " />
<glyph glyph-name="O" unicode="O" horiz-adv-x="759" d="M380 -10 Q304 -10 242.5 15 Q181 40 138 86.5 Q95 133 71.5 198.5 Q48 264 48 345 Q48 423 72.5 488 Q97 553 141 600 Q185 647 245.5 673.5 Q306 700 378 700 Q454 700 516 675 Q578 650 621 603.5 Q664 557 687.5 491.5 Q711 426 711 345 Q711 267 686 202 Q661 137 617 90 Q573 43 512.5 16.5 Q452 -10 380 -10 Z M380 105 Q476 105 527.5 170 Q579 235 579 344 Q579 461 527.5 523 Q476 585 378 585 Q331 585 294 568 Q257 551 231.5 519.5 Q206 488 193 444 Q180 400 180 346 Q180 229 231.5 167 Q283 105 380 105 Z " />
<glyph glyph-name="P" unicode="P" horiz-adv-x="575" d="M209 217 L209 0 L81 0 L81 690 L238 690 Q318 690 374 672.5 Q430 655 465 624 Q500 593 516 550.5 Q532 508 532 459 Q532 396 508 350 Q484 304 443.5 274.5 Q403 245 349.5 231 Q296 217 237 217 L209 217 Z M209 586 L209 321 L237 321 Q315 321 357.5 355 Q400 389 400 459 Q400 525 358 555.5 Q316 586 225 586 L209 586 Z " />
<glyph glyph-name="Q" unicode="Q" horiz-adv-x="759" d="M380 -10 Q304 -10 242.5 15 Q181 40 138 86.5 Q95 133 71.5 198.5 Q48 264 48 345 Q48 423 72.5 488 Q97 553 141 600 Q185 647 245.5 673.5 Q306 700 378 700 Q454 700 516 675 Q578 650 621 603.5 Q664 557 687.5 491.5 Q711 426 711 345 Q711 267 686.5 203 Q662 139 618 91 L707 -33 L602 -106 L518 19 Q454 -10 380 -10 Z M380 105 Q476 105 527.5 170 Q579 235 579 344 Q579 461 527.5 523 Q476 585 378 585 Q331 585 294 568 Q257 551 231.5 519.5 Q206 488 193 444 Q180 400 180 346 Q180 229 231.5 167 Q283 105 380 105 Z " />
<glyph glyph-name="R" unicode="R" horiz-adv-x="595" d="M81 0 L81 690 L244 690 Q319 690 371.5 674 Q424 658 457 629.5 Q490 601 505 562.5 Q520 524 520 479 Q520 428 494 383 Q468 338 418 308 Q466 284 494.5 235.5 Q523 187 536 103 Q541 72 546 46 Q551 20 557 0 L426 0 L409 90 Q399 139 389 170.5 Q379 202 362 220.5 Q345 239 318.5 246 Q292 253 250 253 L209 253 L209 0 L81 0 Z M209 357 L248 357 Q324 357 356 389.5 Q388 422 388 473 Q388 531 348.5 558.5 Q309 586 224 586 L209 586 L209 357 Z " />
<glyph glyph-name="S" unicode="S" horiz-adv-x="536" d="M273 700 Q318 700 356.5 687 Q395 674 423.5 649 Q452 624 468.5 587 Q485 550 486 501 L360 486 Q352 543 325.5 566 Q299 589 263 589 Q230 589 206.5 569 Q183 549 183 512 Q183 489 192 472.5 Q201 456 217.5 443.5 Q234 431 257 421.5 Q280 412 307 403 Q356 386 392.5 367 Q429 348 453 324 Q477 300 489 269.5 Q501 239 501 200 Q501 150 482.5 111 Q464 72 432 45 Q400 18 356.5 4 Q313 -10 264 -10 Q209 -10 168.5 4 Q128 18 99.5 43 Q71 68 53.5 102.5 Q36 137 26 178 L147 213 Q151 191 160.5 171 Q170 151 184.5 135.5 Q199 120 220 111 Q241 102 269 102 Q289 102 307.5 107 Q326 112 340 123 Q354 134 362.5 151.5 Q371 169 371 193 Q371 216 361 232.5 Q351 249 332.5 262 Q314 275 289 285 Q264 295 234 304 Q201 314 169 329 Q137 344 111.5 367 Q86 390 70 423 Q54 456 54 501 Q54 543 68 579.5 Q82 616 110 643 Q138 670 178.5 685 Q219 700 273 700 Z " />
<glyph glyph-name="T" unicode="T" horiz-adv-x="566" d="M219 0 L219 586 L33 586 L33 690 L533 690 L533 586 L347 586 L347 0 L219 0 Z " />
<glyph glyph-name="U" unicode="U" horiz-adv-x="680" d="M338 -10 Q278 -10 229.5 6.5 Q181 23 146.5 56.5 Q112 90 93.5 140 Q75 190 75 257 L75 690 L203 690 L203 252 Q203 176 240 139 Q277 102 342 102 Q370 102 394.5 111 Q419 120 437.5 138 Q456 156 466.5 183.5 Q477 211 477 249 L477 690 L605 690 L605 260 Q605 196 586.5 145.5 Q568 95 533 60.5 Q498 26 448.5 8 Q399 -10 338 -10 Z " />
<glyph glyph-name="V" unicode="V" horiz-adv-x="675" d="M656 690 L384 0 L290 0 L19 690 L160 690 L340 193 L528 690 L656 690 Z " />
<glyph glyph-name="W" unicode="W" horiz-adv-x="963" d="M250 0 L32 690 L164 690 L312 176 L441 551 L525 551 L659 184 L806 690 L930 690 L712 0 L617 0 L477 393 L347 0 L250 0 Z " />
<glyph glyph-name="X" unicode="X" horiz-adv-x="664" d="M10 0 L256 359 L32 690 L187 690 L343 460 L500 690 L632 690 L410 360 L654 0 L500 0 L324 260 L149 0 L10 0 Z " />
<glyph glyph-name="Y" unicode="Y" horiz-adv-x="615" d="M244 0 L244 249 L13 690 L152 690 L313 349 L475 690 L602 690 L372 249 L372 0 L244 0 Z " />
<glyph glyph-name="Z" unicode="Z" horiz-adv-x="572" d="M181 104 L529 104 L529 0 L38 0 L38 102 L379 586 L55 586 L55 690 L523 690 L523 586 L181 104 Z " />
<glyph glyph-name="bracketleft" unicode="&#x5b;" horiz-adv-x="384" d="M135 740 L379 740 L379 651 L255 651 L255 -186 L379 -186 L379 -275 L135 -275 L135 740 Z " />
<glyph glyph-name="backslash" unicode="&#x5c;" horiz-adv-x="439" d="M313 0 L3 740 L126 740 L436 0 L313 0 Z " />
<glyph glyph-name="bracketright" unicode="&#x5d;" horiz-adv-x="384" d="M248 -275 L5 -275 L5 -186 L128 -186 L128 651 L5 651 L5 740 L248 740 L248 -275 Z " />
<glyph glyph-name="asciicircum" unicode="&#x5e;" horiz-adv-x="482" d="M40 445 L241 700 L442 445 L367 387 L241 546 L115 387 L40 445 Z " />
<glyph glyph-name="underscore" unicode="&#x5f;" horiz-adv-x="448" d="M23 0 L425 0 L425 -90 L23 -90 L23 0 Z " />
<glyph glyph-name="grave" unicode="&#x60;" horiz-adv-x="531" d="M138 702 L225 758 L322 597 L248 551 L138 702 Z " />
<glyph glyph-name="a" unicode="a" horiz-adv-x="520" d="M198 -10 Q165 -10 136.5 -0.5 Q108 9 87 27.5 Q66 46 54.5 73.5 Q43 101 43 138 Q43 212 98.5 251.5 Q154 291 271 291 L333 291 L333 315 Q333 366 311 388 Q289 410 235 410 Q199 410 164.5 393 Q130 376 104 348 L42 438 Q80 478 134.5 497.5 Q189 517 249 517 Q307 517 346 503.5 Q385 490 409 466.5 Q433 443 443 410 Q453 377 453 338 L453 0 L341 0 L341 58 Q315 22 279 6 Q243 -10 198 -10 Z M235 82 Q264 82 288 96 Q312 110 333 145 L333 215 L263 215 Q213 215 190 197 Q167 179 167 147 Q167 116 185 99 Q203 82 235 82 Z " />
<glyph glyph-name="b" unicode="b" horiz-adv-x="577" d="M72 740 L192 740 L192 469 Q214 492 244.5 504.5 Q275 517 314 517 Q419 517 475 449 Q531 381 531 258 Q531 197 513.5 147.5 Q496 98 465 63 Q434 28 393 9 Q352 -10 306 -10 Q261 -10 229.5 4.5 Q198 19 175 46 L175 0 L72 0 L72 740 Z M287 410 Q261 410 234.5 397 Q208 384 192 358 L192 146 Q222 97 286 97 Q343 97 375 136.5 Q407 176 407 255 Q407 410 287 410 Z " />
<glyph glyph-name="c" unicode="c" horiz-adv-x="497" d="M473 109 Q446 54 396 22 Q346 -10 271 -10 Q218 -10 175.5 8.5 Q133 27 103.5 60.5 Q74 94 58 142 Q42 190 42 250 Q42 311 59 360 Q76 409 107 444 Q138 479 181.5 498 Q225 517 279 517 Q356 517 408 483.5 Q460 450 478 376 L367 340 Q355 373 334 391.5 Q313 410 279 410 Q225 410 195.5 371 Q166 332 166 253 Q166 97 278 97 Q316 97 337.5 116.5 Q359 136 375 165 L473 109 Z " />
<glyph glyph-name="d" unicode="d" horiz-adv-x="579" d="M265 -10 Q158 -10 102 59 Q46 128 46 252 Q46 312 63.5 361 Q81 410 112 444.5 Q143 479 183.5 498 Q224 517 271 517 Q309 517 336.5 506.5 Q364 496 387 476 L387 740 L507 740 L507 0 L395 0 L395 46 Q372 20 340.5 5 Q309 -10 265 -10 Z M292 97 Q318 97 344.5 110 Q371 123 387 151 L387 359 Q355 410 292 410 Q235 410 202.5 371 Q170 332 170 254 Q170 97 292 97 Z " />
<glyph glyph-name="e" unicode="e" horiz-adv-x="536" d="M284 -10 Q227 -10 182.5 8.5 Q138 27 106.5 60.5 Q75 94 58.5 142 Q42 190 42 250 Q42 311 59 360 Q76 409 107 444 Q138 479 182 498 Q226 517 279 517 Q382 517 437 453.5 Q492 390 492 276 Q492 265 492 253.5 Q492 242 490 230 L163 230 Q168 162 199 127.5 Q230 93 284 93 Q319 93 344 113.5 Q369 134 386 164 L481 109 Q452 52 402.5 21 Q353 -10 284 -10 Z M273 414 Q231 414 204 387 Q177 360 167 307 L372 307 Q364 414 273 414 Z " />
<glyph glyph-name="f" unicode="f" horiz-adv-x="362" d="M23 507 L98 507 L98 564 Q98 653 140 696.5 Q182 740 281 740 L349 740 L349 645 L303 645 Q256 645 237 625 Q218 605 218 565 L218 507 L339 507 L339 419 L218 419 L218 0 L98 0 L98 419 L23 419 L23 507 Z " />
<glyph glyph-name="g" unicode="g" horiz-adv-x="533" d="M534 420 Q507 420 482.5 417.5 Q458 415 436 408 Q450 372 450 334 Q450 296 437.5 262 Q425 228 399 202.5 Q373 177 334 161.5 Q295 146 242 146 Q207 146 179 152 Q166 141 162 131 Q158 121 158 113 Q158 99 169.5 91 Q181 83 209 83 L315 83 Q373 83 412.5 72 Q452 61 476 42 Q500 23 510 -3 Q520 -29 520 -59 Q520 -106 495 -143 Q470 -180 427.5 -206 Q385 -232 329.5 -246 Q274 -260 213 -260 Q117 -260 69.5 -226 Q22 -192 22 -132 Q22 -85 43 -54 Q64 -23 99 0 Q72 13 59.5 34 Q47 55 47 81 Q47 137 113 181 Q75 207 57.5 246 Q40 285 40 330 Q40 370 53.5 404.5 Q67 439 93.5 464 Q120 489 159 503 Q198 517 248 517 Q293 517 328 505.5 Q363 494 387 474 Q416 493 448.5 505 Q481 517 534 517 L534 420 Z M173 -16 Q151 -34 142.5 -53 Q134 -72 134 -92 Q134 -156 238 -156 Q272 -156 301 -150 Q330 -144 351 -133 Q372 -122 384 -106.5 Q396 -91 396 -72 Q396 -43 374.5 -29.5 Q353 -16 305 -16 L173 -16 Z M245 244 Q270 244 287.5 252 Q305 260 315 272.5 Q325 285 329.5 300.5 Q334 316 334 332 Q334 348 329.5 363.5 Q325 379 314.5 391.5 Q304 404 287 411.5 Q270 419 245 419 Q220 419 203 411.5 Q186 404 175.5 391.5 Q165 379 160.5 363 Q156 347 156 331 Q156 315 160.5 299.5 Q165 284 175.5 271.5 Q186 259 203 251.5 Q220 244 245 244 Z " />
<glyph glyph-name="h" unicode="h" horiz-adv-x="574" d="M72 0 L72 740 L192 740 L192 457 Q216 482 252 499.5 Q288 517 340 517 Q385 517 417 503.5 Q449 490 469 466.5 Q489 443 498.5 410 Q508 377 508 338 L508 0 L388 0 L388 315 Q388 366 364.5 388 Q341 410 305 410 Q263 410 237.5 394 Q212 378 192 355 L192 0 L72 0 Z " />
<glyph glyph-name="i" unicode="i" horiz-adv-x="264" d="M133 569 Q99 569 79.5 589 Q60 609 60 641 Q60 676 79.5 696 Q99 716 133 716 Q167 716 187 696 Q207 676 207 641 Q207 609 187 589 Q167 569 133 569 Z M72 0 L72 507 L192 507 L192 0 L72 0 Z " />
<glyph glyph-name="j" unicode="j" horiz-adv-x="264" d="M-11 -180 L-3 -180 Q38 -180 55 -160.5 Q72 -141 72 -104 L72 507 L192 507 L192 -99 Q192 -187 150 -231 Q108 -275 14 -275 L-12 -275 L-11 -180 Z M132 569 Q99 569 79.5 589 Q60 609 60 641 Q60 676 79.5 696 Q99 716 132 716 Q167 716 186.5 696 Q206 676 206 641 Q206 609 186.5 589 Q167 569 132 569 Z " />
<glyph glyph-name="k" unicode="k" horiz-adv-x="549" d="M72 0 L72 740 L192 740 L192 0 L72 0 Z M496 0 Q464 0 439.5 4 Q415 8 393.5 19 Q372 30 352.5 49.5 Q333 69 311 101 L198 265 L390 507 L528 507 L332 265 L403 164 Q427 129 451 116.5 Q475 104 507 104 L516 104 L516 0 L496 0 Z " />
<glyph glyph-name="l" unicode="l" horiz-adv-x="264" d="M72 0 L72 740 L192 740 L192 0 L72 0 Z " />
<glyph glyph-name="m" unicode="m" horiz-adv-x="850" d="M783 0 L663 0 L663 315 Q663 366 643 388 Q623 410 590 410 Q552 410 528.5 394.5 Q505 379 487 356 Q488 351 488 347 Q488 343 488 338 L488 0 L368 0 L368 315 Q368 366 347.5 388 Q327 410 295 410 Q257 410 234 394.5 Q211 379 192 356 L192 0 L72 0 L72 507 L183 507 L183 450 Q206 477 241.5 497 Q277 517 330 517 Q384 517 418 496 Q452 475 469 438 Q481 453 495.5 467.5 Q510 482 529 493 Q548 504 572 510.5 Q596 517 625 517 Q667 517 697 503.5 Q727 490 746 466.5 Q765 443 774 410 Q783 377 783 338 L783 0 Z " />
<glyph glyph-name="n" unicode="n" horiz-adv-x="574" d="M72 0 L72 507 L183 507 L183 448 Q208 476 245.5 496.5 Q283 517 340 517 Q385 517 417 503.5 Q449 490 469 466.5 Q489 443 498.5 410 Q508 377 508 338 L508 0 L388 0 L388 315 Q388 366 364.5 388 Q341 410 305 410 Q263 410 237.5 394 Q212 378 192 355 L192 0 L72 0 Z " />
<glyph glyph-name="o" unicode="o" horiz-adv-x="576" d="M288 -10 Q232 -10 186.5 8.5 Q141 27 109 60.5 Q77 94 59.5 142 Q42 190 42 250 Q42 311 60.5 360 Q79 409 112 444 Q145 479 190 498 Q235 517 288 517 Q344 517 389.5 498.5 Q435 480 467 446.5 Q499 413 516 365 Q533 317 533 257 Q533 196 514.5 147 Q496 98 463.5 63 Q431 28 386 9 Q341 -10 288 -10 Z M288 97 Q341 97 375 136 Q409 175 409 254 Q409 333 377 371.5 Q345 410 288 410 Q234 410 200 371 Q166 332 166 253 Q166 174 198.5 135.5 Q231 97 288 97 Z " />
<glyph glyph-name="p" unicode="p" horiz-adv-x="577" d="M72 -250 L72 507 L183 507 L183 460 Q206 486 238 501.5 Q270 517 314 517 Q420 517 475.5 448 Q531 379 531 255 Q531 195 513.5 146 Q496 97 465 62.5 Q434 28 393 9 Q352 -10 306 -10 Q269 -10 241.5 0 Q214 10 192 30 L192 -250 L72 -250 Z M287 410 Q261 410 235 396.5 Q209 383 192 356 L192 146 Q222 97 286 97 Q343 97 375 136 Q407 175 407 253 Q407 410 287 410 Z " />
<glyph glyph-name="q" unicode="q" horiz-adv-x="579" d="M387 -250 L387 38 Q364 15 334.5 2.5 Q305 -10 265 -10 Q158 -10 102 59 Q46 128 46 252 Q46 313 64 362.5 Q82 412 113 446 Q144 480 186 498.5 Q228 517 276 517 Q311 517 340.5 506.5 Q370 496 395 477 L395 507 L507 507 L507 -250 L387 -250 Z M292 97 Q318 97 344.5 110 Q371 123 387 151 L387 359 Q355 410 292 410 Q235 410 202.5 371 Q170 332 170 254 Q170 97 292 97 Z " />
<glyph glyph-name="r" unicode="r" horiz-adv-x="390" d="M72 0 L72 507 L183 507 L183 447 Q209 476 253.5 496.5 Q298 517 367 517 L367 406 Q309 406 269 393.5 Q229 381 192 351 L192 0 L72 0 Z " />
<glyph glyph-name="s" unicode="s" horiz-adv-x="467" d="M238 518 Q284 518 317.5 507.5 Q351 497 373.5 479 Q396 461 409 437 Q422 413 428 386 L321 351 Q310 383 286 401 Q262 419 226 419 Q194 419 175 404 Q156 389 156 365 Q156 336 180 322 Q204 308 265 296 Q304 288 335.5 278 Q367 268 389.5 252 Q412 236 424.5 211.5 Q437 187 437 151 Q437 76 382 33 Q327 -10 227 -10 Q129 -10 82.5 31 Q36 72 24 141 L132 168 Q142 134 165 111 Q188 88 238 88 Q276 88 298.5 103 Q321 118 321 144 Q321 172 297 186 Q273 200 222 208 Q194 212 162 219.5 Q130 227 103 243 Q76 259 58 286 Q40 313 40 358 Q40 432 92.5 475 Q145 518 238 518 Z " />
<glyph glyph-name="t" unicode="t" horiz-adv-x="355" d="M17 507 L91 507 L91 609 L211 633 L211 507 L330 507 L330 419 L211 419 L211 172 Q211 130 229.5 113 Q248 96 295 95 L330 95 L330 0 L273 0 Q221 0 186 10.5 Q151 21 130 42 Q109 63 100 95 Q91 127 91 170 L91 419 L17 419 L17 507 Z " />
<glyph glyph-name="u" unicode="u" horiz-adv-x="554" d="M226 -10 Q184 -10 154 3.5 Q124 17 105 41 Q86 65 77 97.5 Q68 130 68 169 L68 507 L188 507 L188 192 Q188 141 208 119 Q228 97 261 97 Q298 97 321 112 Q344 127 363 150 L363 507 L483 507 L483 0 L372 0 L372 57 Q349 29 313.5 9.5 Q278 -10 226 -10 Z " />
<glyph glyph-name="v" unicode="v" horiz-adv-x="520" d="M14 507 L146 507 L265 117 L380 507 L505 507 L333 0 L188 0 L14 507 Z " />
<glyph glyph-name="w" unicode="w" horiz-adv-x="766" d="M19 507 L142 507 L244 127 L346 426 L425 426 L530 127 L625 507 L746 507 L595 0 L471 0 L379 262 L292 0 L171 0 L19 507 Z " />
<glyph glyph-name="x" unicode="x" horiz-adv-x="525" d="M16 0 L193 259 L26 507 L168 507 L274 349 L379 507 L507 507 L331 265 L509 0 L367 0 L253 169 L144 0 L16 0 Z " />
<glyph glyph-name="y" unicode="y" horiz-adv-x="530" d="M211 -15 L21 507 L152 507 L268 125 L387 507 L511 507 L295 -81 Q265 -166 215 -208 Q165 -250 81 -250 L33 -250 L33 -155 L79 -155 Q118 -155 142.5 -139.5 Q167 -124 183 -86 L211 -15 Z " />
<glyph glyph-name="z" unicode="z" horiz-adv-x="456" d="M166 95 L427 95 L427 0 L29 0 L29 88 L283 412 L47 412 L47 507 L423 507 L423 419 L166 95 Z " />
<glyph glyph-name="braceleft" unicode="&#x7b;" horiz-adv-x="384" d="M347 -275 Q290 -275 251 -263 Q212 -251 188 -227 Q164 -203 153.5 -166.5 Q143 -130 143 -80 L143 117 Q143 156 129.5 172 Q116 188 82 188 L65 188 L65 276 L82 276 Q116 276 129.5 292 Q143 308 143 347 L143 545 Q143 595 153.5 631.5 Q164 668 188 692 Q212 716 251 728 Q290 740 347 740 L379 740 L379 651 L348 651 Q320 651 303 643.5 Q286 636 277 622.5 Q268 609 265.5 590 Q263 571 263 548 L263 327 Q263 248 190 232 Q263 216 263 136 L263 -83 Q263 -106 265.5 -125 Q268 -144 277 -157.5 Q286 -171 303 -178.5 Q320 -186 348 -186 L379 -186 L379 -275 L347 -275 Z " />
<glyph glyph-name="bar" unicode="&#x7c;" horiz-adv-x="369" d="M127 -275 L127 740 L242 740 L242 -275 L127 -275 Z " />
<glyph glyph-name="braceright" unicode="&#x7d;" horiz-adv-x="384" d="M5 -186 L35 -186 Q63 -186 80 -178.5 Q97 -171 106 -157.5 Q115 -144 117.5 -125 Q120 -106 120 -83 L120 136 Q120 178 138.5 201 Q157 224 194 232 Q157 240 138.5 263 Q120 286 120 327 L120 548 Q120 571 117.5 590 Q115 609 106 622.5 Q97 636 80 643.5 Q63 651 35 651 L5 651 L5 740 L36 740 Q94 740 133 728 Q172 716 196 692 Q220 668 230.5 631.5 Q241 595 241 545 L241 347 Q241 308 254.5 292 Q268 276 302 276 L319 276 L319 188 L302 188 Q268 188 254.5 172 Q241 156 241 117 L241 -80 Q241 -130 230.5 -166.5 Q220 -203 196 -227 Q172 -251 133 -263 Q94 -275 36 -275 L5 -275 L5 -186 Z " />
<glyph glyph-name="asciitilde" unicode="&#x7e;" horiz-adv-x="482" d="M44 366 Q71 393 95 404 Q119 415 142 415 Q169 415 194 404 Q219 393 243.5 380 Q268 367 293 356 Q318 345 344 344 Q366 343 389 352 Q412 361 437 385 L437 287 Q412 262 389 253.5 Q366 245 344 246 Q318 247 293 258 Q268 269 243.5 282 Q219 295 194 306 Q169 317 142 317 Q119 317 95 306 Q71 295 44 267 L44 366 Z " />
<glyph glyph-name="uni00A0" unicode="&#xa0;" horiz-adv-x="213" d="" />
<glyph glyph-name="exclamdown" unicode="&#xa1;" horiz-adv-x="336" d="M227 -192 L107 -192 L116 283 L219 283 L227 -192 Z M92 441 Q92 475 113 495.5 Q134 516 168 516 Q202 516 222.5 495.5 Q243 475 243 441 Q243 407 222.5 386 Q202 365 168 365 Q134 365 113 386 Q92 407 92 441 Z " />
<glyph glyph-name="cent" unicode="&#xa2;" horiz-adv-x="495" d="M209 -2 Q126 17 80 83 Q34 149 34 250 Q34 353 81 421 Q128 489 209 509 L209 609 L324 609 L324 513 Q381 503 420 469.5 Q459 436 474 376 L362 340 Q350 373 327.5 391.5 Q305 410 272 410 Q218 410 188.5 371 Q159 332 159 253 Q159 174 189 135.5 Q219 97 276 97 Q308 97 331.5 116.5 Q355 136 370 165 L469 109 Q446 62 409.5 33 Q373 4 324 -5 L324 -103 L209 -103 L209 -2 Z " />
<glyph glyph-name="sterling" unicode="&#xa3;" horiz-adv-x="593" d="M89 332 L164 332 Q153 376 143 418 Q133 460 133 513 Q133 608 192.5 654 Q252 700 353 700 L457 700 L458 589 L361 589 Q306 589 283.5 568.5 Q261 548 261 503 Q261 454 270.5 414.5 Q280 375 291 332 L419 332 L419 251 L306 251 Q308 236 309 220.5 Q310 205 310 188 Q310 164 302.5 145 Q295 126 283.5 111.5 Q272 97 259.5 87.5 Q247 78 238 74 Q260 70 277.5 60.5 Q295 51 314 41.5 Q333 32 356 24.5 Q379 17 413 17 Q447 17 478.5 32.5 Q510 48 531 68 L588 -17 Q556 -50 507.5 -70 Q459 -90 411 -90 Q375 -90 348 -83.5 Q321 -77 299 -67 Q277 -57 256 -45 Q235 -33 210.5 -23 Q186 -13 155 -6.5 Q124 0 82 0 L41 0 L42 97 L91 97 Q130 97 156.5 117 Q183 137 183 189 Q183 206 182 221.5 Q181 237 179 251 L89 251 L89 332 Z " />
<glyph glyph-name="currency" unicode="&#xa4;" horiz-adv-x="482" d="M299 198 Q272 187 240 187 Q206 187 180 197 L122 140 L53 209 L111 267 Q106 281 103.5 295.5 Q101 310 101 327 Q101 362 111 386 L53 445 L122 514 L179 457 Q206 469 240 469 Q257 469 272 465.5 Q287 462 301 457 L359 515 L428 446 L369 387 Q379 359 379 331 Q379 297 367 269 L428 208 L359 139 L299 198 Z M240 267 Q265 267 281 283.5 Q297 300 297 329 Q297 357 281.5 372 Q266 387 240 387 Q215 387 199 371.5 Q183 356 183 327 Q183 299 198.5 283 Q214 267 240 267 Z " />
<glyph glyph-name="yen" unicode="&#xa5;" horiz-adv-x="638" d="M108 400 L176 400 L24 690 L164 690 L324 350 L486 690 L614 690 L462 400 L534 400 L534 319 L420 319 L384 249 L384 240 L534 240 L534 159 L384 159 L384 0 L256 0 L256 159 L108 159 L108 240 L256 240 L256 249 L219 319 L108 319 L108 400 Z " />
<glyph glyph-name="brokenbar" unicode="&#xa6;" horiz-adv-x="369" d="M127 349 L127 740 L242 740 L242 349 L127 349 Z M127 -275 L127 115 L242 115 L242 -275 L127 -275 Z " />
<glyph glyph-name="section" unicode="&#xa7;" horiz-adv-x="457" d="M220 -10 Q122 -10 75.5 31 Q29 72 17 141 L125 168 Q135 134 158 111 Q181 88 231 88 Q269 88 291.5 103 Q314 118 314 144 Q314 172 290 186 Q266 200 215 208 Q187 212 155 219.5 Q123 227 96 243 Q69 259 51 286 Q33 313 33 358 Q33 387 46 411 Q59 435 79 452 Q62 468 51.5 491 Q41 514 41 548 Q41 622 93 665.5 Q145 709 239 709 Q285 709 318 698 Q351 687 374 669 Q397 651 410 627 Q423 603 428 576 L322 541 Q311 573 287 591.5 Q263 610 227 610 Q195 610 176 595 Q157 580 157 555 Q157 526 181 512.5 Q205 499 266 486 Q305 478 336.5 468 Q368 458 390.5 442 Q413 426 425 401.5 Q437 377 437 341 Q437 309 424 286.5 Q411 264 389 247 Q409 231 419.5 208 Q430 185 430 151 Q430 76 375 33 Q320 -10 220 -10 Z M223 399 Q198 402 173 408 Q149 392 149 365 Q149 336 173 322 Q197 308 258 296 Q266 294 274 292.5 Q282 291 290 289 Q322 303 322 335 Q322 362 298 376.5 Q274 391 223 399 Z " />
<glyph glyph-name="dieresis" unicode="&#xa8;" horiz-adv-x="531" d="M179 582 Q152 582 136 598.5 Q120 615 120 641 Q120 670 136 686 Q152 702 179 702 Q208 702 224 686 Q240 670 240 641 Q240 615 224 598.5 Q208 582 179 582 Z M350 582 Q323 582 307 598.5 Q291 615 291 641 Q291 670 307 686 Q323 702 350 702 Q379 702 395 686 Q411 670 411 641 Q411 615 395 598.5 Q379 582 350 582 Z " />
<glyph glyph-name="copyright" unicode="&#xa9;" horiz-adv-x="790" d="M395 -11 Q317 -11 249 18.5 Q181 48 130.5 98.5 Q80 149 51.5 217.5 Q23 286 23 364 Q23 442 51.5 510.5 Q80 579 130.5 630 Q181 681 249 710.5 Q317 740 395 740 Q473 740 541 710.5 Q609 681 659 630 Q709 579 738 510.5 Q767 442 767 364 Q767 286 738 217.5 Q709 149 659 98.5 Q609 48 541 18.5 Q473 -11 395 -11 Z M395 45 Q461 45 518 70 Q575 95 617.5 138.5 Q660 182 684.5 240 Q709 298 709 364 Q709 430 684.5 488 Q660 546 617.5 589.5 Q575 633 518 658.5 Q461 684 395 684 Q329 684 272 658.5 Q215 633 172.5 589.5 Q130 546 105.5 488 Q81 430 81 364 Q81 298 105.5 240 Q130 182 172.5 138.5 Q215 95 272 70 Q329 45 395 45 Z M401 145 Q354 145 317 160 Q280 175 254 203 Q228 231 214.5 271 Q201 311 201 360 Q201 410 215.5 451 Q230 492 256 521 Q282 550 318 565.5 Q354 581 398 581 Q463 581 506 553 Q549 525 565 465 L475 436 Q453 495 398 495 Q352 495 326.5 462 Q301 429 301 363 Q301 231 401 231 Q428 231 448 247 Q468 263 481 288 L561 243 Q538 195 497 170 Q456 145 401 145 Z " />
<glyph glyph-name="ordfeminine" unicode="&#xaa;" horiz-adv-x="405" d="M155 334 Q107 334 76 360.5 Q45 387 45 439 Q45 491 84.5 522 Q124 553 207 553 L251 553 L251 565 Q251 595 236 609 Q221 623 188 623 Q126 623 90 582 L45 651 Q72 680 110.5 694 Q149 708 191 708 Q232 708 260.5 698.5 Q289 689 306.5 672 Q324 655 332 631.5 Q340 608 340 580 L340 342 L257 342 L257 383 Q238 357 212.5 345.5 Q187 334 155 334 Z M181 409 Q202 409 219 419 Q236 429 251 454 L251 492 L201 492 Q169 492 156.5 480.5 Q144 469 144 449 Q144 409 181 409 Z " />
<glyph glyph-name="guillemotleft" unicode="&#xab;" horiz-adv-x="588" d="M291 293 L453 454 L522 380 L384 253 L522 127 L453 53 L291 213 L291 293 Z M53 293 L215 454 L284 380 L146 253 L284 127 L215 53 L53 213 L53 293 Z " />
<glyph glyph-name="logicalnot" unicode="&#xac;" horiz-adv-x="482" d="M44 476 L437 476 L437 220 L339 220 L339 378 L44 378 L44 476 Z " />
<glyph glyph-name="uni00AD" unicode="&#xad;" horiz-adv-x="441" d="" />
<glyph glyph-name="registered" unicode="&#xae;" horiz-adv-x="733" d="M366 169 Q294 169 231.5 196 Q169 223 122.5 270 Q76 317 49.5 380 Q23 443 23 515 Q23 587 49.5 650.5 Q76 714 122.5 761 Q169 808 231.5 835 Q294 862 366 862 Q438 862 500.5 835 Q563 808 609.5 761 Q656 714 683 650.5 Q710 587 710 515 Q710 443 683 380 Q656 317 609.5 270 Q563 223 500.5 196 Q438 169 366 169 Z M366 223 Q426 223 478.5 246 Q531 269 570 308.5 Q609 348 631.5 401.5 Q654 455 654 515 Q654 575 631.5 628.5 Q609 682 570 722 Q531 762 478.5 785.5 Q426 809 366 809 Q306 809 253.5 785.5 Q201 762 162 722 Q123 682 100.5 628.5 Q78 575 78 515 Q78 455 100.5 401.5 Q123 348 162 308.5 Q201 269 253.5 246 Q306 223 366 223 Z M245 342 L245 705 L340 705 Q379 705 407 696.5 Q435 688 452.5 673 Q470 658 478 638 Q486 618 486 595 Q486 566 471.5 542.5 Q457 519 427 505 Q454 493 469.5 468 Q485 443 493 397 Q496 380 498.5 366.5 Q501 353 505 342 L426 342 Q424 352 422 363 Q420 374 418 390 Q409 436 390.5 451 Q372 466 337 466 L322 466 L322 342 L245 342 Z M322 531 L336 531 Q375 531 390.5 547 Q406 563 406 588 Q406 615 390 628 Q374 641 329 641 L322 641 L322 531 Z " />
<glyph glyph-name="macron" unicode="&#xaf;" horiz-adv-x="531" d="M127 609 L127 693 L405 693 L405 609 L127 609 Z " />
<glyph glyph-name="degree" unicode="&#xb0;" horiz-adv-x="358" d="M237 560 Q237 588 221.5 603 Q206 618 179 618 Q154 618 138 602.5 Q122 587 122 558 Q122 530 137.5 514 Q153 498 179 498 Q204 498 220.5 514.5 Q237 531 237 560 Z M40 558 Q40 622 78.5 661 Q117 700 179 700 Q245 700 281.5 662.5 Q318 625 318 562 Q318 498 279.5 458 Q241 418 179 418 Q113 418 76.5 456.5 Q40 495 40 558 Z " />
<glyph glyph-name="plusminus" unicode="&#xb1;" horiz-adv-x="482" d="M44 419 L188 419 L188 567 L294 567 L294 419 L437 419 L437 321 L294 321 L294 171 L188 171 L188 321 L44 321 L44 419 Z M44 101 L437 101 L437 3 L44 3 L44 101 Z " />
<glyph glyph-name="twosuperior" unicode="&#xb2;" horiz-adv-x="348" d="M39 583 Q44 638 78.5 673 Q113 708 184 708 Q217 708 241 699.5 Q265 691 280.5 677 Q296 663 304 644.5 Q312 626 312 605 Q312 585 308 569 Q304 553 293.5 538 Q283 523 263 508.5 Q243 494 212 477 Q189 464 176 455.5 Q163 447 155.5 440.5 Q148 434 145 428 Q142 422 139 414 L307 414 L307 340 L40 340 L40 374 Q40 397 44 416.5 Q48 436 58.5 453.5 Q69 471 88 487 Q107 503 137 520 Q162 534 177 543 Q192 552 200 559.5 Q208 567 210 573.5 Q212 580 212 588 Q212 619 177 619 Q139 619 131 576 L39 583 L39 583 Z " />
<glyph glyph-name="threesuperior" unicode="&#xb3;" horiz-adv-x="348" d="M155 548 L158 548 Q189 550 199 561 Q209 572 209 587 Q209 601 199.5 610 Q190 619 170 619 Q148 619 137.5 607 Q127 595 124 579 L34 593 Q41 647 77.5 677.5 Q114 708 175 708 Q242 708 275.5 678 Q309 648 309 601 Q309 575 298.5 557.5 Q288 540 270 529 Q293 518 307 500 Q321 482 321 453 Q321 423 308.5 400.5 Q296 378 275 363.5 Q254 349 228 341.5 Q202 334 175 334 Q148 334 122.5 340.5 Q97 347 77 361.5 Q57 376 43.5 398.5 Q30 421 27 454 L118 471 Q123 446 135 435 Q147 424 172 424 Q195 424 207.5 434.5 Q220 445 220 462 Q220 478 208 489 Q196 500 155 501 L155 548 Z " />
<glyph glyph-name="acute" unicode="&#xb4;" horiz-adv-x="531" d="M273 551 L199 597 L296 758 L383 702 L273 551 Z " />
<glyph glyph-name="mu" unicode="&#xb5;" horiz-adv-x="553" d="M69 507 L189 507 L189 182 Q191 136 210.5 116.5 Q230 97 262 97 Q300 97 323 112.5 Q346 128 365 151 L365 507 L485 507 L485 0 L373 0 L373 56 Q349 29 314 9.5 Q279 -10 227 -10 Q216 -10 206.5 -9 Q197 -8 189 -6 L189 -250 L69 -250 L69 507 Z " />
<glyph glyph-name="paragraph" unicode="&#xb6;" horiz-adv-x="634" d="M259 0 L259 285 Q210 285 170 300 Q130 315 102 342 Q74 369 58.5 408 Q43 447 43 495 Q43 540 57.5 577.5 Q72 615 99.5 642.5 Q127 670 167 685 Q207 700 259 700 L374 700 L374 0 L259 0 Z M425 0 L425 700 L540 700 L540 0 L425 0 Z " />
<glyph glyph-name="periodcentered" unicode="&#xb7;" horiz-adv-x="531" d="M193 324 Q193 359 212.5 378.5 Q232 398 265 398 Q299 398 319 378.5 Q339 359 339 324 Q339 292 319 272 Q299 252 265 252 Q232 252 212.5 272 Q193 292 193 324 Z " />
<glyph glyph-name="cedilla" unicode="&#xb8;" horiz-adv-x="531" d="M271 6 L271 -60 Q278 -58 285 -58 Q292 -58 297 -58 Q342 -58 368 -82 Q394 -106 394 -149 Q394 -180 381.5 -201 Q369 -222 348 -235 Q327 -248 301 -254 Q275 -260 248 -260 Q209 -260 181.5 -246 Q154 -232 140 -215 L175 -161 Q186 -170 203.5 -182 Q221 -194 255 -194 Q280 -194 297 -185 Q314 -176 314 -153 Q314 -131 299 -121 Q284 -111 258 -111 Q242 -111 229.5 -113 Q217 -115 208 -117 L208 5 L271 6 Z " />
<glyph glyph-name="onesuperior" unicode="&#xb9;" horiz-adv-x="348" d="M141 703 L228 703 L228 340 L132 340 L132 596 L74 552 L30 616 L141 703 Z " />
<glyph glyph-name="ordmasculine" unicode="&#xba;" horiz-adv-x="405" d="M203 334 Q125 334 79.5 384 Q34 434 34 519 Q34 562 47 597 Q60 632 82.5 656.5 Q105 681 136 694.5 Q167 708 203 708 Q281 708 326 658.5 Q371 609 371 524 Q371 481 358 446 Q345 411 322.5 386 Q300 361 269.5 347.5 Q239 334 203 334 Z M203 427 Q233 427 252.5 450.5 Q272 474 272 522 Q272 570 253.5 593 Q235 616 203 616 Q173 616 153 592.5 Q133 569 133 521 Q133 473 152 450 Q171 427 203 427 Z " />
<glyph glyph-name="guillemotright" unicode="&#xbb;" horiz-adv-x="588" d="M535 213 L373 53 L304 127 L442 253 L304 380 L373 454 L535 293 L535 213 Z M297 213 L135 53 L66 127 L204 253 L66 380 L135 454 L297 293 L297 213 Z " />
<glyph glyph-name="onequarter" unicode="&#xbc;" horiz-adv-x="797" d="M115 38 L660 708 L724 655 L180 -19 L115 38 Z M141 703 L228 703 L228 340 L132 340 L132 596 L74 552 L30 616 L141 703 Z M451 125 L622 365 L713 365 L713 138 L760 138 L760 65 L713 65 L713 1 L626 1 L626 65 L451 65 L451 125 Z M542 138 L626 138 L626 260 L542 138 Z " />
<glyph glyph-name="onehalf" unicode="&#xbd;" horiz-adv-x="797" d="M102 38 L647 708 L711 655 L167 -19 L102 38 Z M141 703 L228 703 L228 340 L132 340 L132 596 L74 552 L30 616 L141 703 Z M488 244 Q493 299 527.5 334 Q562 369 633 369 Q666 369 690 360.5 Q714 352 729.5 338 Q745 324 753 305.5 Q761 287 761 266 Q761 246 757 230 Q753 214 742.5 199 Q732 184 712 169.5 Q692 155 661 138 Q638 125 625 116.5 Q612 108 604.5 101.5 Q597 95 594 89 Q591 83 588 75 L756 75 L756 1 L489 1 L489 35 Q489 58 493 77.5 Q497 97 507.5 114.5 Q518 132 537 148 Q556 164 586 181 Q611 195 626 204 Q641 213 649 220.5 Q657 228 659 234.5 Q661 241 661 249 Q661 280 626 280 Q588 280 580 237 L488 244 L488 244 Z " />
<glyph glyph-name="threequarters" unicode="&#xbe;" horiz-adv-x="797" d="M112 38 L657 708 L721 655 L177 -19 L112 38 Z M451 125 L622 365 L713 365 L713 138 L760 138 L760 65 L713 65 L713 1 L626 1 L626 65 L451 65 L451 125 Z M542 138 L626 138 L626 260 L542 138 Z M155 548 L158 548 Q189 550 199 561 Q209 572 209 587 Q209 601 199.5 610 Q190 619 170 619 Q148 619 137.5 607 Q127 595 124 579 L34 593 Q41 647 77.5 677.5 Q114 708 175 708 Q242 708 275.5 678 Q309 648 309 601 Q309 575 298.5 557.5 Q288 540 270 529 Q293 518 307 500 Q321 482 321 453 Q321 423 308.5 400.5 Q296 378 275 363.5 Q254 349 228 341.5 Q202 334 175 334 Q148 334 122.5 340.5 Q97 347 77 361.5 Q57 376 43.5 398.5 Q30 421 27 454 L118 471 Q123 446 135 435 Q147 424 172 424 Q195 424 207.5 434.5 Q220 445 220 462 Q220 478 208 489 Q196 500 155 501 L155 548 Z " />
<glyph glyph-name="questiondown" unicode="&#xbf;" horiz-adv-x="513" d="M339 283 Q339 240 335 210 Q331 180 319.5 156.5 Q308 133 287 113 Q266 93 232 69 Q197 43 180.5 24.5 Q164 6 164 -21 Q164 -53 188 -72.5 Q212 -92 253 -92 Q303 -92 330.5 -65.5 Q358 -39 366 12 L477 -17 Q473 -56 456.5 -89.5 Q440 -123 411 -148.5 Q382 -174 339.5 -188.5 Q297 -203 242 -203 Q189 -203 150 -190 Q111 -177 85.5 -154 Q60 -131 47 -100 Q34 -69 34 -33 Q34 0 43.5 25 Q53 50 69.5 70 Q86 90 107.5 106.5 Q129 123 153 138 Q175 153 190.5 166.5 Q206 180 215 195.5 Q224 211 228 232 Q232 253 232 283 L339 283 Z M206 440 Q206 474 227 495 Q248 516 282 516 Q316 516 336.5 495 Q357 474 357 440 Q357 406 336.5 385.5 Q316 365 282 365 Q248 365 227 385.5 Q206 406 206 440 Z " />
<glyph glyph-name="Agrave" unicode="&#xc0;" horiz-adv-x="678" d="M20 0 L295 690 L384 690 L658 0 L517 0 L470 132 L197 132 L149 0 L20 0 Z M235 236 L433 236 L336 511 L235 236 Z M211 885 L298 940 L395 780 L321 734 L211 885 Z " />
<glyph glyph-name="Aacute" unicode="&#xc1;" horiz-adv-x="678" d="M20 0 L295 690 L384 690 L658 0 L517 0 L470 132 L197 132 L149 0 L20 0 Z M235 236 L433 236 L336 511 L235 236 Z M346 734 L272 780 L369 940 L456 885 L346 734 Z " />
<glyph glyph-name="Acircumflex" unicode="&#xc2;" horiz-adv-x="678" d="M20 0 L295 690 L384 690 L658 0 L517 0 L470 132 L197 132 L149 0 L20 0 Z M235 236 L433 236 L336 511 L235 236 Z M339 851 L245 734 L180 780 L294 940 L384 940 L498 780 L432 734 L339 851 Z " />
<glyph glyph-name="Atilde" unicode="&#xc3;" horiz-adv-x="678" d="M20 0 L295 690 L384 690 L658 0 L517 0 L470 132 L197 132 L149 0 L20 0 Z M235 236 L433 236 L336 511 L235 236 Z M166 812 Q182 848 210 870 Q238 892 267 892 Q288 892 304 885 Q320 878 334.5 869 Q349 860 362.5 853 Q376 846 391 846 Q408 846 421.5 855.5 Q435 865 450 887 L510 836 Q492 799 462.5 774.5 Q433 750 401 750 Q380 750 363 757 Q346 764 332 773 Q318 782 304.5 789 Q291 796 276 796 Q259 796 247.5 786 Q236 776 222 759 L166 812 Z " />
<glyph glyph-name="Adieresis" unicode="&#xc4;" horiz-adv-x="678" d="M20 0 L295 690 L384 690 L658 0 L517 0 L470 132 L197 132 L149 0 L20 0 Z M235 236 L433 236 L336 511 L235 236 Z M252 765 Q225 765 209 781 Q193 797 193 824 Q193 853 209 868.5 Q225 884 252 884 Q281 884 297 868.5 Q313 853 313 824 Q313 797 297 781 Q281 765 252 765 Z M423 765 Q396 765 380 781 Q364 797 364 824 Q364 853 380 868.5 Q396 884 423 884 Q452 884 468 868.5 Q484 853 484 824 Q484 797 468 781 Q452 765 423 765 Z " />
<glyph glyph-name="Aring" unicode="&#xc5;" horiz-adv-x="678" d="M20 0 L295 690 L384 690 L658 0 L517 0 L470 132 L197 132 L149 0 L20 0 Z M235 236 L433 236 L336 511 L235 236 Z M337 734 Q290 734 263 761.5 Q236 789 236 835 Q236 883 263.5 911 Q291 939 337 939 Q385 939 413 911 Q441 883 441 834 Q441 789 413 761.5 Q385 734 337 734 Z M338 790 Q360 790 372.5 802.5 Q385 815 385 835 Q385 857 372.5 870 Q360 883 338 883 Q318 883 305 870 Q292 857 292 835 Q292 815 305 802.5 Q318 790 338 790 Z " />
<glyph glyph-name="AE" unicode="&#xc6;" horiz-adv-x="942" d="M2 0 L428 690 L896 690 L896 586 L603 586 L603 411 L811 411 L811 307 L603 307 L603 104 L900 104 L900 0 L475 0 L475 158 L232 158 L139 0 L2 0 Z M475 262 L475 568 L294 262 L475 262 Z " />
<glyph glyph-name="Ccedilla" unicode="&#xc7;" horiz-adv-x="656" d="M363 -10 L363 -60 Q370 -58 377 -58 Q384 -58 389 -58 Q434 -58 460 -82 Q486 -106 486 -149 Q486 -180 473.5 -201 Q461 -222 440 -235 Q419 -248 393 -254 Q367 -260 340 -260 Q301 -260 273.5 -246 Q246 -232 232 -215 L267 -161 Q278 -170 295.5 -182 Q313 -194 347 -194 Q372 -194 389 -185 Q406 -176 406 -153 Q406 -131 391 -121 Q376 -111 350 -111 Q334 -111 321.5 -113 Q309 -115 300 -117 L300 -4 Q242 6 195.5 35 Q149 64 116 109 Q83 154 65.5 214 Q48 274 48 346 Q48 427 72 492.5 Q96 558 138.5 604 Q181 650 238.5 675 Q296 700 363 700 Q420 700 463 687.5 Q506 675 537.5 652.5 Q569 630 591 599 Q613 568 628 532 L506 485 Q487 533 449.5 559 Q412 585 358 585 Q317 585 284.5 568 Q252 551 228.5 520 Q205 489 192.5 445 Q180 401 180 347 Q180 231 229 168 Q278 105 370 105 Q424 105 465 131.5 Q506 158 535 208 L631 135 Q589 63 523.5 26.5 Q458 -10 365 -10 L363 -10 Z " />
<glyph glyph-name="Egrave" unicode="&#xc8;" horiz-adv-x="549" d="M81 0 L81 690 L502 690 L502 586 L209 586 L209 411 L417 411 L417 307 L209 307 L209 104 L506 104 L506 0 L81 0 Z M168 885 L255 940 L352 780 L278 734 L168 885 Z " />
<glyph glyph-name="Eacute" unicode="&#xc9;" horiz-adv-x="549" d="M81 0 L81 690 L502 690 L502 586 L209 586 L209 411 L417 411 L417 307 L209 307 L209 104 L506 104 L506 0 L81 0 Z M297 734 L223 780 L320 940 L407 885 L297 734 Z " />
<glyph glyph-name="Ecircumflex" unicode="&#xca;" horiz-adv-x="549" d="M81 0 L81 690 L502 690 L502 586 L209 586 L209 411 L417 411 L417 307 L209 307 L209 104 L506 104 L506 0 L81 0 Z M294 851 L200 734 L135 780 L249 940 L339 940 L453 780 L387 734 L294 851 Z " />
<glyph glyph-name="Edieresis" unicode="&#xcb;" horiz-adv-x="549" d="M81 0 L81 690 L502 690 L502 586 L209 586 L209 411 L417 411 L417 307 L209 307 L209 104 L506 104 L506 0 L81 0 Z M207 765 Q180 765 164 781 Q148 797 148 824 Q148 853 164 868.5 Q180 884 207 884 Q236 884 252 868.5 Q268 853 268 824 Q268 797 252 781 Q236 765 207 765 Z M378 765 Q351 765 335 781 Q319 797 319 824 Q319 853 335 868.5 Q351 884 378 884 Q407 884 423 868.5 Q439 853 439 824 Q439 797 423 781 Q407 765 378 765 Z " />
<glyph glyph-name="Igrave" unicode="&#xcc;" horiz-adv-x="289" d="M81 0 L81 690 L209 690 L209 0 L81 0 Z M17 885 L104 940 L201 780 L127 734 L17 885 Z " />
<glyph glyph-name="Iacute" unicode="&#xcd;" horiz-adv-x="289" d="M81 0 L81 690 L209 690 L209 0 L81 0 Z M152 734 L78 780 L175 940 L262 885 L152 734 Z " />
<glyph glyph-name="Icircumflex" unicode="&#xce;" horiz-adv-x="289" d="M81 0 L81 690 L209 690 L209 0 L81 0 Z M145 851 L51 734 L-14 780 L100 940 L190 940 L304 780 L238 734 L145 851 Z " />
<glyph glyph-name="Idieresis" unicode="&#xcf;" horiz-adv-x="289" d="M81 0 L81 690 L209 690 L209 0 L81 0 Z M58 765 Q31 765 15 781 Q-1 797 -1 824 Q-1 853 15 868.5 Q31 884 58 884 Q87 884 103 868.5 Q119 853 119 824 Q119 797 103 781 Q87 765 58 765 Z M229 765 Q202 765 186 781 Q170 797 170 824 Q170 853 186 868.5 Q202 884 229 884 Q258 884 274 868.5 Q290 853 290 824 Q290 797 274 781 Q258 765 229 765 Z " />
<glyph glyph-name="Eth" unicode="&#xd0;" horiz-adv-x="704" d="M25 382 L88 382 L88 690 L290 690 Q377 690 445 666.5 Q513 643 560 598.5 Q607 554 631.5 490 Q656 426 656 345 Q656 271 630 207.5 Q604 144 555 98 Q506 52 435.5 26 Q365 0 276 0 L88 0 L88 315 L25 315 L25 382 Z M273 104 Q336 104 383.5 122 Q431 140 462 172.5 Q493 205 508.5 249 Q524 293 524 345 Q524 459 466.5 521.5 Q409 584 289 584 L216 584 L216 382 L341 382 L341 315 L216 315 L216 104 L273 104 Z " />
<glyph glyph-name="Ntilde" unicode="&#xd1;" horiz-adv-x="713" d="M200 483 L200 0 L81 0 L81 690 L200 690 L513 209 L513 690 L633 690 L633 0 L513 0 L200 483 Z M184 812 Q200 848 228 870 Q256 892 285 892 Q306 892 322 885 Q338 878 352.5 869 Q367 860 380.5 853 Q394 846 409 846 Q426 846 439.5 855.5 Q453 865 468 887 L528 836 Q510 799 480.5 774.5 Q451 750 419 750 Q398 750 381 757 Q364 764 350 773 Q336 782 322.5 789 Q309 796 294 796 Q277 796 265.5 786 Q254 776 240 759 L184 812 Z " />
<glyph glyph-name="Ograve" unicode="&#xd2;" horiz-adv-x="759" d="M380 -10 Q304 -10 242.5 15 Q181 40 138 86.5 Q95 133 71.5 198.5 Q48 264 48 345 Q48 423 72.5 488 Q97 553 141 600 Q185 647 245.5 673.5 Q306 700 378 700 Q454 700 516 675 Q578 650 621 603.5 Q664 557 687.5 491.5 Q711 426 711 345 Q711 267 686 202 Q661 137 617 90 Q573 43 512.5 16.5 Q452 -10 380 -10 Z M380 105 Q476 105 527.5 170 Q579 235 579 344 Q579 461 527.5 523 Q476 585 378 585 Q331 585 294 568 Q257 551 231.5 519.5 Q206 488 193 444 Q180 400 180 346 Q180 229 231.5 167 Q283 105 380 105 Z M252 885 L339 940 L436 780 L362 734 L252 885 Z " />
<glyph glyph-name="Oacute" unicode="&#xd3;" horiz-adv-x="759" d="M380 -10 Q304 -10 242.5 15 Q181 40 138 86.5 Q95 133 71.5 198.5 Q48 264 48 345 Q48 423 72.5 488 Q97 553 141 600 Q185 647 245.5 673.5 Q306 700 378 700 Q454 700 516 675 Q578 650 621 603.5 Q664 557 687.5 491.5 Q711 426 711 345 Q711 267 686 202 Q661 137 617 90 Q573 43 512.5 16.5 Q452 -10 380 -10 Z M380 105 Q476 105 527.5 170 Q579 235 579 344 Q579 461 527.5 523 Q476 585 378 585 Q331 585 294 568 Q257 551 231.5 519.5 Q206 488 193 444 Q180 400 180 346 Q180 229 231.5 167 Q283 105 380 105 Z M387 734 L313 780 L410 940 L497 885 L387 734 Z " />
<glyph glyph-name="Ocircumflex" unicode="&#xd4;" horiz-adv-x="759" d="M380 -10 Q304 -10 242.5 15 Q181 40 138 86.5 Q95 133 71.5 198.5 Q48 264 48 345 Q48 423 72.5 488 Q97 553 141 600 Q185 647 245.5 673.5 Q306 700 378 700 Q454 700 516 675 Q578 650 621 603.5 Q664 557 687.5 491.5 Q711 426 711 345 Q711 267 686 202 Q661 137 617 90 Q573 43 512.5 16.5 Q452 -10 380 -10 Z M380 105 Q476 105 527.5 170 Q579 235 579 344 Q579 461 527.5 523 Q476 585 378 585 Q331 585 294 568 Q257 551 231.5 519.5 Q206 488 193 444 Q180 400 180 346 Q180 229 231.5 167 Q283 105 380 105 Z M380 851 L286 734 L221 780 L335 940 L425 940 L539 780 L473 734 L380 851 Z " />
<glyph glyph-name="Otilde" unicode="&#xd5;" horiz-adv-x="759" d="M380 -10 Q304 -10 242.5 15 Q181 40 138 86.5 Q95 133 71.5 198.5 Q48 264 48 345 Q48 423 72.5 488 Q97 553 141 600 Q185 647 245.5 673.5 Q306 700 378 700 Q454 700 516 675 Q578 650 621 603.5 Q664 557 687.5 491.5 Q711 426 711 345 Q711 267 686 202 Q661 137 617 90 Q573 43 512.5 16.5 Q452 -10 380 -10 Z M380 105 Q476 105 527.5 170 Q579 235 579 344 Q579 461 527.5 523 Q476 585 378 585 Q331 585 294 568 Q257 551 231.5 519.5 Q206 488 193 444 Q180 400 180 346 Q180 229 231.5 167 Q283 105 380 105 Z M207 812 Q223 848 251 870 Q279 892 308 892 Q329 892 345 885 Q361 878 375.5 869 Q390 860 403.5 853 Q417 846 432 846 Q449 846 462.5 855.5 Q476 865 491 887 L551 836 Q533 799 503.5 774.5 Q474 750 442 750 Q421 750 404 757 Q387 764 373 773 Q359 782 345.5 789 Q332 796 317 796 Q300 796 288.5 786 Q277 776 263 759 L207 812 Z " />
<glyph glyph-name="Odieresis" unicode="&#xd6;" horiz-adv-x="759" d="M380 -10 Q304 -10 242.5 15 Q181 40 138 86.5 Q95 133 71.5 198.5 Q48 264 48 345 Q48 423 72.5 488 Q97 553 141 600 Q185 647 245.5 673.5 Q306 700 378 700 Q454 700 516 675 Q578 650 621 603.5 Q664 557 687.5 491.5 Q711 426 711 345 Q711 267 686 202 Q661 137 617 90 Q573 43 512.5 16.5 Q452 -10 380 -10 Z M380 105 Q476 105 527.5 170 Q579 235 579 344 Q579 461 527.5 523 Q476 585 378 585 Q331 585 294 568 Q257 551 231.5 519.5 Q206 488 193 444 Q180 400 180 346 Q180 229 231.5 167 Q283 105 380 105 Z M293 765 Q266 765 250 781 Q234 797 234 824 Q234 853 250 868.5 Q266 884 293 884 Q322 884 338 868.5 Q354 853 354 824 Q354 797 338 781 Q322 765 293 765 Z M464 765 Q437 765 421 781 Q405 797 405 824 Q405 853 421 868.5 Q437 884 464 884 Q493 884 509 868.5 Q525 853 525 824 Q525 797 509 781 Q493 765 464 765 Z " />
<glyph glyph-name="multiply" unicode="&#xd7;" horiz-adv-x="482" d="M53 209 L171 327 L53 445 L122 514 L240 396 L359 515 L428 446 L309 327 L428 208 L359 139 L240 258 L122 140 L53 209 Z " />
<glyph glyph-name="Oslash" unicode="&#xd8;" horiz-adv-x="742" d="M62 33 L118 100 Q80 146 59.5 207.5 Q39 269 39 345 Q39 423 64 488 Q89 553 133 600 Q177 647 237.5 673.5 Q298 700 370 700 Q430 700 480 684.5 Q530 669 570 640 L621 700 L672 657 L620 595 Q660 548 681 485.5 Q702 423 702 345 Q702 267 677.5 202 Q653 137 609 90 Q565 43 504.5 16.5 Q444 -10 372 -10 Q310 -10 258.5 6.5 Q207 23 165 54 L112 -10 L62 33 Z M372 105 Q419 105 456 122 Q493 139 518.5 170 Q544 201 557 245.5 Q570 290 570 344 Q570 437 537 496 L243 147 Q292 105 372 105 Z M171 346 Q171 256 201 199 L493 547 Q444 585 370 585 Q323 585 286 568 Q249 551 223.5 519.5 Q198 488 184.5 444 Q171 400 171 346 Z " />
<glyph glyph-name="Ugrave" unicode="&#xd9;" horiz-adv-x="680" d="M338 -10 Q278 -10 229.5 6.5 Q181 23 146.5 56.5 Q112 90 93.5 140 Q75 190 75 257 L75 690 L203 690 L203 252 Q203 176 240 139 Q277 102 342 102 Q370 102 394.5 111 Q419 120 437.5 138 Q456 156 466.5 183.5 Q477 211 477 249 L477 690 L605 690 L605 260 Q605 196 586.5 145.5 Q568 95 533 60.5 Q498 26 448.5 8 Q399 -10 338 -10 Z M212 885 L299 940 L396 780 L322 734 L212 885 Z " />
<glyph glyph-name="Uacute" unicode="&#xda;" horiz-adv-x="680" d="M338 -10 Q278 -10 229.5 6.5 Q181 23 146.5 56.5 Q112 90 93.5 140 Q75 190 75 257 L75 690 L203 690 L203 252 Q203 176 240 139 Q277 102 342 102 Q370 102 394.5 111 Q419 120 437.5 138 Q456 156 466.5 183.5 Q477 211 477 249 L477 690 L605 690 L605 260 Q605 196 586.5 145.5 Q568 95 533 60.5 Q498 26 448.5 8 Q399 -10 338 -10 Z M347 734 L273 780 L370 940 L457 885 L347 734 Z " />
<glyph glyph-name="Ucircumflex" unicode="&#xdb;" horiz-adv-x="680" d="M338 -10 Q278 -10 229.5 6.5 Q181 23 146.5 56.5 Q112 90 93.5 140 Q75 190 75 257 L75 690 L203 690 L203 252 Q203 176 240 139 Q277 102 342 102 Q370 102 394.5 111 Q419 120 437.5 138 Q456 156 466.5 183.5 Q477 211 477 249 L477 690 L605 690 L605 260 Q605 196 586.5 145.5 Q568 95 533 60.5 Q498 26 448.5 8 Q399 -10 338 -10 Z M340 851 L246 734 L181 780 L295 940 L385 940 L499 780 L433 734 L340 851 Z " />
<glyph glyph-name="Udieresis" unicode="&#xdc;" horiz-adv-x="680" d="M338 -10 Q278 -10 229.5 6.5 Q181 23 146.5 56.5 Q112 90 93.5 140 Q75 190 75 257 L75 690 L203 690 L203 252 Q203 176 240 139 Q277 102 342 102 Q370 102 394.5 111 Q419 120 437.5 138 Q456 156 466.5 183.5 Q477 211 477 249 L477 690 L605 690 L605 260 Q605 196 586.5 145.5 Q568 95 533 60.5 Q498 26 448.5 8 Q399 -10 338 -10 Z M253 765 Q226 765 210 781 Q194 797 194 824 Q194 853 210 868.5 Q226 884 253 884 Q282 884 298 868.5 Q314 853 314 824 Q314 797 298 781 Q282 765 253 765 Z M424 765 Q397 765 381 781 Q365 797 365 824 Q365 853 381 868.5 Q397 884 424 884 Q453 884 469 868.5 Q485 853 485 824 Q485 797 469 781 Q453 765 424 765 Z " />
<glyph glyph-name="Yacute" unicode="&#xdd;" horiz-adv-x="615" d="M244 0 L244 249 L13 690 L152 690 L313 349 L475 690 L602 690 L372 249 L372 0 L244 0 Z M315 734 L241 780 L338 940 L425 885 L315 734 Z " />
<glyph glyph-name="Thorn" unicode="&#xde;" horiz-adv-x="583" d="M88 0 L88 690 L216 690 L216 581 L246 581 Q326 581 381.5 563.5 Q437 546 472 515 Q507 484 523 441.5 Q539 399 539 350 Q539 282 514.5 236 Q490 190 449.5 161.5 Q409 133 358 120.5 Q307 108 253 108 L216 108 L216 0 L88 0 Z M216 477 L216 212 L247 212 Q281 212 310.5 219 Q340 226 361.5 242.5 Q383 259 395 285.5 Q407 312 407 350 Q407 415 365 446 Q323 477 232 477 L216 477 Z " />
<glyph glyph-name="germandbls" unicode="&#xdf;" horiz-adv-x="610" d="M72 0 L72 521 Q72 570 83 612 Q94 654 119.5 684 Q145 714 186 731 Q227 748 287 748 Q325 748 360 739.5 Q395 731 421.5 712.5 Q448 694 464 665.5 Q480 637 480 597 Q480 566 468 542 Q456 518 441.5 498 Q427 478 415 461.5 Q403 445 403 429 Q403 409 424 382.5 Q445 356 498 307 Q541 268 563.5 231.5 Q586 195 586 145 Q586 118 575 90.5 Q564 63 541.5 40.5 Q519 18 485 4 Q451 -10 406 -10 Q371 -10 344.5 -0.5 Q318 9 298.5 25.5 Q279 42 265.5 64 Q252 86 244 111 L331 160 Q339 132 357 114.5 Q375 97 404 97 Q427 97 444 109.5 Q461 122 461 147 Q461 160 456.5 171.5 Q452 183 441.5 196 Q431 209 415 225 Q399 241 375 264 Q350 288 332 307 Q314 326 302 342 Q290 358 284 373 Q278 388 278 406 Q278 430 290 450 Q302 470 317 489 Q332 508 344 527.5 Q356 547 356 570 Q356 601 340 621 Q324 641 281 641 Q257 641 240 631.5 Q223 622 212.5 606.5 Q202 591 197 571.5 Q192 552 192 532 L192 0 L72 0 Z " />
<glyph glyph-name="agrave" unicode="&#xe0;" horiz-adv-x="520" d="M198 -10 Q165 -10 136.5 -0.5 Q108 9 87 27.5 Q66 46 54.5 73.5 Q43 101 43 138 Q43 212 98.5 251.5 Q154 291 271 291 L333 291 L333 315 Q333 366 311 388 Q289 410 235 410 Q199 410 164.5 393 Q130 376 104 348 L42 438 Q80 478 134.5 497.5 Q189 517 249 517 Q307 517 346 503.5 Q385 490 409 466.5 Q433 443 443 410 Q453 377 453 338 L453 0 L341 0 L341 58 Q315 22 279 6 Q243 -10 198 -10 Z M235 82 Q264 82 288 96 Q312 110 333 145 L333 215 L263 215 Q213 215 190 197 Q167 179 167 147 Q167 116 185 99 Q203 82 235 82 Z M134 702 L221 758 L318 597 L244 551 L134 702 Z " />
<glyph glyph-name="aacute" unicode="&#xe1;" horiz-adv-x="520" d="M198 -10 Q165 -10 136.5 -0.5 Q108 9 87 27.5 Q66 46 54.5 73.5 Q43 101 43 138 Q43 212 98.5 251.5 Q154 291 271 291 L333 291 L333 315 Q333 366 311 388 Q289 410 235 410 Q199 410 164.5 393 Q130 376 104 348 L42 438 Q80 478 134.5 497.5 Q189 517 249 517 Q307 517 346 503.5 Q385 490 409 466.5 Q433 443 443 410 Q453 377 453 338 L453 0 L341 0 L341 58 Q315 22 279 6 Q243 -10 198 -10 Z M235 82 Q264 82 288 96 Q312 110 333 145 L333 215 L263 215 Q213 215 190 197 Q167 179 167 147 Q167 116 185 99 Q203 82 235 82 Z M269 551 L195 597 L292 758 L379 702 L269 551 Z " />
<glyph glyph-name="acircumflex" unicode="&#xe2;" horiz-adv-x="520" d="M198 -10 Q165 -10 136.5 -0.5 Q108 9 87 27.5 Q66 46 54.5 73.5 Q43 101 43 138 Q43 212 98.5 251.5 Q154 291 271 291 L333 291 L333 315 Q333 366 311 388 Q289 410 235 410 Q199 410 164.5 393 Q130 376 104 348 L42 438 Q80 478 134.5 497.5 Q189 517 249 517 Q307 517 346 503.5 Q385 490 409 466.5 Q433 443 443 410 Q453 377 453 338 L453 0 L341 0 L341 58 Q315 22 279 6 Q243 -10 198 -10 Z M235 82 Q264 82 288 96 Q312 110 333 145 L333 215 L263 215 Q213 215 190 197 Q167 179 167 147 Q167 116 185 99 Q203 82 235 82 Z M262 668 L168 551 L103 597 L217 758 L307 758 L421 597 L355 551 L262 668 Z " />
<glyph glyph-name="atilde" unicode="&#xe3;" horiz-adv-x="520" d="M198 -10 Q165 -10 136.5 -0.5 Q108 9 87 27.5 Q66 46 54.5 73.5 Q43 101 43 138 Q43 212 98.5 251.5 Q154 291 271 291 L333 291 L333 315 Q333 366 311 388 Q289 410 235 410 Q199 410 164.5 393 Q130 376 104 348 L42 438 Q80 478 134.5 497.5 Q189 517 249 517 Q307 517 346 503.5 Q385 490 409 466.5 Q433 443 443 410 Q453 377 453 338 L453 0 L341 0 L341 58 Q315 22 279 6 Q243 -10 198 -10 Z M235 82 Q264 82 288 96 Q312 110 333 145 L333 215 L263 215 Q213 215 190 197 Q167 179 167 147 Q167 116 185 99 Q203 82 235 82 Z M89 629 Q105 666 133 687.5 Q161 709 190 709 Q211 709 227 702 Q243 695 257.5 686 Q272 677 285.5 670 Q299 663 314 663 Q331 663 344.5 672.5 Q358 682 373 704 L433 653 Q415 616 385.5 591.5 Q356 567 324 567 Q303 567 286 574 Q269 581 255 590 Q241 599 227.5 606 Q214 613 199 613 Q182 613 170.5 603 Q159 593 145 576 L89 629 Z " />
<glyph glyph-name="adieresis" unicode="&#xe4;" horiz-adv-x="520" d="M198 -10 Q165 -10 136.5 -0.5 Q108 9 87 27.5 Q66 46 54.5 73.5 Q43 101 43 138 Q43 212 98.5 251.5 Q154 291 271 291 L333 291 L333 315 Q333 366 311 388 Q289 410 235 410 Q199 410 164.5 393 Q130 376 104 348 L42 438 Q80 478 134.5 497.5 Q189 517 249 517 Q307 517 346 503.5 Q385 490 409 466.5 Q433 443 443 410 Q453 377 453 338 L453 0 L341 0 L341 58 Q315 22 279 6 Q243 -10 198 -10 Z M235 82 Q264 82 288 96 Q312 110 333 145 L333 215 L263 215 Q213 215 190 197 Q167 179 167 147 Q167 116 185 99 Q203 82 235 82 Z M175 582 Q148 582 132 598.5 Q116 615 116 641 Q116 670 132 686 Q148 702 175 702 Q204 702 220 686 Q236 670 236 641 Q236 615 220 598.5 Q204 582 175 582 Z M346 582 Q319 582 303 598.5 Q287 615 287 641 Q287 670 303 686 Q319 702 346 702 Q375 702 391 686 Q407 670 407 641 Q407 615 391 598.5 Q375 582 346 582 Z " />
<glyph glyph-name="aring" unicode="&#xe5;" horiz-adv-x="520" d="M198 -10 Q165 -10 136.5 -0.5 Q108 9 87 27.5 Q66 46 54.5 73.5 Q43 101 43 138 Q43 212 98.5 251.5 Q154 291 271 291 L333 291 L333 315 Q333 366 311 388 Q289 410 235 410 Q199 410 164.5 393 Q130 376 104 348 L42 438 Q80 478 134.5 497.5 Q189 517 249 517 Q307 517 346 503.5 Q385 490 409 466.5 Q433 443 443 410 Q453 377 453 338 L453 0 L341 0 L341 58 Q315 22 279 6 Q243 -10 198 -10 Z M235 82 Q264 82 288 96 Q312 110 333 145 L333 215 L263 215 Q213 215 190 197 Q167 179 167 147 Q167 116 185 99 Q203 82 235 82 Z M260 551 Q213 551 186 578.5 Q159 606 159 652 Q159 700 186.5 728 Q214 756 260 756 Q308 756 336 728.5 Q364 701 364 652 Q364 606 336 578.5 Q308 551 260 551 Z M261 607 Q283 607 295.5 620 Q308 633 308 653 Q308 675 295.5 687.5 Q283 700 261 700 Q241 700 228 687.5 Q215 675 215 653 Q215 632 228 619.5 Q241 607 261 607 Z " />
<glyph glyph-name="ae" unicode="&#xe6;" horiz-adv-x="794" d="M203 -10 Q132 -10 87.5 27 Q43 64 43 138 Q43 212 98.5 251.5 Q154 291 271 291 L323 291 L323 315 Q323 366 303.5 388 Q284 410 235 410 Q199 410 164.5 393 Q130 376 104 348 L42 438 Q80 478 134.5 497.5 Q189 517 249 517 Q306 517 343.5 503 Q381 489 404 463 Q463 517 554 517 Q653 517 708 453 Q763 389 763 274 Q763 263 762.5 252 Q762 241 761 230 L444 230 Q453 93 559 93 Q590 93 615.5 113.5 Q641 134 656 164 L751 109 Q724 52 674.5 21 Q625 -10 559 -10 Q495 -10 447.5 13 Q400 36 370 78 Q343 36 298.5 13 Q254 -10 203 -10 Z M235 82 Q250 82 265.5 88 Q281 94 293.5 108 Q306 122 314.5 144.5 Q323 167 323 201 L323 215 L263 215 Q213 215 190 197 Q167 179 167 147 Q167 116 185 99 Q203 82 235 82 Z M548 414 Q465 414 448 307 L642 307 Q637 360 613 387 Q589 414 548 414 Z " />
<glyph glyph-name="ccedilla" unicode="&#xe7;" horiz-adv-x="497" d="M473 109 Q449 60 407 29.5 Q365 -1 304 -8 L304 -60 Q311 -58 317.5 -58 Q324 -58 329 -58 Q374 -58 400.5 -82 Q427 -106 427 -149 Q427 -180 414.5 -201 Q402 -222 381 -235 Q360 -248 334 -254 Q308 -260 281 -260 Q242 -260 214 -246 Q186 -232 172 -215 L208 -161 Q219 -170 236.5 -182 Q254 -194 288 -194 Q313 -194 330 -185 Q347 -176 347 -153 Q347 -131 331.5 -121 Q316 -111 290 -111 Q275 -111 262.5 -113 Q250 -115 241 -117 L241 -8 Q147 2 94.5 70 Q42 138 42 250 Q42 311 59 360 Q76 409 107 444 Q138 479 181.5 498 Q225 517 279 517 Q356 517 408 483.5 Q460 450 478 376 L367 340 Q355 373 334 391.5 Q313 410 279 410 Q225 410 195.5 371 Q166 332 166 253 Q166 97 278 97 Q316 97 337.5 116.5 Q359 136 375 165 L473 109 Z " />
<glyph glyph-name="egrave" unicode="&#xe8;" horiz-adv-x="536" d="M284 -10 Q227 -10 182.5 8.5 Q138 27 106.5 60.5 Q75 94 58.5 142 Q42 190 42 250 Q42 311 59 360 Q76 409 107 444 Q138 479 182 498 Q226 517 279 517 Q382 517 437 453.5 Q492 390 492 276 Q492 265 492 253.5 Q492 242 490 230 L163 230 Q168 162 199 127.5 Q230 93 284 93 Q319 93 344 113.5 Q369 134 386 164 L481 109 Q452 52 402.5 21 Q353 -10 284 -10 Z M273 414 Q231 414 204 387 Q177 360 167 307 L372 307 Q364 414 273 414 Z M153 702 L240 758 L337 597 L263 551 L153 702 Z " />
<glyph glyph-name="eacute" unicode="&#xe9;" horiz-adv-x="536" d="M284 -10 Q227 -10 182.5 8.5 Q138 27 106.5 60.5 Q75 94 58.5 142 Q42 190 42 250 Q42 311 59 360 Q76 409 107 444 Q138 479 182 498 Q226 517 279 517 Q382 517 437 453.5 Q492 390 492 276 Q492 265 492 253.5 Q492 242 490 230 L163 230 Q168 162 199 127.5 Q230 93 284 93 Q319 93 344 113.5 Q369 134 386 164 L481 109 Q452 52 402.5 21 Q353 -10 284 -10 Z M273 414 Q231 414 204 387 Q177 360 167 307 L372 307 Q364 414 273 414 Z M288 551 L214 597 L311 758 L398 702 L288 551 Z " />
<glyph glyph-name="ecircumflex" unicode="&#xea;" horiz-adv-x="536" d="M284 -10 Q227 -10 182.5 8.5 Q138 27 106.5 60.5 Q75 94 58.5 142 Q42 190 42 250 Q42 311 59 360 Q76 409 107 444 Q138 479 182 498 Q226 517 279 517 Q382 517 437 453.5 Q492 390 492 276 Q492 265 492 253.5 Q492 242 490 230 L163 230 Q168 162 199 127.5 Q230 93 284 93 Q319 93 344 113.5 Q369 134 386 164 L481 109 Q452 52 402.5 21 Q353 -10 284 -10 Z M273 414 Q231 414 204 387 Q177 360 167 307 L372 307 Q364 414 273 414 Z M281 668 L187 551 L122 597 L236 758 L326 758 L440 597 L374 551 L281 668 Z " />
<glyph glyph-name="edieresis" unicode="&#xeb;" horiz-adv-x="536" d="M284 -10 Q227 -10 182.5 8.5 Q138 27 106.5 60.5 Q75 94 58.5 142 Q42 190 42 250 Q42 311 59 360 Q76 409 107 444 Q138 479 182 498 Q226 517 279 517 Q382 517 437 453.5 Q492 390 492 276 Q492 265 492 253.5 Q492 242 490 230 L163 230 Q168 162 199 127.5 Q230 93 284 93 Q319 93 344 113.5 Q369 134 386 164 L481 109 Q452 52 402.5 21 Q353 -10 284 -10 Z M273 414 Q231 414 204 387 Q177 360 167 307 L372 307 Q364 414 273 414 Z M194 582 Q167 582 151 598.5 Q135 615 135 641 Q135 670 151 686 Q167 702 194 702 Q223 702 239 686 Q255 670 255 641 Q255 615 239 598.5 Q223 582 194 582 Z M365 582 Q338 582 322 598.5 Q306 615 306 641 Q306 670 322 686 Q338 702 365 702 Q394 702 410 686 Q426 670 426 641 Q426 615 410 598.5 Q394 582 365 582 Z " />
<glyph glyph-name="igrave" unicode="&#xec;" horiz-adv-x="264" d="M72 0 L72 507 L192 507 L192 0 L72 0 Z M5 702 L92 758 L189 597 L115 551 L5 702 Z " />
<glyph glyph-name="iacute" unicode="&#xed;" horiz-adv-x="264" d="M72 0 L72 507 L192 507 L192 0 L72 0 Z M140 551 L66 597 L163 758 L250 702 L140 551 Z " />
<glyph glyph-name="icircumflex" unicode="&#xee;" horiz-adv-x="264" d="M72 0 L72 507 L192 507 L192 0 L72 0 Z M133 668 L39 551 L-26 597 L88 758 L178 758 L292 597 L226 551 L133 668 Z " />
<glyph glyph-name="idieresis" unicode="&#xef;" horiz-adv-x="264" d="M72 0 L72 507 L192 507 L192 0 L72 0 Z M46 582 Q19 582 3 598.5 Q-13 615 -13 641 Q-13 670 3 686 Q19 702 46 702 Q75 702 91 686 Q107 670 107 641 Q107 615 91 598.5 Q75 582 46 582 Z M217 582 Q190 582 174 598.5 Q158 615 158 641 Q158 670 174 686 Q190 702 217 702 Q246 702 262 686 Q278 670 278 641 Q278 615 262 598.5 Q246 582 217 582 Z " />
<glyph glyph-name="eth" unicode="&#xf0;" horiz-adv-x="576" d="M195 740 Q212 732 228 723 Q244 714 260 705 L296 754 L351 713 L317 668 Q420 593 476.5 492 Q533 391 533 257 Q533 196 514.5 147 Q496 98 463.5 63 Q431 28 386 9 Q341 -10 288 -10 Q232 -10 186.5 8.5 Q141 27 109 60.5 Q77 94 59.5 142 Q42 190 42 250 Q42 311 60.5 360 Q79 409 112 444 Q145 479 190 498 Q235 517 288 517 Q301 517 313.5 516 Q326 515 338 513 Q307 558 263 595 L225 544 L172 584 L208 634 Q181 650 151 667 L195 740 Z M288 97 Q341 97 375 136 Q409 175 409 254 Q409 333 377 371.5 Q345 410 288 410 Q234 410 200 371 Q166 332 166 253 Q166 174 198.5 135.5 Q231 97 288 97 Z " />
<glyph glyph-name="ntilde" unicode="&#xf1;" horiz-adv-x="574" d="M72 0 L72 507 L183 507 L183 448 Q208 476 245.5 496.5 Q283 517 340 517 Q385 517 417 503.5 Q449 490 469 466.5 Q489 443 498.5 410 Q508 377 508 338 L508 0 L388 0 L388 315 Q388 366 364.5 388 Q341 410 305 410 Q263 410 237.5 394 Q212 378 192 355 L192 0 L72 0 Z M115 629 Q131 666 159 687.5 Q187 709 216 709 Q237 709 253 702 Q269 695 283.5 686 Q298 677 311.5 670 Q325 663 340 663 Q357 663 370.5 672.5 Q384 682 399 704 L459 653 Q441 616 411.5 591.5 Q382 567 350 567 Q329 567 312 574 Q295 581 281 590 Q267 599 253.5 606 Q240 613 225 613 Q208 613 196.5 603 Q185 593 171 576 L115 629 Z " />
<glyph glyph-name="ograve" unicode="&#xf2;" horiz-adv-x="576" d="M288 -10 Q232 -10 186.5 8.5 Q141 27 109 60.5 Q77 94 59.5 142 Q42 190 42 250 Q42 311 60.5 360 Q79 409 112 444 Q145 479 190 498 Q235 517 288 517 Q344 517 389.5 498.5 Q435 480 467 446.5 Q499 413 516 365 Q533 317 533 257 Q533 196 514.5 147 Q496 98 463.5 63 Q431 28 386 9 Q341 -10 288 -10 Z M288 97 Q341 97 375 136 Q409 175 409 254 Q409 333 377 371.5 Q345 410 288 410 Q234 410 200 371 Q166 332 166 253 Q166 174 198.5 135.5 Q231 97 288 97 Z M160 702 L247 758 L344 597 L270 551 L160 702 Z " />
<glyph glyph-name="oacute" unicode="&#xf3;" horiz-adv-x="576" d="M288 -10 Q232 -10 186.5 8.5 Q141 27 109 60.5 Q77 94 59.5 142 Q42 190 42 250 Q42 311 60.5 360 Q79 409 112 444 Q145 479 190 498 Q235 517 288 517 Q344 517 389.5 498.5 Q435 480 467 446.5 Q499 413 516 365 Q533 317 533 257 Q533 196 514.5 147 Q496 98 463.5 63 Q431 28 386 9 Q341 -10 288 -10 Z M288 97 Q341 97 375 136 Q409 175 409 254 Q409 333 377 371.5 Q345 410 288 410 Q234 410 200 371 Q166 332 166 253 Q166 174 198.5 135.5 Q231 97 288 97 Z M295 551 L221 597 L318 758 L405 702 L295 551 Z " />
<glyph glyph-name="ocircumflex" unicode="&#xf4;" horiz-adv-x="576" d="M288 -10 Q232 -10 186.5 8.5 Q141 27 109 60.5 Q77 94 59.5 142 Q42 190 42 250 Q42 311 60.5 360 Q79 409 112 444 Q145 479 190 498 Q235 517 288 517 Q344 517 389.5 498.5 Q435 480 467 446.5 Q499 413 516 365 Q533 317 533 257 Q533 196 514.5 147 Q496 98 463.5 63 Q431 28 386 9 Q341 -10 288 -10 Z M288 97 Q341 97 375 136 Q409 175 409 254 Q409 333 377 371.5 Q345 410 288 410 Q234 410 200 371 Q166 332 166 253 Q166 174 198.5 135.5 Q231 97 288 97 Z M288 668 L194 551 L129 597 L243 758 L333 758 L447 597 L381 551 L288 668 Z " />
<glyph glyph-name="otilde" unicode="&#xf5;" horiz-adv-x="576" d="M288 -10 Q232 -10 186.5 8.5 Q141 27 109 60.5 Q77 94 59.5 142 Q42 190 42 250 Q42 311 60.5 360 Q79 409 112 444 Q145 479 190 498 Q235 517 288 517 Q344 517 389.5 498.5 Q435 480 467 446.5 Q499 413 516 365 Q533 317 533 257 Q533 196 514.5 147 Q496 98 463.5 63 Q431 28 386 9 Q341 -10 288 -10 Z M288 97 Q341 97 375 136 Q409 175 409 254 Q409 333 377 371.5 Q345 410 288 410 Q234 410 200 371 Q166 332 166 253 Q166 174 198.5 135.5 Q231 97 288 97 Z M115 629 Q131 666 159 687.5 Q187 709 216 709 Q237 709 253 702 Q269 695 283.5 686 Q298 677 311.5 670 Q325 663 340 663 Q357 663 370.5 672.5 Q384 682 399 704 L459 653 Q441 616 411.5 591.5 Q382 567 350 567 Q329 567 312 574 Q295 581 281 590 Q267 599 253.5 606 Q240 613 225 613 Q208 613 196.5 603 Q185 593 171 576 L115 629 Z " />
<glyph glyph-name="odieresis" unicode="&#xf6;" horiz-adv-x="576" d="M288 -10 Q232 -10 186.5 8.5 Q141 27 109 60.5 Q77 94 59.5 142 Q42 190 42 250 Q42 311 60.5 360 Q79 409 112 444 Q145 479 190 498 Q235 517 288 517 Q344 517 389.5 498.5 Q435 480 467 446.5 Q499 413 516 365 Q533 317 533 257 Q533 196 514.5 147 Q496 98 463.5 63 Q431 28 386 9 Q341 -10 288 -10 Z M288 97 Q341 97 375 136 Q409 175 409 254 Q409 333 377 371.5 Q345 410 288 410 Q234 410 200 371 Q166 332 166 253 Q166 174 198.5 135.5 Q231 97 288 97 Z M201 582 Q174 582 158 598.5 Q142 615 142 641 Q142 670 158 686 Q174 702 201 702 Q230 702 246 686 Q262 670 262 641 Q262 615 246 598.5 Q230 582 201 582 Z M372 582 Q345 582 329 598.5 Q313 615 313 641 Q313 670 329 686 Q345 702 372 702 Q401 702 417 686 Q433 670 433 641 Q433 615 417 598.5 Q401 582 372 582 Z " />
<glyph glyph-name="divide" unicode="&#xf7;" horiz-adv-x="482" d="M44 376 L437 376 L437 278 L44 278 L44 376 Z M160 142 Q160 176 180.5 196.5 Q201 217 235 217 Q269 217 290 196.5 Q311 176 311 142 Q311 108 290 87 Q269 66 235 66 Q201 66 180.5 87 Q160 108 160 142 Z M161 513 Q161 547 182 568 Q203 589 237 589 Q271 589 291.5 568 Q312 547 312 513 Q312 479 291.5 458.5 Q271 438 237 438 Q203 438 182 458.5 Q161 479 161 513 Z " />
<glyph glyph-name="oslash" unicode="&#xf8;" horiz-adv-x="576" d="M56 33 L94 78 Q42 145 42 250 Q42 311 60.5 360 Q79 409 112 444 Q145 479 190 498 Q235 517 288 517 Q330 517 365 507 Q400 497 429 478 L461 516 L512 473 L478 433 Q504 400 518.5 355.5 Q533 311 533 257 Q533 196 514.5 147 Q496 98 463.5 63 Q431 28 386 9 Q341 -10 288 -10 Q244 -10 207.5 1 Q171 12 142 32 L107 -10 L56 33 Z M288 97 Q341 97 375 136 Q409 175 409 254 Q409 278 405.5 298 Q402 318 396 335 L215 119 Q244 97 288 97 Z M166 253 Q166 210 177 177 L356 390 Q327 410 288 410 Q234 410 200 371 Q166 332 166 253 Z " />
<glyph glyph-name="ugrave" unicode="&#xf9;" horiz-adv-x="553" d="M225 -10 Q183 -10 153 3.5 Q123 17 104 41 Q85 65 76 97.5 Q67 130 67 169 L67 507 L187 507 L187 192 Q187 141 207 119 Q227 97 260 97 Q297 97 320 112 Q343 127 362 150 L362 507 L482 507 L482 0 L371 0 L371 57 Q348 29 312.5 9.5 Q277 -10 225 -10 Z M149 702 L236 758 L333 597 L259 551 L149 702 Z " />
<glyph glyph-name="uacute" unicode="&#xfa;" horiz-adv-x="553" d="M225 -10 Q183 -10 153 3.5 Q123 17 104 41 Q85 65 76 97.5 Q67 130 67 169 L67 507 L187 507 L187 192 Q187 141 207 119 Q227 97 260 97 Q297 97 320 112 Q343 127 362 150 L362 507 L482 507 L482 0 L371 0 L371 57 Q348 29 312.5 9.5 Q277 -10 225 -10 Z M284 551 L210 597 L307 758 L394 702 L284 551 Z " />
<glyph glyph-name="ucircumflex" unicode="&#xfb;" horiz-adv-x="553" d="M225 -10 Q183 -10 153 3.5 Q123 17 104 41 Q85 65 76 97.5 Q67 130 67 169 L67 507 L187 507 L187 192 Q187 141 207 119 Q227 97 260 97 Q297 97 320 112 Q343 127 362 150 L362 507 L482 507 L482 0 L371 0 L371 57 Q348 29 312.5 9.5 Q277 -10 225 -10 Z M277 668 L183 551 L118 597 L232 758 L322 758 L436 597 L370 551 L277 668 Z " />
<glyph glyph-name="udieresis" unicode="&#xfc;" horiz-adv-x="553" d="M225 -10 Q183 -10 153 3.5 Q123 17 104 41 Q85 65 76 97.5 Q67 130 67 169 L67 507 L187 507 L187 192 Q187 141 207 119 Q227 97 260 97 Q297 97 320 112 Q343 127 362 150 L362 507 L482 507 L482 0 L371 0 L371 57 Q348 29 312.5 9.5 Q277 -10 225 -10 Z M190 582 Q163 582 147 598.5 Q131 615 131 641 Q131 670 147 686 Q163 702 190 702 Q219 702 235 686 Q251 670 251 641 Q251 615 235 598.5 Q219 582 190 582 Z M361 582 Q334 582 318 598.5 Q302 615 302 641 Q302 670 318 686 Q334 702 361 702 Q390 702 406 686 Q422 670 422 641 Q422 615 406 598.5 Q390 582 361 582 Z " />
<glyph glyph-name="yacute" unicode="&#xfd;" horiz-adv-x="530" d="M211 -15 L21 507 L152 507 L268 125 L387 507 L511 507 L295 -81 Q265 -166 215 -208 Q165 -250 81 -250 L33 -250 L33 -155 L79 -155 Q118 -155 142.5 -139.5 Q167 -124 183 -86 L211 -15 Z M268 551 L194 597 L291 758 L378 702 L268 551 Z " />
<glyph glyph-name="thorn" unicode="&#xfe;" horiz-adv-x="577" d="M72 -250 L72 740 L192 740 L192 470 Q214 492 244 504.5 Q274 517 314 517 Q420 517 475.5 448 Q531 379 531 255 Q531 195 513.5 146 Q496 97 465 62.5 Q434 28 393 9 Q352 -10 306 -10 Q269 -10 241.5 0 Q214 10 192 30 L192 -250 L72 -250 Z M287 410 Q261 410 235 396.5 Q209 383 192 356 L192 146 Q222 97 286 97 Q343 97 375 136 Q407 175 407 253 Q407 410 287 410 Z " />
<glyph glyph-name="ydieresis" unicode="&#xff;" horiz-adv-x="530" d="M211 -15 L21 507 L152 507 L268 125 L387 507 L511 507 L295 -81 Q265 -166 215 -208 Q165 -250 81 -250 L33 -250 L33 -155 L79 -155 Q118 -155 142.5 -139.5 Q167 -124 183 -86 L211 -15 Z M174 582 Q147 582 131 598.5 Q115 615 115 641 Q115 670 131 686 Q147 702 174 702 Q203 702 219 686 Q235 670 235 641 Q235 615 219 598.5 Q203 582 174 582 Z M345 582 Q318 582 302 598.5 Q286 615 286 641 Q286 670 302 686 Q318 702 345 702 Q374 702 390 686 Q406 670 406 641 Q406 615 390 598.5 Q374 582 345 582 Z " />
<glyph glyph-name="Amacron" unicode="&#x100;" horiz-adv-x="678" d="M20 0 L295 690 L384 690 L658 0 L517 0 L470 132 L197 132 L149 0 L20 0 Z M235 236 L433 236 L336 511 L235 236 Z M200 791 L200 876 L478 876 L478 791 L200 791 Z " />
<glyph glyph-name="amacron" unicode="&#x101;" horiz-adv-x="520" d="M198 -10 Q165 -10 136.5 -0.5 Q108 9 87 27.5 Q66 46 54.5 73.5 Q43 101 43 138 Q43 212 98.5 251.5 Q154 291 271 291 L333 291 L333 315 Q333 366 311 388 Q289 410 235 410 Q199 410 164.5 393 Q130 376 104 348 L42 438 Q80 478 134.5 497.5 Q189 517 249 517 Q307 517 346 503.5 Q385 490 409 466.5 Q433 443 443 410 Q453 377 453 338 L453 0 L341 0 L341 58 Q315 22 279 6 Q243 -10 198 -10 Z M235 82 Q264 82 288 96 Q312 110 333 145 L333 215 L263 215 Q213 215 190 197 Q167 179 167 147 Q167 116 185 99 Q203 82 235 82 Z M123 609 L123 693 L401 693 L401 609 L123 609 Z " />
<glyph glyph-name="Abreve" unicode="&#x102;" horiz-adv-x="678" d="M20 0 L295 690 L384 690 L658 0 L517 0 L470 132 L197 132 L149 0 L20 0 Z M235 236 L433 236 L336 511 L235 236 Z M339 734 Q273 734 233 781 Q193 828 179 916 L253 936 Q265 881 284.5 851.5 Q304 822 339 822 Q374 822 393 851.5 Q412 881 424 936 L499 916 Q485 828 444.5 781 Q404 734 339 734 Z " />
<glyph glyph-name="abreve" unicode="&#x103;" horiz-adv-x="520" d="M198 -10 Q165 -10 136.5 -0.5 Q108 9 87 27.5 Q66 46 54.5 73.5 Q43 101 43 138 Q43 212 98.5 251.5 Q154 291 271 291 L333 291 L333 315 Q333 366 311 388 Q289 410 235 410 Q199 410 164.5 393 Q130 376 104 348 L42 438 Q80 478 134.5 497.5 Q189 517 249 517 Q307 517 346 503.5 Q385 490 409 466.5 Q433 443 443 410 Q453 377 453 338 L453 0 L341 0 L341 58 Q315 22 279 6 Q243 -10 198 -10 Z M235 82 Q264 82 288 96 Q312 110 333 145 L333 215 L263 215 Q213 215 190 197 Q167 179 167 147 Q167 116 185 99 Q203 82 235 82 Z M262 551 Q196 551 156 598 Q116 645 102 733 L176 753 Q188 698 207.5 668.5 Q227 639 262 639 Q297 639 316 668.5 Q335 698 347 753 L422 733 Q408 645 367.5 598 Q327 551 262 551 Z " />
<glyph glyph-name="Aogonek" unicode="&#x104;" horiz-adv-x="678" d="M20 0 L295 690 L384 690 L658 0 L565 0 Q539 -34 523 -65 Q507 -96 507 -131 Q507 -162 522.5 -178 Q538 -194 559 -194 Q583 -194 601 -182.5 Q619 -171 633 -153 L675 -196 Q669 -205 658 -216 Q647 -227 631 -237 Q615 -247 594 -253.5 Q573 -260 547 -260 Q492 -260 459.5 -231 Q427 -202 427 -149 Q427 -107 448 -67 Q469 -27 509 22 L470 132 L197 132 L149 0 L20 0 Z M235 236 L433 236 L336 511 L235 236 Z " />
<glyph glyph-name="aogonek" unicode="&#x105;" horiz-adv-x="520" d="M198 -10 Q165 -10 136.5 -0.5 Q108 9 87 27.5 Q66 46 54.5 73.5 Q43 101 43 138 Q43 212 98.5 251.5 Q154 291 271 291 L333 291 L333 315 Q333 366 311 388 Q289 410 235 410 Q199 410 164.5 393 Q130 376 104 348 L42 438 Q80 478 134.5 497.5 Q189 517 249 517 Q307 517 346 503.5 Q385 490 409 466.5 Q433 443 443 410 Q453 377 453 338 L453 0 L404 0 Q377 -34 361.5 -65 Q346 -96 346 -131 Q346 -162 361.5 -178 Q377 -194 398 -194 Q422 -194 439.5 -182.5 Q457 -171 471 -153 L514 -196 Q508 -205 497 -216 Q486 -227 470 -237 Q454 -247 433 -253.5 Q412 -260 386 -260 Q331 -260 298 -231 Q265 -202 265 -149 Q265 -110 284.5 -71.5 Q304 -33 341 13 L341 58 Q315 22 279 6 Q243 -10 198 -10 Z M235 82 Q264 82 288 96 Q312 110 333 145 L333 215 L263 215 Q213 215 190 197 Q167 179 167 147 Q167 116 185 99 Q203 82 235 82 Z " />
<glyph glyph-name="Cacute" unicode="&#x106;" horiz-adv-x="656" d="M365 -10 Q293 -10 234.5 15 Q176 40 134.5 86.5 Q93 133 70.5 199 Q48 265 48 346 Q48 427 72 492.5 Q96 558 138.5 604 Q181 650 238.5 675 Q296 700 363 700 Q420 700 463 687.5 Q506 675 537.5 652.5 Q569 630 591 599 Q613 568 628 532 L506 485 Q487 533 449.5 559 Q412 585 358 585 Q317 585 284.5 568 Q252 551 228.5 520 Q205 489 192.5 445 Q180 401 180 347 Q180 231 229 168 Q278 105 370 105 Q424 105 465 131.5 Q506 158 535 208 L631 135 Q589 63 523.5 26.5 Q458 -10 365 -10 Z M365 734 L291 780 L388 940 L475 885 L365 734 Z " />
<glyph glyph-name="cacute" unicode="&#x107;" horiz-adv-x="497" d="M473 109 Q446 54 396 22 Q346 -10 271 -10 Q218 -10 175.5 8.5 Q133 27 103.5 60.5 Q74 94 58 142 Q42 190 42 250 Q42 311 59 360 Q76 409 107 444 Q138 479 181.5 498 Q225 517 279 517 Q356 517 408 483.5 Q460 450 478 376 L367 340 Q355 373 334 391.5 Q313 410 279 410 Q225 410 195.5 371 Q166 332 166 253 Q166 97 278 97 Q316 97 337.5 116.5 Q359 136 375 165 L473 109 Z M289 551 L215 597 L312 758 L399 702 L289 551 Z " />
<glyph glyph-name="Ccircumflex" unicode="&#x108;" horiz-adv-x="656" d="M365 -10 Q293 -10 234.5 15 Q176 40 134.5 86.5 Q93 133 70.5 199 Q48 265 48 346 Q48 427 72 492.5 Q96 558 138.5 604 Q181 650 238.5 675 Q296 700 363 700 Q420 700 463 687.5 Q506 675 537.5 652.5 Q569 630 591 599 Q613 568 628 532 L506 485 Q487 533 449.5 559 Q412 585 358 585 Q317 585 284.5 568 Q252 551 228.5 520 Q205 489 192.5 445 Q180 401 180 347 Q180 231 229 168 Q278 105 370 105 Q424 105 465 131.5 Q506 158 535 208 L631 135 Q589 63 523.5 26.5 Q458 -10 365 -10 Z M358 851 L264 734 L199 780 L313 940 L403 940 L517 780 L451 734 L358 851 Z " />
<glyph glyph-name="ccircumflex" unicode="&#x109;" horiz-adv-x="497" d="M473 109 Q446 54 396 22 Q346 -10 271 -10 Q218 -10 175.5 8.5 Q133 27 103.5 60.5 Q74 94 58 142 Q42 190 42 250 Q42 311 59 360 Q76 409 107 444 Q138 479 181.5 498 Q225 517 279 517 Q356 517 408 483.5 Q460 450 478 376 L367 340 Q355 373 334 391.5 Q313 410 279 410 Q225 410 195.5 371 Q166 332 166 253 Q166 97 278 97 Q316 97 337.5 116.5 Q359 136 375 165 L473 109 Z M282 668 L188 551 L123 597 L237 758 L327 758 L441 597 L375 551 L282 668 Z " />
<glyph glyph-name="Cdotaccent" unicode="&#x10a;" horiz-adv-x="656" d="M365 -10 Q293 -10 234.5 15 Q176 40 134.5 86.5 Q93 133 70.5 199 Q48 265 48 346 Q48 427 72 492.5 Q96 558 138.5 604 Q181 650 238.5 675 Q296 700 363 700 Q420 700 463 687.5 Q506 675 537.5 652.5 Q569 630 591 599 Q613 568 628 532 L506 485 Q487 533 449.5 559 Q412 585 358 585 Q317 585 284.5 568 Q252 551 228.5 520 Q205 489 192.5 445 Q180 401 180 347 Q180 231 229 168 Q278 105 370 105 Q424 105 465 131.5 Q506 158 535 208 L631 135 Q589 63 523.5 26.5 Q458 -10 365 -10 Z M285 824 Q285 859 304.5 878.5 Q324 898 357 898 Q391 898 411 878.5 Q431 859 431 824 Q431 792 411 772 Q391 752 357 752 Q324 752 304.5 772 Q285 792 285 824 Z " />
<glyph glyph-name="cdotaccent" unicode="&#x10b;" horiz-adv-x="497" d="M473 109 Q446 54 396 22 Q346 -10 271 -10 Q218 -10 175.5 8.5 Q133 27 103.5 60.5 Q74 94 58 142 Q42 190 42 250 Q42 311 59 360 Q76 409 107 444 Q138 479 181.5 498 Q225 517 279 517 Q356 517 408 483.5 Q460 450 478 376 L367 340 Q355 373 334 391.5 Q313 410 279 410 Q225 410 195.5 371 Q166 332 166 253 Q166 97 278 97 Q316 97 337.5 116.5 Q359 136 375 165 L473 109 Z M209 641 Q209 676 228.5 695.5 Q248 715 281 715 Q315 715 335 695.5 Q355 676 355 641 Q355 609 335 589 Q315 569 281 569 Q248 569 228.5 589 Q209 609 209 641 Z " />
<glyph glyph-name="Ccaron" unicode="&#x10c;" horiz-adv-x="656" d="M365 -10 Q293 -10 234.5 15 Q176 40 134.5 86.5 Q93 133 70.5 199 Q48 265 48 346 Q48 427 72 492.5 Q96 558 138.5 604 Q181 650 238.5 675 Q296 700 363 700 Q420 700 463 687.5 Q506 675 537.5 652.5 Q569 630 591 599 Q613 568 628 532 L506 485 Q487 533 449.5 559 Q412 585 358 585 Q317 585 284.5 568 Q252 551 228.5 520 Q205 489 192.5 445 Q180 401 180 347 Q180 231 229 168 Q278 105 370 105 Q424 105 465 131.5 Q506 158 535 208 L631 135 Q589 63 523.5 26.5 Q458 -10 365 -10 Z M445 940 L510 894 L396 734 L306 734 L192 894 L257 940 L351 823 L445 940 Z " />
<glyph glyph-name="ccaron" unicode="&#x10d;" horiz-adv-x="497" d="M473 109 Q446 54 396 22 Q346 -10 271 -10 Q218 -10 175.5 8.5 Q133 27 103.5 60.5 Q74 94 58 142 Q42 190 42 250 Q42 311 59 360 Q76 409 107 444 Q138 479 181.5 498 Q225 517 279 517 Q356 517 408 483.5 Q460 450 478 376 L367 340 Q355 373 334 391.5 Q313 410 279 410 Q225 410 195.5 371 Q166 332 166 253 Q166 97 278 97 Q316 97 337.5 116.5 Q359 136 375 165 L473 109 Z M369 758 L434 712 L320 551 L230 551 L116 712 L181 758 L275 641 L369 758 Z " />
<glyph glyph-name="Dcaron" unicode="&#x10e;" horiz-adv-x="697" d="M81 0 L81 690 L282 690 Q369 690 437.5 666.5 Q506 643 553 598.5 Q600 554 624.5 490 Q649 426 649 345 Q649 271 623 207.5 Q597 144 547.5 98 Q498 52 427.5 26 Q357 0 268 0 L81 0 Z M265 104 Q328 104 375.5 122 Q423 140 454.5 172.5 Q486 205 501.5 249 Q517 293 517 345 Q517 459 459 521.5 Q401 584 281 584 L209 584 L209 104 L265 104 Z M395 940 L460 894 L346 734 L256 734 L142 894 L207 940 L301 823 L395 940 Z " />
<glyph glyph-name="dcaron" unicode="&#x10f;" horiz-adv-x="680" d="M262 -10 Q155 -10 99 59 Q43 128 43 252 Q43 312 60.5 361 Q78 410 109 444.5 Q140 479 180.5 498 Q221 517 268 517 Q306 517 333.5 506.5 Q361 496 384 476 L384 740 L504 740 L504 0 L392 0 L392 46 Q369 20 337.5 5 Q306 -10 262 -10 Z M289 97 Q315 97 341.5 110 Q368 123 384 151 L384 359 Q352 410 289 410 Q232 410 199.5 371 Q167 332 167 254 Q167 97 289 97 Z M583 740 L693 740 L650 565 L564 566 L583 740 Z " />
<glyph glyph-name="Dcroat" unicode="&#x110;" horiz-adv-x="704" d="M25 382 L88 382 L88 690 L290 690 Q377 690 445 666.5 Q513 643 560 598.5 Q607 554 631.5 490 Q656 426 656 345 Q656 271 630 207.5 Q604 144 555 98 Q506 52 435.5 26 Q365 0 276 0 L88 0 L88 315 L25 315 L25 382 Z M273 104 Q336 104 383.5 122 Q431 140 462 172.5 Q493 205 508.5 249 Q524 293 524 345 Q524 459 466.5 521.5 Q409 584 289 584 L216 584 L216 382 L341 382 L341 315 L216 315 L216 104 L273 104 Z " />
<glyph glyph-name="dcroat" unicode="&#x111;" horiz-adv-x="574" d="M503 592 L503 0 L392 0 L392 47 Q369 21 337 5.5 Q305 -10 261 -10 Q155 -10 99 59 Q43 128 43 252 Q43 312 60.5 361 Q78 410 108.5 444.5 Q139 479 180 498 Q221 517 268 517 Q305 517 332.5 506.5 Q360 496 383 477 L383 592 L276 592 L276 676 L383 676 L383 740 L503 740 L503 676 L554 676 L554 592 L503 592 Z M288 97 Q314 97 340 110 Q366 123 383 150 L383 359 Q353 410 288 410 Q231 410 199 371 Q167 332 167 254 Q167 97 288 97 Z " />
<glyph glyph-name="Emacron" unicode="&#x112;" horiz-adv-x="549" d="M81 0 L81 690 L502 690 L502 586 L209 586 L209 411 L417 411 L417 307 L209 307 L209 104 L506 104 L506 0 L81 0 Z M155 791 L155 876 L433 876 L433 791 L155 791 Z " />
<glyph glyph-name="emacron" unicode="&#x113;" horiz-adv-x="536" d="M284 -10 Q227 -10 182.5 8.5 Q138 27 106.5 60.5 Q75 94 58.5 142 Q42 190 42 250 Q42 311 59 360 Q76 409 107 444 Q138 479 182 498 Q226 517 279 517 Q382 517 437 453.5 Q492 390 492 276 Q492 265 492 253.5 Q492 242 490 230 L163 230 Q168 162 199 127.5 Q230 93 284 93 Q319 93 344 113.5 Q369 134 386 164 L481 109 Q452 52 402.5 21 Q353 -10 284 -10 Z M273 414 Q231 414 204 387 Q177 360 167 307 L372 307 Q364 414 273 414 Z M142 609 L142 693 L420 693 L420 609 L142 609 Z " />
<glyph glyph-name="Ebreve" unicode="&#x114;" horiz-adv-x="549" d="M81 0 L81 690 L502 690 L502 586 L209 586 L209 411 L417 411 L417 307 L209 307 L209 104 L506 104 L506 0 L81 0 Z M296 734 Q230 734 190 781 Q150 828 136 916 L210 936 Q222 881 241.5 851.5 Q261 822 296 822 Q331 822 350 851.5 Q369 881 381 936 L456 916 Q442 828 401.5 781 Q361 734 296 734 Z " />
<glyph glyph-name="ebreve" unicode="&#x115;" horiz-adv-x="536" d="M284 -10 Q227 -10 182.5 8.5 Q138 27 106.5 60.5 Q75 94 58.5 142 Q42 190 42 250 Q42 311 59 360 Q76 409 107 444 Q138 479 182 498 Q226 517 279 517 Q382 517 437 453.5 Q492 390 492 276 Q492 265 492 253.5 Q492 242 490 230 L163 230 Q168 162 199 127.5 Q230 93 284 93 Q319 93 344 113.5 Q369 134 386 164 L481 109 Q452 52 402.5 21 Q353 -10 284 -10 Z M273 414 Q231 414 204 387 Q177 360 167 307 L372 307 Q364 414 273 414 Z M281 551 Q215 551 175 598 Q135 645 121 733 L195 753 Q207 698 226.5 668.5 Q246 639 281 639 Q316 639 335 668.5 Q354 698 366 753 L441 733 Q427 645 386.5 598 Q346 551 281 551 Z " />
<glyph glyph-name="Edotaccent" unicode="&#x116;" horiz-adv-x="549" d="M81 0 L81 690 L502 690 L502 586 L209 586 L209 411 L417 411 L417 307 L209 307 L209 104 L506 104 L506 0 L81 0 Z M223 824 Q223 859 242.5 878.5 Q262 898 295 898 Q329 898 349 878.5 Q369 859 369 824 Q369 792 349 772 Q329 752 295 752 Q262 752 242.5 772 Q223 792 223 824 Z " />
<glyph glyph-name="edotaccent" unicode="&#x117;" horiz-adv-x="536" d="M284 -10 Q227 -10 182.5 8.5 Q138 27 106.5 60.5 Q75 94 58.5 142 Q42 190 42 250 Q42 311 59 360 Q76 409 107 444 Q138 479 182 498 Q226 517 279 517 Q382 517 437 453.5 Q492 390 492 276 Q492 265 492 253.5 Q492 242 490 230 L163 230 Q168 162 199 127.5 Q230 93 284 93 Q319 93 344 113.5 Q369 134 386 164 L481 109 Q452 52 402.5 21 Q353 -10 284 -10 Z M273 414 Q231 414 204 387 Q177 360 167 307 L372 307 Q364 414 273 414 Z M208 641 Q208 676 227.5 695.5 Q247 715 280 715 Q314 715 334 695.5 Q354 676 354 641 Q354 609 334 589 Q314 569 280 569 Q247 569 227.5 589 Q208 609 208 641 Z " />
<glyph glyph-name="Eogonek" unicode="&#x118;" horiz-adv-x="549" d="M469 0 Q443 -35 427 -65.5 Q411 -96 411 -131 Q411 -162 426.5 -178 Q442 -194 464 -194 Q487 -194 505 -182.5 Q523 -171 537 -153 L579 -196 Q573 -205 562 -216 Q551 -227 535.5 -237 Q520 -247 499 -253.5 Q478 -260 452 -260 Q396 -260 363.5 -231 Q331 -202 331 -149 Q331 -112 348 -77 Q365 -42 397 0 L81 0 L81 690 L502 690 L502 586 L209 586 L209 411 L417 411 L417 307 L209 307 L209 104 L506 104 L506 0 L469 0 Z " />
<glyph glyph-name="eogonek" unicode="&#x119;" horiz-adv-x="535" d="M283 -10 Q226 -10 181.5 8.5 Q137 27 105.5 60.5 Q74 94 57.5 142 Q41 190 41 250 Q41 311 58 360 Q75 409 106 444 Q137 479 181 498 Q225 517 278 517 Q381 517 436 454 Q491 391 491 277 Q491 266 491 254 Q491 242 489 230 L162 230 Q167 162 198 127.5 Q229 93 283 93 Q318 93 343 113.5 Q368 134 385 164 L480 109 Q470 90 458.5 74.5 Q447 59 433 45 Q389 -3 364 -44 Q339 -85 339 -131 Q339 -162 354.5 -178 Q370 -194 391 -194 Q415 -194 433 -182.5 Q451 -171 465 -153 L507 -196 Q501 -205 490 -216 Q479 -227 463.5 -237 Q448 -247 427 -253.5 Q406 -260 379 -260 Q324 -260 291.5 -231 Q259 -202 259 -149 Q259 -114 274 -80 Q289 -46 318 -7 Q301 -10 283 -10 Z M272 414 Q230 414 203 387 Q176 360 166 307 L371 307 Q363 414 272 414 Z " />
<glyph glyph-name="Ecaron" unicode="&#x11a;" horiz-adv-x="549" d="M81 0 L81 690 L502 690 L502 586 L209 586 L209 411 L417 411 L417 307 L209 307 L209 104 L506 104 L506 0 L81 0 Z M383 940 L448 894 L334 734 L244 734 L130 894 L195 940 L289 823 L383 940 Z " />
<glyph glyph-name="ecaron" unicode="&#x11b;" horiz-adv-x="536" d="M284 -10 Q227 -10 182.5 8.5 Q138 27 106.5 60.5 Q75 94 58.5 142 Q42 190 42 250 Q42 311 59 360 Q76 409 107 444 Q138 479 182 498 Q226 517 279 517 Q382 517 437 453.5 Q492 390 492 276 Q492 265 492 253.5 Q492 242 490 230 L163 230 Q168 162 199 127.5 Q230 93 284 93 Q319 93 344 113.5 Q369 134 386 164 L481 109 Q452 52 402.5 21 Q353 -10 284 -10 Z M273 414 Q231 414 204 387 Q177 360 167 307 L372 307 Q364 414 273 414 Z M368 758 L433 712 L319 551 L229 551 L115 712 L180 758 L274 641 L368 758 Z " />
<glyph glyph-name="Gcircumflex" unicode="&#x11c;" horiz-adv-x="728" d="M368 585 Q325 585 290.5 568 Q256 551 231.5 520 Q207 489 193.5 445 Q180 401 180 347 Q180 231 231 166 Q282 101 376 101 Q412 101 444 111 Q476 121 500 142.5 Q524 164 539.5 197 Q555 230 559 277 L418 277 L418 383 L685 383 L685 321 Q685 250 664.5 189.5 Q644 129 605 85 Q566 41 509 15.5 Q452 -10 379 -10 Q304 -10 242.5 15 Q181 40 138 86.5 Q95 133 71.5 199 Q48 265 48 346 Q48 424 73 489 Q98 554 141.5 601 Q185 648 244.5 674 Q304 700 373 700 Q483 700 545.5 657.5 Q608 615 643 540 L524 485 Q504 533 463 559 Q422 585 368 585 Z M364 851 L270 734 L205 780 L319 940 L409 940 L523 780 L457 734 L364 851 Z " />
<glyph glyph-name="gcircumflex" unicode="&#x11d;" horiz-adv-x="533" d="M534 420 Q507 420 482.5 417.5 Q458 415 436 408 Q450 372 450 334 Q450 296 437.5 262 Q425 228 399 202.5 Q373 177 334 161.5 Q295 146 242 146 Q207 146 179 152 Q166 141 162 131 Q158 121 158 113 Q158 99 169.5 91 Q181 83 209 83 L315 83 Q373 83 412.5 72 Q452 61 476 42 Q500 23 510 -3 Q520 -29 520 -59 Q520 -106 495 -143 Q470 -180 427.5 -206 Q385 -232 329.5 -246 Q274 -260 213 -260 Q117 -260 69.5 -226 Q22 -192 22 -132 Q22 -85 43 -54 Q64 -23 99 0 Q72 13 59.5 34 Q47 55 47 81 Q47 137 113 181 Q75 207 57.5 246 Q40 285 40 330 Q40 370 53.5 404.5 Q67 439 93.5 464 Q120 489 159 503 Q198 517 248 517 Q293 517 328 505.5 Q363 494 387 474 Q416 493 448.5 505 Q481 517 534 517 L534 420 Z M173 -16 Q151 -34 142.5 -53 Q134 -72 134 -92 Q134 -156 238 -156 Q272 -156 301 -150 Q330 -144 351 -133 Q372 -122 384 -106.5 Q396 -91 396 -72 Q396 -43 374.5 -29.5 Q353 -16 305 -16 L173 -16 Z M245 244 Q270 244 287.5 252 Q305 260 315 272.5 Q325 285 329.5 300.5 Q334 316 334 332 Q334 348 329.5 363.5 Q325 379 314.5 391.5 Q304 404 287 411.5 Q270 419 245 419 Q220 419 203 411.5 Q186 404 175.5 391.5 Q165 379 160.5 363 Q156 347 156 331 Q156 315 160.5 299.5 Q165 284 175.5 271.5 Q186 259 203 251.5 Q220 244 245 244 Z M247 668 L153 551 L88 597 L202 758 L292 758 L406 597 L340 551 L247 668 Z " />
<glyph glyph-name="Gbreve" unicode="&#x11e;" horiz-adv-x="728" d="M368 585 Q325 585 290.5 568 Q256 551 231.5 520 Q207 489 193.5 445 Q180 401 180 347 Q180 231 231 166 Q282 101 376 101 Q412 101 444 111 Q476 121 500 142.5 Q524 164 539.5 197 Q555 230 559 277 L418 277 L418 383 L685 383 L685 321 Q685 250 664.5 189.5 Q644 129 605 85 Q566 41 509 15.5 Q452 -10 379 -10 Q304 -10 242.5 15 Q181 40 138 86.5 Q95 133 71.5 199 Q48 265 48 346 Q48 424 73 489 Q98 554 141.5 601 Q185 648 244.5 674 Q304 700 373 700 Q483 700 545.5 657.5 Q608 615 643 540 L524 485 Q504 533 463 559 Q422 585 368 585 Z M364 734 Q298 734 258 781 Q218 828 204 916 L278 936 Q290 881 309.5 851.5 Q329 822 364 822 Q399 822 418 851.5 Q437 881 449 936 L524 916 Q510 828 469.5 781 Q429 734 364 734 Z " />
<glyph glyph-name="gbreve" unicode="&#x11f;" horiz-adv-x="533" d="M534 420 Q507 420 482.5 417.5 Q458 415 436 408 Q450 372 450 334 Q450 296 437.5 262 Q425 228 399 202.5 Q373 177 334 161.5 Q295 146 242 146 Q207 146 179 152 Q166 141 162 131 Q158 121 158 113 Q158 99 169.5 91 Q181 83 209 83 L315 83 Q373 83 412.5 72 Q452 61 476 42 Q500 23 510 -3 Q520 -29 520 -59 Q520 -106 495 -143 Q470 -180 427.5 -206 Q385 -232 329.5 -246 Q274 -260 213 -260 Q117 -260 69.5 -226 Q22 -192 22 -132 Q22 -85 43 -54 Q64 -23 99 0 Q72 13 59.5 34 Q47 55 47 81 Q47 137 113 181 Q75 207 57.5 246 Q40 285 40 330 Q40 370 53.5 404.5 Q67 439 93.5 464 Q120 489 159 503 Q198 517 248 517 Q293 517 328 505.5 Q363 494 387 474 Q416 493 448.5 505 Q481 517 534 517 L534 420 Z M173 -16 Q151 -34 142.5 -53 Q134 -72 134 -92 Q134 -156 238 -156 Q272 -156 301 -150 Q330 -144 351 -133 Q372 -122 384 -106.5 Q396 -91 396 -72 Q396 -43 374.5 -29.5 Q353 -16 305 -16 L173 -16 Z M245 244 Q270 244 287.5 252 Q305 260 315 272.5 Q325 285 329.5 300.5 Q334 316 334 332 Q334 348 329.5 363.5 Q325 379 314.5 391.5 Q304 404 287 411.5 Q270 419 245 419 Q220 419 203 411.5 Q186 404 175.5 391.5 Q165 379 160.5 363 Q156 347 156 331 Q156 315 160.5 299.5 Q165 284 175.5 271.5 Q186 259 203 251.5 Q220 244 245 244 Z M247 551 Q181 551 141 598 Q101 645 87 733 L161 753 Q173 698 192.5 668.5 Q212 639 247 639 Q282 639 301 668.5 Q320 698 332 753 L407 733 Q393 645 352.5 598 Q312 551 247 551 Z " />
<glyph glyph-name="Gdotaccent" unicode="&#x120;" horiz-adv-x="728" d="M368 585 Q325 585 290.5 568 Q256 551 231.5 520 Q207 489 193.5 445 Q180 401 180 347 Q180 231 231 166 Q282 101 376 101 Q412 101 444 111 Q476 121 500 142.5 Q524 164 539.5 197 Q555 230 559 277 L418 277 L418 383 L685 383 L685 321 Q685 250 664.5 189.5 Q644 129 605 85 Q566 41 509 15.5 Q452 -10 379 -10 Q304 -10 242.5 15 Q181 40 138 86.5 Q95 133 71.5 199 Q48 265 48 346 Q48 424 73 489 Q98 554 141.5 601 Q185 648 244.5 674 Q304 700 373 700 Q483 700 545.5 657.5 Q608 615 643 540 L524 485 Q504 533 463 559 Q422 585 368 585 Z M291 824 Q291 859 310.5 878.5 Q330 898 363 898 Q397 898 417 878.5 Q437 859 437 824 Q437 792 417 772 Q397 752 363 752 Q330 752 310.5 772 Q291 792 291 824 Z " />
<glyph glyph-name="gdotaccent" unicode="&#x121;" horiz-adv-x="533" d="M534 420 Q507 420 482.5 417.5 Q458 415 436 408 Q450 372 450 334 Q450 296 437.5 262 Q425 228 399 202.5 Q373 177 334 161.5 Q295 146 242 146 Q207 146 179 152 Q166 141 162 131 Q158 121 158 113 Q158 99 169.5 91 Q181 83 209 83 L315 83 Q373 83 412.5 72 Q452 61 476 42 Q500 23 510 -3 Q520 -29 520 -59 Q520 -106 495 -143 Q470 -180 427.5 -206 Q385 -232 329.5 -246 Q274 -260 213 -260 Q117 -260 69.5 -226 Q22 -192 22 -132 Q22 -85 43 -54 Q64 -23 99 0 Q72 13 59.5 34 Q47 55 47 81 Q47 137 113 181 Q75 207 57.5 246 Q40 285 40 330 Q40 370 53.5 404.5 Q67 439 93.5 464 Q120 489 159 503 Q198 517 248 517 Q293 517 328 505.5 Q363 494 387 474 Q416 493 448.5 505 Q481 517 534 517 L534 420 Z M173 -16 Q151 -34 142.5 -53 Q134 -72 134 -92 Q134 -156 238 -156 Q272 -156 301 -150 Q330 -144 351 -133 Q372 -122 384 -106.5 Q396 -91 396 -72 Q396 -43 374.5 -29.5 Q353 -16 305 -16 L173 -16 Z M245 244 Q270 244 287.5 252 Q305 260 315 272.5 Q325 285 329.5 300.5 Q334 316 334 332 Q334 348 329.5 363.5 Q325 379 314.5 391.5 Q304 404 287 411.5 Q270 419 245 419 Q220 419 203 411.5 Q186 404 175.5 391.5 Q165 379 160.5 363 Q156 347 156 331 Q156 315 160.5 299.5 Q165 284 175.5 271.5 Q186 259 203 251.5 Q220 244 245 244 Z M174 641 Q174 676 193.5 695.5 Q213 715 246 715 Q280 715 300 695.5 Q320 676 320 641 Q320 609 300 589 Q280 569 246 569 Q213 569 193.5 589 Q174 609 174 641 Z " />
<glyph glyph-name="Gcommaaccent" unicode="&#x122;" horiz-adv-x="728" d="M368 585 Q325 585 290.5 568 Q256 551 231.5 520 Q207 489 193.5 445 Q180 401 180 347 Q180 231 231 166 Q282 101 376 101 Q412 101 444 111 Q476 121 500 142.5 Q524 164 539.5 197 Q555 230 559 277 L418 277 L418 383 L685 383 L685 321 Q685 250 664.5 189.5 Q644 129 605 85 Q566 41 509 15.5 Q452 -10 379 -10 Q304 -10 242.5 15 Q181 40 138 86.5 Q95 133 71.5 199 Q48 265 48 346 Q48 424 73 489 Q98 554 141.5 601 Q185 648 244.5 674 Q304 700 373 700 Q483 700 545.5 657.5 Q608 615 643 540 L524 485 Q504 533 463 559 Q422 585 368 585 Z M297 -60 L415 -60 L372 -235 L278 -234 L297 -60 Z " />
<glyph glyph-name="gcommaaccent" unicode="&#x123;" horiz-adv-x="533" d="M534 420 Q507 420 482.5 417.5 Q458 415 436 408 Q450 372 450 334 Q450 296 437.5 262 Q425 228 399 202.5 Q373 177 334 161.5 Q295 146 242 146 Q207 146 179 152 Q166 141 162 131 Q158 121 158 113 Q158 99 169.5 91 Q181 83 209 83 L315 83 Q373 83 412.5 72 Q452 61 476 42 Q500 23 510 -3 Q520 -29 520 -59 Q520 -106 495 -143 Q470 -180 427.5 -206 Q385 -232 329.5 -246 Q274 -260 213 -260 Q117 -260 69.5 -226 Q22 -192 22 -132 Q22 -85 43 -54 Q64 -23 99 0 Q72 13 59.5 34 Q47 55 47 81 Q47 137 113 181 Q75 207 57.5 246 Q40 285 40 330 Q40 370 53.5 404.5 Q67 439 93.5 464 Q120 489 159 503 Q198 517 248 517 Q293 517 328 505.5 Q363 494 387 474 Q416 493 448.5 505 Q481 517 534 517 L534 420 Z M173 -16 Q151 -34 142.5 -53 Q134 -72 134 -92 Q134 -156 238 -156 Q272 -156 301 -150 Q330 -144 351 -133 Q372 -122 384 -106.5 Q396 -91 396 -72 Q396 -43 374.5 -29.5 Q353 -16 305 -16 L173 -16 Z M245 244 Q270 244 287.5 252 Q305 260 315 272.5 Q325 285 329.5 300.5 Q334 316 334 332 Q334 348 329.5 363.5 Q325 379 314.5 391.5 Q304 404 287 411.5 Q270 419 245 419 Q220 419 203 411.5 Q186 404 175.5 391.5 Q165 379 160.5 363 Q156 347 156 331 Q156 315 160.5 299.5 Q165 284 175.5 271.5 Q186 259 203 251.5 Q220 244 245 244 Z M303 582 L192 582 L235 757 L322 756 L303 582 Z " />
<glyph glyph-name="Hcircumflex" unicode="&#x124;" horiz-adv-x="718" d="M81 0 L81 690 L209 690 L209 402 L509 402 L509 690 L637 690 L637 0 L509 0 L509 298 L209 298 L209 0 L81 0 Z M359 851 L265 734 L200 780 L314 940 L404 940 L518 780 L452 734 L359 851 Z " />
<glyph glyph-name="hcircumflex" unicode="&#x125;" horiz-adv-x="574" d="M72 0 L72 740 L192 740 L192 457 Q216 482 252 499.5 Q288 517 340 517 Q385 517 417 503.5 Q449 490 469 466.5 Q489 443 498.5 410 Q508 377 508 338 L508 0 L388 0 L388 315 Q388 366 364.5 388 Q341 410 305 410 Q263 410 237.5 394 Q212 378 192 355 L192 0 L72 0 Z M252 888 L158 771 L93 817 L207 978 L297 978 L411 817 L345 771 L252 888 Z " />
<glyph glyph-name="Hbar" unicode="&#x126;" horiz-adv-x="717" d="M81 0 L81 516 L39 516 L39 601 L81 601 L81 690 L209 690 L209 601 L508 601 L508 690 L636 690 L636 601 L678 601 L678 516 L636 516 L636 0 L508 0 L508 298 L209 298 L209 0 L81 0 Z M209 402 L508 402 L508 516 L209 516 L209 402 Z " />
<glyph glyph-name="hbar" unicode="&#x127;" horiz-adv-x="574" d="M192 592 L192 457 Q216 482 252 499.5 Q288 517 340 517 Q385 517 417 503.5 Q449 490 469 466.5 Q489 443 498.5 410 Q508 377 508 338 L508 0 L388 0 L388 315 Q388 366 364.5 388 Q341 410 305 410 Q263 410 237.5 394 Q212 378 192 355 L192 0 L72 0 L72 592 L29 592 L29 676 L72 676 L72 740 L192 740 L192 676 L307 676 L307 592 L192 592 Z " />
<glyph glyph-name="Itilde" unicode="&#x128;" horiz-adv-x="289" d="M81 0 L81 690 L209 690 L209 0 L81 0 Z M-28 812 Q-12 848 16 870 Q44 892 73 892 Q94 892 110 885 Q126 878 140.5 869 Q155 860 168.5 853 Q182 846 197 846 Q214 846 227.5 855.5 Q241 865 256 887 L316 836 Q298 799 268.5 774.5 Q239 750 207 750 Q186 750 169 757 Q152 764 138 773 Q124 782 110.5 789 Q97 796 82 796 Q65 796 53.5 786 Q42 776 28 759 L-28 812 Z " />
<glyph glyph-name="itilde" unicode="&#x129;" horiz-adv-x="264" d="M72 0 L72 507 L192 507 L192 0 L72 0 Z M-40 629 Q-24 666 4 687.5 Q32 709 61 709 Q82 709 98 702 Q114 695 128.5 686 Q143 677 156.5 670 Q170 663 185 663 Q202 663 215.5 672.5 Q229 682 244 704 L304 653 Q286 616 256.5 591.5 Q227 567 195 567 Q174 567 157 574 Q140 581 126 590 Q112 599 98.5 606 Q85 613 70 613 Q53 613 41.5 603 Q30 593 16 576 L-40 629 Z " />
<glyph glyph-name="Imacron" unicode="&#x12a;" horiz-adv-x="289" d="M81 0 L81 690 L209 690 L209 0 L81 0 Z M6 791 L6 876 L284 876 L284 791 L6 791 Z " />
<glyph glyph-name="imacron" unicode="&#x12b;" horiz-adv-x="264" d="M72 0 L72 507 L192 507 L192 0 L72 0 Z M-6 609 L-6 693 L272 693 L272 609 L-6 609 Z " />
<glyph glyph-name="Ibreve" unicode="&#x12c;" horiz-adv-x="289" d="M81 0 L81 690 L209 690 L209 0 L81 0 Z M145 734 Q79 734 39 781 Q-1 828 -15 916 L59 936 Q71 881 90.5 851.5 Q110 822 145 822 Q180 822 199 851.5 Q218 881 230 936 L305 916 Q291 828 250.5 781 Q210 734 145 734 Z " />
<glyph glyph-name="ibreve" unicode="&#x12d;" horiz-adv-x="264" d="M72 0 L72 507 L192 507 L192 0 L72 0 Z M133 551 Q67 551 27 598 Q-13 645 -27 733 L47 753 Q59 698 78.5 668.5 Q98 639 133 639 Q168 639 187 668.5 Q206 698 218 753 L293 733 Q279 645 238.5 598 Q198 551 133 551 Z " />
<glyph glyph-name="Iogonek" unicode="&#x12e;" horiz-adv-x="289" d="M137 0 Q111 -35 94.5 -65.5 Q78 -96 78 -131 Q78 -162 93.5 -178 Q109 -194 130 -194 Q154 -194 172 -182.5 Q190 -171 204 -153 L246 -196 Q240 -205 229 -216 Q218 -227 202 -237 Q186 -247 165 -253.5 Q144 -260 118 -260 Q63 -260 30.5 -231 Q-2 -202 -2 -149 Q-2 -108 19 -67.5 Q40 -27 81 22 L81 690 L209 690 L209 0 L137 0 Z " />
<glyph glyph-name="iogonek" unicode="&#x12f;" horiz-adv-x="264" d="M115 0 Q89 -34 73 -65 Q57 -96 57 -131 Q57 -162 72.5 -178 Q88 -194 110 -194 Q133 -194 151 -182.5 Q169 -171 183 -153 L225 -196 Q219 -205 208 -216 Q197 -227 181.5 -237 Q166 -247 145 -253.5 Q124 -260 98 -260 Q42 -260 9.5 -231 Q-23 -202 -23 -149 Q-23 -105 2 -62 Q27 -19 72 35 L72 507 L192 507 L192 0 L115 0 Z M133 569 Q100 569 80.5 589 Q61 609 61 641 Q61 676 80.5 695.5 Q100 715 133 715 Q167 715 187 695.5 Q207 676 207 641 Q207 609 187 589 Q167 569 133 569 Z " />
<glyph glyph-name="Idotaccent" unicode="&#x130;" horiz-adv-x="289" d="M81 0 L81 690 L209 690 L209 0 L81 0 Z M72 824 Q72 859 91.5 878.5 Q111 898 144 898 Q178 898 198 878.5 Q218 859 218 824 Q218 792 198 772 Q178 752 144 752 Q111 752 91.5 772 Q72 792 72 824 Z " />
<glyph glyph-name="dotlessi" unicode="&#x131;" horiz-adv-x="264" d="M72 0 L72 507 L192 507 L192 0 L72 0 Z " />
<glyph glyph-name="IJ" unicode="&#x132;" horiz-adv-x="586" d="M81 0 L81 690 L209 690 L209 0 L81 0 Z M504 27 Q504 -33 489 -74.5 Q474 -116 446 -141 Q418 -166 379.5 -177 Q341 -188 293 -188 L269 -188 L269 -84 L284 -84 Q338 -84 357.5 -53 Q377 -22 377 48 L377 690 L504 690 L504 27 Z " />
<glyph glyph-name="ij" unicode="&#x133;" horiz-adv-x="517" d="M133 569 Q99 569 79.5 589 Q60 609 60 641 Q60 676 79.5 696 Q99 716 133 716 Q167 716 187 696 Q207 676 207 641 Q207 609 187 589 Q167 569 133 569 Z M72 0 L72 507 L192 507 L192 0 L72 0 Z M243 -180 L251 -180 Q292 -180 309 -160.5 Q326 -141 326 -104 L326 507 L446 507 L446 -99 Q446 -187 404 -231 Q362 -275 268 -275 L242 -275 L243 -180 Z M386 569 Q353 569 333.5 589 Q314 609 314 641 Q314 676 333.5 696 Q353 716 386 716 Q421 716 440.5 696 Q460 676 460 641 Q460 609 440.5 589 Q421 569 386 569 Z " />
<glyph glyph-name="Jcircumflex" unicode="&#x134;" horiz-adv-x="301" d="M220 27 Q220 -33 205 -74.5 Q190 -116 162 -141 Q134 -166 95.5 -177 Q57 -188 9 -188 L-15 -188 L-15 -84 L0 -84 Q54 -84 73.5 -53 Q93 -22 93 48 L93 690 L220 690 L220 27 Z M154 851 L60 734 L-5 780 L109 940 L199 940 L313 780 L247 734 L154 851 Z " />
<glyph glyph-name="jcircumflex" unicode="&#x135;" horiz-adv-x="264" d="M-11 -180 L-3 -180 Q38 -180 55 -160.5 Q72 -141 72 -104 L72 507 L192 507 L192 -99 Q192 -187 150 -231 Q108 -275 14 -275 L-12 -275 L-11 -180 Z M122 668 L28 551 L-37 597 L77 758 L167 758 L281 597 L215 551 L122 668 Z " />
<glyph glyph-name="Kcommaaccent" unicode="&#x136;" horiz-adv-x="638" d="M81 0 L81 690 L209 690 L209 403 L249 403 Q334 403 381 445.5 Q428 488 428 556 Q428 593 418.5 618.5 Q409 644 395 666 L510 717 Q530 694 543 654 Q556 614 556 569 Q556 507 525.5 451.5 Q495 396 429 359 Q493 333 527.5 275 Q562 217 576 113 Q581 73 585.5 47 Q590 21 597 0 L467 0 Q462 20 458.5 42.5 Q455 65 449 104 Q439 166 424.5 204 Q410 242 388.5 263 Q367 284 336.5 291.5 Q306 299 264 299 L209 299 L209 0 L81 0 Z M255 -60 L373 -60 L330 -235 L236 -234 L255 -60 Z " />
<glyph glyph-name="kcommaaccent" unicode="&#x137;" horiz-adv-x="549" d="M72 0 L72 740 L192 740 L192 0 L72 0 Z M496 0 Q464 0 439.5 4 Q415 8 393.5 19 Q372 30 352.5 49.5 Q333 69 311 101 L198 265 L390 507 L528 507 L332 265 L403 164 Q427 129 451 116.5 Q475 104 507 104 L516 104 L516 0 L496 0 Z M230 -60 L348 -60 L305 -235 L211 -234 L230 -60 Z " />
<glyph glyph-name="Lacute" unicode="&#x139;" horiz-adv-x="544" d="M503 104 L503 0 L81 0 L81 690 L209 690 L209 104 L503 104 Z M180 734 L106 780 L203 940 L290 885 L180 734 Z " />
<glyph glyph-name="lacute" unicode="&#x13a;" horiz-adv-x="263" d="M72 0 L72 740 L192 740 L192 0 L72 0 Z M148 771 L74 817 L171 978 L258 922 L148 771 Z " />
<glyph glyph-name="Lcommaaccent" unicode="&#x13b;" horiz-adv-x="544" d="M503 104 L503 0 L81 0 L81 690 L209 690 L209 104 L503 104 Z M245 -60 L363 -60 L320 -235 L226 -234 L245 -60 Z " />
<glyph glyph-name="lcommaaccent" unicode="&#x13c;" horiz-adv-x="263" d="M72 0 L72 740 L192 740 L192 0 L72 0 Z M74 -60 L192 -60 L149 -235 L55 -234 L74 -60 Z " />
<glyph glyph-name="Lcaron" unicode="&#x13d;" horiz-adv-x="544" d="M503 104 L503 0 L81 0 L81 690 L209 690 L209 104 L503 104 Z M307 740 L417 740 L374 565 L288 566 L307 740 Z " />
<glyph glyph-name="lcaron" unicode="&#x13e;" horiz-adv-x="365" d="M72 0 L72 740 L192 740 L192 0 L72 0 Z M268 740 L378 740 L335 565 L249 566 L268 740 Z " />
<glyph glyph-name="Ldot" unicode="&#x13f;" horiz-adv-x="544" d="M503 104 L503 0 L81 0 L81 690 L209 690 L209 104 L503 104 Z M329 324 Q329 359 348.5 378.5 Q368 398 401 398 Q435 398 455 378.5 Q475 359 475 324 Q475 292 455 272 Q435 252 401 252 Q368 252 348.5 272 Q329 292 329 324 Z " />
<glyph glyph-name="ldot" unicode="&#x140;" horiz-adv-x="361" d="M72 0 L72 740 L192 740 L192 0 L72 0 Z M239 324 Q239 359 258.5 378.5 Q278 398 311 398 Q346 398 365.5 378.5 Q385 359 385 324 Q385 292 365.5 272 Q346 252 311 252 Q278 252 258.5 272 Q239 292 239 324 Z " />
<glyph glyph-name="Lslash" unicode="&#x141;" horiz-adv-x="544" d="M25 282 L81 319 L81 690 L209 690 L209 405 L271 447 L271 366 L209 324 L209 104 L503 104 L503 0 L81 0 L81 239 L25 202 L25 282 Z " />
<glyph glyph-name="lslash" unicode="&#x142;" horiz-adv-x="271" d="M16 282 L75 321 L75 740 L195 740 L195 402 L262 447 L262 366 L195 321 L195 0 L75 0 L75 241 L16 202 L16 282 Z " />
<glyph glyph-name="Nacute" unicode="&#x143;" horiz-adv-x="713" d="M200 483 L200 0 L81 0 L81 690 L200 690 L513 209 L513 690 L633 690 L633 0 L513 0 L200 483 Z M364 734 L290 780 L387 940 L474 885 L364 734 Z " />
<glyph glyph-name="nacute" unicode="&#x144;" horiz-adv-x="574" d="M72 0 L72 507 L183 507 L183 448 Q208 476 245.5 496.5 Q283 517 340 517 Q385 517 417 503.5 Q449 490 469 466.5 Q489 443 498.5 410 Q508 377 508 338 L508 0 L388 0 L388 315 Q388 366 364.5 388 Q341 410 305 410 Q263 410 237.5 394 Q212 378 192 355 L192 0 L72 0 Z M295 551 L221 597 L318 758 L405 702 L295 551 Z " />
<glyph glyph-name="Ncommaaccent" unicode="&#x145;" horiz-adv-x="713" d="M200 483 L200 0 L81 0 L81 690 L200 690 L513 209 L513 690 L633 690 L633 0 L513 0 L200 483 Z M288 -60 L406 -60 L363 -235 L269 -234 L288 -60 Z " />
<glyph glyph-name="ncommaaccent" unicode="&#x146;" horiz-adv-x="574" d="M72 0 L72 507 L183 507 L183 448 Q208 476 245.5 496.5 Q283 517 340 517 Q385 517 417 503.5 Q449 490 469 466.5 Q489 443 498.5 410 Q508 377 508 338 L508 0 L388 0 L388 315 Q388 366 364.5 388 Q341 410 305 410 Q263 410 237.5 394 Q212 378 192 355 L192 0 L72 0 Z M229 -60 L347 -60 L304 -235 L210 -234 L229 -60 Z " />
<glyph glyph-name="Ncaron" unicode="&#x147;" horiz-adv-x="713" d="M200 483 L200 0 L81 0 L81 690 L200 690 L513 209 L513 690 L633 690 L633 0 L513 0 L200 483 Z M444 940 L509 894 L395 734 L305 734 L191 894 L256 940 L350 823 L444 940 Z " />
<glyph glyph-name="ncaron" unicode="&#x148;" horiz-adv-x="574" d="M72 0 L72 507 L183 507 L183 448 Q208 476 245.5 496.5 Q283 517 340 517 Q385 517 417 503.5 Q449 490 469 466.5 Q489 443 498.5 410 Q508 377 508 338 L508 0 L388 0 L388 315 Q388 366 364.5 388 Q341 410 305 410 Q263 410 237.5 394 Q212 378 192 355 L192 0 L72 0 Z M375 758 L440 712 L326 551 L236 551 L122 712 L187 758 L281 641 L375 758 Z " />
<glyph glyph-name="Omacron" unicode="&#x14c;" horiz-adv-x="759" d="M380 -10 Q304 -10 242.5 15 Q181 40 138 86.5 Q95 133 71.5 198.5 Q48 264 48 345 Q48 423 72.5 488 Q97 553 141 600 Q185 647 245.5 673.5 Q306 700 378 700 Q454 700 516 675 Q578 650 621 603.5 Q664 557 687.5 491.5 Q711 426 711 345 Q711 267 686 202 Q661 137 617 90 Q573 43 512.5 16.5 Q452 -10 380 -10 Z M380 105 Q476 105 527.5 170 Q579 235 579 344 Q579 461 527.5 523 Q476 585 378 585 Q331 585 294 568 Q257 551 231.5 519.5 Q206 488 193 444 Q180 400 180 346 Q180 229 231.5 167 Q283 105 380 105 Z M241 791 L241 876 L519 876 L519 791 L241 791 Z " />
<glyph glyph-name="omacron" unicode="&#x14d;" horiz-adv-x="576" d="M288 -10 Q232 -10 186.5 8.5 Q141 27 109 60.5 Q77 94 59.5 142 Q42 190 42 250 Q42 311 60.5 360 Q79 409 112 444 Q145 479 190 498 Q235 517 288 517 Q344 517 389.5 498.5 Q435 480 467 446.5 Q499 413 516 365 Q533 317 533 257 Q533 196 514.5 147 Q496 98 463.5 63 Q431 28 386 9 Q341 -10 288 -10 Z M288 97 Q341 97 375 136 Q409 175 409 254 Q409 333 377 371.5 Q345 410 288 410 Q234 410 200 371 Q166 332 166 253 Q166 174 198.5 135.5 Q231 97 288 97 Z M149 609 L149 693 L427 693 L427 609 L149 609 Z " />
<glyph glyph-name="Obreve" unicode="&#x14e;" horiz-adv-x="759" d="M380 -10 Q304 -10 242.5 15 Q181 40 138 86.5 Q95 133 71.5 198.5 Q48 264 48 345 Q48 423 72.5 488 Q97 553 141 600 Q185 647 245.5 673.5 Q306 700 378 700 Q454 700 516 675 Q578 650 621 603.5 Q664 557 687.5 491.5 Q711 426 711 345 Q711 267 686 202 Q661 137 617 90 Q573 43 512.5 16.5 Q452 -10 380 -10 Z M380 105 Q476 105 527.5 170 Q579 235 579 344 Q579 461 527.5 523 Q476 585 378 585 Q331 585 294 568 Q257 551 231.5 519.5 Q206 488 193 444 Q180 400 180 346 Q180 229 231.5 167 Q283 105 380 105 Z M380 734 Q314 734 274 781 Q234 828 220 916 L294 936 Q306 881 325.5 851.5 Q345 822 380 822 Q415 822 434 851.5 Q453 881 465 936 L540 916 Q526 828 485.5 781 Q445 734 380 734 Z " />
<glyph glyph-name="obreve" unicode="&#x14f;" horiz-adv-x="576" d="M288 -10 Q232 -10 186.5 8.5 Q141 27 109 60.5 Q77 94 59.5 142 Q42 190 42 250 Q42 311 60.5 360 Q79 409 112 444 Q145 479 190 498 Q235 517 288 517 Q344 517 389.5 498.5 Q435 480 467 446.5 Q499 413 516 365 Q533 317 533 257 Q533 196 514.5 147 Q496 98 463.5 63 Q431 28 386 9 Q341 -10 288 -10 Z M288 97 Q341 97 375 136 Q409 175 409 254 Q409 333 377 371.5 Q345 410 288 410 Q234 410 200 371 Q166 332 166 253 Q166 174 198.5 135.5 Q231 97 288 97 Z M288 551 Q222 551 182 598 Q142 645 128 733 L202 753 Q214 698 233.5 668.5 Q253 639 288 639 Q323 639 342 668.5 Q361 698 373 753 L448 733 Q434 645 393.5 598 Q353 551 288 551 Z " />
<glyph glyph-name="Ohungarumlaut" unicode="&#x150;" horiz-adv-x="759" d="M380 -10 Q304 -10 242.5 15 Q181 40 138 86.5 Q95 133 71.5 198.5 Q48 264 48 345 Q48 423 72.5 488 Q97 553 141 600 Q185 647 245.5 673.5 Q306 700 378 700 Q454 700 516 675 Q578 650 621 603.5 Q664 557 687.5 491.5 Q711 426 711 345 Q711 267 686 202 Q661 137 617 90 Q573 43 512.5 16.5 Q452 -10 380 -10 Z M380 105 Q476 105 527.5 170 Q579 235 579 344 Q579 461 527.5 523 Q476 585 378 585 Q331 585 294 568 Q257 551 231.5 519.5 Q206 488 193 444 Q180 400 180 346 Q180 229 231.5 167 Q283 105 380 105 Z M306 734 L241 767 L318 940 L397 897 L306 734 Z M457 734 L392 767 L469 940 L548 897 L457 734 Z " />
<glyph glyph-name="ohungarumlaut" unicode="&#x151;" horiz-adv-x="576" d="M288 -10 Q232 -10 186.5 8.5 Q141 27 109 60.5 Q77 94 59.5 142 Q42 190 42 250 Q42 311 60.5 360 Q79 409 112 444 Q145 479 190 498 Q235 517 288 517 Q344 517 389.5 498.5 Q435 480 467 446.5 Q499 413 516 365 Q533 317 533 257 Q533 196 514.5 147 Q496 98 463.5 63 Q431 28 386 9 Q341 -10 288 -10 Z M288 97 Q341 97 375 136 Q409 175 409 254 Q409 333 377 371.5 Q345 410 288 410 Q234 410 200 371 Q166 332 166 253 Q166 174 198.5 135.5 Q231 97 288 97 Z M233 551 L168 584 L245 758 L324 715 L233 551 Z M384 551 L319 584 L396 758 L475 715 L384 551 Z " />
<glyph glyph-name="OE" unicode="&#x152;" horiz-adv-x="984" d="M520 0 L520 30 Q452 -10 372 -10 Q296 -10 234.5 15 Q173 40 129.5 86.5 Q86 133 62.5 198.5 Q39 264 39 345 Q39 423 64 488 Q89 553 133 600 Q177 647 237.5 673.5 Q298 700 370 700 Q412 700 449.5 690.5 Q487 681 520 664 L520 690 L941 690 L941 586 L648 586 L648 411 L856 411 L856 307 L648 307 L648 104 L945 104 L945 0 L520 0 Z M372 105 Q420 105 457 122.5 Q494 140 520 172 L520 522 Q494 553 456 569 Q418 585 370 585 Q323 585 286 568 Q249 551 223.5 519.5 Q198 488 184.5 444 Q171 400 171 346 Q171 229 223 167 Q275 105 372 105 Z " />
<glyph glyph-name="oe" unicode="&#x153;" horiz-adv-x="866" d="M282 -10 Q227 -10 182.5 8.5 Q138 27 107 60.5 Q76 94 59 142 Q42 190 42 250 Q42 311 60 360 Q78 409 110 444 Q142 479 186 498 Q230 517 282 517 Q340 517 384 497 Q428 477 458 441 Q487 477 529 497 Q571 517 626 517 Q724 517 779 453 Q834 389 834 274 Q834 263 833.5 252 Q833 241 832 230 L515 230 Q524 93 631 93 Q662 93 687 113.5 Q712 134 727 164 L823 109 Q795 52 746 21 Q697 -10 631 -10 Q571 -10 527 10 Q483 30 454 68 Q423 30 379.5 10 Q336 -10 282 -10 Z M282 97 Q333 97 366 136 Q399 175 399 254 Q399 333 368 371.5 Q337 410 282 410 Q231 410 198.5 371 Q166 332 166 253 Q166 174 197 135.5 Q228 97 282 97 Z M620 414 Q536 414 519 307 L714 307 Q709 360 685 387 Q661 414 620 414 Z " />
<glyph glyph-name="Racute" unicode="&#x154;" horiz-adv-x="595" d="M81 0 L81 690 L244 690 Q319 690 371.5 674 Q424 658 457 629.5 Q490 601 505 562.5 Q520 524 520 479 Q520 428 494 383 Q468 338 418 308 Q466 284 494.5 235.5 Q523 187 536 103 Q541 72 546 46 Q551 20 557 0 L426 0 L409 90 Q399 139 389 170.5 Q379 202 362 220.5 Q345 239 318.5 246 Q292 253 250 253 L209 253 L209 0 L81 0 Z M209 357 L248 357 Q324 357 356 389.5 Q388 422 388 473 Q388 531 348.5 558.5 Q309 586 224 586 L209 586 L209 357 Z M305 734 L231 780 L328 940 L415 885 L305 734 Z " />
<glyph glyph-name="racute" unicode="&#x155;" horiz-adv-x="390" d="M72 0 L72 507 L183 507 L183 447 Q209 476 253.5 496.5 Q298 517 367 517 L367 406 Q309 406 269 393.5 Q229 381 192 351 L192 0 L72 0 Z M223 551 L149 597 L246 758 L333 702 L223 551 Z " />
<glyph glyph-name="Rcommaaccent" unicode="&#x156;" horiz-adv-x="595" d="M81 0 L81 690 L244 690 Q319 690 371.5 674 Q424 658 457 629.5 Q490 601 505 562.5 Q520 524 520 479 Q520 428 494 383 Q468 338 418 308 Q466 284 494.5 235.5 Q523 187 536 103 Q541 72 546 46 Q551 20 557 0 L426 0 L409 90 Q399 139 389 170.5 Q379 202 362 220.5 Q345 239 318.5 246 Q292 253 250 253 L209 253 L209 0 L81 0 Z M209 357 L248 357 Q324 357 356 389.5 Q388 422 388 473 Q388 531 348.5 558.5 Q309 586 224 586 L209 586 L209 357 Z M256 -60 L374 -60 L331 -235 L237 -234 L256 -60 Z " />
<glyph glyph-name="rcommaaccent" unicode="&#x157;" horiz-adv-x="390" d="M72 0 L72 507 L183 507 L183 447 Q209 476 253.5 496.5 Q298 517 367 517 L367 406 Q309 406 269 393.5 Q229 381 192 351 L192 0 L72 0 Z M79 -60 L197 -60 L154 -235 L60 -234 L79 -60 Z " />
<glyph glyph-name="Rcaron" unicode="&#x158;" horiz-adv-x="595" d="M81 0 L81 690 L244 690 Q319 690 371.5 674 Q424 658 457 629.5 Q490 601 505 562.5 Q520 524 520 479 Q520 428 494 383 Q468 338 418 308 Q466 284 494.5 235.5 Q523 187 536 103 Q541 72 546 46 Q551 20 557 0 L426 0 L409 90 Q399 139 389 170.5 Q379 202 362 220.5 Q345 239 318.5 246 Q292 253 250 253 L209 253 L209 0 L81 0 Z M209 357 L248 357 Q324 357 356 389.5 Q388 422 388 473 Q388 531 348.5 558.5 Q309 586 224 586 L209 586 L209 357 Z M385 940 L450 894 L336 734 L246 734 L132 894 L197 940 L291 823 L385 940 Z " />
<glyph glyph-name="rcaron" unicode="&#x159;" horiz-adv-x="390" d="M72 0 L72 507 L183 507 L183 447 Q209 476 253.5 496.5 Q298 517 367 517 L367 406 Q309 406 269 393.5 Q229 381 192 351 L192 0 L72 0 Z M303 758 L368 712 L254 551 L164 551 L50 712 L115 758 L209 641 L303 758 Z " />
<glyph glyph-name="Sacute" unicode="&#x15a;" horiz-adv-x="536" d="M273 700 Q318 700 356.5 687 Q395 674 423.5 649 Q452 624 468.5 587 Q485 550 486 501 L360 486 Q352 543 325.5 566 Q299 589 263 589 Q230 589 206.5 569 Q183 549 183 512 Q183 489 192 472.5 Q201 456 217.5 443.5 Q234 431 257 421.5 Q280 412 307 403 Q356 386 392.5 367 Q429 348 453 324 Q477 300 489 269.5 Q501 239 501 200 Q501 150 482.5 111 Q464 72 432 45 Q400 18 356.5 4 Q313 -10 264 -10 Q209 -10 168.5 4 Q128 18 99.5 43 Q71 68 53.5 102.5 Q36 137 26 178 L147 213 Q151 191 160.5 171 Q170 151 184.5 135.5 Q199 120 220 111 Q241 102 269 102 Q289 102 307.5 107 Q326 112 340 123 Q354 134 362.5 151.5 Q371 169 371 193 Q371 216 361 232.5 Q351 249 332.5 262 Q314 275 289 285 Q264 295 234 304 Q201 314 169 329 Q137 344 111.5 367 Q86 390 70 423 Q54 456 54 501 Q54 543 68 579.5 Q82 616 110 643 Q138 670 178.5 685 Q219 700 273 700 Z M276 734 L202 780 L299 940 L386 885 L276 734 Z " />
<glyph glyph-name="sacute" unicode="&#x15b;" horiz-adv-x="470" d="M240 518 Q286 518 319.5 507.5 Q353 497 375.5 479 Q398 461 411 437 Q424 413 430 386 L323 351 Q312 383 288 401 Q264 419 228 419 Q196 419 177 404 Q158 389 158 365 Q158 336 182 322 Q206 308 267 296 Q306 288 337.5 278 Q369 268 391.5 252 Q414 236 426.5 211.5 Q439 187 439 151 Q439 76 384 33 Q329 -10 229 -10 Q131 -10 84.5 31 Q38 72 26 141 L134 168 Q144 134 167 111 Q190 88 240 88 Q278 88 300.5 103 Q323 118 323 144 Q323 172 299 186 Q275 200 224 208 Q196 212 164 219.5 Q132 227 105 243 Q78 259 60 286 Q42 313 42 358 Q42 432 94.5 475 Q147 518 240 518 Z M245 551 L171 597 L268 758 L355 702 L245 551 Z " />
<glyph glyph-name="Scircumflex" unicode="&#x15c;" horiz-adv-x="536" d="M273 700 Q318 700 356.5 687 Q395 674 423.5 649 Q452 624 468.5 587 Q485 550 486 501 L360 486 Q352 543 325.5 566 Q299 589 263 589 Q230 589 206.5 569 Q183 549 183 512 Q183 489 192 472.5 Q201 456 217.5 443.5 Q234 431 257 421.5 Q280 412 307 403 Q356 386 392.5 367 Q429 348 453 324 Q477 300 489 269.5 Q501 239 501 200 Q501 150 482.5 111 Q464 72 432 45 Q400 18 356.5 4 Q313 -10 264 -10 Q209 -10 168.5 4 Q128 18 99.5 43 Q71 68 53.5 102.5 Q36 137 26 178 L147 213 Q151 191 160.5 171 Q170 151 184.5 135.5 Q199 120 220 111 Q241 102 269 102 Q289 102 307.5 107 Q326 112 340 123 Q354 134 362.5 151.5 Q371 169 371 193 Q371 216 361 232.5 Q351 249 332.5 262 Q314 275 289 285 Q264 295 234 304 Q201 314 169 329 Q137 344 111.5 367 Q86 390 70 423 Q54 456 54 501 Q54 543 68 579.5 Q82 616 110 643 Q138 670 178.5 685 Q219 700 273 700 Z M269 851 L175 734 L110 780 L224 940 L314 940 L428 780 L362 734 L269 851 Z " />
<glyph glyph-name="scircumflex" unicode="&#x15d;" horiz-adv-x="470" d="M240 518 Q286 518 319.5 507.5 Q353 497 375.5 479 Q398 461 411 437 Q424 413 430 386 L323 351 Q312 383 288 401 Q264 419 228 419 Q196 419 177 404 Q158 389 158 365 Q158 336 182 322 Q206 308 267 296 Q306 288 337.5 278 Q369 268 391.5 252 Q414 236 426.5 211.5 Q439 187 439 151 Q439 76 384 33 Q329 -10 229 -10 Q131 -10 84.5 31 Q38 72 26 141 L134 168 Q144 134 167 111 Q190 88 240 88 Q278 88 300.5 103 Q323 118 323 144 Q323 172 299 186 Q275 200 224 208 Q196 212 164 219.5 Q132 227 105 243 Q78 259 60 286 Q42 313 42 358 Q42 432 94.5 475 Q147 518 240 518 Z M238 668 L144 551 L79 597 L193 758 L283 758 L397 597 L331 551 L238 668 Z " />
<glyph glyph-name="Scedilla" unicode="&#x15e;" horiz-adv-x="536" d="M273 700 Q318 700 356.5 687 Q395 674 423.5 649 Q452 624 468.5 587 Q485 550 486 501 L360 486 Q352 543 325.5 566 Q299 589 263 589 Q230 589 206.5 569 Q183 549 183 512 Q183 489 192 472.5 Q201 456 217.5 443.5 Q234 431 257 421.5 Q280 412 307 403 Q356 386 392.5 367 Q429 348 453 324 Q477 300 489 269.5 Q501 239 501 200 Q501 152 484 114.5 Q467 77 437.5 50 Q408 23 367.5 8 Q327 -7 281 -9 L281 -60 Q288 -58 295 -58 Q302 -58 307 -58 Q352 -58 378 -82 Q404 -106 404 -149 Q404 -180 391.5 -201 Q379 -222 358.5 -235 Q338 -248 312 -254 Q286 -260 259 -260 Q219 -260 191.5 -246 Q164 -232 150 -215 L185 -161 Q196 -170 213.5 -182 Q231 -194 265 -194 Q290 -194 307 -185 Q324 -176 324 -153 Q324 -131 309 -121 Q294 -111 268 -111 Q252 -111 239.5 -113 Q227 -115 218 -117 L218 -7 Q175 -1 143 14.5 Q111 30 87.5 54 Q64 78 49.5 109.5 Q35 141 26 178 L147 213 Q151 191 160.5 171 Q170 151 184.5 135.5 Q199 120 220 111 Q241 102 269 102 Q289 102 307.5 107 Q326 112 340 123 Q354 134 362.5 151.5 Q371 169 371 193 Q371 216 361 232.5 Q351 249 332.5 262 Q314 275 289 285 Q264 295 234 304 Q201 314 169 329 Q137 344 111.5 367 Q86 390 70 423 Q54 456 54 501 Q54 543 68 579.5 Q82 616 110 643 Q138 670 178.5 685 Q219 700 273 700 Z " />
<glyph glyph-name="scedilla" unicode="&#x15f;" horiz-adv-x="470" d="M239 518 Q285 518 318.5 507.5 Q352 497 375 479 Q398 461 411 437 Q424 413 429 386 L323 351 Q312 383 288 401 Q264 419 227 419 Q195 419 176.5 404 Q158 389 158 365 Q158 336 181.5 322 Q205 308 267 296 Q306 288 337.5 278 Q369 268 391.5 252 Q414 236 426 211.5 Q438 187 438 151 Q438 82 392 40.5 Q346 -1 261 -8 L261 -60 Q268 -58 275 -58 Q282 -58 287 -58 Q332 -58 358 -82 Q384 -106 384 -149 Q384 -180 371.5 -201 Q359 -222 338 -235 Q317 -248 291 -254 Q265 -260 238 -260 Q199 -260 171.5 -246 Q144 -232 130 -215 L165 -161 Q176 -170 193.5 -182 Q211 -194 245 -194 Q270 -194 287 -185 Q304 -176 304 -153 Q304 -131 289 -121 Q274 -111 248 -111 Q232 -111 219.5 -113 Q207 -115 198 -117 L198 -9 Q115 -2 76 37.5 Q37 77 26 141 L133 168 Q143 134 166.5 111 Q190 88 239 88 Q278 88 300 103 Q322 118 322 144 Q322 172 298.5 186 Q275 200 224 208 Q196 212 164 219.5 Q132 227 105 243 Q78 259 60 286 Q42 313 42 358 Q42 432 94 475 Q146 518 239 518 Z " />
<glyph glyph-name="Scaron" unicode="&#x160;" horiz-adv-x="536" d="M273 700 Q318 700 356.5 687 Q395 674 423.5 649 Q452 624 468.5 587 Q485 550 486 501 L360 486 Q352 543 325.5 566 Q299 589 263 589 Q230 589 206.5 569 Q183 549 183 512 Q183 489 192 472.5 Q201 456 217.5 443.5 Q234 431 257 421.5 Q280 412 307 403 Q356 386 392.5 367 Q429 348 453 324 Q477 300 489 269.5 Q501 239 501 200 Q501 150 482.5 111 Q464 72 432 45 Q400 18 356.5 4 Q313 -10 264 -10 Q209 -10 168.5 4 Q128 18 99.5 43 Q71 68 53.5 102.5 Q36 137 26 178 L147 213 Q151 191 160.5 171 Q170 151 184.5 135.5 Q199 120 220 111 Q241 102 269 102 Q289 102 307.5 107 Q326 112 340 123 Q354 134 362.5 151.5 Q371 169 371 193 Q371 216 361 232.5 Q351 249 332.5 262 Q314 275 289 285 Q264 295 234 304 Q201 314 169 329 Q137 344 111.5 367 Q86 390 70 423 Q54 456 54 501 Q54 543 68 579.5 Q82 616 110 643 Q138 670 178.5 685 Q219 700 273 700 Z M356 940 L421 894 L307 734 L217 734 L103 894 L168 940 L262 823 L356 940 Z " />
<glyph glyph-name="scaron" unicode="&#x161;" horiz-adv-x="470" d="M240 518 Q286 518 319.5 507.5 Q353 497 375.5 479 Q398 461 411 437 Q424 413 430 386 L323 351 Q312 383 288 401 Q264 419 228 419 Q196 419 177 404 Q158 389 158 365 Q158 336 182 322 Q206 308 267 296 Q306 288 337.5 278 Q369 268 391.5 252 Q414 236 426.5 211.5 Q439 187 439 151 Q439 76 384 33 Q329 -10 229 -10 Q131 -10 84.5 31 Q38 72 26 141 L134 168 Q144 134 167 111 Q190 88 240 88 Q278 88 300.5 103 Q323 118 323 144 Q323 172 299 186 Q275 200 224 208 Q196 212 164 219.5 Q132 227 105 243 Q78 259 60 286 Q42 313 42 358 Q42 432 94.5 475 Q147 518 240 518 Z M325 758 L390 712 L276 551 L186 551 L72 712 L137 758 L231 641 L325 758 Z " />
<glyph glyph-name="uni0162" unicode="&#x162;" horiz-adv-x="566" d="M219 0 L219 586 L33 586 L33 690 L533 690 L533 586 L347 586 L347 0 L219 0 Z M224 -60 L342 -60 L299 -235 L205 -234 L224 -60 Z " />
<glyph glyph-name="uni0163" unicode="&#x163;" horiz-adv-x="355" d="M17 507 L91 507 L91 609 L211 633 L211 507 L330 507 L330 419 L211 419 L211 172 Q211 130 229.5 113 Q248 96 295 95 L330 95 L330 0 L273 0 Q221 0 186 10.5 Q151 21 130 42 Q109 63 100 95 Q91 127 91 170 L91 419 L17 419 L17 507 Z M143 -60 L261 -60 L218 -235 L124 -234 L143 -60 Z " />
<glyph glyph-name="Tcaron" unicode="&#x164;" horiz-adv-x="566" d="M219 0 L219 586 L33 586 L33 690 L533 690 L533 586 L347 586 L347 0 L219 0 Z M379 940 L444 894 L330 734 L240 734 L126 894 L191 940 L285 823 L379 940 Z " />
<glyph glyph-name="tcaron" unicode="&#x165;" horiz-adv-x="355" d="M17 507 L91 507 L91 609 L211 633 L211 507 L330 507 L330 419 L211 419 L211 172 Q211 130 229.5 113 Q248 96 295 95 L330 95 L330 0 L273 0 Q221 0 186 10.5 Q151 21 130 42 Q109 63 100 95 Q91 127 91 170 L91 419 L17 419 L17 507 Z M280 740 L390 740 L347 565 L261 566 L280 740 Z " />
<glyph glyph-name="Tbar" unicode="&#x166;" horiz-adv-x="566" d="M219 0 L219 300 L127 300 L127 384 L219 384 L219 586 L33 586 L33 690 L533 690 L533 586 L347 586 L347 384 L439 384 L439 300 L347 300 L347 0 L219 0 Z " />
<glyph glyph-name="tbar" unicode="&#x167;" horiz-adv-x="355" d="M17 507 L91 507 L91 609 L211 633 L211 507 L330 507 L330 419 L211 419 L211 313 L311 313 L311 229 L211 229 L211 172 Q211 130 229.5 113 Q248 96 295 95 L330 95 L330 0 L273 0 Q221 0 186 10.5 Q151 21 130 42 Q109 63 100 95 Q91 127 91 170 L91 229 L33 229 L33 313 L91 313 L91 419 L17 419 L17 507 Z " />
<glyph glyph-name="Utilde" unicode="&#x168;" horiz-adv-x="680" d="M338 -10 Q278 -10 229.5 6.5 Q181 23 146.5 56.5 Q112 90 93.5 140 Q75 190 75 257 L75 690 L203 690 L203 252 Q203 176 240 139 Q277 102 342 102 Q370 102 394.5 111 Q419 120 437.5 138 Q456 156 466.5 183.5 Q477 211 477 249 L477 690 L605 690 L605 260 Q605 196 586.5 145.5 Q568 95 533 60.5 Q498 26 448.5 8 Q399 -10 338 -10 Z M167 812 Q183 848 211 870 Q239 892 268 892 Q289 892 305 885 Q321 878 335.5 869 Q350 860 363.5 853 Q377 846 392 846 Q409 846 422.5 855.5 Q436 865 451 887 L511 836 Q493 799 463.5 774.5 Q434 750 402 750 Q381 750 364 757 Q347 764 333 773 Q319 782 305.5 789 Q292 796 277 796 Q260 796 248.5 786 Q237 776 223 759 L167 812 Z " />
<glyph glyph-name="utilde" unicode="&#x169;" horiz-adv-x="553" d="M225 -10 Q183 -10 153 3.5 Q123 17 104 41 Q85 65 76 97.5 Q67 130 67 169 L67 507 L187 507 L187 192 Q187 141 207 119 Q227 97 260 97 Q297 97 320 112 Q343 127 362 150 L362 507 L482 507 L482 0 L371 0 L371 57 Q348 29 312.5 9.5 Q277 -10 225 -10 Z M104 629 Q120 666 148 687.5 Q176 709 205 709 Q226 709 242 702 Q258 695 272.5 686 Q287 677 300.5 670 Q314 663 329 663 Q346 663 359.5 672.5 Q373 682 388 704 L448 653 Q430 616 400.5 591.5 Q371 567 339 567 Q318 567 301 574 Q284 581 270 590 Q256 599 242.5 606 Q229 613 214 613 Q197 613 185.5 603 Q174 593 160 576 L104 629 Z " />
<glyph glyph-name="Umacron" unicode="&#x16a;" horiz-adv-x="680" d="M338 -10 Q278 -10 229.5 6.5 Q181 23 146.5 56.5 Q112 90 93.5 140 Q75 190 75 257 L75 690 L203 690 L203 252 Q203 176 240 139 Q277 102 342 102 Q370 102 394.5 111 Q419 120 437.5 138 Q456 156 466.5 183.5 Q477 211 477 249 L477 690 L605 690 L605 260 Q605 196 586.5 145.5 Q568 95 533 60.5 Q498 26 448.5 8 Q399 -10 338 -10 Z M201 791 L201 876 L479 876 L479 791 L201 791 Z " />
<glyph glyph-name="umacron" unicode="&#x16b;" horiz-adv-x="553" d="M225 -10 Q183 -10 153 3.5 Q123 17 104 41 Q85 65 76 97.5 Q67 130 67 169 L67 507 L187 507 L187 192 Q187 141 207 119 Q227 97 260 97 Q297 97 320 112 Q343 127 362 150 L362 507 L482 507 L482 0 L371 0 L371 57 Q348 29 312.5 9.5 Q277 -10 225 -10 Z M138 609 L138 693 L416 693 L416 609 L138 609 Z " />
<glyph glyph-name="Ubreve" unicode="&#x16c;" horiz-adv-x="680" d="M338 -10 Q278 -10 229.5 6.5 Q181 23 146.5 56.5 Q112 90 93.5 140 Q75 190 75 257 L75 690 L203 690 L203 252 Q203 176 240 139 Q277 102 342 102 Q370 102 394.5 111 Q419 120 437.5 138 Q456 156 466.5 183.5 Q477 211 477 249 L477 690 L605 690 L605 260 Q605 196 586.5 145.5 Q568 95 533 60.5 Q498 26 448.5 8 Q399 -10 338 -10 Z M340 734 Q274 734 234 781 Q194 828 180 916 L254 936 Q266 881 285.5 851.5 Q305 822 340 822 Q375 822 394 851.5 Q413 881 425 936 L500 916 Q486 828 445.5 781 Q405 734 340 734 Z " />
<glyph glyph-name="ubreve" unicode="&#x16d;" horiz-adv-x="553" d="M225 -10 Q183 -10 153 3.5 Q123 17 104 41 Q85 65 76 97.5 Q67 130 67 169 L67 507 L187 507 L187 192 Q187 141 207 119 Q227 97 260 97 Q297 97 320 112 Q343 127 362 150 L362 507 L482 507 L482 0 L371 0 L371 57 Q348 29 312.5 9.5 Q277 -10 225 -10 Z M277 551 Q211 551 171 598 Q131 645 117 733 L191 753 Q203 698 222.5 668.5 Q242 639 277 639 Q312 639 331 668.5 Q350 698 362 753 L437 733 Q423 645 382.5 598 Q342 551 277 551 Z " />
<glyph glyph-name="Uring" unicode="&#x16e;" horiz-adv-x="680" d="M338 -10 Q278 -10 229.5 6.5 Q181 23 146.5 56.5 Q112 90 93.5 140 Q75 190 75 257 L75 690 L203 690 L203 252 Q203 176 240 139 Q277 102 342 102 Q370 102 394.5 111 Q419 120 437.5 138 Q456 156 466.5 183.5 Q477 211 477 249 L477 690 L605 690 L605 260 Q605 196 586.5 145.5 Q568 95 533 60.5 Q498 26 448.5 8 Q399 -10 338 -10 Z M338 734 Q291 734 264 761.5 Q237 789 237 835 Q237 883 264.5 911 Q292 939 338 939 Q386 939 414 911 Q442 883 442 834 Q442 789 414 761.5 Q386 734 338 734 Z M339 790 Q361 790 373.5 802.5 Q386 815 386 835 Q386 857 373.5 870 Q361 883 339 883 Q319 883 306 870 Q293 857 293 835 Q293 815 306 802.5 Q319 790 339 790 Z " />
<glyph glyph-name="uring" unicode="&#x16f;" horiz-adv-x="553" d="M225 -10 Q183 -10 153 3.5 Q123 17 104 41 Q85 65 76 97.5 Q67 130 67 169 L67 507 L187 507 L187 192 Q187 141 207 119 Q227 97 260 97 Q297 97 320 112 Q343 127 362 150 L362 507 L482 507 L482 0 L371 0 L371 57 Q348 29 312.5 9.5 Q277 -10 225 -10 Z M275 551 Q228 551 201 578.5 Q174 606 174 652 Q174 700 201.5 728 Q229 756 275 756 Q323 756 351 728.5 Q379 701 379 652 Q379 606 351 578.5 Q323 551 275 551 Z M276 607 Q298 607 310.5 620 Q323 633 323 653 Q323 675 310.5 687.5 Q298 700 276 700 Q256 700 243 687.5 Q230 675 230 653 Q230 632 243 619.5 Q256 607 276 607 Z " />
<glyph glyph-name="Uhungarumlaut" unicode="&#x170;" horiz-adv-x="680" d="M338 -10 Q278 -10 229.5 6.5 Q181 23 146.5 56.5 Q112 90 93.5 140 Q75 190 75 257 L75 690 L203 690 L203 252 Q203 176 240 139 Q277 102 342 102 Q370 102 394.5 111 Q419 120 437.5 138 Q456 156 466.5 183.5 Q477 211 477 249 L477 690 L605 690 L605 260 Q605 196 586.5 145.5 Q568 95 533 60.5 Q498 26 448.5 8 Q399 -10 338 -10 Z M266 734 L201 767 L278 940 L357 897 L266 734 Z M417 734 L352 767 L429 940 L508 897 L417 734 Z " />
<glyph glyph-name="uhungarumlaut" unicode="&#x171;" horiz-adv-x="553" d="M225 -10 Q183 -10 153 3.5 Q123 17 104 41 Q85 65 76 97.5 Q67 130 67 169 L67 507 L187 507 L187 192 Q187 141 207 119 Q227 97 260 97 Q297 97 320 112 Q343 127 362 150 L362 507 L482 507 L482 0 L371 0 L371 57 Q348 29 312.5 9.5 Q277 -10 225 -10 Z M203 551 L138 584 L215 758 L294 715 L203 551 Z M354 551 L289 584 L366 758 L445 715 L354 551 Z " />
<glyph glyph-name="Uogonek" unicode="&#x172;" horiz-adv-x="680" d="M338 -10 Q278 -10 229.5 6.5 Q181 23 146.5 56.5 Q112 90 93.5 140 Q75 190 75 257 L75 690 L203 690 L203 252 Q203 176 240 139 Q277 102 342 102 Q370 102 394.5 111 Q419 120 437.5 138 Q456 156 466.5 183.5 Q477 211 477 249 L477 690 L605 690 L605 260 Q605 155 557 88.5 Q509 22 423 0 Q397 -35 380.5 -65.5 Q364 -96 364 -131 Q364 -162 379.5 -178 Q395 -194 417 -194 Q441 -194 458.5 -182.5 Q476 -171 490 -153 L533 -196 Q527 -205 516 -216 Q505 -227 489 -237 Q473 -247 452 -253.5 Q431 -260 405 -260 Q350 -260 317 -231 Q284 -202 284 -149 Q284 -114 298.5 -81 Q313 -48 342 -10 L338 -10 L338 -10 Z " />
<glyph glyph-name="uogonek" unicode="&#x173;" horiz-adv-x="553" d="M225 -10 Q183 -10 153 3.5 Q123 17 104 41 Q85 65 76 97.5 Q67 130 67 169 L67 507 L187 507 L187 192 Q187 141 207 119 Q227 97 260 97 Q297 97 320 112 Q343 127 362 150 L362 507 L483 507 L483 0 L436 0 Q410 -34 394.5 -65 Q379 -96 379 -131 Q379 -162 394.5 -178 Q410 -194 432 -194 Q456 -194 473.5 -182.5 Q491 -171 505 -153 L548 -196 Q542 -205 531 -216 Q520 -227 504 -237 Q488 -247 467 -253.5 Q446 -260 420 -260 Q365 -260 332 -231 Q299 -202 299 -149 Q299 -111 317.5 -73.5 Q336 -36 371 8 L371 57 Q348 29 312.5 9.5 Q277 -10 225 -10 Z " />
<glyph glyph-name="Wcircumflex" unicode="&#x174;" horiz-adv-x="963" d="M250 0 L32 690 L164 690 L312 176 L441 551 L525 551 L659 184 L806 690 L930 690 L712 0 L617 0 L477 393 L347 0 L250 0 Z M482 851 L388 734 L323 780 L437 940 L527 940 L641 780 L575 734 L482 851 Z " />
<glyph glyph-name="wcircumflex" unicode="&#x175;" horiz-adv-x="766" d="M19 507 L142 507 L244 127 L346 426 L425 426 L530 127 L625 507 L746 507 L595 0 L471 0 L379 262 L292 0 L171 0 L19 507 Z M383 668 L289 551 L224 597 L338 758 L428 758 L542 597 L476 551 L383 668 Z " />
<glyph glyph-name="Ycircumflex" unicode="&#x176;" horiz-adv-x="615" d="M244 0 L244 249 L13 690 L152 690 L313 349 L475 690 L602 690 L372 249 L372 0 L244 0 Z M308 851 L214 734 L149 780 L263 940 L353 940 L467 780 L401 734 L308 851 Z " />
<glyph glyph-name="ycircumflex" unicode="&#x177;" horiz-adv-x="530" d="M211 -15 L21 507 L152 507 L268 125 L387 507 L511 507 L295 -81 Q265 -166 215 -208 Q165 -250 81 -250 L33 -250 L33 -155 L79 -155 Q118 -155 142.5 -139.5 Q167 -124 183 -86 L211 -15 Z M261 668 L167 551 L102 597 L216 758 L306 758 L420 597 L354 551 L261 668 Z " />
<glyph glyph-name="Ydieresis" unicode="&#x178;" horiz-adv-x="615" d="M244 0 L244 249 L13 690 L152 690 L313 349 L475 690 L602 690 L372 249 L372 0 L244 0 Z M221 765 Q194 765 178 781 Q162 797 162 824 Q162 853 178 868.5 Q194 884 221 884 Q250 884 266 868.5 Q282 853 282 824 Q282 797 266 781 Q250 765 221 765 Z M392 765 Q365 765 349 781 Q333 797 333 824 Q333 853 349 868.5 Q365 884 392 884 Q421 884 437 868.5 Q453 853 453 824 Q453 797 437 781 Q421 765 392 765 Z " />
<glyph glyph-name="Zacute" unicode="&#x179;" horiz-adv-x="572" d="M181 104 L529 104 L529 0 L38 0 L38 102 L379 586 L55 586 L55 690 L523 690 L523 586 L181 104 Z M293 734 L219 780 L316 940 L403 885 L293 734 Z " />
<glyph glyph-name="zacute" unicode="&#x17a;" horiz-adv-x="456" d="M166 95 L427 95 L427 0 L29 0 L29 88 L283 412 L47 412 L47 507 L423 507 L423 419 L166 95 Z M235 551 L161 597 L258 758 L345 702 L235 551 Z " />
<glyph glyph-name="Zdotaccent" unicode="&#x17b;" horiz-adv-x="572" d="M181 104 L529 104 L529 0 L38 0 L38 102 L379 586 L55 586 L55 690 L523 690 L523 586 L181 104 Z M213 824 Q213 859 232.5 878.5 Q252 898 285 898 Q319 898 339 878.5 Q359 859 359 824 Q359 792 339 772 Q319 752 285 752 Q252 752 232.5 772 Q213 792 213 824 Z " />
<glyph glyph-name="zdotaccent" unicode="&#x17c;" horiz-adv-x="456" d="M166 95 L427 95 L427 0 L29 0 L29 88 L283 412 L47 412 L47 507 L423 507 L423 419 L166 95 Z M164 641 Q164 676 183.5 695.5 Q203 715 236 715 Q270 715 290 695.5 Q310 676 310 641 Q310 609 290 589 Q270 569 236 569 Q203 569 183.5 589 Q164 609 164 641 Z " />
<glyph glyph-name="Zcaron" unicode="&#x17d;" horiz-adv-x="572" d="M181 104 L529 104 L529 0 L38 0 L38 102 L379 586 L55 586 L55 690 L523 690 L523 586 L181 104 Z M373 940 L438 894 L324 734 L234 734 L120 894 L185 940 L279 823 L373 940 Z " />
<glyph glyph-name="zcaron" unicode="&#x17e;" horiz-adv-x="456" d="M166 95 L427 95 L427 0 L29 0 L29 88 L283 412 L47 412 L47 507 L423 507 L423 419 L166 95 Z M335 758 L400 712 L286 551 L196 551 L82 712 L147 758 L241 641 L335 758 Z " />
<glyph glyph-name="florin" unicode="&#x192;" horiz-adv-x="416" d="M73 467 L148 467 L148 562 Q148 605 156.5 637 Q165 669 186 690.5 Q207 712 242.5 723 Q278 734 332 734 L409 734 L410 645 L354 645 Q306 645 287 625 Q268 605 268 559 L268 466 L400 466 L399 378 L268 378 L268 171 Q268 128 259.5 95.5 Q251 63 230 41.5 Q209 20 174 9.5 Q139 -1 85 -1 L8 -2 L7 87 L63 87 Q111 88 129.5 107.5 Q148 127 148 174 L148 378 L74 378 L73 467 Z " />
<glyph glyph-name="uni0218" unicode="&#x218;" horiz-adv-x="536" d="M273 700 Q318 700 356.5 687 Q395 674 423.5 649 Q452 624 468.5 587 Q485 550 486 501 L360 486 Q352 543 325.5 566 Q299 589 263 589 Q230 589 206.5 569 Q183 549 183 512 Q183 489 192 472.5 Q201 456 217.5 443.5 Q234 431 257 421.5 Q280 412 307 403 Q356 386 392.5 367 Q429 348 453 324 Q477 300 489 269.5 Q501 239 501 200 Q501 150 482.5 111 Q464 72 432 45 Q400 18 356.5 4 Q313 -10 264 -10 Q209 -10 168.5 4 Q128 18 99.5 43 Q71 68 53.5 102.5 Q36 137 26 178 L147 213 Q151 191 160.5 171 Q170 151 184.5 135.5 Q199 120 220 111 Q241 102 269 102 Q289 102 307.5 107 Q326 112 340 123 Q354 134 362.5 151.5 Q371 169 371 193 Q371 216 361 232.5 Q351 249 332.5 262 Q314 275 289 285 Q264 295 234 304 Q201 314 169 329 Q137 344 111.5 367 Q86 390 70 423 Q54 456 54 501 Q54 543 68 579.5 Q82 616 110 643 Q138 670 178.5 685 Q219 700 273 700 Z M210 -60 L328 -60 L285 -235 L191 -234 L210 -60 Z " />
<glyph glyph-name="uni0219" unicode="&#x219;" horiz-adv-x="470" d="M240 518 Q286 518 319.5 507.5 Q353 497 375.5 479 Q398 461 411 437 Q424 413 430 386 L323 351 Q312 383 288 401 Q264 419 228 419 Q196 419 177 404 Q158 389 158 365 Q158 336 182 322 Q206 308 267 296 Q306 288 337.5 278 Q369 268 391.5 252 Q414 236 426.5 211.5 Q439 187 439 151 Q439 76 384 33 Q329 -10 229 -10 Q131 -10 84.5 31 Q38 72 26 141 L134 168 Q144 134 167 111 Q190 88 240 88 Q278 88 300.5 103 Q323 118 323 144 Q323 172 299 186 Q275 200 224 208 Q196 212 164 219.5 Q132 227 105 243 Q78 259 60 286 Q42 313 42 358 Q42 432 94.5 475 Q147 518 240 518 Z M169 -60 L287 -60 L244 -235 L150 -234 L169 -60 Z " />
<glyph glyph-name="uni021A" unicode="&#x21a;" horiz-adv-x="566" d="M219 0 L219 586 L33 586 L33 690 L533 690 L533 586 L347 586 L347 0 L219 0 Z M224 -60 L342 -60 L299 -235 L205 -234 L224 -60 Z " />
<glyph glyph-name="uni021B" unicode="&#x21b;" horiz-adv-x="355" d="M17 507 L91 507 L91 609 L211 633 L211 507 L330 507 L330 419 L211 419 L211 172 Q211 130 229.5 113 Q248 96 295 95 L330 95 L330 0 L273 0 Q221 0 186 10.5 Q151 21 130 42 Q109 63 100 95 Q91 127 91 170 L91 419 L17 419 L17 507 Z M143 -60 L261 -60 L218 -235 L124 -234 L143 -60 Z " />
<glyph glyph-name="dotlessj" unicode="&#x237;" horiz-adv-x="264" d="M-11 -180 L-3 -180 Q38 -180 55 -160.5 Q72 -141 72 -104 L72 507 L192 507 L192 -99 Q192 -187 150 -231 Q108 -275 14 -275 L-12 -275 L-11 -180 Z " />
<glyph glyph-name="circumflex" unicode="&#x2c6;" horiz-adv-x="531" d="M266 668 L172 551 L107 597 L221 758 L311 758 L425 597 L359 551 L266 668 Z " />
<glyph glyph-name="caron" unicode="&#x2c7;" horiz-adv-x="531" d="M353 758 L418 712 L304 551 L214 551 L100 712 L165 758 L259 641 L353 758 Z " />
<glyph glyph-name="breve" unicode="&#x2d8;" horiz-adv-x="531" d="M266 551 Q200 551 160 598 Q120 645 106 733 L180 753 Q192 698 211.5 668.5 Q231 639 266 639 Q301 639 320 668.5 Q339 698 351 753 L426 733 Q412 645 371.5 598 Q331 551 266 551 Z " />
<glyph glyph-name="dotaccent" unicode="&#x2d9;" horiz-adv-x="531" d="M193 641 Q193 676 212.5 695.5 Q232 715 265 715 Q299 715 319 695.5 Q339 676 339 641 Q339 609 319 589 Q299 569 265 569 Q232 569 212.5 589 Q193 609 193 641 Z " />
<glyph glyph-name="ring" unicode="&#x2da;" horiz-adv-x="531" d="M264 551 Q217 551 190 578.5 Q163 606 163 652 Q163 700 190.5 728 Q218 756 264 756 Q312 756 340 728.5 Q368 701 368 652 Q368 606 340 578.5 Q312 551 264 551 Z M265 607 Q287 607 299.5 620 Q312 633 312 653 Q312 675 299.5 687.5 Q287 700 265 700 Q245 700 232 687.5 Q219 675 219 653 Q219 632 232 619.5 Q245 607 265 607 Z " />
<glyph glyph-name="ogonek" unicode="&#x2db;" horiz-adv-x="531" d="M323 86 Q297 52 274 24 Q251 -4 234 -29.5 Q217 -55 207 -79.5 Q197 -104 197 -131 Q197 -162 212.5 -178 Q228 -194 249 -194 Q273 -194 290.5 -182.5 Q308 -171 322 -153 L365 -196 Q359 -205 348 -216 Q337 -227 321 -237 Q305 -247 284 -253.5 Q263 -260 237 -260 Q182 -260 149 -231 Q116 -202 116 -149 Q116 -120 127.5 -91 Q139 -62 160 -30.5 Q181 1 211.5 37 Q242 73 281 117 L323 86 Z " />
<glyph glyph-name="tilde" unicode="&#x2dc;" horiz-adv-x="531" d="M93 629 Q109 666 137 687.5 Q165 709 194 709 Q215 709 231 702 Q247 695 261.5 686 Q276 677 289.5 670 Q303 663 318 663 Q335 663 348.5 672.5 Q362 682 377 704 L437 653 Q419 616 389.5 591.5 Q360 567 328 567 Q307 567 290 574 Q273 581 259 590 Q245 599 231.5 606 Q218 613 203 613 Q186 613 174.5 603 Q163 593 149 576 L93 629 Z " />
<glyph glyph-name="hungarumlaut" unicode="&#x2dd;" horiz-adv-x="531" d="M192 551 L127 584 L204 758 L283 715 L192 551 Z M343 551 L278 584 L355 758 L434 715 L343 551 Z " />
<glyph glyph-name="uni0394" unicode="&#x394;" horiz-adv-x="584" d="M568 0 L16 0 L16 81 L250 690 L334 690 L568 81 L568 0 Z M447 97 L290 538 L136 97 L447 97 Z " />
<glyph glyph-name="uni03A9" unicode="&#x3a9;" horiz-adv-x="749" d="M54 97 L189 97 Q161 113 136.5 136 Q112 159 93.5 190.5 Q75 222 64.5 263.5 Q54 305 54 357 Q54 430 77.5 493 Q101 556 143 602 Q185 648 243.5 674 Q302 700 373 700 Q449 700 508.5 675 Q568 650 609 605 Q650 560 672 496.5 Q694 433 694 357 Q694 305 682.5 264 Q671 223 651.5 191.5 Q632 160 607 136.5 Q582 113 554 97 L694 97 L694 0 L419 0 L419 97 Q448 107 474 126.5 Q500 146 519.5 177 Q539 208 550.5 249.5 Q562 291 562 344 Q562 461 516 523 Q470 585 373 585 Q326 585 291 568 Q256 551 233 519.5 Q210 488 198 444 Q186 400 186 346 Q186 288 197 245.5 Q208 203 227.5 173 Q247 143 275 125 Q303 107 338 97 L338 0 L54 0 L54 97 Z " />
<glyph glyph-name="pi" unicode="&#x3c0;" horiz-adv-x="598" d="M102 0 L102 419 L19 419 L19 507 L582 507 L582 419 L499 419 L499 0 L378 0 L378 419 L222 419 L222 0 L102 0 Z " />
<glyph glyph-name="Wgrave" unicode="&#x1e80;" horiz-adv-x="963" d="M250 0 L32 690 L164 690 L312 176 L441 551 L525 551 L659 184 L806 690 L930 690 L712 0 L617 0 L477 393 L347 0 L250 0 Z M354 885 L441 940 L538 780 L464 734 L354 885 Z " />
<glyph glyph-name="wgrave" unicode="&#x1e81;" horiz-adv-x="766" d="M19 507 L142 507 L244 127 L346 426 L425 426 L530 127 L625 507 L746 507 L595 0 L471 0 L379 262 L292 0 L171 0 L19 507 Z M255 702 L342 758 L439 597 L365 551 L255 702 Z " />
<glyph glyph-name="Wacute" unicode="&#x1e82;" horiz-adv-x="963" d="M250 0 L32 690 L164 690 L312 176 L441 551 L525 551 L659 184 L806 690 L930 690 L712 0 L617 0 L477 393 L347 0 L250 0 Z M489 734 L415 780 L512 940 L599 885 L489 734 Z " />
<glyph glyph-name="wacute" unicode="&#x1e83;" horiz-adv-x="766" d="M19 507 L142 507 L244 127 L346 426 L425 426 L530 127 L625 507 L746 507 L595 0 L471 0 L379 262 L292 0 L171 0 L19 507 Z M390 551 L316 597 L413 758 L500 702 L390 551 Z " />
<glyph glyph-name="Wdieresis" unicode="&#x1e84;" horiz-adv-x="963" d="M250 0 L32 690 L164 690 L312 176 L441 551 L525 551 L659 184 L806 690 L930 690 L712 0 L617 0 L477 393 L347 0 L250 0 Z M395 765 Q368 765 352 781 Q336 797 336 824 Q336 853 352 868.5 Q368 884 395 884 Q424 884 440 868.5 Q456 853 456 824 Q456 797 440 781 Q424 765 395 765 Z M566 765 Q539 765 523 781 Q507 797 507 824 Q507 853 523 868.5 Q539 884 566 884 Q595 884 611 868.5 Q627 853 627 824 Q627 797 611 781 Q595 765 566 765 Z " />
<glyph glyph-name="wdieresis" unicode="&#x1e85;" horiz-adv-x="766" d="M19 507 L142 507 L244 127 L346 426 L425 426 L530 127 L625 507 L746 507 L595 0 L471 0 L379 262 L292 0 L171 0 L19 507 Z M296 582 Q269 582 253 598.5 Q237 615 237 641 Q237 670 253 686 Q269 702 296 702 Q325 702 341 686 Q357 670 357 641 Q357 615 341 598.5 Q325 582 296 582 Z M467 582 Q440 582 424 598.5 Q408 615 408 641 Q408 670 424 686 Q440 702 467 702 Q496 702 512 686 Q528 670 528 641 Q528 615 512 598.5 Q496 582 467 582 Z " />
<glyph glyph-name="Ygrave" unicode="&#x1ef2;" horiz-adv-x="615" d="M244 0 L244 249 L13 690 L152 690 L313 349 L475 690 L602 690 L372 249 L372 0 L244 0 Z M180 885 L267 940 L364 780 L290 734 L180 885 Z " />
<glyph glyph-name="ygrave" unicode="&#x1ef3;" horiz-adv-x="530" d="M211 -15 L21 507 L152 507 L268 125 L387 507 L511 507 L295 -81 Q265 -166 215 -208 Q165 -250 81 -250 L33 -250 L33 -155 L79 -155 Q118 -155 142.5 -139.5 Q167 -124 183 -86 L211 -15 Z M133 702 L220 758 L317 597 L243 551 L133 702 Z " />
<glyph glyph-name="endash" unicode="&#x2013;" horiz-adv-x="486" d="M34 214 L34 303 L451 303 L451 214 L34 214 Z " />
<glyph glyph-name="emdash" unicode="&#x2014;" horiz-adv-x="986" d="M34 214 L34 303 L951 303 L951 214 L34 214 Z " />
<glyph glyph-name="quoteleft" unicode="&#x2018;" horiz-adv-x="212" d="M159 534 L37 534 L81 740 L179 739 L159 534 Z " />
<glyph glyph-name="quoteright" unicode="&#x2019;" horiz-adv-x="212" d="M64 740 L186 740 L141 534 L43 535 L64 740 Z " />
<glyph glyph-name="quotesinglbase" unicode="&#x201a;" horiz-adv-x="212" d="M52 20 L174 20 L129 -186 L31 -185 L52 20 Z " />
<glyph glyph-name="quotedblleft" unicode="&#x201c;" horiz-adv-x="400" d="M347 534 L225 534 L269 740 L367 739 L347 534 Z M159 534 L37 534 L81 740 L179 739 L159 534 Z " />
<glyph glyph-name="quotedblright" unicode="&#x201d;" horiz-adv-x="400" d="M252 740 L374 740 L329 534 L231 535 L252 740 Z M64 740 L186 740 L141 534 L43 535 L64 740 Z " />
<glyph glyph-name="quotedblbase" unicode="&#x201e;" horiz-adv-x="400" d="M240 20 L362 20 L317 -186 L219 -185 L240 20 Z M52 20 L174 20 L129 -186 L31 -185 L52 20 Z " />
<glyph glyph-name="dagger" unicode="&#x2020;" horiz-adv-x="419" d="M25 543 L146 543 L146 700 L261 700 L261 543 L394 543 L394 441 L261 441 L261 0 L146 0 L146 441 L25 442 L25 543 Z " />
<glyph glyph-name="daggerdbl" unicode="&#x2021;" horiz-adv-x="419" d="M25 543 L146 543 L146 700 L261 700 L261 543 L394 543 L394 441 L261 441 L261 258 L394 258 L394 156 L261 156 L261 0 L146 0 L146 156 L25 157 L25 258 L146 258 L146 441 L25 442 L25 543 Z " />
<glyph glyph-name="bullet" unicode="&#x2022;" horiz-adv-x="356" d="M77 342 Q77 363 85 381 Q93 399 107 413 Q121 427 139 435 Q157 443 178 443 Q199 443 217 435 Q235 427 249 413 Q263 399 271 381 Q279 363 279 342 Q279 321 271 303 Q263 285 249 271 Q235 257 217 249 Q199 241 178 241 Q157 241 139 249 Q121 257 107 271 Q93 285 85 303 Q77 321 77 342 Z " />
<glyph glyph-name="ellipsis" unicode="&#x2026;" horiz-adv-x="719" d="M58 57 Q58 91 79 112 Q100 133 134 133 Q168 133 189 112 Q210 91 210 57 Q210 23 189 2 Q168 -19 134 -19 Q100 -19 79 2 Q58 23 58 57 Z M283 57 Q283 91 304 112 Q325 133 359 133 Q393 133 414 112 Q435 91 435 57 Q435 23 414 2 Q393 -19 359 -19 Q325 -19 304 2 Q283 23 283 57 Z M509 57 Q509 91 530 112 Q551 133 585 133 Q619 133 640 112 Q661 91 661 57 Q661 23 640 2 Q619 -19 585 -19 Q551 -19 530 2 Q509 23 509 57 Z " />
<glyph glyph-name="perthousand" unicode="&#x2030;" horiz-adv-x="1215" d="M113 38 L658 708 L722 655 L179 -19 L113 38 Z M217 424 Q245 424 263.5 446.5 Q282 469 282 522 Q282 573 264 596 Q246 619 217 619 Q189 619 170 596.5 Q151 574 151 521 Q151 470 169.5 447 Q188 424 217 424 Z M217 334 Q143 334 97 380.5 Q51 427 51 519 Q51 570 65.5 605.5 Q80 641 103 664 Q126 687 156 697.5 Q186 708 217 708 Q290 708 336 662.5 Q382 617 382 524 Q382 473 367.5 437 Q353 401 330 378 Q307 355 277.5 344.5 Q248 334 217 334 Z M619 71 Q647 71 666 93.5 Q685 116 685 169 Q685 220 666.5 243 Q648 266 619 266 Q591 266 572.5 243.5 Q554 221 554 168 Q554 117 572 94 Q590 71 619 71 Z M619 -19 Q546 -19 500 27 Q454 73 454 166 Q454 217 468 252.5 Q482 288 505.5 311 Q529 334 558.5 344.5 Q588 355 619 355 Q656 355 686.5 343.5 Q717 332 739 309 Q761 286 773 251.5 Q785 217 785 171 Q785 120 770.5 84 Q756 48 733 25 Q710 2 680 -8.5 Q650 -19 619 -19 Z M998 71 Q1026 71 1044.5 93.5 Q1063 116 1063 169 Q1063 220 1045 243 Q1027 266 998 266 Q970 266 951.5 243.5 Q933 221 933 168 Q933 117 951 94 Q969 71 998 71 Z M998 -19 Q925 -19 879 27 Q833 73 833 166 Q833 217 847 252.5 Q861 288 884.5 311 Q908 334 937.5 344.5 Q967 355 998 355 Q1071 355 1117 309.5 Q1163 264 1163 171 Q1163 120 1149 84 Q1135 48 1111.5 25 Q1088 2 1058.5 -8.5 Q1029 -19 998 -19 Z " />
<glyph glyph-name="guilsinglleft" unicode="&#x2039;" horiz-adv-x="350" d="M53 293 L215 454 L284 380 L146 253 L284 127 L215 53 L53 213 L53 293 Z " />
<glyph glyph-name="guilsinglright" unicode="&#x203a;" horiz-adv-x="350" d="M297 213 L135 53 L66 127 L204 253 L66 380 L135 454 L297 293 L297 213 Z " />
<glyph glyph-name="fraction" unicode="&#x2044;" horiz-adv-x="74" d="M-268 38 L277 708 L341 655 L-203 -19 L-268 38 Z " />
<glyph glyph-name="foursuperior" unicode="&#x2074;" horiz-adv-x="348" d="M2 464 L173 704 L264 704 L264 477 L311 477 L311 404 L264 404 L264 340 L177 340 L177 404 L2 404 L2 464 Z M93 477 L177 477 L177 599 L93 477 Z " />
<glyph glyph-name="Euro" unicode="&#x20ac;" horiz-adv-x="650" d="M24 464 L107 464 Q120 524 146 568.5 Q172 613 207 642 Q242 671 284.5 685.5 Q327 700 374 700 Q462 700 524 660.5 Q586 621 607 535 L486 503 Q469 547 440.5 568 Q412 589 374 589 Q325 589 290 559.5 Q255 530 239 464 L399 464 L399 383 L228 383 Q227 374 227 365 Q227 356 227 346 Q227 335 227 324.5 Q227 314 228 304 L399 304 L399 223 L241 223 Q258 157 294 129.5 Q330 102 376 102 Q421 102 454 127.5 Q487 153 499 210 L622 186 Q596 85 529.5 37.5 Q463 -10 376 -10 Q270 -10 199.5 47.5 Q129 105 106 223 L24 223 L24 304 L96 304 Q96 314 95.5 324 Q95 334 95 345 Q95 355 95 364 Q95 373 96 383 L24 383 L24 464 Z " />
<glyph glyph-name="uni2113" unicode="&#x2113;" horiz-adv-x="543" d="M6 175 Q32 187 57 201 Q82 215 106 229 Q109 330 139 416.5 Q169 503 213.5 566 Q258 629 311 664.5 Q364 700 414 700 Q442 700 462 691 Q482 682 495 666.5 Q508 651 514 631 Q520 611 520 589 Q520 539 496 486.5 Q472 434 430.5 382.5 Q389 331 332.5 282.5 Q276 234 212 191 Q218 139 236 115 Q254 91 282 91 Q317 91 346.5 114 Q376 137 411 179 L477 116 Q458 91 435 68 Q412 45 385 28 Q358 11 327 0.5 Q296 -10 261 -10 Q210 -10 169.5 26.5 Q129 63 113 132 Q96 123 79.5 115 Q63 107 46 99 L6 175 Z M387 598 Q367 598 340.5 572 Q314 546 289 504 Q264 462 244 409.5 Q224 357 215 305 Q259 340 295 376 Q331 412 356.5 445.5 Q382 479 395.5 510 Q409 541 409 565 Q409 579 404 588.5 Q399 598 387 598 Z " />
<glyph glyph-name="trademark" unicode="&#x2122;" horiz-adv-x="855" d="M376 342 L376 703 L456 703 L560 528 L659 703 L745 703 L745 342 L659 342 L659 593 L574 443 L541 443 L456 583 L456 342 L376 342 Z M122 342 L122 633 L26 633 L26 703 L308 703 L308 633 L212 633 L212 342 L122 342 Z " />
<glyph glyph-name="Omega" unicode="&#x2126;" horiz-adv-x="749" d="M54 97 L189 97 Q161 113 136.5 136 Q112 159 93.5 190.5 Q75 222 64.5 263.5 Q54 305 54 357 Q54 430 77.5 493 Q101 556 143 602 Q185 648 243.5 674 Q302 700 373 700 Q449 700 508.5 675 Q568 650 609 605 Q650 560 672 496.5 Q694 433 694 357 Q694 305 682.5 264 Q671 223 651.5 191.5 Q632 160 607 136.5 Q582 113 554 97 L694 97 L694 0 L419 0 L419 97 Q448 107 474 126.5 Q500 146 519.5 177 Q539 208 550.5 249.5 Q562 291 562 344 Q562 461 516 523 Q470 585 373 585 Q326 585 291 568 Q256 551 233 519.5 Q210 488 198 444 Q186 400 186 346 Q186 288 197 245.5 Q208 203 227.5 173 Q247 143 275 125 Q303 107 338 97 L338 0 L54 0 L54 97 Z " />
<glyph glyph-name="estimated" unicode="&#x212e;" horiz-adv-x="701" d="M160 257 Q156 257 156 254 L156 104 Q156 95 163 86 Q198 49 246.5 27.5 Q295 6 351 6 Q411 6 461.5 30 Q512 54 548 96 L592 96 Q550 48 487.5 18.5 Q425 -11 350 -11 Q287 -11 231 10.5 Q175 32 133.5 69.5 Q92 107 68 157 Q44 207 44 264 Q44 321 68 371.5 Q92 422 133.5 459.5 Q175 497 231 519 Q287 541 350 541 Q413 541 469 519 Q525 497 566.5 459.5 Q608 422 632 371.5 Q656 321 656 264 L656 257 L160 257 Z M544 427 Q544 438 536 446 Q501 482 453.5 503 Q406 524 351 524 Q296 524 247.5 502.5 Q199 481 164 443 Q156 437 156 424 L156 276 Q156 272 160 272 L541 272 Q544 272 544 276 L544 427 Z " />
<glyph glyph-name="partialdiff" unicode="&#x2202;" horiz-adv-x="529" d="M265 -10 Q211 -10 167 8.5 Q123 27 92 60.5 Q61 94 44 142 Q27 190 27 250 Q27 311 45 360 Q63 409 94.5 444 Q126 479 170 498 Q214 517 265 517 Q297 517 324 511 Q297 563 256.5 600.5 Q216 638 163 667 L207 740 Q273 707 326.5 660.5 Q380 614 418.5 554 Q457 494 478.5 422.5 Q500 351 502 269 L502 257 Q502 196 484 147 Q466 98 434.5 63 Q403 28 359.5 9 Q316 -10 265 -10 Z M265 97 Q314 97 345.5 136 Q377 175 377 254 L377 262 Q375 337 345.5 373.5 Q316 410 265 410 Q215 410 183.5 371 Q152 332 152 253 Q152 174 182 135.5 Q212 97 265 97 Z " />
<glyph glyph-name="Delta" unicode="&#x2206;" horiz-adv-x="584" d="M568 0 L16 0 L16 81 L250 690 L334 690 L568 81 L568 0 Z M447 97 L290 538 L136 97 L447 97 Z " />
<glyph glyph-name="product" unicode="&#x220f;" horiz-adv-x="763" d="M505 -180 L505 586 L257 586 L257 -180 L130 -180 L130 586 L42 586 L42 690 L720 690 L720 586 L633 586 L633 -180 L505 -180 Z " />
<glyph glyph-name="summation" unicode="&#x2211;" horiz-adv-x="607" d="M564 -76 L564 -180 L40 -180 L40 -76 L273 274 L42 586 L42 690 L557 690 L557 586 L177 586 L408 274 L171 -76 L564 -76 Z " />
<glyph glyph-name="minus" unicode="&#x2212;" horiz-adv-x="482" d="M44 376 L437 376 L437 278 L44 278 L44 376 Z " />
<glyph glyph-name="uni2215" unicode="&#x2215;" horiz-adv-x="74" d="M-268 38 L277 708 L341 655 L-203 -19 L-268 38 Z " />
<glyph glyph-name="radical" unicode="&#x221a;" horiz-adv-x="631" d="M615 689 L342 -6 L211 -6 L43 378 L132 419 L276 80 L508 690 L615 689 Z " />
<glyph glyph-name="infinity" unicode="&#x221e;" horiz-adv-x="725" d="M209 124 Q170 124 136.5 138 Q103 152 78 180 Q53 208 38.5 248.5 Q24 289 24 343 Q24 397 37.5 438.5 Q51 480 75 508.5 Q99 537 132 551.5 Q165 566 204 566 Q266 566 304.5 536 Q343 506 362 455 Q382 506 420.5 536 Q459 566 520 566 Q559 566 592 551.5 Q625 537 649 509 Q673 481 686.5 439 Q700 397 700 343 Q700 290 685.5 249 Q671 208 646.5 180 Q622 152 588.5 138 Q555 124 516 124 Q456 124 418 152.5 Q380 181 362 230 Q344 181 306.5 152.5 Q269 124 209 124 Z M217 249 Q254 249 281 272 Q308 295 308 345 Q308 390 285 415.5 Q262 441 217 441 Q180 441 154.5 416.5 Q129 392 129 346 Q129 301 154 275 Q179 249 217 249 Z M510 249 Q548 249 571.5 275 Q595 301 595 346 Q595 393 571 417 Q547 441 509 441 Q465 441 441.5 415.5 Q418 390 418 345 Q418 295 445.5 272 Q473 249 510 249 Z " />
<glyph glyph-name="integral" unicode="&#x222b;" horiz-adv-x="442" d="M20 -121 L76 -121 Q124 -121 142.5 -101 Q161 -81 161 -35 L161 562 Q161 605 169.5 637.5 Q178 670 199 691.5 Q220 713 255.5 723.5 Q291 734 345 734 L422 734 L422 645 L366 645 Q319 645 300 625 Q281 605 281 559 L281 -38 Q281 -81 272.5 -113.5 Q264 -146 243 -167.5 Q222 -189 186.5 -199.5 Q151 -210 98 -210 L20 -210 L20 -121 Z " />
<glyph glyph-name="approxequal" unicode="&#x2248;" horiz-adv-x="482" d="M44 267 Q71 294 95 305 Q119 316 142 316 Q169 316 194 305 Q219 294 243.5 281 Q268 268 293 257 Q318 246 344 245 Q366 244 389 253 Q412 262 437 286 L437 188 Q412 163 389 154.5 Q366 146 344 147 Q318 148 293 159 Q268 170 243.5 183 Q219 196 194 207 Q169 218 142 218 Q119 218 95 207 Q71 196 44 168 L44 267 Z M44 466 Q71 493 95 504 Q119 515 142 515 Q169 515 194 504 Q219 493 243.5 480 Q268 467 293 456 Q318 445 344 444 Q366 443 389 452 Q412 461 437 485 L437 387 Q412 362 389 353.5 Q366 345 344 346 Q318 347 293 358 Q268 369 243.5 382 Q219 395 194 406 Q169 417 142 417 Q119 417 95 406 Q71 395 44 367 L44 466 Z " />
<glyph glyph-name="notequal" unicode="&#x2260;" horiz-adv-x="482" d="M44 476 L282 476 L329 556 L401 516 L377 476 L437 476 L437 378 L319 378 L259 276 L437 276 L437 178 L201 178 L153 97 L82 137 L106 178 L44 178 L44 276 L164 276 L224 378 L44 378 L44 476 Z " />
<glyph glyph-name="lessequal" unicode="&#x2264;" horiz-adv-x="482" d="M39 427 L432 606 L432 491 L158 378 L432 266 L432 151 L39 329 L39 427 Z M39 101 L432 101 L432 3 L39 3 L39 101 Z " />
<glyph glyph-name="greaterequal" unicode="&#x2265;" horiz-adv-x="482" d="M443 329 L50 151 L50 266 L324 378 L50 491 L50 606 L443 427 L443 329 Z M50 101 L443 101 L443 3 L50 3 L50 101 Z " />
<glyph glyph-name="lozenge" unicode="&#x25ca;" horiz-adv-x="515" d="M482 336 L312 -6 L211 -6 L33 336 L33 349 L211 690 L312 690 L482 349 L482 336 Z M262 98 L377 343 L262 586 L137 343 L262 98 Z " />
<glyph glyph-name="heart" unicode="&#x2665;" horiz-adv-x="588" d="M298 435 Q314 464 339.5 482 Q365 500 396 500 Q439 500 467 470.5 Q495 441 495 395 Q495 365 481.5 330 Q468 295 442.5 260 Q417 225 379.5 192.5 Q342 160 294 135 Q246 160 208.5 192.5 Q171 225 145.5 260 Q120 295 106.5 330 Q93 365 93 395 Q93 441 121 470.5 Q149 500 192 500 Q223 500 248.5 482 Q274 464 290 435 L298 435 Z " />
<glyph glyph-name="i.dot" unicode="&#xe166;" horiz-adv-x="264" d="M133 569 Q99 569 79.5 589 Q60 609 60 641 Q60 676 79.5 696 Q99 716 133 716 Q167 716 187 696 Q207 676 207 641 Q207 609 187 589 Q167 569 133 569 Z M72 0 L72 507 L192 507 L192 0 L72 0 Z " />
<glyph glyph-name="commaaccent" unicode="&#xf6c3;" horiz-adv-x="531" d="M197 -60 L315 -60 L272 -235 L178 -234 L197 -60 Z " />
<glyph glyph-name="fi" unicode="&#xfb01;" horiz-adv-x="600" d="M98 0 L98 419 L23 419 L23 507 L98 507 L98 564 Q98 650 138.5 695 Q179 740 281 740 L333 740 L333 645 L307 645 Q260 645 239 627 Q218 609 218 565 L218 507 L528 507 L528 0 L408 0 L408 419 L218 419 L218 0 L98 0 Z M464 569 Q431 569 411.5 589 Q392 609 392 641 Q392 676 411.5 695.5 Q431 715 464 715 Q499 715 518.5 695.5 Q538 676 538 641 Q538 609 518.5 589 Q499 569 464 569 Z " />
<glyph glyph-name="fl" unicode="&#xfb02;" horiz-adv-x="600" d="M408 0 L408 645 L303 645 Q256 645 237 625 Q218 605 218 565 L218 507 L339 507 L339 419 L218 419 L218 0 L98 0 L98 419 L23 419 L23 507 L98 507 L98 564 Q98 653 140 696.5 Q182 740 281 740 L528 740 L528 0 L408 0 Z " />
</font>
</svg>
