<?xml version="1.0" encoding="UTF-8"?>
<svg xmlns="http://www.w3.org/2000/svg" xmlns:xlink="http://www.w3.org/1999/xlink" version="1.2" >
<font id="LeanOSans FY Regular">
<font-face  font-family="LeanOSans FY" units-per-em="1000" ascent="740" descent="-250" font-style="normal" font-weight="400" font-stretch="normal" cap-height="690" x-height="491" underline-position="-75" underline-thickness="50" />
<missing-glyph  horiz-adv-x="605" d="M306 435 Q322 464 347.5 482 Q373 500 404 500 Q447 500 475 470.5 Q503 441 503 395 Q503 365 489.5 330 Q476 295 450.5 260 Q425 225 387.5 192.5 Q350 160 302 135 Q254 160 216.5 192.5 Q179 225 153.5 260 Q128 295 114.5 330 Q101 365 101 395 Q101 441 129 470.5 Q157 500 200 500 Q231 500 256.5 482 Q282 464 298 435 L306 435 Z " />
<glyph glyph-name=".null" d="" />
<glyph glyph-name="&amp;#x0;" d="" />
<glyph glyph-name="&amp;#xd;" unicode="&#xd;" d="" />
<glyph glyph-name="space" unicode="&#x20;" horiz-adv-x="221" d="" />
<glyph glyph-name="exclam" unicode="&#x21;" horiz-adv-x="290" d="M116 193 L112 690 L179 690 L174 193 L116 193 Z M99 32 Q99 52 112 65 Q125 78 145 78 Q166 78 178.5 65 Q191 52 191 32 Q191 11 178.5 -1.5 Q166 -14 145 -14 Q125 -14 112 -1.5 Q99 11 99 32 Z " />
<glyph glyph-name="quotedbl" unicode="&#x22;" horiz-adv-x="327" d="M204 508 L204 690 L264 690 L264 508 L204 508 Z M64 508 L64 690 L124 690 L124 508 L64 508 Z " />
<glyph glyph-name="numbersign" unicode="&#x23;" horiz-adv-x="737" d="M164 528 L277 528 L345 690 L409 690 L341 528 L541 528 L609 690 L674 690 L606 528 L695 528 L695 477 L584 477 L473 213 L573 213 L573 162 L452 162 L384 0 L319 0 L387 162 L187 162 L119 0 L55 0 L123 162 L42 162 L42 213 L144 213 L255 477 L164 477 L164 528 Z M208 213 L408 213 L519 477 L319 477 L208 213 Z " />
<glyph glyph-name="dollar" unicode="&#x24;" horiz-adv-x="522" d="M233 -9 Q146 -3 100 41.5 Q54 86 37 161 L105 181 Q117 123 153.5 88 Q190 53 259 53 Q328 53 368 88.5 Q408 124 408 189 Q408 221 395.5 243 Q383 265 361.5 280.5 Q340 296 310.5 307 Q281 318 247 328 Q208 339 174 353 Q140 367 114.5 389 Q89 411 74 442 Q59 473 59 517 Q59 595 106 642.5 Q153 690 233 698 L233 786 L298 786 L298 698 Q367 689 410.5 645.5 Q454 602 462 522 L391 514 Q385 549 372 572.5 Q359 596 341 610.5 Q323 625 301.5 631.5 Q280 638 256 638 Q232 638 209.5 630.5 Q187 623 169.5 609 Q152 595 141.5 573.5 Q131 552 131 524 Q131 493 141.5 471.5 Q152 450 171.5 434 Q191 418 219.5 406.5 Q248 395 285 385 Q333 370 369.5 353 Q406 336 430.5 314 Q455 292 467.5 262.5 Q480 233 480 194 Q480 109 430.5 56.5 Q381 4 298 -7 L298 -105 L233 -105 L233 -9 Z " />
<glyph glyph-name="percent" unicode="&#x25;" horiz-adv-x="803" d="M100 18 L664 704 L701 674 L138 -14 L100 18 Z M213 390 Q233 390 251.5 397.5 Q270 405 283.5 421 Q297 437 305 462.5 Q313 488 313 523 Q313 590 284 621.5 Q255 653 213 653 Q172 653 142.5 621.5 Q113 590 113 520 Q113 453 141.5 421.5 Q170 390 213 390 Z M213 339 Q179 339 150.5 350 Q122 361 101 383.5 Q80 406 68 439.5 Q56 473 56 519 Q56 568 69.5 603.5 Q83 639 105 661 Q127 683 155 693.5 Q183 704 213 704 Q247 704 275.5 693 Q304 682 325 659.5 Q346 637 358 603.5 Q370 570 370 524 Q370 474 356.5 439 Q343 404 321 382 Q299 360 271 349.5 Q243 339 213 339 Z M590 37 Q610 37 628.5 44.5 Q647 52 660.5 68 Q674 84 682 109.5 Q690 135 690 170 Q690 237 661.5 268.5 Q633 300 590 300 Q549 300 519.5 268.5 Q490 237 490 167 Q490 100 519 68.5 Q548 37 590 37 Z M590 -14 Q556 -14 527.5 -3 Q499 8 478 30.5 Q457 53 445 86.5 Q433 120 433 166 Q433 215 446.5 250.5 Q460 286 482 308 Q504 330 532 340.5 Q560 351 590 351 Q624 351 652.5 340 Q681 329 702 306.5 Q723 284 735 250.5 Q747 217 747 171 Q747 121 733.5 86 Q720 51 698 29 Q676 7 648 -3.5 Q620 -14 590 -14 Z " />
<glyph glyph-name="ampersand" unicode="&#x26;" horiz-adv-x="602" d="M291 -14 Q233 -14 188.5 2 Q144 18 113.5 46.5 Q83 75 67 113.5 Q51 152 51 196 Q51 259 83.5 310 Q116 361 188 388 Q132 410 110 450 Q88 490 88 538 Q88 570 99 600 Q110 630 133 653 Q156 676 191.5 690 Q227 704 276 704 Q365 704 411.5 657.5 Q458 611 458 529 L398 523 Q396 586 363.5 616 Q331 646 274 646 Q244 646 221.5 637 Q199 628 184.5 613 Q170 598 162.5 578 Q155 558 155 536 Q155 488 187.5 454 Q220 420 293 412 L294 368 L294 364 Q247 359 214.5 342.5 Q182 326 162 303 Q142 280 133.5 252 Q125 224 125 196 Q125 166 135.5 138.5 Q146 111 167.5 90 Q189 69 220.5 56.5 Q252 44 294 44 Q333 44 362.5 55.5 Q392 67 412.5 85.5 Q433 104 443 127 Q453 150 453 173 Q453 208 435 231 Q417 254 379 254 Q356 254 339 242 Q322 230 322 207 Q322 193 328.5 181.5 Q335 170 349 163 L315 122 Q264 150 264 205 Q264 240 291.5 266.5 Q319 293 385 309 Q415 316 439.5 322 Q464 328 481.5 335.5 Q499 343 508.5 353 Q518 363 518 378 Q518 409 478 411 L493 457 Q528 457 552 437.5 Q576 418 576 380 Q576 355 564 337.5 Q552 320 533 308 Q514 296 492 289.5 Q470 283 451 280 Q480 268 499.5 244 Q519 220 519 170 Q519 133 503 99.5 Q487 66 457.5 41 Q428 16 386 1 Q344 -14 291 -14 Z " />
<glyph glyph-name="quotesingle" unicode="&#x27;" horiz-adv-x="187" d="M64 508 L64 690 L124 690 L124 508 L64 508 Z " />
<glyph glyph-name="parenleft" unicode="&#x28;" horiz-adv-x="371" d="M148 232 Q148 92 199.5 -24.5 Q251 -141 354 -235 L320 -276 Q202 -182 140 -51.5 Q78 79 78 232 Q78 385 140 515.5 Q202 646 320 740 L354 699 Q251 606 199.5 489 Q148 372 148 232 Z " />
<glyph glyph-name="parenright" unicode="&#x29;" horiz-adv-x="371" d="M224 232 Q224 372 172.5 489 Q121 606 17 699 L52 740 Q170 646 231.5 515.5 Q293 385 293 232 Q293 79 231.5 -51.5 Q170 -182 52 -276 L17 -235 Q121 -141 172.5 -24 Q224 93 224 232 Z " />
<glyph glyph-name="asterisk" unicode="&#x2a;" horiz-adv-x="252" d="M135 638 L229 678 L242 642 L141 620 L208 543 L178 520 L125 609 L73 521 L42 544 L110 620 L11 643 L23 680 L116 638 L107 740 L146 740 L135 638 Z " />
<glyph glyph-name="plus" unicode="&#x2b;" horiz-adv-x="482" d="M57 355 L211 355 L211 517 L271 517 L271 355 L425 355 L425 299 L271 299 L271 137 L211 137 L211 299 L57 299 L57 355 Z " />
<glyph glyph-name="comma" unicode="&#x2c;" horiz-adv-x="242" d="M94 67 L163 67 L128 -130 L72 -129 L94 67 Z " />
<glyph glyph-name="hyphen" unicode="&#x2d;" horiz-adv-x="416" d="M86 227 L86 278 L330 278 L330 227 L86 227 Z " />
<glyph glyph-name="period" unicode="&#x2e;" horiz-adv-x="256" d="M81 33 Q81 54 94 67 Q107 80 128 80 Q149 80 162 67 Q175 54 175 33 Q175 12 162 -1 Q149 -14 128 -14 Q107 -14 94 -1 Q81 12 81 33 Z " />
<glyph glyph-name="slash" unicode="&#x2f;" horiz-adv-x="402" d="M11 0 L321 740 L390 740 L80 0 L11 0 Z " />
<glyph glyph-name="zero" unicode="0" horiz-adv-x="611" d="M306 -10 Q189 -10 124 78 Q59 166 59 345 Q59 436 77 503 Q95 570 127.5 613.5 Q160 657 205 678.5 Q250 700 304 700 Q422 700 487 611.5 Q552 523 552 345 Q552 254 534 187 Q516 120 483.5 76.5 Q451 33 405.5 11.5 Q360 -10 306 -10 Z M306 55 Q387 55 433 123 Q479 191 479 344 Q479 420 466.5 475 Q454 530 431.5 565.5 Q409 601 376.5 618 Q344 635 304 635 Q224 635 178 567 Q132 499 132 346 Q132 194 179 124.5 Q226 55 306 55 Z " />
<glyph glyph-name="one" unicode="1" horiz-adv-x="433" d="M229 0 L229 605 L98 500 L62 549 L241 690 L300 690 L300 0 L229 0 Z " />
<glyph glyph-name="two" unicode="2" horiz-adv-x="570" d="M501 528 Q501 487 490 457.5 Q479 428 453.5 400.5 Q428 373 387 344.5 Q346 316 286 278 Q237 246 207.5 218.5 Q178 191 162.5 165 Q147 139 142 113.5 Q137 88 137 59 L510 59 L510 0 L63 0 L63 41 Q63 83 69.5 118 Q76 153 96 186 Q116 219 151.5 252.5 Q187 286 246 324 Q301 359 336 383.5 Q371 408 391 429 Q411 450 419 471.5 Q427 493 427 522 Q427 545 419 565.5 Q411 586 394.5 601.5 Q378 617 352 626 Q326 635 291 635 Q221 635 182 597.5 Q143 560 132 488 L67 496 Q71 539 86.5 576.5 Q102 614 130 641.5 Q158 669 198.5 684.5 Q239 700 293 700 Q345 700 384 686 Q423 672 449 648.5 Q475 625 488 594 Q501 563 501 528 Z " />
<glyph glyph-name="three" unicode="3" horiz-adv-x="561" d="M251 383 Q296 386 327 396.5 Q358 407 377 424.5 Q396 442 404.5 464.5 Q413 487 413 514 Q413 565 378.5 600 Q344 635 275 635 Q214 635 175.5 601 Q137 567 124 501 L57 516 Q70 599 127 649.5 Q184 700 276 700 Q325 700 364.5 687 Q404 674 431 650.5 Q458 627 472.5 594.5 Q487 562 487 524 Q487 470 458.5 429 Q430 388 376 363 Q444 340 475.5 297 Q507 254 507 195 Q507 147 489.5 109 Q472 71 440.5 44.5 Q409 18 366.5 4 Q324 -10 274 -10 Q176 -10 115.5 36 Q55 82 38 179 L108 197 Q122 129 161 92 Q200 55 275 55 Q313 55 342.5 66 Q372 77 392 95.5 Q412 114 422.5 139.5 Q433 165 433 195 Q433 220 425 244 Q417 268 396.5 287.5 Q376 307 340.5 319 Q305 331 249 332 L251 383 Z " />
<glyph glyph-name="four" unicode="4" horiz-adv-x="596" d="M49 196 L369 696 L430 696 L430 201 L539 201 L539 142 L430 142 L430 0 L362 0 L362 142 L49 142 L49 196 Z M121 201 L362 201 L362 584 L121 201 Z " />
<glyph glyph-name="five" unicode="5" horiz-adv-x="573" d="M275 -10 Q186 -10 124.5 33 Q63 76 44 171 L114 188 Q128 123 170 89 Q212 55 276 55 Q316 55 347 68 Q378 81 398 103.5 Q418 126 428.5 155.5 Q439 185 439 218 Q439 254 427 284 Q415 314 393 336 Q371 358 341 370 Q311 382 274 382 Q239 382 209.5 371 Q180 360 151 337 L96 350 L96 690 L489 690 L489 631 L165 631 L165 415 Q191 429 220.5 437 Q250 445 281 445 Q334 445 377 428.5 Q420 412 450 382 Q480 352 496.5 311 Q513 270 513 221 Q513 171 496 128.5 Q479 86 447.5 55 Q416 24 372 7 Q328 -10 275 -10 Z " />
<glyph glyph-name="six" unicode="6" horiz-adv-x="597" d="M315 52 Q354 52 384 67 Q414 82 434 106.5 Q454 131 464.5 161.5 Q475 192 475 222 Q475 256 464 286 Q453 316 432 338.5 Q411 361 381 374 Q351 387 314 387 Q279 387 249 374.5 Q219 362 197 340 Q175 318 162.5 287.5 Q150 257 150 222 Q150 186 163 154.5 Q176 123 198.5 100.5 Q221 78 251 65 Q281 52 315 52 Z M312 -10 Q262 -10 216.5 7.5 Q171 25 136 65.5 Q101 106 80 171.5 Q59 237 59 332 Q59 433 80 503 Q101 573 137 617 Q173 661 221 680.5 Q269 700 324 700 Q412 700 463 660.5 Q514 621 536 555 L473 530 Q455 581 416 608 Q377 635 318 635 Q278 635 243.5 618.5 Q209 602 183.5 567.5 Q158 533 143 478.5 Q128 424 128 349 Q128 340 128.5 328 Q129 316 131 304 Q138 335 154.5 362 Q171 389 195.5 409 Q220 429 253 440.5 Q286 452 325 452 Q377 452 418.5 434 Q460 416 489 385.5 Q518 355 533.5 314 Q549 273 549 228 Q549 180 533 137 Q517 94 486.5 61.5 Q456 29 412 9.5 Q368 -10 312 -10 Z " />
<glyph glyph-name="seven" unicode="7" horiz-adv-x="523" d="M109 0 L416 631 L42 631 L42 690 L491 690 L491 636 L186 0 L109 0 Z " />
<glyph glyph-name="eight" unicode="8" horiz-adv-x="576" d="M287 -10 Q222 -10 176.5 6.5 Q131 23 102.5 51.5 Q74 80 60.5 116.5 Q47 153 47 194 Q47 263 81.5 308.5 Q116 354 173 377 Q127 397 101.5 434 Q76 471 76 523 Q76 559 89 591 Q102 623 128.5 647.5 Q155 672 194.5 686 Q234 700 287 700 Q339 700 378.5 686.5 Q418 673 445 649.5 Q472 626 486 595 Q500 564 500 528 Q500 474 474.5 436 Q449 398 402 378 Q465 354 497 305 Q529 256 529 193 Q529 147 512 109.5 Q495 72 463.5 45.5 Q432 19 387 4.5 Q342 -10 287 -10 Z M287 53 Q367 53 411 93.5 Q455 134 455 197 Q455 223 446.5 249.5 Q438 276 418.5 297 Q399 318 367 331.5 Q335 345 288 345 Q247 345 216 333.5 Q185 322 164 302.5 Q143 283 132 256.5 Q121 230 121 200 Q121 170 130 143.5 Q139 117 159 97 Q179 77 210.5 65 Q242 53 287 53 Z M288 399 Q358 399 392 433.5 Q426 468 426 521 Q426 543 417.5 564.5 Q409 586 392 602 Q375 618 349 628 Q323 638 288 638 Q253 638 227 628 Q201 618 184 601.5 Q167 585 158.5 563.5 Q150 542 150 518 Q150 494 158 472.5 Q166 451 183 434.5 Q200 418 226 408.5 Q252 399 288 399 Z " />
<glyph glyph-name="nine" unicode="9" horiz-adv-x="586" d="M266 -10 Q181 -10 130.5 24 Q80 58 51 123 L114 149 Q138 100 176 76 Q214 52 271 52 Q312 52 346.5 68.5 Q381 85 405.5 120 Q430 155 444 209 Q458 263 459 338 Q459 349 458 363.5 Q457 378 456 392 Q449 362 433 336 Q417 310 393 291 Q369 272 337 261 Q305 250 267 250 Q216 250 176 267.5 Q136 285 108 314.5 Q80 344 65 383.5 Q50 423 50 468 Q50 515 65.5 557.5 Q81 600 110 631.5 Q139 663 182 681.5 Q225 700 281 700 Q330 700 374.5 682.5 Q419 665 453 625.5 Q487 586 507.5 522.5 Q528 459 528 368 Q528 261 507 188.5 Q486 116 450.5 72 Q415 28 367.5 9 Q320 -10 266 -10 Z M278 314 Q313 314 342 326 Q371 338 392 359.5 Q413 381 425 410 Q437 439 437 473 Q437 507 425 537 Q413 567 392 589.5 Q371 612 341.5 625 Q312 638 277 638 Q240 638 211 624 Q182 610 162.5 586.5 Q143 563 133 533.5 Q123 504 123 473 Q123 440 133.5 411 Q144 382 164.5 360.5 Q185 339 213.5 326.5 Q242 314 278 314 Z " />
<glyph glyph-name="colon" unicode="&#x3a;" horiz-adv-x="256" d="M81 455 Q81 476 94 489 Q107 502 128 502 Q149 502 162 489 Q175 476 175 455 Q175 434 162 421 Q149 408 128 408 Q107 408 94 421 Q81 434 81 455 Z M81 33 Q81 54 94 67 Q107 80 128 80 Q149 80 162 67 Q175 54 175 33 Q175 12 162 -1 Q149 -14 128 -14 Q107 -14 94 -1 Q81 12 81 33 Z " />
<glyph glyph-name="semicolon" unicode="&#x3b;" horiz-adv-x="243" d="M92 67 L161 67 L126 -130 L70 -129 L92 67 Z M80 455 Q80 476 93 489 Q106 502 127 502 Q148 502 161 489 Q174 476 174 455 Q174 434 161 421 Q148 408 127 408 Q106 408 93 421 Q80 434 80 455 Z " />
<glyph glyph-name="less" unicode="&#x3c;" horiz-adv-x="482" d="M44 360 L412 534 L412 469 L106 332 L412 194 L412 129 L44 304 L44 360 Z " />
<glyph glyph-name="equal" unicode="&#x3d;" horiz-adv-x="482" d="M57 256 L425 256 L425 199 L57 199 L57 256 Z M57 455 L425 455 L425 399 L57 399 L57 455 Z " />
<glyph glyph-name="greater" unicode="&#x3e;" horiz-adv-x="482" d="M438 304 L70 129 L70 194 L375 332 L70 469 L70 534 L438 360 L438 304 Z " />
<glyph glyph-name="question" unicode="&#x3f;" horiz-adv-x="535" d="M206 193 Q206 236 210.5 265.5 Q215 295 227.5 317.5 Q240 340 261.5 359.5 Q283 379 316 402 Q358 430 380.5 456.5 Q403 483 403 525 Q403 573 369 605.5 Q335 638 272 638 Q205 638 167 599.5 Q129 561 119 495 L57 510 Q61 549 76.5 584 Q92 619 119.5 644.5 Q147 670 186.5 685 Q226 700 278 700 Q326 700 363 687 Q400 674 425 651.5 Q450 629 463 598.5 Q476 568 476 532 Q476 498 466 472.5 Q456 447 439.5 427 Q423 407 402.5 391.5 Q382 376 360 362 Q332 344 314 328.5 Q296 313 285.5 295 Q275 277 271 253 Q267 229 267 193 L206 193 Z M192 32 Q192 52 204.5 65 Q217 78 238 78 Q259 78 271.5 65 Q284 52 284 32 Q284 11 271.5 -1.5 Q259 -14 238 -14 Q217 -14 204.5 -1.5 Q192 11 192 32 Z " />
<glyph glyph-name="at" unicode="&#x40;" horiz-adv-x="885" d="M406 -10 Q346 -10 309.5 23.5 Q273 57 273 121 Q273 151 283 176 Q293 201 316.5 218 Q340 235 377.5 244.5 Q415 254 469 254 L545 254 L545 268 Q545 333 522 361.5 Q499 390 445 390 Q403 390 371 373.5 Q339 357 313 327 L280 375 Q310 410 353 429 Q396 448 448 448 Q493 448 523.5 436.5 Q554 425 573 403 Q592 381 600 349.5 Q608 318 608 278 L608 122 Q608 87 622.5 64 Q637 41 669 41 Q716 41 744.5 93 Q773 145 773 251 Q773 330 748 390.5 Q723 451 680 492.5 Q637 534 579 555.5 Q521 577 454 577 Q379 577 316.5 550.5 Q254 524 208.5 476 Q163 428 137.5 361 Q112 294 112 212 Q112 130 137 65.5 Q162 1 207.5 -43 Q253 -87 316 -110.5 Q379 -134 455 -134 L455 -195 Q368 -195 293 -168 Q218 -141 163.5 -89.5 Q109 -38 78 38 Q47 114 47 213 Q47 303 75.5 380.5 Q104 458 157.5 515 Q211 572 286 604.5 Q361 637 454 637 Q532 637 602 613 Q672 589 724.5 542 Q777 495 807.5 423.5 Q838 352 838 258 Q838 130 791.5 60 Q745 -10 665 -10 Q618 -10 588 12.5 Q558 35 551 75 Q499 -10 406 -10 Z M423 40 Q463 40 491.5 59 Q520 78 545 123 L545 212 L461 212 Q391 212 364.5 187.5 Q338 163 338 124 Q338 86 360 63 Q382 40 423 40 Z " />
<glyph glyph-name="A" unicode="A" horiz-adv-x="642" d="M35 0 L296 690 L345 690 L607 0 L528 0 L466 172 L169 172 L107 0 L35 0 Z M190 231 L445 231 L319 586 L190 231 Z " />
<glyph glyph-name="B" unicode="B" horiz-adv-x="581" d="M92 0 L92 690 L221 690 Q297 690 349 676 Q401 662 432 638 Q463 614 476.5 581.5 Q490 549 490 512 Q490 459 464 419.5 Q438 380 393 356 Q464 336 496 295 Q528 254 528 197 Q528 152 513 115.5 Q498 79 464 53.5 Q430 28 376 14 Q322 0 243 0 L92 0 Z M455 197 Q455 221 446.5 244 Q438 267 415.5 284.5 Q393 302 352.5 312.5 Q312 323 249 323 L207 323 L207 378 L251 378 Q294 378 325.5 388 Q357 398 377.5 415 Q398 432 407.5 455.5 Q417 479 417 505 Q417 533 407 556.5 Q397 580 372.5 596 Q348 612 307.5 621 Q267 630 206 630 L163 630 L163 59 L241 59 Q354 59 404.5 92.5 Q455 126 455 197 Z " />
<glyph glyph-name="C" unicode="C" horiz-adv-x="667" d="M368 -10 Q298 -10 240.5 15.5 Q183 41 142 88 Q101 135 78.5 201 Q56 267 56 348 Q56 428 80 493 Q104 558 146 604 Q188 650 244 675 Q300 700 364 700 Q464 700 528.5 658.5 Q593 617 624 539 L556 513 Q532 575 479.5 605 Q427 635 362 635 Q312 635 269.5 614.5 Q227 594 196 556.5 Q165 519 147.5 466 Q130 413 130 348 Q130 281 146.5 227 Q163 173 194 134.5 Q225 96 270 75.5 Q315 55 371 55 Q505 55 575 179 L630 138 Q586 65 522.5 27.5 Q459 -10 368 -10 Z " />
<glyph glyph-name="D" unicode="D" horiz-adv-x="687" d="M97 0 L97 690 L257 690 Q348 690 417.5 666 Q487 642 534.5 597.5 Q582 553 606 489 Q630 425 630 345 Q630 269 604.5 205.5 Q579 142 530 96.5 Q481 51 409.5 25.5 Q338 0 247 0 L97 0 Z M244 59 Q319 59 377.5 79.5 Q436 100 475.5 137 Q515 174 536 226.5 Q557 279 557 344 Q557 483 479.5 556.5 Q402 630 256 630 L168 630 L168 59 L244 59 Z " />
<glyph glyph-name="E" unicode="E" horiz-adv-x="537" d="M97 0 L97 690 L485 690 L485 631 L168 631 L168 391 L400 391 L400 332 L168 332 L168 59 L486 59 L486 0 L97 0 Z " />
<glyph glyph-name="F" unicode="F" horiz-adv-x="535" d="M97 0 L97 690 L485 690 L485 631 L168 631 L168 351 L414 351 L414 292 L168 292 L168 0 L97 0 Z " />
<glyph glyph-name="G" unicode="G" horiz-adv-x="735" d="M371 635 Q320 635 275.5 614.5 Q231 594 199 556.5 Q167 519 148.5 466 Q130 413 130 348 Q130 281 147 226.5 Q164 172 196 133 Q228 94 274 73 Q320 52 378 52 Q424 52 466 67.5 Q508 83 540 114.5 Q572 146 591.5 194.5 Q611 243 613 309 L426 309 L426 368 L683 368 L683 331 Q683 256 662 193.5 Q641 131 601.5 85.5 Q562 40 505.5 15 Q449 -10 379 -10 Q306 -10 246.5 15.5 Q187 41 144.5 88 Q102 135 79 201 Q56 267 56 348 Q56 427 81 491.5 Q106 556 149.5 602.5 Q193 649 250.5 674.5 Q308 700 374 700 Q569 700 636 544 L570 513 Q545 575 491 605 Q437 635 371 635 Z " />
<glyph glyph-name="H" unicode="H" horiz-adv-x="717" d="M97 0 L97 690 L168 690 L168 385 L549 385 L549 690 L620 690 L620 0 L549 0 L549 326 L168 326 L168 0 L97 0 Z " />
<glyph glyph-name="I" unicode="I" horiz-adv-x="266" d="M97 0 L97 690 L168 690 L168 0 L97 0 Z " />
<glyph glyph-name="J" unicode="J" horiz-adv-x="272" d="M174 53 Q174 1 163 -33 Q152 -67 130.5 -87.5 Q109 -108 77.5 -116.5 Q46 -125 5 -125 L-15 -125 L-13 -66 L4 -66 Q32 -66 51 -59.5 Q70 -53 81.5 -38 Q93 -23 98 2 Q103 27 103 64 L103 690 L174 690 L174 53 Z " />
<glyph glyph-name="K" unicode="K" horiz-adv-x="621" d="M97 0 L97 690 L168 690 L168 379 L226 379 Q275 379 316 390.5 Q357 402 387 424.5 Q417 447 434 480 Q451 513 451 555 Q451 596 440 626.5 Q429 657 414 679 L478 709 Q496 686 509 648 Q522 610 522 565 Q522 496 487 441.5 Q452 387 374 356 Q413 347 441.5 331 Q470 315 490 288.5 Q510 262 522.5 223.5 Q535 185 541 133 Q543 107 545.5 87.5 Q548 68 550.5 52.5 Q553 37 556 24.5 Q559 12 563 0 L490 0 Q485 22 480.5 50.5 Q476 79 470 130 Q462 190 446.5 227 Q431 264 404 284.5 Q377 305 337.5 312.5 Q298 320 243 320 L168 320 L168 0 L97 0 Z " />
<glyph glyph-name="L" unicode="L" horiz-adv-x="537" d="M492 59 L492 0 L97 0 L97 690 L168 690 L168 59 L492 59 Z " />
<glyph glyph-name="M" unicode="M" horiz-adv-x="787" d="M97 0 L97 690 L164 690 L394 298 L618 690 L690 690 L690 0 L618 0 L618 573 L412 213 L373 213 L164 570 L164 0 L97 0 Z " />
<glyph glyph-name="N" unicode="N" horiz-adv-x="715" d="M164 574 L164 0 L97 0 L97 690 L164 690 L551 115 L551 690 L617 690 L617 0 L551 0 L164 574 Z " />
<glyph glyph-name="O" unicode="O" horiz-adv-x="767" d="M385 -10 Q310 -10 249 15.5 Q188 41 145 87.5 Q102 134 79 199.5 Q56 265 56 345 Q56 423 80 488 Q104 553 147.5 600 Q191 647 251 673.5 Q311 700 383 700 Q458 700 518.5 674.5 Q579 649 622 602.5 Q665 556 688 490.5 Q711 425 711 345 Q711 267 687 202 Q663 137 619.5 90 Q576 43 516.5 16.5 Q457 -10 385 -10 Z M385 55 Q443 55 489.5 75.5 Q536 96 569 134 Q602 172 620 225.5 Q638 279 638 344 Q638 412 620.5 466 Q603 520 570 557.5 Q537 595 489.5 615 Q442 635 383 635 Q325 635 278 614.5 Q231 594 198 556 Q165 518 147.5 464.5 Q130 411 130 346 Q130 278 147.5 224 Q165 170 198 132.5 Q231 95 278 75 Q325 55 385 55 Z " />
<glyph glyph-name="P" unicode="P" horiz-adv-x="562" d="M168 631 L168 0 L97 0 L97 690 L214 690 Q297 690 353 672.5 Q409 655 443.5 625 Q478 595 493 554.5 Q508 514 508 467 Q508 406 486.5 362.5 Q465 319 427.5 291 Q390 263 340.5 249.5 Q291 236 235 236 L221 236 L221 294 L235 294 Q325 294 380 336 Q435 378 435 467 Q435 504 423 534 Q411 564 384 585.5 Q357 607 313.5 619 Q270 631 207 631 L168 631 Z " />
<glyph glyph-name="Q" unicode="Q" horiz-adv-x="767" d="M385 -10 Q310 -10 249 15.5 Q188 41 145 87.5 Q102 134 79 199.5 Q56 265 56 345 Q56 423 80 488 Q104 553 147.5 600 Q191 647 251 673.5 Q311 700 383 700 Q458 700 518.5 674.5 Q579 649 622 602.5 Q665 556 688 490.5 Q711 425 711 345 Q711 269 688.5 206 Q666 143 624 95 L710 -35 L656 -70 L578 52 Q538 22 489.5 6 Q441 -10 385 -10 Z M130 346 Q130 324 131.5 303.5 Q133 283 137 264 Q153 314 195.5 345 Q238 376 303 376 Q348 376 384.5 362 Q421 348 453.5 320 Q486 292 517.5 250.5 Q549 209 585 155 Q611 192 624.5 239.5 Q638 287 638 344 Q638 412 620.5 466 Q603 520 570 557.5 Q537 595 489.5 615 Q442 635 383 635 Q325 635 278 614.5 Q231 594 198 556 Q165 518 147.5 464.5 Q130 411 130 346 Z M385 55 Q432 55 471 68.5 Q510 82 542 108 Q511 156 483.5 195 Q456 234 428.5 261 Q401 288 370 302.5 Q339 317 302 317 Q251 317 217.5 287 Q184 257 184 202 Q184 173 196.5 148.5 Q209 124 231.5 104.5 Q254 85 285 72.5 Q316 60 353 56 Q356 56 359 55.5 Q362 55 365 55 L385 55 Z " />
<glyph glyph-name="R" unicode="R" horiz-adv-x="581" d="M97 0 L97 690 L217 690 Q294 690 346.5 673.5 Q399 657 431.5 629 Q464 601 478 563.5 Q492 526 492 483 Q492 457 485.5 431.5 Q479 406 464.5 382 Q450 358 428.5 337.5 Q407 317 377 303 Q428 285 458 239.5 Q488 194 501 104 Q506 69 510.5 42.5 Q515 16 519 0 L447 0 L430 97 Q422 151 410 184.5 Q398 218 378 237 Q358 256 327.5 262.5 Q297 269 252 269 L213 269 L213 328 L242 328 Q290 328 323.5 340 Q357 352 378 373 Q399 394 409 421 Q419 448 419 478 Q419 512 408 540.5 Q397 569 371.5 589 Q346 609 305 620 Q264 631 204 631 L168 631 L168 0 L97 0 Z " />
<glyph glyph-name="S" unicode="S" horiz-adv-x="524" d="M262 700 Q343 700 395.5 656.5 Q448 613 456 522 L385 514 Q379 549 367 572.5 Q355 596 337.5 610.5 Q320 625 299 631.5 Q278 638 256 638 Q232 638 210.5 631 Q189 624 172.5 610 Q156 596 146.5 575.5 Q137 555 137 529 Q137 498 147 476.5 Q157 455 176 439.5 Q195 424 222.5 412 Q250 400 285 388 Q331 372 366.5 354 Q402 336 426 312.5 Q450 289 462.5 258.5 Q475 228 475 187 Q475 143 459 106.5 Q443 70 414.5 44 Q386 18 346 4 Q306 -10 257 -10 Q161 -10 111 35.5 Q61 81 43 161 L110 181 Q122 123 157.5 88 Q193 53 259 53 Q325 53 364 88 Q403 123 403 183 Q403 214 391.5 237.5 Q380 261 359 278 Q338 295 309.5 308 Q281 321 247 332 Q210 344 177 358.5 Q144 373 119 394.5 Q94 416 79.5 447 Q65 478 65 523 Q65 563 79 595.5 Q93 628 119 651 Q145 674 181 687 Q217 700 262 700 Z " />
<glyph glyph-name="T" unicode="T" horiz-adv-x="559" d="M244 0 L244 631 L41 631 L41 690 L518 690 L518 631 L315 631 L315 0 L244 0 Z " />
<glyph glyph-name="U" unicode="U" horiz-adv-x="684" d="M339 -10 Q223 -10 156 59 Q89 128 89 267 L89 690 L160 688 L160 268 Q160 158 208 105.5 Q256 53 343 53 Q425 53 474 106 Q523 159 523 265 L523 690 L594 690 L594 268 Q594 134 527.5 62 Q461 -10 339 -10 Z " />
<glyph glyph-name="V" unicode="V" horiz-adv-x="631" d="M601 690 L341 0 L290 0 L29 690 L108 690 L317 110 L529 690 L601 690 Z " />
<glyph glyph-name="W" unicode="W" horiz-adv-x="931" d="M275 0 L39 690 L112 690 L307 98 L437 471 Q417 520 405.5 556 Q394 592 394 619 Q394 662 416 681 Q438 700 466 700 Q495 700 515.5 681.5 Q536 663 536 623 Q536 594 523.5 561 Q511 528 493 482 L631 103 L822 690 L892 690 L660 0 L609 0 L463 397 L327 0 L275 0 Z M465 651 Q442 651 442 622 Q442 608 449.5 586 Q457 564 466 535 Q477 566 482.5 586.5 Q488 607 488 622 Q488 651 465 651 Z " />
<glyph glyph-name="X" unicode="X" horiz-adv-x="624" d="M25 0 L269 364 L52 690 L138 690 L318 421 L498 690 L572 690 L355 364 L599 0 L513 0 L306 309 L103 0 L25 0 Z " />
<glyph glyph-name="Y" unicode="Y" horiz-adv-x="585" d="M257 0 L257 239 L21 690 L100 690 L295 298 L491 690 L564 690 L328 239 L328 0 L257 0 Z " />
<glyph glyph-name="Z" unicode="Z" horiz-adv-x="562" d="M126 59 L514 59 L514 0 L46 0 L46 59 L423 631 L63 631 L63 690 L504 690 L504 630 L126 59 Z " />
<glyph glyph-name="bracketleft" unicode="&#x5b;" horiz-adv-x="371" d="M152 740 L354 740 L354 689 L220 689 L220 -224 L354 -224 L354 -275 L152 -275 L152 740 Z " />
<glyph glyph-name="backslash" unicode="&#x5c;" horiz-adv-x="402" d="M321 0 L11 740 L80 740 L390 0 L321 0 Z " />
<glyph glyph-name="bracketright" unicode="&#x5d;" horiz-adv-x="371" d="M219 -275 L17 -275 L17 -224 L152 -224 L152 689 L17 689 L17 740 L219 740 L219 -275 Z " />
<glyph glyph-name="asciicircum" unicode="&#x5e;" horiz-adv-x="482" d="M54 447 L241 700 L428 447 L385 413 L241 611 L97 413 L54 447 Z " />
<glyph glyph-name="underscore" unicode="&#x5f;" horiz-adv-x="465" d="M31 0 L433 0 L433 -52 L31 -52 L31 0 Z " />
<glyph glyph-name="grave" unicode="&#x60;" horiz-adv-x="530" d="M160 702 L210 734 L310 577 L268 551 L160 702 Z " />
<glyph glyph-name="a" unicode="a" horiz-adv-x="521" d="M199 -10 Q134 -10 95 26 Q56 62 56 131 Q56 163 67.5 190 Q79 217 105.5 236.5 Q132 256 175 267 Q218 278 281 278 L368 278 L368 315 Q368 381 341 411 Q314 441 249 441 Q201 441 165.5 423.5 Q130 406 99 375 L63 426 Q100 463 147.5 482 Q195 501 256 501 Q307 501 341.5 489 Q376 477 396.5 454.5 Q417 432 426 399.5 Q435 367 435 326 L435 0 L372 0 L372 77 Q341 33 298.5 11.5 Q256 -10 199 -10 Z M216 43 Q267 43 301.5 63.5 Q336 84 368 130 L368 230 L273 230 Q231 230 203 223 Q175 216 158 203.5 Q141 191 133.5 173.5 Q126 156 126 136 Q126 93 149.5 68 Q173 43 216 43 Z " />
<glyph glyph-name="b" unicode="b" horiz-adv-x="564" d="M88 740 L155 740 L155 438 Q181 467 216.5 484 Q252 501 298 501 Q348 501 387 483.5 Q426 466 453 433.5 Q480 401 494.5 355 Q509 309 509 251 Q509 192 493 144 Q477 96 447.5 61.5 Q418 27 377.5 8.5 Q337 -10 289 -10 Q241 -10 207 6.5 Q173 23 147 54 L147 0 L88 0 L88 740 Z M284 441 Q246 441 212 424 Q178 407 155 375 L155 112 Q199 51 279 51 Q354 51 396.5 103 Q439 155 439 250 Q439 342 397.5 391.5 Q356 441 284 441 Z " />
<glyph glyph-name="c" unicode="c" horiz-adv-x="498" d="M457 99 Q428 48 382.5 19 Q337 -10 268 -10 Q217 -10 177 8 Q137 26 109 59 Q81 92 66 139 Q51 186 51 243 Q51 301 67 348.5 Q83 396 112.5 430 Q142 464 183 482.5 Q224 501 275 501 Q349 501 395.5 468 Q442 435 461 372 L399 351 Q382 394 352.5 417.5 Q323 441 275 441 Q206 441 163 390 Q120 339 120 245 Q120 151 161 101 Q202 51 271 51 Q320 51 349.5 72 Q379 93 402 131 L457 99 Z " />
<glyph glyph-name="d" unicode="d" horiz-adv-x="569" d="M272 -10 Q219 -10 178.5 8.5 Q138 27 110.5 61 Q83 95 69 142.5 Q55 190 55 248 Q55 305 71 351.5 Q87 398 116.5 431.5 Q146 465 186.5 483 Q227 501 275 501 Q320 501 354 486 Q388 471 414 444 L414 740 L481 740 L481 0 L418 0 L418 60 Q392 27 357.5 8.5 Q323 -10 272 -10 Z M285 51 Q369 51 414 123 L414 378 Q391 408 358.5 424.5 Q326 441 285 441 Q212 441 168 391 Q124 341 124 250 Q124 156 165.5 103.5 Q207 51 285 51 Z " />
<glyph glyph-name="e" unicode="e" horiz-adv-x="529" d="M280 -10 Q226 -10 183.5 8 Q141 26 111.5 59 Q82 92 66.5 139 Q51 186 51 243 Q51 301 67 348.5 Q83 396 112.5 430 Q142 464 182.5 482.5 Q223 501 272 501 Q380 501 430.5 433.5 Q481 366 474 250 L119 250 L119 245 Q119 151 162.5 100 Q206 49 280 49 Q326 49 357.5 70.5 Q389 92 412 130 L466 99 Q436 46 391 18 Q346 -10 280 -10 Z M269 443 Q213 443 174 405.5 Q135 368 123 300 L407 300 Q402 368 368.5 405.5 Q335 443 269 443 Z " />
<glyph glyph-name="f" unicode="f" horiz-adv-x="331" d="M33 491 L109 491 L109 590 Q109 667 142.5 703.5 Q176 740 260 740 L310 740 L310 686 L272 686 Q218 686 197 664 Q176 642 176 589 L176 491 L300 491 L300 440 L176 440 L176 0 L109 0 L109 440 L33 440 L33 491 Z " />
<glyph glyph-name="g" unicode="g" horiz-adv-x="526" d="M514 446 Q453 446 410 426 Q437 384 437 330 Q437 295 425.5 263 Q414 231 390 207 Q366 183 329.5 168.5 Q293 154 243 154 Q201 154 166 165 Q142 148 132.5 132 Q123 116 123 102 Q123 64 189 64 L312 64 Q406 64 453 32 Q500 0 500 -72 Q500 -116 477 -150.5 Q454 -185 415 -209.5 Q376 -234 324 -247 Q272 -260 215 -260 Q127 -260 79.5 -225.5 Q32 -191 32 -128 Q32 -75 56.5 -42.5 Q81 -10 121 13 Q60 30 60 86 Q60 138 128 182 Q90 206 71.5 243.5 Q53 281 53 326 Q53 363 65 395 Q77 427 101 450.5 Q125 474 161.5 487.5 Q198 501 247 501 Q290 501 322 490.5 Q354 480 377 462 Q405 479 437.5 490 Q470 501 515 501 L514 446 Z M168 7 Q130 -16 112.5 -44 Q95 -72 95 -108 Q95 -153 129.5 -177 Q164 -201 228 -201 Q273 -201 310.5 -191.5 Q348 -182 374.5 -165.5 Q401 -149 416 -126.5 Q431 -104 431 -78 Q431 -28 397.5 -10.5 Q364 7 304 7 L168 7 Z M245 210 Q280 210 304 220 Q328 230 343 247 Q358 264 364.5 285 Q371 306 371 329 Q371 351 364.5 371.5 Q358 392 343 408.5 Q328 425 304 435 Q280 445 245 445 Q210 445 186 435 Q162 425 147 408.5 Q132 392 125.5 370.5 Q119 349 119 327 Q119 305 125.5 284 Q132 263 147 246.5 Q162 230 186 220 Q210 210 245 210 Z " />
<glyph glyph-name="h" unicode="h" horiz-adv-x="570" d="M88 0 L88 740 L155 740 L155 424 Q182 456 222 478.5 Q262 501 321 501 Q368 501 399.5 489 Q431 477 450.5 454.5 Q470 432 478.5 399.5 Q487 367 487 326 L487 0 L420 0 L420 315 Q420 381 392 411 Q364 441 304 441 Q251 441 217 419 Q183 397 155 364 L155 0 L88 0 Z " />
<glyph glyph-name="i" unicode="i" horiz-adv-x="244" d="M123 591 Q102 591 90.5 603 Q79 615 79 635 Q79 681 123 681 Q169 681 169 635 Q169 615 157 603 Q145 591 123 591 Z M88 0 L88 491 L155 491 L155 0 L88 0 Z " />
<glyph glyph-name="j" unicode="j" horiz-adv-x="244" d="M10 -220 L18 -220 Q57 -220 72.5 -200.5 Q88 -181 88 -139 L88 491 L155 491 L155 -136 Q155 -208 124.5 -241.5 Q94 -275 24 -275 L8 -275 L10 -220 Z M122 591 Q102 591 90 603 Q78 615 78 635 Q78 657 90 669 Q102 681 122 681 Q168 681 168 635 Q168 615 156 603 Q144 591 122 591 Z " />
<glyph glyph-name="k" unicode="k" horiz-adv-x="512" d="M88 0 L88 740 L155 740 L155 0 L88 0 Z M463 0 Q439 0 421.5 3 Q404 6 387.5 15.5 Q371 25 354 42.5 Q337 60 316 89 L184 263 L388 491 L467 491 L262 263 L373 119 Q388 100 399.5 88.5 Q411 77 422 70.5 Q433 64 444.5 61.5 Q456 59 470 59 L479 59 L479 0 L463 0 Z " />
<glyph glyph-name="l" unicode="l" horiz-adv-x="244" d="M88 0 L88 740 L155 740 L155 0 L88 0 Z " />
<glyph glyph-name="m" unicode="m" horiz-adv-x="862" d="M779 0 L712 0 L712 315 Q712 381 686 411 Q660 441 606 441 Q556 441 523.5 418.5 Q491 396 465 363 Q466 354 466.5 345 Q467 336 467 326 L467 0 L400 0 L400 315 Q400 381 374.5 411 Q349 441 294 441 Q245 441 213 419 Q181 397 155 365 L155 0 L88 0 L88 491 L151 491 L151 420 Q177 452 215.5 476.5 Q254 501 311 501 Q373 501 407 477.5 Q441 454 455 411 Q482 447 522 474 Q562 501 623 501 Q667 501 697 489 Q727 477 745 454.5 Q763 432 771 399.5 Q779 367 779 326 L779 0 Z " />
<glyph glyph-name="n" unicode="n" horiz-adv-x="570" d="M88 0 L88 491 L151 491 L151 419 Q179 452 219.5 476.5 Q260 501 321 501 Q368 501 399.5 489 Q431 477 450.5 454.5 Q470 432 478.5 399.5 Q487 367 487 326 L487 0 L420 0 L420 315 Q420 381 392 411 Q364 441 304 441 Q251 441 217 419 Q183 397 155 364 L155 0 L88 0 Z " />
<glyph glyph-name="o" unicode="o" horiz-adv-x="563" d="M282 -10 Q228 -10 185.5 8 Q143 26 113 59 Q83 92 67 139 Q51 186 51 243 Q51 301 68 348.5 Q85 396 116 430 Q147 464 189.5 482.5 Q232 501 282 501 Q335 501 377.5 483 Q420 465 450 432 Q480 399 496 352.5 Q512 306 512 249 Q512 190 495 142.5 Q478 95 447.5 61 Q417 27 374.5 8.5 Q332 -10 282 -10 Z M282 51 Q316 51 345.5 64 Q375 77 397 102.5 Q419 128 431 164 Q443 200 443 247 Q443 341 399 391 Q355 441 282 441 Q248 441 218.5 428 Q189 415 167 389.5 Q145 364 132.5 327.5 Q120 291 120 245 Q120 151 164.5 101 Q209 51 282 51 Z " />
<glyph glyph-name="p" unicode="p" horiz-adv-x="564" d="M88 -250 L88 491 L151 491 L151 432 Q176 464 211 482.5 Q246 501 297 501 Q350 501 389.5 482.5 Q429 464 455.5 430 Q482 396 495.5 348.5 Q509 301 509 243 Q509 186 493 139.5 Q477 93 447.5 59.5 Q418 26 378 8 Q338 -10 290 -10 Q246 -10 213.5 4.5 Q181 19 155 46 L155 -250 L88 -250 Z M283 441 Q199 441 155 369 L155 112 Q199 51 279 51 Q353 51 396.5 100.5 Q440 150 440 242 Q440 336 400.5 388.5 Q361 441 283 441 Z " />
<glyph glyph-name="q" unicode="q" horiz-adv-x="569" d="M414 -250 L414 55 Q389 24 354.5 7 Q320 -10 272 -10 Q219 -10 178.5 8.5 Q138 27 110.5 61 Q83 95 69 142.5 Q55 190 55 248 Q55 306 71.5 352.5 Q88 399 117 432 Q146 465 187 483 Q228 501 277 501 Q319 501 354.5 486 Q390 471 418 445 L418 491 L481 491 L481 -250 L414 -250 Z M285 51 Q369 51 414 123 L414 378 Q391 408 358.5 424.5 Q326 441 285 441 Q212 441 168 391 Q124 341 124 250 Q124 156 165.5 103.5 Q207 51 285 51 Z " />
<glyph glyph-name="r" unicode="r" horiz-adv-x="374" d="M88 0 L88 491 L151 491 L151 418 Q180 452 225 476.5 Q270 501 340 501 L340 438 Q279 438 235.5 418 Q192 398 155 362 L155 0 L88 0 Z " />
<glyph glyph-name="s" unicode="s" horiz-adv-x="456" d="M230 502 Q311 502 351.5 468 Q392 434 402 382 L341 364 Q331 404 299.5 424.5 Q268 445 223 445 Q177 445 147.5 423.5 Q118 402 118 364 Q118 344 124.5 330 Q131 316 146.5 305 Q162 294 187 286 Q212 278 249 271 Q288 263 318 253 Q348 243 369 227 Q390 211 400.5 188.5 Q411 166 411 134 Q411 69 364 29.5 Q317 -10 223 -10 Q137 -10 94 23.5 Q51 57 37 117 L98 133 Q110 93 141 69.5 Q172 46 229 46 Q289 46 317.5 70.5 Q346 95 346 130 Q346 170 316 189.5 Q286 209 226 220 Q188 227 156 237 Q124 247 101 262.5 Q78 278 65.5 301.5 Q53 325 53 360 Q53 426 101 464 Q149 502 230 502 Z " />
<glyph glyph-name="t" unicode="t" horiz-adv-x="335" d="M31 491 L101 491 L101 589 L168 604 L168 491 L301 491 L301 440 L168 440 L168 138 Q168 91 188.5 73.5 Q209 56 260 55 L301 55 L301 0 L248 0 Q207 1 179 8.5 Q151 16 134 32 Q117 48 109 73.5 Q101 99 101 136 L101 440 L31 440 L31 491 Z " />
<glyph glyph-name="u" unicode="u" horiz-adv-x="550" d="M242 -10 Q199 -10 169.5 2 Q140 14 121.5 36.5 Q103 59 94.5 91.5 Q86 124 86 165 L86 491 L153 491 L153 176 Q153 110 178.5 80.5 Q204 51 259 51 Q307 51 339.5 72.5 Q372 94 398 126 L398 491 L465 491 L465 0 L402 0 L402 71 Q376 38 337.5 14 Q299 -10 242 -10 Z " />
<glyph glyph-name="v" unicode="v" horiz-adv-x="496" d="M27 491 L100 491 L251 63 L399 491 L469 491 L288 0 L209 0 L27 491 Z " />
<glyph glyph-name="w" unicode="w" horiz-adv-x="729" d="M32 491 L101 491 L227 70 L343 405 L388 405 L506 71 L629 491 L697 491 L540 0 L473 0 L362 312 L255 0 L188 0 L32 491 Z " />
<glyph glyph-name="x" unicode="x" horiz-adv-x="491" d="M33 0 L206 252 L42 491 L121 491 L252 300 L380 491 L453 491 L284 253 L459 0 L379 0 L240 201 L106 0 L33 0 Z " />
<glyph glyph-name="y" unicode="y" horiz-adv-x="502" d="M224 -8 L38 491 L111 491 L256 73 L400 491 L470 491 L240 -129 Q217 -194 181 -222 Q145 -250 88 -250 L52 -250 L52 -195 L89 -195 Q121 -195 142.5 -180 Q164 -165 178 -130 L224 -8 Z " />
<glyph glyph-name="z" unicode="z" horiz-adv-x="445" d="M113 55 L411 55 L411 0 L34 0 L34 50 L329 437 L54 437 L54 491 L408 491 L408 441 L113 55 Z " />
<glyph glyph-name="braceleft" unicode="&#x7b;" horiz-adv-x="371" d="M325 -275 Q280 -275 250.5 -265 Q221 -255 203 -236 Q185 -217 178 -188.5 Q171 -160 171 -123 L171 140 Q171 177 159 192 Q147 207 114 207 L97 207 L97 257 L114 257 Q147 257 159 272 Q171 287 171 324 L171 588 Q171 625 178 653.5 Q185 682 203 701 Q221 720 250.5 730 Q280 740 325 740 L354 740 L354 689 L323 689 Q295 689 278 681.5 Q261 674 252 660.5 Q243 647 240.5 628 Q238 609 238 586 L238 315 Q238 280 224.5 258.5 Q211 237 176 232 Q211 227 224.5 205.5 Q238 184 238 149 L238 -121 Q238 -144 240.5 -163 Q243 -182 252 -195.5 Q261 -209 278 -216.5 Q295 -224 323 -224 L354 -224 L354 -275 L325 -275 Z " />
<glyph glyph-name="bar" unicode="&#x7c;" horiz-adv-x="302" d="M119 -275 L119 740 L183 740 L183 -275 L119 -275 Z " />
<glyph glyph-name="braceright" unicode="&#x7d;" horiz-adv-x="371" d="M17 -224 L48 -224 Q76 -224 93 -216.5 Q110 -209 119 -195.5 Q128 -182 130.5 -163 Q133 -144 133 -121 L133 149 Q133 184 147 205.5 Q161 227 196 232 Q161 237 147 258.5 Q133 280 133 315 L133 586 Q133 609 130.5 628 Q128 647 119 660.5 Q110 674 93 681.5 Q76 689 48 689 L17 689 L17 740 L46 740 Q91 740 121 730 Q151 720 168.5 701 Q186 682 193 653.5 Q200 625 200 588 L200 324 Q200 287 212.5 272 Q225 257 257 257 L275 257 L275 207 L257 207 Q225 207 212.5 192 Q200 177 200 140 L200 -123 Q200 -160 193 -188.5 Q186 -217 168.5 -236 Q151 -255 121 -265 Q91 -275 46 -275 L17 -275 L17 -224 Z " />
<glyph glyph-name="asciitilde" unicode="&#x7e;" horiz-adv-x="482" d="M57 346 Q80 369 102 378.5 Q124 388 146 388 Q170 388 194 378.5 Q218 369 242 358 Q266 347 290 337 Q314 327 339 327 Q359 326 380.5 334.5 Q402 343 425 364 L425 307 Q402 285 380.5 277.5 Q359 270 339 271 Q314 271 290 280.5 Q266 290 242 301.5 Q218 313 194 322 Q170 331 146 331 Q124 331 102 321.5 Q80 312 57 288 L57 346 Z " />
<glyph glyph-name="uni00A0" unicode="&#xa0;" horiz-adv-x="221" d="" />
<glyph glyph-name="exclamdown" unicode="&#xa1;" horiz-adv-x="290" d="M178 -206 L111 -206 L115 290 L174 290 L178 -206 Z M99 452 Q99 472 112 485 Q125 498 145 498 Q166 498 178.5 485 Q191 472 191 452 Q191 431 178.5 418.5 Q166 406 145 406 Q125 406 112 418.5 Q99 431 99 452 Z " />
<glyph glyph-name="cent" unicode="&#xa2;" horiz-adv-x="505" d="M232 -6 Q144 8 95.5 74 Q47 140 47 243 Q47 295 60.5 338.5 Q74 382 98 415 Q122 448 156 469 Q190 490 232 497 L232 594 L297 594 L297 500 Q361 495 404 462 Q447 429 464 372 L402 351 Q384 394 353 417.5 Q322 441 274 441 Q205 441 160.5 389.5 Q116 338 116 245 Q116 151 159 101 Q202 51 276 51 Q321 51 351.5 72 Q382 93 405 131 L460 99 Q433 51 393.5 23.5 Q354 -4 297 -9 L297 -104 L232 -104 L232 -6 Z " />
<glyph glyph-name="sterling" unicode="&#xa3;" horiz-adv-x="582" d="M100 298 L188 298 Q183 326 177 352.5 Q171 379 166 406.5 Q161 434 157.5 463 Q154 492 154 526 Q154 617 201.5 658 Q249 699 340 699 L421 699 L421 637 L345 637 Q281 637 253 611 Q225 585 225 521 Q225 488 228.5 459.5 Q232 431 237 404.5 Q242 378 247.5 352 Q253 326 258 298 L396 298 L396 251 L265 251 Q267 233 268.5 214 Q270 195 270 175 Q270 145 261 122 Q252 99 238.5 82.5 Q225 66 209.5 56 Q194 46 181 42 Q209 40 231 28.5 Q253 17 277.5 4 Q302 -9 332.5 -19.5 Q363 -30 407 -30 Q446 -30 478.5 -14 Q511 2 531 22 L565 -25 Q536 -55 493 -72.5 Q450 -90 406 -90 Q369 -90 341.5 -83.5 Q314 -77 291 -67 Q268 -57 247 -45 Q226 -33 202.5 -23 Q179 -13 150.5 -6.5 Q122 0 84 0 L46 0 L47 55 L84 55 Q105 55 126 61.5 Q147 68 163 83 Q179 98 189 121.5 Q199 145 199 179 Q199 199 198 216.5 Q197 234 195 251 L100 251 L100 298 Z " />
<glyph glyph-name="currency" unicode="&#xa4;" horiz-adv-x="482" d="M309 218 Q280 200 240 200 Q198 200 169 217 L116 163 L76 203 L131 257 Q114 286 114 327 Q114 367 131 396 L77 451 L117 491 L171 437 Q185 445 202.5 450 Q220 455 240 455 Q282 455 311 437 L365 492 L405 452 L350 398 Q366 368 366 330 Q366 289 348 259 L405 203 L365 163 L309 218 Z M240 247 Q273 247 295.5 269 Q318 291 318 329 Q318 367 297 387.5 Q276 408 240 408 Q207 408 184.5 386.5 Q162 365 162 327 Q162 289 183.5 268 Q205 247 240 247 Z " />
<glyph glyph-name="yen" unicode="&#xa5;" horiz-adv-x="616" d="M109 363 L208 363 L37 690 L115 690 L310 297 L507 690 L579 690 L408 363 L518 363 L518 315 L383 315 L344 239 L344 203 L518 203 L518 155 L344 155 L344 0 L273 0 L273 155 L109 155 L109 203 L273 203 L273 239 L233 315 L109 315 L109 363 Z " />
<glyph glyph-name="brokenbar" unicode="&#xa6;" horiz-adv-x="302" d="M119 362 L119 740 L183 740 L183 362 L119 362 Z M119 -275 L119 103 L183 103 L183 -275 L119 -275 Z " />
<glyph glyph-name="section" unicode="&#xa7;" horiz-adv-x="461" d="M224 -10 Q139 -10 95.5 23.5 Q52 57 38 117 L99 133 Q111 93 142 69.5 Q173 46 230 46 Q290 46 319 70.5 Q348 95 348 130 Q348 170 317.5 189.5 Q287 209 228 220 Q189 227 157.5 237 Q126 247 103 262.5 Q80 278 67.5 301.5 Q55 325 55 360 Q55 393 71 418.5 Q87 444 113 461 Q87 478 72.5 502 Q58 526 58 563 Q58 629 106 667 Q154 705 235 705 Q316 705 356.5 671 Q397 637 407 586 L346 567 Q337 607 305 627.5 Q273 648 228 648 Q182 648 152.5 626.5 Q123 605 123 568 Q123 548 129.5 533.5 Q136 519 151.5 508 Q167 497 192 489 Q217 481 254 474 Q293 466 323 456 Q353 446 374 430 Q395 414 405.5 391.5 Q416 369 416 337 Q416 302 400.5 277 Q385 252 357 235 Q384 219 398.5 195 Q413 171 413 134 Q413 69 365.5 29.5 Q318 -10 224 -10 Z M231 423 Q215 426 200.5 429 Q186 432 172 436 Q148 427 134 408.5 Q120 390 120 364 Q120 344 126.5 330 Q133 316 148 305 Q163 294 188 286 Q213 278 250 271 Q263 268 275 265.5 Q287 263 298 259 Q325 270 338 289.5 Q351 309 351 333 Q351 373 321 392.5 Q291 412 231 423 Z " />
<glyph glyph-name="dieresis" unicode="&#xa8;" horiz-adv-x="530" d="M192 598 Q175 598 165 608 Q155 618 155 635 Q155 653 165 663 Q175 673 192 673 Q230 673 230 635 Q230 618 220 608 Q210 598 192 598 Z M337 598 Q320 598 310 608 Q300 618 300 635 Q300 673 337 673 Q374 673 374 635 Q374 618 364 608 Q354 598 337 598 Z " />
<glyph glyph-name="copyright" unicode="&#xa9;" horiz-adv-x="807" d="M403 -11 Q325 -11 257 18.5 Q189 48 138.5 98.5 Q88 149 59.5 217.5 Q31 286 31 364 Q31 442 59.5 510.5 Q88 579 138.5 630 Q189 681 257 710.5 Q325 740 403 740 Q481 740 549 710.5 Q617 681 667 630 Q717 579 746 510.5 Q775 442 775 364 Q775 286 746 217.5 Q717 149 667 98.5 Q617 48 549 18.5 Q481 -11 403 -11 Z M403 23 Q473 23 534.5 50 Q596 77 642 123 Q688 169 714 231 Q740 293 740 364 Q740 434 714 496.5 Q688 559 642 605.5 Q596 652 534.5 679 Q473 706 403 706 Q333 706 271.5 679 Q210 652 164.5 605.5 Q119 559 93 496.5 Q67 434 67 364 Q67 293 93 231 Q119 169 164.5 123 Q210 77 271.5 50 Q333 23 403 23 Z M407 129 Q358 129 319.5 145.5 Q281 162 254 192 Q227 222 213 264.5 Q199 307 199 359 Q199 412 214 455.5 Q229 499 256 530 Q283 561 321 578 Q359 595 405 595 Q473 595 516.5 564.5 Q560 534 578 478 L527 461 Q510 501 480 523 Q450 545 405 545 Q340 545 298 497 Q256 449 256 361 Q256 273 297 226 Q338 179 407 179 Q449 179 478 199 Q507 219 528 254 L574 227 Q547 180 506.5 154.5 Q466 129 407 129 Z " />
<glyph glyph-name="ordfeminine" unicode="&#xaa;" horiz-adv-x="418" d="M160 339 Q114 339 86 364.5 Q58 390 58 440 Q58 463 66.5 482.5 Q75 502 93.5 516 Q112 530 143 538 Q174 546 219 546 L281 546 L281 571 Q281 616 262 635.5 Q243 655 199 655 Q162 655 137 644 Q112 633 89 610 L63 650 Q89 676 123 690 Q157 704 201 704 Q274 704 303.5 670.5 Q333 637 333 579 L333 347 L284 347 L284 401 Q239 339 160 339 Z M173 383 Q208 383 233 398 Q258 413 281 445 L281 509 L214 509 Q156 509 135 491.5 Q114 474 114 445 Q114 416 129 399.5 Q144 383 173 383 Z " />
<glyph glyph-name="guillemotleft" unicode="&#xab;" horiz-adv-x="548" d="M265 264 L425 413 L464 370 L318 241 L465 111 L426 68 L265 217 L265 264 Z M61 264 L221 413 L260 370 L114 241 L261 111 L222 68 L61 217 L61 264 Z " />
<glyph glyph-name="logicalnot" unicode="&#xac;" horiz-adv-x="482" d="M57 455 L425 455 L425 233 L369 233 L369 399 L57 399 L57 455 Z " />
<glyph glyph-name="uni00AD" unicode="&#xad;" horiz-adv-x="424" d="" />
<glyph glyph-name="registered" unicode="&#xae;" horiz-adv-x="696" d="M348 196 Q281 196 223 221 Q165 246 122.5 289.5 Q80 333 55.5 391.5 Q31 450 31 516 Q31 582 55.5 640.5 Q80 699 122.5 742 Q165 785 223 810 Q281 835 348 835 Q414 835 472 810 Q530 785 572.5 742 Q615 699 639.5 640.5 Q664 582 664 516 Q664 450 639.5 391.5 Q615 333 572.5 289.5 Q530 246 472 221 Q414 196 348 196 Z M348 230 Q407 230 458.5 252.5 Q510 275 548 314 Q586 353 608 405 Q630 457 630 516 Q630 575 608 627 Q586 679 548 718 Q510 757 458.5 779.5 Q407 802 348 802 Q289 802 237.5 779.5 Q186 757 148 718 Q110 679 88 627 Q66 575 66 516 Q66 457 88 405 Q110 353 148 314 Q186 275 237.5 252.5 Q289 230 348 230 Z M242 346 L242 701 L312 701 Q352 701 379 693 Q406 685 422.5 670.5 Q439 656 446.5 636.5 Q454 617 454 594 Q454 568 438 542 Q422 516 384 502 Q416 493 433.5 470.5 Q451 448 458 400 Q461 382 463.5 368 Q466 354 468 346 L422 346 L414 396 Q409 422 401.5 438 Q394 454 381.5 462.5 Q369 471 351 474 Q333 477 307 477 L287 477 L287 346 L242 346 Z M287 515 L302 515 Q331 515 351.5 521 Q372 527 384.5 537.5 Q397 548 402.5 561.5 Q408 575 408 590 Q408 624 387 643 Q366 662 305 662 L287 662 L287 515 Z M287 488 L287 483 L289 488 L287 488 Z " />
<glyph glyph-name="macron" unicode="&#xaf;" horiz-adv-x="530" d="M139 619 L139 668 L392 668 L392 619 L139 619 Z " />
<glyph glyph-name="degree" unicode="&#xb0;" horiz-adv-x="332" d="M244 574 Q244 611 222.5 632 Q201 653 166 653 Q133 653 110.5 631.5 Q88 610 88 572 Q88 534 109.5 512.5 Q131 491 166 491 Q199 491 221.5 513.5 Q244 536 244 574 Z M40 572 Q40 629 75 664.5 Q110 700 166 700 Q225 700 258.5 666 Q292 632 292 575 Q292 517 257 481 Q222 445 166 445 Q106 445 73 480 Q40 515 40 572 Z " />
<glyph glyph-name="plusminus" unicode="&#xb1;" horiz-adv-x="482" d="M57 377 L211 377 L211 538 L271 538 L271 377 L425 377 L425 321 L271 321 L271 159 L211 159 L211 321 L57 321 L57 377 Z M57 68 L425 68 L425 12 L57 12 L57 68 Z " />
<glyph glyph-name="twosuperior" unicode="&#xb2;" horiz-adv-x="341" d="M52 591 Q57 639 86 671.5 Q115 704 180 704 Q237 704 264.5 676 Q292 648 292 609 Q292 589 287.5 574 Q283 559 271.5 545 Q260 531 240.5 516.5 Q221 502 190 484 Q162 467 146.5 455.5 Q131 444 122.5 434 Q114 424 111.5 414 Q109 404 108 390 L293 390 L293 347 L52 347 L52 367 Q52 391 55 409.5 Q58 428 68.5 443.5 Q79 459 98.5 475 Q118 491 150 511 Q177 527 194 538.5 Q211 550 220 560 Q229 570 232 579.5 Q235 589 235 601 Q235 624 219.5 638 Q204 652 175 652 Q113 652 105 588 L52 591 L52 591 Z " />
<glyph glyph-name="threesuperior" unicode="&#xb3;" horiz-adv-x="341" d="M163 543 Q207 546 221 561.5 Q235 577 235 601 Q235 623 220.5 638 Q206 653 174 653 Q144 653 126.5 636.5 Q109 620 104 594 L52 603 Q60 651 92 677.5 Q124 704 177 704 Q235 704 263.5 677 Q292 650 292 608 Q292 578 278.5 559.5 Q265 541 240 530 Q302 509 302 448 Q302 396 266 367.5 Q230 339 176 339 Q124 339 87.5 363 Q51 387 43 443 L96 452 Q109 390 174 390 Q209 390 227 407.5 Q245 425 245 452 Q245 463 242 474 Q239 485 230 493.5 Q221 502 204.5 507.5 Q188 513 162 514 L163 543 Z " />
<glyph glyph-name="acute" unicode="&#xb4;" horiz-adv-x="530" d="M268 551 L225 577 L325 734 L376 702 L268 551 Z " />
<glyph glyph-name="mu" unicode="&#xb5;" horiz-adv-x="549" d="M94 491 L161 491 L161 176 Q161 110 187 80.5 Q213 51 267 51 Q315 51 347.5 72.5 Q380 94 406 126 L406 491 L473 491 L473 0 L410 0 L410 71 Q384 38 345.5 14 Q307 -10 250 -10 Q197 -10 161 9 L161 -250 L94 -250 L94 491 Z " />
<glyph glyph-name="paragraph" unicode="&#xb6;" horiz-adv-x="555" d="M267 0 L267 285 Q218 285 178 300 Q138 315 110 342 Q82 369 66.5 408 Q51 447 51 495 Q51 540 65.5 577.5 Q80 615 107.5 642.5 Q135 670 175 685 Q215 700 267 700 L332 700 L332 0 L267 0 Z M383 0 L383 700 L448 700 L448 0 L383 0 Z " />
<glyph glyph-name="periodcentered" unicode="&#xb7;" horiz-adv-x="530" d="M222 326 Q222 347 233 358.5 Q244 370 264 370 Q284 370 296 358.5 Q308 347 308 326 Q308 307 296 295.5 Q284 284 264 284 Q244 284 233 295.5 Q222 307 222 326 Z " />
<glyph glyph-name="cedilla" unicode="&#xb8;" horiz-adv-x="530" d="M263 2 L263 -68 Q276 -65 293 -65 Q334 -65 360 -88.5 Q386 -112 386 -154 Q386 -181 375.5 -201 Q365 -221 347 -234 Q329 -247 306 -253.5 Q283 -260 258 -260 Q220 -260 195 -245.5 Q170 -231 158 -216 L180 -184 Q191 -194 209 -207.5 Q227 -221 261 -221 Q294 -221 316.5 -204.5 Q339 -188 339 -157 Q339 -127 320 -112.5 Q301 -98 273 -98 Q256 -98 245 -100 Q234 -102 225 -104 L225 0 L263 2 Z " />
<glyph glyph-name="onesuperior" unicode="&#xb9;" horiz-adv-x="341" d="M164 700 L213 700 L213 347 L158 347 L158 637 L84 579 L58 616 L164 700 Z " />
<glyph glyph-name="ordmasculine" unicode="&#xba;" horiz-adv-x="418" d="M210 339 Q135 339 91 388 Q47 437 47 519 Q47 561 59 595 Q71 629 93 653 Q115 677 144.5 690.5 Q174 704 210 704 Q285 704 328 655 Q371 606 371 524 Q371 482 359 448 Q347 414 325.5 390 Q304 366 274.5 352.5 Q245 339 210 339 Z M210 392 Q255 392 285 426 Q315 460 315 522 Q315 584 286.5 617.5 Q258 651 210 651 Q165 651 134 617 Q103 583 103 520 Q103 458 132.5 425 Q162 392 210 392 Z " />
<glyph glyph-name="guillemotright" unicode="&#xbb;" horiz-adv-x="548" d="M486 217 L326 68 L287 111 L433 241 L287 370 L326 413 L486 264 L486 217 Z M282 217 L122 68 L83 111 L229 241 L83 370 L122 413 L282 264 L282 217 Z " />
<glyph glyph-name="onequarter" unicode="&#xbc;" horiz-adv-x="756" d="M96 18 L659 704 L697 674 L133 -14 L96 18 Z M164 700 L213 700 L213 347 L158 347 L158 637 L84 579 L58 616 L164 700 Z M430 108 L606 360 L657 360 L657 115 L712 115 L712 72 L657 72 L657 4 L607 4 L607 72 L430 72 L430 108 Z M485 115 L607 115 L607 296 L485 115 Z " />
<glyph glyph-name="onehalf" unicode="&#xbd;" horiz-adv-x="756" d="M82 18 L645 704 L683 674 L119 -14 L82 18 Z M164 700 L213 700 L213 347 L158 347 L158 637 L84 579 L58 616 L164 700 Z M466 248 Q471 296 500 328.5 Q529 361 594 361 Q651 361 678.5 333 Q706 305 706 266 Q706 246 701.5 231 Q697 216 685.5 202 Q674 188 654.5 173.5 Q635 159 604 141 Q576 124 560.5 112.5 Q545 101 536.5 91 Q528 81 525.5 71 Q523 61 522 47 L707 47 L707 4 L466 4 L466 24 Q466 48 469 66.5 Q472 85 482.5 100.5 Q493 116 512.5 132 Q532 148 564 168 Q591 184 608 195.5 Q625 207 634 217 Q643 227 646 236.5 Q649 246 649 258 Q649 281 633.5 295 Q618 309 589 309 Q527 309 519 245 L466 248 L466 248 Z " />
<glyph glyph-name="threequarters" unicode="&#xbe;" horiz-adv-x="756" d="M97 18 L660 704 L698 674 L134 -14 L97 18 Z M430 108 L606 360 L657 360 L657 115 L712 115 L712 72 L657 72 L657 4 L607 4 L607 72 L430 72 L430 108 Z M485 115 L607 115 L607 296 L485 115 Z M163 543 Q207 546 221 561.5 Q235 577 235 601 Q235 623 220.5 638 Q206 653 174 653 Q144 653 126.5 636.5 Q109 620 104 594 L52 603 Q60 651 92 677.5 Q124 704 177 704 Q235 704 263.5 677 Q292 650 292 608 Q292 578 278.5 559.5 Q265 541 240 530 Q302 509 302 448 Q302 396 266 367.5 Q230 339 176 339 Q124 339 87.5 363 Q51 387 43 443 L96 452 Q109 390 174 390 Q209 390 227 407.5 Q245 425 245 452 Q245 463 242 474 Q239 485 230 493.5 Q221 502 204.5 507.5 Q188 513 162 514 L163 543 Z " />
<glyph glyph-name="questiondown" unicode="&#xbf;" horiz-adv-x="535" d="M328 290 Q328 247 323.5 217.5 Q319 188 306.5 165.5 Q294 143 272.5 123.5 Q251 104 218 82 Q176 54 153.5 27 Q131 0 131 -42 Q131 -90 165 -122 Q199 -154 262 -154 Q329 -154 367 -116 Q405 -78 415 -11 L477 -27 Q473 -66 457.5 -101 Q442 -136 414.5 -161.5 Q387 -187 347.5 -202 Q308 -217 256 -217 Q208 -217 171 -204 Q134 -191 109 -168.5 Q84 -146 71 -115.5 Q58 -85 58 -49 Q58 -15 68 10.5 Q78 36 94.5 56 Q111 76 131.5 91.5 Q152 107 174 121 Q202 139 220 154.5 Q238 170 248.5 188 Q259 206 263 230 Q267 254 267 290 L328 290 Z M250 451 Q250 472 262.5 484.5 Q275 497 296 497 Q316 497 329 484.5 Q342 472 342 451 Q342 431 329 418 Q316 405 296 405 Q275 405 262.5 418 Q250 431 250 451 Z " />
<glyph glyph-name="Agrave" unicode="&#xc0;" horiz-adv-x="642" d="M35 0 L296 690 L345 690 L607 0 L528 0 L466 172 L169 172 L107 0 L35 0 Z M190 231 L445 231 L319 586 L190 231 Z M216 901 L266 933 L366 776 L324 750 L216 901 Z " />
<glyph glyph-name="Aacute" unicode="&#xc1;" horiz-adv-x="642" d="M35 0 L296 690 L345 690 L607 0 L528 0 L466 172 L169 172 L107 0 L35 0 Z M190 231 L445 231 L319 586 L190 231 Z M324 750 L281 776 L381 933 L432 901 L324 750 Z " />
<glyph glyph-name="Acircumflex" unicode="&#xc2;" horiz-adv-x="642" d="M35 0 L296 690 L345 690 L607 0 L528 0 L466 172 L169 172 L107 0 L35 0 Z M190 231 L445 231 L319 586 L190 231 Z M321 877 L225 750 L187 776 L296 933 L346 933 L455 776 L417 750 L321 877 Z " />
<glyph glyph-name="Atilde" unicode="&#xc3;" horiz-adv-x="642" d="M35 0 L296 690 L345 690 L607 0 L528 0 L466 172 L169 172 L107 0 L35 0 Z M190 231 L445 231 L319 586 L190 231 Z M175 826 Q189 853 210 870 Q231 887 255 887 Q273 887 289 879 Q305 871 319.5 861.5 Q334 852 348 844 Q362 836 377 836 Q406 836 431 876 L467 846 Q451 818 428.5 800 Q406 782 382 782 Q362 782 346.5 790 Q331 798 317 807.5 Q303 817 289 825 Q275 833 260 833 Q243 833 232 823 Q221 813 207 796 L175 826 Z " />
<glyph glyph-name="Adieresis" unicode="&#xc4;" horiz-adv-x="642" d="M35 0 L296 690 L345 690 L607 0 L528 0 L466 172 L169 172 L107 0 L35 0 Z M190 231 L445 231 L319 586 L190 231 Z M248 797 Q231 797 221 807 Q211 817 211 834 Q211 852 221 861.5 Q231 871 248 871 Q286 871 286 834 Q286 797 248 797 Z M393 797 Q356 797 356 834 Q356 871 393 871 Q430 871 430 834 Q430 797 393 797 Z " />
<glyph glyph-name="Aring" unicode="&#xc5;" horiz-adv-x="642" d="M35 0 L296 690 L345 690 L607 0 L528 0 L466 172 L169 172 L107 0 L35 0 Z M190 231 L445 231 L319 586 L190 231 Z M320 750 Q278 750 254.5 774 Q231 798 231 839 Q231 881 255.5 905.5 Q280 930 320 930 Q362 930 386.5 905.5 Q411 881 411 839 Q411 799 386 774.5 Q361 750 320 750 Z M320 783 Q346 783 361 798.5 Q376 814 376 840 Q376 866 361 881 Q346 896 320 896 Q295 896 280 880.5 Q265 865 265 839 Q265 814 280 798.5 Q295 783 320 783 Z " />
<glyph glyph-name="AE" unicode="&#xc6;" horiz-adv-x="902" d="M6 0 L427 690 L841 690 L841 631 L524 631 L524 391 L756 391 L756 332 L524 332 L524 59 L842 59 L842 0 L453 0 L453 185 L193 185 L83 0 L6 0 Z M453 244 L453 620 L228 244 L453 244 Z " />
<glyph glyph-name="Ccedilla" unicode="&#xc7;" horiz-adv-x="667" d="M368 -10 Q364 -10 361 -9.5 Q358 -9 355 -9 L355 -68 Q368 -65 385 -65 Q426 -65 452 -88.5 Q478 -112 478 -154 Q478 -181 467.5 -201 Q457 -221 439 -234 Q421 -247 398 -253.5 Q375 -260 350 -260 Q312 -260 287 -245.5 Q262 -231 250 -216 L272 -184 Q283 -194 301 -207.5 Q319 -221 353 -221 Q386 -221 408.5 -204.5 Q431 -188 431 -157 Q431 -127 412 -112.5 Q393 -98 365 -98 Q348 -98 337 -100 Q326 -102 317 -104 L317 -6 Q258 3 209.5 31.5 Q161 60 127 106 Q93 152 74.5 213 Q56 274 56 348 Q56 428 80 493 Q104 558 146 604 Q188 650 244 675 Q300 700 364 700 Q464 700 528.5 658.5 Q593 617 624 539 L556 513 Q532 575 479.5 605 Q427 635 362 635 Q312 635 269.5 614.5 Q227 594 196 556.5 Q165 519 147.5 466 Q130 413 130 348 Q130 281 146.5 227 Q163 173 194 134.5 Q225 96 270 75.5 Q315 55 371 55 Q505 55 575 179 L630 138 Q586 65 522.5 27.5 Q459 -10 368 -10 Z " />
<glyph glyph-name="Egrave" unicode="&#xc8;" horiz-adv-x="537" d="M97 0 L97 690 L485 690 L485 631 L168 631 L168 391 L400 391 L400 332 L168 332 L168 59 L486 59 L486 0 L97 0 Z M194 901 L244 933 L344 776 L302 750 L194 901 Z " />
<glyph glyph-name="Eacute" unicode="&#xc9;" horiz-adv-x="537" d="M97 0 L97 690 L485 690 L485 631 L168 631 L168 391 L400 391 L400 332 L168 332 L168 59 L486 59 L486 0 L97 0 Z M279 750 L236 776 L336 933 L387 901 L279 750 Z " />
<glyph glyph-name="Ecircumflex" unicode="&#xca;" horiz-adv-x="537" d="M97 0 L97 690 L485 690 L485 631 L168 631 L168 391 L400 391 L400 332 L168 332 L168 59 L486 59 L486 0 L97 0 Z M294 877 L198 750 L160 776 L269 933 L319 933 L428 776 L390 750 L294 877 Z " />
<glyph glyph-name="Edieresis" unicode="&#xcb;" horiz-adv-x="537" d="M97 0 L97 690 L485 690 L485 631 L168 631 L168 391 L400 391 L400 332 L168 332 L168 59 L486 59 L486 0 L97 0 Z M221 797 Q204 797 194 807 Q184 817 184 834 Q184 852 194 861.5 Q204 871 221 871 Q259 871 259 834 Q259 797 221 797 Z M366 797 Q329 797 329 834 Q329 871 366 871 Q403 871 403 834 Q403 797 366 797 Z " />
<glyph glyph-name="Igrave" unicode="&#xcc;" horiz-adv-x="266" d="M97 0 L97 690 L168 690 L168 0 L97 0 Z M28 901 L78 933 L178 776 L136 750 L28 901 Z " />
<glyph glyph-name="Iacute" unicode="&#xcd;" horiz-adv-x="266" d="M97 0 L97 690 L168 690 L168 0 L97 0 Z M136 750 L93 776 L193 933 L244 901 L136 750 Z " />
<glyph glyph-name="Icircumflex" unicode="&#xce;" horiz-adv-x="266" d="M97 0 L97 690 L168 690 L168 0 L97 0 Z M133 877 L37 750 L-1 776 L108 933 L158 933 L267 776 L229 750 L133 877 Z " />
<glyph glyph-name="Idieresis" unicode="&#xcf;" horiz-adv-x="266" d="M97 0 L97 690 L168 690 L168 0 L97 0 Z M60 797 Q43 797 33 807 Q23 817 23 834 Q23 852 33 861.5 Q43 871 60 871 Q98 871 98 834 Q98 797 60 797 Z M205 797 Q168 797 168 834 Q168 871 205 871 Q242 871 242 834 Q242 797 205 797 Z " />
<glyph glyph-name="Eth" unicode="&#xd0;" horiz-adv-x="691" d="M47 364 L101 364 L101 690 L261 690 Q352 690 421.5 666 Q491 642 538.5 597.5 Q586 553 610 489 Q634 425 634 345 Q634 269 608.5 205.5 Q583 142 534 96.5 Q485 51 413.5 25.5 Q342 0 251 0 L101 0 L101 324 L47 324 L47 364 Z M248 59 Q323 59 381.5 79.5 Q440 100 479.5 137 Q519 174 540 226.5 Q561 279 561 344 Q561 483 483.5 556.5 Q406 630 260 630 L172 630 L172 364 L306 364 L306 324 L172 324 L172 59 L248 59 Z " />
<glyph glyph-name="Ntilde" unicode="&#xd1;" horiz-adv-x="715" d="M164 574 L164 0 L97 0 L97 690 L164 690 L551 115 L551 690 L617 690 L617 0 L551 0 L164 574 Z M211 826 Q225 853 246 870 Q267 887 291 887 Q309 887 325 879 Q341 871 355.5 861.5 Q370 852 384 844 Q398 836 413 836 Q442 836 467 876 L503 846 Q487 818 464.5 800 Q442 782 418 782 Q398 782 382.5 790 Q367 798 353 807.5 Q339 817 325 825 Q311 833 296 833 Q279 833 268 823 Q257 813 243 796 L211 826 Z " />
<glyph glyph-name="Ograve" unicode="&#xd2;" horiz-adv-x="767" d="M385 -10 Q310 -10 249 15.5 Q188 41 145 87.5 Q102 134 79 199.5 Q56 265 56 345 Q56 423 80 488 Q104 553 147.5 600 Q191 647 251 673.5 Q311 700 383 700 Q458 700 518.5 674.5 Q579 649 622 602.5 Q665 556 688 490.5 Q711 425 711 345 Q711 267 687 202 Q663 137 619.5 90 Q576 43 516.5 16.5 Q457 -10 385 -10 Z M385 55 Q443 55 489.5 75.5 Q536 96 569 134 Q602 172 620 225.5 Q638 279 638 344 Q638 412 620.5 466 Q603 520 570 557.5 Q537 595 489.5 615 Q442 635 383 635 Q325 635 278 614.5 Q231 594 198 556 Q165 518 147.5 464.5 Q130 411 130 346 Q130 278 147.5 224 Q165 170 198 132.5 Q231 95 278 75 Q325 55 385 55 Z M279 901 L329 933 L429 776 L387 750 L279 901 Z " />
<glyph glyph-name="Oacute" unicode="&#xd3;" horiz-adv-x="767" d="M385 -10 Q310 -10 249 15.5 Q188 41 145 87.5 Q102 134 79 199.5 Q56 265 56 345 Q56 423 80 488 Q104 553 147.5 600 Q191 647 251 673.5 Q311 700 383 700 Q458 700 518.5 674.5 Q579 649 622 602.5 Q665 556 688 490.5 Q711 425 711 345 Q711 267 687 202 Q663 137 619.5 90 Q576 43 516.5 16.5 Q457 -10 385 -10 Z M385 55 Q443 55 489.5 75.5 Q536 96 569 134 Q602 172 620 225.5 Q638 279 638 344 Q638 412 620.5 466 Q603 520 570 557.5 Q537 595 489.5 615 Q442 635 383 635 Q325 635 278 614.5 Q231 594 198 556 Q165 518 147.5 464.5 Q130 411 130 346 Q130 278 147.5 224 Q165 170 198 132.5 Q231 95 278 75 Q325 55 385 55 Z M387 750 L344 776 L444 933 L495 901 L387 750 Z " />
<glyph glyph-name="Ocircumflex" unicode="&#xd4;" horiz-adv-x="767" d="M385 -10 Q310 -10 249 15.5 Q188 41 145 87.5 Q102 134 79 199.5 Q56 265 56 345 Q56 423 80 488 Q104 553 147.5 600 Q191 647 251 673.5 Q311 700 383 700 Q458 700 518.5 674.5 Q579 649 622 602.5 Q665 556 688 490.5 Q711 425 711 345 Q711 267 687 202 Q663 137 619.5 90 Q576 43 516.5 16.5 Q457 -10 385 -10 Z M385 55 Q443 55 489.5 75.5 Q536 96 569 134 Q602 172 620 225.5 Q638 279 638 344 Q638 412 620.5 466 Q603 520 570 557.5 Q537 595 489.5 615 Q442 635 383 635 Q325 635 278 614.5 Q231 594 198 556 Q165 518 147.5 464.5 Q130 411 130 346 Q130 278 147.5 224 Q165 170 198 132.5 Q231 95 278 75 Q325 55 385 55 Z M384 877 L288 750 L250 776 L359 933 L409 933 L518 776 L480 750 L384 877 Z " />
<glyph glyph-name="Otilde" unicode="&#xd5;" horiz-adv-x="767" d="M385 -10 Q310 -10 249 15.5 Q188 41 145 87.5 Q102 134 79 199.5 Q56 265 56 345 Q56 423 80 488 Q104 553 147.5 600 Q191 647 251 673.5 Q311 700 383 700 Q458 700 518.5 674.5 Q579 649 622 602.5 Q665 556 688 490.5 Q711 425 711 345 Q711 267 687 202 Q663 137 619.5 90 Q576 43 516.5 16.5 Q457 -10 385 -10 Z M385 55 Q443 55 489.5 75.5 Q536 96 569 134 Q602 172 620 225.5 Q638 279 638 344 Q638 412 620.5 466 Q603 520 570 557.5 Q537 595 489.5 615 Q442 635 383 635 Q325 635 278 614.5 Q231 594 198 556 Q165 518 147.5 464.5 Q130 411 130 346 Q130 278 147.5 224 Q165 170 198 132.5 Q231 95 278 75 Q325 55 385 55 Z M238 826 Q252 853 273 870 Q294 887 318 887 Q336 887 352 879 Q368 871 382.5 861.5 Q397 852 411 844 Q425 836 440 836 Q469 836 494 876 L530 846 Q514 818 491.5 800 Q469 782 445 782 Q425 782 409.5 790 Q394 798 380 807.5 Q366 817 352 825 Q338 833 323 833 Q306 833 295 823 Q284 813 270 796 L238 826 Z " />
<glyph glyph-name="Odieresis" unicode="&#xd6;" horiz-adv-x="767" d="M385 -10 Q310 -10 249 15.5 Q188 41 145 87.5 Q102 134 79 199.5 Q56 265 56 345 Q56 423 80 488 Q104 553 147.5 600 Q191 647 251 673.5 Q311 700 383 700 Q458 700 518.5 674.5 Q579 649 622 602.5 Q665 556 688 490.5 Q711 425 711 345 Q711 267 687 202 Q663 137 619.5 90 Q576 43 516.5 16.5 Q457 -10 385 -10 Z M385 55 Q443 55 489.5 75.5 Q536 96 569 134 Q602 172 620 225.5 Q638 279 638 344 Q638 412 620.5 466 Q603 520 570 557.5 Q537 595 489.5 615 Q442 635 383 635 Q325 635 278 614.5 Q231 594 198 556 Q165 518 147.5 464.5 Q130 411 130 346 Q130 278 147.5 224 Q165 170 198 132.5 Q231 95 278 75 Q325 55 385 55 Z M311 797 Q294 797 284 807 Q274 817 274 834 Q274 852 284 861.5 Q294 871 311 871 Q349 871 349 834 Q349 797 311 797 Z M456 797 Q419 797 419 834 Q419 871 456 871 Q493 871 493 834 Q493 797 456 797 Z " />
<glyph glyph-name="multiply" unicode="&#xd7;" horiz-adv-x="482" d="M76 203 L200 327 L77 451 L117 491 L240 367 L365 492 L405 452 L280 327 L405 203 L365 163 L240 287 L116 163 L76 203 Z " />
<glyph glyph-name="Oslash" unicode="&#xd8;" horiz-adv-x="759" d="M78 19 L138 90 Q96 137 74 201.5 Q52 266 52 345 Q52 423 76 488 Q100 553 143.5 600 Q187 647 246.5 673.5 Q306 700 378 700 Q442 700 495 682 Q548 664 590 629 L646 696 L676 671 L618 602 Q661 555 684 490 Q707 425 707 345 Q707 267 683 202 Q659 137 615.5 90 Q572 43 512 16.5 Q452 -10 380 -10 Q314 -10 261 9 Q208 28 166 63 L108 -6 L78 19 Z M380 55 Q438 55 485 75.5 Q532 96 565 134 Q598 172 615.5 225.5 Q633 279 633 344 Q633 471 573 548 L210 115 Q276 55 380 55 Z M125 346 Q125 283 140 232.5 Q155 182 183 144 L546 577 Q514 605 471.5 620 Q429 635 378 635 Q320 635 273.5 614.5 Q227 594 194 556 Q161 518 143 464.5 Q125 411 125 346 Z " />
<glyph glyph-name="Ugrave" unicode="&#xd9;" horiz-adv-x="684" d="M339 -10 Q223 -10 156 59 Q89 128 89 267 L89 690 L160 688 L160 268 Q160 158 208 105.5 Q256 53 343 53 Q425 53 474 106 Q523 159 523 265 L523 690 L594 690 L594 268 Q594 134 527.5 62 Q461 -10 339 -10 Z M236 901 L286 933 L386 776 L344 750 L236 901 Z " />
<glyph glyph-name="Uacute" unicode="&#xda;" horiz-adv-x="684" d="M339 -10 Q223 -10 156 59 Q89 128 89 267 L89 690 L160 688 L160 268 Q160 158 208 105.5 Q256 53 343 53 Q425 53 474 106 Q523 159 523 265 L523 690 L594 690 L594 268 Q594 134 527.5 62 Q461 -10 339 -10 Z M344 750 L301 776 L401 933 L452 901 L344 750 Z " />
<glyph glyph-name="Ucircumflex" unicode="&#xdb;" horiz-adv-x="684" d="M339 -10 Q223 -10 156 59 Q89 128 89 267 L89 690 L160 688 L160 268 Q160 158 208 105.5 Q256 53 343 53 Q425 53 474 106 Q523 159 523 265 L523 690 L594 690 L594 268 Q594 134 527.5 62 Q461 -10 339 -10 Z M341 877 L245 750 L207 776 L316 933 L366 933 L475 776 L437 750 L341 877 Z " />
<glyph glyph-name="Udieresis" unicode="&#xdc;" horiz-adv-x="684" d="M339 -10 Q223 -10 156 59 Q89 128 89 267 L89 690 L160 688 L160 268 Q160 158 208 105.5 Q256 53 343 53 Q425 53 474 106 Q523 159 523 265 L523 690 L594 690 L594 268 Q594 134 527.5 62 Q461 -10 339 -10 Z M268 797 Q251 797 241 807 Q231 817 231 834 Q231 852 241 861.5 Q251 871 268 871 Q306 871 306 834 Q306 797 268 797 Z M413 797 Q376 797 376 834 Q376 871 413 871 Q450 871 450 834 Q450 797 413 797 Z " />
<glyph glyph-name="Yacute" unicode="&#xdd;" horiz-adv-x="585" d="M257 0 L257 239 L21 690 L100 690 L295 298 L491 690 L564 690 L328 239 L328 0 L257 0 Z M296 750 L253 776 L353 933 L404 901 L296 750 Z " />
<glyph glyph-name="Thorn" unicode="&#xde;" horiz-adv-x="566" d="M101 0 L101 690 L172 690 L172 576 L218 576 Q301 576 357 558.5 Q413 541 447.5 511 Q482 481 497 440.5 Q512 400 512 353 Q512 290 490 246 Q468 202 431 174 Q394 146 345 133.5 Q296 121 243 121 L210 121 L210 180 L240 180 Q283 180 319.5 189.5 Q356 199 382.5 220 Q409 241 424 273.5 Q439 306 439 353 Q439 389 427 419.5 Q415 450 388 471.5 Q361 493 317.5 505 Q274 517 211 517 L172 517 L172 0 L101 0 Z " />
<glyph glyph-name="germandbls" unicode="&#xdf;" horiz-adv-x="581" d="M88 0 L88 548 Q88 589 97 625.5 Q106 662 127.5 689 Q149 716 184 732 Q219 748 271 748 Q307 748 337.5 739.5 Q368 731 390.5 714 Q413 697 425.5 670.5 Q438 644 438 608 Q438 575 424 549 Q410 523 393.5 500.5 Q377 478 363 458 Q349 438 349 417 Q349 403 354 390 Q359 377 370 363 Q381 349 399 332 Q417 315 443 294 Q468 274 487 256 Q506 238 518.5 219.5 Q531 201 537 179.5 Q543 158 543 131 Q543 102 531.5 76.5 Q520 51 499 31.5 Q478 12 448 1 Q418 -10 380 -10 Q320 -10 283 20.5 Q246 51 230 102 L280 129 Q291 92 316.5 71.5 Q342 51 380 51 Q419 51 446.5 71.5 Q474 92 474 130 Q474 151 468.5 167 Q463 183 451.5 198.5 Q440 214 422 230 Q404 246 379 266 Q326 309 303 339.5 Q280 370 280 405 Q280 432 294 454 Q308 476 324.5 497.5 Q341 519 355 542 Q369 565 369 594 Q369 636 345.5 662 Q322 688 268 688 Q237 688 215.5 677 Q194 666 180.5 647 Q167 628 161 604 Q155 580 155 553 L155 0 L88 0 Z " />
<glyph glyph-name="agrave" unicode="&#xe0;" horiz-adv-x="521" d="M199 -10 Q134 -10 95 26 Q56 62 56 131 Q56 163 67.5 190 Q79 217 105.5 236.5 Q132 256 175 267 Q218 278 281 278 L368 278 L368 315 Q368 381 341 411 Q314 441 249 441 Q201 441 165.5 423.5 Q130 406 99 375 L63 426 Q100 463 147.5 482 Q195 501 256 501 Q307 501 341.5 489 Q376 477 396.5 454.5 Q417 432 426 399.5 Q435 367 435 326 L435 0 L372 0 L372 77 Q341 33 298.5 11.5 Q256 -10 199 -10 Z M216 43 Q267 43 301.5 63.5 Q336 84 368 130 L368 230 L273 230 Q231 230 203 223 Q175 216 158 203.5 Q141 191 133.5 173.5 Q126 156 126 136 Q126 93 149.5 68 Q173 43 216 43 Z M157 702 L207 734 L307 577 L265 551 L157 702 Z " />
<glyph glyph-name="aacute" unicode="&#xe1;" horiz-adv-x="521" d="M199 -10 Q134 -10 95 26 Q56 62 56 131 Q56 163 67.5 190 Q79 217 105.5 236.5 Q132 256 175 267 Q218 278 281 278 L368 278 L368 315 Q368 381 341 411 Q314 441 249 441 Q201 441 165.5 423.5 Q130 406 99 375 L63 426 Q100 463 147.5 482 Q195 501 256 501 Q307 501 341.5 489 Q376 477 396.5 454.5 Q417 432 426 399.5 Q435 367 435 326 L435 0 L372 0 L372 77 Q341 33 298.5 11.5 Q256 -10 199 -10 Z M216 43 Q267 43 301.5 63.5 Q336 84 368 130 L368 230 L273 230 Q231 230 203 223 Q175 216 158 203.5 Q141 191 133.5 173.5 Q126 156 126 136 Q126 93 149.5 68 Q173 43 216 43 Z M265 551 L222 577 L322 734 L373 702 L265 551 Z " />
<glyph glyph-name="acircumflex" unicode="&#xe2;" horiz-adv-x="521" d="M199 -10 Q134 -10 95 26 Q56 62 56 131 Q56 163 67.5 190 Q79 217 105.5 236.5 Q132 256 175 267 Q218 278 281 278 L368 278 L368 315 Q368 381 341 411 Q314 441 249 441 Q201 441 165.5 423.5 Q130 406 99 375 L63 426 Q100 463 147.5 482 Q195 501 256 501 Q307 501 341.5 489 Q376 477 396.5 454.5 Q417 432 426 399.5 Q435 367 435 326 L435 0 L372 0 L372 77 Q341 33 298.5 11.5 Q256 -10 199 -10 Z M216 43 Q267 43 301.5 63.5 Q336 84 368 130 L368 230 L273 230 Q231 230 203 223 Q175 216 158 203.5 Q141 191 133.5 173.5 Q126 156 126 136 Q126 93 149.5 68 Q173 43 216 43 Z M262 679 L166 551 L128 577 L237 734 L287 734 L396 577 L358 551 L262 679 Z " />
<glyph glyph-name="atilde" unicode="&#xe3;" horiz-adv-x="521" d="M199 -10 Q134 -10 95 26 Q56 62 56 131 Q56 163 67.5 190 Q79 217 105.5 236.5 Q132 256 175 267 Q218 278 281 278 L368 278 L368 315 Q368 381 341 411 Q314 441 249 441 Q201 441 165.5 423.5 Q130 406 99 375 L63 426 Q100 463 147.5 482 Q195 501 256 501 Q307 501 341.5 489 Q376 477 396.5 454.5 Q417 432 426 399.5 Q435 367 435 326 L435 0 L372 0 L372 77 Q341 33 298.5 11.5 Q256 -10 199 -10 Z M216 43 Q267 43 301.5 63.5 Q336 84 368 130 L368 230 L273 230 Q231 230 203 223 Q175 216 158 203.5 Q141 191 133.5 173.5 Q126 156 126 136 Q126 93 149.5 68 Q173 43 216 43 Z M116 627 Q130 654 151 671 Q172 688 196 688 Q214 688 230 680 Q246 672 260.5 663 Q275 654 289 646 Q303 638 318 638 Q347 638 372 677 L408 648 Q392 620 369.5 601.5 Q347 583 323 583 Q303 583 287.5 591 Q272 599 258 608.5 Q244 618 230 626 Q216 634 201 634 Q184 634 173 624 Q162 614 148 597 L116 627 Z " />
<glyph glyph-name="adieresis" unicode="&#xe4;" horiz-adv-x="521" d="M199 -10 Q134 -10 95 26 Q56 62 56 131 Q56 163 67.5 190 Q79 217 105.5 236.5 Q132 256 175 267 Q218 278 281 278 L368 278 L368 315 Q368 381 341 411 Q314 441 249 441 Q201 441 165.5 423.5 Q130 406 99 375 L63 426 Q100 463 147.5 482 Q195 501 256 501 Q307 501 341.5 489 Q376 477 396.5 454.5 Q417 432 426 399.5 Q435 367 435 326 L435 0 L372 0 L372 77 Q341 33 298.5 11.5 Q256 -10 199 -10 Z M216 43 Q267 43 301.5 63.5 Q336 84 368 130 L368 230 L273 230 Q231 230 203 223 Q175 216 158 203.5 Q141 191 133.5 173.5 Q126 156 126 136 Q126 93 149.5 68 Q173 43 216 43 Z M189 598 Q172 598 162 608 Q152 618 152 635 Q152 653 162 663 Q172 673 189 673 Q227 673 227 635 Q227 618 217 608 Q207 598 189 598 Z M334 598 Q317 598 307 608 Q297 618 297 635 Q297 673 334 673 Q371 673 371 635 Q371 618 361 608 Q351 598 334 598 Z " />
<glyph glyph-name="aring" unicode="&#xe5;" horiz-adv-x="521" d="M199 -10 Q134 -10 95 26 Q56 62 56 131 Q56 163 67.5 190 Q79 217 105.5 236.5 Q132 256 175 267 Q218 278 281 278 L368 278 L368 315 Q368 381 341 411 Q314 441 249 441 Q201 441 165.5 423.5 Q130 406 99 375 L63 426 Q100 463 147.5 482 Q195 501 256 501 Q307 501 341.5 489 Q376 477 396.5 454.5 Q417 432 426 399.5 Q435 367 435 326 L435 0 L372 0 L372 77 Q341 33 298.5 11.5 Q256 -10 199 -10 Z M216 43 Q267 43 301.5 63.5 Q336 84 368 130 L368 230 L273 230 Q231 230 203 223 Q175 216 158 203.5 Q141 191 133.5 173.5 Q126 156 126 136 Q126 93 149.5 68 Q173 43 216 43 Z M261 551 Q219 551 195.5 575 Q172 599 172 641 Q172 682 196.5 706.5 Q221 731 261 731 Q303 731 327.5 707 Q352 683 352 640 Q352 600 327 575.5 Q302 551 261 551 Z M261 585 Q287 585 302 600 Q317 615 317 641 Q317 667 302 682.5 Q287 698 261 698 Q236 698 221 682 Q206 666 206 640 Q206 615 221 600 Q236 585 261 585 Z " />
<glyph glyph-name="ae" unicode="&#xe6;" horiz-adv-x="820" d="M203 -10 Q135 -10 95.5 26 Q56 62 56 131 Q56 163 67.5 189.5 Q79 216 105.5 234.5 Q132 253 175 263.5 Q218 274 281 274 L358 274 L358 315 Q358 381 333.5 411 Q309 441 249 441 Q201 441 165.5 423.5 Q130 406 99 375 L63 426 Q100 463 147.5 482 Q195 501 256 501 Q320 501 356.5 480 Q393 459 409 420 Q438 458 479.5 479.5 Q521 501 574 501 Q677 501 727 434 Q777 367 771 250 L425 250 L425 235 Q427 145 468.5 97 Q510 49 582 49 Q624 49 655.5 70.5 Q687 92 709 130 L763 99 Q734 46 689.5 18 Q645 -10 582 -10 Q510 -10 460.5 21 Q411 52 385 108 Q372 77 352 55 Q332 33 308 18.5 Q284 4 257 -3 Q230 -10 203 -10 Z M219 43 Q243 43 267.5 51 Q292 59 312.5 79.5 Q333 100 345.5 134 Q358 168 358 219 L358 230 L273 230 Q231 230 203 223 Q175 216 158 203.5 Q141 191 133.5 173.5 Q126 156 126 136 Q126 93 150 68 Q174 43 219 43 Z M571 443 Q515 443 477.5 405.5 Q440 368 429 300 L704 300 Q699 368 666 405.5 Q633 443 571 443 Z " />
<glyph glyph-name="ccedilla" unicode="&#xe7;" horiz-adv-x="498" d="M457 99 Q429 51 387.5 22.5 Q346 -6 283 -9 L283 -68 Q296 -65 313 -65 Q354 -65 380 -88.5 Q406 -112 406 -154 Q406 -181 395.5 -201 Q385 -221 367 -234 Q349 -247 326 -253.5 Q303 -260 278 -260 Q240 -260 215.5 -245.5 Q191 -231 179 -216 L201 -184 Q211 -194 229 -207.5 Q247 -221 281 -221 Q314 -221 337 -204.5 Q360 -188 360 -157 Q360 -127 341 -112.5 Q322 -98 294 -98 Q277 -98 265.5 -100 Q254 -102 245 -104 L245 -9 Q199 -5 163 14.5 Q127 34 102 67 Q77 100 64 144.5 Q51 189 51 243 Q51 301 67 348.5 Q83 396 112.5 430 Q142 464 183 482.5 Q224 501 275 501 Q349 501 395.5 468 Q442 435 461 372 L399 351 Q382 394 352.5 417.5 Q323 441 275 441 Q206 441 163 390 Q120 339 120 245 Q120 151 161 101 Q202 51 271 51 Q320 51 349.5 72 Q379 93 402 131 L457 99 Z " />
<glyph glyph-name="egrave" unicode="&#xe8;" horiz-adv-x="529" d="M280 -10 Q226 -10 183.5 8 Q141 26 111.5 59 Q82 92 66.5 139 Q51 186 51 243 Q51 301 67 348.5 Q83 396 112.5 430 Q142 464 182.5 482.5 Q223 501 272 501 Q380 501 430.5 433.5 Q481 366 474 250 L119 250 L119 245 Q119 151 162.5 100 Q206 49 280 49 Q326 49 357.5 70.5 Q389 92 412 130 L466 99 Q436 46 391 18 Q346 -10 280 -10 Z M269 443 Q213 443 174 405.5 Q135 368 123 300 L407 300 Q402 368 368.5 405.5 Q335 443 269 443 Z M171 702 L221 734 L321 577 L279 551 L171 702 Z " />
<glyph glyph-name="eacute" unicode="&#xe9;" horiz-adv-x="529" d="M280 -10 Q226 -10 183.5 8 Q141 26 111.5 59 Q82 92 66.5 139 Q51 186 51 243 Q51 301 67 348.5 Q83 396 112.5 430 Q142 464 182.5 482.5 Q223 501 272 501 Q380 501 430.5 433.5 Q481 366 474 250 L119 250 L119 245 Q119 151 162.5 100 Q206 49 280 49 Q326 49 357.5 70.5 Q389 92 412 130 L466 99 Q436 46 391 18 Q346 -10 280 -10 Z M269 443 Q213 443 174 405.5 Q135 368 123 300 L407 300 Q402 368 368.5 405.5 Q335 443 269 443 Z M279 551 L236 577 L336 734 L387 702 L279 551 Z " />
<glyph glyph-name="ecircumflex" unicode="&#xea;" horiz-adv-x="529" d="M280 -10 Q226 -10 183.5 8 Q141 26 111.5 59 Q82 92 66.5 139 Q51 186 51 243 Q51 301 67 348.5 Q83 396 112.5 430 Q142 464 182.5 482.5 Q223 501 272 501 Q380 501 430.5 433.5 Q481 366 474 250 L119 250 L119 245 Q119 151 162.5 100 Q206 49 280 49 Q326 49 357.5 70.5 Q389 92 412 130 L466 99 Q436 46 391 18 Q346 -10 280 -10 Z M269 443 Q213 443 174 405.5 Q135 368 123 300 L407 300 Q402 368 368.5 405.5 Q335 443 269 443 Z M276 679 L180 551 L142 577 L251 734 L301 734 L410 577 L372 551 L276 679 Z " />
<glyph glyph-name="edieresis" unicode="&#xeb;" horiz-adv-x="529" d="M280 -10 Q226 -10 183.5 8 Q141 26 111.5 59 Q82 92 66.5 139 Q51 186 51 243 Q51 301 67 348.5 Q83 396 112.5 430 Q142 464 182.5 482.5 Q223 501 272 501 Q380 501 430.5 433.5 Q481 366 474 250 L119 250 L119 245 Q119 151 162.5 100 Q206 49 280 49 Q326 49 357.5 70.5 Q389 92 412 130 L466 99 Q436 46 391 18 Q346 -10 280 -10 Z M269 443 Q213 443 174 405.5 Q135 368 123 300 L407 300 Q402 368 368.5 405.5 Q335 443 269 443 Z M203 598 Q186 598 176 608 Q166 618 166 635 Q166 653 176 663 Q186 673 203 673 Q241 673 241 635 Q241 618 231 608 Q221 598 203 598 Z M348 598 Q331 598 321 608 Q311 618 311 635 Q311 673 348 673 Q385 673 385 635 Q385 618 375 608 Q365 598 348 598 Z " />
<glyph glyph-name="igrave" unicode="&#xec;" horiz-adv-x="244" d="M88 0 L88 491 L155 491 L155 0 L88 0 Z M17 702 L67 734 L167 577 L125 551 L17 702 Z " />
<glyph glyph-name="iacute" unicode="&#xed;" horiz-adv-x="244" d="M88 0 L88 491 L155 491 L155 0 L88 0 Z M125 551 L82 577 L182 734 L233 702 L125 551 Z " />
<glyph glyph-name="icircumflex" unicode="&#xee;" horiz-adv-x="244" d="M88 0 L88 491 L155 491 L155 0 L88 0 Z M122 679 L26 551 L-12 577 L97 734 L147 734 L256 577 L218 551 L122 679 Z " />
<glyph glyph-name="idieresis" unicode="&#xef;" horiz-adv-x="244" d="M88 0 L88 491 L155 491 L155 0 L88 0 Z M49 598 Q32 598 22 608 Q12 618 12 635 Q12 653 22 663 Q32 673 49 673 Q87 673 87 635 Q87 618 77 608 Q67 598 49 598 Z M194 598 Q177 598 167 608 Q157 618 157 635 Q157 673 194 673 Q231 673 231 635 Q231 618 221 608 Q211 598 194 598 Z " />
<glyph glyph-name="eth" unicode="&#xf0;" horiz-adv-x="563" d="M171 740 Q217 717 256 691 L299 747 L331 723 L289 668 Q337 632 377 589 Q417 546 446 496 Q475 446 491.5 390 Q508 334 511 271 Q512 266 512 260 Q512 254 512 249 Q512 190 495 142.5 Q478 95 447.5 61 Q417 27 374.5 8.5 Q332 -10 282 -10 Q228 -10 185.5 8 Q143 26 113 59 Q83 92 67 139 Q51 186 51 243 Q51 301 68 348.5 Q85 396 116 430 Q147 464 189.5 482.5 Q232 501 282 501 Q337 501 383 481 Q359 523 327 559 Q295 595 257 625 L210 564 L178 588 L225 649 Q206 663 186 674.5 Q166 686 146 697 L171 740 Z M282 51 Q316 51 345.5 64 Q375 77 397 102.5 Q419 128 431 164 Q443 200 443 247 Q443 341 399 391 Q355 441 282 441 Q248 441 218.5 428 Q189 415 167 389.5 Q145 364 132.5 327.5 Q120 291 120 245 Q120 151 164.5 101 Q209 51 282 51 Z " />
<glyph glyph-name="ntilde" unicode="&#xf1;" horiz-adv-x="570" d="M88 0 L88 491 L151 491 L151 419 Q179 452 219.5 476.5 Q260 501 321 501 Q368 501 399.5 489 Q431 477 450.5 454.5 Q470 432 478.5 399.5 Q487 367 487 326 L487 0 L420 0 L420 315 Q420 381 392 411 Q364 441 304 441 Q251 441 217 419 Q183 397 155 364 L155 0 L88 0 Z M139 627 Q153 654 174 671 Q195 688 219 688 Q237 688 253 680 Q269 672 283.5 663 Q298 654 312 646 Q326 638 341 638 Q370 638 395 677 L431 648 Q415 620 392.5 601.5 Q370 583 346 583 Q326 583 310.5 591 Q295 599 281 608.5 Q267 618 253 626 Q239 634 224 634 Q207 634 196 624 Q185 614 171 597 L139 627 Z " />
<glyph glyph-name="ograve" unicode="&#xf2;" horiz-adv-x="563" d="M282 -10 Q228 -10 185.5 8 Q143 26 113 59 Q83 92 67 139 Q51 186 51 243 Q51 301 68 348.5 Q85 396 116 430 Q147 464 189.5 482.5 Q232 501 282 501 Q335 501 377.5 483 Q420 465 450 432 Q480 399 496 352.5 Q512 306 512 249 Q512 190 495 142.5 Q478 95 447.5 61 Q417 27 374.5 8.5 Q332 -10 282 -10 Z M282 51 Q316 51 345.5 64 Q375 77 397 102.5 Q419 128 431 164 Q443 200 443 247 Q443 341 399 391 Q355 441 282 441 Q248 441 218.5 428 Q189 415 167 389.5 Q145 364 132.5 327.5 Q120 291 120 245 Q120 151 164.5 101 Q209 51 282 51 Z M177 702 L227 734 L327 577 L285 551 L177 702 Z " />
<glyph glyph-name="oacute" unicode="&#xf3;" horiz-adv-x="563" d="M282 -10 Q228 -10 185.5 8 Q143 26 113 59 Q83 92 67 139 Q51 186 51 243 Q51 301 68 348.5 Q85 396 116 430 Q147 464 189.5 482.5 Q232 501 282 501 Q335 501 377.5 483 Q420 465 450 432 Q480 399 496 352.5 Q512 306 512 249 Q512 190 495 142.5 Q478 95 447.5 61 Q417 27 374.5 8.5 Q332 -10 282 -10 Z M282 51 Q316 51 345.5 64 Q375 77 397 102.5 Q419 128 431 164 Q443 200 443 247 Q443 341 399 391 Q355 441 282 441 Q248 441 218.5 428 Q189 415 167 389.5 Q145 364 132.5 327.5 Q120 291 120 245 Q120 151 164.5 101 Q209 51 282 51 Z M285 551 L242 577 L342 734 L393 702 L285 551 Z " />
<glyph glyph-name="ocircumflex" unicode="&#xf4;" horiz-adv-x="563" d="M282 -10 Q228 -10 185.5 8 Q143 26 113 59 Q83 92 67 139 Q51 186 51 243 Q51 301 68 348.5 Q85 396 116 430 Q147 464 189.5 482.5 Q232 501 282 501 Q335 501 377.5 483 Q420 465 450 432 Q480 399 496 352.5 Q512 306 512 249 Q512 190 495 142.5 Q478 95 447.5 61 Q417 27 374.5 8.5 Q332 -10 282 -10 Z M282 51 Q316 51 345.5 64 Q375 77 397 102.5 Q419 128 431 164 Q443 200 443 247 Q443 341 399 391 Q355 441 282 441 Q248 441 218.5 428 Q189 415 167 389.5 Q145 364 132.5 327.5 Q120 291 120 245 Q120 151 164.5 101 Q209 51 282 51 Z M282 679 L186 551 L148 577 L257 734 L307 734 L416 577 L378 551 L282 679 Z " />
<glyph glyph-name="otilde" unicode="&#xf5;" horiz-adv-x="563" d="M282 -10 Q228 -10 185.5 8 Q143 26 113 59 Q83 92 67 139 Q51 186 51 243 Q51 301 68 348.5 Q85 396 116 430 Q147 464 189.5 482.5 Q232 501 282 501 Q335 501 377.5 483 Q420 465 450 432 Q480 399 496 352.5 Q512 306 512 249 Q512 190 495 142.5 Q478 95 447.5 61 Q417 27 374.5 8.5 Q332 -10 282 -10 Z M282 51 Q316 51 345.5 64 Q375 77 397 102.5 Q419 128 431 164 Q443 200 443 247 Q443 341 399 391 Q355 441 282 441 Q248 441 218.5 428 Q189 415 167 389.5 Q145 364 132.5 327.5 Q120 291 120 245 Q120 151 164.5 101 Q209 51 282 51 Z M136 627 Q150 654 171 671 Q192 688 216 688 Q234 688 250 680 Q266 672 280.5 663 Q295 654 309 646 Q323 638 338 638 Q367 638 392 677 L428 648 Q412 620 389.5 601.5 Q367 583 343 583 Q323 583 307.5 591 Q292 599 278 608.5 Q264 618 250 626 Q236 634 221 634 Q204 634 193 624 Q182 614 168 597 L136 627 Z " />
<glyph glyph-name="odieresis" unicode="&#xf6;" horiz-adv-x="563" d="M282 -10 Q228 -10 185.5 8 Q143 26 113 59 Q83 92 67 139 Q51 186 51 243 Q51 301 68 348.5 Q85 396 116 430 Q147 464 189.5 482.5 Q232 501 282 501 Q335 501 377.5 483 Q420 465 450 432 Q480 399 496 352.5 Q512 306 512 249 Q512 190 495 142.5 Q478 95 447.5 61 Q417 27 374.5 8.5 Q332 -10 282 -10 Z M282 51 Q316 51 345.5 64 Q375 77 397 102.5 Q419 128 431 164 Q443 200 443 247 Q443 341 399 391 Q355 441 282 441 Q248 441 218.5 428 Q189 415 167 389.5 Q145 364 132.5 327.5 Q120 291 120 245 Q120 151 164.5 101 Q209 51 282 51 Z M209 598 Q192 598 182 608 Q172 618 172 635 Q172 653 182 663 Q192 673 209 673 Q247 673 247 635 Q247 618 237 608 Q227 598 209 598 Z M354 598 Q337 598 327 608 Q317 618 317 635 Q317 673 354 673 Q391 673 391 635 Q391 618 381 608 Q371 598 354 598 Z " />
<glyph glyph-name="divide" unicode="&#xf7;" horiz-adv-x="482" d="M57 355 L425 355 L425 299 L57 299 L57 355 Z M187 156 Q187 176 200 189 Q213 202 233 202 Q254 202 266.5 189 Q279 176 279 156 Q279 135 266.5 122.5 Q254 110 233 110 Q213 110 200 122.5 Q187 135 187 156 Z M193 499 Q193 520 205.5 532.5 Q218 545 239 545 Q259 545 272 532.5 Q285 520 285 499 Q285 479 272 466 Q259 453 239 453 Q218 453 205.5 466 Q193 479 193 499 Z " />
<glyph glyph-name="oslash" unicode="&#xf8;" horiz-adv-x="563" d="M63 19 L105 69 Q51 135 51 243 Q51 301 68 348.5 Q85 396 116 430 Q147 464 189.5 482.5 Q232 501 282 501 Q326 501 362 489 Q398 477 427 454 L464 497 L494 472 L455 426 Q512 358 512 249 Q512 190 495 142.5 Q478 95 447.5 61 Q417 27 374.5 8.5 Q332 -10 282 -10 Q191 -10 132 40 L93 -6 L63 19 Z M282 51 Q316 51 345.5 64 Q375 77 397 102.5 Q419 128 431 164 Q443 200 443 247 Q443 325 411 374 L174 91 Q214 51 282 51 Z M120 245 Q120 169 149 122 L386 404 Q344 441 282 441 Q248 441 218.5 428 Q189 415 167 389.5 Q145 364 132.5 327.5 Q120 291 120 245 Z " />
<glyph glyph-name="ugrave" unicode="&#xf9;" horiz-adv-x="549" d="M242 -10 Q199 -10 169.5 2 Q140 14 121.5 36.5 Q103 59 94.5 91.5 Q86 124 86 165 L86 491 L153 491 L153 176 Q153 110 178.5 80.5 Q204 51 259 51 Q307 51 339.5 72.5 Q372 94 398 126 L398 491 L465 491 L465 0 L402 0 L402 71 Q376 38 337.5 14 Q299 -10 242 -10 Z M170 702 L220 734 L320 577 L278 551 L170 702 Z " />
<glyph glyph-name="uacute" unicode="&#xfa;" horiz-adv-x="549" d="M242 -10 Q199 -10 169.5 2 Q140 14 121.5 36.5 Q103 59 94.5 91.5 Q86 124 86 165 L86 491 L153 491 L153 176 Q153 110 178.5 80.5 Q204 51 259 51 Q307 51 339.5 72.5 Q372 94 398 126 L398 491 L465 491 L465 0 L402 0 L402 71 Q376 38 337.5 14 Q299 -10 242 -10 Z M278 551 L235 577 L335 734 L386 702 L278 551 Z " />
<glyph glyph-name="ucircumflex" unicode="&#xfb;" horiz-adv-x="549" d="M242 -10 Q199 -10 169.5 2 Q140 14 121.5 36.5 Q103 59 94.5 91.5 Q86 124 86 165 L86 491 L153 491 L153 176 Q153 110 178.5 80.5 Q204 51 259 51 Q307 51 339.5 72.5 Q372 94 398 126 L398 491 L465 491 L465 0 L402 0 L402 71 Q376 38 337.5 14 Q299 -10 242 -10 Z M275 679 L179 551 L141 577 L250 734 L300 734 L409 577 L371 551 L275 679 Z " />
<glyph glyph-name="udieresis" unicode="&#xfc;" horiz-adv-x="549" d="M242 -10 Q199 -10 169.5 2 Q140 14 121.5 36.5 Q103 59 94.5 91.5 Q86 124 86 165 L86 491 L153 491 L153 176 Q153 110 178.5 80.5 Q204 51 259 51 Q307 51 339.5 72.5 Q372 94 398 126 L398 491 L465 491 L465 0 L402 0 L402 71 Q376 38 337.5 14 Q299 -10 242 -10 Z M202 598 Q185 598 175 608 Q165 618 165 635 Q165 653 175 663 Q185 673 202 673 Q240 673 240 635 Q240 618 230 608 Q220 598 202 598 Z M347 598 Q330 598 320 608 Q310 618 310 635 Q310 673 347 673 Q384 673 384 635 Q384 618 374 608 Q364 598 347 598 Z " />
<glyph glyph-name="yacute" unicode="&#xfd;" horiz-adv-x="502" d="M224 -8 L38 491 L111 491 L256 73 L400 491 L470 491 L240 -129 Q217 -194 181 -222 Q145 -250 88 -250 L52 -250 L52 -195 L89 -195 Q121 -195 142.5 -180 Q164 -165 178 -130 L224 -8 Z M252 551 L209 577 L309 734 L360 702 L252 551 Z " />
<glyph glyph-name="thorn" unicode="&#xfe;" horiz-adv-x="562" d="M88 -250 L88 740 L155 740 L155 437 Q179 467 213.5 484 Q248 501 297 501 Q350 501 389.5 482.5 Q429 464 455.5 430 Q482 396 495.5 348.5 Q509 301 509 243 Q509 186 493 139.5 Q477 93 447.5 59.5 Q418 26 378 8 Q338 -10 290 -10 Q246 -10 213.5 4.5 Q181 19 155 46 L155 -250 L88 -250 Z M283 441 Q199 441 155 369 L155 112 Q199 51 279 51 Q353 51 396.5 100.5 Q440 150 440 242 Q440 336 400.5 388.5 Q361 441 283 441 Z " />
<glyph glyph-name="ydieresis" unicode="&#xff;" horiz-adv-x="502" d="M224 -8 L38 491 L111 491 L256 73 L400 491 L470 491 L240 -129 Q217 -194 181 -222 Q145 -250 88 -250 L52 -250 L52 -195 L89 -195 Q121 -195 142.5 -180 Q164 -165 178 -130 L224 -8 Z M176 598 Q159 598 149 608 Q139 618 139 635 Q139 653 149 663 Q159 673 176 673 Q214 673 214 635 Q214 618 204 608 Q194 598 176 598 Z M321 598 Q304 598 294 608 Q284 618 284 635 Q284 673 321 673 Q358 673 358 635 Q358 618 348 608 Q338 598 321 598 Z " />
<glyph glyph-name="Amacron" unicode="&#x100;" horiz-adv-x="642" d="M35 0 L296 690 L345 690 L607 0 L528 0 L466 172 L169 172 L107 0 L35 0 Z M190 231 L445 231 L319 586 L190 231 Z M195 818 L195 866 L448 866 L448 818 L195 818 Z " />
<glyph glyph-name="amacron" unicode="&#x101;" horiz-adv-x="521" d="M199 -10 Q134 -10 95 26 Q56 62 56 131 Q56 163 67.5 190 Q79 217 105.5 236.5 Q132 256 175 267 Q218 278 281 278 L368 278 L368 315 Q368 381 341 411 Q314 441 249 441 Q201 441 165.5 423.5 Q130 406 99 375 L63 426 Q100 463 147.5 482 Q195 501 256 501 Q307 501 341.5 489 Q376 477 396.5 454.5 Q417 432 426 399.5 Q435 367 435 326 L435 0 L372 0 L372 77 Q341 33 298.5 11.5 Q256 -10 199 -10 Z M216 43 Q267 43 301.5 63.5 Q336 84 368 130 L368 230 L273 230 Q231 230 203 223 Q175 216 158 203.5 Q141 191 133.5 173.5 Q126 156 126 136 Q126 93 149.5 68 Q173 43 216 43 Z M136 619 L136 668 L389 668 L389 619 L136 619 Z " />
<glyph glyph-name="Abreve" unicode="&#x102;" horiz-adv-x="642" d="M35 0 L296 690 L345 690 L607 0 L528 0 L466 172 L169 172 L107 0 L35 0 Z M190 231 L445 231 L319 586 L190 231 Z M321 750 Q266 750 232 790.5 Q198 831 187 905 L229 916 Q240 862 261 831 Q282 800 321 800 Q360 800 380.5 831 Q401 862 412 916 L455 905 Q444 831 410 790.5 Q376 750 321 750 Z " />
<glyph glyph-name="abreve" unicode="&#x103;" horiz-adv-x="521" d="M199 -10 Q134 -10 95 26 Q56 62 56 131 Q56 163 67.5 190 Q79 217 105.5 236.5 Q132 256 175 267 Q218 278 281 278 L368 278 L368 315 Q368 381 341 411 Q314 441 249 441 Q201 441 165.5 423.5 Q130 406 99 375 L63 426 Q100 463 147.5 482 Q195 501 256 501 Q307 501 341.5 489 Q376 477 396.5 454.5 Q417 432 426 399.5 Q435 367 435 326 L435 0 L372 0 L372 77 Q341 33 298.5 11.5 Q256 -10 199 -10 Z M216 43 Q267 43 301.5 63.5 Q336 84 368 130 L368 230 L273 230 Q231 230 203 223 Q175 216 158 203.5 Q141 191 133.5 173.5 Q126 156 126 136 Q126 93 149.5 68 Q173 43 216 43 Z M262 551 Q207 551 173 592 Q139 633 128 706 L170 717 Q181 663 202 632.5 Q223 602 262 602 Q301 602 321.5 632.5 Q342 663 353 717 L396 706 Q385 633 351 592 Q317 551 262 551 Z " />
<glyph glyph-name="Aogonek" unicode="&#x104;" horiz-adv-x="642" d="M35 0 L296 690 L345 690 L607 0 L554 0 Q525 -40 507.5 -77 Q490 -114 490 -150 Q490 -186 510 -203 Q530 -220 552 -220 Q578 -220 596.5 -207.5 Q615 -195 626 -178 L653 -203 Q641 -221 614.5 -240.5 Q588 -260 546 -260 Q501 -260 472 -233.5 Q443 -207 443 -159 Q443 -119 463.5 -77.5 Q484 -36 522 15 L466 172 L169 172 L107 0 L35 0 Z M190 231 L445 231 L319 586 L190 231 Z " />
<glyph glyph-name="aogonek" unicode="&#x105;" horiz-adv-x="521" d="M199 -10 Q134 -10 95 26 Q56 62 56 131 Q56 163 67.5 189.5 Q79 216 105.5 234.5 Q132 253 175 263.5 Q218 274 281 274 L368 274 L368 315 Q368 381 341 411 Q314 441 249 441 Q201 441 165.5 423.5 Q130 406 99 375 L63 426 Q100 463 147.5 482 Q195 501 256 501 Q307 501 341.5 489 Q376 477 396.5 454.5 Q417 432 426 399.5 Q435 367 435 326 L435 0 L408 0 Q380 -40 362 -77 Q344 -114 344 -150 Q344 -186 364 -203 Q384 -220 406 -220 Q432 -220 450.5 -207.5 Q469 -195 481 -178 L507 -203 Q495 -221 468.5 -240.5 Q442 -260 400 -260 Q355 -260 326 -233.5 Q297 -207 297 -159 Q297 -121 316 -80 Q335 -39 372 10 L372 77 Q341 33 298.5 11.5 Q256 -10 199 -10 Z M216 43 Q267 43 301.5 63.5 Q336 84 368 130 L368 230 L273 230 Q231 230 203 223 Q175 216 158 203.5 Q141 191 133.5 173.5 Q126 156 126 136 Q126 93 149.5 68 Q173 43 216 43 Z " />
<glyph glyph-name="Cacute" unicode="&#x106;" horiz-adv-x="667" d="M368 -10 Q298 -10 240.5 15.5 Q183 41 142 88 Q101 135 78.5 201 Q56 267 56 348 Q56 428 80 493 Q104 558 146 604 Q188 650 244 675 Q300 700 364 700 Q464 700 528.5 658.5 Q593 617 624 539 L556 513 Q532 575 479.5 605 Q427 635 362 635 Q312 635 269.5 614.5 Q227 594 196 556.5 Q165 519 147.5 466 Q130 413 130 348 Q130 281 146.5 227 Q163 173 194 134.5 Q225 96 270 75.5 Q315 55 371 55 Q505 55 575 179 L630 138 Q586 65 522.5 27.5 Q459 -10 368 -10 Z M365 750 L322 776 L422 933 L473 901 L365 750 Z " />
<glyph glyph-name="cacute" unicode="&#x107;" horiz-adv-x="498" d="M457 99 Q428 48 382.5 19 Q337 -10 268 -10 Q217 -10 177 8 Q137 26 109 59 Q81 92 66 139 Q51 186 51 243 Q51 301 67 348.5 Q83 396 112.5 430 Q142 464 183 482.5 Q224 501 275 501 Q349 501 395.5 468 Q442 435 461 372 L399 351 Q382 394 352.5 417.5 Q323 441 275 441 Q206 441 163 390 Q120 339 120 245 Q120 151 161 101 Q202 51 271 51 Q320 51 349.5 72 Q379 93 402 131 L457 99 Z M280 551 L237 577 L337 734 L388 702 L280 551 Z " />
<glyph glyph-name="Ccircumflex" unicode="&#x108;" horiz-adv-x="667" d="M368 -10 Q298 -10 240.5 15.5 Q183 41 142 88 Q101 135 78.5 201 Q56 267 56 348 Q56 428 80 493 Q104 558 146 604 Q188 650 244 675 Q300 700 364 700 Q464 700 528.5 658.5 Q593 617 624 539 L556 513 Q532 575 479.5 605 Q427 635 362 635 Q312 635 269.5 614.5 Q227 594 196 556.5 Q165 519 147.5 466 Q130 413 130 348 Q130 281 146.5 227 Q163 173 194 134.5 Q225 96 270 75.5 Q315 55 371 55 Q505 55 575 179 L630 138 Q586 65 522.5 27.5 Q459 -10 368 -10 Z M362 877 L266 750 L228 776 L337 933 L387 933 L496 776 L458 750 L362 877 Z " />
<glyph glyph-name="ccircumflex" unicode="&#x109;" horiz-adv-x="498" d="M457 99 Q428 48 382.5 19 Q337 -10 268 -10 Q217 -10 177 8 Q137 26 109 59 Q81 92 66 139 Q51 186 51 243 Q51 301 67 348.5 Q83 396 112.5 430 Q142 464 183 482.5 Q224 501 275 501 Q349 501 395.5 468 Q442 435 461 372 L399 351 Q382 394 352.5 417.5 Q323 441 275 441 Q206 441 163 390 Q120 339 120 245 Q120 151 161 101 Q202 51 271 51 Q320 51 349.5 72 Q379 93 402 131 L457 99 Z M277 679 L181 551 L143 577 L252 734 L302 734 L411 577 L373 551 L277 679 Z " />
<glyph glyph-name="Cdotaccent" unicode="&#x10a;" horiz-adv-x="667" d="M368 -10 Q298 -10 240.5 15.5 Q183 41 142 88 Q101 135 78.5 201 Q56 267 56 348 Q56 428 80 493 Q104 558 146 604 Q188 650 244 675 Q300 700 364 700 Q464 700 528.5 658.5 Q593 617 624 539 L556 513 Q532 575 479.5 605 Q427 635 362 635 Q312 635 269.5 614.5 Q227 594 196 556.5 Q165 519 147.5 466 Q130 413 130 348 Q130 281 146.5 227 Q163 173 194 134.5 Q225 96 270 75.5 Q315 55 371 55 Q505 55 575 179 L630 138 Q586 65 522.5 27.5 Q459 -10 368 -10 Z M318 834 Q318 855 329.5 866.5 Q341 878 361 878 Q381 878 393.5 866.5 Q406 855 406 834 Q406 814 393.5 802 Q381 790 361 790 Q341 790 329.5 802 Q318 814 318 834 Z " />
<glyph glyph-name="cdotaccent" unicode="&#x10b;" horiz-adv-x="498" d="M457 99 Q428 48 382.5 19 Q337 -10 268 -10 Q217 -10 177 8 Q137 26 109 59 Q81 92 66 139 Q51 186 51 243 Q51 301 67 348.5 Q83 396 112.5 430 Q142 464 183 482.5 Q224 501 275 501 Q349 501 395.5 468 Q442 435 461 372 L399 351 Q382 394 352.5 417.5 Q323 441 275 441 Q206 441 163 390 Q120 339 120 245 Q120 151 161 101 Q202 51 271 51 Q320 51 349.5 72 Q379 93 402 131 L457 99 Z M233 635 Q233 656 244.5 668 Q256 680 276 680 Q296 680 308.5 668 Q321 656 321 635 Q321 615 308.5 603.5 Q296 592 276 592 Q256 592 244.5 603.5 Q233 615 233 635 Z " />
<glyph glyph-name="Ccaron" unicode="&#x10c;" horiz-adv-x="667" d="M368 -10 Q298 -10 240.5 15.5 Q183 41 142 88 Q101 135 78.5 201 Q56 267 56 348 Q56 428 80 493 Q104 558 146 604 Q188 650 244 675 Q300 700 364 700 Q464 700 528.5 658.5 Q593 617 624 539 L556 513 Q532 575 479.5 605 Q427 635 362 635 Q312 635 269.5 614.5 Q227 594 196 556.5 Q165 519 147.5 466 Q130 413 130 348 Q130 281 146.5 227 Q163 173 194 134.5 Q225 96 270 75.5 Q315 55 371 55 Q505 55 575 179 L630 138 Q586 65 522.5 27.5 Q459 -10 368 -10 Z M454 933 L492 907 L384 750 L333 750 L225 907 L263 933 L358 805 L454 933 Z " />
<glyph glyph-name="ccaron" unicode="&#x10d;" horiz-adv-x="498" d="M457 99 Q428 48 382.5 19 Q337 -10 268 -10 Q217 -10 177 8 Q137 26 109 59 Q81 92 66 139 Q51 186 51 243 Q51 301 67 348.5 Q83 396 112.5 430 Q142 464 183 482.5 Q224 501 275 501 Q349 501 395.5 468 Q442 435 461 372 L399 351 Q382 394 352.5 417.5 Q323 441 275 441 Q206 441 163 390 Q120 339 120 245 Q120 151 161 101 Q202 51 271 51 Q320 51 349.5 72 Q379 93 402 131 L457 99 Z M369 734 L407 708 L299 551 L248 551 L140 708 L178 734 L273 606 L369 734 Z " />
<glyph glyph-name="Dcaron" unicode="&#x10e;" horiz-adv-x="687" d="M97 0 L97 690 L257 690 Q348 690 417.5 666 Q487 642 534.5 597.5 Q582 553 606 489 Q630 425 630 345 Q630 269 604.5 205.5 Q579 142 530 96.5 Q481 51 409.5 25.5 Q338 0 247 0 L97 0 Z M244 59 Q319 59 377.5 79.5 Q436 100 475.5 137 Q515 174 536 226.5 Q557 279 557 344 Q557 483 479.5 556.5 Q402 630 256 630 L168 630 L168 59 L244 59 Z M395 933 L433 907 L325 750 L274 750 L166 907 L204 933 L299 805 L395 933 Z " />
<glyph glyph-name="dcaron" unicode="&#x10f;" horiz-adv-x="637" d="M270 -10 Q217 -10 176.5 8.5 Q136 27 108.5 61 Q81 95 67 142.5 Q53 190 53 248 Q53 305 69 351.5 Q85 398 114.5 431.5 Q144 465 184.5 483 Q225 501 273 501 Q318 501 352 486 Q386 471 412 444 L412 740 L479 740 L479 0 L416 0 L416 60 Q390 27 355.5 8.5 Q321 -10 270 -10 Z M283 51 Q367 51 412 123 L412 378 Q389 408 356.5 424.5 Q324 441 283 441 Q210 441 166 391 Q122 341 122 250 Q122 156 163.5 103.5 Q205 51 283 51 Z M579 740 L643 740 L608 581 L558 582 L579 740 Z " />
<glyph glyph-name="Dcroat" unicode="&#x110;" horiz-adv-x="691" d="M47 364 L101 364 L101 690 L261 690 Q352 690 421.5 666 Q491 642 538.5 597.5 Q586 553 610 489 Q634 425 634 345 Q634 269 608.5 205.5 Q583 142 534 96.5 Q485 51 413.5 25.5 Q342 0 251 0 L101 0 L101 324 L47 324 L47 364 Z M248 59 Q323 59 381.5 79.5 Q440 100 479.5 137 Q519 174 540 226.5 Q561 279 561 344 Q561 483 483.5 556.5 Q406 630 260 630 L172 630 L172 364 L306 364 L306 324 L172 324 L172 59 L248 59 Z " />
<glyph glyph-name="dcroat" unicode="&#x111;" horiz-adv-x="567" d="M480 611 L480 0 L417 0 L417 61 Q391 28 356 9 Q321 -10 270 -10 Q217 -10 176.5 8.5 Q136 27 108.5 61 Q81 95 67 142.5 Q53 190 53 248 Q53 305 69 351.5 Q85 398 114.5 431.5 Q144 465 184.5 483 Q225 501 273 501 Q318 501 352 486 Q386 471 412 444 L412 611 L287 611 L287 659 L412 659 L412 740 L480 740 L480 659 L540 659 L540 611 L480 611 Z M284 51 Q367 51 412 123 L412 378 Q389 408 357 424.5 Q325 441 284 441 Q211 441 167 391 Q123 341 123 250 Q123 156 164.5 103.5 Q206 51 284 51 Z " />
<glyph glyph-name="Emacron" unicode="&#x112;" horiz-adv-x="537" d="M97 0 L97 690 L485 690 L485 631 L168 631 L168 391 L400 391 L400 332 L168 332 L168 59 L486 59 L486 0 L97 0 Z M168 818 L168 866 L421 866 L421 818 L168 818 Z " />
<glyph glyph-name="emacron" unicode="&#x113;" horiz-adv-x="529" d="M280 -10 Q226 -10 183.5 8 Q141 26 111.5 59 Q82 92 66.5 139 Q51 186 51 243 Q51 301 67 348.5 Q83 396 112.5 430 Q142 464 182.5 482.5 Q223 501 272 501 Q380 501 430.5 433.5 Q481 366 474 250 L119 250 L119 245 Q119 151 162.5 100 Q206 49 280 49 Q326 49 357.5 70.5 Q389 92 412 130 L466 99 Q436 46 391 18 Q346 -10 280 -10 Z M269 443 Q213 443 174 405.5 Q135 368 123 300 L407 300 Q402 368 368.5 405.5 Q335 443 269 443 Z M150 619 L150 668 L403 668 L403 619 L150 619 Z " />
<glyph glyph-name="Ebreve" unicode="&#x114;" horiz-adv-x="537" d="M97 0 L97 690 L485 690 L485 631 L168 631 L168 391 L400 391 L400 332 L168 332 L168 59 L486 59 L486 0 L97 0 Z M299 750 Q244 750 210 790.5 Q176 831 165 905 L207 916 Q218 862 239 831 Q260 800 299 800 Q338 800 358.5 831 Q379 862 390 916 L433 905 Q422 831 388 790.5 Q354 750 299 750 Z " />
<glyph glyph-name="ebreve" unicode="&#x115;" horiz-adv-x="529" d="M280 -10 Q226 -10 183.5 8 Q141 26 111.5 59 Q82 92 66.5 139 Q51 186 51 243 Q51 301 67 348.5 Q83 396 112.5 430 Q142 464 182.5 482.5 Q223 501 272 501 Q380 501 430.5 433.5 Q481 366 474 250 L119 250 L119 245 Q119 151 162.5 100 Q206 49 280 49 Q326 49 357.5 70.5 Q389 92 412 130 L466 99 Q436 46 391 18 Q346 -10 280 -10 Z M269 443 Q213 443 174 405.5 Q135 368 123 300 L407 300 Q402 368 368.5 405.5 Q335 443 269 443 Z M276 551 Q221 551 187 592 Q153 633 142 706 L184 717 Q195 663 216 632.5 Q237 602 276 602 Q315 602 335.5 632.5 Q356 663 367 717 L410 706 Q399 633 365 592 Q331 551 276 551 Z " />
<glyph glyph-name="Edotaccent" unicode="&#x116;" horiz-adv-x="537" d="M97 0 L97 690 L485 690 L485 631 L168 631 L168 391 L400 391 L400 332 L168 332 L168 59 L486 59 L486 0 L97 0 Z M255 834 Q255 855 266.5 866.5 Q278 878 298 878 Q318 878 330.5 866.5 Q343 855 343 834 Q343 814 330.5 802 Q318 790 298 790 Q278 790 266.5 802 Q255 814 255 834 Z " />
<glyph glyph-name="edotaccent" unicode="&#x117;" horiz-adv-x="529" d="M280 -10 Q226 -10 183.5 8 Q141 26 111.5 59 Q82 92 66.5 139 Q51 186 51 243 Q51 301 67 348.5 Q83 396 112.5 430 Q142 464 182.5 482.5 Q223 501 272 501 Q380 501 430.5 433.5 Q481 366 474 250 L119 250 L119 245 Q119 151 162.5 100 Q206 49 280 49 Q326 49 357.5 70.5 Q389 92 412 130 L466 99 Q436 46 391 18 Q346 -10 280 -10 Z M269 443 Q213 443 174 405.5 Q135 368 123 300 L407 300 Q402 368 368.5 405.5 Q335 443 269 443 Z M232 635 Q232 656 243.5 668 Q255 680 275 680 Q295 680 307.5 668 Q320 656 320 635 Q320 615 307.5 603.5 Q295 592 275 592 Q255 592 243.5 603.5 Q232 615 232 635 Z " />
<glyph glyph-name="Eogonek" unicode="&#x118;" horiz-adv-x="537" d="M460 0 Q431 -40 413 -77 Q395 -114 395 -150 Q395 -186 415 -203 Q435 -220 457 -220 Q483 -220 501.5 -207.5 Q520 -195 532 -178 L558 -203 Q546 -221 519.5 -240.5 Q493 -260 451 -260 Q406 -260 377 -233.5 Q348 -207 348 -159 Q348 -122 365.5 -84 Q383 -46 416 0 L97 0 L97 690 L485 690 L485 631 L168 631 L168 391 L400 391 L400 332 L168 332 L168 59 L486 59 L486 0 L460 0 Z " />
<glyph glyph-name="eogonek" unicode="&#x119;" horiz-adv-x="529" d="M279 -10 Q226 -10 183.5 8 Q141 26 111.5 59 Q82 92 66.5 139 Q51 186 51 243 Q51 301 67 348.5 Q83 396 112.5 430 Q142 464 182.5 482.5 Q223 501 272 501 Q379 501 430 433.5 Q481 366 474 250 L466 251 L466 250 L118 250 L118 245 Q118 151 161.5 100 Q205 49 279 49 Q326 49 357.5 70.5 Q389 92 412 130 L466 99 Q450 70 428 48 Q386 -7 357 -54.5 Q328 -102 328 -150 Q328 -186 348 -203 Q368 -220 390 -220 Q416 -220 434.5 -207.5 Q453 -195 464 -178 L491 -203 Q479 -221 452.5 -240.5 Q426 -260 384 -260 Q339 -260 310 -233.5 Q281 -207 281 -159 Q281 -123 298.5 -84.5 Q316 -46 349 0 Q319 -10 279 -10 Z M269 443 Q212 443 172 404 Q132 365 121 295 L407 295 Q403 365 370 404 Q337 443 269 443 Z " />
<glyph glyph-name="Ecaron" unicode="&#x11a;" horiz-adv-x="537" d="M97 0 L97 690 L485 690 L485 631 L168 631 L168 391 L400 391 L400 332 L168 332 L168 59 L486 59 L486 0 L97 0 Z M391 933 L429 907 L321 750 L270 750 L162 907 L200 933 L295 805 L391 933 Z " />
<glyph glyph-name="ecaron" unicode="&#x11b;" horiz-adv-x="529" d="M280 -10 Q226 -10 183.5 8 Q141 26 111.5 59 Q82 92 66.5 139 Q51 186 51 243 Q51 301 67 348.5 Q83 396 112.5 430 Q142 464 182.5 482.5 Q223 501 272 501 Q380 501 430.5 433.5 Q481 366 474 250 L119 250 L119 245 Q119 151 162.5 100 Q206 49 280 49 Q326 49 357.5 70.5 Q389 92 412 130 L466 99 Q436 46 391 18 Q346 -10 280 -10 Z M269 443 Q213 443 174 405.5 Q135 368 123 300 L407 300 Q402 368 368.5 405.5 Q335 443 269 443 Z M368 734 L406 708 L298 551 L247 551 L139 708 L177 734 L272 606 L368 734 Z " />
<glyph glyph-name="Gcircumflex" unicode="&#x11c;" horiz-adv-x="735" d="M371 635 Q320 635 275.5 614.5 Q231 594 199 556.5 Q167 519 148.5 466 Q130 413 130 348 Q130 281 147 226.5 Q164 172 196 133 Q228 94 274 73 Q320 52 378 52 Q424 52 466 67.5 Q508 83 540 114.5 Q572 146 591.5 194.5 Q611 243 613 309 L426 309 L426 368 L683 368 L683 331 Q683 256 662 193.5 Q641 131 601.5 85.5 Q562 40 505.5 15 Q449 -10 379 -10 Q306 -10 246.5 15.5 Q187 41 144.5 88 Q102 135 79 201 Q56 267 56 348 Q56 427 81 491.5 Q106 556 149.5 602.5 Q193 649 250.5 674.5 Q308 700 374 700 Q569 700 636 544 L570 513 Q545 575 491 605 Q437 635 371 635 Z M367 877 L271 750 L233 776 L342 933 L392 933 L501 776 L463 750 L367 877 Z " />
<glyph glyph-name="gcircumflex" unicode="&#x11d;" horiz-adv-x="526" d="M514 446 Q453 446 410 426 Q437 384 437 330 Q437 295 425.5 263 Q414 231 390 207 Q366 183 329.5 168.5 Q293 154 243 154 Q201 154 166 165 Q142 148 132.5 132 Q123 116 123 102 Q123 64 189 64 L312 64 Q406 64 453 32 Q500 0 500 -72 Q500 -116 477 -150.5 Q454 -185 415 -209.5 Q376 -234 324 -247 Q272 -260 215 -260 Q127 -260 79.5 -225.5 Q32 -191 32 -128 Q32 -75 56.5 -42.5 Q81 -10 121 13 Q60 30 60 86 Q60 138 128 182 Q90 206 71.5 243.5 Q53 281 53 326 Q53 363 65 395 Q77 427 101 450.5 Q125 474 161.5 487.5 Q198 501 247 501 Q290 501 322 490.5 Q354 480 377 462 Q405 479 437.5 490 Q470 501 515 501 L514 446 Z M168 7 Q130 -16 112.5 -44 Q95 -72 95 -108 Q95 -153 129.5 -177 Q164 -201 228 -201 Q273 -201 310.5 -191.5 Q348 -182 374.5 -165.5 Q401 -149 416 -126.5 Q431 -104 431 -78 Q431 -28 397.5 -10.5 Q364 7 304 7 L168 7 Z M245 210 Q280 210 304 220 Q328 230 343 247 Q358 264 364.5 285 Q371 306 371 329 Q371 351 364.5 371.5 Q358 392 343 408.5 Q328 425 304 435 Q280 445 245 445 Q210 445 186 435 Q162 425 147 408.5 Q132 392 125.5 370.5 Q119 349 119 327 Q119 305 125.5 284 Q132 263 147 246.5 Q162 230 186 220 Q210 210 245 210 Z M243 679 L147 551 L109 577 L218 734 L268 734 L377 577 L339 551 L243 679 Z " />
<glyph glyph-name="Gbreve" unicode="&#x11e;" horiz-adv-x="735" d="M371 635 Q320 635 275.5 614.5 Q231 594 199 556.5 Q167 519 148.5 466 Q130 413 130 348 Q130 281 147 226.5 Q164 172 196 133 Q228 94 274 73 Q320 52 378 52 Q424 52 466 67.5 Q508 83 540 114.5 Q572 146 591.5 194.5 Q611 243 613 309 L426 309 L426 368 L683 368 L683 331 Q683 256 662 193.5 Q641 131 601.5 85.5 Q562 40 505.5 15 Q449 -10 379 -10 Q306 -10 246.5 15.5 Q187 41 144.5 88 Q102 135 79 201 Q56 267 56 348 Q56 427 81 491.5 Q106 556 149.5 602.5 Q193 649 250.5 674.5 Q308 700 374 700 Q569 700 636 544 L570 513 Q545 575 491 605 Q437 635 371 635 Z M367 750 Q312 750 278 790.5 Q244 831 233 905 L275 916 Q286 862 307 831 Q328 800 367 800 Q406 800 426.5 831 Q447 862 458 916 L501 905 Q490 831 456 790.5 Q422 750 367 750 Z " />
<glyph glyph-name="gbreve" unicode="&#x11f;" horiz-adv-x="526" d="M514 446 Q453 446 410 426 Q437 384 437 330 Q437 295 425.5 263 Q414 231 390 207 Q366 183 329.5 168.5 Q293 154 243 154 Q201 154 166 165 Q142 148 132.5 132 Q123 116 123 102 Q123 64 189 64 L312 64 Q406 64 453 32 Q500 0 500 -72 Q500 -116 477 -150.5 Q454 -185 415 -209.5 Q376 -234 324 -247 Q272 -260 215 -260 Q127 -260 79.5 -225.5 Q32 -191 32 -128 Q32 -75 56.5 -42.5 Q81 -10 121 13 Q60 30 60 86 Q60 138 128 182 Q90 206 71.5 243.5 Q53 281 53 326 Q53 363 65 395 Q77 427 101 450.5 Q125 474 161.5 487.5 Q198 501 247 501 Q290 501 322 490.5 Q354 480 377 462 Q405 479 437.5 490 Q470 501 515 501 L514 446 Z M168 7 Q130 -16 112.5 -44 Q95 -72 95 -108 Q95 -153 129.5 -177 Q164 -201 228 -201 Q273 -201 310.5 -191.5 Q348 -182 374.5 -165.5 Q401 -149 416 -126.5 Q431 -104 431 -78 Q431 -28 397.5 -10.5 Q364 7 304 7 L168 7 Z M245 210 Q280 210 304 220 Q328 230 343 247 Q358 264 364.5 285 Q371 306 371 329 Q371 351 364.5 371.5 Q358 392 343 408.5 Q328 425 304 435 Q280 445 245 445 Q210 445 186 435 Q162 425 147 408.5 Q132 392 125.5 370.5 Q119 349 119 327 Q119 305 125.5 284 Q132 263 147 246.5 Q162 230 186 220 Q210 210 245 210 Z M243 551 Q188 551 154 592 Q120 633 109 706 L151 717 Q162 663 183 632.5 Q204 602 243 602 Q282 602 302.5 632.5 Q323 663 334 717 L377 706 Q366 633 332 592 Q298 551 243 551 Z " />
<glyph glyph-name="Gdotaccent" unicode="&#x120;" horiz-adv-x="735" d="M371 635 Q320 635 275.5 614.5 Q231 594 199 556.5 Q167 519 148.5 466 Q130 413 130 348 Q130 281 147 226.5 Q164 172 196 133 Q228 94 274 73 Q320 52 378 52 Q424 52 466 67.5 Q508 83 540 114.5 Q572 146 591.5 194.5 Q611 243 613 309 L426 309 L426 368 L683 368 L683 331 Q683 256 662 193.5 Q641 131 601.5 85.5 Q562 40 505.5 15 Q449 -10 379 -10 Q306 -10 246.5 15.5 Q187 41 144.5 88 Q102 135 79 201 Q56 267 56 348 Q56 427 81 491.5 Q106 556 149.5 602.5 Q193 649 250.5 674.5 Q308 700 374 700 Q569 700 636 544 L570 513 Q545 575 491 605 Q437 635 371 635 Z M323 834 Q323 855 334.5 866.5 Q346 878 366 878 Q386 878 398.5 866.5 Q411 855 411 834 Q411 814 398.5 802 Q386 790 366 790 Q346 790 334.5 802 Q323 814 323 834 Z " />
<glyph glyph-name="gdotaccent" unicode="&#x121;" horiz-adv-x="526" d="M514 446 Q453 446 410 426 Q437 384 437 330 Q437 295 425.5 263 Q414 231 390 207 Q366 183 329.5 168.5 Q293 154 243 154 Q201 154 166 165 Q142 148 132.5 132 Q123 116 123 102 Q123 64 189 64 L312 64 Q406 64 453 32 Q500 0 500 -72 Q500 -116 477 -150.5 Q454 -185 415 -209.5 Q376 -234 324 -247 Q272 -260 215 -260 Q127 -260 79.5 -225.5 Q32 -191 32 -128 Q32 -75 56.5 -42.5 Q81 -10 121 13 Q60 30 60 86 Q60 138 128 182 Q90 206 71.5 243.5 Q53 281 53 326 Q53 363 65 395 Q77 427 101 450.5 Q125 474 161.5 487.5 Q198 501 247 501 Q290 501 322 490.5 Q354 480 377 462 Q405 479 437.5 490 Q470 501 515 501 L514 446 Z M168 7 Q130 -16 112.5 -44 Q95 -72 95 -108 Q95 -153 129.5 -177 Q164 -201 228 -201 Q273 -201 310.5 -191.5 Q348 -182 374.5 -165.5 Q401 -149 416 -126.5 Q431 -104 431 -78 Q431 -28 397.5 -10.5 Q364 7 304 7 L168 7 Z M245 210 Q280 210 304 220 Q328 230 343 247 Q358 264 364.5 285 Q371 306 371 329 Q371 351 364.5 371.5 Q358 392 343 408.5 Q328 425 304 435 Q280 445 245 445 Q210 445 186 435 Q162 425 147 408.5 Q132 392 125.5 370.5 Q119 349 119 327 Q119 305 125.5 284 Q132 263 147 246.5 Q162 230 186 220 Q210 210 245 210 Z M199 635 Q199 656 210.5 668 Q222 680 242 680 Q262 680 274.5 668 Q287 656 287 635 Q287 615 274.5 603.5 Q262 592 242 592 Q222 592 210.5 603.5 Q199 615 199 635 Z " />
<glyph glyph-name="Gcommaaccent" unicode="&#x122;" horiz-adv-x="735" d="M371 635 Q320 635 275.5 614.5 Q231 594 199 556.5 Q167 519 148.5 466 Q130 413 130 348 Q130 281 147 226.5 Q164 172 196 133 Q228 94 274 73 Q320 52 378 52 Q424 52 466 67.5 Q508 83 540 114.5 Q572 146 591.5 194.5 Q611 243 613 309 L426 309 L426 368 L683 368 L683 331 Q683 256 662 193.5 Q641 131 601.5 85.5 Q562 40 505.5 15 Q449 -10 379 -10 Q306 -10 246.5 15.5 Q187 41 144.5 88 Q102 135 79 201 Q56 267 56 348 Q56 427 81 491.5 Q106 556 149.5 602.5 Q193 649 250.5 674.5 Q308 700 374 700 Q569 700 636 544 L570 513 Q545 575 491 605 Q437 635 371 635 Z M322 -60 L389 -60 L355 -219 L301 -218 L322 -60 Z " />
<glyph glyph-name="gcommaaccent" unicode="&#x123;" horiz-adv-x="526" d="M514 446 Q453 446 410 426 Q437 384 437 330 Q437 295 425.5 263 Q414 231 390 207 Q366 183 329.5 168.5 Q293 154 243 154 Q201 154 166 165 Q142 148 132.5 132 Q123 116 123 102 Q123 64 189 64 L312 64 Q406 64 453 32 Q500 0 500 -72 Q500 -116 477 -150.5 Q454 -185 415 -209.5 Q376 -234 324 -247 Q272 -260 215 -260 Q127 -260 79.5 -225.5 Q32 -191 32 -128 Q32 -75 56.5 -42.5 Q81 -10 121 13 Q60 30 60 86 Q60 138 128 182 Q90 206 71.5 243.5 Q53 281 53 326 Q53 363 65 395 Q77 427 101 450.5 Q125 474 161.5 487.5 Q198 501 247 501 Q290 501 322 490.5 Q354 480 377 462 Q405 479 437.5 490 Q470 501 515 501 L514 446 Z M168 7 Q130 -16 112.5 -44 Q95 -72 95 -108 Q95 -153 129.5 -177 Q164 -201 228 -201 Q273 -201 310.5 -191.5 Q348 -182 374.5 -165.5 Q401 -149 416 -126.5 Q431 -104 431 -78 Q431 -28 397.5 -10.5 Q364 7 304 7 L168 7 Z M245 210 Q280 210 304 220 Q328 230 343 247 Q358 264 364.5 285 Q371 306 371 329 Q371 351 364.5 371.5 Q358 392 343 408.5 Q328 425 304 435 Q280 445 245 445 Q210 445 186 435 Q162 425 147 408.5 Q132 392 125.5 370.5 Q119 349 119 327 Q119 305 125.5 284 Q132 263 147 246.5 Q162 230 186 220 Q210 210 245 210 Z M280 571 L216 571 L251 731 L300 730 L280 571 Z " />
<glyph glyph-name="Hcircumflex" unicode="&#x124;" horiz-adv-x="717" d="M97 0 L97 690 L168 690 L168 385 L549 385 L549 690 L620 690 L620 0 L549 0 L549 326 L168 326 L168 0 L97 0 Z M359 877 L263 750 L225 776 L334 933 L384 933 L493 776 L455 750 L359 877 Z " />
<glyph glyph-name="hcircumflex" unicode="&#x125;" horiz-adv-x="570" d="M88 0 L88 740 L155 740 L155 424 Q182 456 222 478.5 Q262 501 321 501 Q368 501 399.5 489 Q431 477 450.5 454.5 Q470 432 478.5 399.5 Q487 367 487 326 L487 0 L420 0 L420 315 Q420 381 392 411 Q364 441 304 441 Q251 441 217 419 Q183 397 155 364 L155 0 L88 0 Z M232 899 L136 771 L98 797 L207 954 L257 954 L366 797 L328 771 L232 899 Z " />
<glyph glyph-name="Hbar" unicode="&#x126;" horiz-adv-x="716" d="M97 0 L97 534 L56 534 L56 582 L97 582 L97 690 L168 690 L168 582 L548 582 L548 690 L619 690 L619 582 L660 582 L660 534 L619 534 L619 0 L548 0 L548 326 L168 326 L168 0 L97 0 Z M168 385 L548 385 L548 534 L168 534 L168 385 Z " />
<glyph glyph-name="hbar" unicode="&#x127;" horiz-adv-x="570" d="M155 611 L155 424 Q182 456 222 478.5 Q262 501 321 501 Q368 501 399.5 489 Q431 477 450.5 454.5 Q470 432 478.5 399.5 Q487 367 487 326 L487 0 L420 0 L420 315 Q420 381 392 411 Q364 441 304 441 Q251 441 217 419 Q183 397 155 364 L155 0 L88 0 L88 611 L39 611 L39 659 L88 659 L88 740 L155 740 L155 659 L292 659 L292 611 L155 611 Z " />
<glyph glyph-name="Itilde" unicode="&#x128;" horiz-adv-x="266" d="M97 0 L97 690 L168 690 L168 0 L97 0 Z M-13 826 Q1 853 22 870 Q43 887 67 887 Q85 887 101 879 Q117 871 131.5 861.5 Q146 852 160 844 Q174 836 189 836 Q218 836 243 876 L279 846 Q263 818 240.5 800 Q218 782 194 782 Q174 782 158.5 790 Q143 798 129 807.5 Q115 817 101 825 Q87 833 72 833 Q55 833 44 823 Q33 813 19 796 L-13 826 Z " />
<glyph glyph-name="itilde" unicode="&#x129;" horiz-adv-x="244" d="M88 0 L88 491 L155 491 L155 0 L88 0 Z M-24 627 Q-10 654 11 671 Q32 688 56 688 Q74 688 90 680 Q106 672 120.5 663 Q135 654 149 646 Q163 638 178 638 Q207 638 232 677 L268 648 Q252 620 229.5 601.5 Q207 583 183 583 Q163 583 147.5 591 Q132 599 118 608.5 Q104 618 90 626 Q76 634 61 634 Q44 634 33 624 Q22 614 8 597 L-24 627 Z " />
<glyph glyph-name="Imacron" unicode="&#x12a;" horiz-adv-x="266" d="M97 0 L97 690 L168 690 L168 0 L97 0 Z M7 818 L7 866 L260 866 L260 818 L7 818 Z " />
<glyph glyph-name="imacron" unicode="&#x12b;" horiz-adv-x="244" d="M88 0 L88 491 L155 491 L155 0 L88 0 Z M-4 619 L-4 668 L249 668 L249 619 L-4 619 Z " />
<glyph glyph-name="Ibreve" unicode="&#x12c;" horiz-adv-x="266" d="M97 0 L97 690 L168 690 L168 0 L97 0 Z M133 750 Q78 750 44 790.5 Q10 831 -1 905 L41 916 Q52 862 73 831 Q94 800 133 800 Q172 800 192.5 831 Q213 862 224 916 L267 905 Q256 831 222 790.5 Q188 750 133 750 Z " />
<glyph glyph-name="ibreve" unicode="&#x12d;" horiz-adv-x="244" d="M88 0 L88 491 L155 491 L155 0 L88 0 Z M122 551 Q67 551 33 592 Q-1 633 -12 706 L30 717 Q41 663 62 632.5 Q83 602 122 602 Q161 602 181.5 632.5 Q202 663 213 717 L256 706 Q245 633 211 592 Q177 551 122 551 Z " />
<glyph glyph-name="Iogonek" unicode="&#x12e;" horiz-adv-x="266" d="M129 0 Q100 -40 82 -77 Q64 -114 64 -150 Q64 -186 84 -203 Q104 -220 126 -220 Q152 -220 170.5 -207.5 Q189 -195 200 -178 L227 -203 Q215 -221 188.5 -240.5 Q162 -260 120 -260 Q75 -260 46 -233.5 Q17 -207 17 -159 Q17 -120 37.5 -78 Q58 -36 97 16 L97 690 L168 690 L168 0 L129 0 Z " />
<glyph glyph-name="iogonek" unicode="&#x12f;" horiz-adv-x="244" d="M115 0 Q86 -40 68 -77 Q50 -114 50 -150 Q50 -186 69.5 -203 Q89 -220 111 -220 Q137 -220 155.5 -207.5 Q174 -195 186 -178 L213 -203 Q201 -221 174 -240.5 Q147 -260 105 -260 Q60 -260 31.5 -233.5 Q3 -207 3 -159 Q3 -118 24.5 -74.5 Q46 -31 88 23 L88 491 L155 491 L155 0 L115 0 Z M123 592 Q103 592 91.5 603.5 Q80 615 80 635 Q80 656 91.5 668 Q103 680 123 680 Q143 680 155 668 Q167 656 167 635 Q167 615 155 603.5 Q143 592 123 592 Z " />
<glyph glyph-name="Idotaccent" unicode="&#x130;" horiz-adv-x="266" d="M97 0 L97 690 L168 690 L168 0 L97 0 Z M89 834 Q89 855 100.5 866.5 Q112 878 132 878 Q152 878 164.5 866.5 Q177 855 177 834 Q177 814 164.5 802 Q152 790 132 790 Q112 790 100.5 802 Q89 814 89 834 Z " />
<glyph glyph-name="dotlessi" unicode="&#x131;" horiz-adv-x="244" d="M88 0 L88 491 L155 491 L155 0 L88 0 Z " />
<glyph glyph-name="IJ" unicode="&#x132;" horiz-adv-x="534" d="M97 0 L97 690 L168 690 L168 0 L97 0 Z M437 53 Q437 1 426 -33 Q415 -67 393.5 -87.5 Q372 -108 340.5 -116.5 Q309 -125 268 -125 L248 -125 L250 -66 L267 -66 Q295 -66 314 -59.5 Q333 -53 344.5 -38 Q356 -23 361 2 Q366 27 366 64 L366 690 L437 690 L437 53 Z " />
<glyph glyph-name="ij" unicode="&#x133;" horiz-adv-x="482" d="M123 591 Q102 591 90.5 603 Q79 615 79 635 Q79 681 123 681 Q169 681 169 635 Q169 615 157 603 Q145 591 123 591 Z M88 0 L88 491 L155 491 L155 0 L88 0 Z M248 -220 L256 -220 Q295 -220 310.5 -200.5 Q326 -181 326 -139 L326 491 L393 491 L393 -136 Q393 -208 362.5 -241.5 Q332 -275 262 -275 L246 -275 L248 -220 Z M360 591 Q340 591 328 603 Q316 615 316 635 Q316 657 328 669 Q340 681 360 681 Q406 681 406 635 Q406 615 394 603 Q382 591 360 591 Z " />
<glyph glyph-name="Jcircumflex" unicode="&#x134;" horiz-adv-x="272" d="M174 53 Q174 1 163 -33 Q152 -67 130.5 -87.5 Q109 -108 77.5 -116.5 Q46 -125 5 -125 L-15 -125 L-13 -66 L4 -66 Q32 -66 51 -59.5 Q70 -53 81.5 -38 Q93 -23 98 2 Q103 27 103 64 L103 690 L174 690 L174 53 Z M137 877 L41 750 L3 776 L112 933 L162 933 L271 776 L233 750 L137 877 Z " />
<glyph glyph-name="jcircumflex" unicode="&#x135;" horiz-adv-x="244" d="M10 -220 L18 -220 Q57 -220 72.5 -200.5 Q88 -181 88 -139 L88 491 L155 491 L155 -136 Q155 -208 124.5 -241.5 Q94 -275 24 -275 L8 -275 L10 -220 Z M117 679 L21 551 L-17 577 L92 734 L142 734 L251 577 L213 551 L117 679 Z " />
<glyph glyph-name="Kcommaaccent" unicode="&#x136;" horiz-adv-x="621" d="M97 0 L97 690 L168 690 L168 379 L226 379 Q275 379 316 390.5 Q357 402 387 424.5 Q417 447 434 480 Q451 513 451 555 Q451 596 440 626.5 Q429 657 414 679 L478 709 Q496 686 509 648 Q522 610 522 565 Q522 496 487 441.5 Q452 387 374 356 Q413 347 441.5 331 Q470 315 490 288.5 Q510 262 522.5 223.5 Q535 185 541 133 Q543 107 545.5 87.5 Q548 68 550.5 52.5 Q553 37 556 24.5 Q559 12 563 0 L490 0 Q485 22 480.5 50.5 Q476 79 470 130 Q462 190 446.5 227 Q431 264 404 284.5 Q377 305 337.5 312.5 Q298 320 243 320 L168 320 L168 0 L97 0 Z M269 -60 L336 -60 L302 -219 L248 -218 L269 -60 Z " />
<glyph glyph-name="kcommaaccent" unicode="&#x137;" horiz-adv-x="512" d="M88 0 L88 740 L155 740 L155 0 L88 0 Z M463 0 Q439 0 421.5 3 Q404 6 387.5 15.5 Q371 25 354 42.5 Q337 60 316 89 L184 263 L388 491 L467 491 L262 263 L373 119 Q388 100 399.5 88.5 Q411 77 422 70.5 Q433 64 444.5 61.5 Q456 59 470 59 L479 59 L479 0 L463 0 Z M233 -60 L300 -60 L266 -219 L212 -218 L233 -60 Z " />
<glyph glyph-name="Lacute" unicode="&#x139;" horiz-adv-x="537" d="M492 59 L492 0 L97 0 L97 690 L168 690 L168 59 L492 59 Z M162 750 L119 776 L219 933 L270 901 L162 750 Z " />
<glyph glyph-name="lacute" unicode="&#x13a;" horiz-adv-x="243" d="M88 0 L88 740 L155 740 L155 0 L88 0 Z M130 771 L87 797 L187 954 L238 922 L130 771 Z " />
<glyph glyph-name="Lcommaaccent" unicode="&#x13b;" horiz-adv-x="537" d="M492 59 L492 0 L97 0 L97 690 L168 690 L168 59 L492 59 Z M266 -60 L333 -60 L299 -219 L245 -218 L266 -60 Z " />
<glyph glyph-name="lcommaaccent" unicode="&#x13c;" horiz-adv-x="243" d="M88 0 L88 740 L155 740 L155 0 L88 0 Z M88 -60 L155 -60 L121 -219 L67 -218 L88 -60 Z " />
<glyph glyph-name="Lcaron" unicode="&#x13d;" horiz-adv-x="537" d="M492 59 L492 0 L97 0 L97 690 L168 690 L168 59 L492 59 Z M291 740 L355 740 L320 581 L270 582 L291 740 Z " />
<glyph glyph-name="lcaron" unicode="&#x13e;" horiz-adv-x="304" d="M88 0 L88 740 L155 740 L155 0 L88 0 Z M247 740 L311 740 L276 581 L226 582 L247 740 Z " />
<glyph glyph-name="Ldot" unicode="&#x13f;" horiz-adv-x="537" d="M492 59 L492 0 L97 0 L97 690 L168 690 L168 59 L492 59 Z M338 326 Q338 347 349 358.5 Q360 370 380 370 Q400 370 412 358.5 Q424 347 424 326 Q424 307 412 295.5 Q400 284 380 284 Q360 284 349 295.5 Q338 307 338 326 Z " />
<glyph glyph-name="ldot" unicode="&#x140;" horiz-adv-x="293" d="M88 0 L88 740 L155 740 L155 0 L88 0 Z M218 326 Q218 347 229.5 358.5 Q241 370 261 370 Q281 370 293 358.5 Q305 347 305 326 Q305 307 293 295.5 Q281 284 261 284 Q241 284 229.5 295.5 Q218 307 218 326 Z " />
<glyph glyph-name="Lslash" unicode="&#x141;" horiz-adv-x="537" d="M35 292 L97 333 L97 690 L168 690 L168 380 L234 424 L234 376 L168 332 L168 59 L492 59 L492 0 L97 0 L97 285 L35 244 L35 292 Z " />
<glyph glyph-name="lslash" unicode="&#x142;" horiz-adv-x="247" d="M27 292 L90 334 L90 740 L157 740 L157 378 L226 424 L226 376 L157 330 L157 0 L90 0 L90 286 L27 244 L27 292 Z " />
<glyph glyph-name="Nacute" unicode="&#x143;" horiz-adv-x="715" d="M164 574 L164 0 L97 0 L97 690 L164 690 L551 115 L551 690 L617 690 L617 0 L551 0 L164 574 Z M360 750 L317 776 L417 933 L468 901 L360 750 Z " />
<glyph glyph-name="nacute" unicode="&#x144;" horiz-adv-x="570" d="M88 0 L88 491 L151 491 L151 419 Q179 452 219.5 476.5 Q260 501 321 501 Q368 501 399.5 489 Q431 477 450.5 454.5 Q470 432 478.5 399.5 Q487 367 487 326 L487 0 L420 0 L420 315 Q420 381 392 411 Q364 441 304 441 Q251 441 217 419 Q183 397 155 364 L155 0 L88 0 Z M288 551 L245 577 L345 734 L396 702 L288 551 Z " />
<glyph glyph-name="Ncommaaccent" unicode="&#x145;" horiz-adv-x="715" d="M164 574 L164 0 L97 0 L97 690 L164 690 L551 115 L551 690 L617 690 L617 0 L551 0 L164 574 Z M311 -60 L378 -60 L344 -219 L290 -218 L311 -60 Z " />
<glyph glyph-name="ncommaaccent" unicode="&#x146;" horiz-adv-x="570" d="M88 0 L88 491 L151 491 L151 419 Q179 452 219.5 476.5 Q260 501 321 501 Q368 501 399.5 489 Q431 477 450.5 454.5 Q470 432 478.5 399.5 Q487 367 487 326 L487 0 L420 0 L420 315 Q420 381 392 411 Q364 441 304 441 Q251 441 217 419 Q183 397 155 364 L155 0 L88 0 Z M249 -60 L316 -60 L282 -219 L228 -218 L249 -60 Z " />
<glyph glyph-name="Ncaron" unicode="&#x147;" horiz-adv-x="715" d="M164 574 L164 0 L97 0 L97 690 L164 690 L551 115 L551 690 L617 690 L617 0 L551 0 L164 574 Z M449 933 L487 907 L379 750 L328 750 L220 907 L258 933 L353 805 L449 933 Z " />
<glyph glyph-name="ncaron" unicode="&#x148;" horiz-adv-x="570" d="M88 0 L88 491 L151 491 L151 419 Q179 452 219.5 476.5 Q260 501 321 501 Q368 501 399.5 489 Q431 477 450.5 454.5 Q470 432 478.5 399.5 Q487 367 487 326 L487 0 L420 0 L420 315 Q420 381 392 411 Q364 441 304 441 Q251 441 217 419 Q183 397 155 364 L155 0 L88 0 Z M377 734 L415 708 L307 551 L256 551 L148 708 L186 734 L281 606 L377 734 Z " />
<glyph glyph-name="Omacron" unicode="&#x14c;" horiz-adv-x="767" d="M385 -10 Q310 -10 249 15.5 Q188 41 145 87.5 Q102 134 79 199.5 Q56 265 56 345 Q56 423 80 488 Q104 553 147.5 600 Q191 647 251 673.5 Q311 700 383 700 Q458 700 518.5 674.5 Q579 649 622 602.5 Q665 556 688 490.5 Q711 425 711 345 Q711 267 687 202 Q663 137 619.5 90 Q576 43 516.5 16.5 Q457 -10 385 -10 Z M385 55 Q443 55 489.5 75.5 Q536 96 569 134 Q602 172 620 225.5 Q638 279 638 344 Q638 412 620.5 466 Q603 520 570 557.5 Q537 595 489.5 615 Q442 635 383 635 Q325 635 278 614.5 Q231 594 198 556 Q165 518 147.5 464.5 Q130 411 130 346 Q130 278 147.5 224 Q165 170 198 132.5 Q231 95 278 75 Q325 55 385 55 Z M258 818 L258 866 L511 866 L511 818 L258 818 Z " />
<glyph glyph-name="omacron" unicode="&#x14d;" horiz-adv-x="563" d="M282 -10 Q228 -10 185.5 8 Q143 26 113 59 Q83 92 67 139 Q51 186 51 243 Q51 301 68 348.5 Q85 396 116 430 Q147 464 189.5 482.5 Q232 501 282 501 Q335 501 377.5 483 Q420 465 450 432 Q480 399 496 352.5 Q512 306 512 249 Q512 190 495 142.5 Q478 95 447.5 61 Q417 27 374.5 8.5 Q332 -10 282 -10 Z M282 51 Q316 51 345.5 64 Q375 77 397 102.5 Q419 128 431 164 Q443 200 443 247 Q443 341 399 391 Q355 441 282 441 Q248 441 218.5 428 Q189 415 167 389.5 Q145 364 132.5 327.5 Q120 291 120 245 Q120 151 164.5 101 Q209 51 282 51 Z M156 619 L156 668 L409 668 L409 619 L156 619 Z " />
<glyph glyph-name="Obreve" unicode="&#x14e;" horiz-adv-x="767" d="M385 -10 Q310 -10 249 15.5 Q188 41 145 87.5 Q102 134 79 199.5 Q56 265 56 345 Q56 423 80 488 Q104 553 147.5 600 Q191 647 251 673.5 Q311 700 383 700 Q458 700 518.5 674.5 Q579 649 622 602.5 Q665 556 688 490.5 Q711 425 711 345 Q711 267 687 202 Q663 137 619.5 90 Q576 43 516.5 16.5 Q457 -10 385 -10 Z M385 55 Q443 55 489.5 75.5 Q536 96 569 134 Q602 172 620 225.5 Q638 279 638 344 Q638 412 620.5 466 Q603 520 570 557.5 Q537 595 489.5 615 Q442 635 383 635 Q325 635 278 614.5 Q231 594 198 556 Q165 518 147.5 464.5 Q130 411 130 346 Q130 278 147.5 224 Q165 170 198 132.5 Q231 95 278 75 Q325 55 385 55 Z M384 750 Q329 750 295 790.5 Q261 831 250 905 L292 916 Q303 862 324 831 Q345 800 384 800 Q423 800 443.5 831 Q464 862 475 916 L518 905 Q507 831 473 790.5 Q439 750 384 750 Z " />
<glyph glyph-name="obreve" unicode="&#x14f;" horiz-adv-x="563" d="M282 -10 Q228 -10 185.5 8 Q143 26 113 59 Q83 92 67 139 Q51 186 51 243 Q51 301 68 348.5 Q85 396 116 430 Q147 464 189.5 482.5 Q232 501 282 501 Q335 501 377.5 483 Q420 465 450 432 Q480 399 496 352.5 Q512 306 512 249 Q512 190 495 142.5 Q478 95 447.5 61 Q417 27 374.5 8.5 Q332 -10 282 -10 Z M282 51 Q316 51 345.5 64 Q375 77 397 102.5 Q419 128 431 164 Q443 200 443 247 Q443 341 399 391 Q355 441 282 441 Q248 441 218.5 428 Q189 415 167 389.5 Q145 364 132.5 327.5 Q120 291 120 245 Q120 151 164.5 101 Q209 51 282 51 Z M282 551 Q227 551 193 592 Q159 633 148 706 L190 717 Q201 663 222 632.5 Q243 602 282 602 Q321 602 341.5 632.5 Q362 663 373 717 L416 706 Q405 633 371 592 Q337 551 282 551 Z " />
<glyph glyph-name="Ohungarumlaut" unicode="&#x150;" horiz-adv-x="767" d="M385 -10 Q310 -10 249 15.5 Q188 41 145 87.5 Q102 134 79 199.5 Q56 265 56 345 Q56 423 80 488 Q104 553 147.5 600 Q191 647 251 673.5 Q311 700 383 700 Q458 700 518.5 674.5 Q579 649 622 602.5 Q665 556 688 490.5 Q711 425 711 345 Q711 267 687 202 Q663 137 619.5 90 Q576 43 516.5 16.5 Q457 -10 385 -10 Z M385 55 Q443 55 489.5 75.5 Q536 96 569 134 Q602 172 620 225.5 Q638 279 638 344 Q638 412 620.5 466 Q603 520 570 557.5 Q537 595 489.5 615 Q442 635 383 635 Q325 635 278 614.5 Q231 594 198 556 Q165 518 147.5 464.5 Q130 411 130 346 Q130 278 147.5 224 Q165 170 198 132.5 Q231 95 278 75 Q325 55 385 55 Z M317 750 L279 769 L359 933 L406 907 L317 750 Z M443 750 L405 769 L485 933 L531 907 L443 750 Z " />
<glyph glyph-name="ohungarumlaut" unicode="&#x151;" horiz-adv-x="563" d="M282 -10 Q228 -10 185.5 8 Q143 26 113 59 Q83 92 67 139 Q51 186 51 243 Q51 301 68 348.5 Q85 396 116 430 Q147 464 189.5 482.5 Q232 501 282 501 Q335 501 377.5 483 Q420 465 450 432 Q480 399 496 352.5 Q512 306 512 249 Q512 190 495 142.5 Q478 95 447.5 61 Q417 27 374.5 8.5 Q332 -10 282 -10 Z M282 51 Q316 51 345.5 64 Q375 77 397 102.5 Q419 128 431 164 Q443 200 443 247 Q443 341 399 391 Q355 441 282 441 Q248 441 218.5 428 Q189 415 167 389.5 Q145 364 132.5 327.5 Q120 291 120 245 Q120 151 164.5 101 Q209 51 282 51 Z M229 551 L191 571 L271 734 L318 708 L229 551 Z M355 551 L317 571 L397 734 L443 708 L355 551 Z " />
<glyph glyph-name="OE" unicode="&#x152;" horiz-adv-x="1004" d="M566 0 L566 52 Q527 22 480 6 Q433 -10 380 -10 Q305 -10 244.5 15.5 Q184 41 141 87.5 Q98 134 75 199.5 Q52 265 52 345 Q52 423 76 488 Q100 553 143.5 600 Q187 647 246.5 673.5 Q306 700 378 700 Q433 700 480.5 685 Q528 670 566 642 L566 690 L954 690 L954 631 L637 631 L637 391 L869 391 L869 332 L637 332 L637 59 L955 59 L955 0 L566 0 Z M380 55 Q440 55 485.5 75.5 Q531 96 566 135 L566 557 Q533 595 485.5 615 Q438 635 378 635 Q320 635 273.5 614.5 Q227 594 194 556 Q161 518 143 464.5 Q125 411 125 346 Q125 278 142.5 224 Q160 170 193 132.5 Q226 95 273.5 75 Q321 55 380 55 Z " />
<glyph glyph-name="oe" unicode="&#x153;" horiz-adv-x="893" d="M274 -10 Q222 -10 181 8 Q140 26 111 59 Q82 92 66.5 139 Q51 186 51 243 Q51 301 67.5 348.5 Q84 396 114 430 Q144 464 185 482.5 Q226 501 274 501 Q342 501 391 472 Q440 443 467 391 Q493 443 538.5 472 Q584 501 647 501 Q750 501 800 434 Q850 367 844 250 L498 250 L498 237 Q500 146 541 97.5 Q582 49 654 49 Q697 49 728.5 70.5 Q760 92 782 130 L836 99 Q807 46 762 18 Q717 -10 654 -10 Q585 -10 537.5 19 Q490 48 464 102 Q435 48 386 19 Q337 -10 274 -10 Z M274 51 Q308 51 337 64 Q366 77 387.5 102.5 Q409 128 421 164 Q433 200 433 247 Q433 341 389.5 391 Q346 441 274 441 Q241 441 213 428 Q185 415 164.5 389.5 Q144 364 132 327.5 Q120 291 120 245 Q120 151 162.5 101 Q205 51 274 51 Z M644 443 Q588 443 550.5 405.5 Q513 368 502 300 L777 300 Q772 368 739 405.5 Q706 443 644 443 Z " />
<glyph glyph-name="Racute" unicode="&#x154;" horiz-adv-x="581" d="M97 0 L97 690 L217 690 Q294 690 346.5 673.5 Q399 657 431.5 629 Q464 601 478 563.5 Q492 526 492 483 Q492 457 485.5 431.5 Q479 406 464.5 382 Q450 358 428.5 337.5 Q407 317 377 303 Q428 285 458 239.5 Q488 194 501 104 Q506 69 510.5 42.5 Q515 16 519 0 L447 0 L430 97 Q422 151 410 184.5 Q398 218 378 237 Q358 256 327.5 262.5 Q297 269 252 269 L213 269 L213 328 L242 328 Q290 328 323.5 340 Q357 352 378 373 Q399 394 409 421 Q419 448 419 478 Q419 512 408 540.5 Q397 569 371.5 589 Q346 609 305 620 Q264 631 204 631 L168 631 L168 0 L97 0 Z M293 750 L250 776 L350 933 L401 901 L293 750 Z " />
<glyph glyph-name="racute" unicode="&#x155;" horiz-adv-x="374" d="M88 0 L88 491 L151 491 L151 418 Q180 452 225 476.5 Q270 501 340 501 L340 438 Q279 438 235.5 418 Q192 398 155 362 L155 0 L88 0 Z M206 551 L163 577 L263 734 L314 702 L206 551 Z " />
<glyph glyph-name="Rcommaaccent" unicode="&#x156;" horiz-adv-x="581" d="M97 0 L97 690 L217 690 Q294 690 346.5 673.5 Q399 657 431.5 629 Q464 601 478 563.5 Q492 526 492 483 Q492 457 485.5 431.5 Q479 406 464.5 382 Q450 358 428.5 337.5 Q407 317 377 303 Q428 285 458 239.5 Q488 194 501 104 Q506 69 510.5 42.5 Q515 16 519 0 L447 0 L430 97 Q422 151 410 184.5 Q398 218 378 237 Q358 256 327.5 262.5 Q297 269 252 269 L213 269 L213 328 L242 328 Q290 328 323.5 340 Q357 352 378 373 Q399 394 409 421 Q419 448 419 478 Q419 512 408 540.5 Q397 569 371.5 589 Q346 609 305 620 Q264 631 204 631 L168 631 L168 0 L97 0 Z M264 -60 L331 -60 L297 -219 L243 -218 L264 -60 Z " />
<glyph glyph-name="rcommaaccent" unicode="&#x157;" horiz-adv-x="374" d="M88 0 L88 491 L151 491 L151 418 Q180 452 225 476.5 Q270 501 340 501 L340 438 Q279 438 235.5 418 Q192 398 155 362 L155 0 L88 0 Z M93 -60 L160 -60 L126 -219 L72 -218 L93 -60 Z " />
<glyph glyph-name="Rcaron" unicode="&#x158;" horiz-adv-x="581" d="M97 0 L97 690 L217 690 Q294 690 346.5 673.5 Q399 657 431.5 629 Q464 601 478 563.5 Q492 526 492 483 Q492 457 485.5 431.5 Q479 406 464.5 382 Q450 358 428.5 337.5 Q407 317 377 303 Q428 285 458 239.5 Q488 194 501 104 Q506 69 510.5 42.5 Q515 16 519 0 L447 0 L430 97 Q422 151 410 184.5 Q398 218 378 237 Q358 256 327.5 262.5 Q297 269 252 269 L213 269 L213 328 L242 328 Q290 328 323.5 340 Q357 352 378 373 Q399 394 409 421 Q419 448 419 478 Q419 512 408 540.5 Q397 569 371.5 589 Q346 609 305 620 Q264 631 204 631 L168 631 L168 0 L97 0 Z M382 933 L420 907 L312 750 L261 750 L153 907 L191 933 L286 805 L382 933 Z " />
<glyph glyph-name="rcaron" unicode="&#x159;" horiz-adv-x="374" d="M88 0 L88 491 L151 491 L151 418 Q180 452 225 476.5 Q270 501 340 501 L340 438 Q279 438 235.5 418 Q192 398 155 362 L155 0 L88 0 Z M295 734 L333 708 L225 551 L174 551 L66 708 L104 734 L199 606 L295 734 Z " />
<glyph glyph-name="Sacute" unicode="&#x15a;" horiz-adv-x="524" d="M262 700 Q343 700 395.5 656.5 Q448 613 456 522 L385 514 Q379 549 367 572.5 Q355 596 337.5 610.5 Q320 625 299 631.5 Q278 638 256 638 Q232 638 210.5 631 Q189 624 172.5 610 Q156 596 146.5 575.5 Q137 555 137 529 Q137 498 147 476.5 Q157 455 176 439.5 Q195 424 222.5 412 Q250 400 285 388 Q331 372 366.5 354 Q402 336 426 312.5 Q450 289 462.5 258.5 Q475 228 475 187 Q475 143 459 106.5 Q443 70 414.5 44 Q386 18 346 4 Q306 -10 257 -10 Q161 -10 111 35.5 Q61 81 43 161 L110 181 Q122 123 157.5 88 Q193 53 259 53 Q325 53 364 88 Q403 123 403 183 Q403 214 391.5 237.5 Q380 261 359 278 Q338 295 309.5 308 Q281 321 247 332 Q210 344 177 358.5 Q144 373 119 394.5 Q94 416 79.5 447 Q65 478 65 523 Q65 563 79 595.5 Q93 628 119 651 Q145 674 181 687 Q217 700 262 700 Z M268 750 L225 776 L325 933 L376 901 L268 750 Z " />
<glyph glyph-name="sacute" unicode="&#x15b;" horiz-adv-x="468" d="M236 502 Q317 502 357.5 468 Q398 434 408 382 L347 364 Q337 404 305.5 424.5 Q274 445 229 445 Q183 445 153.5 423.5 Q124 402 124 364 Q124 344 130.5 330 Q137 316 152.5 305 Q168 294 193 286 Q218 278 255 271 Q294 263 324 253 Q354 243 375 227 Q396 211 406.5 188.5 Q417 166 417 134 Q417 69 370 29.5 Q323 -10 229 -10 Q143 -10 100 23.5 Q57 57 43 117 L104 133 Q116 93 147 69.5 Q178 46 235 46 Q295 46 323.5 70.5 Q352 95 352 130 Q352 170 322 189.5 Q292 209 232 220 Q194 227 162 237 Q130 247 107 262.5 Q84 278 71.5 301.5 Q59 325 59 360 Q59 426 107 464 Q155 502 236 502 Z M238 551 L195 577 L295 734 L346 702 L238 551 Z " />
<glyph glyph-name="Scircumflex" unicode="&#x15c;" horiz-adv-x="524" d="M262 700 Q343 700 395.5 656.5 Q448 613 456 522 L385 514 Q379 549 367 572.5 Q355 596 337.5 610.5 Q320 625 299 631.5 Q278 638 256 638 Q232 638 210.5 631 Q189 624 172.5 610 Q156 596 146.5 575.5 Q137 555 137 529 Q137 498 147 476.5 Q157 455 176 439.5 Q195 424 222.5 412 Q250 400 285 388 Q331 372 366.5 354 Q402 336 426 312.5 Q450 289 462.5 258.5 Q475 228 475 187 Q475 143 459 106.5 Q443 70 414.5 44 Q386 18 346 4 Q306 -10 257 -10 Q161 -10 111 35.5 Q61 81 43 161 L110 181 Q122 123 157.5 88 Q193 53 259 53 Q325 53 364 88 Q403 123 403 183 Q403 214 391.5 237.5 Q380 261 359 278 Q338 295 309.5 308 Q281 321 247 332 Q210 344 177 358.5 Q144 373 119 394.5 Q94 416 79.5 447 Q65 478 65 523 Q65 563 79 595.5 Q93 628 119 651 Q145 674 181 687 Q217 700 262 700 Z M265 877 L169 750 L131 776 L240 933 L290 933 L399 776 L361 750 L265 877 Z " />
<glyph glyph-name="scircumflex" unicode="&#x15d;" horiz-adv-x="468" d="M236 502 Q317 502 357.5 468 Q398 434 408 382 L347 364 Q337 404 305.5 424.5 Q274 445 229 445 Q183 445 153.5 423.5 Q124 402 124 364 Q124 344 130.5 330 Q137 316 152.5 305 Q168 294 193 286 Q218 278 255 271 Q294 263 324 253 Q354 243 375 227 Q396 211 406.5 188.5 Q417 166 417 134 Q417 69 370 29.5 Q323 -10 229 -10 Q143 -10 100 23.5 Q57 57 43 117 L104 133 Q116 93 147 69.5 Q178 46 235 46 Q295 46 323.5 70.5 Q352 95 352 130 Q352 170 322 189.5 Q292 209 232 220 Q194 227 162 237 Q130 247 107 262.5 Q84 278 71.5 301.5 Q59 325 59 360 Q59 426 107 464 Q155 502 236 502 Z M235 679 L139 551 L101 577 L210 734 L260 734 L369 577 L331 551 L235 679 Z " />
<glyph glyph-name="Scedilla" unicode="&#x15e;" horiz-adv-x="524" d="M262 700 Q343 700 395.5 656.5 Q448 613 456 522 L385 514 Q379 549 367 572.5 Q355 596 337.5 610.5 Q320 625 299 631.5 Q278 638 256 638 Q232 638 210.5 631 Q189 624 172.5 610 Q156 596 146.5 575.5 Q137 555 137 529 Q137 498 147 476.5 Q157 455 176 439.5 Q195 424 222.5 412 Q250 400 285 388 Q331 372 366.5 354 Q402 336 426 312.5 Q450 289 462.5 258.5 Q475 228 475 187 Q475 143 459.5 107.5 Q444 72 416 46 Q388 20 349 5.5 Q310 -9 263 -10 L263 -68 Q276 -65 293 -65 Q334 -65 360 -88.5 Q386 -112 386 -154 Q386 -181 375.5 -201 Q365 -221 347 -234 Q329 -247 306 -253.5 Q283 -260 258 -260 Q220 -260 195.5 -245.5 Q171 -231 158 -216 L181 -184 Q191 -194 209 -207.5 Q227 -221 261 -221 Q294 -221 317 -204.5 Q340 -188 340 -157 Q340 -127 320.5 -112.5 Q301 -98 273 -98 Q256 -98 245 -100 Q234 -102 225 -104 L225 -8 Q144 -1 102 43.5 Q60 88 43 161 L110 181 Q122 123 157.5 88 Q193 53 259 53 Q325 53 364 88 Q403 123 403 183 Q403 214 391.5 237.5 Q380 261 359 278 Q338 295 309.5 308 Q281 321 247 332 Q210 344 177 358.5 Q144 373 119 394.5 Q94 416 79.5 447 Q65 478 65 523 Q65 563 79 595.5 Q93 628 119 651 Q145 674 181 687 Q217 700 262 700 Z " />
<glyph glyph-name="scedilla" unicode="&#x15f;" horiz-adv-x="468" d="M235 502 Q316 502 357 468 Q398 434 407 382 L346 364 Q337 404 305.5 424.5 Q274 445 229 445 Q183 445 153.5 423.5 Q124 402 124 364 Q124 344 130.5 330 Q137 316 152 305 Q167 294 192 286 Q217 278 254 271 Q293 263 323.5 253 Q354 243 375 227 Q396 211 406.5 188.5 Q417 166 417 134 Q417 72 374.5 33.5 Q332 -5 247 -9 L247 -68 Q260 -65 277 -65 Q319 -65 344.5 -88.5 Q370 -112 370 -154 Q370 -181 359.5 -201 Q349 -221 331 -234 Q313 -247 290 -253.5 Q267 -260 242 -260 Q204 -260 179.5 -245.5 Q155 -231 143 -216 L165 -184 Q175 -194 193.5 -207.5 Q212 -221 246 -221 Q278 -221 301 -204.5 Q324 -188 324 -157 Q324 -127 305 -112.5 Q286 -98 258 -98 Q241 -98 229.5 -100 Q218 -102 209 -104 L209 -9 Q133 -5 94.5 28 Q56 61 43 117 L104 133 Q116 93 146.5 69.5 Q177 46 235 46 Q294 46 323 70.5 Q352 95 352 130 Q352 170 321.5 189.5 Q291 209 232 220 Q194 227 162 237 Q130 247 107 262.5 Q84 278 71.5 301.5 Q59 325 59 360 Q59 426 106.5 464 Q154 502 235 502 Z " />
<glyph glyph-name="Scaron" unicode="&#x160;" horiz-adv-x="524" d="M262 700 Q343 700 395.5 656.5 Q448 613 456 522 L385 514 Q379 549 367 572.5 Q355 596 337.5 610.5 Q320 625 299 631.5 Q278 638 256 638 Q232 638 210.5 631 Q189 624 172.5 610 Q156 596 146.5 575.5 Q137 555 137 529 Q137 498 147 476.5 Q157 455 176 439.5 Q195 424 222.5 412 Q250 400 285 388 Q331 372 366.5 354 Q402 336 426 312.5 Q450 289 462.5 258.5 Q475 228 475 187 Q475 143 459 106.5 Q443 70 414.5 44 Q386 18 346 4 Q306 -10 257 -10 Q161 -10 111 35.5 Q61 81 43 161 L110 181 Q122 123 157.5 88 Q193 53 259 53 Q325 53 364 88 Q403 123 403 183 Q403 214 391.5 237.5 Q380 261 359 278 Q338 295 309.5 308 Q281 321 247 332 Q210 344 177 358.5 Q144 373 119 394.5 Q94 416 79.5 447 Q65 478 65 523 Q65 563 79 595.5 Q93 628 119 651 Q145 674 181 687 Q217 700 262 700 Z M357 933 L395 907 L287 750 L236 750 L128 907 L166 933 L261 805 L357 933 Z " />
<glyph glyph-name="scaron" unicode="&#x161;" horiz-adv-x="468" d="M236 502 Q317 502 357.5 468 Q398 434 408 382 L347 364 Q337 404 305.5 424.5 Q274 445 229 445 Q183 445 153.5 423.5 Q124 402 124 364 Q124 344 130.5 330 Q137 316 152.5 305 Q168 294 193 286 Q218 278 255 271 Q294 263 324 253 Q354 243 375 227 Q396 211 406.5 188.5 Q417 166 417 134 Q417 69 370 29.5 Q323 -10 229 -10 Q143 -10 100 23.5 Q57 57 43 117 L104 133 Q116 93 147 69.5 Q178 46 235 46 Q295 46 323.5 70.5 Q352 95 352 130 Q352 170 322 189.5 Q292 209 232 220 Q194 227 162 237 Q130 247 107 262.5 Q84 278 71.5 301.5 Q59 325 59 360 Q59 426 107 464 Q155 502 236 502 Z M327 734 L365 708 L257 551 L206 551 L98 708 L136 734 L231 606 L327 734 Z " />
<glyph glyph-name="uni0162" unicode="&#x162;" horiz-adv-x="559" d="M244 0 L244 631 L41 631 L41 690 L518 690 L518 631 L315 631 L315 0 L244 0 Z M244 -60 L311 -60 L277 -219 L223 -218 L244 -60 Z " />
<glyph glyph-name="uni0163" unicode="&#x163;" horiz-adv-x="335" d="M31 491 L101 491 L101 589 L168 604 L168 491 L301 491 L301 440 L168 440 L168 138 Q168 91 188.5 73.5 Q209 56 260 55 L301 55 L301 0 L248 0 Q207 1 179 8.5 Q151 16 134 32 Q117 48 109 73.5 Q101 99 101 136 L101 440 L31 440 L31 491 Z M154 -60 L221 -60 L187 -219 L133 -218 L154 -60 Z " />
<glyph glyph-name="Tcaron" unicode="&#x164;" horiz-adv-x="559" d="M244 0 L244 631 L41 631 L41 690 L518 690 L518 631 L315 631 L315 0 L244 0 Z M376 933 L414 907 L306 750 L255 750 L147 907 L185 933 L280 805 L376 933 Z " />
<glyph glyph-name="tcaron" unicode="&#x165;" horiz-adv-x="335" d="M31 491 L101 491 L101 589 L168 604 L168 491 L301 491 L301 440 L168 440 L168 138 Q168 91 188.5 73.5 Q209 56 260 55 L301 55 L301 0 L248 0 Q207 1 179 8.5 Q151 16 134 32 Q117 48 109 73.5 Q101 99 101 136 L101 440 L31 440 L31 491 Z M266 740 L330 740 L295 581 L245 582 L266 740 Z " />
<glyph glyph-name="Tbar" unicode="&#x166;" horiz-adv-x="559" d="M244 0 L244 327 L145 327 L145 376 L244 376 L244 631 L41 631 L41 690 L518 690 L518 631 L315 631 L315 376 L415 376 L415 327 L315 327 L315 0 L244 0 Z " />
<glyph glyph-name="tbar" unicode="&#x167;" horiz-adv-x="335" d="M31 491 L101 491 L101 589 L168 604 L168 491 L301 491 L301 440 L168 440 L168 288 L291 288 L291 239 L168 239 L168 138 Q168 91 188.5 73.5 Q209 56 260 55 L301 55 L301 0 L248 0 Q207 1 179 8.5 Q151 16 134 32 Q117 48 109 73.5 Q101 99 101 136 L101 239 L38 239 L38 288 L101 288 L101 440 L31 440 L31 491 Z " />
<glyph glyph-name="Utilde" unicode="&#x168;" horiz-adv-x="684" d="M339 -10 Q223 -10 156 59 Q89 128 89 267 L89 690 L160 688 L160 268 Q160 158 208 105.5 Q256 53 343 53 Q425 53 474 106 Q523 159 523 265 L523 690 L594 690 L594 268 Q594 134 527.5 62 Q461 -10 339 -10 Z M195 826 Q209 853 230 870 Q251 887 275 887 Q293 887 309 879 Q325 871 339.5 861.5 Q354 852 368 844 Q382 836 397 836 Q426 836 451 876 L487 846 Q471 818 448.5 800 Q426 782 402 782 Q382 782 366.5 790 Q351 798 337 807.5 Q323 817 309 825 Q295 833 280 833 Q263 833 252 823 Q241 813 227 796 L195 826 Z " />
<glyph glyph-name="utilde" unicode="&#x169;" horiz-adv-x="549" d="M242 -10 Q199 -10 169.5 2 Q140 14 121.5 36.5 Q103 59 94.5 91.5 Q86 124 86 165 L86 491 L153 491 L153 176 Q153 110 178.5 80.5 Q204 51 259 51 Q307 51 339.5 72.5 Q372 94 398 126 L398 491 L465 491 L465 0 L402 0 L402 71 Q376 38 337.5 14 Q299 -10 242 -10 Z M129 627 Q143 654 164 671 Q185 688 209 688 Q227 688 243 680 Q259 672 273.5 663 Q288 654 302 646 Q316 638 331 638 Q360 638 385 677 L421 648 Q405 620 382.5 601.5 Q360 583 336 583 Q316 583 300.5 591 Q285 599 271 608.5 Q257 618 243 626 Q229 634 214 634 Q197 634 186 624 Q175 614 161 597 L129 627 Z " />
<glyph glyph-name="Umacron" unicode="&#x16a;" horiz-adv-x="684" d="M339 -10 Q223 -10 156 59 Q89 128 89 267 L89 690 L160 688 L160 268 Q160 158 208 105.5 Q256 53 343 53 Q425 53 474 106 Q523 159 523 265 L523 690 L594 690 L594 268 Q594 134 527.5 62 Q461 -10 339 -10 Z M215 818 L215 866 L468 866 L468 818 L215 818 Z " />
<glyph glyph-name="umacron" unicode="&#x16b;" horiz-adv-x="549" d="M242 -10 Q199 -10 169.5 2 Q140 14 121.5 36.5 Q103 59 94.5 91.5 Q86 124 86 165 L86 491 L153 491 L153 176 Q153 110 178.5 80.5 Q204 51 259 51 Q307 51 339.5 72.5 Q372 94 398 126 L398 491 L465 491 L465 0 L402 0 L402 71 Q376 38 337.5 14 Q299 -10 242 -10 Z M149 619 L149 668 L402 668 L402 619 L149 619 Z " />
<glyph glyph-name="Ubreve" unicode="&#x16c;" horiz-adv-x="684" d="M339 -10 Q223 -10 156 59 Q89 128 89 267 L89 690 L160 688 L160 268 Q160 158 208 105.5 Q256 53 343 53 Q425 53 474 106 Q523 159 523 265 L523 690 L594 690 L594 268 Q594 134 527.5 62 Q461 -10 339 -10 Z M341 750 Q286 750 252 790.5 Q218 831 207 905 L249 916 Q260 862 281 831 Q302 800 341 800 Q380 800 400.5 831 Q421 862 432 916 L475 905 Q464 831 430 790.5 Q396 750 341 750 Z " />
<glyph glyph-name="ubreve" unicode="&#x16d;" horiz-adv-x="549" d="M242 -10 Q199 -10 169.5 2 Q140 14 121.5 36.5 Q103 59 94.5 91.5 Q86 124 86 165 L86 491 L153 491 L153 176 Q153 110 178.5 80.5 Q204 51 259 51 Q307 51 339.5 72.5 Q372 94 398 126 L398 491 L465 491 L465 0 L402 0 L402 71 Q376 38 337.5 14 Q299 -10 242 -10 Z M275 551 Q220 551 186 592 Q152 633 141 706 L183 717 Q194 663 215 632.5 Q236 602 275 602 Q314 602 334.5 632.5 Q355 663 366 717 L409 706 Q398 633 364 592 Q330 551 275 551 Z " />
<glyph glyph-name="Uring" unicode="&#x16e;" horiz-adv-x="684" d="M339 -10 Q223 -10 156 59 Q89 128 89 267 L89 690 L160 688 L160 268 Q160 158 208 105.5 Q256 53 343 53 Q425 53 474 106 Q523 159 523 265 L523 690 L594 690 L594 268 Q594 134 527.5 62 Q461 -10 339 -10 Z M340 750 Q298 750 274.5 774 Q251 798 251 839 Q251 881 275.5 905.5 Q300 930 340 930 Q382 930 406.5 905.5 Q431 881 431 839 Q431 799 406 774.5 Q381 750 340 750 Z M340 783 Q366 783 381 798.5 Q396 814 396 840 Q396 866 381 881 Q366 896 340 896 Q315 896 300 880.5 Q285 865 285 839 Q285 814 300 798.5 Q315 783 340 783 Z " />
<glyph glyph-name="uring" unicode="&#x16f;" horiz-adv-x="549" d="M242 -10 Q199 -10 169.5 2 Q140 14 121.5 36.5 Q103 59 94.5 91.5 Q86 124 86 165 L86 491 L153 491 L153 176 Q153 110 178.5 80.5 Q204 51 259 51 Q307 51 339.5 72.5 Q372 94 398 126 L398 491 L465 491 L465 0 L402 0 L402 71 Q376 38 337.5 14 Q299 -10 242 -10 Z M274 551 Q232 551 208.5 575 Q185 599 185 641 Q185 682 209.5 706.5 Q234 731 274 731 Q316 731 340.5 707 Q365 683 365 640 Q365 600 340 575.5 Q315 551 274 551 Z M274 585 Q300 585 315 600 Q330 615 330 641 Q330 667 315 682.5 Q300 698 274 698 Q249 698 234 682 Q219 666 219 640 Q219 615 234 600 Q249 585 274 585 Z " />
<glyph glyph-name="Uhungarumlaut" unicode="&#x170;" horiz-adv-x="684" d="M339 -10 Q223 -10 156 59 Q89 128 89 267 L89 690 L160 688 L160 268 Q160 158 208 105.5 Q256 53 343 53 Q425 53 474 106 Q523 159 523 265 L523 690 L594 690 L594 268 Q594 134 527.5 62 Q461 -10 339 -10 Z M274 750 L236 769 L316 933 L363 907 L274 750 Z M400 750 L362 769 L442 933 L488 907 L400 750 Z " />
<glyph glyph-name="uhungarumlaut" unicode="&#x171;" horiz-adv-x="549" d="M242 -10 Q199 -10 169.5 2 Q140 14 121.5 36.5 Q103 59 94.5 91.5 Q86 124 86 165 L86 491 L153 491 L153 176 Q153 110 178.5 80.5 Q204 51 259 51 Q307 51 339.5 72.5 Q372 94 398 126 L398 491 L465 491 L465 0 L402 0 L402 71 Q376 38 337.5 14 Q299 -10 242 -10 Z M208 551 L170 571 L250 734 L297 708 L208 551 Z M334 551 L296 571 L376 734 L422 708 L334 551 Z " />
<glyph glyph-name="Uogonek" unicode="&#x172;" horiz-adv-x="684" d="M339 -10 Q223 -10 156 59 Q89 128 89 267 L89 690 L160 688 L160 268 Q160 158 208 105.5 Q256 53 343 53 Q425 53 474 106 Q523 159 523 265 L523 690 L594 690 L594 268 Q594 152 544.5 82.5 Q495 13 402 -4 Q374 -43 357.5 -79 Q341 -115 341 -150 Q341 -186 360.5 -203 Q380 -220 402 -220 Q428 -220 446.5 -207.5 Q465 -195 477 -178 L504 -203 Q492 -221 465 -240.5 Q438 -260 396 -260 Q351 -260 322.5 -233.5 Q294 -207 294 -159 Q294 -124 309 -88.5 Q324 -53 354 -10 L339 -10 L339 -10 Z " />
<glyph glyph-name="uogonek" unicode="&#x173;" horiz-adv-x="549" d="M241 -10 Q156 -10 121 36.5 Q86 83 86 165 L86 491 L153 491 L153 176 Q153 110 178.5 80.5 Q204 51 259 51 Q307 51 339 72.5 Q371 94 397 126 L397 491 L464 491 L464 0 L439 0 Q410 -40 392.5 -77 Q375 -114 375 -150 Q375 -186 394.5 -203 Q414 -220 436 -220 Q462 -220 480.5 -207.5 Q499 -195 511 -178 L538 -203 Q526 -221 499 -240.5 Q472 -260 430 -260 Q385 -260 356.5 -233.5 Q328 -207 328 -159 Q328 -121 346.5 -80.5 Q365 -40 402 9 L402 71 Q375 38 336.5 14 Q298 -10 241 -10 Z " />
<glyph glyph-name="Wcircumflex" unicode="&#x174;" horiz-adv-x="931" d="M275 0 L39 690 L112 690 L307 98 L437 471 Q417 520 405.5 556 Q394 592 394 619 Q394 662 416 681 Q438 700 466 700 Q495 700 515.5 681.5 Q536 663 536 623 Q536 594 523.5 561 Q511 528 493 482 L631 103 L822 690 L892 690 L660 0 L609 0 L463 397 L327 0 L275 0 Z M465 651 Q442 651 442 622 Q442 608 449.5 586 Q457 564 466 535 Q477 566 482.5 586.5 Q488 607 488 622 Q488 651 465 651 Z M465 877 L369 750 L331 776 L440 933 L490 933 L599 776 L561 750 L465 877 Z " />
<glyph glyph-name="wcircumflex" unicode="&#x175;" horiz-adv-x="729" d="M32 491 L101 491 L227 70 L343 405 L388 405 L506 71 L629 491 L697 491 L540 0 L473 0 L362 312 L255 0 L188 0 L32 491 Z M364 679 L268 551 L230 577 L339 734 L389 734 L498 577 L460 551 L364 679 Z " />
<glyph glyph-name="Ycircumflex" unicode="&#x176;" horiz-adv-x="585" d="M257 0 L257 239 L21 690 L100 690 L295 298 L491 690 L564 690 L328 239 L328 0 L257 0 Z M293 877 L197 750 L159 776 L268 933 L318 933 L427 776 L389 750 L293 877 Z " />
<glyph glyph-name="ycircumflex" unicode="&#x177;" horiz-adv-x="502" d="M224 -8 L38 491 L111 491 L256 73 L400 491 L470 491 L240 -129 Q217 -194 181 -222 Q145 -250 88 -250 L52 -250 L52 -195 L89 -195 Q121 -195 142.5 -180 Q164 -165 178 -130 L224 -8 Z M249 679 L153 551 L115 577 L224 734 L274 734 L383 577 L345 551 L249 679 Z " />
<glyph glyph-name="Ydieresis" unicode="&#x178;" horiz-adv-x="585" d="M257 0 L257 239 L21 690 L100 690 L295 298 L491 690 L564 690 L328 239 L328 0 L257 0 Z M220 797 Q203 797 193 807 Q183 817 183 834 Q183 852 193 861.5 Q203 871 220 871 Q258 871 258 834 Q258 797 220 797 Z M365 797 Q328 797 328 834 Q328 871 365 871 Q402 871 402 834 Q402 797 365 797 Z " />
<glyph glyph-name="Zacute" unicode="&#x179;" horiz-adv-x="562" d="M126 59 L514 59 L514 0 L46 0 L46 59 L423 631 L63 631 L63 690 L504 690 L504 630 L126 59 Z M284 750 L241 776 L341 933 L392 901 L284 750 Z " />
<glyph glyph-name="zacute" unicode="&#x17a;" horiz-adv-x="445" d="M113 55 L411 55 L411 0 L34 0 L34 50 L329 437 L54 437 L54 491 L408 491 L408 441 L113 55 Z M226 551 L183 577 L283 734 L334 702 L226 551 Z " />
<glyph glyph-name="Zdotaccent" unicode="&#x17b;" horiz-adv-x="562" d="M126 59 L514 59 L514 0 L46 0 L46 59 L423 631 L63 631 L63 690 L504 690 L504 630 L126 59 Z M237 834 Q237 855 248.5 866.5 Q260 878 280 878 Q300 878 312.5 866.5 Q325 855 325 834 Q325 814 312.5 802 Q300 790 280 790 Q260 790 248.5 802 Q237 814 237 834 Z " />
<glyph glyph-name="zdotaccent" unicode="&#x17c;" horiz-adv-x="445" d="M113 55 L411 55 L411 0 L34 0 L34 50 L329 437 L54 437 L54 491 L408 491 L408 441 L113 55 Z M183 635 Q183 656 194.5 668 Q206 680 226 680 Q246 680 258.5 668 Q271 656 271 635 Q271 615 258.5 603.5 Q246 592 226 592 Q206 592 194.5 603.5 Q183 615 183 635 Z " />
<glyph glyph-name="Zcaron" unicode="&#x17d;" horiz-adv-x="562" d="M126 59 L514 59 L514 0 L46 0 L46 59 L423 631 L63 631 L63 690 L504 690 L504 630 L126 59 Z M373 933 L411 907 L303 750 L252 750 L144 907 L182 933 L277 805 L373 933 Z " />
<glyph glyph-name="zcaron" unicode="&#x17e;" horiz-adv-x="445" d="M113 55 L411 55 L411 0 L34 0 L34 50 L329 437 L54 437 L54 491 L408 491 L408 441 L113 55 Z M335 734 L373 708 L265 551 L214 551 L106 708 L144 734 L239 606 L335 734 Z " />
<glyph glyph-name="florin" unicode="&#x192;" horiz-adv-x="409" d="M87 450 L164 449 L164 569 Q164 607 171 634.5 Q178 662 195.5 680 Q213 698 242 706.5 Q271 715 315 716 L374 717 L376 666 L327 665 Q273 664 252 643 Q231 622 231 566 L231 448 L365 447 L364 396 L231 397 L231 143 Q231 105 223.5 77.5 Q216 50 198.5 32 Q181 14 152 5 Q123 -4 79 -5 L20 -6 L18 45 L67 46 Q121 48 142.5 68.5 Q164 89 164 145 L164 398 L90 399 L87 450 Z " />
<glyph glyph-name="uni0218" unicode="&#x218;" horiz-adv-x="524" d="M262 700 Q343 700 395.5 656.5 Q448 613 456 522 L385 514 Q379 549 367 572.5 Q355 596 337.5 610.5 Q320 625 299 631.5 Q278 638 256 638 Q232 638 210.5 631 Q189 624 172.5 610 Q156 596 146.5 575.5 Q137 555 137 529 Q137 498 147 476.5 Q157 455 176 439.5 Q195 424 222.5 412 Q250 400 285 388 Q331 372 366.5 354 Q402 336 426 312.5 Q450 289 462.5 258.5 Q475 228 475 187 Q475 143 459 106.5 Q443 70 414.5 44 Q386 18 346 4 Q306 -10 257 -10 Q161 -10 111 35.5 Q61 81 43 161 L110 181 Q122 123 157.5 88 Q193 53 259 53 Q325 53 364 88 Q403 123 403 183 Q403 214 391.5 237.5 Q380 261 359 278 Q338 295 309.5 308 Q281 321 247 332 Q210 344 177 358.5 Q144 373 119 394.5 Q94 416 79.5 447 Q65 478 65 523 Q65 563 79 595.5 Q93 628 119 651 Q145 674 181 687 Q217 700 262 700 Z M231 -60 L298 -60 L264 -219 L210 -218 L231 -60 Z " />
<glyph glyph-name="uni0219" unicode="&#x219;" horiz-adv-x="468" d="M236 502 Q317 502 357.5 468 Q398 434 408 382 L347 364 Q337 404 305.5 424.5 Q274 445 229 445 Q183 445 153.5 423.5 Q124 402 124 364 Q124 344 130.5 330 Q137 316 152.5 305 Q168 294 193 286 Q218 278 255 271 Q294 263 324 253 Q354 243 375 227 Q396 211 406.5 188.5 Q417 166 417 134 Q417 69 370 29.5 Q323 -10 229 -10 Q143 -10 100 23.5 Q57 57 43 117 L104 133 Q116 93 147 69.5 Q178 46 235 46 Q295 46 323.5 70.5 Q352 95 352 130 Q352 170 322 189.5 Q292 209 232 220 Q194 227 162 237 Q130 247 107 262.5 Q84 278 71.5 301.5 Q59 325 59 360 Q59 426 107 464 Q155 502 236 502 Z M189 -60 L256 -60 L222 -219 L168 -218 L189 -60 Z " />
<glyph glyph-name="uni021A" unicode="&#x21a;" horiz-adv-x="559" d="M244 0 L244 631 L41 631 L41 690 L518 690 L518 631 L315 631 L315 0 L244 0 Z M244 -60 L311 -60 L277 -219 L223 -218 L244 -60 Z " />
<glyph glyph-name="uni021B" unicode="&#x21b;" horiz-adv-x="335" d="M31 491 L101 491 L101 589 L168 604 L168 491 L301 491 L301 440 L168 440 L168 138 Q168 91 188.5 73.5 Q209 56 260 55 L301 55 L301 0 L248 0 Q207 1 179 8.5 Q151 16 134 32 Q117 48 109 73.5 Q101 99 101 136 L101 440 L31 440 L31 491 Z M154 -60 L221 -60 L187 -219 L133 -218 L154 -60 Z " />
<glyph glyph-name="dotlessj" unicode="&#x237;" horiz-adv-x="244" d="M10 -220 L18 -220 Q57 -220 72.5 -200.5 Q88 -181 88 -139 L88 491 L155 491 L155 -136 Q155 -208 124.5 -241.5 Q94 -275 24 -275 L8 -275 L10 -220 Z " />
<glyph glyph-name="circumflex" unicode="&#x2c6;" horiz-adv-x="530" d="M265 679 L169 551 L131 577 L240 734 L290 734 L399 577 L361 551 L265 679 Z " />
<glyph glyph-name="caron" unicode="&#x2c7;" horiz-adv-x="530" d="M357 734 L395 708 L287 551 L236 551 L128 708 L166 734 L261 606 L357 734 Z " />
<glyph glyph-name="breve" unicode="&#x2d8;" horiz-adv-x="530" d="M265 551 Q210 551 176 592 Q142 633 131 706 L173 717 Q184 663 205 632.5 Q226 602 265 602 Q304 602 324.5 632.5 Q345 663 356 717 L399 706 Q388 633 354 592 Q320 551 265 551 Z " />
<glyph glyph-name="dotaccent" unicode="&#x2d9;" horiz-adv-x="530" d="M221 635 Q221 656 232.5 668 Q244 680 264 680 Q284 680 296.5 668 Q309 656 309 635 Q309 615 296.5 603.5 Q284 592 264 592 Q244 592 232.5 603.5 Q221 615 221 635 Z " />
<glyph glyph-name="ring" unicode="&#x2da;" horiz-adv-x="530" d="M264 551 Q222 551 198.5 575 Q175 599 175 641 Q175 682 199.5 706.5 Q224 731 264 731 Q306 731 330.5 707 Q355 683 355 640 Q355 600 330 575.5 Q305 551 264 551 Z M264 585 Q290 585 305 600 Q320 615 320 641 Q320 667 305 682.5 Q290 698 264 698 Q239 698 224 682 Q209 666 209 640 Q209 615 224 600 Q239 585 264 585 Z " />
<glyph glyph-name="ogonek" unicode="&#x2db;" horiz-adv-x="530" d="M317 87 Q291 53 267.5 22 Q244 -9 226 -38 Q208 -67 197.5 -95 Q187 -123 187 -150 Q187 -186 206.5 -203 Q226 -220 248 -220 Q274 -220 293 -207.5 Q312 -195 323 -178 L350 -203 Q338 -221 311.5 -240.5 Q285 -260 242 -260 Q197 -260 168.5 -233.5 Q140 -207 140 -159 Q140 -132 150 -103.5 Q160 -75 179 -43 Q198 -11 226.5 25 Q255 61 291 104 L317 87 Z " />
<glyph glyph-name="tilde" unicode="&#x2dc;" horiz-adv-x="530" d="M119 627 Q133 654 154 671 Q175 688 199 688 Q217 688 233 680 Q249 672 263.5 663 Q278 654 292 646 Q306 638 321 638 Q350 638 375 677 L411 648 Q395 620 372.5 601.5 Q350 583 326 583 Q306 583 290.5 591 Q275 599 261 608.5 Q247 618 233 626 Q219 634 204 634 Q187 634 176 624 Q165 614 151 597 L119 627 Z " />
<glyph glyph-name="hungarumlaut" unicode="&#x2dd;" horiz-adv-x="530" d="M198 551 L160 571 L240 734 L287 708 L198 551 Z M324 551 L286 571 L366 734 L412 708 L324 551 Z " />
<glyph glyph-name="uni0394" unicode="&#x394;" horiz-adv-x="567" d="M534 0 L33 0 L33 47 L258 690 L309 690 L534 47 L534 0 Z M467 55 L283 608 L100 55 L467 55 Z " />
<glyph glyph-name="uni03A9" unicode="&#x3a9;" horiz-adv-x="757" d="M67 56 L238 56 Q161 86 114 160 Q67 234 67 351 Q67 426 89.5 490 Q112 554 153.5 600.5 Q195 647 252 673.5 Q309 700 378 700 Q450 700 508 674.5 Q566 649 606.5 603.5 Q647 558 668.5 493.5 Q690 429 690 351 Q690 293 676.5 245.5 Q663 198 639.5 161 Q616 124 584 97.5 Q552 71 514 56 L690 56 L690 0 L412 0 L412 56 Q454 60 491 81.5 Q528 103 556 139.5 Q584 176 600.5 227.5 Q617 279 617 344 Q617 481 554.5 558 Q492 635 378 635 Q322 635 278 614.5 Q234 594 203.5 556 Q173 518 156.5 464.5 Q140 411 140 346 Q140 278 156 226 Q172 174 200.5 138 Q229 102 267.5 81.5 Q306 61 351 56 L351 0 L67 0 L67 56 Z " />
<glyph glyph-name="pi" unicode="&#x3c0;" horiz-adv-x="582" d="M111 0 L111 440 L33 440 L33 491 L552 491 L552 440 L472 440 L472 0 L405 0 L405 440 L178 440 L178 0 L111 0 Z " />
<glyph glyph-name="Wgrave" unicode="&#x1e80;" horiz-adv-x="931" d="M275 0 L39 690 L112 690 L307 98 L437 471 Q417 520 405.5 556 Q394 592 394 619 Q394 662 416 681 Q438 700 466 700 Q495 700 515.5 681.5 Q536 663 536 623 Q536 594 523.5 561 Q511 528 493 482 L631 103 L822 690 L892 690 L660 0 L609 0 L463 397 L327 0 L275 0 Z M465 651 Q442 651 442 622 Q442 608 449.5 586 Q457 564 466 535 Q477 566 482.5 586.5 Q488 607 488 622 Q488 651 465 651 Z M360 901 L410 933 L510 776 L468 750 L360 901 Z " />
<glyph glyph-name="wgrave" unicode="&#x1e81;" horiz-adv-x="729" d="M32 491 L101 491 L227 70 L343 405 L388 405 L506 71 L629 491 L697 491 L540 0 L473 0 L362 312 L255 0 L188 0 L32 491 Z M259 702 L309 734 L409 577 L367 551 L259 702 Z " />
<glyph glyph-name="Wacute" unicode="&#x1e82;" horiz-adv-x="931" d="M275 0 L39 690 L112 690 L307 98 L437 471 Q417 520 405.5 556 Q394 592 394 619 Q394 662 416 681 Q438 700 466 700 Q495 700 515.5 681.5 Q536 663 536 623 Q536 594 523.5 561 Q511 528 493 482 L631 103 L822 690 L892 690 L660 0 L609 0 L463 397 L327 0 L275 0 Z M465 651 Q442 651 442 622 Q442 608 449.5 586 Q457 564 466 535 Q477 566 482.5 586.5 Q488 607 488 622 Q488 651 465 651 Z M468 750 L425 776 L525 933 L576 901 L468 750 Z " />
<glyph glyph-name="wacute" unicode="&#x1e83;" horiz-adv-x="729" d="M32 491 L101 491 L227 70 L343 405 L388 405 L506 71 L629 491 L697 491 L540 0 L473 0 L362 312 L255 0 L188 0 L32 491 Z M367 551 L324 577 L424 734 L475 702 L367 551 Z " />
<glyph glyph-name="Wdieresis" unicode="&#x1e84;" horiz-adv-x="931" d="M275 0 L39 690 L112 690 L307 98 L437 471 Q417 520 405.5 556 Q394 592 394 619 Q394 662 416 681 Q438 700 466 700 Q495 700 515.5 681.5 Q536 663 536 623 Q536 594 523.5 561 Q511 528 493 482 L631 103 L822 690 L892 690 L660 0 L609 0 L463 397 L327 0 L275 0 Z M465 651 Q442 651 442 622 Q442 608 449.5 586 Q457 564 466 535 Q477 566 482.5 586.5 Q488 607 488 622 Q488 651 465 651 Z M392 797 Q375 797 365 807 Q355 817 355 834 Q355 852 365 861.5 Q375 871 392 871 Q430 871 430 834 Q430 797 392 797 Z M537 797 Q500 797 500 834 Q500 871 537 871 Q574 871 574 834 Q574 797 537 797 Z " />
<glyph glyph-name="wdieresis" unicode="&#x1e85;" horiz-adv-x="729" d="M32 491 L101 491 L227 70 L343 405 L388 405 L506 71 L629 491 L697 491 L540 0 L473 0 L362 312 L255 0 L188 0 L32 491 Z M291 598 Q274 598 264 608 Q254 618 254 635 Q254 653 264 663 Q274 673 291 673 Q329 673 329 635 Q329 618 319 608 Q309 598 291 598 Z M436 598 Q419 598 409 608 Q399 618 399 635 Q399 673 436 673 Q473 673 473 635 Q473 618 463 608 Q453 598 436 598 Z " />
<glyph glyph-name="Ygrave" unicode="&#x1ef2;" horiz-adv-x="585" d="M257 0 L257 239 L21 690 L100 690 L295 298 L491 690 L564 690 L328 239 L328 0 L257 0 Z M188 901 L238 933 L338 776 L296 750 L188 901 Z " />
<glyph glyph-name="ygrave" unicode="&#x1ef3;" horiz-adv-x="502" d="M224 -8 L38 491 L111 491 L256 73 L400 491 L470 491 L240 -129 Q217 -194 181 -222 Q145 -250 88 -250 L52 -250 L52 -195 L89 -195 Q121 -195 142.5 -180 Q164 -165 178 -130 L224 -8 Z M144 702 L194 734 L294 577 L252 551 L144 702 Z " />
<glyph glyph-name="endash" unicode="&#x2013;" horiz-adv-x="503" d="M47 227 L47 278 L456 278 L456 227 L47 227 Z " />
<glyph glyph-name="emdash" unicode="&#x2014;" horiz-adv-x="1003" d="M47 227 L47 278 L956 278 L956 227 L47 227 Z " />
<glyph glyph-name="quoteleft" unicode="&#x2018;" horiz-adv-x="183" d="M119 565 L50 565 L85 740 L141 739 L119 565 Z " />
<glyph glyph-name="quoteright" unicode="&#x2019;" horiz-adv-x="183" d="M69 740 L139 740 L103 565 L47 566 L69 740 Z " />
<glyph glyph-name="quotesinglbase" unicode="&#x201a;" horiz-adv-x="183" d="M63 20 L133 20 L97 -155 L41 -154 L63 20 Z " />
<glyph glyph-name="quotedblleft" unicode="&#x201c;" horiz-adv-x="337" d="M273 565 L204 565 L239 740 L295 739 L273 565 Z M119 565 L50 565 L85 740 L141 739 L119 565 Z " />
<glyph glyph-name="quotedblright" unicode="&#x201d;" horiz-adv-x="337" d="M223 740 L293 740 L257 565 L201 566 L223 740 Z M69 740 L139 740 L103 565 L47 566 L69 740 Z " />
<glyph glyph-name="quotedblbase" unicode="&#x201e;" horiz-adv-x="337" d="M217 20 L287 20 L251 -155 L195 -154 L217 20 Z M63 20 L133 20 L97 -155 L41 -154 L63 20 Z " />
<glyph glyph-name="dagger" unicode="&#x2020;" horiz-adv-x="384" d="M33 531 L154 530 L154 700 L219 700 L219 529 L352 528 L351 471 L219 472 L219 0 L154 0 L154 473 L32 474 L33 531 Z " />
<glyph glyph-name="daggerdbl" unicode="&#x2021;" horiz-adv-x="384" d="M33 531 L154 530 L154 700 L219 700 L219 529 L352 528 L351 471 L219 472 L219 227 L352 226 L351 169 L219 170 L219 0 L154 0 L154 171 L32 172 L33 229 L154 228 L154 473 L32 474 L33 531 Z " />
<glyph glyph-name="bullet" unicode="&#x2022;" horiz-adv-x="340" d="M96 342 Q96 372 118 394 Q140 416 170 416 Q200 416 222 394 Q244 372 244 342 Q244 312 222 290 Q200 268 170 268 Q140 268 118 290 Q96 312 96 342 Z " />
<glyph glyph-name="ellipsis" unicode="&#x2026;" horiz-adv-x="682" d="M81 33 Q81 54 94 67 Q107 80 128 80 Q149 80 162 67 Q175 54 175 33 Q175 12 162 -1 Q149 -14 128 -14 Q107 -14 94 -1 Q81 12 81 33 Z M294 33 Q294 54 307 67 Q320 80 341 80 Q362 80 375 67 Q388 54 388 33 Q388 12 375 -1 Q362 -14 341 -14 Q320 -14 307 -1 Q294 12 294 33 Z M507 33 Q507 54 520 67 Q533 80 554 80 Q575 80 588 67 Q601 54 601 33 Q601 12 588 -1 Q575 -14 554 -14 Q533 -14 520 -1 Q507 12 507 33 Z " />
<glyph glyph-name="perthousand" unicode="&#x2030;" horiz-adv-x="1177" d="M100 18 L664 704 L701 674 L138 -14 L100 18 Z M213 390 Q233 390 251.5 397.5 Q270 405 283.5 421 Q297 437 305 462.5 Q313 488 313 523 Q313 590 284 621.5 Q255 653 213 653 Q172 653 142.5 621.5 Q113 590 113 520 Q113 453 141.5 421.5 Q170 390 213 390 Z M213 339 Q179 339 150.5 350 Q122 361 101 383.5 Q80 406 68 439.5 Q56 473 56 519 Q56 568 69.5 603.5 Q83 639 105 661 Q127 683 155 693.5 Q183 704 213 704 Q247 704 275.5 693 Q304 682 325 659.5 Q346 637 358 603.5 Q370 570 370 524 Q370 474 356.5 439 Q343 404 321 382 Q299 360 271 349.5 Q243 339 213 339 Z M590 37 Q610 37 628.5 44.5 Q647 52 660.5 68 Q674 84 682 109.5 Q690 135 690 170 Q690 237 661.5 268.5 Q633 300 590 300 Q549 300 519.5 268.5 Q490 237 490 167 Q490 100 519 68.5 Q548 37 590 37 Z M590 -14 Q556 -14 527.5 -3 Q499 8 478 30.5 Q457 53 445 86.5 Q433 120 433 166 Q433 215 446.5 250.5 Q460 286 482 308 Q504 330 532 340.5 Q560 351 590 351 Q624 351 652.5 340 Q681 329 702 306.5 Q723 284 735 250.5 Q747 217 747 171 Q747 121 733.5 86 Q720 51 698 29 Q676 7 648 -3.5 Q620 -14 590 -14 Z M964 37 Q984 37 1002.5 44.5 Q1021 52 1035 68 Q1049 84 1057 109.5 Q1065 135 1065 170 Q1065 237 1036 268.5 Q1007 300 964 300 Q924 300 894 268.5 Q864 237 864 167 Q864 100 893 68.5 Q922 37 964 37 Z M964 -14 Q931 -14 902 -3 Q873 8 852 30.5 Q831 53 819 86.5 Q807 120 807 166 Q807 215 820.5 250.5 Q834 286 856 308 Q878 330 906.5 340.5 Q935 351 964 351 Q998 351 1027 340 Q1056 329 1077 306.5 Q1098 284 1110 250.5 Q1122 217 1122 171 Q1122 121 1108.5 86 Q1095 51 1072.5 29 Q1050 7 1022 -3.5 Q994 -14 964 -14 Z " />
<glyph glyph-name="guilsinglleft" unicode="&#x2039;" horiz-adv-x="343" d="M61 264 L221 413 L260 370 L114 241 L261 111 L222 68 L61 217 L61 264 Z " />
<glyph glyph-name="guilsinglright" unicode="&#x203a;" horiz-adv-x="343" d="M282 217 L122 68 L83 111 L229 241 L83 370 L122 413 L282 264 L282 217 Z " />
<glyph glyph-name="fraction" unicode="&#x2044;" horiz-adv-x="78" d="M-261 18 L302 704 L340 674 L-224 -14 L-261 18 Z " />
<glyph glyph-name="foursuperior" unicode="&#x2074;" horiz-adv-x="341" d="M16 451 L192 703 L243 703 L243 458 L298 458 L298 415 L243 415 L243 347 L193 347 L193 415 L16 415 L16 451 Z M71 458 L193 458 L193 639 L71 458 Z " />
<glyph glyph-name="Euro" unicode="&#x20ac;" horiz-adv-x="658" d="M22 449 L114 449 Q125 513 149 560.5 Q173 608 206.5 639 Q240 670 282.5 685 Q325 700 372 700 Q447 700 504.5 666 Q562 632 588 560 L521 540 Q497 589 458.5 613.5 Q420 638 372 638 Q304 638 254.5 592.5 Q205 547 188 449 L406 449 L406 402 L182 402 Q181 388 180.5 374.5 Q180 361 180 346 Q180 331 180.5 317 Q181 303 182 289 L406 289 L406 242 L188 242 Q206 144 256 98.5 Q306 53 374 53 Q431 53 475 84.5 Q519 116 540 184 L608 170 Q579 78 517 34 Q455 -10 374 -10 Q272 -10 202.5 52.5 Q133 115 113 242 L22 242 L22 289 L108 289 Q107 303 106.5 316.5 Q106 330 106 345 Q106 360 106.5 374 Q107 388 108 402 L22 402 L22 449 Z " />
<glyph glyph-name="uni2113" unicode="&#x2113;" horiz-adv-x="519" d="M23 173 Q48 185 72.5 199.5 Q97 214 121 231 Q125 321 151 405.5 Q177 490 216.5 555.5 Q256 621 303.5 660.5 Q351 700 397 700 Q437 700 455 674.5 Q473 649 473 611 Q473 563 451 511 Q429 459 390 407 Q351 355 297.5 304.5 Q244 254 181 210 Q185 47 268 47 Q304 47 337 72.5 Q370 98 400 133 L438 96 Q422 76 402.5 57 Q383 38 360 23 Q337 8 311 -1 Q285 -10 257 -10 Q202 -10 165 35 Q128 80 122 171 Q103 160 84.5 149 Q66 138 46 128 L23 173 Z M381 642 Q354 642 322.5 608.5 Q291 575 262.5 522.5 Q234 470 212.5 405 Q191 340 184 276 Q231 313 272 354 Q313 395 344 437 Q375 479 392.5 520 Q410 561 410 597 Q410 618 403.5 630 Q397 642 381 642 Z " />
<glyph glyph-name="trademark" unicode="&#x2122;" horiz-adv-x="787" d="M352 347 L352 696 L398 696 L514 505 L627 696 L677 696 L677 347 L627 347 L627 631 L524 456 L503 456 L398 626 L398 347 L352 347 Z M129 347 L129 655 L28 655 L28 696 L280 696 L280 655 L180 655 L180 347 L129 347 Z " />
<glyph glyph-name="Omega" unicode="&#x2126;" horiz-adv-x="757" d="M67 56 L238 56 Q161 86 114 160 Q67 234 67 351 Q67 426 89.5 490 Q112 554 153.5 600.5 Q195 647 252 673.5 Q309 700 378 700 Q450 700 508 674.5 Q566 649 606.5 603.5 Q647 558 668.5 493.5 Q690 429 690 351 Q690 293 676.5 245.5 Q663 198 639.5 161 Q616 124 584 97.5 Q552 71 514 56 L690 56 L690 0 L412 0 L412 56 Q454 60 491 81.5 Q528 103 556 139.5 Q584 176 600.5 227.5 Q617 279 617 344 Q617 481 554.5 558 Q492 635 378 635 Q322 635 278 614.5 Q234 594 203.5 556 Q173 518 156.5 464.5 Q140 411 140 346 Q140 278 156 226 Q172 174 200.5 138 Q229 102 267.5 81.5 Q306 61 351 56 L351 0 L67 0 L67 56 Z " />
<glyph glyph-name="estimated" unicode="&#x212e;" horiz-adv-x="718" d="M168 257 Q164 257 164 254 L164 104 Q164 95 171 86 Q206 49 254.5 27.5 Q303 6 359 6 Q419 6 469.5 30 Q520 54 556 96 L600 96 Q558 48 495.5 18.5 Q433 -11 358 -11 Q295 -11 239 10.5 Q183 32 141.5 69.5 Q100 107 76 157 Q52 207 52 264 Q52 321 76 371.5 Q100 422 141.5 459.5 Q183 497 239 519 Q295 541 358 541 Q421 541 477 519 Q533 497 574.5 459.5 Q616 422 640 371.5 Q664 321 664 264 L664 257 L168 257 Z M552 427 Q552 438 544 446 Q509 482 461.5 503 Q414 524 359 524 Q304 524 255.5 502.5 Q207 481 172 443 Q164 437 164 424 L164 276 Q164 272 168 272 L549 272 Q552 272 552 276 L552 427 Z " />
<glyph glyph-name="partialdiff" unicode="&#x2202;" horiz-adv-x="550" d="M275 -10 Q222 -10 180.5 8 Q139 26 109.5 59 Q80 92 64.5 139 Q49 186 49 243 Q49 301 66 348.5 Q83 396 113 430 Q143 464 184.5 482.5 Q226 501 275 501 Q307 501 335.5 494 Q364 487 388 474 Q355 549 302.5 604 Q250 659 186 697 L211 740 Q273 706 325.5 657.5 Q378 609 416.5 548.5 Q455 488 477 415 Q499 342 501 260 L501 249 Q501 190 484 142.5 Q467 95 437 61 Q407 27 365.5 8.5 Q324 -10 275 -10 Z M275 51 Q308 51 337 64 Q366 77 387 102.5 Q408 128 420 164 Q432 200 432 247 Q432 341 389.5 391 Q347 441 275 441 Q242 441 213 428 Q184 415 163 389.5 Q142 364 130 327.5 Q118 291 118 245 Q118 151 161 101 Q204 51 275 51 Z " />
<glyph glyph-name="Delta" unicode="&#x2206;" horiz-adv-x="567" d="M534 0 L33 0 L33 47 L258 690 L309 690 L534 47 L534 0 Z M467 55 L283 608 L100 55 L467 55 Z " />
<glyph glyph-name="product" unicode="&#x220f;" horiz-adv-x="740" d="M522 -180 L522 631 L217 631 L217 -180 L146 -180 L146 631 L52 631 L52 690 L686 690 L686 631 L593 631 L593 -180 L522 -180 Z " />
<glyph glyph-name="summation" unicode="&#x2211;" horiz-adv-x="594" d="M543 -121 L543 -180 L40 -180 L40 -121 L308 275 L42 631 L42 690 L536 690 L536 631 L119 631 L385 275 L115 -121 L543 -121 Z " />
<glyph glyph-name="minus" unicode="&#x2212;" horiz-adv-x="482" d="M57 355 L425 355 L425 299 L57 299 L57 355 Z " />
<glyph glyph-name="uni2215" unicode="&#x2215;" horiz-adv-x="78" d="M-261 18 L302 704 L340 674 L-224 -14 L-261 18 Z " />
<glyph glyph-name="radical" unicode="&#x221a;" horiz-adv-x="571" d="M539 688 L285 -6 L209 -6 L51 358 L103 381 L247 42 L479 690 L539 688 Z " />
<glyph glyph-name="infinity" unicode="&#x221e;" horiz-adv-x="738" d="M214 135 Q178 135 146 148 Q114 161 90 187 Q66 213 51.5 252 Q37 291 37 344 Q37 396 50.5 435.5 Q64 475 87.5 501.5 Q111 528 142 541.5 Q173 555 209 555 Q269 555 310.5 523 Q352 491 369 431 Q386 490 427 522.5 Q468 555 527 555 Q564 555 595.5 542 Q627 529 650.5 502.5 Q674 476 687.5 436.5 Q701 397 701 344 Q701 293 687.5 253.5 Q674 214 650 188 Q626 162 594 148.5 Q562 135 526 135 Q468 135 427 166 Q386 197 369 255 Q352 198 312 166.5 Q272 135 214 135 Z M523 205 Q572 205 606.5 240 Q641 275 641 345 Q641 381 631.5 407.5 Q622 434 605.5 451 Q589 468 567.5 476.5 Q546 485 521 485 Q496 485 474 476 Q452 467 435.5 449.5 Q419 432 409.5 406 Q400 380 400 345 Q400 308 410.5 281.5 Q421 255 438 238 Q455 221 477 213 Q499 205 523 205 Z M218 205 Q242 205 263.5 213.5 Q285 222 301.5 239 Q318 256 328 282.5 Q338 309 338 345 Q338 416 303.5 450.5 Q269 485 215 485 Q192 485 171 476.5 Q150 468 133.5 450.5 Q117 433 107 406.5 Q97 380 97 345 Q97 310 107 283.5 Q117 257 133.5 239.5 Q150 222 172 213.5 Q194 205 218 205 Z " />
<glyph glyph-name="integral" unicode="&#x222b;" horiz-adv-x="424" d="M35 -159 L82 -159 Q136 -159 157 -137 Q178 -115 178 -59 L178 569 Q178 607 185.5 635 Q193 663 210.5 681 Q228 699 257 708 Q286 717 330 717 L389 717 L389 666 L342 666 Q288 666 267 644 Q246 622 246 566 L246 -61 Q246 -99 238.5 -127 Q231 -155 213.5 -173.5 Q196 -192 167 -201 Q138 -210 94 -210 L35 -210 L35 -159 Z " />
<glyph glyph-name="approxequal" unicode="&#x2248;" horiz-adv-x="482" d="M57 252 Q80 275 102 284.5 Q124 294 146 294 Q170 294 194 284.5 Q218 275 242 264 Q266 253 290 243 Q314 233 339 233 Q359 232 380.5 240.5 Q402 249 425 270 L425 213 Q402 191 380.5 183.5 Q359 176 339 177 Q314 177 290 186.5 Q266 196 242 207.5 Q218 219 194 228 Q170 237 146 237 Q124 237 102 227.5 Q80 218 57 194 L57 252 Z M57 446 Q80 469 102 478.5 Q124 488 146 488 Q170 488 194 478.5 Q218 469 242 458 Q266 447 290 437 Q314 427 339 427 Q359 426 380.5 434.5 Q402 443 425 464 L425 407 Q402 385 380.5 377.5 Q359 370 339 371 Q314 371 290 380.5 Q266 390 242 401.5 Q218 413 194 422 Q170 431 146 431 Q124 431 102 421.5 Q80 412 57 388 L57 446 Z " />
<glyph glyph-name="notequal" unicode="&#x2260;" horiz-adv-x="482" d="M57 455 L284 455 L332 537 L374 514 L339 455 L425 455 L425 399 L306 399 L222 256 L425 256 L425 199 L188 199 L137 112 L96 135 L133 199 L57 199 L57 256 L167 256 L251 399 L57 399 L57 455 Z " />
<glyph glyph-name="lessequal" unicode="&#x2264;" horiz-adv-x="482" d="M49 381 L417 556 L417 491 L111 353 L417 216 L417 151 L49 325 L49 381 Z M49 68 L417 68 L417 12 L49 12 L49 68 Z " />
<glyph glyph-name="greaterequal" unicode="&#x2265;" horiz-adv-x="482" d="M433 325 L65 151 L65 216 L370 353 L65 491 L65 556 L433 381 L433 325 Z M65 68 L433 68 L433 12 L65 12 L65 68 Z " />
<glyph glyph-name="lozenge" unicode="&#x25ca;" horiz-adv-x="503" d="M461 336 L283 -6 L224 -6 L41 336 L41 349 L224 690 L283 690 L461 349 L461 336 Z M254 52 L403 343 L254 633 L100 343 L254 52 Z " />
<glyph glyph-name="heart" unicode="&#x2665;" horiz-adv-x="605" d="M306 435 Q322 464 347.5 482 Q373 500 404 500 Q447 500 475 470.5 Q503 441 503 395 Q503 365 489.5 330 Q476 295 450.5 260 Q425 225 387.5 192.5 Q350 160 302 135 Q254 160 216.5 192.5 Q179 225 153.5 260 Q128 295 114.5 330 Q101 365 101 395 Q101 441 129 470.5 Q157 500 200 500 Q231 500 256.5 482 Q282 464 298 435 L306 435 Z " />
<glyph glyph-name="i.dot" unicode="&#xe166;" horiz-adv-x="244" d="M123 591 Q102 591 90.5 603 Q79 615 79 635 Q79 681 123 681 Q169 681 169 635 Q169 615 157 603 Q145 591 123 591 Z M88 0 L88 491 L155 491 L155 0 L88 0 Z " />
<glyph glyph-name="commaaccent" unicode="&#xf6c3;" horiz-adv-x="530" d="M219 -60 L286 -60 L252 -219 L198 -218 L219 -60 Z " />
<glyph glyph-name="fi" unicode="&#xfb01;" horiz-adv-x="573" d="M109 0 L109 440 L33 440 L33 491 L109 491 L109 590 Q109 666 142 703 Q175 740 260 740 L307 740 L307 686 L275 686 Q220 686 198 665 Q176 644 176 589 L176 491 L485 491 L485 0 L418 0 L418 440 L176 440 L176 0 L109 0 Z M450 592 Q430 592 418.5 603.5 Q407 615 407 635 Q407 656 418.5 668 Q430 680 450 680 Q471 680 483 668 Q495 656 495 635 Q495 615 483 603.5 Q471 592 450 592 Z " />
<glyph glyph-name="fl" unicode="&#xfb02;" horiz-adv-x="573" d="M418 0 L418 686 L272 686 Q218 686 197 664 Q176 642 176 589 L176 491 L300 491 L300 440 L176 440 L176 0 L109 0 L109 440 L33 440 L33 491 L109 491 L109 590 Q109 667 142.5 703.5 Q176 740 260 740 L485 740 L485 0 L418 0 Z " />
</font>
</svg>
