<?xml version="1.0" encoding="UTF-8"?>
<svg xmlns="http://www.w3.org/2000/svg" xmlns:xlink="http://www.w3.org/1999/xlink" version="1.2" >
<font id="LeanOSans FY Light">
<font-face  font-family="LeanOSans FY" units-per-em="1000" ascent="740" descent="-250" font-style="normal" font-weight="300" font-stretch="normal" cap-height="690" x-height="481" underline-position="-75" underline-thickness="50" />
<missing-glyph  horiz-adv-x="616" d="M312 435 Q328 464 353.5 482 Q379 500 410 500 Q453 500 481 470.5 Q509 441 509 395 Q509 365 495.5 330 Q482 295 456.5 260 Q431 225 393.5 192.5 Q356 160 308 135 Q260 160 222.5 192.5 Q185 225 159.5 260 Q134 295 120.5 330 Q107 365 107 395 Q107 441 135 470.5 Q163 500 206 500 Q237 500 262.5 482 Q288 464 304 435 L312 435 Z " />
<glyph glyph-name=".null" d="" />
<glyph glyph-name="&amp;#x0;" d="" />
<glyph glyph-name="&amp;#xd;" unicode="&#xd;" d="" />
<glyph glyph-name="space" unicode="&#x20;" horiz-adv-x="227" d="" />
<glyph glyph-name="exclam" unicode="&#x21;" horiz-adv-x="260" d="M115 179 L114 690 L146 690 L144 179 L115 179 Z M104 15 Q104 41 130 41 Q142 41 149.5 34 Q157 27 157 15 Q157 3 149.5 -4.5 Q142 -12 130 -12 Q118 -12 111 -4.5 Q104 3 104 15 Z " />
<glyph glyph-name="quotedbl" unicode="&#x22;" horiz-adv-x="285" d="M188 530 L188 690 L217 690 L217 530 L188 530 Z M68 530 L68 690 L97 690 L97 530 L68 530 Z " />
<glyph glyph-name="numbersign" unicode="&#x23;" horiz-adv-x="724" d="M183 519 L287 519 L359 690 L390 690 L318 519 L549 519 L621 690 L652 690 L580 519 L673 519 L673 494 L569 494 L444 196 L541 196 L541 170 L433 170 L362 0 L331 0 L402 170 L171 170 L100 0 L69 0 L140 170 L50 170 L50 196 L151 196 L276 494 L183 494 L183 519 Z M182 196 L413 196 L538 494 L307 494 L182 196 Z " />
<glyph glyph-name="dollar" unicode="&#x24;" horiz-adv-x="513" d="M245 -10 Q157 -8 110 33 Q63 74 45 149 L78 159 Q91 94 130.5 58 Q170 22 245 20 L245 347 Q205 359 171.5 373 Q138 387 114 407.5 Q90 428 77 457.5 Q64 487 64 529 Q64 569 78 600 Q92 631 116 652.5 Q140 674 173 686 Q206 698 245 700 L245 782 L276 782 L276 699 Q344 694 388.5 654.5 Q433 615 444 536 L410 532 Q404 567 391 591.5 Q378 616 360 632 Q342 648 320.5 656.5 Q299 665 276 668 L276 371 Q321 358 356.5 342.5 Q392 327 416.5 306 Q441 285 453.5 256 Q466 227 466 188 Q466 104 416 51 Q366 -2 276 -9 L276 -105 L245 -105 L245 -10 Z M432 185 Q432 220 420 245 Q408 270 387 287.5 Q366 305 337.5 317 Q309 329 276 339 L276 21 Q352 27 392 71.5 Q432 116 432 185 Z M97 532 Q97 499 106.5 475.5 Q116 452 134.5 434.5 Q153 417 180.5 404 Q208 391 245 380 L245 670 Q216 669 189.5 660 Q163 651 142.5 633.5 Q122 616 109.5 591 Q97 566 97 532 Z " />
<glyph glyph-name="percent" unicode="&#x25;" horiz-adv-x="781" d="M92 5 L668 701 L687 686 L111 -12 L92 5 Z M210 368 Q234 368 256.5 376.5 Q279 385 296.5 404 Q314 423 324 452.5 Q334 482 334 523 Q334 601 298 638 Q262 675 210 675 Q186 675 163.5 666 Q141 657 124 638.5 Q107 620 97 590.5 Q87 561 87 520 Q87 442 123 405 Q159 368 210 368 Z M210 341 Q178 341 150.5 352 Q123 363 102.5 385 Q82 407 70 440.5 Q58 474 58 519 Q58 568 71 602.5 Q84 637 105.5 659 Q127 681 154 691 Q181 701 210 701 Q242 701 269.5 690.5 Q297 680 317.5 658 Q338 636 350 602.5 Q362 569 362 524 Q362 475 349 440.5 Q336 406 315 384 Q294 362 266.5 351.5 Q239 341 210 341 Z M570 15 Q594 15 616.5 23.5 Q639 32 656.5 51 Q674 70 684 99.5 Q694 129 694 170 Q694 248 658 285 Q622 322 570 322 Q546 322 523.5 313 Q501 304 484 285.5 Q467 267 457 237.5 Q447 208 447 167 Q447 89 483 52 Q519 15 570 15 Z M570 -12 Q538 -12 510.5 -1 Q483 10 463 32 Q443 54 431 87.5 Q419 121 419 166 Q419 215 432 249.5 Q445 284 466 306 Q487 328 514 338 Q541 348 570 348 Q602 348 629.5 337.5 Q657 327 677.5 305 Q698 283 710 249.5 Q722 216 722 171 Q722 122 709 87.5 Q696 53 675 31 Q654 9 626.5 -1.5 Q599 -12 570 -12 Z " />
<glyph glyph-name="ampersand" unicode="&#x26;" horiz-adv-x="593" d="M286 -12 Q232 -12 189 3.5 Q146 19 117 46 Q88 73 72.5 110.5 Q57 148 57 192 Q57 224 65.5 254.5 Q74 285 92.5 310.5 Q111 336 141 355.5 Q171 375 214 386 Q147 405 120 447 Q93 489 93 542 Q93 572 103 601 Q113 630 134.5 652 Q156 674 189 687.5 Q222 701 267 701 Q351 701 396.5 658 Q442 615 442 527 L412 524 Q411 602 373 637.5 Q335 673 267 673 Q231 673 204.5 662 Q178 651 160.5 633 Q143 615 134 591 Q125 567 125 541 Q125 513 134 489 Q143 465 162.5 446 Q182 427 213 414.5 Q244 402 288 398 L290 375 L290 373 Q232 370 193.5 352.5 Q155 335 132.5 309 Q110 283 101 252 Q92 221 92 190 Q92 155 104.5 123.5 Q117 92 142 68.5 Q167 45 203 31 Q239 17 287 17 Q333 17 368 30.5 Q403 44 426 65 Q449 86 461 112.5 Q473 139 473 166 Q473 208 452 235.5 Q431 263 384 263 Q346 263 325 244.5 Q304 226 304 191 Q304 172 313.5 154.5 Q323 137 338 126 L321 108 Q301 122 289.5 142.5 Q278 163 278 191 Q278 217 289 236 Q300 255 319.5 268.5 Q339 282 365.5 290 Q392 298 424 302 Q444 305 464 309 Q484 313 500 319.5 Q516 326 526 337 Q536 348 536 366 Q536 384 523.5 394.5 Q511 405 489 405 L496 428 Q521 428 542.5 414 Q564 400 564 365 Q564 335 544 318.5 Q524 302 496.5 294.5 Q469 287 440 284 Q411 281 393 278 Q442 280 473.5 251.5 Q505 223 505 165 Q505 130 490 98.5 Q475 67 446.5 42 Q418 17 377.5 2.5 Q337 -12 286 -12 Z " />
<glyph glyph-name="quotesingle" unicode="&#x27;" horiz-adv-x="165" d="M68 530 L68 690 L97 690 L97 530 L68 530 Z " />
<glyph glyph-name="parenleft" unicode="&#x28;" horiz-adv-x="363" d="M125 232 Q125 88 179 -39.5 Q233 -167 338 -256 L321 -276 Q210 -186 151 -53.5 Q92 79 92 232 Q92 308 107 380.5 Q122 453 151.5 518 Q181 583 223.5 639.5 Q266 696 321 740 L338 721 Q286 677 246 622 Q206 567 179 504 Q152 441 138.5 372.5 Q125 304 125 232 Z " />
<glyph glyph-name="parenright" unicode="&#x29;" horiz-adv-x="363" d="M238 232 Q238 304 224.5 373 Q211 442 184 504.5 Q157 567 117 622 Q77 677 25 721 L42 740 Q97 696 140 639.5 Q183 583 212 518 Q241 453 256 380.5 Q271 308 271 232 Q271 79 212.5 -53.5 Q154 -186 42 -276 L25 -256 Q77 -212 117 -157 Q157 -102 184 -39.5 Q211 23 224.5 91.5 Q238 160 238 232 Z " />
<glyph glyph-name="asterisk" unicode="&#x2a;" horiz-adv-x="240" d="M125 637 L221 674 L229 654 L128 626 L192 546 L176 533 L119 620 L63 534 L45 546 L110 627 L11 654 L18 675 L114 637 L109 740 L131 740 L125 637 Z " />
<glyph glyph-name="plus" unicode="&#x2b;" horiz-adv-x="482" d="M65 341 L226 341 L226 511 L255 511 L255 341 L416 341 L416 313 L255 313 L255 143 L226 143 L226 313 L65 313 L65 341 Z " />
<glyph glyph-name="comma" unicode="&#x2c;" horiz-adv-x="227" d="M106 32 L141 32 L112 -130 L84 -129 L106 32 Z " />
<glyph glyph-name="hyphen" unicode="&#x2d;" horiz-adv-x="410" d="M88 235 L88 261 L321 261 L321 235 L88 235 Z " />
<glyph glyph-name="period" unicode="&#x2e;" horiz-adv-x="248" d="M96 17 Q96 45 124 45 Q152 45 152 17 Q152 4 144.5 -4 Q137 -12 124 -12 Q111 -12 103.5 -4 Q96 4 96 17 Z " />
<glyph glyph-name="slash" unicode="&#x2f;" horiz-adv-x="376" d="M17 0 L327 740 L359 740 L49 0 L17 0 Z " />
<glyph glyph-name="zero" unicode="0" horiz-adv-x="621" d="M311 -10 Q198 -10 135 78 Q72 166 72 345 Q72 527 136 613.5 Q200 700 309 700 Q422 700 485 611.5 Q548 523 548 345 Q548 163 484 76.5 Q420 -10 311 -10 Z M311 21 Q358 21 395.5 40 Q433 59 459.5 99 Q486 139 500 199.5 Q514 260 514 344 Q514 509 459 589 Q404 669 309 669 Q214 669 160 591 Q106 513 106 346 Q106 181 161 101 Q216 21 311 21 Z " />
<glyph glyph-name="one" unicode="1" horiz-adv-x="439" d="M250 0 L250 647 L103 529 L86 553 L257 690 L283 690 L283 0 L250 0 Z " />
<glyph glyph-name="two" unicode="2" horiz-adv-x="580" d="M494 535 Q494 491 481.5 461 Q469 431 443 404.5 Q417 378 375 350.5 Q333 323 275 284 Q219 246 186.5 214.5 Q154 183 137.5 153 Q121 123 116 93 Q111 63 111 29 L504 29 L504 0 L77 0 L77 19 Q77 60 82.5 95.5 Q88 131 107 165 Q126 199 162 233.5 Q198 268 258 308 Q317 347 356 373.5 Q395 400 418 423.5 Q441 447 450 472 Q459 497 459 532 Q459 558 450 582.5 Q441 607 421.5 626.5 Q402 646 371 657.5 Q340 669 295 669 Q208 669 164.5 623.5 Q121 578 111 498 L79 502 Q83 544 98 580 Q113 616 139.5 642.5 Q166 669 205 684.5 Q244 700 296 700 Q347 700 384 686.5 Q421 673 445.5 650.5 Q470 628 482 598 Q494 568 494 535 Z " />
<glyph glyph-name="three" unicode="3" horiz-adv-x="570" d="M263 374 Q314 378 348.5 391 Q383 404 404.5 423.5 Q426 443 435.5 469 Q445 495 445 525 Q445 553 435 579 Q425 605 404.5 625 Q384 645 353 657 Q322 669 279 669 Q206 669 162.5 628 Q119 587 105 516 L73 523 Q86 604 139 652 Q192 700 277 700 Q326 700 364 687 Q402 674 428 651 Q454 628 467 597 Q480 566 480 530 Q480 468 448 426 Q416 384 346 364 Q388 354 417.5 337 Q447 320 465 297.5 Q483 275 491 248 Q499 221 499 191 Q499 146 483 109 Q467 72 438 45.5 Q409 19 368.5 4.5 Q328 -10 278 -10 Q181 -10 126 33.5 Q71 77 52 171 L86 179 Q102 100 148 60.5 Q194 21 279 21 Q324 21 359 34.5 Q394 48 417 70.5 Q440 93 452 123.5 Q464 154 464 189 Q464 217 455.5 245 Q447 273 424 295.5 Q401 318 361.5 332.5 Q322 347 261 349 L263 374 Z " />
<glyph glyph-name="four" unicode="4" horiz-adv-x="604" d="M56 176 L390 698 L416 698 L416 180 L536 180 L536 150 L416 150 L416 0 L384 0 L384 150 L56 150 L56 176 Z M93 180 L384 180 L384 639 L93 180 Z " />
<glyph glyph-name="five" unicode="5" horiz-adv-x="587" d="M280 -10 Q196 -10 138 33 Q80 76 61 168 L94 176 Q110 98 159 59.5 Q208 21 282 21 Q331 21 367 38 Q403 55 426.5 82 Q450 109 461.5 144 Q473 179 473 215 Q473 256 459 291.5 Q445 327 419.5 353 Q394 379 359 393.5 Q324 408 281 408 Q205 408 139 357 Q133 359 127 360 Q121 361 114 362 L114 690 L488 690 L488 661 L147 661 L147 397 Q175 416 210 427 Q245 438 283 438 Q334 438 375.5 421.5 Q417 405 446.5 375.5 Q476 346 492 305.5 Q508 265 508 217 Q508 171 493 130 Q478 89 448.5 58 Q419 27 376.5 8.5 Q334 -10 280 -10 Z " />
<glyph glyph-name="six" unicode="6" horiz-adv-x="609" d="M322 20 Q369 20 404.5 38.5 Q440 57 464 86 Q488 115 500 151.5 Q512 188 512 223 Q512 263 499 299.5 Q486 336 461 363 Q436 390 401 406 Q366 422 321 422 Q278 422 242 406.5 Q206 391 179.5 364.5 Q153 338 138.5 301.5 Q124 265 124 223 Q124 179 139.5 142 Q155 105 182 78 Q209 51 245 35.5 Q281 20 322 20 Z M320 -10 Q270 -10 225 8 Q180 26 146 66 Q112 106 92 170.5 Q72 235 72 328 Q72 433 92.5 504.5 Q113 576 148 619.5 Q183 663 229.5 681.5 Q276 700 328 700 Q414 700 462 661 Q510 622 532 558 L501 546 Q481 605 437 637 Q393 669 324 669 Q281 669 241.5 652 Q202 635 172 595 Q142 555 123.5 490 Q105 425 105 329 Q105 317 106.5 300.5 Q108 284 110 267 Q115 304 131.5 338 Q148 372 175 397.5 Q202 423 239.5 438 Q277 453 324 453 Q376 453 417 435 Q458 417 487 386 Q516 355 531.5 313.5 Q547 272 547 226 Q547 181 532 138.5 Q517 96 487.5 63 Q458 30 416 10 Q374 -10 320 -10 Z " />
<glyph glyph-name="seven" unicode="7" horiz-adv-x="521" d="M121 0 L447 661 L50 661 L50 690 L484 690 L484 664 L158 0 L121 0 Z " />
<glyph glyph-name="eight" unicode="8" horiz-adv-x="575" d="M287 -10 Q223 -10 179 6.5 Q135 23 107.5 51 Q80 79 67.5 115 Q55 151 55 189 Q55 258 94.5 306.5 Q134 355 202 375 Q144 393 114 434 Q84 475 84 529 Q84 563 96 594 Q108 625 133 648.5 Q158 672 196.5 686 Q235 700 287 700 Q337 700 375 686.5 Q413 673 438.5 650 Q464 627 477 596.5 Q490 566 490 533 Q490 477 461 436 Q432 395 374 376 Q412 365 439.5 346 Q467 327 484.5 302 Q502 277 510.5 247.5 Q519 218 519 187 Q519 143 503 107 Q487 71 457 45 Q427 19 384 4.5 Q341 -10 287 -10 Z M287 20 Q335 20 372 33 Q409 46 434 68.5 Q459 91 471.5 121.5 Q484 152 484 187 Q484 217 474.5 248 Q465 279 442.5 303.5 Q420 328 382 344 Q344 360 287 360 Q238 360 201 346.5 Q164 333 139.5 310 Q115 287 102.5 256.5 Q90 226 90 193 Q90 161 99.5 130 Q109 99 132 74.5 Q155 50 193 35 Q231 20 287 20 Z M295 387 Q337 388 367 400 Q397 412 416.5 431.5 Q436 451 445.5 476.5 Q455 502 455 531 Q455 557 445 582 Q435 607 414 626.5 Q393 646 361.5 658 Q330 670 287 670 Q243 670 211.5 658 Q180 646 159.5 626 Q139 606 129 580 Q119 554 119 527 Q119 500 129 474.5 Q139 449 159.5 429.5 Q180 410 211.5 398.5 Q243 387 287 387 L295 387 Z " />
<glyph glyph-name="nine" unicode="9" horiz-adv-x="594" d="M271 -10 Q190 -10 142.5 20.5 Q95 51 63 115 L93 127 Q122 70 165 45 Q208 20 273 20 Q318 20 357 37 Q396 54 425.5 94 Q455 134 472 199 Q489 264 489 359 Q489 374 488 393.5 Q487 413 485 432 Q480 396 463.5 363.5 Q447 331 421 307 Q395 283 359 268.5 Q323 254 278 254 Q228 254 188.5 271 Q149 288 121.5 318 Q94 348 79 388 Q64 428 64 473 Q64 517 78.5 558 Q93 599 120.5 630.5 Q148 662 189 681 Q230 700 283 700 Q332 700 375.5 682 Q419 664 451.5 625 Q484 586 503 524.5 Q522 463 522 376 Q522 262 501.5 187.5 Q481 113 446.5 69 Q412 25 366.5 7.5 Q321 -10 271 -10 Z M282 285 Q323 285 357.5 300 Q392 315 417 340.5 Q442 366 456 400.5 Q470 435 470 475 Q470 514 456 549.5 Q442 585 416.5 612 Q391 639 356.5 654.5 Q322 670 280 670 Q236 670 202 653 Q168 636 145 608.5 Q122 581 110.5 546 Q99 511 99 475 Q99 436 111.5 401.5 Q124 367 147.5 341 Q171 315 205 300 Q239 285 282 285 Z " />
<glyph glyph-name="colon" unicode="&#x3a;" horiz-adv-x="248" d="M96 464 Q96 492 124 492 Q152 492 152 464 Q152 451 144.5 443 Q137 435 124 435 Q111 435 103.5 443 Q96 451 96 464 Z M96 17 Q96 45 124 45 Q152 45 152 17 Q152 4 144.5 -4 Q137 -12 124 -12 Q111 -12 103.5 -4 Q96 4 96 17 Z " />
<glyph glyph-name="semicolon" unicode="&#x3b;" horiz-adv-x="229" d="M105 32 L140 32 L111 -130 L83 -129 L105 32 Z M94 464 Q94 492 122 492 Q150 492 150 464 Q150 451 142.5 443 Q135 435 122 435 Q109 435 101.5 443 Q94 451 94 464 Z " />
<glyph glyph-name="less" unicode="&#x3c;" horiz-adv-x="482" d="M51 343 L402 514 L402 483 L80 329 L402 174 L402 143 L51 315 L51 343 Z " />
<glyph glyph-name="equal" unicode="&#x3d;" horiz-adv-x="482" d="M65 241 L416 241 L416 213 L65 213 L65 241 Z M65 441 L416 441 L416 413 L65 413 L65 441 Z " />
<glyph glyph-name="greater" unicode="&#x3e;" horiz-adv-x="482" d="M431 315 L80 143 L80 174 L402 329 L80 483 L80 514 L431 343 L431 315 Z " />
<glyph glyph-name="question" unicode="&#x3f;" horiz-adv-x="550" d="M230 179 Q230 222 235 251 Q240 280 252.5 302.5 Q265 325 286.5 343.5 Q308 362 341 384 Q387 413 414 445.5 Q441 478 441 529 Q441 558 430.5 583.5 Q420 609 399.5 628.5 Q379 648 349.5 659 Q320 670 282 670 Q203 670 158 624.5 Q113 579 103 501 L73 507 Q77 547 92 582 Q107 617 133.5 643.5 Q160 670 197.5 685 Q235 700 285 700 Q330 700 365.5 687.5 Q401 675 425 652.5 Q449 630 462 599.5 Q475 569 475 533 Q475 498 465 472.5 Q455 447 438.5 427.5 Q422 408 402 392.5 Q382 377 361 364 Q329 343 309.5 326.5 Q290 310 278.5 290.5 Q267 271 263 244.5 Q259 218 259 179 L230 179 Z M218 15 Q218 41 245 41 Q271 41 271 15 Q271 3 264 -4.5 Q257 -12 245 -12 Q232 -12 225 -4.5 Q218 3 218 15 Z " />
<glyph glyph-name="at" unicode="&#x40;" horiz-adv-x="875" d="M405 -10 Q344 -10 309 23 Q274 56 274 116 Q274 145 283 169 Q292 193 314 210.5 Q336 228 373 238 Q410 248 467 248 L561 248 L561 265 Q561 341 534 375 Q507 409 445 409 Q397 409 364 392 Q331 375 303 343 L286 366 Q315 401 354 419.5 Q393 438 445 438 Q527 438 559 395 Q591 352 591 268 L591 102 Q591 64 609 39.5 Q627 15 665 15 Q722 15 755.5 78 Q789 141 789 252 Q789 339 761 403.5 Q733 468 686 511 Q639 554 578 575.5 Q517 597 450 597 Q370 597 303 568 Q236 539 188 488 Q140 437 113 366 Q86 295 86 211 Q86 128 111.5 60.5 Q137 -7 183.5 -55 Q230 -103 295 -129 Q360 -155 438 -155 L438 -185 Q358 -185 288 -158.5 Q218 -132 166 -81.5 Q114 -31 84.5 42.5 Q55 116 55 211 Q55 300 83.5 376 Q112 452 163.5 507.5 Q215 563 288 594.5 Q361 626 450 626 Q524 626 591 603 Q658 580 709 533.5 Q760 487 790 417.5 Q820 348 820 254 Q820 194 809 145.5 Q798 97 778 62.5 Q758 28 729 9 Q700 -10 663 -10 Q618 -10 591.5 15 Q565 40 562 84 Q533 38 495.5 14 Q458 -10 405 -10 Z M410 16 Q461 16 495 40 Q529 64 561 115 L561 226 L458 226 Q413 226 383.5 218 Q354 210 336.5 195.5 Q319 181 312 161 Q305 141 305 117 Q305 71 332.5 43.5 Q360 16 410 16 Z " />
<glyph glyph-name="A" unicode="A" horiz-adv-x="618" d="M45 0 L297 690 L319 690 L573 0 L535 0 L464 199 L150 199 L79 0 L45 0 Z M161 228 L453 228 L308 636 L161 228 Z " />
<glyph glyph-name="B" unicode="B" horiz-adv-x="573" d="M100 0 L100 690 L194 690 Q275 690 328 676.5 Q381 663 413 639.5 Q445 616 458 584.5 Q471 553 471 516 Q471 459 439 416.5 Q407 374 346 354 Q434 338 471.5 296 Q509 254 509 192 Q509 148 494.5 112.5 Q480 77 445.5 52 Q411 27 355 13.5 Q299 0 216 0 L100 0 Z M474 191 Q474 217 465.5 243.5 Q457 270 431.5 291 Q406 312 359.5 325.5 Q313 339 237 339 L217 339 L217 366 L241 366 Q293 366 330 378 Q367 390 390.5 410 Q414 430 425 457 Q436 484 436 513 Q436 545 424.5 572 Q413 599 384 618.5 Q355 638 305.5 649 Q256 660 180 660 L133 660 L133 29 L215 29 Q285 29 334.5 39 Q384 49 415 69 Q446 89 460 119.5 Q474 150 474 191 Z " />
<glyph glyph-name="C" unicode="C" horiz-adv-x="674" d="M370 -10 Q301 -10 244.5 16 Q188 42 147.5 89 Q107 136 84.5 202 Q62 268 62 349 Q62 428 86 493 Q110 558 151 604 Q192 650 247 675 Q302 700 364 700 Q455 700 522.5 662 Q590 624 621 544 L589 531 Q575 567 552 593 Q529 619 499.5 636 Q470 653 435.5 661 Q401 669 365 669 Q309 669 260 646 Q211 623 174.5 581 Q138 539 117 480 Q96 421 96 349 Q96 275 115.5 215 Q135 155 171 111.5 Q207 68 258 44.5 Q309 21 372 21 Q449 21 505.5 54.5 Q562 88 602 159 L629 140 Q584 66 522 28 Q460 -10 370 -10 Z " />
<glyph glyph-name="D" unicode="D" horiz-adv-x="680" d="M108 0 L108 690 L241 690 Q334 690 405 666 Q476 642 523 597 Q570 552 594 488 Q618 424 618 345 Q618 268 592.5 204.5 Q567 141 518 95.5 Q469 50 397.5 25 Q326 0 233 0 L108 0 Z M230 29 Q313 29 378.5 50.5 Q444 72 490 113 Q536 154 560 212 Q584 270 584 344 Q584 421 560.5 480 Q537 539 492.5 579 Q448 619 384.5 639.5 Q321 660 240 660 L141 660 L141 29 L230 29 Z " />
<glyph glyph-name="E" unicode="E" horiz-adv-x="529" d="M108 0 L108 690 L474 690 L474 661 L141 661 L141 377 L388 377 L388 348 L141 348 L141 29 L473 29 L473 0 L108 0 Z " />
<glyph glyph-name="F" unicode="F" horiz-adv-x="528" d="M108 0 L108 690 L474 690 L474 661 L141 661 L141 344 L400 344 L400 315 L141 315 L141 0 L108 0 Z " />
<glyph glyph-name="G" unicode="G" horiz-adv-x="739" d="M373 669 Q316 669 265.5 646 Q215 623 177.5 581 Q140 539 118 480 Q96 421 96 349 Q96 275 116 214.5 Q136 154 172.5 111 Q209 68 261.5 44 Q314 20 379 20 Q432 20 480.5 39 Q529 58 566 96 Q603 134 625.5 192.5 Q648 251 649 330 L432 330 L432 358 L682 358 L682 337 Q682 259 660 195 Q638 131 598.5 85.5 Q559 40 503 15 Q447 -10 379 -10 Q308 -10 249.5 16 Q191 42 149.5 89 Q108 136 85 202 Q62 268 62 349 Q62 428 87 493 Q112 558 154.5 604 Q197 650 254 675 Q311 700 374 700 Q465 700 532.5 663 Q600 626 632 546 L601 531 Q587 567 563.5 593 Q540 619 510 636 Q480 653 445 661 Q410 669 373 669 Z " />
<glyph glyph-name="H" unicode="H" horiz-adv-x="716" d="M108 0 L108 690 L141 690 L141 373 L575 373 L575 690 L608 690 L608 0 L575 0 L575 344 L141 344 L141 0 L108 0 Z " />
<glyph glyph-name="I" unicode="I" horiz-adv-x="250" d="M108 0 L108 690 L141 690 L141 0 L108 0 Z " />
<glyph glyph-name="J" unicode="J" horiz-adv-x="252" d="M143 71 Q143 25 135 -5 Q127 -35 109.5 -52 Q92 -69 65.5 -76 Q39 -83 2 -83 L-15 -83 L-12 -54 L6 -54 Q35 -54 55 -48 Q75 -42 87 -27.5 Q99 -13 104.5 12 Q110 37 110 75 L110 690 L143 690 L143 71 Z " />
<glyph glyph-name="K" unicode="K" horiz-adv-x="609" d="M108 0 L108 690 L141 690 L141 363 L210 363 Q264 363 310.5 375 Q357 387 392 411 Q427 435 447 471 Q467 507 467 554 Q467 598 455 631.5 Q443 665 427 687 L457 703 Q474 680 487 643.5 Q500 607 500 562 Q500 486 457.5 431 Q415 376 322 353 Q370 347 404.5 334.5 Q439 322 462.5 298 Q486 274 499 237 Q512 200 517 146 Q520 116 522.5 94 Q525 72 527.5 55.5 Q530 39 533 26 Q536 13 540 0 L506 0 Q499 23 494.5 55.5 Q490 88 484 148 Q478 206 461.5 242 Q445 278 414.5 298.5 Q384 319 338.5 326.5 Q293 334 229 334 L141 334 L141 0 L108 0 Z " />
<glyph glyph-name="L" unicode="L" horiz-adv-x="533" d="M484 29 L484 0 L108 0 L108 690 L141 690 L141 29 L484 29 Z " />
<glyph glyph-name="M" unicode="M" horiz-adv-x="774" d="M108 0 L108 690 L140 690 L387 270 L632 690 L666 690 L666 0 L632 0 L632 633 L395 227 L377 227 L140 632 L140 0 L108 0 Z " />
<glyph glyph-name="N" unicode="N" horiz-adv-x="716" d="M140 634 L140 0 L108 0 L108 690 L140 690 L576 55 L576 690 L607 690 L607 0 L576 0 L140 634 Z " />
<glyph glyph-name="O" unicode="O" horiz-adv-x="773" d="M387 -10 Q313 -10 253 15.5 Q193 41 150.5 88 Q108 135 85 200 Q62 265 62 345 Q62 423 85.5 488 Q109 553 152 600 Q195 647 254 673.5 Q313 700 385 700 Q460 700 520 674.5 Q580 649 622.5 602 Q665 555 688 489.5 Q711 424 711 345 Q711 267 687 202 Q663 137 620.5 90 Q578 43 518.5 16.5 Q459 -10 387 -10 Z M387 21 Q452 21 505.5 44 Q559 67 597 109.5 Q635 152 656 211.5 Q677 271 677 344 Q677 419 656.5 479 Q636 539 598 581.5 Q560 624 506 646.5 Q452 669 385 669 Q320 669 267 645.5 Q214 622 176 579.5 Q138 537 117 477.5 Q96 418 96 346 Q96 271 116.5 211 Q137 151 175 108.5 Q213 66 267 43.5 Q321 21 387 21 Z " />
<glyph glyph-name="P" unicode="P" horiz-adv-x="554" d="M141 661 L141 0 L108 0 L108 690 L198 690 Q283 690 339.5 673 Q396 656 430 626.5 Q464 597 478 557.5 Q492 518 492 473 Q492 414 472 371.5 Q452 329 417 301.5 Q382 274 335 261 Q288 248 234 248 L228 248 L228 276 L234 276 Q283 276 324 287.5 Q365 299 395 323 Q425 347 441.5 384.5 Q458 422 458 473 Q458 512 445 546 Q432 580 401.5 605.5 Q371 631 320.5 646 Q270 661 195 661 L141 661 Z " />
<glyph glyph-name="Q" unicode="Q" horiz-adv-x="773" d="M387 -10 Q313 -10 253 15.5 Q193 41 150.5 88 Q108 135 85 200 Q62 265 62 345 Q62 423 85.5 488 Q109 553 152 600 Q195 647 254 673.5 Q313 700 385 700 Q460 700 520 674.5 Q580 649 622.5 602 Q665 555 688 489.5 Q711 424 711 345 Q711 266 687 201 Q663 136 619 88 L703 -42 L676 -59 L597 67 Q555 30 502.5 10 Q450 -10 387 -10 Z M96 346 Q96 258 124 190 L124 199 Q124 236 136.5 266 Q149 296 172 317.5 Q195 339 227 351 Q259 363 298 363 Q348 363 388.5 345 Q429 327 464.5 294.5 Q500 262 533 216 Q566 170 602 115 Q638 157 657.5 215 Q677 273 677 344 Q677 419 656.5 479 Q636 539 598 581.5 Q560 624 506 646.5 Q452 669 385 669 Q320 669 267 645.5 Q214 622 176 579.5 Q138 537 117 477.5 Q96 418 96 346 Z M387 21 Q446 21 495 39.5 Q544 58 581 93 Q548 145 517 189.5 Q486 234 452 266 Q418 298 380 316 Q342 334 295 334 Q264 334 238 324.5 Q212 315 192.5 297.5 Q173 280 162 254.5 Q151 229 151 196 Q151 159 168.5 127 Q186 95 217.5 71.5 Q249 48 292.5 34.5 Q336 21 387 21 Z " />
<glyph glyph-name="R" unicode="R" horiz-adv-x="571" d="M108 0 L108 690 L199 690 Q278 690 330.5 673.5 Q383 657 415 629 Q447 601 460.5 564 Q474 527 474 485 Q474 460 467.5 432.5 Q461 405 445.5 379.5 Q430 354 405 332.5 Q380 311 344 298 Q372 292 394 279.5 Q416 267 432.5 244.5 Q449 222 460 188 Q471 154 477 105 Q488 28 494 0 L461 0 Q454 39 450.5 59.5 Q447 80 444 101 Q436 158 423.5 193 Q411 228 389 247 Q367 266 334 272.5 Q301 279 254 279 L225 279 L225 308 L238 308 Q292 308 330.5 322.5 Q369 337 393.5 361.5 Q418 386 429 417.5 Q440 449 440 482 Q440 520 428 552.5 Q416 585 387 609 Q358 633 310 647 Q262 661 190 661 L141 661 L141 0 L108 0 Z " />
<glyph glyph-name="S" unicode="S" horiz-adv-x="516" d="M255 700 Q329 700 376.5 660.5 Q424 621 436 536 L402 532 Q395 571 380.5 597.5 Q366 624 346 640 Q326 656 301.5 663 Q277 670 252 670 Q223 670 197 661.5 Q171 653 150.5 637 Q130 621 118 596.5 Q106 572 106 541 Q106 505 116.5 480 Q127 455 147.5 437 Q168 419 198.5 405.5 Q229 392 270 378 Q315 363 350 345.5 Q385 328 408.5 304.5 Q432 281 444.5 250.5 Q457 220 457 178 Q457 137 443 103 Q429 69 403 43.5 Q377 18 338.5 4 Q300 -10 252 -10 Q165 -10 118 31 Q71 72 54 149 L86 159 Q100 93 139.5 56.5 Q179 20 253 20 Q294 20 326 32 Q358 44 379.5 65 Q401 86 412.5 114.5 Q424 143 424 176 Q424 213 411 241 Q398 269 375.5 289 Q353 309 322 323.5 Q291 338 255 350 Q215 363 181.5 377.5 Q148 392 123.5 413 Q99 434 85.5 464 Q72 494 72 538 Q72 576 86 606 Q100 636 124.5 657 Q149 678 182.5 689 Q216 700 255 700 Z " />
<glyph glyph-name="T" unicode="T" horiz-adv-x="555" d="M261 0 L261 661 L47 661 L47 690 L508 690 L508 661 L294 661 L294 0 L261 0 Z " />
<glyph glyph-name="U" unicode="U" horiz-adv-x="686" d="M340 -10 Q225 -10 162 60.5 Q99 131 99 274 L99 690 L132 687 L132 279 Q132 146 187.5 83 Q243 20 344 20 Q444 20 499 84.5 Q554 149 554 276 L554 690 L587 690 L587 274 Q587 136 524 63 Q461 -10 340 -10 Z " />
<glyph glyph-name="V" unicode="V" horiz-adv-x="601" d="M565 690 L312 0 L290 0 L36 690 L74 690 L301 55 L530 690 L565 690 Z " />
<glyph glyph-name="W" unicode="W" horiz-adv-x="909" d="M291 0 L43 690 L78 690 L305 48 L441 439 L416 507 Q403 542 397.5 569 Q392 596 392 616 Q392 660 411.5 677.5 Q431 695 453 695 Q478 695 497 678 Q516 661 516 618 Q516 576 491 504 L469 442 L613 51 L833 690 L867 690 L626 0 L603 0 L455 401 L314 0 L291 0 Z M453 669 Q437 669 427.5 657.5 Q418 646 418 620 Q418 601 423.5 574.5 Q429 548 443 513 L455 480 L466 511 Q479 548 484.5 574 Q490 600 490 618 Q490 647 479 658 Q468 669 453 669 Z " />
<glyph glyph-name="X" unicode="X" horiz-adv-x="597" d="M35 0 L278 368 L65 690 L105 690 L301 393 L496 690 L532 690 L319 367 L562 0 L521 0 L295 342 L72 0 L35 0 Z " />
<glyph glyph-name="Y" unicode="Y" horiz-adv-x="565" d="M265 0 L265 233 L27 690 L65 690 L283 263 L502 690 L538 690 L299 233 L299 0 L265 0 Z " />
<glyph glyph-name="Z" unicode="Z" horiz-adv-x="556" d="M90 29 L504 29 L504 0 L52 0 L52 30 L452 661 L68 661 L68 690 L492 690 L492 660 L90 29 Z " />
<glyph glyph-name="bracketleft" unicode="&#x5b;" horiz-adv-x="363" d="M164 740 L338 740 L338 714 L196 714 L196 -249 L338 -249 L338 -275 L164 -275 L164 740 Z " />
<glyph glyph-name="backslash" unicode="&#x5c;" horiz-adv-x="376" d="M327 0 L17 740 L49 740 L359 0 L327 0 Z " />
<glyph glyph-name="bracketright" unicode="&#x5d;" horiz-adv-x="363" d="M199 -275 L25 -275 L25 -249 L168 -249 L168 714 L25 714 L25 740 L199 740 L199 -275 Z " />
<glyph glyph-name="asciicircum" unicode="&#x5e;" horiz-adv-x="482" d="M63 448 L241 700 L419 448 L397 431 L241 655 L85 431 L63 448 Z " />
<glyph glyph-name="underscore" unicode="&#x5f;" horiz-adv-x="476" d="M37 0 L439 0 L439 -27 L37 -27 L37 0 Z " />
<glyph glyph-name="grave" unicode="&#x60;" horiz-adv-x="529" d="M174 702 L200 718 L302 564 L281 551 L174 702 Z " />
<glyph glyph-name="a" unicode="a" horiz-adv-x="522" d="M199 -10 Q136 -10 100.5 25.5 Q65 61 65 127 Q65 156 75 181.5 Q85 207 110.5 225.5 Q136 244 179 255 Q222 266 288 266 L391 266 L391 315 Q391 392 361 426.5 Q331 461 259 461 Q203 461 166 443 Q129 425 95 393 L77 417 Q112 453 155.5 472 Q199 491 261 491 Q307 491 338 479.5 Q369 468 388 446.5 Q407 425 415 392.5 Q423 360 423 318 L423 0 L393 0 L393 87 Q358 39 311.5 14.5 Q265 -10 199 -10 Z M204 17 Q268 17 310 41.5 Q352 66 391 118 L391 240 L279 240 Q226 240 191 231.5 Q156 223 135.5 208 Q115 193 106.5 172.5 Q98 152 98 128 Q98 77 125.5 47 Q153 17 204 17 Z " />
<glyph glyph-name="b" unicode="b" horiz-adv-x="555" d="M99 740 L131 740 L131 420 Q159 452 198.5 471.5 Q238 491 287 491 Q336 491 374.5 473.5 Q413 456 439.5 424 Q466 392 480 347 Q494 302 494 247 Q494 189 478.5 141.5 Q463 94 435 60.5 Q407 27 367 8.5 Q327 -10 278 -10 Q230 -10 193 7.5 Q156 25 128 56 L128 0 L99 0 L99 740 Z M282 461 Q237 461 197.5 442 Q158 423 131 388 L131 88 Q184 20 274 20 Q361 20 411 80.5 Q461 141 461 247 Q461 297 448 336.5 Q435 376 412 404 Q389 432 355.5 446.5 Q322 461 282 461 Z " />
<glyph glyph-name="c" unicode="c" horiz-adv-x="499" d="M447 92 Q416 44 374 17 Q332 -10 266 -10 Q217 -10 178 8 Q139 26 112 58.5 Q85 91 71 136.5 Q57 182 57 238 Q57 295 72.5 341.5 Q88 388 116 421 Q144 454 184 472.5 Q224 491 272 491 Q344 491 387 457.5 Q430 424 450 369 L421 358 Q399 408 364 434.5 Q329 461 272 461 Q233 461 199.5 445.5 Q166 430 141.5 401.5 Q117 373 103 332 Q89 291 89 239 Q89 135 138 77.5 Q187 20 267 20 Q322 20 357.5 42.5 Q393 65 420 108 L447 92 Z " />
<glyph glyph-name="d" unicode="d" horiz-adv-x="563" d="M276 -10 Q223 -10 183 9 Q143 28 116 62 Q89 96 75 143 Q61 190 61 246 Q61 301 76 346 Q91 391 119.5 423 Q148 455 188 473 Q228 491 278 491 Q326 491 364.5 473.5 Q403 456 432 424 L432 740 L464 740 L464 0 L434 0 L434 71 Q407 33 369.5 11.5 Q332 -10 276 -10 Z M281 20 Q332 20 368 40.5 Q404 61 432 103 L432 389 Q405 424 366 442.5 Q327 461 281 461 Q239 461 204.5 446 Q170 431 145 403.5 Q120 376 106.5 336 Q93 296 93 247 Q93 143 142.5 81.5 Q192 20 281 20 Z " />
<glyph glyph-name="e" unicode="e" horiz-adv-x="525" d="M277 -10 Q226 -10 185 8 Q144 26 115.5 58.5 Q87 91 72 136.5 Q57 182 57 238 Q57 295 72.5 341.5 Q88 388 116 421 Q144 454 182.5 472.5 Q221 491 268 491 Q320 491 357.5 475 Q395 459 419 429 Q443 399 454 357 Q465 315 464 263 L90 263 Q89 257 89 251 Q89 245 89 239 Q89 187 102.5 146.5 Q116 106 141 77.5 Q166 49 200.5 34 Q235 19 277 19 Q331 19 367 42 Q403 65 430 108 L456 92 Q426 43 384 16.5 Q342 -10 277 -10 Z M267 462 Q201 462 153 416 Q105 370 92 289 L432 289 Q430 329 419.5 361 Q409 393 389 415.5 Q369 438 339 450 Q309 462 267 462 Z " />
<glyph glyph-name="f" unicode="f" horiz-adv-x="311" d="M39 481 L116 481 L116 607 Q116 641 122.5 666.5 Q129 692 144 708 Q159 724 184 732 Q209 740 246 740 L284 740 L284 713 L252 713 Q193 713 170.5 689.5 Q148 666 148 605 L148 481 L274 481 L274 454 L148 454 L148 0 L116 0 L116 454 L39 454 L39 481 Z " />
<glyph glyph-name="g" unicode="g" horiz-adv-x="521" d="M501 463 Q438 463 389 437 Q409 414 418.5 386 Q428 358 428 327 Q428 294 417.5 263.5 Q407 233 384.5 210 Q362 187 327 173.5 Q292 160 244 160 Q196 160 159 174 Q127 154 113.5 133.5 Q100 113 100 94 Q100 70 120 60.5 Q140 51 175 51 L310 51 Q349 51 381.5 45.5 Q414 40 437.5 25 Q461 10 473.5 -15.5 Q486 -41 486 -80 Q486 -122 464.5 -155 Q443 -188 406 -211.5 Q369 -235 320 -247.5 Q271 -260 216 -260 Q135 -260 86.5 -225 Q38 -190 38 -125 Q38 -66 66.5 -32.5 Q95 1 140 25 Q106 30 87.5 45 Q69 60 69 89 Q69 138 139 183 Q99 205 80.5 242 Q62 279 62 323 Q62 357 72.5 387.5 Q83 418 105.5 441 Q128 464 163 477.5 Q198 491 246 491 Q287 491 318 480.5 Q349 470 371 453 Q398 470 429.5 480.5 Q461 491 503 491 L501 463 Z M170 23 Q119 -3 94 -35.5 Q69 -68 69 -118 Q69 -170 109 -200.5 Q149 -231 222 -231 Q274 -231 316.5 -219.5 Q359 -208 389.5 -188 Q420 -168 437 -141 Q454 -114 454 -82 Q454 -49 443.5 -28.5 Q433 -8 413 3.5 Q393 15 365 19 Q337 23 303 23 L170 23 Z M245 188 Q287 188 316 199.5 Q345 211 362.5 230.5 Q380 250 388 275 Q396 300 396 327 Q396 352 388 376.5 Q380 401 362 420.5 Q344 440 315.5 451.5 Q287 463 245 463 Q203 463 174 451.5 Q145 440 127.5 420.5 Q110 401 102 376 Q94 351 94 324 Q94 298 102 273.5 Q110 249 128 230 Q146 211 174.5 199.5 Q203 188 245 188 Z " />
<glyph glyph-name="h" unicode="h" horiz-adv-x="567" d="M99 0 L99 740 L131 740 L131 403 Q162 440 204.5 465.5 Q247 491 309 491 Q357 491 388.5 479.5 Q420 468 438.5 446.5 Q457 425 465 392.5 Q473 360 473 318 L473 0 L441 0 L441 315 Q441 391 409.5 426 Q378 461 303 461 Q244 461 204 435.5 Q164 410 131 370 L131 0 L99 0 Z " />
<glyph glyph-name="i" unicode="i" horiz-adv-x="230" d="M116 605 Q91 605 91 631 Q91 657 116 657 Q143 657 143 631 Q143 605 116 605 Z M99 0 L99 481 L131 481 L131 0 L99 0 Z " />
<glyph glyph-name="j" unicode="j" horiz-adv-x="230" d="M24 -247 L31 -247 Q69 -247 84 -227.5 Q99 -208 99 -163 L99 481 L131 481 L131 -161 Q131 -223 108 -249 Q85 -275 31 -275 L22 -275 L24 -247 Z M116 605 Q90 605 90 631 Q90 657 116 657 Q143 657 143 631 Q143 605 116 605 Z " />
<glyph glyph-name="k" unicode="k" horiz-adv-x="488" d="M99 0 L99 740 L131 740 L131 0 L99 0 Z M441 0 Q423 0 409.5 2.5 Q396 5 383 13.5 Q370 22 355 38 Q340 54 319 81 L174 262 L387 481 L427 481 L213 261 L353 89 Q369 69 380.5 57 Q392 45 402 39 Q412 33 422 31 Q432 29 444 29 L453 29 L453 0 L441 0 Z " />
<glyph glyph-name="l" unicode="l" horiz-adv-x="230" d="M99 0 L99 740 L131 740 L131 0 L99 0 Z " />
<glyph glyph-name="m" unicode="m" horiz-adv-x="870" d="M776 0 L744 0 L744 315 Q744 391 714.5 426 Q685 461 616 461 Q558 461 520 434 Q482 407 450 367 Q453 344 453 318 L453 0 L421 0 L421 315 Q421 391 392 426 Q363 461 293 461 Q237 461 199.5 435.5 Q162 410 131 371 L131 0 L99 0 L99 481 L130 481 L130 402 Q159 439 200 465 Q241 491 299 491 Q365 491 399 466 Q433 441 445 393 Q475 434 517.5 462.5 Q560 491 622 491 Q667 491 696.5 479.5 Q726 468 743.5 446.5 Q761 425 768.5 392.5 Q776 360 776 318 L776 0 Z " />
<glyph glyph-name="n" unicode="n" horiz-adv-x="567" d="M99 0 L99 481 L130 481 L130 402 Q161 439 204 465 Q247 491 309 491 Q357 491 388.5 479.5 Q420 468 438.5 446.5 Q457 425 465 392.5 Q473 360 473 318 L473 0 L441 0 L441 315 Q441 391 409.5 426 Q378 461 303 461 Q244 461 204 435.5 Q164 410 131 370 L131 0 L99 0 Z " />
<glyph glyph-name="o" unicode="o" horiz-adv-x="555" d="M278 -10 Q226 -10 185 8 Q144 26 115.5 58.5 Q87 91 72 136.5 Q57 182 57 238 Q57 295 73.5 341.5 Q90 388 119 421 Q148 454 189 472.5 Q230 491 278 491 Q329 491 370 473.5 Q411 456 439.5 423.5 Q468 391 483 345.5 Q498 300 498 244 Q498 187 482 140 Q466 93 436.5 60 Q407 27 366.5 8.5 Q326 -10 278 -10 Z M278 20 Q318 20 352 35.5 Q386 51 411.5 79.5 Q437 108 451.5 149.5 Q466 191 466 242 Q466 294 452.5 334.5 Q439 375 414 403 Q389 431 354.5 446 Q320 461 278 461 Q239 461 204.5 445.5 Q170 430 144.5 401.5 Q119 373 104 332 Q89 291 89 239 Q89 187 103 146.5 Q117 106 141.5 78 Q166 50 201 35 Q236 20 278 20 Z " />
<glyph glyph-name="p" unicode="p" horiz-adv-x="556" d="M99 -250 L99 481 L130 481 L130 414 Q157 450 193.5 470.5 Q230 491 285 491 Q338 491 377.5 472 Q417 453 443 419 Q469 385 482 337.5 Q495 290 495 234 Q495 180 479.5 135 Q464 90 435.5 57.5 Q407 25 367.5 7.5 Q328 -10 279 -10 Q231 -10 195 7 Q159 24 131 54 L131 -250 L99 -250 Z M280 461 Q229 461 193 440.5 Q157 420 131 379 L131 89 Q157 56 193.5 38 Q230 20 275 20 Q317 20 351.5 34.5 Q386 49 410.5 77 Q435 105 448.5 144.5 Q462 184 462 234 Q462 338 415.5 399.5 Q369 461 280 461 Z " />
<glyph glyph-name="q" unicode="q" horiz-adv-x="563" d="M432 -250 L432 68 Q405 31 368 10.5 Q331 -10 276 -10 Q223 -10 183 9 Q143 28 116 62 Q89 96 75 143 Q61 190 61 246 Q61 301 76 346 Q91 391 119.5 423.5 Q148 456 188 473.5 Q228 491 278 491 Q326 491 365.5 472.5 Q405 454 434 423 L434 481 L464 481 L464 -250 L432 -250 Z M281 20 Q332 20 368 40.5 Q404 61 432 103 L432 389 Q405 424 366 442.5 Q327 461 281 461 Q239 461 204.5 446 Q170 431 145 403.5 Q120 376 106.5 336 Q93 296 93 247 Q93 143 142.5 81.5 Q192 20 281 20 Z " />
<glyph glyph-name="r" unicode="r" horiz-adv-x="364" d="M99 0 L99 481 L130 481 L130 401 Q162 439 208 465 Q254 491 322 491 L322 460 Q259 460 214 435 Q169 410 131 369 L131 0 L99 0 Z " />
<glyph glyph-name="s" unicode="s" horiz-adv-x="449" d="M224 491 Q298 491 337 461 Q376 431 384 380 L354 372 Q345 418 308.5 440.5 Q272 463 221 463 Q166 463 129.5 437 Q93 411 93 364 Q93 341 100 324 Q107 307 124 294 Q141 281 169 271.5 Q197 262 238 254 Q317 238 355.5 210 Q394 182 394 123 Q394 65 351.5 27.5 Q309 -10 220 -10 Q143 -10 101.5 18.5 Q60 47 45 101 L75 109 Q89 65 124.5 41.5 Q160 18 223 18 Q296 18 329.5 48.5 Q363 79 363 121 Q363 169 328.5 192.5 Q294 216 229 228 Q184 237 152 248.5 Q120 260 99.5 275.5 Q79 291 70 312 Q61 333 61 361 Q61 422 106 456.5 Q151 491 224 491 Z " />
<glyph glyph-name="t" unicode="t" horiz-adv-x="322" d="M40 481 L108 481 L108 576 L140 585 L140 481 L281 481 L281 454 L140 454 L140 115 Q140 65 162 47 Q184 29 237 28 L281 28 L281 0 L232 0 Q198 1 174.5 7 Q151 13 136 25.5 Q121 38 114.5 59.5 Q108 81 108 113 L108 454 L40 454 L40 481 Z " />
<glyph glyph-name="u" unicode="u" horiz-adv-x="547" d="M252 -10 Q209 -10 179.5 1 Q150 12 132 34 Q114 56 106 88 Q98 120 98 162 L98 481 L130 481 L130 166 Q130 89 159.5 54.5 Q189 20 258 20 Q314 20 351.5 45.5 Q389 71 421 110 L421 481 L453 481 L453 0 L422 0 L422 79 Q392 41 351 15.5 Q310 -10 252 -10 Z " />
<glyph glyph-name="v" unicode="v" horiz-adv-x="480" d="M35 481 L70 481 L241 33 L411 481 L445 481 L258 0 L223 0 L35 481 Z " />
<glyph glyph-name="w" unicode="w" horiz-adv-x="704" d="M40 481 L73 481 L216 37 L341 391 L363 391 L490 37 L631 481 L664 481 L504 0 L474 0 L351 345 L230 0 L199 0 L40 481 Z " />
<glyph glyph-name="x" unicode="x" horiz-adv-x="469" d="M44 0 L215 246 L52 481 L90 481 L238 268 L381 481 L416 481 L253 246 L425 0 L387 0 L231 223 L80 0 L44 0 Z " />
<glyph glyph-name="y" unicode="y" horiz-adv-x="484" d="M232 -3 L49 481 L84 481 L248 38 L409 481 L443 481 L204 -161 Q184 -213 157.5 -231.5 Q131 -250 93 -250 L64 -250 L64 -222 L95 -222 Q124 -222 142.5 -207 Q161 -192 174 -159 L232 -3 Z " />
<glyph glyph-name="z" unicode="z" horiz-adv-x="438" d="M77 28 L400 28 L400 0 L38 0 L38 25 L360 453 L59 453 L59 481 L398 481 L398 456 L77 28 Z " />
<glyph glyph-name="braceleft" unicode="&#x7b;" horiz-adv-x="363" d="M311 -275 Q274 -275 250.5 -266.5 Q227 -258 213.5 -242 Q200 -226 195 -203.5 Q190 -181 190 -152 L190 156 Q190 191 179 205 Q168 219 136 219 L118 219 L118 245 L136 245 Q168 245 179 259 Q190 273 190 308 L190 617 Q190 645 195 668 Q200 691 213.5 707 Q227 723 250.5 731.5 Q274 740 311 740 L338 740 L338 714 L307 714 Q279 714 262 706.5 Q245 699 236 685.5 Q227 672 224.5 653 Q222 634 222 611 L222 306 Q222 277 211.5 255.5 Q201 234 169 232 Q201 229 211.5 208 Q222 187 222 157 L222 -146 Q222 -169 224.5 -188 Q227 -207 236 -220.5 Q245 -234 262 -241.5 Q279 -249 307 -249 L338 -249 L338 -275 L311 -275 Z " />
<glyph glyph-name="bar" unicode="&#x7c;" horiz-adv-x="257" d="M113 -275 L113 740 L144 740 L144 -275 L113 -275 Z " />
<glyph glyph-name="braceright" unicode="&#x7d;" horiz-adv-x="363" d="M25 -249 L56 -249 Q84 -249 101 -241.5 Q118 -234 127 -220.5 Q136 -207 138.5 -188 Q141 -169 141 -146 L141 157 Q141 187 151 208 Q161 229 193 232 Q161 234 151 255.5 Q141 277 141 306 L141 611 Q141 634 138.5 653 Q136 672 127 685.5 Q118 699 101 706.5 Q84 714 56 714 L25 714 L25 740 L53 740 Q90 740 113 731.5 Q136 723 149.5 707 Q163 691 168 668 Q173 645 173 617 L173 308 Q173 273 184 259 Q195 245 227 245 L245 245 L245 219 L227 219 Q195 219 184 205 Q173 191 173 156 L173 -152 Q173 -181 168 -203.5 Q163 -226 149.5 -242 Q136 -258 113 -266.5 Q90 -275 53 -275 L25 -275 L25 -249 Z " />
<glyph glyph-name="asciitilde" unicode="&#x7e;" horiz-adv-x="482" d="M65 332 Q86 354 107 362 Q128 370 148 370 Q171 370 194.5 361.5 Q218 353 241 343 Q264 333 287.5 324 Q311 315 335 315 Q355 315 375.5 322.5 Q396 330 416 350 L416 321 Q396 301 375.5 294 Q355 287 335 287 Q311 287 287.5 295.5 Q264 304 241 314 Q218 324 194.5 332.5 Q171 341 148 341 Q128 341 107 332.5 Q86 324 65 302 L65 332 Z " />
<glyph glyph-name="uni00A0" unicode="&#xa0;" horiz-adv-x="227" d="" />
<glyph glyph-name="exclamdown" unicode="&#xa1;" horiz-adv-x="260" d="M146 -216 L114 -216 L115 295 L144 295 L146 -216 Z M104 459 Q104 471 111 478.5 Q118 486 130 486 Q142 486 149.5 478.5 Q157 471 157 459 Q157 447 149.5 440 Q142 433 130 433 Q104 433 104 459 Z " />
<glyph glyph-name="cent" unicode="&#xa2;" horiz-adv-x="511" d="M248 -8 Q203 -4 167 15.5 Q131 35 106 67 Q81 99 68 142.5 Q55 186 55 238 Q55 290 69 334 Q83 378 108.5 411 Q134 444 169.5 464 Q205 484 248 489 L248 584 L279 584 L279 491 Q348 489 392.5 456 Q437 423 457 369 L429 358 Q407 407 370.5 433 Q334 459 279 461 L279 20 Q331 21 365.5 43.5 Q400 66 428 108 L454 92 Q424 43 383 17 Q342 -9 279 -10 L279 -105 L248 -105 L248 -8 Z M248 459 Q213 454 184 437 Q155 420 133.5 391.5 Q112 363 100 324.5 Q88 286 88 239 Q88 144 131.5 87.5 Q175 31 248 22 L248 459 Z " />
<glyph glyph-name="sterling" unicode="&#xa3;" horiz-adv-x="574" d="M107 276 L201 276 Q196 308 190.5 337.5 Q185 367 180 398 Q175 429 171.5 462 Q168 495 168 534 Q168 622 207.5 660.5 Q247 699 332 699 L397 699 L397 669 L335 669 Q265 669 233 639 Q201 609 201 533 Q201 495 204.5 462 Q208 429 213.5 398 Q219 367 224.5 337.5 Q230 308 235 276 L381 276 L381 251 L238 251 Q240 231 241.5 210 Q243 189 243 166 Q243 133 233 107.5 Q223 82 208 64.5 Q193 47 175.5 36 Q158 25 143 21 Q174 20 199.5 7 Q225 -6 253.5 -21 Q282 -36 317.5 -48.5 Q353 -61 403 -61 Q446 -61 478.5 -45 Q511 -29 531 -9 L549 -31 Q522 -58 483 -74 Q444 -90 403 -90 Q347 -90 310 -76 Q273 -62 241 -45 Q209 -28 173.5 -14 Q138 0 85 0 L48 0 L50 27 L80 27 Q102 27 125 35 Q148 43 167 60.5 Q186 78 197.5 105.5 Q209 133 209 172 Q209 193 207.5 212.5 Q206 232 204 251 L107 251 L107 276 Z " />
<glyph glyph-name="currency" unicode="&#xa4;" horiz-adv-x="482" d="M314 233 Q284 209 240 209 Q195 209 164 232 L112 179 L92 199 L145 252 Q123 280 123 327 Q123 371 146 402 L93 455 L114 475 L166 422 Q196 446 240 446 Q285 446 316 423 L369 476 L389 456 L335 402 Q357 372 357 330 Q357 307 351 288 Q345 269 334 254 L389 200 L369 179 L314 233 Z M240 233 Q279 233 305.5 258.5 Q332 284 332 329 Q332 373 307 397.5 Q282 422 240 422 Q202 422 175 397 Q148 372 148 327 Q148 283 173 258 Q198 233 240 233 Z " />
<glyph glyph-name="yen" unicode="&#xa5;" horiz-adv-x="602" d="M110 337 L229 337 L45 690 L83 690 L301 262 L521 690 L556 690 L371 337 L508 337 L508 312 L358 312 L317 233 L317 177 L508 177 L508 152 L317 152 L317 0 L284 0 L284 152 L110 152 L110 177 L284 177 L284 233 L242 312 L110 312 L110 337 Z " />
<glyph glyph-name="brokenbar" unicode="&#xa6;" horiz-adv-x="257" d="M113 370 L113 740 L144 740 L144 370 L113 370 Z M113 -275 L113 94 L144 94 L144 -275 L113 -275 Z " />
<glyph glyph-name="section" unicode="&#xa7;" horiz-adv-x="464" d="M227 -10 Q150 -10 108.5 18.5 Q67 47 52 101 L82 109 Q96 65 131.5 41.5 Q167 18 230 18 Q303 18 336.5 48.5 Q370 79 370 121 Q370 169 335.5 192.5 Q301 216 236 228 Q191 237 159 248.5 Q127 260 106.5 275.5 Q86 291 77 312 Q68 333 68 361 Q68 399 87 426 Q106 453 138 468 Q102 485 86 510.5 Q70 536 70 573 Q70 633 115 667.5 Q160 702 232 702 Q307 702 345.5 672.5 Q384 643 393 592 L362 584 Q354 630 317 652 Q280 674 229 674 Q174 674 137.5 648 Q101 622 101 576 Q101 553 108 535.5 Q115 518 132 505.5 Q149 493 177 483 Q205 473 246 465 Q285 457 314.5 446.5 Q344 436 363.5 421 Q383 406 392.5 385 Q402 364 402 334 Q402 261 334 227 Q368 210 384.5 185.5 Q401 161 401 123 Q401 65 358.5 27.5 Q316 -10 227 -10 Z M237 439 Q199 445 173 454 Q140 444 120 421 Q100 398 100 364 Q100 341 107 324 Q114 307 131 294 Q148 281 176 271.5 Q204 262 245 254 Q261 251 275 247.5 Q289 244 301 240 Q337 252 354 276.5 Q371 301 371 332 Q371 380 336.5 403.5 Q302 427 237 439 Z " />
<glyph glyph-name="dieresis" unicode="&#xa8;" horiz-adv-x="529" d="M200 609 Q191 609 185 614.5 Q179 620 179 631 Q179 642 185 647.5 Q191 653 200 653 Q223 653 223 631 Q223 609 200 609 Z M328 609 Q306 609 306 631 Q306 653 328 653 Q350 653 350 631 Q350 609 328 609 Z " />
<glyph glyph-name="copyright" unicode="&#xa9;" horiz-adv-x="818" d="M409 -11 Q331 -11 263 18.5 Q195 48 144.5 98.5 Q94 149 65.5 217.5 Q37 286 37 364 Q37 442 65.5 510.5 Q94 579 144.5 630 Q195 681 263 710.5 Q331 740 409 740 Q487 740 555 710.5 Q623 681 673 630 Q723 579 752 510.5 Q781 442 781 364 Q781 286 752 217.5 Q723 149 673 98.5 Q623 48 555 18.5 Q487 -11 409 -11 Z M409 9 Q482 9 546.5 37 Q611 65 658 113 Q705 161 732.5 225.5 Q760 290 760 364 Q760 437 732.5 502 Q705 567 658 615.5 Q611 664 546.5 692 Q482 720 409 720 Q335 720 271 692 Q207 664 160 615.5 Q113 567 85.5 502 Q58 437 58 364 Q58 290 85.5 225.5 Q113 161 160 113 Q207 65 271 37 Q335 9 409 9 Z M411 119 Q361 119 321.5 136 Q282 153 254.5 184.5 Q227 216 212.5 260.5 Q198 305 198 359 Q198 414 213.5 459 Q229 504 257 536.5 Q285 569 324 586.5 Q363 604 410 604 Q479 604 523 572 Q567 540 586 487 L561 477 Q540 525 503 551.5 Q466 578 410 578 Q371 578 337.5 563 Q304 548 279.5 519.5 Q255 491 240.5 451 Q226 411 226 360 Q226 258 277 201.5 Q328 145 411 145 Q464 145 498.5 167.5 Q533 190 560 232 L583 217 Q554 170 513.5 144.5 Q473 119 411 119 Z " />
<glyph glyph-name="ordfeminine" unicode="&#xaa;" horiz-adv-x="426" d="M162 341 Q117 341 91.5 366.5 Q66 392 66 440 Q66 461 73.5 480 Q81 499 99.5 512.5 Q118 526 149 534 Q180 542 227 542 L301 542 L301 575 Q301 629 279.5 653 Q258 677 207 677 Q165 677 139 664.5 Q113 652 89 629 L75 649 Q101 674 131.5 687.5 Q162 701 207 701 Q274 701 301 669.5 Q328 638 328 578 L328 351 L302 351 L302 412 Q278 380 243.5 360.5 Q209 341 162 341 Z M167 365 Q212 365 242.5 382.5 Q273 400 301 437 L301 521 L222 521 Q184 521 159.5 515 Q135 509 120.5 498.5 Q106 488 100 473.5 Q94 459 94 442 Q94 406 112.5 385.5 Q131 365 167 365 Z " />
<glyph glyph-name="guillemotleft" unicode="&#xab;" horiz-adv-x="521" d="M249 244 L407 385 L426 364 L275 232 L427 100 L408 78 L249 220 L249 244 Z M67 244 L225 385 L244 364 L93 232 L245 100 L226 78 L67 220 L67 244 Z " />
<glyph glyph-name="logicalnot" unicode="&#xac;" horiz-adv-x="482" d="M65 441 L416 441 L416 241 L388 241 L388 413 L65 413 L65 441 Z " />
<glyph glyph-name="uni00AD" unicode="&#xad;" horiz-adv-x="413" d="" />
<glyph glyph-name="registered" unicode="&#xae;" horiz-adv-x="671" d="M336 214 Q273 214 218.5 237.5 Q164 261 123.5 302 Q83 343 60 398 Q37 453 37 516 Q37 579 60 633.5 Q83 688 123.5 729 Q164 770 218.5 793.5 Q273 817 336 817 Q399 817 453 793.5 Q507 770 547.5 729 Q588 688 611 633.5 Q634 579 634 516 Q634 453 611 398 Q588 343 547.5 302 Q507 261 453 237.5 Q399 214 336 214 Z M336 234 Q394 234 445 256.5 Q496 279 533.5 317 Q571 355 592.5 406.5 Q614 458 614 516 Q614 574 592.5 625 Q571 676 533.5 714.5 Q496 753 445 775 Q394 797 336 797 Q277 797 226.5 775 Q176 753 138 714.5 Q100 676 78.5 625 Q57 574 57 516 Q57 458 78.5 406.5 Q100 355 138 317 Q176 279 226.5 256.5 Q277 234 336 234 Z M240 349 L240 698 L293 698 Q333 698 360 690 Q387 682 403 668.5 Q419 655 426 635.5 Q433 616 433 594 Q433 582 429 568 Q425 554 416 541 Q407 528 391.5 517 Q376 506 354 499 Q389 493 408.5 472 Q428 451 435 402 Q437 383 439.5 369.5 Q442 356 443 349 L419 349 Q417 362 415 375.5 Q413 389 411 400 Q406 428 398.5 445 Q391 462 376.5 470.5 Q362 479 340.5 481.5 Q319 484 287 484 L264 484 L264 349 L240 349 Z M264 505 L279 505 Q315 505 340 512.5 Q365 520 380 532 Q395 544 402 559.5 Q409 575 409 592 Q409 611 404 626.5 Q399 642 385.5 653 Q372 664 348.5 670 Q325 676 289 676 L264 676 L264 505 Z M264 488 L264 487 L265 488 L264 488 Z " />
<glyph glyph-name="macron" unicode="&#xaf;" horiz-adv-x="529" d="M147 626 L147 651 L383 651 L383 626 L147 626 Z " />
<glyph glyph-name="degree" unicode="&#xb0;" horiz-adv-x="314" d="M248 583 Q248 627 223.5 651.5 Q199 676 157 676 Q119 676 92 651 Q65 626 65 581 Q65 537 90 512 Q115 487 157 487 Q196 487 222 513 Q248 539 248 583 Z M40 581 Q40 635 72.5 667.5 Q105 700 157 700 Q212 700 243 668.5 Q274 637 274 584 Q274 530 241.5 496.5 Q209 463 157 463 Q102 463 71 495 Q40 527 40 581 Z " />
<glyph glyph-name="plusminus" unicode="&#xb1;" horiz-adv-x="482" d="M65 349 L226 349 L226 518 L255 518 L255 349 L416 349 L416 321 L255 321 L255 150 L226 150 L226 321 L65 321 L65 349 Z M65 46 L416 46 L416 18 L65 18 L65 46 Z " />
<glyph glyph-name="twosuperior" unicode="&#xb2;" horiz-adv-x="337" d="M60 597 Q62 619 69.5 638 Q77 657 90.5 671 Q104 685 125.5 693 Q147 701 177 701 Q228 701 253.5 675 Q279 649 279 612 Q279 592 274 577.5 Q269 563 257.5 549.5 Q246 536 226 521.5 Q206 507 176 488 Q144 468 126.5 454.5 Q109 441 100.5 429 Q92 417 89.5 404.5 Q87 392 87 374 L283 374 L283 351 L60 351 L60 363 Q60 388 62.5 405 Q65 422 75 437 Q85 452 105 467.5 Q125 483 159 505 Q187 523 205 536 Q223 549 233.5 560.5 Q244 572 247.5 583 Q251 594 251 609 Q251 639 230.5 656.5 Q210 674 174 674 Q133 674 112.5 654 Q92 634 87 596 L60 597 L60 597 Z " />
<glyph glyph-name="threesuperior" unicode="&#xb3;" horiz-adv-x="337" d="M168 540 Q218 544 235.5 562 Q253 580 253 610 Q253 637 235 656 Q217 675 177 675 Q141 675 119 656.5 Q97 638 91 604 L64 609 Q72 652 101 676.5 Q130 701 178 701 Q231 701 256 676 Q281 651 281 613 Q281 553 220 532 Q258 521 274 498 Q290 475 290 445 Q290 398 260.5 369.5 Q231 341 176 341 Q126 341 94.5 363 Q63 385 54 435 L81 440 Q90 402 112.5 385 Q135 368 175 368 Q219 368 240.5 389.5 Q262 411 262 445 Q262 458 258.5 471.5 Q255 485 244.5 496 Q234 507 215.5 514 Q197 521 166 522 L168 540 Z " />
<glyph glyph-name="acute" unicode="&#xb4;" horiz-adv-x="529" d="M264 551 L243 564 L345 718 L371 702 L264 551 Z " />
<glyph glyph-name="mu" unicode="&#xb5;" horiz-adv-x="547" d="M111 481 L143 481 L143 166 Q143 89 172.5 54.5 Q202 20 271 20 Q325 20 363.5 45 Q402 70 433 108 L433 481 L465 481 L465 0 L435 0 L435 79 Q406 42 364.5 16 Q323 -10 265 -10 Q220 -10 190.5 1.5 Q161 13 143 36 L143 -250 L111 -250 L111 481 Z " />
<glyph glyph-name="paragraph" unicode="&#xb6;" horiz-adv-x="501" d="M273 0 L273 285 Q224 285 184 300 Q144 315 116 342 Q88 369 72.5 408 Q57 447 57 495 Q57 540 71.5 577.5 Q86 615 113.5 642.5 Q141 670 181 685 Q221 700 273 700 L304 700 L304 0 L273 0 Z M355 0 L355 700 L386 700 L386 0 L355 0 Z " />
<glyph glyph-name="periodcentered" unicode="&#xb7;" horiz-adv-x="529" d="M241 328 Q241 352 264 352 Q288 352 288 328 Q288 305 264 305 Q241 305 241 328 Z " />
<glyph glyph-name="cedilla" unicode="&#xb8;" horiz-adv-x="529" d="M257 -1 L257 -74 Q264 -72 271.5 -71 Q279 -70 290 -70 Q328 -70 354 -93 Q380 -116 380 -157 Q380 -182 370.5 -201 Q361 -220 345.5 -233 Q330 -246 309 -253 Q288 -260 264 -260 Q227 -260 204 -245.5 Q181 -231 170 -217 L184 -200 Q193 -210 212 -224.5 Q231 -239 265 -239 Q303 -239 329.5 -217.5 Q356 -196 356 -160 Q356 -125 334 -107.5 Q312 -90 283 -90 Q266 -90 255.5 -92 Q245 -94 236 -96 L236 -3 L257 -1 Z " />
<glyph glyph-name="onesuperior" unicode="&#xb9;" horiz-adv-x="337" d="M179 698 L203 698 L203 351 L176 351 L176 664 L90 597 L77 616 L179 698 Z " />
<glyph glyph-name="ordmasculine" unicode="&#xba;" horiz-adv-x="426" d="M214 341 Q140 341 97.5 389.5 Q55 438 55 519 Q55 560 67 593.5 Q79 627 100 651 Q121 675 150 688 Q179 701 214 701 Q288 701 329.5 653 Q371 605 371 524 Q371 483 359.5 449.5 Q348 416 327 392 Q306 368 277 354.5 Q248 341 214 341 Z M214 368 Q241 368 264.5 379 Q288 390 306 410 Q324 430 334 458.5 Q344 487 344 522 Q344 594 308 634 Q272 674 214 674 Q187 674 163 663.5 Q139 653 121 633 Q103 613 93 584.5 Q83 556 83 520 Q83 449 119 408.5 Q155 368 214 368 Z " />
<glyph glyph-name="guillemotright" unicode="&#xbb;" horiz-adv-x="521" d="M454 220 L295 78 L276 100 L428 232 L277 364 L296 385 L454 244 L454 220 Z M272 220 L113 78 L94 100 L246 232 L95 364 L114 385 L272 244 L272 220 Z " />
<glyph glyph-name="onequarter" unicode="&#xbc;" horiz-adv-x="728" d="M82 5 L658 701 L678 686 L101 -12 L82 5 Z M179 698 L203 698 L203 351 L176 351 L176 664 L90 597 L77 616 L179 698 Z M417 96 L595 357 L620 357 L620 100 L681 100 L681 76 L620 76 L620 5 L595 5 L595 76 L417 76 L417 96 Z M447 100 L595 100 L595 319 L447 100 Z " />
<glyph glyph-name="onehalf" unicode="&#xbd;" horiz-adv-x="728" d="M68 5 L644 701 L664 686 L87 -12 L68 5 Z M179 698 L203 698 L203 351 L176 351 L176 664 L90 597 L77 616 L179 698 Z M451 251 Q453 273 460.5 292 Q468 311 481.5 325 Q495 339 516.5 347 Q538 355 568 355 Q619 355 644.5 329 Q670 303 670 266 Q670 246 665 231.5 Q660 217 648.5 203.5 Q637 190 617 175.5 Q597 161 567 142 Q535 122 517.5 108.5 Q500 95 491.5 83 Q483 71 480.5 58.5 Q478 46 478 28 L674 28 L674 5 L451 5 L451 17 Q451 42 453.5 59 Q456 76 466 91 Q476 106 496 121.5 Q516 137 550 159 Q578 177 596 190 Q614 203 624.5 214.5 Q635 226 638.5 237 Q642 248 642 263 Q642 293 621.5 310.5 Q601 328 565 328 Q524 328 503.5 308 Q483 288 478 250 L451 251 L451 251 Z " />
<glyph glyph-name="threequarters" unicode="&#xbe;" horiz-adv-x="728" d="M86 5 L662 701 L682 686 L105 -12 L86 5 Z M417 96 L595 357 L620 357 L620 100 L681 100 L681 76 L620 76 L620 5 L595 5 L595 76 L417 76 L417 96 Z M447 100 L595 100 L595 319 L447 100 Z M168 540 Q218 544 235.5 562 Q253 580 253 610 Q253 637 235 656 Q217 675 177 675 Q141 675 119 656.5 Q97 638 91 604 L64 609 Q72 652 101 676.5 Q130 701 178 701 Q231 701 256 676 Q281 651 281 613 Q281 553 220 532 Q258 521 274 498 Q290 475 290 445 Q290 398 260.5 369.5 Q231 341 176 341 Q126 341 94.5 363 Q63 385 54 435 L81 440 Q90 402 112.5 385 Q135 368 175 368 Q219 368 240.5 389.5 Q262 411 262 445 Q262 458 258.5 471.5 Q255 485 244.5 496 Q234 507 215.5 514 Q197 521 166 522 L168 540 Z " />
<glyph glyph-name="questiondown" unicode="&#xbf;" horiz-adv-x="550" d="M320 294 Q320 251 315 222 Q310 193 297.5 171 Q285 149 263 130.5 Q241 112 208 90 Q162 61 135.5 28.5 Q109 -4 109 -56 Q109 -85 119.5 -110 Q130 -135 150 -154.5 Q170 -174 200 -185 Q230 -196 268 -196 Q346 -196 391.5 -150.5 Q437 -105 447 -27 L477 -33 Q473 -74 458 -109 Q443 -144 416.5 -170 Q390 -196 352 -211 Q314 -226 265 -226 Q220 -226 184.5 -213.5 Q149 -201 124.5 -178.5 Q100 -156 87 -125.5 Q74 -95 74 -59 Q74 -25 84 1 Q94 27 110.5 46.5 Q127 66 147.5 81 Q168 96 188 110 Q219 131 239.5 147.5 Q260 164 271 183.5 Q282 203 286.5 229 Q291 255 291 294 L320 294 Z M279 459 Q279 485 305 485 Q317 485 324.5 478 Q332 471 332 459 Q332 447 324.5 439.5 Q317 432 305 432 Q293 432 286 439.5 Q279 447 279 459 Z " />
<glyph glyph-name="Agrave" unicode="&#xc0;" horiz-adv-x="618" d="M45 0 L297 690 L319 690 L573 0 L535 0 L464 199 L150 199 L79 0 L45 0 Z M161 228 L453 228 L308 636 L161 228 Z M218 911 L244 928 L346 773 L325 760 L218 911 Z " />
<glyph glyph-name="Aacute" unicode="&#xc1;" horiz-adv-x="618" d="M45 0 L297 690 L319 690 L573 0 L535 0 L464 199 L150 199 L79 0 L45 0 Z M161 228 L453 228 L308 636 L161 228 Z M308 760 L287 773 L389 928 L415 911 L308 760 Z " />
<glyph glyph-name="Acircumflex" unicode="&#xc2;" horiz-adv-x="618" d="M45 0 L297 690 L319 690 L573 0 L535 0 L464 199 L150 199 L79 0 L45 0 Z M161 228 L453 228 L308 636 L161 228 Z M308 895 L211 760 L191 773 L296 928 L320 928 L425 773 L406 760 L308 895 Z " />
<glyph glyph-name="Atilde" unicode="&#xc3;" horiz-adv-x="618" d="M45 0 L297 690 L319 690 L573 0 L535 0 L464 199 L150 199 L79 0 L45 0 Z M161 228 L453 228 L308 636 L161 228 Z M180 835 Q193 856 209 870 Q225 884 247 884 Q264 884 279 875.5 Q294 867 308.5 857 Q323 847 337.5 838.5 Q352 830 367 830 Q394 830 418 868 L437 853 Q423 831 405.5 817 Q388 803 369 803 Q351 803 335.5 811.5 Q320 820 306 830 Q292 840 278 848.5 Q264 857 248 857 Q232 857 221 847 Q210 837 196 820 L180 835 Z " />
<glyph glyph-name="Adieresis" unicode="&#xc4;" horiz-adv-x="618" d="M45 0 L297 690 L319 690 L573 0 L535 0 L464 199 L150 199 L79 0 L45 0 Z M161 228 L453 228 L308 636 L161 228 Z M244 818 Q235 818 229 824 Q223 830 223 840 Q223 851 229 857 Q235 863 244 863 Q267 863 267 840 Q267 818 244 818 Z M372 818 Q350 818 350 840 Q350 863 372 863 Q394 863 394 840 Q394 818 372 818 Z " />
<glyph glyph-name="Aring" unicode="&#xc5;" horiz-adv-x="618" d="M45 0 L297 690 L319 690 L573 0 L535 0 L464 199 L150 199 L79 0 L45 0 Z M161 228 L453 228 L308 636 L161 228 Z M308 760 Q270 760 248.5 782 Q227 804 227 842 Q227 879 249.5 901.5 Q272 924 308 924 Q346 924 368 901.5 Q390 879 390 841 Q390 806 367 783 Q344 760 308 760 Z M308 779 Q337 779 353.5 796.5 Q370 814 370 842 Q370 871 353.5 888 Q337 905 308 905 Q279 905 263 888 Q247 871 247 842 Q247 813 263 796 Q279 779 308 779 Z " />
<glyph glyph-name="AE" unicode="&#xc6;" horiz-adv-x="876" d="M8 0 L426 690 L805 690 L805 661 L472 661 L472 377 L719 377 L719 348 L472 348 L472 29 L804 29 L804 0 L439 0 L439 203 L167 203 L46 0 L8 0 Z M439 232 L439 656 L185 232 L439 232 Z " />
<glyph glyph-name="Ccedilla" unicode="&#xc7;" horiz-adv-x="674" d="M370 -10 Q365 -10 359.5 -9.5 Q354 -9 349 -9 L349 -74 Q356 -72 363.5 -71 Q371 -70 382 -70 Q420 -70 446 -93 Q472 -116 472 -157 Q472 -182 462.5 -201 Q453 -220 437.5 -233 Q422 -246 401 -253 Q380 -260 356 -260 Q319 -260 296 -245.5 Q273 -231 262 -217 L276 -200 Q285 -210 304 -224.5 Q323 -239 357 -239 Q395 -239 421.5 -217.5 Q448 -196 448 -160 Q448 -125 426 -107.5 Q404 -90 375 -90 Q358 -90 347.5 -92 Q337 -94 328 -96 L328 -7 Q268 0 219 29 Q170 58 135 104.5 Q100 151 81 213 Q62 275 62 349 Q62 428 86 493 Q110 558 151 604 Q192 650 247 675 Q302 700 364 700 Q455 700 522.5 662 Q590 624 621 544 L589 531 Q575 567 552 593 Q529 619 499.5 636 Q470 653 435.5 661 Q401 669 365 669 Q309 669 260 646 Q211 623 174.5 581 Q138 539 117 480 Q96 421 96 349 Q96 275 115.5 215 Q135 155 171 111.5 Q207 68 258 44.5 Q309 21 372 21 Q449 21 505.5 54.5 Q562 88 602 159 L629 140 Q584 66 522 28 Q460 -10 370 -10 Z " />
<glyph glyph-name="Egrave" unicode="&#xc8;" horiz-adv-x="529" d="M108 0 L108 690 L474 690 L474 661 L141 661 L141 377 L388 377 L388 348 L141 348 L141 29 L473 29 L473 0 L108 0 Z M211 911 L237 928 L339 773 L318 760 L211 911 Z " />
<glyph glyph-name="Eacute" unicode="&#xc9;" horiz-adv-x="529" d="M108 0 L108 690 L474 690 L474 661 L141 661 L141 377 L388 377 L388 348 L141 348 L141 29 L473 29 L473 0 L108 0 Z M267 760 L246 773 L348 928 L374 911 L267 760 Z " />
<glyph glyph-name="Ecircumflex" unicode="&#xca;" horiz-adv-x="529" d="M108 0 L108 690 L474 690 L474 661 L141 661 L141 377 L388 377 L388 348 L141 348 L141 29 L473 29 L473 0 L108 0 Z M293 895 L196 760 L176 773 L281 928 L305 928 L410 773 L391 760 L293 895 Z " />
<glyph glyph-name="Edieresis" unicode="&#xcb;" horiz-adv-x="529" d="M108 0 L108 690 L474 690 L474 661 L141 661 L141 377 L388 377 L388 348 L141 348 L141 29 L473 29 L473 0 L108 0 Z M229 818 Q220 818 214 824 Q208 830 208 840 Q208 851 214 857 Q220 863 229 863 Q252 863 252 840 Q252 818 229 818 Z M357 818 Q335 818 335 840 Q335 863 357 863 Q379 863 379 840 Q379 818 357 818 Z " />
<glyph glyph-name="Igrave" unicode="&#xcc;" horiz-adv-x="250" d="M108 0 L108 690 L141 690 L141 0 L108 0 Z M35 911 L61 928 L163 773 L142 760 L35 911 Z " />
<glyph glyph-name="Iacute" unicode="&#xcd;" horiz-adv-x="250" d="M108 0 L108 690 L141 690 L141 0 L108 0 Z M125 760 L104 773 L206 928 L232 911 L125 760 Z " />
<glyph glyph-name="Icircumflex" unicode="&#xce;" horiz-adv-x="250" d="M108 0 L108 690 L141 690 L141 0 L108 0 Z M125 895 L28 760 L8 773 L113 928 L137 928 L242 773 L223 760 L125 895 Z " />
<glyph glyph-name="Idieresis" unicode="&#xcf;" horiz-adv-x="250" d="M108 0 L108 690 L141 690 L141 0 L108 0 Z M61 818 Q52 818 46 824 Q40 830 40 840 Q40 851 46 857 Q52 863 61 863 Q84 863 84 840 Q84 818 61 818 Z M189 818 Q167 818 167 840 Q167 863 189 863 Q211 863 211 840 Q211 818 189 818 Z " />
<glyph glyph-name="Eth" unicode="&#xd0;" horiz-adv-x="682" d="M62 352 L109 352 L109 690 L242 690 Q336 690 406.5 666 Q477 642 524.5 597 Q572 552 596 488 Q620 424 620 345 Q620 268 594.5 204.5 Q569 141 520 95.5 Q471 50 399 25 Q327 0 235 0 L109 0 L109 330 L62 330 L62 352 Z M232 29 Q314 29 380 50.5 Q446 72 491.5 113 Q537 154 561.5 212 Q586 270 586 344 Q586 421 562.5 480 Q539 539 494.5 579 Q450 619 386 639.5 Q322 660 241 660 L143 660 L143 352 L282 352 L282 330 L143 330 L143 29 L232 29 Z " />
<glyph glyph-name="Ntilde" unicode="&#xd1;" horiz-adv-x="716" d="M140 634 L140 0 L108 0 L108 690 L140 690 L576 55 L576 690 L607 690 L607 0 L576 0 L140 634 Z M229 835 Q242 856 258 870 Q274 884 296 884 Q313 884 328 875.5 Q343 867 357.5 857 Q372 847 386.5 838.5 Q401 830 416 830 Q443 830 467 868 L486 853 Q472 831 454.5 817 Q437 803 418 803 Q400 803 384.5 811.5 Q369 820 355 830 Q341 840 327 848.5 Q313 857 297 857 Q281 857 270 847 Q259 837 245 820 L229 835 Z " />
<glyph glyph-name="Ograve" unicode="&#xd2;" horiz-adv-x="773" d="M387 -10 Q313 -10 253 15.5 Q193 41 150.5 88 Q108 135 85 200 Q62 265 62 345 Q62 423 85.5 488 Q109 553 152 600 Q195 647 254 673.5 Q313 700 385 700 Q460 700 520 674.5 Q580 649 622.5 602 Q665 555 688 489.5 Q711 424 711 345 Q711 267 687 202 Q663 137 620.5 90 Q578 43 518.5 16.5 Q459 -10 387 -10 Z M387 21 Q452 21 505.5 44 Q559 67 597 109.5 Q635 152 656 211.5 Q677 271 677 344 Q677 419 656.5 479 Q636 539 598 581.5 Q560 624 506 646.5 Q452 669 385 669 Q320 669 267 645.5 Q214 622 176 579.5 Q138 537 117 477.5 Q96 418 96 346 Q96 271 116.5 211 Q137 151 175 108.5 Q213 66 267 43.5 Q321 21 387 21 Z M296 911 L322 928 L424 773 L403 760 L296 911 Z " />
<glyph glyph-name="Oacute" unicode="&#xd3;" horiz-adv-x="773" d="M387 -10 Q313 -10 253 15.5 Q193 41 150.5 88 Q108 135 85 200 Q62 265 62 345 Q62 423 85.5 488 Q109 553 152 600 Q195 647 254 673.5 Q313 700 385 700 Q460 700 520 674.5 Q580 649 622.5 602 Q665 555 688 489.5 Q711 424 711 345 Q711 267 687 202 Q663 137 620.5 90 Q578 43 518.5 16.5 Q459 -10 387 -10 Z M387 21 Q452 21 505.5 44 Q559 67 597 109.5 Q635 152 656 211.5 Q677 271 677 344 Q677 419 656.5 479 Q636 539 598 581.5 Q560 624 506 646.5 Q452 669 385 669 Q320 669 267 645.5 Q214 622 176 579.5 Q138 537 117 477.5 Q96 418 96 346 Q96 271 116.5 211 Q137 151 175 108.5 Q213 66 267 43.5 Q321 21 387 21 Z M386 760 L365 773 L467 928 L493 911 L386 760 Z " />
<glyph glyph-name="Ocircumflex" unicode="&#xd4;" horiz-adv-x="773" d="M387 -10 Q313 -10 253 15.5 Q193 41 150.5 88 Q108 135 85 200 Q62 265 62 345 Q62 423 85.5 488 Q109 553 152 600 Q195 647 254 673.5 Q313 700 385 700 Q460 700 520 674.5 Q580 649 622.5 602 Q665 555 688 489.5 Q711 424 711 345 Q711 267 687 202 Q663 137 620.5 90 Q578 43 518.5 16.5 Q459 -10 387 -10 Z M387 21 Q452 21 505.5 44 Q559 67 597 109.5 Q635 152 656 211.5 Q677 271 677 344 Q677 419 656.5 479 Q636 539 598 581.5 Q560 624 506 646.5 Q452 669 385 669 Q320 669 267 645.5 Q214 622 176 579.5 Q138 537 117 477.5 Q96 418 96 346 Q96 271 116.5 211 Q137 151 175 108.5 Q213 66 267 43.5 Q321 21 387 21 Z M386 895 L289 760 L269 773 L374 928 L398 928 L503 773 L484 760 L386 895 Z " />
<glyph glyph-name="Otilde" unicode="&#xd5;" horiz-adv-x="773" d="M387 -10 Q313 -10 253 15.5 Q193 41 150.5 88 Q108 135 85 200 Q62 265 62 345 Q62 423 85.5 488 Q109 553 152 600 Q195 647 254 673.5 Q313 700 385 700 Q460 700 520 674.5 Q580 649 622.5 602 Q665 555 688 489.5 Q711 424 711 345 Q711 267 687 202 Q663 137 620.5 90 Q578 43 518.5 16.5 Q459 -10 387 -10 Z M387 21 Q452 21 505.5 44 Q559 67 597 109.5 Q635 152 656 211.5 Q677 271 677 344 Q677 419 656.5 479 Q636 539 598 581.5 Q560 624 506 646.5 Q452 669 385 669 Q320 669 267 645.5 Q214 622 176 579.5 Q138 537 117 477.5 Q96 418 96 346 Q96 271 116.5 211 Q137 151 175 108.5 Q213 66 267 43.5 Q321 21 387 21 Z M258 835 Q271 856 287 870 Q303 884 325 884 Q342 884 357 875.5 Q372 867 386.5 857 Q401 847 415.5 838.5 Q430 830 445 830 Q472 830 496 868 L515 853 Q501 831 483.5 817 Q466 803 447 803 Q429 803 413.5 811.5 Q398 820 384 830 Q370 840 356 848.5 Q342 857 326 857 Q310 857 299 847 Q288 837 274 820 L258 835 Z " />
<glyph glyph-name="Odieresis" unicode="&#xd6;" horiz-adv-x="773" d="M387 -10 Q313 -10 253 15.5 Q193 41 150.5 88 Q108 135 85 200 Q62 265 62 345 Q62 423 85.5 488 Q109 553 152 600 Q195 647 254 673.5 Q313 700 385 700 Q460 700 520 674.5 Q580 649 622.5 602 Q665 555 688 489.5 Q711 424 711 345 Q711 267 687 202 Q663 137 620.5 90 Q578 43 518.5 16.5 Q459 -10 387 -10 Z M387 21 Q452 21 505.5 44 Q559 67 597 109.5 Q635 152 656 211.5 Q677 271 677 344 Q677 419 656.5 479 Q636 539 598 581.5 Q560 624 506 646.5 Q452 669 385 669 Q320 669 267 645.5 Q214 622 176 579.5 Q138 537 117 477.5 Q96 418 96 346 Q96 271 116.5 211 Q137 151 175 108.5 Q213 66 267 43.5 Q321 21 387 21 Z M322 818 Q313 818 307 824 Q301 830 301 840 Q301 851 307 857 Q313 863 322 863 Q345 863 345 840 Q345 818 322 818 Z M450 818 Q428 818 428 840 Q428 863 450 863 Q472 863 472 840 Q472 818 450 818 Z " />
<glyph glyph-name="multiply" unicode="&#xd7;" horiz-adv-x="482" d="M92 199 L220 327 L93 455 L114 475 L241 348 L369 476 L389 456 L261 328 L389 200 L369 179 L240 307 L112 179 L92 199 Z " />
<glyph glyph-name="Oslash" unicode="&#xd8;" horiz-adv-x="770" d="M89 10 L151 84 Q107 132 83.5 198 Q60 264 60 345 Q60 423 84 488 Q108 553 150.5 600 Q193 647 252.5 673.5 Q312 700 384 700 Q451 700 505.5 679.5 Q560 659 602 621 L663 694 L679 680 L617 606 Q662 558 685.5 492 Q709 426 709 345 Q709 267 685.5 202 Q662 137 619 90 Q576 43 517 16.5 Q458 -10 386 -10 Q318 -10 263 10.5 Q208 31 166 69 L105 -4 L89 10 Z M386 21 Q451 21 504.5 44 Q558 67 596 109.5 Q634 152 654.5 211.5 Q675 271 675 344 Q675 419 654.5 479 Q634 539 596 581 L187 94 Q225 59 275 40 Q325 21 386 21 Z M94 346 Q94 271 114 211 Q134 151 172 109 L581 596 Q544 631 494 650 Q444 669 384 669 Q319 669 265.5 645.5 Q212 622 174 579.5 Q136 537 115 477.5 Q94 418 94 346 Z " />
<glyph glyph-name="Ugrave" unicode="&#xd9;" horiz-adv-x="686" d="M340 -10 Q225 -10 162 60.5 Q99 131 99 274 L99 690 L132 687 L132 279 Q132 146 187.5 83 Q243 20 344 20 Q444 20 499 84.5 Q554 149 554 276 L554 690 L587 690 L587 274 Q587 136 524 63 Q461 -10 340 -10 Z M252 911 L278 928 L380 773 L359 760 L252 911 Z " />
<glyph glyph-name="Uacute" unicode="&#xda;" horiz-adv-x="686" d="M340 -10 Q225 -10 162 60.5 Q99 131 99 274 L99 690 L132 687 L132 279 Q132 146 187.5 83 Q243 20 344 20 Q444 20 499 84.5 Q554 149 554 276 L554 690 L587 690 L587 274 Q587 136 524 63 Q461 -10 340 -10 Z M342 760 L321 773 L423 928 L449 911 L342 760 Z " />
<glyph glyph-name="Ucircumflex" unicode="&#xdb;" horiz-adv-x="686" d="M340 -10 Q225 -10 162 60.5 Q99 131 99 274 L99 690 L132 687 L132 279 Q132 146 187.5 83 Q243 20 344 20 Q444 20 499 84.5 Q554 149 554 276 L554 690 L587 690 L587 274 Q587 136 524 63 Q461 -10 340 -10 Z M342 895 L245 760 L225 773 L330 928 L354 928 L459 773 L440 760 L342 895 Z " />
<glyph glyph-name="Udieresis" unicode="&#xdc;" horiz-adv-x="686" d="M340 -10 Q225 -10 162 60.5 Q99 131 99 274 L99 690 L132 687 L132 279 Q132 146 187.5 83 Q243 20 344 20 Q444 20 499 84.5 Q554 149 554 276 L554 690 L587 690 L587 274 Q587 136 524 63 Q461 -10 340 -10 Z M278 818 Q269 818 263 824 Q257 830 257 840 Q257 851 263 857 Q269 863 278 863 Q301 863 301 840 Q301 818 278 818 Z M406 818 Q384 818 384 840 Q384 863 406 863 Q428 863 428 840 Q428 818 406 818 Z " />
<glyph glyph-name="Yacute" unicode="&#xdd;" horiz-adv-x="565" d="M265 0 L265 233 L27 690 L65 690 L283 263 L502 690 L538 690 L299 233 L299 0 L265 0 Z M282 760 L261 773 L363 928 L389 911 L282 760 Z " />
<glyph glyph-name="Thorn" unicode="&#xde;" horiz-adv-x="555" d="M109 0 L109 690 L143 690 L143 572 L199 572 Q284 572 340.5 555 Q397 538 431 508.5 Q465 479 479.5 439.5 Q494 400 494 355 Q494 295 473.5 252.5 Q453 210 418 182.5 Q383 155 336.5 142.5 Q290 130 237 130 L224 130 L224 158 L236 158 Q284 158 325 169.5 Q366 181 396 205 Q426 229 443 266 Q460 303 460 355 Q460 394 447 428 Q434 462 403.5 487.5 Q373 513 322.5 528 Q272 543 197 543 L143 543 L143 0 L109 0 Z " />
<glyph glyph-name="germandbls" unicode="&#xdf;" horiz-adv-x="561" d="M99 0 L99 566 Q99 602 107 634.5 Q115 667 133.5 692.5 Q152 718 183 733 Q214 748 261 748 Q330 748 370 715 Q410 682 410 615 Q410 580 395 553 Q380 526 361.5 502 Q343 478 328 455.5 Q313 433 313 408 Q313 376 333.5 350 Q354 324 407 286 Q435 266 455.5 248.5 Q476 231 489 212 Q502 193 508.5 171.5 Q515 150 515 122 Q515 92 503.5 67.5 Q492 43 471.5 25.5 Q451 8 423.5 -1 Q396 -10 363 -10 Q308 -10 272 17.5 Q236 45 220 96 L246 108 Q260 65 290.5 42.5 Q321 20 364 20 Q414 20 448 46 Q482 72 482 119 Q482 144 476 163.5 Q470 183 457 200 Q444 217 425 233.5 Q406 250 381 268 Q353 288 334 305 Q315 322 303 338 Q291 354 286 370 Q281 386 281 404 Q281 432 296 456 Q311 480 329 503.5 Q347 527 362 552.5 Q377 578 377 610 Q377 660 349 689.5 Q321 719 260 719 Q224 719 199 707 Q174 695 159 674 Q144 653 137.5 625.5 Q131 598 131 567 L131 0 L99 0 Z " />
<glyph glyph-name="agrave" unicode="&#xe0;" horiz-adv-x="522" d="M199 -10 Q136 -10 100.5 25.5 Q65 61 65 127 Q65 156 75 181.5 Q85 207 110.5 225.5 Q136 244 179 255 Q222 266 288 266 L391 266 L391 315 Q391 392 361 426.5 Q331 461 259 461 Q203 461 166 443 Q129 425 95 393 L77 417 Q112 453 155.5 472 Q199 491 261 491 Q307 491 338 479.5 Q369 468 388 446.5 Q407 425 415 392.5 Q423 360 423 318 L423 0 L393 0 L393 87 Q358 39 311.5 14.5 Q265 -10 199 -10 Z M204 17 Q268 17 310 41.5 Q352 66 391 118 L391 240 L279 240 Q226 240 191 231.5 Q156 223 135.5 208 Q115 193 106.5 172.5 Q98 152 98 128 Q98 77 125.5 47 Q153 17 204 17 Z M171 702 L197 718 L299 564 L278 551 L171 702 Z " />
<glyph glyph-name="aacute" unicode="&#xe1;" horiz-adv-x="522" d="M199 -10 Q136 -10 100.5 25.5 Q65 61 65 127 Q65 156 75 181.5 Q85 207 110.5 225.5 Q136 244 179 255 Q222 266 288 266 L391 266 L391 315 Q391 392 361 426.5 Q331 461 259 461 Q203 461 166 443 Q129 425 95 393 L77 417 Q112 453 155.5 472 Q199 491 261 491 Q307 491 338 479.5 Q369 468 388 446.5 Q407 425 415 392.5 Q423 360 423 318 L423 0 L393 0 L393 87 Q358 39 311.5 14.5 Q265 -10 199 -10 Z M204 17 Q268 17 310 41.5 Q352 66 391 118 L391 240 L279 240 Q226 240 191 231.5 Q156 223 135.5 208 Q115 193 106.5 172.5 Q98 152 98 128 Q98 77 125.5 47 Q153 17 204 17 Z M261 551 L240 564 L342 718 L368 702 L261 551 Z " />
<glyph glyph-name="acircumflex" unicode="&#xe2;" horiz-adv-x="522" d="M199 -10 Q136 -10 100.5 25.5 Q65 61 65 127 Q65 156 75 181.5 Q85 207 110.5 225.5 Q136 244 179 255 Q222 266 288 266 L391 266 L391 315 Q391 392 361 426.5 Q331 461 259 461 Q203 461 166 443 Q129 425 95 393 L77 417 Q112 453 155.5 472 Q199 491 261 491 Q307 491 338 479.5 Q369 468 388 446.5 Q407 425 415 392.5 Q423 360 423 318 L423 0 L393 0 L393 87 Q358 39 311.5 14.5 Q265 -10 199 -10 Z M204 17 Q268 17 310 41.5 Q352 66 391 118 L391 240 L279 240 Q226 240 191 231.5 Q156 223 135.5 208 Q115 193 106.5 172.5 Q98 152 98 128 Q98 77 125.5 47 Q153 17 204 17 Z M261 686 L164 551 L144 564 L249 718 L273 718 L378 564 L359 551 L261 686 Z " />
<glyph glyph-name="atilde" unicode="&#xe3;" horiz-adv-x="522" d="M199 -10 Q136 -10 100.5 25.5 Q65 61 65 127 Q65 156 75 181.5 Q85 207 110.5 225.5 Q136 244 179 255 Q222 266 288 266 L391 266 L391 315 Q391 392 361 426.5 Q331 461 259 461 Q203 461 166 443 Q129 425 95 393 L77 417 Q112 453 155.5 472 Q199 491 261 491 Q307 491 338 479.5 Q369 468 388 446.5 Q407 425 415 392.5 Q423 360 423 318 L423 0 L393 0 L393 87 Q358 39 311.5 14.5 Q265 -10 199 -10 Z M204 17 Q268 17 310 41.5 Q352 66 391 118 L391 240 L279 240 Q226 240 191 231.5 Q156 223 135.5 208 Q115 193 106.5 172.5 Q98 152 98 128 Q98 77 125.5 47 Q153 17 204 17 Z M133 626 Q146 646 162 660 Q178 674 200 674 Q217 674 232 665.5 Q247 657 261.5 647.5 Q276 638 290.5 629.5 Q305 621 320 621 Q347 621 371 659 L390 644 Q376 622 358.5 608 Q341 594 322 594 Q304 594 288.5 602.5 Q273 611 259 621 Q245 631 231 639.5 Q217 648 201 648 Q185 648 174 638 Q163 628 149 611 L133 626 Z " />
<glyph glyph-name="adieresis" unicode="&#xe4;" horiz-adv-x="522" d="M199 -10 Q136 -10 100.5 25.5 Q65 61 65 127 Q65 156 75 181.5 Q85 207 110.5 225.5 Q136 244 179 255 Q222 266 288 266 L391 266 L391 315 Q391 392 361 426.5 Q331 461 259 461 Q203 461 166 443 Q129 425 95 393 L77 417 Q112 453 155.5 472 Q199 491 261 491 Q307 491 338 479.5 Q369 468 388 446.5 Q407 425 415 392.5 Q423 360 423 318 L423 0 L393 0 L393 87 Q358 39 311.5 14.5 Q265 -10 199 -10 Z M204 17 Q268 17 310 41.5 Q352 66 391 118 L391 240 L279 240 Q226 240 191 231.5 Q156 223 135.5 208 Q115 193 106.5 172.5 Q98 152 98 128 Q98 77 125.5 47 Q153 17 204 17 Z M197 609 Q188 609 182 614.5 Q176 620 176 631 Q176 642 182 647.5 Q188 653 197 653 Q220 653 220 631 Q220 609 197 609 Z M325 609 Q303 609 303 631 Q303 653 325 653 Q347 653 347 631 Q347 609 325 609 Z " />
<glyph glyph-name="aring" unicode="&#xe5;" horiz-adv-x="522" d="M199 -10 Q136 -10 100.5 25.5 Q65 61 65 127 Q65 156 75 181.5 Q85 207 110.5 225.5 Q136 244 179 255 Q222 266 288 266 L391 266 L391 315 Q391 392 361 426.5 Q331 461 259 461 Q203 461 166 443 Q129 425 95 393 L77 417 Q112 453 155.5 472 Q199 491 261 491 Q307 491 338 479.5 Q369 468 388 446.5 Q407 425 415 392.5 Q423 360 423 318 L423 0 L393 0 L393 87 Q358 39 311.5 14.5 Q265 -10 199 -10 Z M204 17 Q268 17 310 41.5 Q352 66 391 118 L391 240 L279 240 Q226 240 191 231.5 Q156 223 135.5 208 Q115 193 106.5 172.5 Q98 152 98 128 Q98 77 125.5 47 Q153 17 204 17 Z M261 551 Q223 551 201.5 573 Q180 595 180 633 Q180 669 202.5 692 Q225 715 261 715 Q299 715 321 692.5 Q343 670 343 632 Q343 596 320 573.5 Q297 551 261 551 Z M261 570 Q290 570 306.5 587 Q323 604 323 633 Q323 662 306.5 679 Q290 696 261 696 Q232 696 216 678.5 Q200 661 200 632 Q200 604 216 587 Q232 570 261 570 Z " />
<glyph glyph-name="ae" unicode="&#xe6;" horiz-adv-x="838" d="M203 -10 Q137 -10 101 25.5 Q65 61 65 127 Q65 156 75 181.5 Q85 207 110.5 225.5 Q136 244 179 255 Q222 266 288 266 L381 266 L381 315 Q381 392 353 426.5 Q325 461 259 461 Q203 461 166 443 Q129 425 95 393 L77 417 Q112 453 155.5 472 Q199 491 261 491 Q331 491 365 461.5 Q399 432 409 375 Q435 429 480.5 460 Q526 491 588 491 Q637 491 673.5 475 Q710 459 733.5 429 Q757 399 768 357 Q779 315 778 263 L413 263 L413 239 Q413 135 462.5 77 Q512 19 597 19 Q647 19 683 42 Q719 65 745 108 L771 92 Q742 43 699.5 16.5 Q657 -10 597 -10 Q519 -10 467.5 29.5 Q416 69 395 138 Q384 97 363 68.5 Q342 40 316 22.5 Q290 5 260.5 -2.5 Q231 -10 203 -10 Z M209 17 Q239 17 269.5 27 Q300 37 324.5 61 Q349 85 365 126 Q381 167 381 230 L381 240 L279 240 Q226 240 191 231.5 Q156 223 135.5 208 Q115 193 106.5 172.5 Q98 152 98 128 Q98 77 126.5 47 Q155 17 209 17 Z M587 462 Q520 462 474 416 Q428 370 416 289 L747 289 Q743 369 704 415.5 Q665 462 587 462 Z " />
<glyph glyph-name="ccedilla" unicode="&#xe7;" horiz-adv-x="499" d="M447 92 Q416 44 375 17.5 Q334 -9 269 -10 L269 -74 Q276 -72 284 -71 Q292 -70 303 -70 Q341 -70 366.5 -93 Q392 -116 392 -157 Q392 -182 382.5 -201 Q373 -220 357.5 -233 Q342 -246 321 -253 Q300 -260 276 -260 Q239 -260 216.5 -245.5 Q194 -231 183 -217 L196 -200 Q206 -210 224.5 -224.5 Q243 -239 277 -239 Q315 -239 341.5 -217.5 Q368 -196 368 -160 Q368 -125 346.5 -107.5 Q325 -90 296 -90 Q278 -90 267.5 -92 Q257 -94 248 -96 L248 -9 Q157 -2 107 64.5 Q57 131 57 238 Q57 295 72.5 341.5 Q88 388 116 421 Q144 454 184 472.5 Q224 491 272 491 Q344 491 387 457.5 Q430 424 450 369 L421 358 Q399 408 364 434.5 Q329 461 272 461 Q233 461 199.5 445.5 Q166 430 141.5 401.5 Q117 373 103 332 Q89 291 89 239 Q89 135 138 77.5 Q187 20 267 20 Q322 20 357.5 42.5 Q393 65 420 108 L447 92 Z " />
<glyph glyph-name="egrave" unicode="&#xe8;" horiz-adv-x="525" d="M277 -10 Q226 -10 185 8 Q144 26 115.5 58.5 Q87 91 72 136.5 Q57 182 57 238 Q57 295 72.5 341.5 Q88 388 116 421 Q144 454 182.5 472.5 Q221 491 268 491 Q320 491 357.5 475 Q395 459 419 429 Q443 399 454 357 Q465 315 464 263 L90 263 Q89 257 89 251 Q89 245 89 239 Q89 187 102.5 146.5 Q116 106 141 77.5 Q166 49 200.5 34 Q235 19 277 19 Q331 19 367 42 Q403 65 430 108 L456 92 Q426 43 384 16.5 Q342 -10 277 -10 Z M267 462 Q201 462 153 416 Q105 370 92 289 L432 289 Q430 329 419.5 361 Q409 393 389 415.5 Q369 438 339 450 Q309 462 267 462 Z M183 702 L209 718 L311 564 L290 551 L183 702 Z " />
<glyph glyph-name="eacute" unicode="&#xe9;" horiz-adv-x="525" d="M277 -10 Q226 -10 185 8 Q144 26 115.5 58.5 Q87 91 72 136.5 Q57 182 57 238 Q57 295 72.5 341.5 Q88 388 116 421 Q144 454 182.5 472.5 Q221 491 268 491 Q320 491 357.5 475 Q395 459 419 429 Q443 399 454 357 Q465 315 464 263 L90 263 Q89 257 89 251 Q89 245 89 239 Q89 187 102.5 146.5 Q116 106 141 77.5 Q166 49 200.5 34 Q235 19 277 19 Q331 19 367 42 Q403 65 430 108 L456 92 Q426 43 384 16.5 Q342 -10 277 -10 Z M267 462 Q201 462 153 416 Q105 370 92 289 L432 289 Q430 329 419.5 361 Q409 393 389 415.5 Q369 438 339 450 Q309 462 267 462 Z M273 551 L252 564 L354 718 L380 702 L273 551 Z " />
<glyph glyph-name="ecircumflex" unicode="&#xea;" horiz-adv-x="525" d="M277 -10 Q226 -10 185 8 Q144 26 115.5 58.5 Q87 91 72 136.5 Q57 182 57 238 Q57 295 72.5 341.5 Q88 388 116 421 Q144 454 182.5 472.5 Q221 491 268 491 Q320 491 357.5 475 Q395 459 419 429 Q443 399 454 357 Q465 315 464 263 L90 263 Q89 257 89 251 Q89 245 89 239 Q89 187 102.5 146.5 Q116 106 141 77.5 Q166 49 200.5 34 Q235 19 277 19 Q331 19 367 42 Q403 65 430 108 L456 92 Q426 43 384 16.5 Q342 -10 277 -10 Z M267 462 Q201 462 153 416 Q105 370 92 289 L432 289 Q430 329 419.5 361 Q409 393 389 415.5 Q369 438 339 450 Q309 462 267 462 Z M273 686 L176 551 L156 564 L261 718 L285 718 L390 564 L371 551 L273 686 Z " />
<glyph glyph-name="edieresis" unicode="&#xeb;" horiz-adv-x="525" d="M277 -10 Q226 -10 185 8 Q144 26 115.5 58.5 Q87 91 72 136.5 Q57 182 57 238 Q57 295 72.5 341.5 Q88 388 116 421 Q144 454 182.5 472.5 Q221 491 268 491 Q320 491 357.5 475 Q395 459 419 429 Q443 399 454 357 Q465 315 464 263 L90 263 Q89 257 89 251 Q89 245 89 239 Q89 187 102.5 146.5 Q116 106 141 77.5 Q166 49 200.5 34 Q235 19 277 19 Q331 19 367 42 Q403 65 430 108 L456 92 Q426 43 384 16.5 Q342 -10 277 -10 Z M267 462 Q201 462 153 416 Q105 370 92 289 L432 289 Q430 329 419.5 361 Q409 393 389 415.5 Q369 438 339 450 Q309 462 267 462 Z M209 609 Q200 609 194 614.5 Q188 620 188 631 Q188 642 194 647.5 Q200 653 209 653 Q232 653 232 631 Q232 609 209 609 Z M337 609 Q315 609 315 631 Q315 653 337 653 Q359 653 359 631 Q359 609 337 609 Z " />
<glyph glyph-name="igrave" unicode="&#xec;" horiz-adv-x="230" d="M99 0 L99 481 L131 481 L131 0 L99 0 Z M25 702 L51 718 L153 564 L132 551 L25 702 Z " />
<glyph glyph-name="iacute" unicode="&#xed;" horiz-adv-x="230" d="M99 0 L99 481 L131 481 L131 0 L99 0 Z M115 551 L94 564 L196 718 L222 702 L115 551 Z " />
<glyph glyph-name="icircumflex" unicode="&#xee;" horiz-adv-x="230" d="M99 0 L99 481 L131 481 L131 0 L99 0 Z M115 686 L18 551 L-2 564 L103 718 L127 718 L232 564 L213 551 L115 686 Z " />
<glyph glyph-name="idieresis" unicode="&#xef;" horiz-adv-x="230" d="M99 0 L99 481 L131 481 L131 0 L99 0 Z M51 609 Q42 609 36 614.5 Q30 620 30 631 Q30 642 36 647.5 Q42 653 51 653 Q74 653 74 631 Q74 609 51 609 Z M179 609 Q157 609 157 631 Q157 653 179 653 Q201 653 201 631 Q201 609 179 609 Z " />
<glyph glyph-name="eth" unicode="&#xf0;" horiz-adv-x="555" d="M155 740 Q204 714 252 680 L301 742 L318 729 L270 667 Q318 631 358.5 587 Q399 543 429 492 Q459 441 476.5 384 Q494 327 497 264 Q498 259 498 254 Q498 249 498 244 Q498 187 482 140 Q466 93 436.5 60 Q407 27 366.5 8.5 Q326 -10 278 -10 Q226 -10 185 8 Q144 26 115.5 58.5 Q87 91 72 136.5 Q57 182 57 238 Q57 295 73.5 341.5 Q90 388 119 421 Q148 454 189 472.5 Q230 491 278 491 Q321 491 356.5 478 Q392 465 420 442 Q391 503 348 554 Q305 605 253 646 L200 578 L182 591 L236 659 Q213 676 190 690.5 Q167 705 143 717 L155 740 Z M278 20 Q318 20 352 35.5 Q386 51 411.5 79.5 Q437 108 451.5 149.5 Q466 191 466 242 Q466 248 466 253.5 Q466 259 465 265 Q459 359 408 410 Q357 461 278 461 Q239 461 204.5 445.5 Q170 430 144.5 401.5 Q119 373 104 332 Q89 291 89 239 Q89 187 103 146.5 Q117 106 141.5 78 Q166 50 201 35 Q236 20 278 20 Z " />
<glyph glyph-name="ntilde" unicode="&#xf1;" horiz-adv-x="567" d="M99 0 L99 481 L130 481 L130 402 Q161 439 204 465 Q247 491 309 491 Q357 491 388.5 479.5 Q420 468 438.5 446.5 Q457 425 465 392.5 Q473 360 473 318 L473 0 L441 0 L441 315 Q441 391 409.5 426 Q378 461 303 461 Q244 461 204 435.5 Q164 410 131 370 L131 0 L99 0 Z M155 626 Q168 646 184 660 Q200 674 222 674 Q239 674 254 665.5 Q269 657 283.5 647.5 Q298 638 312.5 629.5 Q327 621 342 621 Q369 621 393 659 L412 644 Q398 622 380.5 608 Q363 594 344 594 Q326 594 310.5 602.5 Q295 611 281 621 Q267 631 253 639.5 Q239 648 223 648 Q207 648 196 638 Q185 628 171 611 L155 626 Z " />
<glyph glyph-name="ograve" unicode="&#xf2;" horiz-adv-x="555" d="M278 -10 Q226 -10 185 8 Q144 26 115.5 58.5 Q87 91 72 136.5 Q57 182 57 238 Q57 295 73.5 341.5 Q90 388 119 421 Q148 454 189 472.5 Q230 491 278 491 Q329 491 370 473.5 Q411 456 439.5 423.5 Q468 391 483 345.5 Q498 300 498 244 Q498 187 482 140 Q466 93 436.5 60 Q407 27 366.5 8.5 Q326 -10 278 -10 Z M278 20 Q318 20 352 35.5 Q386 51 411.5 79.5 Q437 108 451.5 149.5 Q466 191 466 242 Q466 294 452.5 334.5 Q439 375 414 403 Q389 431 354.5 446 Q320 461 278 461 Q239 461 204.5 445.5 Q170 430 144.5 401.5 Q119 373 104 332 Q89 291 89 239 Q89 187 103 146.5 Q117 106 141.5 78 Q166 50 201 35 Q236 20 278 20 Z M187 702 L213 718 L315 564 L294 551 L187 702 Z " />
<glyph glyph-name="oacute" unicode="&#xf3;" horiz-adv-x="555" d="M278 -10 Q226 -10 185 8 Q144 26 115.5 58.5 Q87 91 72 136.5 Q57 182 57 238 Q57 295 73.5 341.5 Q90 388 119 421 Q148 454 189 472.5 Q230 491 278 491 Q329 491 370 473.5 Q411 456 439.5 423.5 Q468 391 483 345.5 Q498 300 498 244 Q498 187 482 140 Q466 93 436.5 60 Q407 27 366.5 8.5 Q326 -10 278 -10 Z M278 20 Q318 20 352 35.5 Q386 51 411.5 79.5 Q437 108 451.5 149.5 Q466 191 466 242 Q466 294 452.5 334.5 Q439 375 414 403 Q389 431 354.5 446 Q320 461 278 461 Q239 461 204.5 445.5 Q170 430 144.5 401.5 Q119 373 104 332 Q89 291 89 239 Q89 187 103 146.5 Q117 106 141.5 78 Q166 50 201 35 Q236 20 278 20 Z M277 551 L256 564 L358 718 L384 702 L277 551 Z " />
<glyph glyph-name="ocircumflex" unicode="&#xf4;" horiz-adv-x="555" d="M278 -10 Q226 -10 185 8 Q144 26 115.5 58.5 Q87 91 72 136.5 Q57 182 57 238 Q57 295 73.5 341.5 Q90 388 119 421 Q148 454 189 472.5 Q230 491 278 491 Q329 491 370 473.5 Q411 456 439.5 423.5 Q468 391 483 345.5 Q498 300 498 244 Q498 187 482 140 Q466 93 436.5 60 Q407 27 366.5 8.5 Q326 -10 278 -10 Z M278 20 Q318 20 352 35.5 Q386 51 411.5 79.5 Q437 108 451.5 149.5 Q466 191 466 242 Q466 294 452.5 334.5 Q439 375 414 403 Q389 431 354.5 446 Q320 461 278 461 Q239 461 204.5 445.5 Q170 430 144.5 401.5 Q119 373 104 332 Q89 291 89 239 Q89 187 103 146.5 Q117 106 141.5 78 Q166 50 201 35 Q236 20 278 20 Z M277 686 L180 551 L160 564 L265 718 L289 718 L394 564 L375 551 L277 686 Z " />
<glyph glyph-name="otilde" unicode="&#xf5;" horiz-adv-x="555" d="M278 -10 Q226 -10 185 8 Q144 26 115.5 58.5 Q87 91 72 136.5 Q57 182 57 238 Q57 295 73.5 341.5 Q90 388 119 421 Q148 454 189 472.5 Q230 491 278 491 Q329 491 370 473.5 Q411 456 439.5 423.5 Q468 391 483 345.5 Q498 300 498 244 Q498 187 482 140 Q466 93 436.5 60 Q407 27 366.5 8.5 Q326 -10 278 -10 Z M278 20 Q318 20 352 35.5 Q386 51 411.5 79.5 Q437 108 451.5 149.5 Q466 191 466 242 Q466 294 452.5 334.5 Q439 375 414 403 Q389 431 354.5 446 Q320 461 278 461 Q239 461 204.5 445.5 Q170 430 144.5 401.5 Q119 373 104 332 Q89 291 89 239 Q89 187 103 146.5 Q117 106 141.5 78 Q166 50 201 35 Q236 20 278 20 Z M149 626 Q162 646 178 660 Q194 674 216 674 Q233 674 248 665.5 Q263 657 277.5 647.5 Q292 638 306.5 629.5 Q321 621 336 621 Q363 621 387 659 L406 644 Q392 622 374.5 608 Q357 594 338 594 Q320 594 304.5 602.5 Q289 611 275 621 Q261 631 247 639.5 Q233 648 217 648 Q201 648 190 638 Q179 628 165 611 L149 626 Z " />
<glyph glyph-name="odieresis" unicode="&#xf6;" horiz-adv-x="555" d="M278 -10 Q226 -10 185 8 Q144 26 115.5 58.5 Q87 91 72 136.5 Q57 182 57 238 Q57 295 73.5 341.5 Q90 388 119 421 Q148 454 189 472.5 Q230 491 278 491 Q329 491 370 473.5 Q411 456 439.5 423.5 Q468 391 483 345.5 Q498 300 498 244 Q498 187 482 140 Q466 93 436.5 60 Q407 27 366.5 8.5 Q326 -10 278 -10 Z M278 20 Q318 20 352 35.5 Q386 51 411.5 79.5 Q437 108 451.5 149.5 Q466 191 466 242 Q466 294 452.5 334.5 Q439 375 414 403 Q389 431 354.5 446 Q320 461 278 461 Q239 461 204.5 445.5 Q170 430 144.5 401.5 Q119 373 104 332 Q89 291 89 239 Q89 187 103 146.5 Q117 106 141.5 78 Q166 50 201 35 Q236 20 278 20 Z M213 609 Q204 609 198 614.5 Q192 620 192 631 Q192 642 198 647.5 Q204 653 213 653 Q236 653 236 631 Q236 609 213 609 Z M341 609 Q319 609 319 631 Q319 653 341 653 Q363 653 363 631 Q363 609 341 609 Z " />
<glyph glyph-name="divide" unicode="&#xf7;" horiz-adv-x="482" d="M65 341 L416 341 L416 313 L65 313 L65 341 Z M205 165 Q205 177 212.5 184.5 Q220 192 232 192 Q244 192 251 184.5 Q258 177 258 165 Q258 139 232 139 Q220 139 212.5 146 Q205 153 205 165 Z M214 490 Q214 516 240 516 Q252 516 259.5 509 Q267 502 267 490 Q267 478 259.5 470.5 Q252 463 240 463 Q228 463 221 470.5 Q214 478 214 490 Z " />
<glyph glyph-name="oslash" unicode="&#xf8;" horiz-adv-x="555" d="M68 10 L112 62 Q57 128 57 238 Q57 295 73.5 341.5 Q90 388 119 421 Q148 454 189 472.5 Q230 491 278 491 Q323 491 360 477 Q397 463 425 437 L466 485 L482 471 L441 422 Q498 356 498 244 Q498 187 482 140 Q466 93 436.5 60 Q407 27 366.5 8.5 Q326 -10 278 -10 Q185 -10 126 46 L84 -4 L68 10 Z M278 20 Q318 20 352 35.5 Q386 51 411.5 79.5 Q437 108 451.5 149.5 Q466 191 466 242 Q466 291 454 329.5 Q442 368 419 396 L147 71 Q198 20 278 20 Z M89 239 Q89 191 100.5 153.5 Q112 116 133 88 L405 412 Q354 461 278 461 Q239 461 204.5 445.5 Q170 430 144.5 401.5 Q119 373 104 332 Q89 291 89 239 Z " />
<glyph glyph-name="ugrave" unicode="&#xf9;" horiz-adv-x="547" d="M252 -10 Q209 -10 179.5 1 Q150 12 132 34 Q114 56 106 88 Q98 120 98 162 L98 481 L130 481 L130 166 Q130 89 159.5 54.5 Q189 20 258 20 Q314 20 351.5 45.5 Q389 71 421 110 L421 481 L453 481 L453 0 L422 0 L422 79 Q392 41 351 15.5 Q310 -10 252 -10 Z M183 702 L209 718 L311 564 L290 551 L183 702 Z " />
<glyph glyph-name="uacute" unicode="&#xfa;" horiz-adv-x="547" d="M252 -10 Q209 -10 179.5 1 Q150 12 132 34 Q114 56 106 88 Q98 120 98 162 L98 481 L130 481 L130 166 Q130 89 159.5 54.5 Q189 20 258 20 Q314 20 351.5 45.5 Q389 71 421 110 L421 481 L453 481 L453 0 L422 0 L422 79 Q392 41 351 15.5 Q310 -10 252 -10 Z M273 551 L252 564 L354 718 L380 702 L273 551 Z " />
<glyph glyph-name="ucircumflex" unicode="&#xfb;" horiz-adv-x="547" d="M252 -10 Q209 -10 179.5 1 Q150 12 132 34 Q114 56 106 88 Q98 120 98 162 L98 481 L130 481 L130 166 Q130 89 159.5 54.5 Q189 20 258 20 Q314 20 351.5 45.5 Q389 71 421 110 L421 481 L453 481 L453 0 L422 0 L422 79 Q392 41 351 15.5 Q310 -10 252 -10 Z M273 686 L176 551 L156 564 L261 718 L285 718 L390 564 L371 551 L273 686 Z " />
<glyph glyph-name="udieresis" unicode="&#xfc;" horiz-adv-x="547" d="M252 -10 Q209 -10 179.5 1 Q150 12 132 34 Q114 56 106 88 Q98 120 98 162 L98 481 L130 481 L130 166 Q130 89 159.5 54.5 Q189 20 258 20 Q314 20 351.5 45.5 Q389 71 421 110 L421 481 L453 481 L453 0 L422 0 L422 79 Q392 41 351 15.5 Q310 -10 252 -10 Z M209 609 Q200 609 194 614.5 Q188 620 188 631 Q188 642 194 647.5 Q200 653 209 653 Q232 653 232 631 Q232 609 209 609 Z M337 609 Q315 609 315 631 Q315 653 337 653 Q359 653 359 631 Q359 609 337 609 Z " />
<glyph glyph-name="yacute" unicode="&#xfd;" horiz-adv-x="484" d="M232 -3 L49 481 L84 481 L248 38 L409 481 L443 481 L204 -161 Q184 -213 157.5 -231.5 Q131 -250 93 -250 L64 -250 L64 -222 L95 -222 Q124 -222 142.5 -207 Q161 -192 174 -159 L232 -3 Z M241 551 L220 564 L322 718 L348 702 L241 551 Z " />
<glyph glyph-name="thorn" unicode="&#xfe;" horiz-adv-x="552" d="M99 -250 L99 740 L131 740 L131 415 Q158 450 194.5 470.5 Q231 491 285 491 Q338 491 377.5 472 Q417 453 443 419 Q469 385 482 337.5 Q495 290 495 234 Q495 180 479.5 135 Q464 90 435.5 57.5 Q407 25 367.5 7.5 Q328 -10 279 -10 Q231 -10 195 7 Q159 24 131 54 L131 -250 L99 -250 Z M280 461 Q229 461 193 440.5 Q157 420 131 379 L131 89 Q157 56 193.5 38 Q230 20 275 20 Q317 20 351.5 34.5 Q386 49 410.5 77 Q435 105 448.5 144.5 Q462 184 462 234 Q462 338 415.5 399.5 Q369 461 280 461 Z " />
<glyph glyph-name="ydieresis" unicode="&#xff;" horiz-adv-x="484" d="M232 -3 L49 481 L84 481 L248 38 L409 481 L443 481 L204 -161 Q184 -213 157.5 -231.5 Q131 -250 93 -250 L64 -250 L64 -222 L95 -222 Q124 -222 142.5 -207 Q161 -192 174 -159 L232 -3 Z M177 609 Q168 609 162 614.5 Q156 620 156 631 Q156 642 162 647.5 Q168 653 177 653 Q200 653 200 631 Q200 609 177 609 Z M305 609 Q283 609 283 631 Q283 653 305 653 Q327 653 327 631 Q327 609 305 609 Z " />
<glyph glyph-name="Amacron" unicode="&#x100;" horiz-adv-x="618" d="M45 0 L297 690 L319 690 L573 0 L535 0 L464 199 L150 199 L79 0 L45 0 Z M161 228 L453 228 L308 636 L161 228 Z M191 836 L191 860 L427 860 L427 836 L191 836 Z " />
<glyph glyph-name="amacron" unicode="&#x101;" horiz-adv-x="522" d="M199 -10 Q136 -10 100.5 25.5 Q65 61 65 127 Q65 156 75 181.5 Q85 207 110.5 225.5 Q136 244 179 255 Q222 266 288 266 L391 266 L391 315 Q391 392 361 426.5 Q331 461 259 461 Q203 461 166 443 Q129 425 95 393 L77 417 Q112 453 155.5 472 Q199 491 261 491 Q307 491 338 479.5 Q369 468 388 446.5 Q407 425 415 392.5 Q423 360 423 318 L423 0 L393 0 L393 87 Q358 39 311.5 14.5 Q265 -10 199 -10 Z M204 17 Q268 17 310 41.5 Q352 66 391 118 L391 240 L279 240 Q226 240 191 231.5 Q156 223 135.5 208 Q115 193 106.5 172.5 Q98 152 98 128 Q98 77 125.5 47 Q153 17 204 17 Z M144 626 L144 651 L380 651 L380 626 L144 626 Z " />
<glyph glyph-name="Abreve" unicode="&#x102;" horiz-adv-x="618" d="M45 0 L297 690 L319 690 L573 0 L535 0 L464 199 L150 199 L79 0 L45 0 Z M161 228 L453 228 L308 636 L161 228 Z M308 760 Q260 760 230 796.5 Q200 833 191 897 L213 902 Q223 849 244.5 817.5 Q266 786 308 786 Q350 786 372 817.5 Q394 849 404 902 L425 897 Q417 833 387 796.5 Q357 760 308 760 Z " />
<glyph glyph-name="abreve" unicode="&#x103;" horiz-adv-x="522" d="M199 -10 Q136 -10 100.5 25.5 Q65 61 65 127 Q65 156 75 181.5 Q85 207 110.5 225.5 Q136 244 179 255 Q222 266 288 266 L391 266 L391 315 Q391 392 361 426.5 Q331 461 259 461 Q203 461 166 443 Q129 425 95 393 L77 417 Q112 453 155.5 472 Q199 491 261 491 Q307 491 338 479.5 Q369 468 388 446.5 Q407 425 415 392.5 Q423 360 423 318 L423 0 L393 0 L393 87 Q358 39 311.5 14.5 Q265 -10 199 -10 Z M204 17 Q268 17 310 41.5 Q352 66 391 118 L391 240 L279 240 Q226 240 191 231.5 Q156 223 135.5 208 Q115 193 106.5 172.5 Q98 152 98 128 Q98 77 125.5 47 Q153 17 204 17 Z M261 551 Q213 551 183 587.5 Q153 624 144 688 L166 693 Q176 640 197.5 608 Q219 576 261 576 Q303 576 325 608 Q347 640 357 693 L378 688 Q370 624 340 587.5 Q310 551 261 551 Z " />
<glyph glyph-name="Aogonek" unicode="&#x104;" horiz-adv-x="618" d="M45 0 L297 690 L319 690 L573 0 L547 0 Q517 -44 498 -84.5 Q479 -125 479 -162 Q479 -182 485.5 -196.5 Q492 -211 502 -220 Q512 -229 524 -233.5 Q536 -238 547 -238 Q574 -238 592.5 -225 Q611 -212 622 -195 L639 -208 Q627 -226 603.5 -243 Q580 -260 545 -260 Q507 -260 480.5 -235.5 Q454 -211 454 -166 Q454 -128 473.5 -84.5 Q493 -41 531 11 L464 199 L150 199 L79 0 L45 0 Z M161 228 L453 228 L308 636 L161 228 Z " />
<glyph glyph-name="aogonek" unicode="&#x105;" horiz-adv-x="522" d="M199 -10 Q136 -10 100.5 25.5 Q65 61 65 127 Q65 156 75 181 Q85 206 110.5 224 Q136 242 179 252.5 Q222 263 288 263 L391 263 L391 315 Q391 392 361 426.5 Q331 461 259 461 Q203 461 166 443 Q129 425 95 393 L77 417 Q112 453 155.5 472 Q199 491 261 491 Q307 491 338 479.5 Q369 468 388 446.5 Q407 425 415 392.5 Q423 360 423 318 L423 0 L411 0 Q382 -44 362.5 -84.5 Q343 -125 343 -162 Q343 -182 349.5 -196.5 Q356 -211 366 -220 Q376 -229 388 -233.5 Q400 -238 411 -238 Q438 -238 457 -225 Q476 -212 487 -195 L503 -208 Q491 -226 467.5 -243 Q444 -260 409 -260 Q371 -260 345 -235.5 Q319 -211 319 -166 Q319 -128 337.5 -86 Q356 -44 393 8 L393 87 Q358 39 311.5 14.5 Q265 -10 199 -10 Z M204 17 Q268 17 310 41.5 Q352 66 391 118 L391 240 L279 240 Q226 240 191 231.5 Q156 223 135.5 208 Q115 193 106.5 172.5 Q98 152 98 128 Q98 77 125.5 47 Q153 17 204 17 Z " />
<glyph glyph-name="Cacute" unicode="&#x106;" horiz-adv-x="674" d="M370 -10 Q301 -10 244.5 16 Q188 42 147.5 89 Q107 136 84.5 202 Q62 268 62 349 Q62 428 86 493 Q110 558 151 604 Q192 650 247 675 Q302 700 364 700 Q455 700 522.5 662 Q590 624 621 544 L589 531 Q575 567 552 593 Q529 619 499.5 636 Q470 653 435.5 661 Q401 669 365 669 Q309 669 260 646 Q211 623 174.5 581 Q138 539 117 480 Q96 421 96 349 Q96 275 115.5 215 Q135 155 171 111.5 Q207 68 258 44.5 Q309 21 372 21 Q449 21 505.5 54.5 Q562 88 602 159 L629 140 Q584 66 522 28 Q460 -10 370 -10 Z M364 760 L343 773 L445 928 L471 911 L364 760 Z " />
<glyph glyph-name="cacute" unicode="&#x107;" horiz-adv-x="499" d="M447 92 Q416 44 374 17 Q332 -10 266 -10 Q217 -10 178 8 Q139 26 112 58.5 Q85 91 71 136.5 Q57 182 57 238 Q57 295 72.5 341.5 Q88 388 116 421 Q144 454 184 472.5 Q224 491 272 491 Q344 491 387 457.5 Q430 424 450 369 L421 358 Q399 408 364 434.5 Q329 461 272 461 Q233 461 199.5 445.5 Q166 430 141.5 401.5 Q117 373 103 332 Q89 291 89 239 Q89 135 138 77.5 Q187 20 267 20 Q322 20 357.5 42.5 Q393 65 420 108 L447 92 Z M273 551 L252 564 L354 718 L380 702 L273 551 Z " />
<glyph glyph-name="Ccircumflex" unicode="&#x108;" horiz-adv-x="674" d="M370 -10 Q301 -10 244.5 16 Q188 42 147.5 89 Q107 136 84.5 202 Q62 268 62 349 Q62 428 86 493 Q110 558 151 604 Q192 650 247 675 Q302 700 364 700 Q455 700 522.5 662 Q590 624 621 544 L589 531 Q575 567 552 593 Q529 619 499.5 636 Q470 653 435.5 661 Q401 669 365 669 Q309 669 260 646 Q211 623 174.5 581 Q138 539 117 480 Q96 421 96 349 Q96 275 115.5 215 Q135 155 171 111.5 Q207 68 258 44.5 Q309 21 372 21 Q449 21 505.5 54.5 Q562 88 602 159 L629 140 Q584 66 522 28 Q460 -10 370 -10 Z M364 895 L267 760 L247 773 L352 928 L376 928 L481 773 L462 760 L364 895 Z " />
<glyph glyph-name="ccircumflex" unicode="&#x109;" horiz-adv-x="499" d="M447 92 Q416 44 374 17 Q332 -10 266 -10 Q217 -10 178 8 Q139 26 112 58.5 Q85 91 71 136.5 Q57 182 57 238 Q57 295 72.5 341.5 Q88 388 116 421 Q144 454 184 472.5 Q224 491 272 491 Q344 491 387 457.5 Q430 424 450 369 L421 358 Q399 408 364 434.5 Q329 461 272 461 Q233 461 199.5 445.5 Q166 430 141.5 401.5 Q117 373 103 332 Q89 291 89 239 Q89 135 138 77.5 Q187 20 267 20 Q322 20 357.5 42.5 Q393 65 420 108 L447 92 Z M273 686 L176 551 L156 564 L261 718 L285 718 L390 564 L371 551 L273 686 Z " />
<glyph glyph-name="Cdotaccent" unicode="&#x10a;" horiz-adv-x="674" d="M370 -10 Q301 -10 244.5 16 Q188 42 147.5 89 Q107 136 84.5 202 Q62 268 62 349 Q62 428 86 493 Q110 558 151 604 Q192 650 247 675 Q302 700 364 700 Q455 700 522.5 662 Q590 624 621 544 L589 531 Q575 567 552 593 Q529 619 499.5 636 Q470 653 435.5 661 Q401 669 365 669 Q309 669 260 646 Q211 623 174.5 581 Q138 539 117 480 Q96 421 96 349 Q96 275 115.5 215 Q135 155 171 111.5 Q207 68 258 44.5 Q309 21 372 21 Q449 21 505.5 54.5 Q562 88 602 159 L629 140 Q584 66 522 28 Q460 -10 370 -10 Z M340 840 Q340 865 364 865 Q389 865 389 840 Q389 816 364 816 Q340 816 340 840 Z " />
<glyph glyph-name="cdotaccent" unicode="&#x10b;" horiz-adv-x="499" d="M447 92 Q416 44 374 17 Q332 -10 266 -10 Q217 -10 178 8 Q139 26 112 58.5 Q85 91 71 136.5 Q57 182 57 238 Q57 295 72.5 341.5 Q88 388 116 421 Q144 454 184 472.5 Q224 491 272 491 Q344 491 387 457.5 Q430 424 450 369 L421 358 Q399 408 364 434.5 Q329 461 272 461 Q233 461 199.5 445.5 Q166 430 141.5 401.5 Q117 373 103 332 Q89 291 89 239 Q89 135 138 77.5 Q187 20 267 20 Q322 20 357.5 42.5 Q393 65 420 108 L447 92 Z M249 631 Q249 656 273 656 Q298 656 298 631 Q298 607 273 607 Q249 607 249 631 Z " />
<glyph glyph-name="Ccaron" unicode="&#x10c;" horiz-adv-x="674" d="M370 -10 Q301 -10 244.5 16 Q188 42 147.5 89 Q107 136 84.5 202 Q62 268 62 349 Q62 428 86 493 Q110 558 151 604 Q192 650 247 675 Q302 700 364 700 Q455 700 522.5 662 Q590 624 621 544 L589 531 Q575 567 552 593 Q529 619 499.5 636 Q470 653 435.5 661 Q401 669 365 669 Q309 669 260 646 Q211 623 174.5 581 Q138 539 117 480 Q96 421 96 349 Q96 275 115.5 215 Q135 155 171 111.5 Q207 68 258 44.5 Q309 21 372 21 Q449 21 505.5 54.5 Q562 88 602 159 L629 140 Q584 66 522 28 Q460 -10 370 -10 Z M460 928 L480 915 L375 760 L351 760 L246 915 L266 928 L363 793 L460 928 Z " />
<glyph glyph-name="ccaron" unicode="&#x10d;" horiz-adv-x="499" d="M447 92 Q416 44 374 17 Q332 -10 266 -10 Q217 -10 178 8 Q139 26 112 58.5 Q85 91 71 136.5 Q57 182 57 238 Q57 295 72.5 341.5 Q88 388 116 421 Q144 454 184 472.5 Q224 491 272 491 Q344 491 387 457.5 Q430 424 450 369 L421 358 Q399 408 364 434.5 Q329 461 272 461 Q233 461 199.5 445.5 Q166 430 141.5 401.5 Q117 373 103 332 Q89 291 89 239 Q89 135 138 77.5 Q187 20 267 20 Q322 20 357.5 42.5 Q393 65 420 108 L447 92 Z M369 718 L389 705 L284 551 L260 551 L155 705 L175 718 L272 583 L369 718 Z " />
<glyph glyph-name="Dcaron" unicode="&#x10e;" horiz-adv-x="680" d="M108 0 L108 690 L241 690 Q334 690 405 666 Q476 642 523 597 Q570 552 594 488 Q618 424 618 345 Q618 268 592.5 204.5 Q567 141 518 95.5 Q469 50 397.5 25 Q326 0 233 0 L108 0 Z M230 29 Q313 29 378.5 50.5 Q444 72 490 113 Q536 154 560 212 Q584 270 584 344 Q584 421 560.5 480 Q537 539 492.5 579 Q448 619 384.5 639.5 Q321 660 240 660 L141 660 L141 29 L230 29 Z M395 928 L415 915 L310 760 L286 760 L181 915 L201 928 L298 793 L395 928 Z " />
<glyph glyph-name="dcaron" unicode="&#x10f;" horiz-adv-x="608" d="M275 -10 Q222 -10 182 9 Q142 28 115 62 Q88 96 74 143 Q60 190 60 246 Q60 301 75 346 Q90 391 118.5 423 Q147 455 187 473 Q227 491 277 491 Q325 491 363.5 473.5 Q402 456 431 424 L431 740 L463 740 L463 0 L433 0 L433 71 Q406 33 368.5 11.5 Q331 -10 275 -10 Z M280 20 Q331 20 367 40.5 Q403 61 431 103 L431 389 Q404 424 365 442.5 Q326 461 280 461 Q238 461 203.5 446 Q169 431 144 403.5 Q119 376 105.5 336 Q92 296 92 247 Q92 143 141.5 81.5 Q191 20 280 20 Z M577 740 L610 740 L581 591 L555 592 L577 740 Z " />
<glyph glyph-name="Dcroat" unicode="&#x110;" horiz-adv-x="682" d="M62 352 L109 352 L109 690 L242 690 Q336 690 406.5 666 Q477 642 524.5 597 Q572 552 596 488 Q620 424 620 345 Q620 268 594.5 204.5 Q569 141 520 95.5 Q471 50 399 25 Q327 0 235 0 L109 0 L109 330 L62 330 L62 352 Z M232 29 Q314 29 380 50.5 Q446 72 491.5 113 Q537 154 561.5 212 Q586 270 586 344 Q586 421 562.5 480 Q539 539 494.5 579 Q450 619 386 639.5 Q322 660 241 660 L143 660 L143 352 L282 352 L282 330 L143 330 L143 29 L232 29 Z " />
<glyph glyph-name="dcroat" unicode="&#x111;" horiz-adv-x="563" d="M464 623 L464 0 L433 0 L433 69 Q405 31 368 10.5 Q331 -10 276 -10 Q223 -10 182.5 9 Q142 28 115 62 Q88 96 74 143 Q60 190 60 246 Q60 301 75.5 346 Q91 391 119 423 Q147 455 187 473 Q227 491 277 491 Q325 491 364 473 Q403 455 432 423 L432 623 L295 623 L295 648 L432 648 L432 740 L464 740 L464 648 L531 648 L531 623 L464 623 Z M281 20 Q332 20 368.5 41 Q405 62 432 104 L432 388 Q406 423 367 442 Q328 461 281 461 Q239 461 204.5 446 Q170 431 145 403.5 Q120 376 106.5 336 Q93 296 93 247 Q93 143 142 81.5 Q191 20 281 20 Z " />
<glyph glyph-name="Emacron" unicode="&#x112;" horiz-adv-x="529" d="M108 0 L108 690 L474 690 L474 661 L141 661 L141 377 L388 377 L388 348 L141 348 L141 29 L473 29 L473 0 L108 0 Z M176 836 L176 860 L412 860 L412 836 L176 836 Z " />
<glyph glyph-name="emacron" unicode="&#x113;" horiz-adv-x="525" d="M277 -10 Q226 -10 185 8 Q144 26 115.5 58.5 Q87 91 72 136.5 Q57 182 57 238 Q57 295 72.5 341.5 Q88 388 116 421 Q144 454 182.5 472.5 Q221 491 268 491 Q320 491 357.5 475 Q395 459 419 429 Q443 399 454 357 Q465 315 464 263 L90 263 Q89 257 89 251 Q89 245 89 239 Q89 187 102.5 146.5 Q116 106 141 77.5 Q166 49 200.5 34 Q235 19 277 19 Q331 19 367 42 Q403 65 430 108 L456 92 Q426 43 384 16.5 Q342 -10 277 -10 Z M267 462 Q201 462 153 416 Q105 370 92 289 L432 289 Q430 329 419.5 361 Q409 393 389 415.5 Q369 438 339 450 Q309 462 267 462 Z M156 626 L156 651 L392 651 L392 626 L156 626 Z " />
<glyph glyph-name="Ebreve" unicode="&#x114;" horiz-adv-x="529" d="M108 0 L108 690 L474 690 L474 661 L141 661 L141 377 L388 377 L388 348 L141 348 L141 29 L473 29 L473 0 L108 0 Z M301 760 Q253 760 223 796.5 Q193 833 184 897 L206 902 Q216 849 237.5 817.5 Q259 786 301 786 Q343 786 365 817.5 Q387 849 397 902 L418 897 Q410 833 380 796.5 Q350 760 301 760 Z " />
<glyph glyph-name="ebreve" unicode="&#x115;" horiz-adv-x="525" d="M277 -10 Q226 -10 185 8 Q144 26 115.5 58.5 Q87 91 72 136.5 Q57 182 57 238 Q57 295 72.5 341.5 Q88 388 116 421 Q144 454 182.5 472.5 Q221 491 268 491 Q320 491 357.5 475 Q395 459 419 429 Q443 399 454 357 Q465 315 464 263 L90 263 Q89 257 89 251 Q89 245 89 239 Q89 187 102.5 146.5 Q116 106 141 77.5 Q166 49 200.5 34 Q235 19 277 19 Q331 19 367 42 Q403 65 430 108 L456 92 Q426 43 384 16.5 Q342 -10 277 -10 Z M267 462 Q201 462 153 416 Q105 370 92 289 L432 289 Q430 329 419.5 361 Q409 393 389 415.5 Q369 438 339 450 Q309 462 267 462 Z M273 551 Q225 551 195 587.5 Q165 624 156 688 L178 693 Q188 640 209.5 608 Q231 576 273 576 Q315 576 337 608 Q359 640 369 693 L390 688 Q382 624 352 587.5 Q322 551 273 551 Z " />
<glyph glyph-name="Edotaccent" unicode="&#x116;" horiz-adv-x="529" d="M108 0 L108 690 L474 690 L474 661 L141 661 L141 377 L388 377 L388 348 L141 348 L141 29 L473 29 L473 0 L108 0 Z M277 840 Q277 865 301 865 Q326 865 326 840 Q326 816 301 816 Q277 816 277 840 Z " />
<glyph glyph-name="edotaccent" unicode="&#x117;" horiz-adv-x="525" d="M277 -10 Q226 -10 185 8 Q144 26 115.5 58.5 Q87 91 72 136.5 Q57 182 57 238 Q57 295 72.5 341.5 Q88 388 116 421 Q144 454 182.5 472.5 Q221 491 268 491 Q320 491 357.5 475 Q395 459 419 429 Q443 399 454 357 Q465 315 464 263 L90 263 Q89 257 89 251 Q89 245 89 239 Q89 187 102.5 146.5 Q116 106 141 77.5 Q166 49 200.5 34 Q235 19 277 19 Q331 19 367 42 Q403 65 430 108 L456 92 Q426 43 384 16.5 Q342 -10 277 -10 Z M267 462 Q201 462 153 416 Q105 370 92 289 L432 289 Q430 329 419.5 361 Q409 393 389 415.5 Q369 438 339 450 Q309 462 267 462 Z M249 631 Q249 656 273 656 Q298 656 298 631 Q298 607 273 607 Q249 607 249 631 Z " />
<glyph glyph-name="Eogonek" unicode="&#x118;" horiz-adv-x="529" d="M453 0 Q423 -44 404 -84.5 Q385 -125 385 -162 Q385 -182 391.5 -196.5 Q398 -211 407.5 -220 Q417 -229 429 -233.5 Q441 -238 452 -238 Q479 -238 498 -225 Q517 -212 528 -195 L544 -208 Q532 -226 508.5 -243 Q485 -260 450 -260 Q412 -260 386 -235.5 Q360 -211 360 -166 Q360 -130 377 -89.5 Q394 -49 429 0 L108 0 L108 690 L474 690 L474 661 L141 661 L141 377 L388 377 L388 348 L141 348 L141 29 L473 29 L473 0 L453 0 Z " />
<glyph glyph-name="eogonek" unicode="&#x119;" horiz-adv-x="525" d="M277 -10 Q225 -10 184.5 8 Q144 26 115.5 58.5 Q87 91 72 136.5 Q57 182 57 238 Q57 295 72.5 341.5 Q88 388 115.5 421 Q143 454 182 472.5 Q221 491 268 491 Q320 491 357.5 475 Q395 459 419 429 Q443 399 454 357 Q465 315 464 263 L90 263 Q89 257 89 251 Q89 245 89 239 Q89 187 102.5 146.5 Q116 106 141 77.5 Q166 49 200.5 34 Q235 19 277 19 Q331 19 366.5 42 Q402 65 430 108 L456 92 L453 88 L454 88 L451 85 Q446 77 440.5 69 Q435 61 428 54 Q384 -5 352.5 -59.5 Q321 -114 321 -162 Q321 -182 327.5 -196.5 Q334 -211 344 -220 Q354 -229 366 -233.5 Q378 -238 389 -238 Q416 -238 434.5 -225 Q453 -212 464 -195 L481 -208 Q469 -226 445 -243 Q421 -260 386 -260 Q348 -260 322 -235.5 Q296 -211 296 -166 Q296 -128 315 -85.5 Q334 -43 372 10 Q330 -10 277 -10 Z M267 462 Q200 462 152 415.5 Q104 369 92 286 L432 286 Q429 366 390 414 Q351 462 267 462 Z " />
<glyph glyph-name="Ecaron" unicode="&#x11a;" horiz-adv-x="529" d="M108 0 L108 690 L474 690 L474 661 L141 661 L141 377 L388 377 L388 348 L141 348 L141 29 L473 29 L473 0 L108 0 Z M397 928 L417 915 L312 760 L288 760 L183 915 L203 928 L300 793 L397 928 Z " />
<glyph glyph-name="ecaron" unicode="&#x11b;" horiz-adv-x="525" d="M277 -10 Q226 -10 185 8 Q144 26 115.5 58.5 Q87 91 72 136.5 Q57 182 57 238 Q57 295 72.5 341.5 Q88 388 116 421 Q144 454 182.5 472.5 Q221 491 268 491 Q320 491 357.5 475 Q395 459 419 429 Q443 399 454 357 Q465 315 464 263 L90 263 Q89 257 89 251 Q89 245 89 239 Q89 187 102.5 146.5 Q116 106 141 77.5 Q166 49 200.5 34 Q235 19 277 19 Q331 19 367 42 Q403 65 430 108 L456 92 Q426 43 384 16.5 Q342 -10 277 -10 Z M267 462 Q201 462 153 416 Q105 370 92 289 L432 289 Q430 329 419.5 361 Q409 393 389 415.5 Q369 438 339 450 Q309 462 267 462 Z M369 718 L389 705 L284 551 L260 551 L155 705 L175 718 L272 583 L369 718 Z " />
<glyph glyph-name="Gcircumflex" unicode="&#x11c;" horiz-adv-x="739" d="M373 669 Q316 669 265.5 646 Q215 623 177.5 581 Q140 539 118 480 Q96 421 96 349 Q96 275 116 214.5 Q136 154 172.5 111 Q209 68 261.5 44 Q314 20 379 20 Q432 20 480.5 39 Q529 58 566 96 Q603 134 625.5 192.5 Q648 251 649 330 L432 330 L432 358 L682 358 L682 337 Q682 259 660 195 Q638 131 598.5 85.5 Q559 40 503 15 Q447 -10 379 -10 Q308 -10 249.5 16 Q191 42 149.5 89 Q108 136 85 202 Q62 268 62 349 Q62 428 87 493 Q112 558 154.5 604 Q197 650 254 675 Q311 700 374 700 Q465 700 532.5 663 Q600 626 632 546 L601 531 Q587 567 563.5 593 Q540 619 510 636 Q480 653 445 661 Q410 669 373 669 Z M369 895 L272 760 L252 773 L357 928 L381 928 L486 773 L467 760 L369 895 Z " />
<glyph glyph-name="gcircumflex" unicode="&#x11d;" horiz-adv-x="521" d="M501 463 Q438 463 389 437 Q409 414 418.5 386 Q428 358 428 327 Q428 294 417.5 263.5 Q407 233 384.5 210 Q362 187 327 173.5 Q292 160 244 160 Q196 160 159 174 Q127 154 113.5 133.5 Q100 113 100 94 Q100 70 120 60.5 Q140 51 175 51 L310 51 Q349 51 381.5 45.5 Q414 40 437.5 25 Q461 10 473.5 -15.5 Q486 -41 486 -80 Q486 -122 464.5 -155 Q443 -188 406 -211.5 Q369 -235 320 -247.5 Q271 -260 216 -260 Q135 -260 86.5 -225 Q38 -190 38 -125 Q38 -66 66.5 -32.5 Q95 1 140 25 Q106 30 87.5 45 Q69 60 69 89 Q69 138 139 183 Q99 205 80.5 242 Q62 279 62 323 Q62 357 72.5 387.5 Q83 418 105.5 441 Q128 464 163 477.5 Q198 491 246 491 Q287 491 318 480.5 Q349 470 371 453 Q398 470 429.5 480.5 Q461 491 503 491 L501 463 Z M170 23 Q119 -3 94 -35.5 Q69 -68 69 -118 Q69 -170 109 -200.5 Q149 -231 222 -231 Q274 -231 316.5 -219.5 Q359 -208 389.5 -188 Q420 -168 437 -141 Q454 -114 454 -82 Q454 -49 443.5 -28.5 Q433 -8 413 3.5 Q393 15 365 19 Q337 23 303 23 L170 23 Z M245 188 Q287 188 316 199.5 Q345 211 362.5 230.5 Q380 250 388 275 Q396 300 396 327 Q396 352 388 376.5 Q380 401 362 420.5 Q344 440 315.5 451.5 Q287 463 245 463 Q203 463 174 451.5 Q145 440 127.5 420.5 Q110 401 102 376 Q94 351 94 324 Q94 298 102 273.5 Q110 249 128 230 Q146 211 174.5 199.5 Q203 188 245 188 Z M240 686 L143 551 L123 564 L228 718 L252 718 L357 564 L338 551 L240 686 Z " />
<glyph glyph-name="Gbreve" unicode="&#x11e;" horiz-adv-x="739" d="M373 669 Q316 669 265.5 646 Q215 623 177.5 581 Q140 539 118 480 Q96 421 96 349 Q96 275 116 214.5 Q136 154 172.5 111 Q209 68 261.5 44 Q314 20 379 20 Q432 20 480.5 39 Q529 58 566 96 Q603 134 625.5 192.5 Q648 251 649 330 L432 330 L432 358 L682 358 L682 337 Q682 259 660 195 Q638 131 598.5 85.5 Q559 40 503 15 Q447 -10 379 -10 Q308 -10 249.5 16 Q191 42 149.5 89 Q108 136 85 202 Q62 268 62 349 Q62 428 87 493 Q112 558 154.5 604 Q197 650 254 675 Q311 700 374 700 Q465 700 532.5 663 Q600 626 632 546 L601 531 Q587 567 563.5 593 Q540 619 510 636 Q480 653 445 661 Q410 669 373 669 Z M369 760 Q321 760 291 796.5 Q261 833 252 897 L274 902 Q284 849 305.5 817.5 Q327 786 369 786 Q411 786 433 817.5 Q455 849 465 902 L486 897 Q478 833 448 796.5 Q418 760 369 760 Z " />
<glyph glyph-name="gbreve" unicode="&#x11f;" horiz-adv-x="521" d="M501 463 Q438 463 389 437 Q409 414 418.5 386 Q428 358 428 327 Q428 294 417.5 263.5 Q407 233 384.5 210 Q362 187 327 173.5 Q292 160 244 160 Q196 160 159 174 Q127 154 113.5 133.5 Q100 113 100 94 Q100 70 120 60.5 Q140 51 175 51 L310 51 Q349 51 381.5 45.5 Q414 40 437.5 25 Q461 10 473.5 -15.5 Q486 -41 486 -80 Q486 -122 464.5 -155 Q443 -188 406 -211.5 Q369 -235 320 -247.5 Q271 -260 216 -260 Q135 -260 86.5 -225 Q38 -190 38 -125 Q38 -66 66.5 -32.5 Q95 1 140 25 Q106 30 87.5 45 Q69 60 69 89 Q69 138 139 183 Q99 205 80.5 242 Q62 279 62 323 Q62 357 72.5 387.5 Q83 418 105.5 441 Q128 464 163 477.5 Q198 491 246 491 Q287 491 318 480.5 Q349 470 371 453 Q398 470 429.5 480.5 Q461 491 503 491 L501 463 Z M170 23 Q119 -3 94 -35.5 Q69 -68 69 -118 Q69 -170 109 -200.5 Q149 -231 222 -231 Q274 -231 316.5 -219.5 Q359 -208 389.5 -188 Q420 -168 437 -141 Q454 -114 454 -82 Q454 -49 443.5 -28.5 Q433 -8 413 3.5 Q393 15 365 19 Q337 23 303 23 L170 23 Z M245 188 Q287 188 316 199.5 Q345 211 362.5 230.5 Q380 250 388 275 Q396 300 396 327 Q396 352 388 376.5 Q380 401 362 420.5 Q344 440 315.5 451.5 Q287 463 245 463 Q203 463 174 451.5 Q145 440 127.5 420.5 Q110 401 102 376 Q94 351 94 324 Q94 298 102 273.5 Q110 249 128 230 Q146 211 174.5 199.5 Q203 188 245 188 Z M240 551 Q192 551 162 587.5 Q132 624 123 688 L145 693 Q155 640 176.5 608 Q198 576 240 576 Q282 576 304 608 Q326 640 336 693 L357 688 Q349 624 319 587.5 Q289 551 240 551 Z " />
<glyph glyph-name="Gdotaccent" unicode="&#x120;" horiz-adv-x="739" d="M373 669 Q316 669 265.5 646 Q215 623 177.5 581 Q140 539 118 480 Q96 421 96 349 Q96 275 116 214.5 Q136 154 172.5 111 Q209 68 261.5 44 Q314 20 379 20 Q432 20 480.5 39 Q529 58 566 96 Q603 134 625.5 192.5 Q648 251 649 330 L432 330 L432 358 L682 358 L682 337 Q682 259 660 195 Q638 131 598.5 85.5 Q559 40 503 15 Q447 -10 379 -10 Q308 -10 249.5 16 Q191 42 149.5 89 Q108 136 85 202 Q62 268 62 349 Q62 428 87 493 Q112 558 154.5 604 Q197 650 254 675 Q311 700 374 700 Q465 700 532.5 663 Q600 626 632 546 L601 531 Q587 567 563.5 593 Q540 619 510 636 Q480 653 445 661 Q410 669 373 669 Z M345 840 Q345 865 369 865 Q394 865 394 840 Q394 816 369 816 Q345 816 345 840 Z " />
<glyph glyph-name="gdotaccent" unicode="&#x121;" horiz-adv-x="521" d="M501 463 Q438 463 389 437 Q409 414 418.5 386 Q428 358 428 327 Q428 294 417.5 263.5 Q407 233 384.5 210 Q362 187 327 173.5 Q292 160 244 160 Q196 160 159 174 Q127 154 113.5 133.5 Q100 113 100 94 Q100 70 120 60.5 Q140 51 175 51 L310 51 Q349 51 381.5 45.5 Q414 40 437.5 25 Q461 10 473.5 -15.5 Q486 -41 486 -80 Q486 -122 464.5 -155 Q443 -188 406 -211.5 Q369 -235 320 -247.5 Q271 -260 216 -260 Q135 -260 86.5 -225 Q38 -190 38 -125 Q38 -66 66.5 -32.5 Q95 1 140 25 Q106 30 87.5 45 Q69 60 69 89 Q69 138 139 183 Q99 205 80.5 242 Q62 279 62 323 Q62 357 72.5 387.5 Q83 418 105.5 441 Q128 464 163 477.5 Q198 491 246 491 Q287 491 318 480.5 Q349 470 371 453 Q398 470 429.5 480.5 Q461 491 503 491 L501 463 Z M170 23 Q119 -3 94 -35.5 Q69 -68 69 -118 Q69 -170 109 -200.5 Q149 -231 222 -231 Q274 -231 316.5 -219.5 Q359 -208 389.5 -188 Q420 -168 437 -141 Q454 -114 454 -82 Q454 -49 443.5 -28.5 Q433 -8 413 3.5 Q393 15 365 19 Q337 23 303 23 L170 23 Z M245 188 Q287 188 316 199.5 Q345 211 362.5 230.5 Q380 250 388 275 Q396 300 396 327 Q396 352 388 376.5 Q380 401 362 420.5 Q344 440 315.5 451.5 Q287 463 245 463 Q203 463 174 451.5 Q145 440 127.5 420.5 Q110 401 102 376 Q94 351 94 324 Q94 298 102 273.5 Q110 249 128 230 Q146 211 174.5 199.5 Q203 188 245 188 Z M216 631 Q216 656 240 656 Q265 656 265 631 Q265 607 240 607 Q216 607 216 631 Z " />
<glyph glyph-name="Gcommaaccent" unicode="&#x122;" horiz-adv-x="739" d="M373 669 Q316 669 265.5 646 Q215 623 177.5 581 Q140 539 118 480 Q96 421 96 349 Q96 275 116 214.5 Q136 154 172.5 111 Q209 68 261.5 44 Q314 20 379 20 Q432 20 480.5 39 Q529 58 566 96 Q603 134 625.5 192.5 Q648 251 649 330 L432 330 L432 358 L682 358 L682 337 Q682 259 660 195 Q638 131 598.5 85.5 Q559 40 503 15 Q447 -10 379 -10 Q308 -10 249.5 16 Q191 42 149.5 89 Q108 136 85 202 Q62 268 62 349 Q62 428 87 493 Q112 558 154.5 604 Q197 650 254 675 Q311 700 374 700 Q465 700 532.5 663 Q600 626 632 546 L601 531 Q587 567 563.5 593 Q540 619 510 636 Q480 653 445 661 Q410 669 373 669 Z M338 -60 L372 -60 L343 -209 L316 -208 L338 -60 Z " />
<glyph glyph-name="gcommaaccent" unicode="&#x123;" horiz-adv-x="521" d="M501 463 Q438 463 389 437 Q409 414 418.5 386 Q428 358 428 327 Q428 294 417.5 263.5 Q407 233 384.5 210 Q362 187 327 173.5 Q292 160 244 160 Q196 160 159 174 Q127 154 113.5 133.5 Q100 113 100 94 Q100 70 120 60.5 Q140 51 175 51 L310 51 Q349 51 381.5 45.5 Q414 40 437.5 25 Q461 10 473.5 -15.5 Q486 -41 486 -80 Q486 -122 464.5 -155 Q443 -188 406 -211.5 Q369 -235 320 -247.5 Q271 -260 216 -260 Q135 -260 86.5 -225 Q38 -190 38 -125 Q38 -66 66.5 -32.5 Q95 1 140 25 Q106 30 87.5 45 Q69 60 69 89 Q69 138 139 183 Q99 205 80.5 242 Q62 279 62 323 Q62 357 72.5 387.5 Q83 418 105.5 441 Q128 464 163 477.5 Q198 491 246 491 Q287 491 318 480.5 Q349 470 371 453 Q398 470 429.5 480.5 Q461 491 503 491 L501 463 Z M170 23 Q119 -3 94 -35.5 Q69 -68 69 -118 Q69 -170 109 -200.5 Q149 -231 222 -231 Q274 -231 316.5 -219.5 Q359 -208 389.5 -188 Q420 -168 437 -141 Q454 -114 454 -82 Q454 -49 443.5 -28.5 Q433 -8 413 3.5 Q393 15 365 19 Q337 23 303 23 L170 23 Z M245 188 Q287 188 316 199.5 Q345 211 362.5 230.5 Q380 250 388 275 Q396 300 396 327 Q396 352 388 376.5 Q380 401 362 420.5 Q344 440 315.5 451.5 Q287 463 245 463 Q203 463 174 451.5 Q145 440 127.5 420.5 Q110 401 102 376 Q94 351 94 324 Q94 298 102 273.5 Q110 249 128 230 Q146 211 174.5 199.5 Q203 188 245 188 Z M264 564 L232 564 L261 713 L286 712 L264 564 Z " />
<glyph glyph-name="Hcircumflex" unicode="&#x124;" horiz-adv-x="716" d="M108 0 L108 690 L141 690 L141 373 L575 373 L575 690 L608 690 L608 0 L575 0 L575 344 L141 344 L141 0 L108 0 Z M358 895 L261 760 L241 773 L346 928 L370 928 L475 773 L456 760 L358 895 Z " />
<glyph glyph-name="hcircumflex" unicode="&#x125;" horiz-adv-x="567" d="M99 0 L99 740 L131 740 L131 403 Q162 440 204.5 465.5 Q247 491 309 491 Q357 491 388.5 479.5 Q420 468 438.5 446.5 Q457 425 465 392.5 Q473 360 473 318 L473 0 L441 0 L441 315 Q441 391 409.5 426 Q378 461 303 461 Q244 461 204 435.5 Q164 410 131 370 L131 0 L99 0 Z M219 906 L122 771 L102 784 L207 938 L231 938 L336 784 L317 771 L219 906 Z " />
<glyph glyph-name="Hbar" unicode="&#x126;" horiz-adv-x="716" d="M108 0 L108 546 L68 546 L68 570 L108 570 L108 690 L141 690 L141 570 L575 570 L575 690 L608 690 L608 570 L648 570 L648 546 L608 546 L608 0 L575 0 L575 344 L141 344 L141 0 L108 0 Z M141 373 L575 373 L575 546 L141 546 L141 373 Z " />
<glyph glyph-name="hbar" unicode="&#x127;" horiz-adv-x="567" d="M131 623 L131 403 Q162 440 204.5 465.5 Q247 491 309 491 Q357 491 388.5 479.5 Q420 468 438.5 446.5 Q457 425 465 392.5 Q473 360 473 318 L473 0 L441 0 L441 315 Q441 391 409.5 426 Q378 461 303 461 Q244 461 204 435.5 Q164 410 131 370 L131 0 L99 0 L99 623 L46 623 L46 648 L99 648 L99 740 L131 740 L131 648 L282 648 L282 623 L131 623 Z " />
<glyph glyph-name="Itilde" unicode="&#x128;" horiz-adv-x="250" d="M108 0 L108 690 L141 690 L141 0 L108 0 Z M-3 835 Q10 856 26 870 Q42 884 64 884 Q81 884 96 875.5 Q111 867 125.5 857 Q140 847 154.5 838.5 Q169 830 184 830 Q211 830 235 868 L254 853 Q240 831 222.5 817 Q205 803 186 803 Q168 803 152.5 811.5 Q137 820 123 830 Q109 840 95 848.5 Q81 857 65 857 Q49 857 38 847 Q27 837 13 820 L-3 835 Z " />
<glyph glyph-name="itilde" unicode="&#x129;" horiz-adv-x="230" d="M99 0 L99 481 L131 481 L131 0 L99 0 Z M-13 626 Q0 646 16 660 Q32 674 54 674 Q71 674 86 665.5 Q101 657 115.5 647.5 Q130 638 144.5 629.5 Q159 621 174 621 Q201 621 225 659 L244 644 Q230 622 212.5 608 Q195 594 176 594 Q158 594 142.5 602.5 Q127 611 113 621 Q99 631 85 639.5 Q71 648 55 648 Q39 648 28 638 Q17 628 3 611 L-13 626 Z " />
<glyph glyph-name="Imacron" unicode="&#x12a;" horiz-adv-x="250" d="M108 0 L108 690 L141 690 L141 0 L108 0 Z M8 836 L8 860 L244 860 L244 836 L8 836 Z " />
<glyph glyph-name="imacron" unicode="&#x12b;" horiz-adv-x="230" d="M99 0 L99 481 L131 481 L131 0 L99 0 Z M-2 626 L-2 651 L234 651 L234 626 L-2 626 Z " />
<glyph glyph-name="Ibreve" unicode="&#x12c;" horiz-adv-x="250" d="M108 0 L108 690 L141 690 L141 0 L108 0 Z M125 760 Q77 760 47 796.5 Q17 833 8 897 L30 902 Q40 849 61.5 817.5 Q83 786 125 786 Q167 786 189 817.5 Q211 849 221 902 L242 897 Q234 833 204 796.5 Q174 760 125 760 Z " />
<glyph glyph-name="ibreve" unicode="&#x12d;" horiz-adv-x="230" d="M99 0 L99 481 L131 481 L131 0 L99 0 Z M115 551 Q67 551 37 587.5 Q7 624 -2 688 L20 693 Q30 640 51.5 608 Q73 576 115 576 Q157 576 179 608 Q201 640 211 693 L232 688 Q224 624 194 587.5 Q164 551 115 551 Z " />
<glyph glyph-name="Iogonek" unicode="&#x12e;" horiz-adv-x="250" d="M124 0 Q94 -44 74.5 -84.5 Q55 -125 55 -162 Q55 -182 61.5 -196.5 Q68 -211 78 -220 Q88 -229 100 -233.5 Q112 -238 123 -238 Q150 -238 168.5 -225 Q187 -212 198 -195 L215 -208 Q203 -226 179.5 -243 Q156 -260 121 -260 Q83 -260 56.5 -235.5 Q30 -211 30 -166 Q30 -127 50 -84 Q70 -41 108 13 L108 690 L141 690 L141 0 L124 0 Z " />
<glyph glyph-name="iogonek" unicode="&#x12f;" horiz-adv-x="230" d="M114 0 Q84 -44 64.5 -84.5 Q45 -125 45 -162 Q45 -182 51.5 -196.5 Q58 -211 67.5 -220 Q77 -229 89 -233.5 Q101 -238 112 -238 Q139 -238 158 -225 Q177 -212 188 -195 L204 -208 Q192 -226 168.5 -243 Q145 -260 110 -260 Q72 -260 46 -235.5 Q20 -211 20 -166 Q20 -127 40 -83.5 Q60 -40 99 14 L99 481 L131 481 L131 0 L114 0 Z M116 607 Q92 607 92 631 Q92 656 116 656 Q141 656 141 631 Q141 607 116 607 Z " />
<glyph glyph-name="Idotaccent" unicode="&#x130;" horiz-adv-x="250" d="M108 0 L108 690 L141 690 L141 0 L108 0 Z M101 840 Q101 865 125 865 Q150 865 150 840 Q150 816 125 816 Q101 816 101 840 Z " />
<glyph glyph-name="dotlessi" unicode="&#x131;" horiz-adv-x="230" d="M99 0 L99 481 L131 481 L131 0 L99 0 Z " />
<glyph glyph-name="IJ" unicode="&#x132;" horiz-adv-x="500" d="M108 0 L108 690 L141 690 L141 0 L108 0 Z M392 71 Q392 25 384 -5 Q376 -35 358.5 -52 Q341 -69 314.5 -76 Q288 -83 251 -83 L234 -83 L237 -54 L255 -54 Q284 -54 304 -48 Q324 -42 336 -27.5 Q348 -13 353.5 12 Q359 37 359 75 L359 690 L392 690 L392 71 Z " />
<glyph glyph-name="ij" unicode="&#x133;" horiz-adv-x="459" d="M116 605 Q91 605 91 631 Q91 657 116 657 Q143 657 143 631 Q143 605 116 605 Z M99 0 L99 481 L131 481 L131 0 L99 0 Z M252 -247 L259 -247 Q297 -247 312 -227.5 Q327 -208 327 -163 L327 481 L359 481 L359 -161 Q359 -223 336 -249 Q313 -275 259 -275 L250 -275 L252 -247 Z M344 605 Q318 605 318 631 Q318 657 344 657 Q371 657 371 631 Q371 605 344 605 Z " />
<glyph glyph-name="Jcircumflex" unicode="&#x134;" horiz-adv-x="252" d="M143 71 Q143 25 135 -5 Q127 -35 109.5 -52 Q92 -69 65.5 -76 Q39 -83 2 -83 L-15 -83 L-12 -54 L6 -54 Q35 -54 55 -48 Q75 -42 87 -27.5 Q99 -13 104.5 12 Q110 37 110 75 L110 690 L143 690 L143 71 Z M126 895 L29 760 L9 773 L114 928 L138 928 L243 773 L224 760 L126 895 Z " />
<glyph glyph-name="jcircumflex" unicode="&#x135;" horiz-adv-x="230" d="M24 -247 L31 -247 Q69 -247 84 -227.5 Q99 -208 99 -163 L99 481 L131 481 L131 -161 Q131 -223 108 -249 Q85 -275 31 -275 L22 -275 L24 -247 Z M113 686 L16 551 L-4 564 L101 718 L125 718 L230 564 L211 551 L113 686 Z " />
<glyph glyph-name="Kcommaaccent" unicode="&#x136;" horiz-adv-x="609" d="M108 0 L108 690 L141 690 L141 363 L210 363 Q264 363 310.5 375 Q357 387 392 411 Q427 435 447 471 Q467 507 467 554 Q467 598 455 631.5 Q443 665 427 687 L457 703 Q474 680 487 643.5 Q500 607 500 562 Q500 486 457.5 431 Q415 376 322 353 Q370 347 404.5 334.5 Q439 322 462.5 298 Q486 274 499 237 Q512 200 517 146 Q520 116 522.5 94 Q525 72 527.5 55.5 Q530 39 533 26 Q536 13 540 0 L506 0 Q499 23 494.5 55.5 Q490 88 484 148 Q478 206 461.5 242 Q445 278 414.5 298.5 Q384 319 338.5 326.5 Q293 334 229 334 L141 334 L141 0 L108 0 Z M278 -60 L312 -60 L283 -209 L256 -208 L278 -60 Z " />
<glyph glyph-name="kcommaaccent" unicode="&#x137;" horiz-adv-x="488" d="M99 0 L99 740 L131 740 L131 0 L99 0 Z M441 0 Q423 0 409.5 2.5 Q396 5 383 13.5 Q370 22 355 38 Q340 54 319 81 L174 262 L387 481 L427 481 L213 261 L353 89 Q369 69 380.5 57 Q392 45 402 39 Q412 33 422 31 Q432 29 444 29 L453 29 L453 0 L441 0 Z M234 -60 L268 -60 L239 -209 L212 -208 L234 -60 Z " />
<glyph glyph-name="Lacute" unicode="&#x139;" horiz-adv-x="533" d="M484 29 L484 0 L108 0 L108 690 L141 690 L141 29 L484 29 Z M150 760 L129 773 L231 928 L257 911 L150 760 Z " />
<glyph glyph-name="lacute" unicode="&#x13a;" horiz-adv-x="230" d="M99 0 L99 740 L131 740 L131 0 L99 0 Z M117 771 L96 784 L198 938 L224 922 L117 771 Z " />
<glyph glyph-name="Lcommaaccent" unicode="&#x13b;" horiz-adv-x="533" d="M484 29 L484 0 L108 0 L108 690 L141 690 L141 29 L484 29 Z M279 -60 L313 -60 L284 -209 L257 -208 L279 -60 Z " />
<glyph glyph-name="lcommaaccent" unicode="&#x13c;" horiz-adv-x="230" d="M99 0 L99 740 L131 740 L131 0 L99 0 Z M97 -60 L131 -60 L102 -209 L75 -208 L97 -60 Z " />
<glyph glyph-name="Lcaron" unicode="&#x13d;" horiz-adv-x="533" d="M484 29 L484 0 L108 0 L108 690 L141 690 L141 29 L484 29 Z M280 740 L313 740 L284 591 L258 592 L280 740 Z " />
<glyph glyph-name="lcaron" unicode="&#x13e;" horiz-adv-x="264" d="M99 0 L99 740 L131 740 L131 0 L99 0 Z M233 740 L266 740 L237 591 L211 592 L233 740 Z " />
<glyph glyph-name="Ldot" unicode="&#x13f;" horiz-adv-x="533" d="M484 29 L484 0 L108 0 L108 690 L141 690 L141 29 L484 29 Z M344 328 Q344 352 367 352 Q391 352 391 328 Q391 305 367 305 Q344 305 344 328 Z " />
<glyph glyph-name="ldot" unicode="&#x140;" horiz-adv-x="247" d="M99 0 L99 740 L131 740 L131 0 L99 0 Z M204 328 Q204 339 210.5 345.5 Q217 352 228 352 Q239 352 245.5 345.5 Q252 339 252 328 Q252 317 245.5 311 Q239 305 228 305 Q217 305 210.5 311 Q204 317 204 328 Z " />
<glyph glyph-name="Lslash" unicode="&#x141;" horiz-adv-x="533" d="M42 298 L108 341 L108 690 L141 690 L141 362 L210 408 L210 382 L141 336 L141 29 L484 29 L484 0 L108 0 L108 315 L42 272 L42 298 Z " />
<glyph glyph-name="lslash" unicode="&#x142;" horiz-adv-x="231" d="M34 298 L100 341 L100 740 L132 740 L132 362 L202 408 L202 382 L132 336 L132 0 L100 0 L100 315 L34 272 L34 298 Z " />
<glyph glyph-name="Nacute" unicode="&#x143;" horiz-adv-x="716" d="M140 634 L140 0 L108 0 L108 690 L140 690 L576 55 L576 690 L607 690 L607 0 L576 0 L140 634 Z M357 760 L336 773 L438 928 L464 911 L357 760 Z " />
<glyph glyph-name="nacute" unicode="&#x144;" horiz-adv-x="567" d="M99 0 L99 481 L130 481 L130 402 Q161 439 204 465 Q247 491 309 491 Q357 491 388.5 479.5 Q420 468 438.5 446.5 Q457 425 465 392.5 Q473 360 473 318 L473 0 L441 0 L441 315 Q441 391 409.5 426 Q378 461 303 461 Q244 461 204 435.5 Q164 410 131 370 L131 0 L99 0 Z M283 551 L262 564 L364 718 L390 702 L283 551 Z " />
<glyph glyph-name="Ncommaaccent" unicode="&#x145;" horiz-adv-x="716" d="M140 634 L140 0 L108 0 L108 690 L140 690 L576 55 L576 690 L607 690 L607 0 L576 0 L140 634 Z M326 -60 L360 -60 L331 -209 L304 -208 L326 -60 Z " />
<glyph glyph-name="ncommaaccent" unicode="&#x146;" horiz-adv-x="567" d="M99 0 L99 481 L130 481 L130 402 Q161 439 204 465 Q247 491 309 491 Q357 491 388.5 479.5 Q420 468 438.5 446.5 Q457 425 465 392.5 Q473 360 473 318 L473 0 L441 0 L441 315 Q441 391 409.5 426 Q378 461 303 461 Q244 461 204 435.5 Q164 410 131 370 L131 0 L99 0 Z M262 -60 L296 -60 L267 -209 L240 -208 L262 -60 Z " />
<glyph glyph-name="Ncaron" unicode="&#x147;" horiz-adv-x="716" d="M140 634 L140 0 L108 0 L108 690 L140 690 L576 55 L576 690 L607 690 L607 0 L576 0 L140 634 Z M453 928 L473 915 L368 760 L344 760 L239 915 L259 928 L356 793 L453 928 Z " />
<glyph glyph-name="ncaron" unicode="&#x148;" horiz-adv-x="567" d="M99 0 L99 481 L130 481 L130 402 Q161 439 204 465 Q247 491 309 491 Q357 491 388.5 479.5 Q420 468 438.5 446.5 Q457 425 465 392.5 Q473 360 473 318 L473 0 L441 0 L441 315 Q441 391 409.5 426 Q378 461 303 461 Q244 461 204 435.5 Q164 410 131 370 L131 0 L99 0 Z M379 718 L399 705 L294 551 L270 551 L165 705 L185 718 L282 583 L379 718 Z " />
<glyph glyph-name="Omacron" unicode="&#x14c;" horiz-adv-x="773" d="M387 -10 Q313 -10 253 15.5 Q193 41 150.5 88 Q108 135 85 200 Q62 265 62 345 Q62 423 85.5 488 Q109 553 152 600 Q195 647 254 673.5 Q313 700 385 700 Q460 700 520 674.5 Q580 649 622.5 602 Q665 555 688 489.5 Q711 424 711 345 Q711 267 687 202 Q663 137 620.5 90 Q578 43 518.5 16.5 Q459 -10 387 -10 Z M387 21 Q452 21 505.5 44 Q559 67 597 109.5 Q635 152 656 211.5 Q677 271 677 344 Q677 419 656.5 479 Q636 539 598 581.5 Q560 624 506 646.5 Q452 669 385 669 Q320 669 267 645.5 Q214 622 176 579.5 Q138 537 117 477.5 Q96 418 96 346 Q96 271 116.5 211 Q137 151 175 108.5 Q213 66 267 43.5 Q321 21 387 21 Z M269 836 L269 860 L505 860 L505 836 L269 836 Z " />
<glyph glyph-name="omacron" unicode="&#x14d;" horiz-adv-x="555" d="M278 -10 Q226 -10 185 8 Q144 26 115.5 58.5 Q87 91 72 136.5 Q57 182 57 238 Q57 295 73.5 341.5 Q90 388 119 421 Q148 454 189 472.5 Q230 491 278 491 Q329 491 370 473.5 Q411 456 439.5 423.5 Q468 391 483 345.5 Q498 300 498 244 Q498 187 482 140 Q466 93 436.5 60 Q407 27 366.5 8.5 Q326 -10 278 -10 Z M278 20 Q318 20 352 35.5 Q386 51 411.5 79.5 Q437 108 451.5 149.5 Q466 191 466 242 Q466 294 452.5 334.5 Q439 375 414 403 Q389 431 354.5 446 Q320 461 278 461 Q239 461 204.5 445.5 Q170 430 144.5 401.5 Q119 373 104 332 Q89 291 89 239 Q89 187 103 146.5 Q117 106 141.5 78 Q166 50 201 35 Q236 20 278 20 Z M160 626 L160 651 L396 651 L396 626 L160 626 Z " />
<glyph glyph-name="Obreve" unicode="&#x14e;" horiz-adv-x="773" d="M387 -10 Q313 -10 253 15.5 Q193 41 150.5 88 Q108 135 85 200 Q62 265 62 345 Q62 423 85.5 488 Q109 553 152 600 Q195 647 254 673.5 Q313 700 385 700 Q460 700 520 674.5 Q580 649 622.5 602 Q665 555 688 489.5 Q711 424 711 345 Q711 267 687 202 Q663 137 620.5 90 Q578 43 518.5 16.5 Q459 -10 387 -10 Z M387 21 Q452 21 505.5 44 Q559 67 597 109.5 Q635 152 656 211.5 Q677 271 677 344 Q677 419 656.5 479 Q636 539 598 581.5 Q560 624 506 646.5 Q452 669 385 669 Q320 669 267 645.5 Q214 622 176 579.5 Q138 537 117 477.5 Q96 418 96 346 Q96 271 116.5 211 Q137 151 175 108.5 Q213 66 267 43.5 Q321 21 387 21 Z M386 760 Q338 760 308 796.5 Q278 833 269 897 L291 902 Q301 849 322.5 817.5 Q344 786 386 786 Q428 786 450 817.5 Q472 849 482 902 L503 897 Q495 833 465 796.5 Q435 760 386 760 Z " />
<glyph glyph-name="obreve" unicode="&#x14f;" horiz-adv-x="555" d="M278 -10 Q226 -10 185 8 Q144 26 115.5 58.5 Q87 91 72 136.5 Q57 182 57 238 Q57 295 73.5 341.5 Q90 388 119 421 Q148 454 189 472.5 Q230 491 278 491 Q329 491 370 473.5 Q411 456 439.5 423.5 Q468 391 483 345.5 Q498 300 498 244 Q498 187 482 140 Q466 93 436.5 60 Q407 27 366.5 8.5 Q326 -10 278 -10 Z M278 20 Q318 20 352 35.5 Q386 51 411.5 79.5 Q437 108 451.5 149.5 Q466 191 466 242 Q466 294 452.5 334.5 Q439 375 414 403 Q389 431 354.5 446 Q320 461 278 461 Q239 461 204.5 445.5 Q170 430 144.5 401.5 Q119 373 104 332 Q89 291 89 239 Q89 187 103 146.5 Q117 106 141.5 78 Q166 50 201 35 Q236 20 278 20 Z M277 551 Q229 551 199 587.5 Q169 624 160 688 L182 693 Q192 640 213.5 608 Q235 576 277 576 Q319 576 341 608 Q363 640 373 693 L394 688 Q386 624 356 587.5 Q326 551 277 551 Z " />
<glyph glyph-name="Ohungarumlaut" unicode="&#x150;" horiz-adv-x="773" d="M387 -10 Q313 -10 253 15.5 Q193 41 150.5 88 Q108 135 85 200 Q62 265 62 345 Q62 423 85.5 488 Q109 553 152 600 Q195 647 254 673.5 Q313 700 385 700 Q460 700 520 674.5 Q580 649 622.5 602 Q665 555 688 489.5 Q711 424 711 345 Q711 267 687 202 Q663 137 620.5 90 Q578 43 518.5 16.5 Q459 -10 387 -10 Z M387 21 Q452 21 505.5 44 Q559 67 597 109.5 Q635 152 656 211.5 Q677 271 677 344 Q677 419 656.5 479 Q636 539 598 581.5 Q560 624 506 646.5 Q452 669 385 669 Q320 669 267 645.5 Q214 622 176 579.5 Q138 537 117 477.5 Q96 418 96 346 Q96 271 116.5 211 Q137 151 175 108.5 Q213 66 267 43.5 Q321 21 387 21 Z M324 760 L304 771 L386 928 L411 914 L324 760 Z M433 760 L413 771 L495 928 L520 914 L433 760 Z " />
<glyph glyph-name="ohungarumlaut" unicode="&#x151;" horiz-adv-x="555" d="M278 -10 Q226 -10 185 8 Q144 26 115.5 58.5 Q87 91 72 136.5 Q57 182 57 238 Q57 295 73.5 341.5 Q90 388 119 421 Q148 454 189 472.5 Q230 491 278 491 Q329 491 370 473.5 Q411 456 439.5 423.5 Q468 391 483 345.5 Q498 300 498 244 Q498 187 482 140 Q466 93 436.5 60 Q407 27 366.5 8.5 Q326 -10 278 -10 Z M278 20 Q318 20 352 35.5 Q386 51 411.5 79.5 Q437 108 451.5 149.5 Q466 191 466 242 Q466 294 452.5 334.5 Q439 375 414 403 Q389 431 354.5 446 Q320 461 278 461 Q239 461 204.5 445.5 Q170 430 144.5 401.5 Q119 373 104 332 Q89 291 89 239 Q89 187 103 146.5 Q117 106 141.5 78 Q166 50 201 35 Q236 20 278 20 Z M226 551 L206 562 L288 718 L313 704 L226 551 Z M335 551 L315 562 L397 718 L422 704 L335 551 Z " />
<glyph glyph-name="OE" unicode="&#x152;" horiz-adv-x="1017" d="M597 0 L597 71 Q555 32 501.5 11 Q448 -10 386 -10 Q311 -10 251 15.5 Q191 41 148.5 88 Q106 135 83 200 Q60 265 60 345 Q60 423 84 488 Q108 553 150.5 600 Q193 647 252.5 673.5 Q312 700 384 700 Q448 700 501.5 680 Q555 660 597 623 L597 690 L962 690 L962 661 L630 661 L630 377 L877 377 L877 348 L630 348 L630 29 L962 29 L962 0 L597 0 Z M386 21 Q455 21 506 44.5 Q557 68 597 110 L597 580 Q559 623 505 646 Q451 669 384 669 Q319 669 265.5 645.5 Q212 622 174 579.5 Q136 537 115 477.5 Q94 418 94 346 Q94 271 114.5 211 Q135 151 173 108.5 Q211 66 265 43.5 Q319 21 386 21 Z " />
<glyph glyph-name="oe" unicode="&#x153;" horiz-adv-x="911" d="M269 -10 Q219 -10 180 8 Q141 26 113.5 58.5 Q86 91 71.5 136.5 Q57 182 57 238 Q57 295 72.5 341.5 Q88 388 116.5 421 Q145 454 183.5 472.5 Q222 491 269 491 Q346 491 397.5 452.5 Q449 414 472 345 Q494 413 543 452 Q592 491 661 491 Q711 491 747.5 475 Q784 459 807.5 429 Q831 399 842 357 Q853 315 852 263 L487 263 L487 239 Q487 135 536 77 Q585 19 670 19 Q721 19 756.5 42 Q792 65 818 108 L844 92 Q815 43 773 16.5 Q731 -10 670 -10 Q592 -10 541.5 29 Q491 68 470 137 Q446 68 393.5 29 Q341 -10 269 -10 Z M269 20 Q308 20 342 35 Q376 50 401 78.5 Q426 107 440.5 147 Q455 187 456 238 L456 249 Q455 299 441 338.5 Q427 378 402.5 405 Q378 432 344 446.5 Q310 461 269 461 Q231 461 198.5 445.5 Q166 430 141.5 401.5 Q117 373 103 332 Q89 291 89 239 Q89 187 102 146.5 Q115 106 139 78 Q163 50 196 35 Q229 20 269 20 Z M660 462 Q594 462 548 416 Q502 370 490 289 L820 289 Q816 369 777.5 415.5 Q739 462 660 462 Z " />
<glyph glyph-name="Racute" unicode="&#x154;" horiz-adv-x="571" d="M108 0 L108 690 L199 690 Q278 690 330.5 673.5 Q383 657 415 629 Q447 601 460.5 564 Q474 527 474 485 Q474 460 467.5 432.5 Q461 405 445.5 379.5 Q430 354 405 332.5 Q380 311 344 298 Q372 292 394 279.5 Q416 267 432.5 244.5 Q449 222 460 188 Q471 154 477 105 Q488 28 494 0 L461 0 Q454 39 450.5 59.5 Q447 80 444 101 Q436 158 423.5 193 Q411 228 389 247 Q367 266 334 272.5 Q301 279 254 279 L225 279 L225 308 L238 308 Q292 308 330.5 322.5 Q369 337 393.5 361.5 Q418 386 429 417.5 Q440 449 440 482 Q440 520 428 552.5 Q416 585 387 609 Q358 633 310 647 Q262 661 190 661 L141 661 L141 0 L108 0 Z M285 760 L264 773 L366 928 L392 911 L285 760 Z " />
<glyph glyph-name="racute" unicode="&#x155;" horiz-adv-x="364" d="M99 0 L99 481 L130 481 L130 401 Q162 439 208 465 Q254 491 322 491 L322 460 Q259 460 214 435 Q169 410 131 369 L131 0 L99 0 Z M193 551 L172 564 L274 718 L300 702 L193 551 Z " />
<glyph glyph-name="Rcommaaccent" unicode="&#x156;" horiz-adv-x="571" d="M108 0 L108 690 L199 690 Q278 690 330.5 673.5 Q383 657 415 629 Q447 601 460.5 564 Q474 527 474 485 Q474 460 467.5 432.5 Q461 405 445.5 379.5 Q430 354 405 332.5 Q380 311 344 298 Q372 292 394 279.5 Q416 267 432.5 244.5 Q449 222 460 188 Q471 154 477 105 Q488 28 494 0 L461 0 Q454 39 450.5 59.5 Q447 80 444 101 Q436 158 423.5 193 Q411 228 389 247 Q367 266 334 272.5 Q301 279 254 279 L225 279 L225 308 L238 308 Q292 308 330.5 322.5 Q369 337 393.5 361.5 Q418 386 429 417.5 Q440 449 440 482 Q440 520 428 552.5 Q416 585 387 609 Q358 633 310 647 Q262 661 190 661 L141 661 L141 0 L108 0 Z M269 -60 L303 -60 L274 -209 L247 -208 L269 -60 Z " />
<glyph glyph-name="rcommaaccent" unicode="&#x157;" horiz-adv-x="364" d="M99 0 L99 481 L130 481 L130 401 Q162 439 208 465 Q254 491 322 491 L322 460 Q259 460 214 435 Q169 410 131 369 L131 0 L99 0 Z M101 -60 L135 -60 L106 -209 L79 -208 L101 -60 Z " />
<glyph glyph-name="Rcaron" unicode="&#x158;" horiz-adv-x="571" d="M108 0 L108 690 L199 690 Q278 690 330.5 673.5 Q383 657 415 629 Q447 601 460.5 564 Q474 527 474 485 Q474 460 467.5 432.5 Q461 405 445.5 379.5 Q430 354 405 332.5 Q380 311 344 298 Q372 292 394 279.5 Q416 267 432.5 244.5 Q449 222 460 188 Q471 154 477 105 Q488 28 494 0 L461 0 Q454 39 450.5 59.5 Q447 80 444 101 Q436 158 423.5 193 Q411 228 389 247 Q367 266 334 272.5 Q301 279 254 279 L225 279 L225 308 L238 308 Q292 308 330.5 322.5 Q369 337 393.5 361.5 Q418 386 429 417.5 Q440 449 440 482 Q440 520 428 552.5 Q416 585 387 609 Q358 633 310 647 Q262 661 190 661 L141 661 L141 0 L108 0 Z M381 928 L401 915 L296 760 L272 760 L167 915 L187 928 L284 793 L381 928 Z " />
<glyph glyph-name="rcaron" unicode="&#x159;" horiz-adv-x="364" d="M99 0 L99 481 L130 481 L130 401 Q162 439 208 465 Q254 491 322 491 L322 460 Q259 460 214 435 Q169 410 131 369 L131 0 L99 0 Z M289 718 L309 705 L204 551 L180 551 L75 705 L95 718 L192 583 L289 718 Z " />
<glyph glyph-name="Sacute" unicode="&#x15a;" horiz-adv-x="516" d="M255 700 Q329 700 376.5 660.5 Q424 621 436 536 L402 532 Q395 571 380.5 597.5 Q366 624 346 640 Q326 656 301.5 663 Q277 670 252 670 Q223 670 197 661.5 Q171 653 150.5 637 Q130 621 118 596.5 Q106 572 106 541 Q106 505 116.5 480 Q127 455 147.5 437 Q168 419 198.5 405.5 Q229 392 270 378 Q315 363 350 345.5 Q385 328 408.5 304.5 Q432 281 444.5 250.5 Q457 220 457 178 Q457 137 443 103 Q429 69 403 43.5 Q377 18 338.5 4 Q300 -10 252 -10 Q165 -10 118 31 Q71 72 54 149 L86 159 Q100 93 139.5 56.5 Q179 20 253 20 Q294 20 326 32 Q358 44 379.5 65 Q401 86 412.5 114.5 Q424 143 424 176 Q424 213 411 241 Q398 269 375.5 289 Q353 309 322 323.5 Q291 338 255 350 Q215 363 181.5 377.5 Q148 392 123.5 413 Q99 434 85.5 464 Q72 494 72 538 Q72 576 86 606 Q100 636 124.5 657 Q149 678 182.5 689 Q216 700 255 700 Z M262 760 L241 773 L343 928 L369 911 L262 760 Z " />
<glyph glyph-name="sacute" unicode="&#x15b;" horiz-adv-x="466" d="M232 491 Q306 491 345 461 Q384 431 392 380 L362 372 Q353 418 316.5 440.5 Q280 463 229 463 Q174 463 137.5 437 Q101 411 101 364 Q101 341 108 324 Q115 307 132 294 Q149 281 177 271.5 Q205 262 246 254 Q325 238 363.5 210 Q402 182 402 123 Q402 65 359.5 27.5 Q317 -10 228 -10 Q151 -10 109.5 18.5 Q68 47 53 101 L83 109 Q97 65 132.5 41.5 Q168 18 231 18 Q304 18 337.5 48.5 Q371 79 371 121 Q371 169 336.5 192.5 Q302 216 237 228 Q192 237 160 248.5 Q128 260 107.5 275.5 Q87 291 78 312 Q69 333 69 361 Q69 422 114 456.5 Q159 491 232 491 Z M233 551 L212 564 L314 718 L340 702 L233 551 Z " />
<glyph glyph-name="Scircumflex" unicode="&#x15c;" horiz-adv-x="516" d="M255 700 Q329 700 376.5 660.5 Q424 621 436 536 L402 532 Q395 571 380.5 597.5 Q366 624 346 640 Q326 656 301.5 663 Q277 670 252 670 Q223 670 197 661.5 Q171 653 150.5 637 Q130 621 118 596.5 Q106 572 106 541 Q106 505 116.5 480 Q127 455 147.5 437 Q168 419 198.5 405.5 Q229 392 270 378 Q315 363 350 345.5 Q385 328 408.5 304.5 Q432 281 444.5 250.5 Q457 220 457 178 Q457 137 443 103 Q429 69 403 43.5 Q377 18 338.5 4 Q300 -10 252 -10 Q165 -10 118 31 Q71 72 54 149 L86 159 Q100 93 139.5 56.5 Q179 20 253 20 Q294 20 326 32 Q358 44 379.5 65 Q401 86 412.5 114.5 Q424 143 424 176 Q424 213 411 241 Q398 269 375.5 289 Q353 309 322 323.5 Q291 338 255 350 Q215 363 181.5 377.5 Q148 392 123.5 413 Q99 434 85.5 464 Q72 494 72 538 Q72 576 86 606 Q100 636 124.5 657 Q149 678 182.5 689 Q216 700 255 700 Z M262 895 L165 760 L145 773 L250 928 L274 928 L379 773 L360 760 L262 895 Z " />
<glyph glyph-name="scircumflex" unicode="&#x15d;" horiz-adv-x="466" d="M232 491 Q306 491 345 461 Q384 431 392 380 L362 372 Q353 418 316.5 440.5 Q280 463 229 463 Q174 463 137.5 437 Q101 411 101 364 Q101 341 108 324 Q115 307 132 294 Q149 281 177 271.5 Q205 262 246 254 Q325 238 363.5 210 Q402 182 402 123 Q402 65 359.5 27.5 Q317 -10 228 -10 Q151 -10 109.5 18.5 Q68 47 53 101 L83 109 Q97 65 132.5 41.5 Q168 18 231 18 Q304 18 337.5 48.5 Q371 79 371 121 Q371 169 336.5 192.5 Q302 216 237 228 Q192 237 160 248.5 Q128 260 107.5 275.5 Q87 291 78 312 Q69 333 69 361 Q69 422 114 456.5 Q159 491 232 491 Z M233 686 L136 551 L116 564 L221 718 L245 718 L350 564 L331 551 L233 686 Z " />
<glyph glyph-name="Scedilla" unicode="&#x15e;" horiz-adv-x="516" d="M255 700 Q329 700 376.5 660.5 Q424 621 436 536 L402 532 Q395 571 380.5 597.5 Q366 624 346 640 Q326 656 301.5 663 Q277 670 252 670 Q223 670 197 661.5 Q171 653 150.5 637 Q130 621 118 596.5 Q106 572 106 541 Q106 505 116.5 480 Q127 455 147.5 437 Q168 419 198.5 405.5 Q229 392 270 378 Q315 363 350 345.5 Q385 328 408.5 304.5 Q432 281 444.5 250.5 Q457 220 457 178 Q457 137 443 103 Q429 69 403 43.5 Q377 18 338.5 4 Q300 -10 252 -10 L251 -10 L251 -74 Q258 -72 265.5 -71 Q273 -70 284 -70 Q322 -70 348 -93 Q374 -116 374 -157 Q374 -182 364.5 -201 Q355 -220 339 -233 Q323 -246 302 -253 Q281 -260 257 -260 Q221 -260 198 -245.5 Q175 -231 164 -217 L178 -200 Q187 -210 205.5 -224.5 Q224 -239 258 -239 Q297 -239 323.5 -217.5 Q350 -196 350 -160 Q350 -125 328 -107.5 Q306 -90 277 -90 Q260 -90 249.5 -92 Q239 -94 230 -96 L230 -9 Q154 -4 112 36.5 Q70 77 54 149 L86 159 Q100 93 139.5 56.5 Q179 20 253 20 Q294 20 326 32 Q358 44 379.5 65 Q401 86 412.5 114.5 Q424 143 424 176 Q424 213 411 241 Q398 269 375.5 289 Q353 309 322 323.5 Q291 338 255 350 Q215 363 181.5 377.5 Q148 392 123.5 413 Q99 434 85.5 464 Q72 494 72 538 Q72 576 86 606 Q100 636 124.5 657 Q149 678 182.5 689 Q216 700 255 700 Z " />
<glyph glyph-name="scedilla" unicode="&#x15f;" horiz-adv-x="466" d="M232 491 Q307 491 345.5 461 Q384 431 393 380 L362 372 Q354 418 317.5 440.5 Q281 463 230 463 Q174 463 137.5 437 Q101 411 101 364 Q101 341 108 324 Q115 307 132 294 Q149 281 177 271.5 Q205 262 246 254 Q325 238 364 210 Q403 182 403 123 Q403 67 362 29.5 Q321 -8 238 -10 L238 -74 Q245 -72 252.5 -71 Q260 -70 271 -70 Q309 -70 335 -93 Q361 -116 361 -157 Q361 -182 351.5 -201 Q342 -220 326.5 -233 Q311 -246 290 -253 Q269 -260 245 -260 Q208 -260 185 -245.5 Q162 -231 151 -217 L165 -200 Q174 -210 193 -224.5 Q212 -239 246 -239 Q284 -239 310.5 -217.5 Q337 -196 337 -160 Q337 -125 315 -107.5 Q293 -90 264 -90 Q247 -90 236.5 -92 Q226 -94 217 -96 L217 -10 Q146 -8 107 21 Q68 50 54 101 L84 109 Q98 65 133.5 41.5 Q169 18 232 18 Q304 18 337.5 48.5 Q371 79 371 121 Q371 169 336.5 192.5 Q302 216 237 228 Q192 237 160 248.5 Q128 260 108 275.5 Q88 291 79 312 Q70 333 70 361 Q70 422 115 456.5 Q160 491 232 491 Z " />
<glyph glyph-name="Scaron" unicode="&#x160;" horiz-adv-x="516" d="M255 700 Q329 700 376.5 660.5 Q424 621 436 536 L402 532 Q395 571 380.5 597.5 Q366 624 346 640 Q326 656 301.5 663 Q277 670 252 670 Q223 670 197 661.5 Q171 653 150.5 637 Q130 621 118 596.5 Q106 572 106 541 Q106 505 116.5 480 Q127 455 147.5 437 Q168 419 198.5 405.5 Q229 392 270 378 Q315 363 350 345.5 Q385 328 408.5 304.5 Q432 281 444.5 250.5 Q457 220 457 178 Q457 137 443 103 Q429 69 403 43.5 Q377 18 338.5 4 Q300 -10 252 -10 Q165 -10 118 31 Q71 72 54 149 L86 159 Q100 93 139.5 56.5 Q179 20 253 20 Q294 20 326 32 Q358 44 379.5 65 Q401 86 412.5 114.5 Q424 143 424 176 Q424 213 411 241 Q398 269 375.5 289 Q353 309 322 323.5 Q291 338 255 350 Q215 363 181.5 377.5 Q148 392 123.5 413 Q99 434 85.5 464 Q72 494 72 538 Q72 576 86 606 Q100 636 124.5 657 Q149 678 182.5 689 Q216 700 255 700 Z M358 928 L378 915 L273 760 L249 760 L144 915 L164 928 L261 793 L358 928 Z " />
<glyph glyph-name="scaron" unicode="&#x161;" horiz-adv-x="466" d="M232 491 Q306 491 345 461 Q384 431 392 380 L362 372 Q353 418 316.5 440.5 Q280 463 229 463 Q174 463 137.5 437 Q101 411 101 364 Q101 341 108 324 Q115 307 132 294 Q149 281 177 271.5 Q205 262 246 254 Q325 238 363.5 210 Q402 182 402 123 Q402 65 359.5 27.5 Q317 -10 228 -10 Q151 -10 109.5 18.5 Q68 47 53 101 L83 109 Q97 65 132.5 41.5 Q168 18 231 18 Q304 18 337.5 48.5 Q371 79 371 121 Q371 169 336.5 192.5 Q302 216 237 228 Q192 237 160 248.5 Q128 260 107.5 275.5 Q87 291 78 312 Q69 333 69 361 Q69 422 114 456.5 Q159 491 232 491 Z M329 718 L349 705 L244 551 L220 551 L115 705 L135 718 L232 583 L329 718 Z " />
<glyph glyph-name="uni0162" unicode="&#x162;" horiz-adv-x="555" d="M261 0 L261 661 L47 661 L47 690 L508 690 L508 661 L294 661 L294 0 L261 0 Z M256 -60 L290 -60 L261 -209 L234 -208 L256 -60 Z " />
<glyph glyph-name="uni0163" unicode="&#x163;" horiz-adv-x="322" d="M40 481 L108 481 L108 576 L140 585 L140 481 L281 481 L281 454 L140 454 L140 115 Q140 65 162 47 Q184 29 237 28 L281 28 L281 0 L232 0 Q198 1 174.5 7 Q151 13 136 25.5 Q121 38 114.5 59.5 Q108 81 108 113 L108 454 L40 454 L40 481 Z M161 -60 L195 -60 L166 -209 L139 -208 L161 -60 Z " />
<glyph glyph-name="Tcaron" unicode="&#x164;" horiz-adv-x="555" d="M261 0 L261 661 L47 661 L47 690 L508 690 L508 661 L294 661 L294 0 L261 0 Z M374 928 L394 915 L289 760 L265 760 L160 915 L180 928 L277 793 L374 928 Z " />
<glyph glyph-name="tcaron" unicode="&#x165;" horiz-adv-x="322" d="M40 481 L108 481 L108 576 L140 585 L140 481 L281 481 L281 454 L140 454 L140 115 Q140 65 162 47 Q184 29 237 28 L281 28 L281 0 L232 0 Q198 1 174.5 7 Q151 13 136 25.5 Q121 38 114.5 59.5 Q108 81 108 113 L108 454 L40 454 L40 481 Z M257 740 L290 740 L261 591 L235 592 L257 740 Z " />
<glyph glyph-name="Tbar" unicode="&#x166;" horiz-adv-x="555" d="M261 0 L261 345 L157 345 L157 370 L261 370 L261 661 L47 661 L47 690 L508 690 L508 661 L294 661 L294 370 L399 370 L399 345 L294 345 L294 0 L261 0 Z " />
<glyph glyph-name="tbar" unicode="&#x167;" horiz-adv-x="322" d="M40 481 L108 481 L108 576 L140 585 L140 481 L281 481 L281 454 L140 454 L140 271 L277 271 L277 246 L140 246 L140 115 Q140 65 162 47 Q184 29 237 28 L281 28 L281 0 L232 0 Q198 1 174.5 7 Q151 13 136 25.5 Q121 38 114.5 59.5 Q108 81 108 113 L108 246 L41 246 L41 271 L108 271 L108 454 L40 454 L40 481 Z " />
<glyph glyph-name="Utilde" unicode="&#x168;" horiz-adv-x="686" d="M340 -10 Q225 -10 162 60.5 Q99 131 99 274 L99 690 L132 687 L132 279 Q132 146 187.5 83 Q243 20 344 20 Q444 20 499 84.5 Q554 149 554 276 L554 690 L587 690 L587 274 Q587 136 524 63 Q461 -10 340 -10 Z M214 835 Q227 856 243 870 Q259 884 281 884 Q298 884 313 875.5 Q328 867 342.5 857 Q357 847 371.5 838.5 Q386 830 401 830 Q428 830 452 868 L471 853 Q457 831 439.5 817 Q422 803 403 803 Q385 803 369.5 811.5 Q354 820 340 830 Q326 840 312 848.5 Q298 857 282 857 Q266 857 255 847 Q244 837 230 820 L214 835 Z " />
<glyph glyph-name="utilde" unicode="&#x169;" horiz-adv-x="547" d="M252 -10 Q209 -10 179.5 1 Q150 12 132 34 Q114 56 106 88 Q98 120 98 162 L98 481 L130 481 L130 166 Q130 89 159.5 54.5 Q189 20 258 20 Q314 20 351.5 45.5 Q389 71 421 110 L421 481 L453 481 L453 0 L422 0 L422 79 Q392 41 351 15.5 Q310 -10 252 -10 Z M145 626 Q158 646 174 660 Q190 674 212 674 Q229 674 244 665.5 Q259 657 273.5 647.5 Q288 638 302.5 629.5 Q317 621 332 621 Q359 621 383 659 L402 644 Q388 622 370.5 608 Q353 594 334 594 Q316 594 300.5 602.5 Q285 611 271 621 Q257 631 243 639.5 Q229 648 213 648 Q197 648 186 638 Q175 628 161 611 L145 626 Z " />
<glyph glyph-name="Umacron" unicode="&#x16a;" horiz-adv-x="686" d="M340 -10 Q225 -10 162 60.5 Q99 131 99 274 L99 690 L132 687 L132 279 Q132 146 187.5 83 Q243 20 344 20 Q444 20 499 84.5 Q554 149 554 276 L554 690 L587 690 L587 274 Q587 136 524 63 Q461 -10 340 -10 Z M225 836 L225 860 L461 860 L461 836 L225 836 Z " />
<glyph glyph-name="umacron" unicode="&#x16b;" horiz-adv-x="547" d="M252 -10 Q209 -10 179.5 1 Q150 12 132 34 Q114 56 106 88 Q98 120 98 162 L98 481 L130 481 L130 166 Q130 89 159.5 54.5 Q189 20 258 20 Q314 20 351.5 45.5 Q389 71 421 110 L421 481 L453 481 L453 0 L422 0 L422 79 Q392 41 351 15.5 Q310 -10 252 -10 Z M156 626 L156 651 L392 651 L392 626 L156 626 Z " />
<glyph glyph-name="Ubreve" unicode="&#x16c;" horiz-adv-x="686" d="M340 -10 Q225 -10 162 60.5 Q99 131 99 274 L99 690 L132 687 L132 279 Q132 146 187.5 83 Q243 20 344 20 Q444 20 499 84.5 Q554 149 554 276 L554 690 L587 690 L587 274 Q587 136 524 63 Q461 -10 340 -10 Z M342 760 Q294 760 264 796.5 Q234 833 225 897 L247 902 Q257 849 278.5 817.5 Q300 786 342 786 Q384 786 406 817.5 Q428 849 438 902 L459 897 Q451 833 421 796.5 Q391 760 342 760 Z " />
<glyph glyph-name="ubreve" unicode="&#x16d;" horiz-adv-x="547" d="M252 -10 Q209 -10 179.5 1 Q150 12 132 34 Q114 56 106 88 Q98 120 98 162 L98 481 L130 481 L130 166 Q130 89 159.5 54.5 Q189 20 258 20 Q314 20 351.5 45.5 Q389 71 421 110 L421 481 L453 481 L453 0 L422 0 L422 79 Q392 41 351 15.5 Q310 -10 252 -10 Z M273 551 Q225 551 195 587.5 Q165 624 156 688 L178 693 Q188 640 209.5 608 Q231 576 273 576 Q315 576 337 608 Q359 640 369 693 L390 688 Q382 624 352 587.5 Q322 551 273 551 Z " />
<glyph glyph-name="Uring" unicode="&#x16e;" horiz-adv-x="686" d="M340 -10 Q225 -10 162 60.5 Q99 131 99 274 L99 690 L132 687 L132 279 Q132 146 187.5 83 Q243 20 344 20 Q444 20 499 84.5 Q554 149 554 276 L554 690 L587 690 L587 274 Q587 136 524 63 Q461 -10 340 -10 Z M342 760 Q304 760 282.5 782 Q261 804 261 842 Q261 879 283.5 901.5 Q306 924 342 924 Q380 924 402 901.5 Q424 879 424 841 Q424 806 401 783 Q378 760 342 760 Z M342 779 Q371 779 387.5 796.5 Q404 814 404 842 Q404 871 387.5 888 Q371 905 342 905 Q313 905 297 888 Q281 871 281 842 Q281 813 297 796 Q313 779 342 779 Z " />
<glyph glyph-name="uring" unicode="&#x16f;" horiz-adv-x="547" d="M252 -10 Q209 -10 179.5 1 Q150 12 132 34 Q114 56 106 88 Q98 120 98 162 L98 481 L130 481 L130 166 Q130 89 159.5 54.5 Q189 20 258 20 Q314 20 351.5 45.5 Q389 71 421 110 L421 481 L453 481 L453 0 L422 0 L422 79 Q392 41 351 15.5 Q310 -10 252 -10 Z M273 551 Q235 551 213.5 573 Q192 595 192 633 Q192 669 214.5 692 Q237 715 273 715 Q311 715 333 692.5 Q355 670 355 632 Q355 596 332 573.5 Q309 551 273 551 Z M273 570 Q302 570 318.5 587 Q335 604 335 633 Q335 662 318.5 679 Q302 696 273 696 Q244 696 228 678.5 Q212 661 212 632 Q212 604 228 587 Q244 570 273 570 Z " />
<glyph glyph-name="Uhungarumlaut" unicode="&#x170;" horiz-adv-x="686" d="M340 -10 Q225 -10 162 60.5 Q99 131 99 274 L99 690 L132 687 L132 279 Q132 146 187.5 83 Q243 20 344 20 Q444 20 499 84.5 Q554 149 554 276 L554 690 L587 690 L587 274 Q587 136 524 63 Q461 -10 340 -10 Z M280 760 L260 771 L342 928 L367 914 L280 760 Z M389 760 L369 771 L451 928 L476 914 L389 760 Z " />
<glyph glyph-name="uhungarumlaut" unicode="&#x171;" horiz-adv-x="547" d="M252 -10 Q209 -10 179.5 1 Q150 12 132 34 Q114 56 106 88 Q98 120 98 162 L98 481 L130 481 L130 166 Q130 89 159.5 54.5 Q189 20 258 20 Q314 20 351.5 45.5 Q389 71 421 110 L421 481 L453 481 L453 0 L422 0 L422 79 Q392 41 351 15.5 Q310 -10 252 -10 Z M211 551 L191 562 L273 718 L298 704 L211 551 Z M320 551 L300 562 L382 718 L407 704 L320 551 Z " />
<glyph glyph-name="Uogonek" unicode="&#x172;" horiz-adv-x="686" d="M340 -10 Q225 -10 162 60.5 Q99 131 99 274 L99 690 L132 687 L132 279 Q132 146 187.5 83 Q243 20 344 20 Q444 20 499 84.5 Q554 149 554 276 L554 690 L587 690 L587 274 Q587 150 536 79 Q485 8 388 -6 Q359 -48 342 -87.5 Q325 -127 325 -162 Q325 -182 331.5 -196.5 Q338 -211 347.5 -220 Q357 -229 369 -233.5 Q381 -238 392 -238 Q419 -238 438 -225 Q457 -212 468 -195 L484 -208 Q472 -226 448.5 -243 Q425 -260 390 -260 Q352 -260 326 -235.5 Q300 -211 300 -166 Q300 -131 315.5 -93 Q331 -55 363 -9 Q357 -10 351.5 -10 Q346 -10 340 -10 Z " />
<glyph glyph-name="uogonek" unicode="&#x173;" horiz-adv-x="547" d="M252 -10 Q209 -10 179.5 1 Q150 12 132 34 Q114 56 106 88 Q98 120 98 162 L98 481 L130 481 L130 166 Q130 89 159.5 54.5 Q189 20 258 20 Q314 20 351.5 45.5 Q389 71 421 110 L421 481 L452 481 L452 0 L440 0 Q410 -44 391 -84.5 Q372 -125 372 -162 Q372 -182 378.5 -196.5 Q385 -211 394.5 -220 Q404 -229 416 -233.5 Q428 -238 439 -238 Q466 -238 485 -225 Q504 -212 515 -195 L531 -208 Q519 -226 495.5 -243 Q472 -260 437 -260 Q399 -260 373 -235.5 Q347 -211 347 -166 Q347 -128 365.5 -85.5 Q384 -43 422 8 L422 79 Q392 41 351 15.5 Q310 -10 252 -10 Z " />
<glyph glyph-name="Wcircumflex" unicode="&#x174;" horiz-adv-x="909" d="M291 0 L43 690 L78 690 L305 48 L441 439 L416 507 Q403 542 397.5 569 Q392 596 392 616 Q392 660 411.5 677.5 Q431 695 453 695 Q478 695 497 678 Q516 661 516 618 Q516 576 491 504 L469 442 L613 51 L833 690 L867 690 L626 0 L603 0 L455 401 L314 0 L291 0 Z M453 669 Q437 669 427.5 657.5 Q418 646 418 620 Q418 601 423.5 574.5 Q429 548 443 513 L455 480 L466 511 Q479 548 484.5 574 Q490 600 490 618 Q490 647 479 658 Q468 669 453 669 Z M454 895 L357 760 L337 773 L442 928 L466 928 L571 773 L552 760 L454 895 Z " />
<glyph glyph-name="wcircumflex" unicode="&#x175;" horiz-adv-x="704" d="M40 481 L73 481 L216 37 L341 391 L363 391 L490 37 L631 481 L664 481 L504 0 L474 0 L351 345 L230 0 L199 0 L40 481 Z M351 686 L254 551 L234 564 L339 718 L363 718 L468 564 L449 551 L351 686 Z " />
<glyph glyph-name="Ycircumflex" unicode="&#x176;" horiz-adv-x="565" d="M265 0 L265 233 L27 690 L65 690 L283 263 L502 690 L538 690 L299 233 L299 0 L265 0 Z M282 895 L185 760 L165 773 L270 928 L294 928 L399 773 L380 760 L282 895 Z " />
<glyph glyph-name="ycircumflex" unicode="&#x177;" horiz-adv-x="484" d="M232 -3 L49 481 L84 481 L248 38 L409 481 L443 481 L204 -161 Q184 -213 157.5 -231.5 Q131 -250 93 -250 L64 -250 L64 -222 L95 -222 Q124 -222 142.5 -207 Q161 -192 174 -159 L232 -3 Z M241 686 L144 551 L124 564 L229 718 L253 718 L358 564 L339 551 L241 686 Z " />
<glyph glyph-name="Ydieresis" unicode="&#x178;" horiz-adv-x="565" d="M265 0 L265 233 L27 690 L65 690 L283 263 L502 690 L538 690 L299 233 L299 0 L265 0 Z M218 818 Q209 818 203 824 Q197 830 197 840 Q197 851 203 857 Q209 863 218 863 Q241 863 241 840 Q241 818 218 818 Z M346 818 Q324 818 324 840 Q324 863 346 863 Q368 863 368 840 Q368 818 346 818 Z " />
<glyph glyph-name="Zacute" unicode="&#x179;" horiz-adv-x="556" d="M90 29 L504 29 L504 0 L52 0 L52 30 L452 661 L68 661 L68 690 L492 690 L492 660 L90 29 Z M277 760 L256 773 L358 928 L384 911 L277 760 Z " />
<glyph glyph-name="zacute" unicode="&#x17a;" horiz-adv-x="438" d="M77 28 L400 28 L400 0 L38 0 L38 25 L360 453 L59 453 L59 481 L398 481 L398 456 L77 28 Z M219 551 L198 564 L300 718 L326 702 L219 551 Z " />
<glyph glyph-name="Zdotaccent" unicode="&#x17b;" horiz-adv-x="556" d="M90 29 L504 29 L504 0 L52 0 L52 30 L452 661 L68 661 L68 690 L492 690 L492 660 L90 29 Z M253 840 Q253 865 277 865 Q302 865 302 840 Q302 816 277 816 Q253 816 253 840 Z " />
<glyph glyph-name="zdotaccent" unicode="&#x17c;" horiz-adv-x="438" d="M77 28 L400 28 L400 0 L38 0 L38 25 L360 453 L59 453 L59 481 L398 481 L398 456 L77 28 Z M196 631 Q196 656 220 656 Q245 656 245 631 Q245 607 220 607 Q196 607 196 631 Z " />
<glyph glyph-name="Zcaron" unicode="&#x17d;" horiz-adv-x="556" d="M90 29 L504 29 L504 0 L52 0 L52 30 L452 661 L68 661 L68 690 L492 690 L492 660 L90 29 Z M373 928 L393 915 L288 760 L264 760 L159 915 L179 928 L276 793 L373 928 Z " />
<glyph glyph-name="zcaron" unicode="&#x17e;" horiz-adv-x="438" d="M77 28 L400 28 L400 0 L38 0 L38 25 L360 453 L59 453 L59 481 L398 481 L398 456 L77 28 Z M335 718 L355 705 L250 551 L226 551 L121 705 L141 718 L238 583 L335 718 Z " />
<glyph glyph-name="florin" unicode="&#x192;" horiz-adv-x="405" d="M97 438 L174 436 L174 573 Q174 607 180 631.5 Q186 656 201 672 Q216 688 241 695.5 Q266 703 304 704 L351 706 L353 680 L309 679 Q280 678 260 672.5 Q240 667 228 655 Q216 643 210.5 622.5 Q205 602 205 571 L205 436 L341 434 L340 408 L205 411 L205 124 Q205 89 198.5 65 Q192 41 177 25 Q162 9 137 1.5 Q112 -6 75 -7 L28 -9 L26 17 L70 19 Q99 20 119 25 Q139 30 151 42 Q163 54 168.5 74.5 Q174 95 174 126 L174 411 L100 413 L97 438 Z " />
<glyph glyph-name="uni0218" unicode="&#x218;" horiz-adv-x="516" d="M255 700 Q329 700 376.5 660.5 Q424 621 436 536 L402 532 Q395 571 380.5 597.5 Q366 624 346 640 Q326 656 301.5 663 Q277 670 252 670 Q223 670 197 661.5 Q171 653 150.5 637 Q130 621 118 596.5 Q106 572 106 541 Q106 505 116.5 480 Q127 455 147.5 437 Q168 419 198.5 405.5 Q229 392 270 378 Q315 363 350 345.5 Q385 328 408.5 304.5 Q432 281 444.5 250.5 Q457 220 457 178 Q457 137 443 103 Q429 69 403 43.5 Q377 18 338.5 4 Q300 -10 252 -10 Q165 -10 118 31 Q71 72 54 149 L86 159 Q100 93 139.5 56.5 Q179 20 253 20 Q294 20 326 32 Q358 44 379.5 65 Q401 86 412.5 114.5 Q424 143 424 176 Q424 213 411 241 Q398 269 375.5 289 Q353 309 322 323.5 Q291 338 255 350 Q215 363 181.5 377.5 Q148 392 123.5 413 Q99 434 85.5 464 Q72 494 72 538 Q72 576 86 606 Q100 636 124.5 657 Q149 678 182.5 689 Q216 700 255 700 Z M244 -60 L278 -60 L249 -209 L222 -208 L244 -60 Z " />
<glyph glyph-name="uni0219" unicode="&#x219;" horiz-adv-x="466" d="M232 491 Q306 491 345 461 Q384 431 392 380 L362 372 Q353 418 316.5 440.5 Q280 463 229 463 Q174 463 137.5 437 Q101 411 101 364 Q101 341 108 324 Q115 307 132 294 Q149 281 177 271.5 Q205 262 246 254 Q325 238 363.5 210 Q402 182 402 123 Q402 65 359.5 27.5 Q317 -10 228 -10 Q151 -10 109.5 18.5 Q68 47 53 101 L83 109 Q97 65 132.5 41.5 Q168 18 231 18 Q304 18 337.5 48.5 Q371 79 371 121 Q371 169 336.5 192.5 Q302 216 237 228 Q192 237 160 248.5 Q128 260 107.5 275.5 Q87 291 78 312 Q69 333 69 361 Q69 422 114 456.5 Q159 491 232 491 Z M202 -60 L236 -60 L207 -209 L180 -208 L202 -60 Z " />
<glyph glyph-name="uni021A" unicode="&#x21a;" horiz-adv-x="555" d="M261 0 L261 661 L47 661 L47 690 L508 690 L508 661 L294 661 L294 0 L261 0 Z M256 -60 L290 -60 L261 -209 L234 -208 L256 -60 Z " />
<glyph glyph-name="uni021B" unicode="&#x21b;" horiz-adv-x="322" d="M40 481 L108 481 L108 576 L140 585 L140 481 L281 481 L281 454 L140 454 L140 115 Q140 65 162 47 Q184 29 237 28 L281 28 L281 0 L232 0 Q198 1 174.5 7 Q151 13 136 25.5 Q121 38 114.5 59.5 Q108 81 108 113 L108 454 L40 454 L40 481 Z M161 -60 L195 -60 L166 -209 L139 -208 L161 -60 Z " />
<glyph glyph-name="dotlessj" unicode="&#x237;" horiz-adv-x="230" d="M24 -247 L31 -247 Q69 -247 84 -227.5 Q99 -208 99 -163 L99 481 L131 481 L131 -161 Q131 -223 108 -249 Q85 -275 31 -275 L22 -275 L24 -247 Z " />
<glyph glyph-name="circumflex" unicode="&#x2c6;" horiz-adv-x="529" d="M264 686 L167 551 L147 564 L252 718 L276 718 L381 564 L362 551 L264 686 Z " />
<glyph glyph-name="caron" unicode="&#x2c7;" horiz-adv-x="529" d="M360 718 L380 705 L275 551 L251 551 L146 705 L166 718 L263 583 L360 718 Z " />
<glyph glyph-name="breve" unicode="&#x2d8;" horiz-adv-x="529" d="M264 551 Q216 551 186 587.5 Q156 624 147 688 L169 693 Q179 640 200.5 608 Q222 576 264 576 Q306 576 328 608 Q350 640 360 693 L381 688 Q373 624 343 587.5 Q313 551 264 551 Z " />
<glyph glyph-name="dotaccent" unicode="&#x2d9;" horiz-adv-x="529" d="M240 631 Q240 656 264 656 Q289 656 289 631 Q289 607 264 607 Q240 607 240 631 Z " />
<glyph glyph-name="ring" unicode="&#x2da;" horiz-adv-x="529" d="M264 551 Q226 551 204.5 573 Q183 595 183 633 Q183 669 205.5 692 Q228 715 264 715 Q302 715 324 692.5 Q346 670 346 632 Q346 596 323 573.5 Q300 551 264 551 Z M264 570 Q293 570 309.5 587 Q326 604 326 633 Q326 662 309.5 679 Q293 696 264 696 Q235 696 219 678.5 Q203 661 203 632 Q203 604 219 587 Q235 570 264 570 Z " />
<glyph glyph-name="ogonek" unicode="&#x2db;" horiz-adv-x="529" d="M313 88 Q287 54 263 21 Q239 -12 220.5 -43.5 Q202 -75 191 -105 Q180 -135 180 -162 Q180 -182 186.5 -196.5 Q193 -211 203 -220 Q213 -229 225 -233.5 Q237 -238 248 -238 Q275 -238 294 -225 Q313 -212 324 -195 L340 -208 Q328 -226 304.5 -243 Q281 -260 246 -260 Q208 -260 182 -235.5 Q156 -211 156 -166 Q156 -113 192 -51.5 Q228 10 298 96 L313 88 Z " />
<glyph glyph-name="tilde" unicode="&#x2dc;" horiz-adv-x="529" d="M136 626 Q149 646 165 660 Q181 674 203 674 Q220 674 235 665.5 Q250 657 264.5 647.5 Q279 638 293.5 629.5 Q308 621 323 621 Q350 621 374 659 L393 644 Q379 622 361.5 608 Q344 594 325 594 Q307 594 291.5 602.5 Q276 611 262 621 Q248 631 234 639.5 Q220 648 204 648 Q188 648 177 638 Q166 628 152 611 L136 626 Z " />
<glyph glyph-name="hungarumlaut" unicode="&#x2dd;" horiz-adv-x="529" d="M202 551 L182 562 L264 718 L289 704 L202 551 Z M311 551 L291 562 L373 718 L398 704 L311 551 Z " />
<glyph glyph-name="uni0394" unicode="&#x394;" horiz-adv-x="556" d="M512 0 L44 0 L44 25 L264 690 L292 690 L512 25 L512 0 Z M480 27 L278 654 L76 27 L480 27 Z " />
<glyph glyph-name="uni03A9" unicode="&#x3a9;" horiz-adv-x="763" d="M75 28 L271 28 Q180 57 127.5 139 Q75 221 75 347 Q75 424 97.5 488.5 Q120 553 160 600 Q200 647 256 673.5 Q312 700 380 700 Q451 700 508 674.5 Q565 649 604.5 602.5 Q644 556 665.5 491 Q687 426 687 347 Q687 285 672.5 233 Q658 181 632 140.5 Q606 100 569.5 71.5 Q533 43 488 28 L687 28 L687 0 L407 0 L407 28 Q457 29 502 51.5 Q547 74 580.5 115 Q614 156 633.5 214 Q653 272 653 344 Q653 419 634 479 Q615 539 579.5 581.5 Q544 624 493.5 646.5 Q443 669 380 669 Q319 669 269 645.5 Q219 622 183.5 579.5 Q148 537 128.5 477.5 Q109 418 109 346 Q109 271 129 212.5 Q149 154 183 113.5 Q217 73 262.5 51 Q308 29 359 28 L359 0 L75 0 L75 28 Z " />
<glyph glyph-name="pi" unicode="&#x3c0;" horiz-adv-x="572" d="M117 0 L117 454 L42 454 L42 481 L532 481 L532 454 L454 454 L454 0 L423 0 L423 454 L149 454 L149 0 L117 0 Z " />
<glyph glyph-name="Wgrave" unicode="&#x1e80;" horiz-adv-x="909" d="M291 0 L43 690 L78 690 L305 48 L441 439 L416 507 Q403 542 397.5 569 Q392 596 392 616 Q392 660 411.5 677.5 Q431 695 453 695 Q478 695 497 678 Q516 661 516 618 Q516 576 491 504 L469 442 L613 51 L833 690 L867 690 L626 0 L603 0 L455 401 L314 0 L291 0 Z M453 669 Q437 669 427.5 657.5 Q418 646 418 620 Q418 601 423.5 574.5 Q429 548 443 513 L455 480 L466 511 Q479 548 484.5 574 Q490 600 490 618 Q490 647 479 658 Q468 669 453 669 Z M364 911 L390 928 L492 773 L471 760 L364 911 Z " />
<glyph glyph-name="wgrave" unicode="&#x1e81;" horiz-adv-x="704" d="M40 481 L73 481 L216 37 L341 391 L363 391 L490 37 L631 481 L664 481 L504 0 L474 0 L351 345 L230 0 L199 0 L40 481 Z M261 702 L287 718 L389 564 L368 551 L261 702 Z " />
<glyph glyph-name="Wacute" unicode="&#x1e82;" horiz-adv-x="909" d="M291 0 L43 690 L78 690 L305 48 L441 439 L416 507 Q403 542 397.5 569 Q392 596 392 616 Q392 660 411.5 677.5 Q431 695 453 695 Q478 695 497 678 Q516 661 516 618 Q516 576 491 504 L469 442 L613 51 L833 690 L867 690 L626 0 L603 0 L455 401 L314 0 L291 0 Z M453 669 Q437 669 427.5 657.5 Q418 646 418 620 Q418 601 423.5 574.5 Q429 548 443 513 L455 480 L466 511 Q479 548 484.5 574 Q490 600 490 618 Q490 647 479 658 Q468 669 453 669 Z M454 760 L433 773 L535 928 L561 911 L454 760 Z " />
<glyph glyph-name="wacute" unicode="&#x1e83;" horiz-adv-x="704" d="M40 481 L73 481 L216 37 L341 391 L363 391 L490 37 L631 481 L664 481 L504 0 L474 0 L351 345 L230 0 L199 0 L40 481 Z M351 551 L330 564 L432 718 L458 702 L351 551 Z " />
<glyph glyph-name="Wdieresis" unicode="&#x1e84;" horiz-adv-x="909" d="M291 0 L43 690 L78 690 L305 48 L441 439 L416 507 Q403 542 397.5 569 Q392 596 392 616 Q392 660 411.5 677.5 Q431 695 453 695 Q478 695 497 678 Q516 661 516 618 Q516 576 491 504 L469 442 L613 51 L833 690 L867 690 L626 0 L603 0 L455 401 L314 0 L291 0 Z M453 669 Q437 669 427.5 657.5 Q418 646 418 620 Q418 601 423.5 574.5 Q429 548 443 513 L455 480 L466 511 Q479 548 484.5 574 Q490 600 490 618 Q490 647 479 658 Q468 669 453 669 Z M390 818 Q381 818 375 824 Q369 830 369 840 Q369 851 375 857 Q381 863 390 863 Q413 863 413 840 Q413 818 390 818 Z M518 818 Q496 818 496 840 Q496 863 518 863 Q540 863 540 840 Q540 818 518 818 Z " />
<glyph glyph-name="wdieresis" unicode="&#x1e85;" horiz-adv-x="704" d="M40 481 L73 481 L216 37 L341 391 L363 391 L490 37 L631 481 L664 481 L504 0 L474 0 L351 345 L230 0 L199 0 L40 481 Z M287 609 Q278 609 272 614.5 Q266 620 266 631 Q266 642 272 647.5 Q278 653 287 653 Q310 653 310 631 Q310 609 287 609 Z M415 609 Q393 609 393 631 Q393 653 415 653 Q437 653 437 631 Q437 609 415 609 Z " />
<glyph glyph-name="Ygrave" unicode="&#x1ef2;" horiz-adv-x="565" d="M265 0 L265 233 L27 690 L65 690 L283 263 L502 690 L538 690 L299 233 L299 0 L265 0 Z M192 911 L218 928 L320 773 L299 760 L192 911 Z " />
<glyph glyph-name="ygrave" unicode="&#x1ef3;" horiz-adv-x="484" d="M232 -3 L49 481 L84 481 L248 38 L409 481 L443 481 L204 -161 Q184 -213 157.5 -231.5 Q131 -250 93 -250 L64 -250 L64 -222 L95 -222 Q124 -222 142.5 -207 Q161 -192 174 -159 L232 -3 Z M151 702 L177 718 L279 564 L258 551 L151 702 Z " />
<glyph glyph-name="endash" unicode="&#x2013;" horiz-adv-x="514" d="M55 235 L55 261 L458 261 L458 235 L55 235 Z " />
<glyph glyph-name="emdash" unicode="&#x2014;" horiz-adv-x="1014" d="M55 235 L55 261 L958 261 L958 235 L55 235 Z " />
<glyph glyph-name="quoteleft" unicode="&#x2018;" horiz-adv-x="163" d="M93 585 L58 585 L88 740 L116 739 L93 585 Z " />
<glyph glyph-name="quoteright" unicode="&#x2019;" horiz-adv-x="163" d="M72 740 L107 740 L78 585 L50 586 L72 740 Z " />
<glyph glyph-name="quotesinglbase" unicode="&#x201a;" horiz-adv-x="163" d="M70 20 L105 20 L76 -135 L48 -134 L70 20 Z " />
<glyph glyph-name="quotedblleft" unicode="&#x201c;" horiz-adv-x="295" d="M225 585 L190 585 L220 740 L248 739 L225 585 Z M93 585 L58 585 L88 740 L116 739 L93 585 Z " />
<glyph glyph-name="quotedblright" unicode="&#x201d;" horiz-adv-x="295" d="M204 740 L239 740 L210 585 L182 586 L204 740 Z M72 740 L107 740 L78 585 L50 586 L72 740 Z " />
<glyph glyph-name="quotedblbase" unicode="&#x201e;" horiz-adv-x="295" d="M202 20 L237 20 L208 -135 L180 -134 L202 20 Z M70 20 L105 20 L76 -135 L48 -134 L70 20 Z " />
<glyph glyph-name="dagger" unicode="&#x2020;" horiz-adv-x="361" d="M39 522 L160 520 L160 700 L191 700 L191 520 L324 518 L322 490 L191 492 L191 0 L160 0 L160 493 L37 495 L39 522 Z " />
<glyph glyph-name="daggerdbl" unicode="&#x2021;" horiz-adv-x="361" d="M39 522 L160 520 L160 700 L191 700 L191 520 L324 518 L322 490 L191 492 L191 207 L324 205 L322 177 L191 179 L191 0 L160 0 L160 180 L37 182 L39 209 L160 207 L160 493 L37 495 L39 522 Z " />
<glyph glyph-name="bullet" unicode="&#x2022;" horiz-adv-x="330" d="M109 342 Q109 365 125.5 381.5 Q142 398 165 398 Q188 398 204.5 381.5 Q221 365 221 342 Q221 319 204.5 302.5 Q188 286 165 286 Q142 286 125.5 302.5 Q109 319 109 342 Z " />
<glyph glyph-name="ellipsis" unicode="&#x2026;" horiz-adv-x="657" d="M96 17 Q96 45 124 45 Q152 45 152 17 Q152 4 144.5 -4 Q137 -12 124 -12 Q111 -12 103.5 -4 Q96 4 96 17 Z M300 17 Q300 45 328 45 Q356 45 356 17 Q356 4 348.5 -4 Q341 -12 328 -12 Q315 -12 307.5 -4 Q300 4 300 17 Z M505 17 Q505 45 533 45 Q561 45 561 17 Q561 4 553.5 -4 Q546 -12 533 -12 Q520 -12 512.5 -4 Q505 4 505 17 Z " />
<glyph glyph-name="perthousand" unicode="&#x2030;" horiz-adv-x="1152" d="M92 5 L668 701 L687 686 L111 -12 L92 5 Z M210 368 Q234 368 256.5 376.5 Q279 385 296.5 404 Q314 423 324 452.5 Q334 482 334 523 Q334 601 298 638 Q262 675 210 675 Q186 675 163.5 666 Q141 657 124 638.5 Q107 620 97 590.5 Q87 561 87 520 Q87 442 123 405 Q159 368 210 368 Z M210 341 Q178 341 150.5 352 Q123 363 102.5 385 Q82 407 70 440.5 Q58 474 58 519 Q58 568 71 602.5 Q84 637 105.5 659 Q127 681 154 691 Q181 701 210 701 Q242 701 269.5 690.5 Q297 680 317.5 658 Q338 636 350 602.5 Q362 569 362 524 Q362 475 349 440.5 Q336 406 315 384 Q294 362 266.5 351.5 Q239 341 210 341 Z M570 15 Q594 15 616.5 23.5 Q639 32 656.5 51 Q674 70 684 99.5 Q694 129 694 170 Q694 248 658 285 Q622 322 570 322 Q546 322 523.5 313 Q501 304 484 285.5 Q467 267 457 237.5 Q447 208 447 167 Q447 89 483 52 Q519 15 570 15 Z M570 -12 Q538 -12 510.5 -1 Q483 10 463 32 Q443 54 431 87.5 Q419 121 419 166 Q419 215 432 249.5 Q445 284 466 306 Q487 328 514 338 Q541 348 570 348 Q602 348 629.5 337.5 Q657 327 677.5 305 Q698 283 710 249.5 Q722 216 722 171 Q722 122 709 87.5 Q696 53 675 31 Q654 9 626.5 -1.5 Q599 -12 570 -12 Z M942 15 Q966 15 988.5 23.5 Q1011 32 1028.5 51 Q1046 70 1056 99.5 Q1066 129 1066 170 Q1066 248 1030 285 Q994 322 942 322 Q918 322 895.5 313 Q873 304 855.5 285.5 Q838 267 828 237.5 Q818 208 818 167 Q818 89 854 52 Q890 15 942 15 Z M942 -12 Q910 -12 882.5 -1 Q855 10 834.5 32 Q814 54 802 87.5 Q790 121 790 166 Q790 215 803 249.5 Q816 284 837.5 306 Q859 328 886 338 Q913 348 942 348 Q974 348 1001.5 337.5 Q1029 327 1049.5 305 Q1070 283 1082 249.5 Q1094 216 1094 171 Q1094 122 1081 87.5 Q1068 53 1046.5 31 Q1025 9 997.5 -1.5 Q970 -12 942 -12 Z " />
<glyph glyph-name="guilsinglleft" unicode="&#x2039;" horiz-adv-x="339" d="M67 244 L225 385 L244 364 L93 232 L245 100 L226 78 L67 220 L67 244 Z " />
<glyph glyph-name="guilsinglright" unicode="&#x203a;" horiz-adv-x="339" d="M272 220 L113 78 L94 100 L246 232 L95 364 L114 385 L272 244 L272 220 Z " />
<glyph glyph-name="fraction" unicode="&#x2044;" horiz-adv-x="81" d="M-257 5 L319 701 L339 686 L-238 -12 L-257 5 Z " />
<glyph glyph-name="foursuperior" unicode="&#x2074;" horiz-adv-x="337" d="M26 442 L204 703 L229 703 L229 446 L290 446 L290 422 L229 422 L229 351 L204 351 L204 422 L26 422 L26 442 Z M56 446 L204 446 L204 665 L56 446 Z " />
<glyph glyph-name="Euro" unicode="&#x20ac;" horiz-adv-x="663" d="M21 439 L120 439 Q129 506 151.5 555 Q174 604 207 636 Q240 668 281.5 684 Q323 700 371 700 Q438 700 491.5 670 Q545 640 576 577 L545 564 Q516 617 471 643.5 Q426 670 371 670 Q330 670 294.5 656 Q259 642 230.5 613.5 Q202 585 182.5 541.5 Q163 498 154 439 L410 439 L410 414 L151 414 Q148 382 148 346 Q148 310 151 279 L410 279 L410 254 L154 254 Q172 135 231 77.5 Q290 20 373 20 Q438 20 489.5 56 Q541 92 567 167 L599 159 Q568 73 508.5 31.5 Q449 -10 373 -10 Q324 -10 281.5 6.5 Q239 23 206 56 Q173 89 151 138.5 Q129 188 120 254 L21 254 L21 279 L117 279 Q114 310 114 345 Q114 381 117 414 L21 414 L21 439 Z " />
<glyph glyph-name="uni2113" unicode="&#x2113;" horiz-adv-x="503" d="M161 217 Q161 18 258 18 Q276 18 294.5 25 Q313 32 330.5 44 Q348 56 363.5 71 Q379 86 393 102 L412 83 Q398 66 380.5 49.5 Q363 33 343 19.5 Q323 6 300.5 -2 Q278 -10 254 -10 Q197 -10 164 41.5 Q131 93 131 201 Q110 187 89 173.5 Q68 160 46 148 L34 172 Q57 184 81.5 199.5 Q106 215 131 233 Q134 288 146 344 Q158 400 176.5 452 Q195 504 219 549 Q243 594 270.5 627.5 Q298 661 327 680.5 Q356 700 385 700 Q414 700 427.5 679 Q441 658 441 626 Q441 579 420.5 527 Q400 475 362.5 422.5 Q325 370 273.5 319 Q222 268 161 222 L161 217 Z M377 671 Q356 671 332.5 653.5 Q309 636 286.5 605.5 Q264 575 243 534.5 Q222 494 205.5 447.5 Q189 401 177.5 352 Q166 303 162 256 Q210 293 255 337.5 Q300 382 334.5 429.5 Q369 477 390 525 Q411 573 411 618 Q411 671 377 671 Z " />
<glyph glyph-name="trademark" unicode="&#x2122;" horiz-adv-x="741" d="M336 351 L336 692 L360 692 L483 490 L606 692 L631 692 L631 351 L606 351 L606 656 L490 464 L477 464 L360 652 L360 351 L336 351 Z M133 351 L133 669 L30 669 L30 692 L262 692 L262 669 L159 669 L159 351 L133 351 Z " />
<glyph glyph-name="Omega" unicode="&#x2126;" horiz-adv-x="763" d="M75 28 L271 28 Q180 57 127.5 139 Q75 221 75 347 Q75 424 97.5 488.5 Q120 553 160 600 Q200 647 256 673.5 Q312 700 380 700 Q451 700 508 674.5 Q565 649 604.5 602.5 Q644 556 665.5 491 Q687 426 687 347 Q687 285 672.5 233 Q658 181 632 140.5 Q606 100 569.5 71.5 Q533 43 488 28 L687 28 L687 0 L407 0 L407 28 Q457 29 502 51.5 Q547 74 580.5 115 Q614 156 633.5 214 Q653 272 653 344 Q653 419 634 479 Q615 539 579.5 581.5 Q544 624 493.5 646.5 Q443 669 380 669 Q319 669 269 645.5 Q219 622 183.5 579.5 Q148 537 128.5 477.5 Q109 418 109 346 Q109 271 129 212.5 Q149 154 183 113.5 Q217 73 262.5 51 Q308 29 359 28 L359 0 L75 0 L75 28 Z " />
<glyph glyph-name="estimated" unicode="&#x212e;" horiz-adv-x="729" d="M174 257 Q170 257 170 254 L170 104 Q170 95 177 86 Q212 49 260.5 27.5 Q309 6 365 6 Q425 6 475.5 30 Q526 54 562 96 L606 96 Q564 48 501.5 18.5 Q439 -11 364 -11 Q301 -11 245 10.5 Q189 32 147.5 69.5 Q106 107 82 157 Q58 207 58 264 Q58 321 82 371.5 Q106 422 147.5 459.5 Q189 497 245 519 Q301 541 364 541 Q427 541 483 519 Q539 497 580.5 459.5 Q622 422 646 371.5 Q670 321 670 264 L670 257 L174 257 Z M558 427 Q558 438 550 446 Q515 482 467.5 503 Q420 524 365 524 Q310 524 261.5 502.5 Q213 481 178 443 Q170 437 170 424 L170 276 Q170 272 174 272 L555 272 Q558 272 558 276 L558 427 Z " />
<glyph glyph-name="partialdiff" unicode="&#x2202;" horiz-adv-x="564" d="M282 -10 Q231 -10 190 8 Q149 26 120.5 58.5 Q92 91 77 136.5 Q62 182 62 238 Q62 295 78.5 341.5 Q95 388 124 421 Q153 454 193.5 472.5 Q234 491 282 491 Q331 491 369.5 474.5 Q408 458 437 429 Q402 527 339.5 599.5 Q277 672 202 717 L214 740 Q274 704 326.5 653.5 Q379 603 418 540 Q457 477 479 402.5 Q501 328 501 244 Q501 187 485 140 Q469 93 439.5 60 Q410 27 370 8.5 Q330 -10 282 -10 Z M282 20 Q321 20 355 35.5 Q389 51 414 79.5 Q439 108 453.5 149.5 Q468 191 468 242 L468 252 Q465 351 414 406 Q363 461 282 461 Q243 461 209 445.5 Q175 430 149.5 401.5 Q124 373 109.5 332 Q95 291 95 239 Q95 187 108.5 146.5 Q122 106 147 78 Q172 50 206 35 Q240 20 282 20 Z " />
<glyph glyph-name="Delta" unicode="&#x2206;" horiz-adv-x="556" d="M512 0 L44 0 L44 25 L264 690 L292 690 L512 25 L512 0 Z M480 27 L278 654 L76 27 L480 27 Z " />
<glyph glyph-name="product" unicode="&#x220f;" horiz-adv-x="724" d="M533 -180 L533 661 L190 661 L190 -180 L156 -180 L156 661 L59 661 L59 690 L664 690 L664 661 L566 661 L566 -180 L533 -180 Z " />
<glyph glyph-name="summation" unicode="&#x2211;" horiz-adv-x="586" d="M529 -151 L529 -180 L40 -180 L40 -151 L332 276 L42 661 L42 690 L522 690 L522 661 L80 661 L370 276 L77 -151 L529 -151 Z " />
<glyph glyph-name="minus" unicode="&#x2212;" horiz-adv-x="482" d="M65 341 L416 341 L416 313 L65 313 L65 341 Z " />
<glyph glyph-name="uni2215" unicode="&#x2215;" horiz-adv-x="81" d="M-257 5 L319 701 L339 686 L-238 -12 L-257 5 Z " />
<glyph glyph-name="radical" unicode="&#x221a;" horiz-adv-x="531" d="M489 687 L247 -6 L208 -6 L57 344 L83 356 L227 17 L459 690 L489 687 Z " />
<glyph glyph-name="infinity" unicode="&#x221e;" horiz-adv-x="746" d="M216 143 Q183 143 152 155 Q121 167 97 192 Q73 217 59 255 Q45 293 45 345 Q45 395 58.5 433 Q72 471 95.5 496.5 Q119 522 149 534.5 Q179 547 212 547 Q271 547 314 514.5 Q357 482 373 416 Q390 481 432.5 514 Q475 547 531 547 Q566 547 597 535 Q628 523 651 498 Q674 473 687.5 435 Q701 397 701 345 Q701 295 688 257 Q675 219 652 193.5 Q629 168 598.5 155.5 Q568 143 533 143 Q477 143 433.5 174.5 Q390 206 373 271 Q357 208 315 175.5 Q273 143 216 143 Z M532 176 Q560 176 585 186 Q610 196 629.5 217 Q649 238 660.5 270 Q672 302 672 345 Q672 389 660.5 421 Q649 453 629.5 473.5 Q610 494 584 504 Q558 514 529 514 Q502 514 477 504 Q452 494 432 473 Q412 452 400 420 Q388 388 388 345 Q388 300 400 268 Q412 236 432.5 215.5 Q453 195 479 185.5 Q505 176 532 176 Z M218 176 Q246 176 271 186 Q296 196 315.5 217 Q335 238 346.5 269.5 Q358 301 358 345 Q358 389 346.5 421 Q335 453 315.5 473.5 Q296 494 270 504 Q244 514 214 514 Q188 514 163 504 Q138 494 118.5 473 Q99 452 87 420 Q75 388 75 345 Q75 301 87 269 Q99 237 119 216.5 Q139 196 165 186 Q191 176 218 176 Z " />
<glyph glyph-name="integral" unicode="&#x222b;" horiz-adv-x="412" d="M45 -184 L86 -184 Q115 -184 135 -179 Q155 -174 167 -161 Q179 -148 184.5 -127.5 Q190 -107 190 -75 L190 573 Q190 642 217.5 674 Q245 706 320 706 L367 706 L367 680 L326 680 Q296 680 276 675 Q256 670 244 657 Q232 644 227 623 Q222 602 222 571 L222 -77 Q222 -146 194 -178 Q166 -210 91 -210 L45 -210 L45 -184 Z " />
<glyph glyph-name="approxequal" unicode="&#x2248;" horiz-adv-x="482" d="M65 240 Q86 262 107 270 Q128 278 148 278 Q171 278 194.5 269.5 Q218 261 241 251 Q264 241 287.5 232 Q311 223 335 223 Q355 223 375.5 230.5 Q396 238 416 258 L416 229 Q396 209 375.5 202 Q355 195 335 195 Q311 195 287.5 203.5 Q264 212 241 222 Q218 232 194.5 240.5 Q171 249 148 249 Q128 249 107 240.5 Q86 232 65 210 L65 240 Z M65 432 Q86 454 107 462 Q128 470 148 470 Q171 470 194.5 461.5 Q218 453 241 443 Q264 433 287.5 424 Q311 415 335 415 Q355 415 375.5 422.5 Q396 430 416 450 L416 421 Q396 401 375.5 394 Q355 387 335 387 Q311 387 287.5 395.5 Q264 404 241 414 Q218 424 194.5 432.5 Q171 441 148 441 Q128 441 107 432.5 Q86 424 65 402 L65 432 Z " />
<glyph glyph-name="notequal" unicode="&#x2260;" horiz-adv-x="482" d="M65 441 L285 441 L334 524 L356 512 L314 441 L416 441 L416 413 L298 413 L197 241 L416 241 L416 213 L180 213 L127 122 L106 134 L152 213 L65 213 L65 241 L168 241 L269 413 L65 413 L65 441 Z " />
<glyph glyph-name="lessequal" unicode="&#x2264;" horiz-adv-x="482" d="M56 350 L407 522 L407 491 L85 336 L407 182 L407 151 L56 322 L56 350 Z M56 46 L407 46 L407 18 L56 18 L56 46 Z " />
<glyph glyph-name="greaterequal" unicode="&#x2265;" horiz-adv-x="482" d="M426 322 L75 151 L75 182 L397 336 L75 491 L75 522 L426 350 L426 322 Z M75 46 L426 46 L426 18 L75 18 L75 46 Z " />
<glyph glyph-name="lozenge" unicode="&#x25ca;" horiz-adv-x="494" d="M447 336 L263 -6 L232 -6 L47 336 L47 349 L232 690 L263 690 L447 349 L447 336 Z M248 21 L420 343 L248 664 L74 343 L248 21 Z " />
<glyph glyph-name="heart" unicode="&#x2665;" horiz-adv-x="616" d="M312 435 Q328 464 353.5 482 Q379 500 410 500 Q453 500 481 470.5 Q509 441 509 395 Q509 365 495.5 330 Q482 295 456.5 260 Q431 225 393.5 192.5 Q356 160 308 135 Q260 160 222.5 192.5 Q185 225 159.5 260 Q134 295 120.5 330 Q107 365 107 395 Q107 441 135 470.5 Q163 500 206 500 Q237 500 262.5 482 Q288 464 304 435 L312 435 Z " />
<glyph glyph-name="i.dot" unicode="&#xe166;" horiz-adv-x="230" d="M116 605 Q91 605 91 631 Q91 657 116 657 Q143 657 143 631 Q143 605 116 605 Z M99 0 L99 481 L131 481 L131 0 L99 0 Z " />
<glyph glyph-name="commaaccent" unicode="&#xf6c3;" horiz-adv-x="529" d="M233 -60 L267 -60 L238 -209 L211 -208 L233 -60 Z " />
<glyph glyph-name="fi" unicode="&#xfb01;" horiz-adv-x="555" d="M116 0 L116 454 L39 454 L39 481 L116 481 L116 607 Q116 641 122.5 666.5 Q129 692 144 708 Q159 724 184 732 Q209 740 246 740 L289 740 L289 713 L253 713 Q194 713 171 690 Q148 667 148 605 L148 481 L456 481 L456 0 L424 0 L424 454 L148 454 L148 0 L116 0 Z M441 607 Q417 607 417 631 Q417 656 441 656 Q466 656 466 631 Q466 607 441 607 Z " />
<glyph glyph-name="fl" unicode="&#xfb02;" horiz-adv-x="555" d="M424 0 L424 713 L252 713 Q193 713 170.5 689.5 Q148 666 148 605 L148 481 L274 481 L274 454 L148 454 L148 0 L116 0 L116 454 L39 454 L39 481 L116 481 L116 607 Q116 641 122.5 666.5 Q129 692 144 708 Q159 724 184 732 Q209 740 246 740 L456 740 L456 0 L424 0 Z " />
</font>
</svg>
