<?xml version="1.0" encoding="UTF-8"?>
<svg xmlns="http://www.w3.org/2000/svg" xmlns:xlink="http://www.w3.org/1999/xlink" version="1.2" >
<font id="LeanOSans FY Black">
<font-face  font-family="LeanOSans FY" units-per-em="1000" ascent="740" descent="-250" font-style="normal" font-weight="900" font-stretch="normal" cap-height="690" x-height="521" underline-position="-75" underline-thickness="50" />
<missing-glyph  horiz-adv-x="602" d="M305 435 Q321 464 346.5 482 Q372 500 403 500 Q446 500 474 470.5 Q502 441 502 395 Q502 365 488.5 330 Q475 295 449.5 260 Q424 225 386.5 192.5 Q349 160 301 135 Q253 160 215.5 192.5 Q178 225 152.5 260 Q127 295 113.5 330 Q100 365 100 395 Q100 441 128 470.5 Q156 500 199 500 Q230 500 255.5 482 Q281 464 297 435 L305 435 Z " />
<glyph glyph-name=".null" d="" />
<glyph glyph-name="&amp;#x0;" d="" />
<glyph glyph-name="&amp;#xd;" unicode="&#xd;" d="" />
<glyph glyph-name="space" unicode="&#x20;" horiz-adv-x="200" d="" />
<glyph glyph-name="exclam" unicode="&#x21;" horiz-adv-x="382" d="M121 232 L109 690 L274 690 L262 232 L121 232 Z M91 78 Q91 123 118.5 150.5 Q146 178 191 178 Q236 178 263.5 150.5 Q291 123 291 78 Q291 33 263.5 5.5 Q236 -22 191 -22 Q146 -22 118.5 5.5 Q91 33 91 78 Z " />
<glyph glyph-name="quotedbl" unicode="&#x22;" horiz-adv-x="432" d="M241 451 L241 690 L382 690 L382 451 L241 451 Z M50 451 L50 690 L191 690 L191 451 L50 451 Z " />
<glyph glyph-name="numbersign" unicode="&#x23;" horiz-adv-x="776" d="M134 545 L256 545 L317 690 L474 690 L413 545 L530 545 L591 690 L748 690 L687 545 L762 545 L762 432 L639 432 L566 258 L642 258 L642 145 L519 145 L458 0 L301 0 L362 145 L245 145 L184 0 L27 0 L88 145 L14 145 L14 258 L135 258 L208 432 L134 432 L134 545 Z M292 258 L409 258 L482 432 L365 432 L292 258 Z " />
<glyph glyph-name="dollar" unicode="&#x24;" horiz-adv-x="554" d="M206 -3 Q163 5 131.5 23 Q100 41 77.5 66.5 Q55 92 40.5 124 Q26 156 18 192 L183 241 Q187 224 194 206.5 Q201 189 212 174.5 Q223 160 240 151 Q257 142 280 142 Q289 142 300.5 144 Q312 146 322.5 152 Q333 158 340 169 Q347 180 347 199 Q347 230 314 247.5 Q281 265 227 282 Q199 290 168 305.5 Q137 321 111 346 Q85 371 68 406.5 Q51 442 51 490 Q51 524 60.5 555.5 Q70 587 89 613.5 Q108 640 137 660 Q166 680 206 690 L206 798 L363 798 L363 690 Q432 671 473.5 618.5 Q515 566 513 484 L341 463 Q336 510 318.5 529.5 Q301 549 272 549 Q252 549 240 535.5 Q228 522 228 500 Q228 483 236.5 471 Q245 459 259 449 Q273 439 291.5 431 Q310 423 330 416 Q380 398 416.5 377.5 Q453 357 477 332.5 Q501 308 512.5 277.5 Q524 247 524 209 Q524 168 511.5 134.5 Q499 101 477.5 75 Q456 49 426.5 30.5 Q397 12 363 2 L363 -105 L206 -105 L206 -3 Z " />
<glyph glyph-name="percent" unicode="&#x25;" horiz-adv-x="848" d="M116 54 L645 712 L732 639 L204 -22 L116 54 Z M212 452 Q229 452 238.5 468 Q248 484 248 522 Q248 559 238.5 575 Q229 591 212 591 Q195 591 185 575 Q175 559 175 521 Q175 484 184.5 468 Q194 452 212 452 Z M212 331 Q134 331 87 378 Q40 425 40 519 Q40 570 55 607 Q70 644 94 667 Q118 690 149 701 Q180 712 212 712 Q290 712 337 665 Q384 618 384 524 Q384 473 369 436 Q354 399 330 376 Q306 353 275 342 Q244 331 212 331 Z M636 99 Q653 99 662.5 115 Q672 131 672 169 Q672 206 662.5 222 Q653 238 636 238 Q619 238 609.5 222 Q600 206 600 168 Q600 131 609.5 115 Q619 99 636 99 Z M636 -22 Q558 -22 511 25 Q464 72 464 166 Q464 217 479 254 Q494 291 518 314 Q542 337 573 348 Q604 359 636 359 Q714 359 761 312 Q808 265 808 171 Q808 120 793 83 Q778 46 754 23 Q730 0 699 -11 Q668 -22 636 -22 Z " />
<glyph glyph-name="ampersand" unicode="&#x26;" horiz-adv-x="636" d="M307 -22 Q240 -22 190 -3.5 Q140 15 106.5 47 Q73 79 56.5 120.5 Q40 162 40 209 Q40 327 147 391 Q110 417 95 452.5 Q80 488 80 526 Q80 563 93 597 Q106 631 133 656.5 Q160 682 202 697 Q244 712 303 712 Q351 712 386.5 699 Q422 686 446.5 664 Q471 642 485.5 614 Q500 586 506 556 L357 536 Q351 552 337 562.5 Q323 573 297 573 Q268 573 255.5 557.5 Q243 542 243 522 Q243 496 261 478 Q279 460 311 452 L311 338 Q269 315 244.5 286.5 Q220 258 220 213 Q220 195 225.5 177.5 Q231 160 242.5 147 Q254 134 272 126 Q290 118 316 118 Q358 118 380 139.5 Q402 161 402 187 Q402 204 394 218.5 Q386 233 371 238 L361 338 Q400 347 423 356 Q446 365 459 373 Q472 381 476 388 Q480 395 480 402 Q480 410 474.5 415 Q469 420 461 424 L521 521 Q536 518 552.5 509 Q569 500 582.5 486 Q596 472 605 451 Q614 430 614 403 Q614 360 589 327.5 Q564 295 519 281 Q544 259 553 235 Q562 211 562 182 Q562 138 544 100.5 Q526 63 493 36 Q460 9 413 -6.5 Q366 -22 307 -22 Z " />
<glyph glyph-name="quotesingle" unicode="&#x27;" horiz-adv-x="241" d="M50 451 L50 690 L191 690 L191 451 L50 451 Z " />
<glyph glyph-name="parenleft" unicode="&#x28;" horiz-adv-x="402" d="M204 232 Q204 170 215 118 Q226 66 249 18 Q272 -30 308 -77 Q344 -124 394 -176 L310 -275 Q174 -167 104 -44 Q34 79 34 232 Q34 385 104 508.5 Q174 632 310 740 L394 641 Q344 589 308 542 Q272 495 249 447 Q226 399 215 346.5 Q204 294 204 232 Z " />
<glyph glyph-name="parenright" unicode="&#x29;" horiz-adv-x="402" d="M198 233 Q198 295 187 347 Q176 399 153 447 Q130 495 94 542 Q58 589 8 641 L92 740 Q228 632 298 509 Q368 386 368 233 Q368 80 298 -43.5 Q228 -167 92 -275 L8 -176 Q58 -124 94 -77 Q130 -30 153 18 Q176 66 187 118.5 Q198 171 198 233 Z " />
<glyph glyph-name="asterisk" unicode="&#x2a;" horiz-adv-x="295" d="M169 641 L255 691 L281 610 L181 601 L255 535 L186 485 L146 578 L107 486 L38 536 L114 602 L14 612 L41 694 L127 641 L106 740 L191 740 L169 641 Z " />
<glyph glyph-name="plus" unicode="&#x2b;" horiz-adv-x="482" d="M34 394 L169 394 L169 532 L313 532 L313 394 L448 394 L448 261 L313 261 L313 122 L169 122 L169 261 L34 261 L34 394 Z " />
<glyph glyph-name="comma" unicode="&#x2c;" horiz-adv-x="281" d="M67 162 L233 162 L181 -130 L48 -129 L67 162 Z " />
<glyph glyph-name="hyphen" unicode="&#x2d;" horiz-adv-x="431" d="M78 204 L78 324 L353 324 L353 204 L78 204 Z " />
<glyph glyph-name="period" unicode="&#x2e;" horiz-adv-x="286" d="M43 78 Q43 123 70.5 150.5 Q98 178 143 178 Q188 178 215.5 150.5 Q243 123 243 78 Q243 33 215.5 5.5 Q188 -22 143 -22 Q98 -22 70.5 5.5 Q43 33 43 78 Z " />
<glyph glyph-name="slash" unicode="&#x2f;" horiz-adv-x="479" d="M0 0 L310 740 L479 740 L169 0 L0 0 Z " />
<glyph glyph-name="zero" unicode="0" horiz-adv-x="591" d="M296 -10 Q166 -10 95 78 Q24 166 24 345 Q24 436 46 503 Q68 570 105.5 613.5 Q143 657 191.5 678.5 Q240 700 294 700 Q424 700 495.5 611.5 Q567 523 567 345 Q567 254 545 187 Q523 120 485.5 76.5 Q448 33 399 11.5 Q350 -10 296 -10 Z M296 149 Q317 149 334 158 Q351 167 362.5 189.5 Q374 212 380 249.5 Q386 287 386 344 Q386 403 379 441.5 Q372 480 359.5 502.5 Q347 525 330 534 Q313 543 294 543 Q273 543 256.5 533.5 Q240 524 228.5 501 Q217 478 211 440.5 Q205 403 205 346 Q205 287 212 249 Q219 211 231.5 188.5 Q244 166 260.5 157.5 Q277 149 296 149 Z " />
<glyph glyph-name="one" unicode="1" horiz-adv-x="422" d="M182 0 L182 489 L94 419 L8 539 L205 690 L357 690 L357 0 L182 0 Z " />
<glyph glyph-name="two" unicode="2" horiz-adv-x="552" d="M526 508 Q526 475 517.5 444 Q509 413 486.5 381.5 Q464 350 424.5 317.5 Q385 285 322 249 Q262 217 238 191 Q214 165 212 141 L531 141 L531 0 L31 0 L31 86 Q31 132 40 168 Q49 204 71 235.5 Q93 267 129 296 Q165 325 218 357 Q261 383 286.5 402.5 Q312 422 325 437.5 Q338 453 341.5 466 Q345 479 345 492 Q345 520 327.5 531.5 Q310 543 287 543 Q273 543 260 539.5 Q247 536 235 527 Q223 518 213.5 502 Q204 486 197 460 L39 479 Q43 527 61 567.5 Q79 608 110.5 637.5 Q142 667 187 683.5 Q232 700 291 700 Q346 700 389.5 685 Q433 670 463.5 644.5 Q494 619 510 583.5 Q526 548 526 508 Z " />
<glyph glyph-name="three" unicode="3" horiz-adv-x="545" d="M220 406 Q251 405 272 411 Q293 417 306 427.5 Q319 438 324 452.5 Q329 467 329 483 Q329 501 323.5 512.5 Q318 524 309 531 Q300 538 289.5 540.5 Q279 543 269 543 Q255 543 241.5 539.5 Q228 536 216 526.5 Q204 517 195 500.5 Q186 484 181 459 L15 498 Q21 542 42 579 Q63 616 97 643 Q131 670 176 685 Q221 700 276 700 Q325 700 368 687 Q411 674 442.5 649.5 Q474 625 492 589.5 Q510 554 510 509 Q510 467 488.5 430.5 Q467 394 430 365 Q478 342 505.5 304 Q533 266 533 208 Q533 152 510 111 Q487 70 449.5 43 Q412 16 364 3 Q316 -10 265 -10 Q215 -10 169.5 3 Q124 16 89 42.5 Q54 69 31.5 109 Q9 149 4 203 L174 247 Q177 228 183.5 210 Q190 192 201.5 178 Q213 164 229.5 155.5 Q246 147 269 147 Q304 147 328 162.5 Q352 178 352 211 Q352 230 346.5 244 Q341 258 326.5 267.5 Q312 277 286.5 281.5 Q261 286 221 286 L220 406 Z " />
<glyph glyph-name="four" unicode="4" horiz-adv-x="601" d="M28 249 L329 688 L487 688 L487 260 L564 260 L564 119 L487 119 L487 0 L318 0 L318 119 L28 119 L28 249 Z M199 260 L318 260 L318 434 L199 260 Z " />
<glyph glyph-name="five" unicode="5" horiz-adv-x="541" d="M264 -10 Q212 -10 168 0 Q124 10 90.5 32 Q57 54 34 90 Q11 126 2 179 L172 223 Q180 191 203 169 Q226 147 263 147 Q299 147 324.5 163.5 Q350 180 350 225 Q350 270 324 289.5 Q298 309 260 309 Q233 309 217.5 301 Q202 293 187 280 L50 316 L50 690 L496 690 L496 549 L219 549 L219 455 Q251 463 281 463 Q339 463 385.5 446.5 Q432 430 464 400 Q496 370 513.5 327 Q531 284 531 231 Q531 168 508 122.5 Q485 77 447.5 47.5 Q410 18 362 4 Q314 -10 264 -10 Z " />
<glyph glyph-name="six" unicode="6" horiz-adv-x="571" d="M293 -10 Q244 -10 196 7.5 Q148 25 109.5 66 Q71 107 47.5 174.5 Q24 242 24 342 Q24 432 46 499 Q68 566 107 610.5 Q146 655 200 677.5 Q254 700 318 700 Q413 700 471 658 Q529 616 553 547 L400 487 Q387 514 362 528.5 Q337 543 307 543 Q275 543 254 529 Q233 515 220 493.5 Q207 472 200.5 446 Q194 420 193 397 Q217 420 255 434 Q293 448 337 448 Q388 448 428.5 430.5 Q469 413 497.5 383 Q526 353 541.5 314 Q557 275 557 232 Q557 178 539 133 Q521 88 487 56.5 Q453 25 404 7.5 Q355 -10 293 -10 Z M300 141 Q334 141 355 162.5 Q376 184 376 219 Q376 252 354 271.5 Q332 291 300 291 Q271 291 248.5 272.5 Q226 254 226 219 Q226 186 247 163.5 Q268 141 300 141 Z " />
<glyph glyph-name="seven" unicode="7" horiz-adv-x="535" d="M82 0 L334 549 L23 549 L23 690 L515 690 L515 558 L268 0 L82 0 Z " />
<glyph glyph-name="eight" unicode="8" horiz-adv-x="587" d="M290 -10 Q224 -10 175 6.5 Q126 23 93.5 52.5 Q61 82 44.5 121.5 Q28 161 28 206 Q28 272 54 313 Q80 354 120 377 Q91 397 74 429 Q57 461 57 508 Q57 549 73 584.5 Q89 620 119.5 645.5 Q150 671 193.5 685.5 Q237 700 291 700 Q347 700 391.5 686.5 Q436 673 466.5 649 Q497 625 513.5 590.5 Q530 556 530 514 Q530 466 511.5 432.5 Q493 399 462 378 Q507 352 533 311 Q559 270 559 210 Q559 159 539.5 118 Q520 77 484.5 48.5 Q449 20 399.5 5 Q350 -10 290 -10 Z M291 142 Q325 142 351.5 161 Q378 180 378 223 Q378 255 356.5 279.5 Q335 304 295 304 Q258 304 233.5 282.5 Q209 261 209 219 Q209 181 233.5 161.5 Q258 142 291 142 Z M293 427 Q323 427 340.5 444 Q358 461 358 493 Q358 521 340.5 538 Q323 555 294 555 Q265 555 247 538 Q229 521 229 492 Q229 463 246 445 Q263 427 293 427 Z " />
<glyph glyph-name="nine" unicode="9" horiz-adv-x="574" d="M255 -10 Q207 -10 169 1.5 Q131 13 101.5 34 Q72 55 52 84 Q32 113 21 147 L175 207 Q186 180 209.5 160.5 Q233 141 267 141 Q298 141 319 155.5 Q340 170 352.5 191.5 Q365 213 371 237 Q377 261 379 279 L379 280 Q356 256 317.5 247 Q279 238 241 238 Q188 238 145.5 256 Q103 274 74 304 Q45 334 29.5 373.5 Q14 413 14 456 Q14 510 32 555 Q50 600 84.5 632.5 Q119 665 168 682.5 Q217 700 280 700 Q329 700 377.5 682.5 Q426 665 464.5 623.5 Q503 582 527 514 Q551 446 551 345 Q551 257 529 190.5 Q507 124 467.5 79.5 Q428 35 373.5 12.5 Q319 -10 255 -10 Z M272 395 Q306 395 327.5 414.5 Q349 434 349 469 Q349 504 327 526.5 Q305 549 273 549 Q238 549 216 526.5 Q194 504 194 469 Q194 435 215.5 415 Q237 395 272 395 Z " />
<glyph glyph-name="colon" unicode="&#x3a;" horiz-adv-x="286" d="M43 431 Q43 476 70.5 503.5 Q98 531 143 531 Q188 531 215.5 503.5 Q243 476 243 431 Q243 386 215.5 358.5 Q188 331 143 331 Q98 331 70.5 358.5 Q43 386 43 431 Z M43 78 Q43 123 70.5 150.5 Q98 178 143 178 Q188 178 215.5 150.5 Q243 123 243 78 Q243 33 215.5 5.5 Q188 -22 143 -22 Q98 -22 70.5 5.5 Q43 33 43 78 Z " />
<glyph glyph-name="semicolon" unicode="&#x3b;" horiz-adv-x="296" d="M67 162 L233 162 L181 -130 L48 -129 L67 162 Z M53 431 Q53 476 80.5 503.5 Q108 531 153 531 Q198 531 225.5 503.5 Q253 476 253 431 Q253 386 225.5 358.5 Q198 331 153 331 Q108 331 80.5 358.5 Q53 386 53 431 Z " />
<glyph glyph-name="less" unicode="&#x3c;" horiz-adv-x="482" d="M34 406 L448 588 L448 431 L208 339 L448 248 L448 91 L34 273 L34 406 Z " />
<glyph glyph-name="equal" unicode="&#x3d;" horiz-adv-x="482" d="M34 294 L448 294 L448 161 L34 161 L34 294 Z M34 494 L448 494 L448 361 L34 361 L34 494 Z " />
<glyph glyph-name="greater" unicode="&#x3e;" horiz-adv-x="482" d="M448 273 L34 91 L34 248 L274 339 L34 431 L34 588 L448 406 L448 273 Z " />
<glyph glyph-name="question" unicode="&#x3f;" horiz-adv-x="494" d="M136 232 Q136 273 139.5 301.5 Q143 330 154.5 352.5 Q166 375 186.5 395.5 Q207 416 241 441 Q270 464 281.5 478.5 Q293 493 293 508 Q293 531 277.5 540 Q262 549 239 549 Q204 549 185 531.5 Q166 514 158 478 L7 518 Q11 555 28 588.5 Q45 622 75.5 646.5 Q106 671 150.5 685.5 Q195 700 254 700 Q310 700 351 687 Q392 674 418.5 651 Q445 628 458 596.5 Q471 565 471 528 Q471 494 461.5 467.5 Q452 441 435.5 419.5 Q419 398 397 380.5 Q375 363 350 347 Q332 335 318.5 324 Q305 313 297 300 Q289 287 285 271 Q281 255 281 232 L136 232 Z M114 78 Q114 123 141.5 150.5 Q169 178 214 178 Q259 178 286.5 150.5 Q314 123 314 78 Q314 33 286.5 5.5 Q259 -22 214 -22 Q169 -22 141.5 5.5 Q114 33 114 78 Z " />
<glyph glyph-name="at" unicode="&#x40;" horiz-adv-x="933" d="M418 -10 Q388 -10 362.5 -1 Q337 8 318 25.5 Q299 43 288 69 Q277 95 277 128 Q277 200 330.5 235 Q384 270 484 270 L509 270 L509 273 Q509 301 499 318.5 Q489 336 453 336 Q423 336 396.5 322 Q370 308 348 282 L270 397 Q305 435 357 453.5 Q409 472 470 472 Q523 472 559.5 458.5 Q596 445 618.5 421.5 Q641 398 651 367.5 Q661 337 661 303 L661 168 Q661 139 673 123.5 Q685 108 703 108 Q712 108 720.5 113 Q729 118 736 131 Q743 144 747.5 167.5 Q752 191 752 229 Q752 388 679 462.5 Q606 537 476 537 Q411 537 357.5 517 Q304 497 265.5 457 Q227 417 205.5 358 Q184 299 184 220 Q184 141 207 82 Q230 23 272 -16 Q314 -55 371.5 -74.5 Q429 -94 498 -94 L498 -221 Q400 -221 317.5 -191.5 Q235 -162 174 -106 Q113 -50 79 31 Q45 112 45 214 Q45 310 74.5 392.5 Q104 475 160 535 Q216 595 295.5 629.5 Q375 664 476 664 Q558 664 632.5 640 Q707 616 764 566 Q821 516 854.5 437.5 Q888 359 888 250 Q888 182 872.5 133 Q857 84 829.5 52 Q802 20 764 5 Q726 -10 681 -10 Q626 -10 590.5 9.5 Q555 29 535 57 Q515 22 485.5 6 Q456 -10 418 -10 Z M467 105 Q477 105 488 111 Q499 117 509 137 L509 174 L478 174 Q458 174 445.5 167 Q433 160 433 141 Q433 124 442 114.5 Q451 105 467 105 Z " />
<glyph glyph-name="A" unicode="A" horiz-adv-x="716" d="M12 0 L284 690 L434 690 L704 0 L512 0 L475 111 L227 111 L188 0 L12 0 Z M277 252 L427 252 L354 470 L277 252 Z " />
<glyph glyph-name="B" unicode="B" horiz-adv-x="615" d="M70 0 L70 690 L296 690 Q361 690 408 675 Q455 660 485 633.5 Q515 607 529.5 571 Q544 535 544 494 Q544 449 522.5 413 Q501 377 465 360 Q516 344 549 305.5 Q582 267 582 212 Q582 164 566 125 Q550 86 517.5 58.5 Q485 31 435.5 15.5 Q386 0 319 0 L70 0 Z M245 280 L245 141 L311 141 Q349 141 375.5 157 Q402 173 402 212 Q402 250 373 265 Q344 280 302 280 L245 280 Z M245 409 L278 409 Q316 409 340 425 Q364 441 364 481 Q364 521 340 535 Q316 549 278 549 L245 549 L245 409 Z " />
<glyph glyph-name="C" unicode="C" horiz-adv-x="652" d="M362 -10 Q288 -10 228.5 15 Q169 40 127 86 Q85 132 62.5 197.5 Q40 263 40 344 Q40 426 64.5 492 Q89 558 132 604.5 Q175 651 234 675.5 Q293 700 362 700 Q422 700 466 685.5 Q510 671 541.5 646.5 Q573 622 594 590.5 Q615 559 630 525 L463 462 Q448 497 423 520 Q398 543 354 543 Q289 543 255 489 Q221 435 221 345 Q221 147 367 147 Q411 147 444.5 170 Q478 193 503 230 L632 133 Q589 67 521.5 28.5 Q454 -10 362 -10 Z " />
<glyph glyph-name="D" unicode="D" horiz-adv-x="706" d="M70 0 L70 690 L306 690 Q390 690 456.5 666.5 Q523 643 569.5 599 Q616 555 641 491 Q666 427 666 345 Q666 272 639.5 209 Q613 146 564.5 99.5 Q516 53 446 26.5 Q376 0 289 0 L70 0 Z M286 141 Q340 141 377.5 157.5 Q415 174 439 202 Q463 230 474 267 Q485 304 485 345 Q485 391 475 428.5 Q465 466 443.5 492 Q422 518 388 532 Q354 546 305 546 L245 546 L245 141 L286 141 Z " />
<glyph glyph-name="E" unicode="E" horiz-adv-x="565" d="M70 0 L70 690 L519 690 L519 549 L245 549 L245 428 L434 428 L434 286 L245 286 L245 141 L525 141 L525 0 L70 0 Z " />
<glyph glyph-name="F" unicode="F" horiz-adv-x="554" d="M70 0 L70 690 L519 690 L519 549 L245 549 L245 371 L456 371 L456 230 L245 230 L245 0 L70 0 Z " />
<glyph glyph-name="G" unicode="G" horiz-adv-x="726" d="M365 543 Q294 543 257.5 489 Q221 435 221 345 Q221 245 259 193 Q297 141 374 141 Q431 141 466.5 165.5 Q502 190 513 251 L410 251 L410 395 L686 395 L686 323 Q686 252 666 191.5 Q646 131 607 86 Q568 41 510.5 15.5 Q453 -10 378 -10 Q300 -10 237.5 15 Q175 40 131 86 Q87 132 63.5 197.5 Q40 263 40 344 Q40 421 65 486.5 Q90 552 134.5 599.5 Q179 647 239.5 673.5 Q300 700 372 700 Q428 700 471 688 Q514 676 547 654 Q580 632 604.5 602.5 Q629 573 647 537 L485 462 Q468 498 438 520.5 Q408 543 365 543 Z " />
<glyph glyph-name="H" unicode="H" horiz-adv-x="733" d="M70 0 L70 690 L245 690 L245 416 L488 416 L488 690 L663 690 L663 0 L488 0 L488 275 L245 275 L245 0 L70 0 Z " />
<glyph glyph-name="I" unicode="I" horiz-adv-x="315" d="M70 0 L70 690 L245 690 L245 0 L70 0 Z " />
<glyph glyph-name="J" unicode="J" horiz-adv-x="320" d="M250 4 Q250 -64 231.5 -110.5 Q213 -157 180 -185.5 Q147 -214 101.5 -227 Q56 -240 3 -240 L-24 -240 L-25 -98 L-13 -98 Q40 -98 57.5 -65 Q75 -32 75 34 L75 690 L250 690 L250 4 Z " />
<glyph glyph-name="K" unicode="K" horiz-adv-x="658" d="M70 0 L70 690 L245 690 L245 424 L272 424 Q308 424 334.5 434.5 Q361 445 378 463.5 Q395 482 403.5 506.5 Q412 531 412 558 Q412 591 403 612 Q394 633 382 655 L540 724 Q560 701 573.5 659 Q587 617 587 573 Q587 514 559 458 Q531 402 469 361 Q526 329 558 265.5 Q590 202 607 97 Q612 68 616.5 43 Q621 18 628 0 L449 0 Q446 18 443 36 Q440 54 435 83 Q423 147 409.5 186 Q396 225 378.5 246.5 Q361 268 338 275 Q315 282 284 282 L245 282 L245 0 L70 0 Z " />
<glyph glyph-name="L" unicode="L" horiz-adv-x="550" d="M515 141 L515 0 L70 0 L70 690 L245 690 L245 141 L515 141 Z " />
<glyph glyph-name="M" unicode="M" horiz-adv-x="828" d="M70 0 L70 690 L233 690 L416 376 L583 690 L758 690 L758 0 L583 0 L583 398 L462 175 L362 175 L233 399 L233 0 L70 0 Z " />
<glyph glyph-name="N" unicode="N" horiz-adv-x="718" d="M233 406 L233 0 L70 0 L70 690 L233 690 L485 284 L485 690 L648 690 L648 0 L485 0 L233 406 Z " />
<glyph glyph-name="O" unicode="O" horiz-adv-x="750" d="M376 -10 Q299 -10 237 15 Q175 40 131 86 Q87 132 63.5 197.5 Q40 263 40 345 Q40 423 65.5 488 Q91 553 135.5 600 Q180 647 241 673.5 Q302 700 374 700 Q451 700 513 675 Q575 650 619 604 Q663 558 686.5 492.5 Q710 427 710 345 Q710 267 684.5 202 Q659 137 614.5 90 Q570 43 509 16.5 Q448 -10 376 -10 Z M376 147 Q453 147 491 200 Q529 253 529 344 Q529 543 374 543 Q297 543 259 490 Q221 437 221 346 Q221 147 376 147 Z " />
<glyph glyph-name="P" unicode="P" horiz-adv-x="594" d="M554 452 Q554 324 474.5 260 Q395 196 245 196 L245 0 L70 0 L70 690 L261 690 Q339 690 394.5 672 Q450 654 485.5 622.5 Q521 591 537.5 547 Q554 503 554 452 Z M245 346 Q305 346 339 374.5 Q373 403 373 450 Q373 503 338.5 526 Q304 549 245 549 L245 346 Z " />
<glyph glyph-name="Q" unicode="Q" horiz-adv-x="751" d="M376 -10 Q299 -10 237 15 Q175 40 131 86 Q87 132 63.5 197.5 Q40 263 40 345 Q40 423 65.5 488 Q91 553 135.5 600 Q180 647 241 673.5 Q302 700 374 700 Q451 700 513 675 Q575 650 619 604 Q663 558 686.5 492.5 Q710 427 710 345 Q710 277 691 219 Q672 161 637 116 L728 -17 L601 -100 L518 20 Q453 -10 376 -10 Z M376 147 Q453 147 491 200 Q529 253 529 344 Q529 543 374 543 Q297 543 259 490 Q221 437 221 346 Q221 147 376 147 Z " />
<glyph glyph-name="R" unicode="R" horiz-adv-x="611" d="M70 0 L70 690 L270 690 Q342 690 394 673.5 Q446 657 480 628.5 Q514 600 530 561 Q546 522 546 476 Q546 419 522.5 382.5 Q499 346 459 323 Q500 297 526 244.5 Q552 192 567 103 Q572 75 577.5 49 Q583 23 591 0 L412 0 Q409 11 405.5 32 Q402 53 395 85 Q385 130 375.5 159.5 Q366 189 353 207 Q340 225 323.5 232 Q307 239 284 239 L245 239 L245 0 L70 0 Z M245 381 L282 381 Q314 381 339.5 402.5 Q365 424 365 466 Q365 491 356.5 507 Q348 523 332.5 532 Q317 541 294.5 545 Q272 549 245 549 L245 381 Z " />
<glyph glyph-name="S" unicode="S" horiz-adv-x="555" d="M288 700 Q338 700 380.5 685.5 Q423 671 454 643.5 Q485 616 501.5 576 Q518 536 517 484 L345 463 Q340 510 321.5 529.5 Q303 549 274 549 Q253 549 240.5 535.5 Q228 522 228 500 Q228 483 236.5 470.5 Q245 458 259.5 448.5 Q274 439 292.5 430.5 Q311 422 332 415 Q383 396 420 376 Q457 356 481 331.5 Q505 307 516.5 277 Q528 247 528 209 Q528 156 507.5 115 Q487 74 452 46.5 Q417 19 371.5 4.5 Q326 -10 277 -10 Q215 -10 171 5.5 Q127 21 96 48.5 Q65 76 46.5 113 Q28 150 18 192 L183 241 Q187 224 194 206.5 Q201 189 212.5 174.5 Q224 160 241 151 Q258 142 282 142 Q291 142 303 144 Q315 146 325.5 152 Q336 158 343.5 169 Q351 180 351 199 Q351 230 317.5 247 Q284 264 229 281 Q200 289 169 304.5 Q138 320 111.5 345 Q85 370 68 404.5 Q51 439 51 485 Q51 528 65 567.5 Q79 607 108.5 636 Q138 665 182.5 682.5 Q227 700 288 700 Z " />
<glyph glyph-name="T" unicode="T" horiz-adv-x="573" d="M199 0 L199 549 L25 549 L25 690 L548 690 L548 549 L374 549 L374 0 L199 0 Z " />
<glyph glyph-name="U" unicode="U" horiz-adv-x="681" d="M338 -10 Q277 -10 226.5 6 Q176 22 140 54 Q104 86 84.5 134.5 Q65 183 65 249 L65 690 L240 691 L240 238 Q240 191 268 166.5 Q296 142 342 142 Q360 142 377.5 147 Q395 152 409.5 163.5 Q424 175 432.5 192.5 Q441 210 441 235 L441 690 L616 690 L616 253 Q616 191 596 142 Q576 93 540 59 Q504 25 452.5 7.5 Q401 -10 338 -10 Z " />
<glyph glyph-name="V" unicode="V" horiz-adv-x="712" d="M702 690 L432 0 L277 0 L10 690 L202 690 L360 239 L526 690 L702 690 Z " />
<glyph glyph-name="W" unicode="W" horiz-adv-x="966" d="M218 0 L15 690 L195 690 L305 247 L416 572 L554 572 L668 258 L781 690 L951 690 L744 0 L612 0 L477 389 L352 0 L218 0 Z " />
<glyph glyph-name="X" unicode="X" horiz-adv-x="682" d="M5 0 L243 354 L23 690 L224 690 L352 495 L479 690 L660 690 L443 356 L677 0 L476 0 L335 214 L195 0 L5 0 Z " />
<glyph glyph-name="Y" unicode="Y" horiz-adv-x="638" d="M233 0 L233 226 L5 690 L195 690 L327 373 L460 690 L633 690 L408 226 L408 0 L233 0 Z " />
<glyph glyph-name="Z" unicode="Z" horiz-adv-x="591" d="M236 141 L551 141 L551 0 L40 0 L40 139 L351 549 L57 549 L57 690 L548 690 L548 549 L236 141 Z " />
<glyph glyph-name="bracketleft" unicode="&#x5b;" horiz-adv-x="402" d="M115 740 L394 740 L394 620 L279 620 L279 -155 L394 -155 L394 -275 L115 -275 L115 740 Z " />
<glyph glyph-name="backslash" unicode="&#x5c;" horiz-adv-x="479" d="M310 0 L0 740 L169 740 L479 0 L310 0 Z " />
<glyph glyph-name="bracketright" unicode="&#x5d;" horiz-adv-x="402" d="M287 -275 L8 -275 L8 -155 L123 -155 L123 620 L8 620 L8 740 L287 740 L287 -275 Z " />
<glyph glyph-name="asciicircum" unicode="&#x5e;" horiz-adv-x="482" d="M24 440 L241 700 L458 440 L361 358 L241 501 L121 358 L24 440 Z " />
<glyph glyph-name="underscore" unicode="&#x5f;" horiz-adv-x="432" d="M15 0 L417 0 L417 -115 L15 -115 L15 0 Z " />
<glyph glyph-name="grave" unicode="&#x60;" horiz-adv-x="541" d="M124 702 L241 777 L336 613 L236 551 L124 702 Z " />
<glyph glyph-name="a" unicode="a" horiz-adv-x="530" d="M196 -10 Q161 -10 131 -0.5 Q101 9 78.5 28 Q56 47 43 76 Q30 105 30 144 Q30 225 90.5 265 Q151 305 261 305 L311 305 L311 315 Q311 353 293.5 368.5 Q276 384 233 384 Q198 384 165 367.5 Q132 351 107 325 L24 448 Q65 488 124 509.5 Q183 531 248 531 Q312 531 356 516.5 Q400 502 426 477 Q452 452 463.5 418.5 Q475 385 475 348 L475 0 L323 0 L323 45 Q298 15 265.5 2.5 Q233 -10 196 -10 Z M248 115 Q263 115 279.5 123 Q296 131 311 155 L311 203 L254 203 Q232 203 216 191 Q200 179 200 156 Q200 136 213 125.5 Q226 115 248 115 Z " />
<glyph glyph-name="b" unicode="b" horiz-adv-x="590" d="M61 740 L225 740 L225 496 Q266 531 331 531 Q439 531 495.5 462 Q552 393 552 263 Q552 201 533 150.5 Q514 100 482.5 64.5 Q451 29 409.5 9.5 Q368 -10 323 -10 Q281 -10 252 2.5 Q223 15 201 38 L201 0 L61 0 L61 740 Z M292 384 Q277 384 257 374.5 Q237 365 225 343 L225 175 Q244 136 294 136 Q336 136 359 164.5 Q382 193 382 259 Q382 327 361.5 355.5 Q341 384 292 384 Z " />
<glyph glyph-name="c" unicode="c" horiz-adv-x="500" d="M488 118 Q459 55 404.5 22.5 Q350 -10 274 -10 Q220 -10 175.5 8.5 Q131 27 99.5 62 Q68 97 51 146 Q34 195 34 257 Q34 320 51.5 370.5 Q69 421 101 456.5 Q133 492 178 511.5 Q223 531 278 531 Q364 531 417.5 495 Q471 459 494 379 L341 331 Q327 384 277 384 Q239 384 221.5 355.5 Q204 327 204 260 Q204 193 222 164.5 Q240 136 280 136 Q312 136 328 153 Q344 170 354 193 L488 118 Z " />
<glyph glyph-name="d" unicode="d" horiz-adv-x="582" d="M258 -10 Q152 -10 95 58 Q38 126 38 255 Q38 318 57 369 Q76 420 107.5 456 Q139 492 180.5 511.5 Q222 531 267 531 Q297 531 320.5 524 Q344 517 363 504 L363 740 L527 740 L527 0 L375 0 L375 35 Q354 14 325 2 Q296 -10 258 -10 Z M296 136 Q310 136 330.5 145 Q351 154 363 174 L363 348 Q344 384 296 384 Q254 384 231 355 Q208 326 208 258 Q208 192 228 164 Q248 136 296 136 Z " />
<glyph glyph-name="e" unicode="e" horiz-adv-x="541" d="M279 -10 Q223 -10 177.5 8.5 Q132 27 100 62 Q68 97 51 146 Q34 195 34 257 Q34 320 52 370.5 Q70 421 102.5 456.5 Q135 492 181 511.5 Q227 531 283 531 Q386 531 446 465 Q506 399 506 275 Q506 261 505 245.5 Q504 230 502 214 L202 214 Q208 170 228 150 Q248 130 280 130 Q308 130 327.5 145.5 Q347 161 358 184 L486 111 Q456 51 402.5 20.5 Q349 -10 279 -10 Z M275 395 Q243 395 226 373.5 Q209 352 204 315 L342 315 Q339 353 323 374 Q307 395 275 395 Z " />
<glyph glyph-name="f" unicode="f" horiz-adv-x="389" d="M18 521 L93 521 L93 543 Q93 642 141.5 691 Q190 740 303 740 L386 740 L386 610 L333 610 Q291 610 274 591.5 Q257 573 257 544 L257 521 L376 521 L376 401 L257 401 L257 0 L93 0 L93 401 L18 401 L18 521 Z " />
<glyph glyph-name="g" unicode="g" horiz-adv-x="548" d="M554 399 Q528 399 504 397 Q480 395 459 390 Q465 364 465 338 Q465 298 451.5 262 Q438 226 410 198.5 Q382 171 340.5 155 Q299 139 244 139 Q229 139 215.5 140 Q202 141 190 143 Q185 137 184 132 Q183 127 183 122 Q183 113 189.5 106 Q196 99 221 99 L321 99 Q389 99 432 85.5 Q475 72 499 51 Q523 30 532 3.5 Q541 -23 541 -49 Q541 -98 514.5 -137 Q488 -176 443 -203.5 Q398 -231 339 -245.5 Q280 -260 216 -260 Q113 -260 65 -225.5 Q17 -191 17 -131 Q17 -91 36.5 -62 Q56 -33 88 -11 Q62 5 51 28.5 Q40 52 40 77 Q40 109 56 133 Q72 157 104 179 Q67 207 50 247.5 Q33 288 33 334 Q33 377 48 413.5 Q63 450 91.5 476 Q120 502 161 516.5 Q202 531 254 531 Q302 531 338.5 518.5 Q375 506 401 484 Q416 494 431 503 Q446 512 463.5 518 Q481 524 503 527.5 Q525 531 554 531 L554 399 Z M189 -35 Q178 -47 174.5 -58.5 Q171 -70 171 -80 Q171 -103 190.5 -111 Q210 -119 249 -119 Q303 -119 337.5 -106 Q372 -93 372 -67 Q372 -54 359 -44.5 Q346 -35 311 -35 L189 -35 Z M249 272 Q267 272 278 278 Q289 284 295.5 293 Q302 302 304.5 313 Q307 324 307 334 Q307 345 304.5 356.5 Q302 368 295.5 377 Q289 386 277.5 392 Q266 398 249 398 Q232 398 221 392 Q210 386 203 377 Q196 368 193.5 357 Q191 346 191 335 Q191 324 193.5 313 Q196 302 202.5 293 Q209 284 220.5 278 Q232 272 249 272 Z " />
<glyph glyph-name="h" unicode="h" horiz-adv-x="584" d="M61 0 L61 740 L225 740 L225 485 Q248 505 280 518 Q312 531 357 531 Q401 531 433.5 516.5 Q466 502 487 477 Q508 452 518 418.5 Q528 385 528 348 L528 0 L363 0 L363 315 Q363 354 344.5 369 Q326 384 308 384 Q276 384 257.5 373 Q239 362 225 347 L225 0 L61 0 Z " />
<glyph glyph-name="i" unicode="i" horiz-adv-x="286" d="M143 568 Q103 568 80 592 Q57 616 57 655 Q57 697 80 721 Q103 745 143 745 Q185 745 209.5 721 Q234 697 234 655 Q234 616 209.5 592 Q185 568 143 568 Z M61 0 L61 521 L225 521 L225 0 L61 0 Z " />
<glyph glyph-name="j" unicode="j" horiz-adv-x="286" d="M-27 -146 L-18 -146 Q24 -146 42.5 -126.5 Q61 -107 61 -74 L61 521 L225 521 L225 -68 Q225 -168 172.5 -221.5 Q120 -275 8 -275 L-27 -275 L-27 -146 Z M141 568 Q101 568 78 592 Q55 616 55 655 Q55 697 78 721 Q101 745 141 745 Q183 745 207.5 721 Q232 697 232 655 Q232 616 207.5 592 Q183 568 141 568 Z " />
<glyph glyph-name="k" unicode="k" horiz-adv-x="580" d="M61 0 L61 740 L225 740 L225 270 L385 521 L562 521 L391 267 L426 209 Q446 177 471 159 Q496 141 536 141 L543 141 L543 0 L511 0 Q474 0 443.5 6 Q413 12 387.5 26 Q362 40 341 63 Q320 86 301 121 L225 263 L225 0 L61 0 Z " />
<glyph glyph-name="l" unicode="l" horiz-adv-x="286" d="M61 0 L61 740 L225 740 L225 0 L61 0 Z " />
<glyph glyph-name="m" unicode="m" horiz-adv-x="846" d="M61 0 L61 521 L213 521 L213 476 Q235 499 267 515 Q299 531 347 531 Q395 531 428 511 Q461 491 481 459 Q503 488 538.5 509.5 Q574 531 630 531 Q671 531 701.5 516.5 Q732 502 751.5 477 Q771 452 780.5 418.5 Q790 385 790 348 L790 0 L626 0 L626 315 Q626 354 610.5 369 Q595 384 581 384 Q553 384 536.5 373.5 Q520 363 508 349 L508 0 L343 0 L343 315 Q343 354 327.5 369 Q312 384 298 384 Q269 384 253 373.5 Q237 363 225 349 L225 0 L61 0 Z " />
<glyph glyph-name="n" unicode="n" horiz-adv-x="584" d="M61 0 L61 521 L213 521 L213 473 Q236 497 271 514 Q306 531 357 531 Q401 531 433.5 516.5 Q466 502 487 477 Q508 452 518 418.5 Q528 385 528 348 L528 0 L363 0 L363 315 Q363 354 344.5 369 Q326 384 308 384 Q276 384 257.5 373 Q239 362 225 347 L225 0 L61 0 Z " />
<glyph glyph-name="o" unicode="o" horiz-adv-x="584" d="M292 -10 Q233 -10 185.5 8.5 Q138 27 104 62 Q70 97 52 146 Q34 195 34 257 Q34 320 53.5 370.5 Q73 421 107.5 456.5 Q142 492 189.5 511.5 Q237 531 292 531 Q351 531 398.5 512.5 Q446 494 480 459 Q514 424 532 374.5 Q550 325 550 264 Q550 201 530.5 150.5 Q511 100 476.5 64.5 Q442 29 394.5 9.5 Q347 -10 292 -10 Z M292 136 Q332 136 356 165 Q380 194 380 261 Q380 327 357 355.5 Q334 384 292 384 Q252 384 228 355.5 Q204 327 204 260 Q204 193 227 164.5 Q250 136 292 136 Z " />
<glyph glyph-name="p" unicode="p" horiz-adv-x="590" d="M61 -250 L61 521 L213 521 L213 485 Q234 507 263.5 519 Q293 531 331 531 Q437 531 494.5 463 Q552 395 552 266 Q552 203 533 152 Q514 101 482.5 65 Q451 29 409.5 9.5 Q368 -10 323 -10 Q292 -10 268 -3 Q244 4 225 17 L225 -250 L61 -250 Z M293 384 Q279 384 257.5 374.5 Q236 365 225 344 L225 174 Q243 136 294 136 Q336 136 359 165.5 Q382 195 382 262 Q382 329 361 356.5 Q340 384 293 384 Z " />
<glyph glyph-name="q" unicode="q" horiz-adv-x="582" d="M363 -250 L363 25 Q343 8 316.5 -1 Q290 -10 258 -10 Q152 -10 95 58 Q38 126 38 255 Q38 320 57 371 Q76 422 107.5 457.5 Q139 493 180.5 512 Q222 531 266 531 Q303 531 328.5 520 Q354 509 375 491 L375 521 L527 521 L527 -250 L363 -250 Z M296 136 Q310 136 330.5 145 Q351 154 363 174 L363 348 Q344 384 296 384 Q254 384 231 355 Q208 326 208 258 Q208 192 228.5 164 Q249 136 296 136 Z " />
<glyph glyph-name="r" unicode="r" horiz-adv-x="403" d="M61 0 L61 521 L213 521 L213 471 Q237 496 284 513.5 Q331 531 388 531 L388 368 Q338 368 298 362.5 Q258 357 225 337 L225 0 L61 0 Z " />
<glyph glyph-name="s" unicode="s" horiz-adv-x="472" d="M241 532 Q286 532 320.5 521.5 Q355 511 379 493 Q403 475 417.5 450.5 Q432 426 438 399 L294 350 Q282 373 265 385.5 Q248 398 224 398 Q204 398 194 388.5 Q184 379 184 365 Q184 345 204 336 Q224 327 275 317 Q313 309 346 299 Q379 289 403 272 Q427 255 440.5 228 Q454 201 454 159 Q454 79 393 34.5 Q332 -10 226 -10 Q131 -10 81 29.5 Q31 69 17 137 L163 174 Q173 152 189.5 137.5 Q206 123 241 123 Q263 123 279.5 130.5 Q296 138 296 156 Q296 173 277.5 181 Q259 189 215 196 Q202 198 183.5 201.5 Q165 205 144 211.5 Q123 218 102 229 Q81 240 64 257.5 Q47 275 36.5 299.5 Q26 324 26 358 Q26 437 82 484.5 Q138 532 241 532 Z " />
<glyph glyph-name="t" unicode="t" horiz-adv-x="377" d="M4 521 L81 521 L81 625 L245 657 L245 521 L354 521 L354 401 L245 401 L245 200 Q245 164 262.5 146.5 Q280 129 322 129 L354 129 L354 0 L293 0 Q232 0 191.5 12.5 Q151 25 126.5 50 Q102 75 91.5 112.5 Q81 150 81 198 L81 401 L4 401 L4 521 Z " />
<glyph glyph-name="u" unicode="u" horiz-adv-x="564" d="M215 -10 Q173 -10 143 4.5 Q113 19 93.5 44 Q74 69 64.5 102 Q55 135 55 173 L55 521 L219 521 L219 206 Q219 167 233 151.5 Q247 136 264 136 Q292 136 308.5 146.5 Q325 157 337 171 L337 521 L502 521 L502 0 L349 0 L349 43 Q326 20 294 5 Q262 -10 215 -10 Z " />
<glyph glyph-name="v" unicode="v" horiz-adv-x="571" d="M8 521 L188 521 L292 164 L392 521 L563 521 L386 0 L186 0 L8 521 Z " />
<glyph glyph-name="w" unicode="w" horiz-adv-x="799" d="M10 521 L178 521 L261 179 L349 443 L457 443 L549 180 L623 521 L789 521 L641 0 L470 0 L394 220 L324 0 L158 0 L10 521 Z " />
<glyph glyph-name="x" unicode="x" horiz-adv-x="561" d="M6 0 L186 266 L18 521 L211 521 L296 391 L383 521 L557 521 L374 274 L555 0 L361 0 L268 140 L180 0 L6 0 Z " />
<glyph glyph-name="y" unicode="y" horiz-adv-x="563" d="M212 -22 L4 521 L182 521 L287 169 L397 521 L565 521 L349 -41 Q330 -91 306 -129.5 Q282 -168 250.5 -195 Q219 -222 178 -236 Q137 -250 83 -250 L26 -250 L26 -121 L79 -121 Q125 -121 150.5 -104.5 Q176 -88 197 -49 L212 -22 Z " />
<glyph glyph-name="z" unicode="z" horiz-adv-x="463" d="M208 129 L438 129 L438 0 L25 0 L25 120 L244 391 L42 391 L42 521 L432 521 L432 400 L208 129 Z " />
<glyph glyph-name="braceleft" unicode="&#x7b;" horiz-adv-x="402" d="M359 -275 Q291 -275 244.5 -261.5 Q198 -248 169 -220 Q140 -192 127 -148 Q114 -104 114 -43 L114 98 Q114 140 98.5 156 Q83 172 48 172 L32 172 L32 292 L48 292 Q83 292 98.5 308 Q114 324 114 366 L114 508 Q114 569 127 613 Q140 657 169 685 Q198 713 244.5 726.5 Q291 740 359 740 L394 740 L394 620 L363 620 Q335 620 318 612.5 Q301 605 292 591.5 Q283 578 280.5 559 Q278 540 278 517 L278 338 Q278 292 256 268 Q234 244 196 232 Q234 220 256 196 Q278 172 278 126 L278 -52 Q278 -75 280.5 -94 Q283 -113 292 -126.5 Q301 -140 318 -147.5 Q335 -155 363 -155 L394 -155 L394 -275 L359 -275 Z " />
<glyph glyph-name="bar" unicode="&#x7c;" horiz-adv-x="433" d="M138 -275 L138 740 L295 740 L295 -275 L138 -275 Z " />
<glyph glyph-name="braceright" unicode="&#x7d;" horiz-adv-x="402" d="M8 -155 L39 -155 Q67 -155 84 -147.5 Q101 -140 110 -126.5 Q119 -113 121.5 -94 Q124 -75 124 -52 L124 126 Q124 172 146 196 Q168 220 206 232 Q168 244 146 268 Q124 292 124 338 L124 517 Q124 540 121.5 559 Q119 578 110 591.5 Q101 605 84 612.5 Q67 620 39 620 L8 620 L8 740 L42 740 Q110 740 157 726.5 Q204 713 233 685 Q262 657 275 613 Q288 569 288 508 L288 366 Q288 324 303 308 Q318 292 353 292 L370 292 L370 172 L353 172 Q318 172 303 156 Q288 140 288 98 L288 -43 Q288 -104 275 -148 Q262 -192 233 -220 Q204 -248 157 -261.5 Q110 -275 42 -275 L8 -275 L8 -155 Z " />
<glyph glyph-name="asciitilde" unicode="&#x7e;" horiz-adv-x="482" d="M34 383 Q63 414 89.5 426 Q116 438 140 438 Q168 438 194.5 425.5 Q221 413 247 398 Q273 383 299.5 370.5 Q326 358 354 358 Q376 358 399 368 Q422 378 448 403 L448 270 Q422 245 399 235 Q376 225 354 225 Q326 225 299.5 237.5 Q273 250 247 265 Q221 280 194.5 292.5 Q168 305 140 305 Q116 305 89.5 293 Q63 281 34 250 L34 383 Z " />
<glyph glyph-name="uni00A0" unicode="&#xa0;" horiz-adv-x="286" d="" />
<glyph glyph-name="exclamdown" unicode="&#xa1;" horiz-adv-x="382" d="M272 -180 L108 -180 L120 278 L260 278 L272 -180 Z M91 432 Q91 477 118.5 504.5 Q146 532 191 532 Q236 532 263.5 504.5 Q291 477 291 432 Q291 387 263.5 359.5 Q236 332 191 332 Q146 332 118.5 359.5 Q91 387 91 432 Z " />
<glyph glyph-name="cent" unicode="&#xa2;" horiz-adv-x="478" d="M181 2 Q102 25 59 91.5 Q16 158 16 257 Q16 358 60.5 426 Q105 494 181 519 L181 622 L338 622 L338 523 Q390 510 425 476 Q460 442 474 379 L321 331 Q307 384 262 384 Q222 384 204 355.5 Q186 327 186 260 Q186 193 205 164.5 Q224 136 268 136 Q289 136 306.5 153 Q324 170 334 193 L468 118 Q448 73 415 43 Q382 13 338 0 L338 -103 L181 -103 L181 2 Z " />
<glyph glyph-name="sterling" unicode="&#xa3;" horiz-adv-x="610" d="M84 350 L150 350 Q139 387 129.5 422.5 Q120 458 120 503 Q120 552 138 589 Q156 626 188.5 651 Q221 676 266.5 688 Q312 700 367 700 L491 700 L491 549 L379 549 Q331 549 313 532.5 Q295 516 295 487 Q295 449 304 417 Q313 385 324 350 L442 350 L442 241 L346 241 Q347 231 347.5 220.5 Q348 210 348 199 Q348 180 341.5 163.5 Q335 147 325.5 134.5 Q316 122 306 113 Q296 104 290 101 Q308 95 321 87 Q334 79 347.5 72.5 Q361 66 378.5 61 Q396 56 422 56 Q451 56 481.5 71 Q512 86 535 107 L612 -10 Q577 -46 523.5 -68 Q470 -90 419 -90 Q384 -90 358 -83.5 Q332 -77 310 -67 Q288 -57 267.5 -45 Q247 -33 221.5 -23 Q196 -13 163 -6.5 Q130 0 84 0 L42 0 L42 132 L100 132 Q136 132 154.5 145.5 Q173 159 173 198 Q173 209 172.5 219.5 Q172 230 171 241 L84 241 L84 350 Z " />
<glyph glyph-name="currency" unicode="&#xa4;" horiz-adv-x="490" d="M293 183 Q272 176 244 176 Q217 176 193 182 L131 120 L37 214 L100 277 Q94 299 94 327 Q94 353 100 376 L36 440 L130 534 L191 473 Q217 481 244 481 Q258 481 271 479 Q284 477 296 474 L358 535 L452 441 L388 377 Q394 356 394 331 Q394 304 386 278 L452 212 L358 118 L293 183 Z M244 284 Q262 284 273 296.5 Q284 309 284 329 Q284 370 244 370 Q226 370 215 359 Q204 348 204 327 Q204 307 215 295.5 Q226 284 244 284 Z " />
<glyph glyph-name="yen" unicode="&#xa5;" horiz-adv-x="664" d="M112 432 L153 432 L18 690 L208 690 L340 395 L473 690 L646 690 L512 432 L552 432 L552 323 L456 323 L429 272 L552 272 L552 163 L421 163 L421 0 L246 0 L246 163 L112 163 L112 272 L237 272 L210 323 L112 323 L112 432 Z " />
<glyph glyph-name="brokenbar" unicode="&#xa6;" horiz-adv-x="433" d="M138 339 L138 740 L295 740 L295 339 L138 339 Z M138 -275 L138 126 L295 126 L295 -275 L138 -275 Z " />
<glyph glyph-name="section" unicode="&#xa7;" horiz-adv-x="462" d="M220 -10 Q168 -10 130 3 Q92 16 66.5 38 Q41 60 27 88.5 Q13 117 9 149 L155 186 Q163 158 180.5 140.5 Q198 123 235 123 Q257 123 273.5 130.5 Q290 138 290 156 Q290 173 271.5 181.5 Q253 190 209 198 Q171 204 137 213 Q103 222 77 238.5 Q51 255 35.5 282 Q20 309 20 352 Q20 384 33 408.5 Q46 433 66 451 Q50 468 40.5 490 Q31 512 31 541 Q31 618 87 665 Q143 712 246 712 Q294 712 329.5 700 Q365 688 389.5 668 Q414 648 429 622 Q444 596 450 569 L305 520 Q294 544 276 561 Q258 578 229 578 Q209 578 199 568.5 Q189 559 189 545 Q189 525 209 516 Q229 507 280 497 Q318 489 351 479 Q384 469 408 452.5 Q432 436 445.5 410.5 Q459 385 459 345 Q459 314 447.5 292.5 Q436 271 416 256 Q431 240 439.5 218 Q448 196 448 165 Q448 80 387 35 Q326 -10 220 -10 Z M186 386 Q178 376 178 365 Q178 345 198 336 Q218 327 269 317 Q274 315 278.5 314.5 Q283 314 288 313 Q301 321 301 336 Q301 353 282 360.5 Q263 368 220 378 L186 386 Z " />
<glyph glyph-name="dieresis" unicode="&#xa8;" horiz-adv-x="541" d="M173 568 Q137 568 116 589.5 Q95 611 95 646 Q95 684 116 705 Q137 726 173 726 Q211 726 232 705 Q253 684 253 646 Q253 611 232 589.5 Q211 568 173 568 Z M365 568 Q330 568 309 589.5 Q288 611 288 646 Q288 684 309 705 Q330 726 365 726 Q403 726 424 705 Q445 684 445 646 Q445 611 424 589.5 Q403 568 365 568 Z " />
<glyph glyph-name="copyright" unicode="&#xa9;" horiz-adv-x="784" d="M392 -11 Q314 -11 246 18.5 Q178 48 127.5 98.5 Q77 149 48.5 217.5 Q20 286 20 364 Q20 442 48.5 510.5 Q77 579 127.5 630 Q178 681 246 710.5 Q314 740 392 740 Q470 740 538 710.5 Q606 681 656 630 Q706 579 735 510.5 Q764 442 764 364 Q764 286 735 217.5 Q706 149 656 98.5 Q606 48 538 18.5 Q470 -11 392 -11 Z M392 63 Q454 63 508 87 Q562 111 601.5 152 Q641 193 664 247.5 Q687 302 687 364 Q687 426 664 481 Q641 536 601.5 577 Q562 618 508 642 Q454 666 392 666 Q330 666 276 642 Q222 618 182.5 577 Q143 536 120 481 Q97 426 97 364 Q97 302 120 247.5 Q143 193 182.5 152 Q222 111 276 87 Q330 63 392 63 Z M400 157 Q309 157 258 211.5 Q207 266 207 360 Q207 408 220.5 447 Q234 486 259 513 Q284 540 318.5 554.5 Q353 569 395 569 Q458 569 501 544 Q544 519 558 454 L435 415 Q427 453 395 453 Q366 453 354 432.5 Q342 412 342 364 Q342 314 355 293.5 Q368 273 400 273 Q415 273 427.5 286.5 Q440 300 445 316 L554 255 Q534 207 493 182 Q452 157 400 157 Z " />
<glyph glyph-name="ordfeminine" unicode="&#xaa;" horiz-adv-x="403" d="M149 331 Q127 331 107 337.5 Q87 344 72 357.5 Q57 371 48 391.5 Q39 412 39 439 Q39 496 81.5 527.5 Q124 559 201 559 L230 559 L230 560 Q230 597 183 597 Q158 597 133.5 588.5 Q109 580 91 564 L35 653 Q62 682 103.5 696.5 Q145 711 186 711 Q231 711 262.5 700.5 Q294 690 313.5 672.5 Q333 655 342 631.5 Q351 608 351 582 L351 337 L238 337 L238 367 Q221 347 199 339 Q177 331 149 331 Z M192 432 Q201 432 211 437 Q221 442 230 458 L230 488 L204 488 Q168 488 168 458 Q168 432 192 432 Z " />
<glyph glyph-name="guillemotleft" unicode="&#xab;" horiz-adv-x="600" d="M301 318 L465 489 L560 387 L428 264 L559 141 L465 40 L301 210 L301 318 Z M35 318 L199 489 L294 387 L162 264 L293 141 L199 40 L35 210 L35 318 Z " />
<glyph glyph-name="logicalnot" unicode="&#xac;" horiz-adv-x="482" d="M34 494 L448 494 L448 210 L315 210 L315 361 L34 361 L34 494 Z " />
<glyph glyph-name="uni00AD" unicode="&#xad;" horiz-adv-x="451" d="" />
<glyph glyph-name="registered" unicode="&#xae;" horiz-adv-x="772" d="M386 146 Q309 146 242.5 175 Q176 204 126.5 254 Q77 304 48.5 371 Q20 438 20 515 Q20 592 48.5 659 Q77 726 126.5 776 Q176 826 242.5 855 Q309 884 386 884 Q462 884 529 855 Q596 826 645.5 776 Q695 726 723.5 659 Q752 592 752 515 Q752 438 723.5 371 Q695 304 645.5 254 Q596 204 529 175 Q462 146 386 146 Z M386 217 Q447 217 500.5 240.5 Q554 264 593.5 304.5 Q633 345 656 399 Q679 453 679 515 Q679 576 656 630.5 Q633 685 593.5 725.5 Q554 766 500.5 790 Q447 814 386 814 Q324 814 271 790 Q218 766 178 725.5 Q138 685 115.5 630.5 Q93 576 93 515 Q93 453 115.5 399 Q138 345 178 304.5 Q218 264 271 240.5 Q324 217 386 217 Z M251 339 L251 709 L367 709 Q445 709 480.5 676 Q516 643 516 595 Q516 535 464 507 Q489 493 503.5 466.5 Q518 440 527 395 Q530 380 532.5 366 Q535 352 540 339 L434 339 Q432 347 430 357 Q428 367 425 385 Q417 426 401.5 441.5 Q386 457 366 457 L354 457 L354 339 L251 339 Z M354 543 L368 543 Q391 543 400 554.5 Q409 566 409 586 Q409 608 396.5 615.5 Q384 623 354 623 L354 543 Z " />
<glyph glyph-name="macron" unicode="&#xaf;" horiz-adv-x="541" d="M121 600 L121 714 L420 714 L420 600 L121 600 Z " />
<glyph glyph-name="degree" unicode="&#xb0;" horiz-adv-x="351" d="M216 548 Q216 568 205.5 579 Q195 590 175 590 Q158 590 146.5 578.5 Q135 567 135 546 Q135 527 146 515 Q157 503 175 503 Q193 503 204.5 515.5 Q216 528 216 548 Z M25 546 Q25 580 36 608.5 Q47 637 67 657.5 Q87 678 114.5 689 Q142 700 175 700 Q246 700 286 659 Q326 618 326 551 Q326 516 315 487.5 Q304 459 284 438.5 Q264 418 236 406.5 Q208 395 175 395 Q104 395 64.5 436.5 Q25 478 25 546 Z " />
<glyph glyph-name="plusminus" unicode="&#xb1;" horiz-adv-x="482" d="M34 454 L169 454 L169 592 L313 592 L313 454 L448 454 L448 321 L313 321 L313 182 L169 182 L169 321 L34 321 L34 454 Z M34 129 L448 129 L448 -4 L34 -4 L34 129 Z " />
<glyph glyph-name="twosuperior" unicode="&#xb2;" horiz-adv-x="361" d="M35 594 Q39 619 50 640.5 Q61 662 80 678 Q99 694 126.5 703 Q154 712 192 712 Q228 712 254.5 703 Q281 694 298.5 678.5 Q316 663 324 643 Q332 623 332 601 Q332 581 328.5 564.5 Q325 548 314.5 533 Q304 518 285 503 Q266 488 234 472 Q215 463 204 457 Q193 451 186 446.5 Q179 442 175.5 439 Q172 436 169 433 L323 433 L323 335 L34 335 L34 375 Q34 474 130 522 Q154 534 167.5 543 Q181 552 188.5 559.5 Q196 567 198 573.5 Q200 580 200 587 Q200 598 193.5 602.5 Q187 607 179 607 Q156 607 149 583 L35 594 Z " />
<glyph glyph-name="threesuperior" unicode="&#xb3;" horiz-adv-x="361" d="M166 549 L170 549 Q189 550 196 559.5 Q203 569 203 580 Q203 607 172 607 Q150 607 142.5 593.5 Q135 580 134 566 L24 586 Q32 646 72 679 Q112 712 180 712 Q253 712 291 679 Q329 646 329 594 Q329 571 322 555.5 Q315 540 303 529 Q321 519 331.5 502 Q342 485 342 457 Q342 424 327 400 Q312 376 288.5 360.5 Q265 345 236.5 338 Q208 331 181 331 Q152 331 124 338 Q96 345 73.5 360.5 Q51 376 36.5 401 Q22 426 19 463 L130 486 Q132 464 143 450 Q154 436 175 436 Q195 436 205 444 Q215 452 215 466 Q215 480 205 487 Q195 494 166 494 L166 549 Z " />
<glyph glyph-name="acute" unicode="&#xb4;" horiz-adv-x="541" d="M282 551 L182 613 L276 777 L394 702 L282 551 Z " />
<glyph glyph-name="mu" unicode="&#xb5;" horiz-adv-x="564" d="M52 521 L216 521 L216 206 Q216 167 231.5 151.5 Q247 136 261 136 Q289 136 305.5 146.5 Q322 157 334 171 L334 521 L499 521 L499 0 L346 0 L346 43 Q324 21 292.5 6 Q261 -9 216 -10 L216 -250 L52 -250 L52 521 Z " />
<glyph glyph-name="paragraph" unicode="&#xb6;" horiz-adv-x="701" d="M256 0 L256 285 Q207 285 167 300 Q127 315 99 342 Q71 369 55.5 408 Q40 447 40 495 Q40 540 54.5 577.5 Q69 615 96.5 642.5 Q124 670 164 685 Q204 700 256 700 L413 700 L413 0 L256 0 Z M464 0 L464 700 L621 700 L621 0 L464 0 Z " />
<glyph glyph-name="periodcentered" unicode="&#xb7;" horiz-adv-x="541" d="M269 234 Q229 234 206 258 Q183 282 183 321 Q183 363 206 387 Q229 411 269 411 Q311 411 335.5 387 Q360 363 360 321 Q360 282 335.5 258 Q311 234 269 234 Z " />
<glyph glyph-name="cedilla" unicode="&#xb8;" horiz-adv-x="541" d="M282 9 L282 -53 Q289 -51 295.5 -51 Q302 -51 304 -51 Q352 -51 378.5 -75.5 Q405 -100 405 -145 Q405 -179 391 -201 Q377 -223 354.5 -236 Q332 -249 304.5 -254.5 Q277 -260 250 -260 Q209 -260 177.5 -246 Q146 -232 131 -217 L177 -143 Q189 -151 207 -161.5 Q225 -172 254 -172 Q272 -172 284.5 -166 Q297 -160 297 -146 Q297 -121 249 -121 Q234 -121 220.5 -123 Q207 -125 198 -127 L198 9 L282 9 Z " />
<glyph glyph-name="onesuperior" unicode="&#xb9;" horiz-adv-x="361" d="M126 705 L244 705 L244 335 L115 335 L115 561 L69 530 L11 616 L126 705 Z " />
<glyph glyph-name="ordmasculine" unicode="&#xba;" horiz-adv-x="403" d="M202 331 Q123 331 75.5 381 Q28 431 28 519 Q28 563 41.5 599 Q55 635 78 660 Q101 685 133 698.5 Q165 712 202 712 Q281 712 328 662 Q375 612 375 524 Q375 480 361.5 444 Q348 408 325 383 Q302 358 270.5 344.5 Q239 331 202 331 Z M202 457 Q220 457 230.5 470.5 Q241 484 241 522 Q241 557 231 571.5 Q221 586 202 586 Q184 586 173 571.5 Q162 557 162 521 Q162 485 172 471 Q182 457 202 457 Z " />
<glyph glyph-name="guillemotright" unicode="&#xbb;" horiz-adv-x="599" d="M564 210 L400 40 L306 141 L437 264 L306 387 L400 489 L564 318 L564 210 Z M298 210 L134 40 L40 141 L171 264 L40 387 L134 489 L298 318 L298 210 Z " />
<glyph glyph-name="onequarter" unicode="&#xbc;" horiz-adv-x="840" d="M107 54 L636 712 L723 639 L195 -22 L107 54 Z M126 705 L244 705 L244 335 L115 335 L115 561 L69 530 L11 616 L126 705 Z M473 139 L640 368 L764 368 L764 157 L805 157 L805 59 L764 59 L764 -1 L651 -1 L651 59 L473 59 L473 139 Z M580 157 L651 157 L651 258 L580 157 Z " />
<glyph glyph-name="onehalf" unicode="&#xbd;" horiz-adv-x="840" d="M94 54 L623 712 L710 639 L182 -22 L94 54 Z M126 705 L244 705 L244 335 L115 335 L115 561 L69 530 L11 616 L126 705 Z M514 258 Q518 283 529 304.5 Q540 326 559 342 Q578 358 605.5 367 Q633 376 671 376 Q707 376 733.5 367 Q760 358 777.5 342.5 Q795 327 803 307 Q811 287 811 265 Q811 245 807.5 228.5 Q804 212 793.5 197 Q783 182 764 167 Q745 152 713 136 Q694 127 683 121 Q672 115 665 110.5 Q658 106 654.5 103 Q651 100 648 97 L802 97 L802 -1 L513 -1 L513 39 Q513 138 609 186 Q633 198 646.5 207 Q660 216 667.5 223.5 Q675 231 677 237.5 Q679 244 679 251 Q679 262 672.5 266.5 Q666 271 658 271 Q635 271 628 247 L514 258 Z " />
<glyph glyph-name="threequarters" unicode="&#xbe;" horiz-adv-x="840" d="M136 54 L665 712 L752 639 L224 -22 L136 54 Z M473 139 L640 368 L764 368 L764 157 L805 157 L805 59 L764 59 L764 -1 L651 -1 L651 59 L473 59 L473 139 Z M580 157 L651 157 L651 258 L580 157 Z M166 549 L170 549 Q189 550 196 559.5 Q203 569 203 580 Q203 607 172 607 Q150 607 142.5 593.5 Q135 580 134 566 L24 586 Q32 646 72 679 Q112 712 180 712 Q253 712 291 679 Q329 646 329 594 Q329 571 322 555.5 Q315 540 303 529 Q321 519 331.5 502 Q342 485 342 457 Q342 424 327 400 Q312 376 288.5 360.5 Q265 345 236.5 338 Q208 331 181 331 Q152 331 124 338 Q96 345 73.5 360.5 Q51 376 36.5 401 Q22 426 19 463 L130 486 Q132 464 143 450 Q154 436 175 436 Q195 436 205 444 Q215 452 215 466 Q215 480 205 487 Q195 494 166 494 L166 549 Z " />
<glyph glyph-name="questiondown" unicode="&#xbf;" horiz-adv-x="494" d="M342 276 Q342 235 338 207 Q334 179 323 156.5 Q312 134 291.5 113.5 Q271 93 237 67 Q208 45 196.5 30 Q185 15 185 0 Q185 -23 200.5 -32 Q216 -41 239 -41 Q274 -41 293 -23.5 Q312 -6 320 30 L471 -10 Q467 -48 450 -81 Q433 -114 402.5 -138.5 Q372 -163 327.5 -177.5 Q283 -192 224 -192 Q168 -192 127 -179 Q86 -166 59.5 -143 Q33 -120 20 -88.5 Q7 -57 7 -20 Q7 14 16.5 40.5 Q26 67 42.5 88.5 Q59 110 81 127.5 Q103 145 128 161 Q146 173 159.5 184 Q173 195 181 208 Q189 221 193 237 Q197 253 197 276 L342 276 Z M364 430 Q364 385 336.5 357.5 Q309 330 264 330 Q219 330 191.5 357.5 Q164 385 164 430 Q164 475 191.5 502.5 Q219 530 264 530 Q309 530 336.5 502.5 Q364 475 364 430 Z " />
<glyph glyph-name="Agrave" unicode="&#xc0;" horiz-adv-x="716" d="M12 0 L284 690 L434 690 L704 0 L512 0 L475 111 L227 111 L188 0 L12 0 Z M277 252 L427 252 L354 470 L277 252 Z M211 871 L328 946 L423 782 L323 720 L211 871 Z " />
<glyph glyph-name="Aacute" unicode="&#xc1;" horiz-adv-x="716" d="M12 0 L284 690 L434 690 L704 0 L512 0 L475 111 L227 111 L188 0 L12 0 Z M277 252 L427 252 L354 470 L277 252 Z M369 720 L269 782 L363 946 L481 871 L369 720 Z " />
<glyph glyph-name="Acircumflex" unicode="&#xc2;" horiz-adv-x="716" d="M12 0 L284 690 L434 690 L704 0 L512 0 L475 111 L227 111 L188 0 L12 0 Z M277 252 L427 252 L354 470 L277 252 Z M357 828 L265 720 L177 782 L296 946 L419 946 L537 782 L449 720 L357 828 Z " />
<glyph glyph-name="Atilde" unicode="&#xc3;" horiz-adv-x="716" d="M12 0 L284 690 L434 690 L704 0 L512 0 L475 111 L227 111 L188 0 L12 0 Z M277 252 L427 252 L354 470 L277 252 Z M163 800 Q180 845 214 870.5 Q248 896 280 896 Q302 896 319.5 889.5 Q337 883 351 874.5 Q365 866 378.5 859.5 Q392 853 407 853 Q426 853 439.5 863 Q453 873 469 896 L551 827 Q531 782 495 752 Q459 722 421 722 Q398 722 380.5 728.5 Q363 735 348.5 743.5 Q334 752 321 758.5 Q308 765 294 765 Q276 765 264 755 Q252 745 238 728 L163 800 Z " />
<glyph glyph-name="Adieresis" unicode="&#xc4;" horiz-adv-x="716" d="M12 0 L284 690 L434 690 L704 0 L512 0 L475 111 L227 111 L188 0 L12 0 Z M277 252 L427 252 L354 470 L277 252 Z M260 737 Q224 737 203 758.5 Q182 780 182 815 Q182 853 203 874 Q224 895 260 895 Q298 895 319 874 Q340 853 340 815 Q340 780 319 758.5 Q298 737 260 737 Z M452 737 Q417 737 396 758.5 Q375 780 375 815 Q375 853 396 874 Q417 895 452 895 Q490 895 511 874 Q532 853 532 815 Q532 780 511 758.5 Q490 737 452 737 Z " />
<glyph glyph-name="Aring" unicode="&#xc5;" horiz-adv-x="716" d="M12 0 L284 690 L434 690 L704 0 L512 0 L475 111 L227 111 L188 0 L12 0 Z M277 252 L427 252 L354 470 L277 252 Z M355 720 Q304 720 274 750 Q244 780 244 830 Q244 885 274 915.5 Q304 946 355 946 Q409 946 439.5 915.5 Q470 885 470 831 Q470 780 439.5 750 Q409 720 355 720 Z M356 795 Q375 795 385.5 805 Q396 815 396 832 Q396 850 385.5 860.5 Q375 871 356 871 Q339 871 329 860.5 Q319 850 319 832 Q319 815 329 805 Q339 795 356 795 Z " />
<glyph glyph-name="AE" unicode="&#xc6;" horiz-adv-x="987" d="M-4 0 L428 690 L940 690 L940 549 L666 549 L666 428 L855 428 L855 286 L666 286 L666 141 L947 141 L947 0 L491 0 L491 135 L263 135 L184 0 L-4 0 Z M491 276 L491 524 L345 276 L491 276 Z " />
<glyph glyph-name="Ccedilla" unicode="&#xc7;" horiz-adv-x="655" d="M632 133 Q592 64 525.5 28 Q459 -8 369 -10 L369 -53 Q376 -51 382.5 -51 Q389 -51 391 -51 Q439 -51 465.5 -75.5 Q492 -100 492 -145 Q492 -179 478 -201 Q464 -223 441.5 -236 Q419 -249 391.5 -254.5 Q364 -260 337 -260 Q296 -260 264.5 -246 Q233 -232 218 -217 L264 -143 Q276 -151 294 -161.5 Q312 -172 341 -172 Q359 -172 371.5 -166 Q384 -160 384 -146 Q384 -121 336 -121 Q321 -121 307.5 -123 Q294 -125 285 -127 L285 -2 Q228 10 182.5 39 Q137 68 105.5 112.5 Q74 157 57 215.5 Q40 274 40 344 Q40 426 64.5 492 Q89 558 132 604.5 Q175 651 234 675.5 Q293 700 362 700 Q424 700 468.5 686 Q513 672 544 648 Q575 624 595 592 Q615 560 630 525 L463 462 Q448 497 423 520 Q398 543 354 543 Q289 543 255 489 Q221 435 221 345 Q221 147 367 147 Q411 147 444 170.5 Q477 194 500 233 L632 133 L632 133 Z " />
<glyph glyph-name="Egrave" unicode="&#xc8;" horiz-adv-x="565" d="M70 0 L70 690 L519 690 L519 549 L245 549 L245 428 L434 428 L434 286 L245 286 L245 141 L525 141 L525 0 L70 0 Z M156 871 L273 946 L368 782 L268 720 L156 871 Z " />
<glyph glyph-name="Eacute" unicode="&#xc9;" horiz-adv-x="565" d="M70 0 L70 690 L519 690 L519 549 L245 549 L245 428 L434 428 L434 286 L245 286 L245 141 L525 141 L525 0 L70 0 Z M314 720 L214 782 L308 946 L426 871 L314 720 Z " />
<glyph glyph-name="Ecircumflex" unicode="&#xca;" horiz-adv-x="565" d="M70 0 L70 690 L519 690 L519 549 L245 549 L245 428 L434 428 L434 286 L245 286 L245 141 L525 141 L525 0 L70 0 Z M302 828 L210 720 L122 782 L241 946 L364 946 L482 782 L394 720 L302 828 Z " />
<glyph glyph-name="Edieresis" unicode="&#xcb;" horiz-adv-x="565" d="M70 0 L70 690 L519 690 L519 549 L245 549 L245 428 L434 428 L434 286 L245 286 L245 141 L525 141 L525 0 L70 0 Z M205 737 Q169 737 148 758.5 Q127 780 127 815 Q127 853 148 874 Q169 895 205 895 Q243 895 264 874 Q285 853 285 815 Q285 780 264 758.5 Q243 737 205 737 Z M397 737 Q362 737 341 758.5 Q320 780 320 815 Q320 853 341 874 Q362 895 397 895 Q435 895 456 874 Q477 853 477 815 Q477 780 456 758.5 Q435 737 397 737 Z " />
<glyph glyph-name="Igrave" unicode="&#xcc;" horiz-adv-x="315" d="M70 0 L70 690 L245 690 L245 0 L70 0 Z M11 871 L128 946 L223 782 L123 720 L11 871 Z " />
<glyph glyph-name="Iacute" unicode="&#xcd;" horiz-adv-x="315" d="M70 0 L70 690 L245 690 L245 0 L70 0 Z M169 720 L69 782 L163 946 L281 871 L169 720 Z " />
<glyph glyph-name="Icircumflex" unicode="&#xce;" horiz-adv-x="315" d="M70 0 L70 690 L245 690 L245 0 L70 0 Z M157 828 L65 720 L-23 782 L96 946 L219 946 L337 782 L249 720 L157 828 Z " />
<glyph glyph-name="Idieresis" unicode="&#xcf;" horiz-adv-x="315" d="M70 0 L70 690 L245 690 L245 0 L70 0 Z M60 737 Q24 737 3 758.5 Q-18 780 -18 815 Q-18 853 3 874 Q24 895 60 895 Q98 895 119 874 Q140 853 140 815 Q140 780 119 758.5 Q98 737 60 737 Z M252 737 Q217 737 196 758.5 Q175 780 175 815 Q175 853 196 874 Q217 895 252 895 Q290 895 311 874 Q332 853 332 815 Q332 780 311 758.5 Q290 737 252 737 Z " />
<glyph glyph-name="Eth" unicode="&#xd0;" horiz-adv-x="718" d="M10 398 L82 398 L82 690 L318 690 Q402 690 468.5 666.5 Q535 643 581.5 599 Q628 555 653 491 Q678 427 678 345 Q678 272 651.5 209 Q625 146 576.5 99.5 Q528 53 458 26.5 Q388 0 301 0 L82 0 L82 308 L10 308 L10 398 Z M257 546 L257 398 L375 398 L375 308 L257 308 L257 141 L298 141 Q349 141 386.5 156.5 Q424 172 448.5 199 Q473 226 485 263.5 Q497 301 497 345 Q497 391 487 428.5 Q477 466 455.5 492 Q434 518 400 532 Q366 546 317 546 L257 546 Z " />
<glyph glyph-name="Ntilde" unicode="&#xd1;" horiz-adv-x="718" d="M233 406 L233 0 L70 0 L70 690 L233 690 L485 284 L485 690 L648 690 L648 0 L485 0 L233 406 Z M164 800 Q181 845 215 870.5 Q249 896 281 896 Q303 896 320.5 889.5 Q338 883 352 874.5 Q366 866 379.5 859.5 Q393 853 408 853 Q427 853 440.5 863 Q454 873 470 896 L552 827 Q532 782 496 752 Q460 722 422 722 Q399 722 381.5 728.5 Q364 735 349.5 743.5 Q335 752 322 758.5 Q309 765 295 765 Q277 765 265 755 Q253 745 239 728 L164 800 Z " />
<glyph glyph-name="Ograve" unicode="&#xd2;" horiz-adv-x="750" d="M376 -10 Q299 -10 237 15 Q175 40 131 86 Q87 132 63.5 197.5 Q40 263 40 345 Q40 423 65.5 488 Q91 553 135.5 600 Q180 647 241 673.5 Q302 700 374 700 Q451 700 513 675 Q575 650 619 604 Q663 558 686.5 492.5 Q710 427 710 345 Q710 267 684.5 202 Q659 137 614.5 90 Q570 43 509 16.5 Q448 -10 376 -10 Z M376 147 Q453 147 491 200 Q529 253 529 344 Q529 543 374 543 Q297 543 259 490 Q221 437 221 346 Q221 147 376 147 Z M228 871 L345 946 L440 782 L340 720 L228 871 Z " />
<glyph glyph-name="Oacute" unicode="&#xd3;" horiz-adv-x="750" d="M376 -10 Q299 -10 237 15 Q175 40 131 86 Q87 132 63.5 197.5 Q40 263 40 345 Q40 423 65.5 488 Q91 553 135.5 600 Q180 647 241 673.5 Q302 700 374 700 Q451 700 513 675 Q575 650 619 604 Q663 558 686.5 492.5 Q710 427 710 345 Q710 267 684.5 202 Q659 137 614.5 90 Q570 43 509 16.5 Q448 -10 376 -10 Z M376 147 Q453 147 491 200 Q529 253 529 344 Q529 543 374 543 Q297 543 259 490 Q221 437 221 346 Q221 147 376 147 Z M386 720 L286 782 L380 946 L498 871 L386 720 Z " />
<glyph glyph-name="Ocircumflex" unicode="&#xd4;" horiz-adv-x="750" d="M376 -10 Q299 -10 237 15 Q175 40 131 86 Q87 132 63.5 197.5 Q40 263 40 345 Q40 423 65.5 488 Q91 553 135.5 600 Q180 647 241 673.5 Q302 700 374 700 Q451 700 513 675 Q575 650 619 604 Q663 558 686.5 492.5 Q710 427 710 345 Q710 267 684.5 202 Q659 137 614.5 90 Q570 43 509 16.5 Q448 -10 376 -10 Z M376 147 Q453 147 491 200 Q529 253 529 344 Q529 543 374 543 Q297 543 259 490 Q221 437 221 346 Q221 147 376 147 Z M374 828 L282 720 L194 782 L313 946 L436 946 L554 782 L466 720 L374 828 Z " />
<glyph glyph-name="Otilde" unicode="&#xd5;" horiz-adv-x="750" d="M376 -10 Q299 -10 237 15 Q175 40 131 86 Q87 132 63.5 197.5 Q40 263 40 345 Q40 423 65.5 488 Q91 553 135.5 600 Q180 647 241 673.5 Q302 700 374 700 Q451 700 513 675 Q575 650 619 604 Q663 558 686.5 492.5 Q710 427 710 345 Q710 267 684.5 202 Q659 137 614.5 90 Q570 43 509 16.5 Q448 -10 376 -10 Z M376 147 Q453 147 491 200 Q529 253 529 344 Q529 543 374 543 Q297 543 259 490 Q221 437 221 346 Q221 147 376 147 Z M180 800 Q197 845 231 870.5 Q265 896 297 896 Q319 896 336.5 889.5 Q354 883 368 874.5 Q382 866 395.5 859.5 Q409 853 424 853 Q443 853 456.5 863 Q470 873 486 896 L568 827 Q548 782 512 752 Q476 722 438 722 Q415 722 397.5 728.5 Q380 735 365.5 743.5 Q351 752 338 758.5 Q325 765 311 765 Q293 765 281 755 Q269 745 255 728 L180 800 Z " />
<glyph glyph-name="Odieresis" unicode="&#xd6;" horiz-adv-x="750" d="M376 -10 Q299 -10 237 15 Q175 40 131 86 Q87 132 63.5 197.5 Q40 263 40 345 Q40 423 65.5 488 Q91 553 135.5 600 Q180 647 241 673.5 Q302 700 374 700 Q451 700 513 675 Q575 650 619 604 Q663 558 686.5 492.5 Q710 427 710 345 Q710 267 684.5 202 Q659 137 614.5 90 Q570 43 509 16.5 Q448 -10 376 -10 Z M376 147 Q453 147 491 200 Q529 253 529 344 Q529 543 374 543 Q297 543 259 490 Q221 437 221 346 Q221 147 376 147 Z M277 737 Q241 737 220 758.5 Q199 780 199 815 Q199 853 220 874 Q241 895 277 895 Q315 895 336 874 Q357 853 357 815 Q357 780 336 758.5 Q315 737 277 737 Z M469 737 Q434 737 413 758.5 Q392 780 392 815 Q392 853 413 874 Q434 895 469 895 Q507 895 528 874 Q549 853 549 815 Q549 780 528 758.5 Q507 737 469 737 Z " />
<glyph glyph-name="multiply" unicode="&#xd7;" horiz-adv-x="482" d="M34 214 L146 326 L33 440 L127 534 L240 420 L355 535 L449 441 L334 326 L449 212 L355 118 L240 232 L128 120 L34 214 Z " />
<glyph glyph-name="Oslash" unicode="&#xd8;" horiz-adv-x="750" d="M59 45 L112 108 Q40 200 40 345 Q40 423 65.5 488 Q91 553 135.5 600 Q180 647 241 673.5 Q302 700 374 700 Q485 700 565 648 L611 703 L679 645 L632 589 Q670 543 690 481.5 Q710 420 710 345 Q710 267 684.5 202 Q659 137 614.5 90 Q570 43 509 16.5 Q448 -10 376 -10 Q317 -10 267 4.5 Q217 19 177 46 L127 -13 L59 45 Z M376 147 Q453 147 491 200 Q529 253 529 344 Q529 406 514 448 L283 173 Q318 147 376 147 Z M221 346 Q221 293 232 252 L459 522 Q424 543 374 543 Q297 543 259 490 Q221 437 221 346 Z " />
<glyph glyph-name="Ugrave" unicode="&#xd9;" horiz-adv-x="681" d="M338 -10 Q277 -10 226.5 6 Q176 22 140 54 Q104 86 84.5 134.5 Q65 183 65 249 L65 690 L240 691 L240 238 Q240 191 268 166.5 Q296 142 342 142 Q360 142 377.5 147 Q395 152 409.5 163.5 Q424 175 432.5 192.5 Q441 210 441 235 L441 690 L616 690 L616 253 Q616 191 596 142 Q576 93 540 59 Q504 25 452.5 7.5 Q401 -10 338 -10 Z M194 871 L311 946 L406 782 L306 720 L194 871 Z " />
<glyph glyph-name="Uacute" unicode="&#xda;" horiz-adv-x="681" d="M338 -10 Q277 -10 226.5 6 Q176 22 140 54 Q104 86 84.5 134.5 Q65 183 65 249 L65 690 L240 691 L240 238 Q240 191 268 166.5 Q296 142 342 142 Q360 142 377.5 147 Q395 152 409.5 163.5 Q424 175 432.5 192.5 Q441 210 441 235 L441 690 L616 690 L616 253 Q616 191 596 142 Q576 93 540 59 Q504 25 452.5 7.5 Q401 -10 338 -10 Z M352 720 L252 782 L346 946 L464 871 L352 720 Z " />
<glyph glyph-name="Ucircumflex" unicode="&#xdb;" horiz-adv-x="681" d="M338 -10 Q277 -10 226.5 6 Q176 22 140 54 Q104 86 84.5 134.5 Q65 183 65 249 L65 690 L240 691 L240 238 Q240 191 268 166.5 Q296 142 342 142 Q360 142 377.5 147 Q395 152 409.5 163.5 Q424 175 432.5 192.5 Q441 210 441 235 L441 690 L616 690 L616 253 Q616 191 596 142 Q576 93 540 59 Q504 25 452.5 7.5 Q401 -10 338 -10 Z M340 828 L248 720 L160 782 L279 946 L402 946 L520 782 L432 720 L340 828 Z " />
<glyph glyph-name="Udieresis" unicode="&#xdc;" horiz-adv-x="681" d="M338 -10 Q277 -10 226.5 6 Q176 22 140 54 Q104 86 84.5 134.5 Q65 183 65 249 L65 690 L240 691 L240 238 Q240 191 268 166.5 Q296 142 342 142 Q360 142 377.5 147 Q395 152 409.5 163.5 Q424 175 432.5 192.5 Q441 210 441 235 L441 690 L616 690 L616 253 Q616 191 596 142 Q576 93 540 59 Q504 25 452.5 7.5 Q401 -10 338 -10 Z M243 737 Q207 737 186 758.5 Q165 780 165 815 Q165 853 186 874 Q207 895 243 895 Q281 895 302 874 Q323 853 323 815 Q323 780 302 758.5 Q281 737 243 737 Z M435 737 Q400 737 379 758.5 Q358 780 358 815 Q358 853 379 874 Q400 895 435 895 Q473 895 494 874 Q515 853 515 815 Q515 780 494 758.5 Q473 737 435 737 Z " />
<glyph glyph-name="Yacute" unicode="&#xdd;" horiz-adv-x="638" d="M233 0 L233 226 L5 690 L195 690 L327 373 L460 690 L633 690 L408 226 L408 0 L233 0 Z M330 720 L230 782 L324 946 L442 871 L330 720 Z " />
<glyph glyph-name="Thorn" unicode="&#xde;" horiz-adv-x="589" d="M70 0 L70 690 L245 690 L245 586 L261 586 Q339 586 394.5 568 Q450 550 485.5 518 Q521 486 537.5 442.5 Q554 399 554 347 Q554 286 531 239.5 Q508 193 467 161.5 Q426 130 369 113.5 Q312 97 245 97 L245 0 L70 0 Z M373 346 Q373 375 364 393.5 Q355 412 338.5 423.5 Q322 435 298.5 439.5 Q275 444 245 444 L245 238 Q314 240 343.5 269 Q373 298 373 346 Z " />
<glyph glyph-name="germandbls" unicode="&#xdf;" horiz-adv-x="642" d="M61 0 L61 495 Q61 551 74 597.5 Q87 644 115.5 677.5 Q144 711 190 729.5 Q236 748 302 748 Q344 748 383 738.5 Q422 729 452 709.5 Q482 690 500 660 Q518 630 518 588 Q518 559 507.5 536.5 Q497 514 484 496 Q471 478 460.5 464.5 Q450 451 450 440 Q450 426 471.5 398.5 Q493 371 546 318 Q583 280 603.5 241.5 Q624 203 624 157 Q624 131 613 102 Q602 73 579 48 Q556 23 519 6.5 Q482 -10 430 -10 Q392 -10 363.5 0.5 Q335 11 314.5 29 Q294 47 280.5 70 Q267 93 259 118 L376 186 Q382 166 393 151 Q404 136 427 136 Q437 136 445.5 141.5 Q454 147 454 161 Q454 168 450 175.5 Q446 183 436.5 193.5 Q427 204 412 220 Q397 236 375 262 Q352 289 334.5 308 Q317 327 305 343 Q293 359 286.5 373.5 Q280 388 280 406 Q280 428 290.5 446.5 Q301 465 314 481.5 Q327 498 337.5 515 Q348 532 348 551 Q348 560 346 569 Q344 578 339 585.5 Q334 593 324.5 597.5 Q315 602 300 602 Q260 602 242.5 573.5 Q225 545 225 501 L225 0 L61 0 Z " />
<glyph glyph-name="agrave" unicode="&#xe0;" horiz-adv-x="530" d="M196 -10 Q161 -10 131 -0.5 Q101 9 78.5 28 Q56 47 43 76 Q30 105 30 144 Q30 225 90.5 265 Q151 305 261 305 L311 305 L311 315 Q311 353 293.5 368.5 Q276 384 233 384 Q198 384 165 367.5 Q132 351 107 325 L24 448 Q65 488 124 509.5 Q183 531 248 531 Q312 531 356 516.5 Q400 502 426 477 Q452 452 463.5 418.5 Q475 385 475 348 L475 0 L323 0 L323 45 Q298 15 265.5 2.5 Q233 -10 196 -10 Z M248 115 Q263 115 279.5 123 Q296 131 311 155 L311 203 L254 203 Q232 203 216 191 Q200 179 200 156 Q200 136 213 125.5 Q226 115 248 115 Z M114 702 L231 777 L326 613 L226 551 L114 702 Z " />
<glyph glyph-name="aacute" unicode="&#xe1;" horiz-adv-x="530" d="M196 -10 Q161 -10 131 -0.5 Q101 9 78.5 28 Q56 47 43 76 Q30 105 30 144 Q30 225 90.5 265 Q151 305 261 305 L311 305 L311 315 Q311 353 293.5 368.5 Q276 384 233 384 Q198 384 165 367.5 Q132 351 107 325 L24 448 Q65 488 124 509.5 Q183 531 248 531 Q312 531 356 516.5 Q400 502 426 477 Q452 452 463.5 418.5 Q475 385 475 348 L475 0 L323 0 L323 45 Q298 15 265.5 2.5 Q233 -10 196 -10 Z M248 115 Q263 115 279.5 123 Q296 131 311 155 L311 203 L254 203 Q232 203 216 191 Q200 179 200 156 Q200 136 213 125.5 Q226 115 248 115 Z M272 551 L172 613 L266 777 L384 702 L272 551 Z " />
<glyph glyph-name="acircumflex" unicode="&#xe2;" horiz-adv-x="530" d="M196 -10 Q161 -10 131 -0.5 Q101 9 78.5 28 Q56 47 43 76 Q30 105 30 144 Q30 225 90.5 265 Q151 305 261 305 L311 305 L311 315 Q311 353 293.5 368.5 Q276 384 233 384 Q198 384 165 367.5 Q132 351 107 325 L24 448 Q65 488 124 509.5 Q183 531 248 531 Q312 531 356 516.5 Q400 502 426 477 Q452 452 463.5 418.5 Q475 385 475 348 L475 0 L323 0 L323 45 Q298 15 265.5 2.5 Q233 -10 196 -10 Z M248 115 Q263 115 279.5 123 Q296 131 311 155 L311 203 L254 203 Q232 203 216 191 Q200 179 200 156 Q200 136 213 125.5 Q226 115 248 115 Z M260 659 L168 551 L80 613 L199 777 L322 777 L440 613 L352 551 L260 659 Z " />
<glyph glyph-name="atilde" unicode="&#xe3;" horiz-adv-x="530" d="M196 -10 Q161 -10 131 -0.5 Q101 9 78.5 28 Q56 47 43 76 Q30 105 30 144 Q30 225 90.5 265 Q151 305 261 305 L311 305 L311 315 Q311 353 293.5 368.5 Q276 384 233 384 Q198 384 165 367.5 Q132 351 107 325 L24 448 Q65 488 124 509.5 Q183 531 248 531 Q312 531 356 516.5 Q400 502 426 477 Q452 452 463.5 418.5 Q475 385 475 348 L475 0 L323 0 L323 45 Q298 15 265.5 2.5 Q233 -10 196 -10 Z M248 115 Q263 115 279.5 123 Q296 131 311 155 L311 203 L254 203 Q232 203 216 191 Q200 179 200 156 Q200 136 213 125.5 Q226 115 248 115 Z M66 631 Q83 676 117 701.5 Q151 727 183 727 Q205 727 222.5 720.5 Q240 714 254 705.5 Q268 697 281.5 690.5 Q295 684 310 684 Q329 684 342.5 694 Q356 704 372 727 L454 658 Q434 613 398 583 Q362 553 324 553 Q301 553 283.5 559.5 Q266 566 251.5 574.5 Q237 583 224 589.5 Q211 596 197 596 Q179 596 167 586 Q155 576 141 559 L66 631 Z " />
<glyph glyph-name="adieresis" unicode="&#xe4;" horiz-adv-x="530" d="M196 -10 Q161 -10 131 -0.5 Q101 9 78.5 28 Q56 47 43 76 Q30 105 30 144 Q30 225 90.5 265 Q151 305 261 305 L311 305 L311 315 Q311 353 293.5 368.5 Q276 384 233 384 Q198 384 165 367.5 Q132 351 107 325 L24 448 Q65 488 124 509.5 Q183 531 248 531 Q312 531 356 516.5 Q400 502 426 477 Q452 452 463.5 418.5 Q475 385 475 348 L475 0 L323 0 L323 45 Q298 15 265.5 2.5 Q233 -10 196 -10 Z M248 115 Q263 115 279.5 123 Q296 131 311 155 L311 203 L254 203 Q232 203 216 191 Q200 179 200 156 Q200 136 213 125.5 Q226 115 248 115 Z M163 568 Q127 568 106 589.5 Q85 611 85 646 Q85 684 106 705 Q127 726 163 726 Q201 726 222 705 Q243 684 243 646 Q243 611 222 589.5 Q201 568 163 568 Z M355 568 Q320 568 299 589.5 Q278 611 278 646 Q278 684 299 705 Q320 726 355 726 Q393 726 414 705 Q435 684 435 646 Q435 611 414 589.5 Q393 568 355 568 Z " />
<glyph glyph-name="aring" unicode="&#xe5;" horiz-adv-x="530" d="M196 -10 Q161 -10 131 -0.5 Q101 9 78.5 28 Q56 47 43 76 Q30 105 30 144 Q30 225 90.5 265 Q151 305 261 305 L311 305 L311 315 Q311 353 293.5 368.5 Q276 384 233 384 Q198 384 165 367.5 Q132 351 107 325 L24 448 Q65 488 124 509.5 Q183 531 248 531 Q312 531 356 516.5 Q400 502 426 477 Q452 452 463.5 418.5 Q475 385 475 348 L475 0 L323 0 L323 45 Q298 15 265.5 2.5 Q233 -10 196 -10 Z M248 115 Q263 115 279.5 123 Q296 131 311 155 L311 203 L254 203 Q232 203 216 191 Q200 179 200 156 Q200 136 213 125.5 Q226 115 248 115 Z M258 551 Q207 551 177 581 Q147 611 147 661 Q147 716 177 746.5 Q207 777 258 777 Q312 777 342.5 746.5 Q373 716 373 662 Q373 611 342.5 581 Q312 551 258 551 Z M259 626 Q278 626 288.5 636 Q299 646 299 663 Q299 681 288.5 691.5 Q278 702 259 702 Q242 702 232 691.5 Q222 681 222 663 Q222 646 232 636 Q242 626 259 626 Z " />
<glyph glyph-name="ae" unicode="&#xe6;" horiz-adv-x="778" d="M202 -10 Q165 -10 134 -0.5 Q103 9 80 28 Q57 47 44 76 Q31 105 31 144 Q31 225 91.5 265 Q152 305 262 305 L298 305 L298 315 Q298 353 282 368.5 Q266 384 234 384 Q199 384 165 367.5 Q131 351 108 325 L24 449 Q43 470 68.5 485.5 Q94 501 122.5 511 Q151 521 181.5 526 Q212 531 241 531 Q295 531 332.5 520 Q370 509 395 489 Q454 531 536 531 Q585 531 625 514 Q665 497 693.5 464 Q722 431 737.5 382.5 Q753 334 753 272 Q753 244 750 214 L460 214 Q472 130 539 130 Q564 130 585 145.5 Q606 161 616 184 L744 111 Q674 -10 539 -10 Q422 -10 357 61 Q330 29 290 9.5 Q250 -10 202 -10 Z M528 395 Q498 395 479.5 374 Q461 353 456 315 L594 315 Q590 353 574 374 Q558 395 528 395 Z M248 115 Q255 115 264 119 Q273 123 280.5 131.5 Q288 140 293 154 Q298 168 298 188 L298 203 L255 203 Q233 203 217 191 Q201 179 201 156 Q201 136 214 125.5 Q227 115 248 115 Z " />
<glyph glyph-name="ccedilla" unicode="&#xe7;" horiz-adv-x="500" d="M488 118 Q462 61 415 29.5 Q368 -2 303 -8 L303 -53 Q310 -51 316.5 -51 Q323 -51 325 -51 Q373 -51 399.5 -75.5 Q426 -100 426 -145 Q426 -179 412 -201 Q398 -223 375.5 -236 Q353 -249 325.5 -254.5 Q298 -260 271 -260 Q230 -260 198.5 -246 Q167 -232 152 -217 L198 -143 Q210 -151 228 -161.5 Q246 -172 275 -172 Q293 -172 305.5 -166 Q318 -160 318 -146 Q318 -121 270 -121 Q255 -121 241.5 -123 Q228 -125 219 -127 L219 -5 Q133 12 83.5 80.5 Q34 149 34 257 Q34 320 51.5 370.5 Q69 421 101 456.5 Q133 492 178 511.5 Q223 531 278 531 Q364 531 417.5 495 Q471 459 494 379 L341 331 Q327 384 277 384 Q239 384 221.5 355.5 Q204 327 204 260 Q204 193 222 164.5 Q240 136 280 136 Q312 136 328 153 Q344 170 354 193 L488 118 Z " />
<glyph glyph-name="egrave" unicode="&#xe8;" horiz-adv-x="541" d="M279 -10 Q223 -10 177.5 8.5 Q132 27 100 62 Q68 97 51 146 Q34 195 34 257 Q34 320 52 370.5 Q70 421 102.5 456.5 Q135 492 181 511.5 Q227 531 283 531 Q386 531 446 465 Q506 399 506 275 Q506 261 505 245.5 Q504 230 502 214 L202 214 Q208 170 228 150 Q248 130 280 130 Q308 130 327.5 145.5 Q347 161 358 184 L486 111 Q456 51 402.5 20.5 Q349 -10 279 -10 Z M275 395 Q243 395 226 373.5 Q209 352 204 315 L342 315 Q339 353 323 374 Q307 395 275 395 Z M137 702 L254 777 L349 613 L249 551 L137 702 Z " />
<glyph glyph-name="eacute" unicode="&#xe9;" horiz-adv-x="541" d="M279 -10 Q223 -10 177.5 8.5 Q132 27 100 62 Q68 97 51 146 Q34 195 34 257 Q34 320 52 370.5 Q70 421 102.5 456.5 Q135 492 181 511.5 Q227 531 283 531 Q386 531 446 465 Q506 399 506 275 Q506 261 505 245.5 Q504 230 502 214 L202 214 Q208 170 228 150 Q248 130 280 130 Q308 130 327.5 145.5 Q347 161 358 184 L486 111 Q456 51 402.5 20.5 Q349 -10 279 -10 Z M275 395 Q243 395 226 373.5 Q209 352 204 315 L342 315 Q339 353 323 374 Q307 395 275 395 Z M295 551 L195 613 L289 777 L407 702 L295 551 Z " />
<glyph glyph-name="ecircumflex" unicode="&#xea;" horiz-adv-x="541" d="M279 -10 Q223 -10 177.5 8.5 Q132 27 100 62 Q68 97 51 146 Q34 195 34 257 Q34 320 52 370.5 Q70 421 102.5 456.5 Q135 492 181 511.5 Q227 531 283 531 Q386 531 446 465 Q506 399 506 275 Q506 261 505 245.5 Q504 230 502 214 L202 214 Q208 170 228 150 Q248 130 280 130 Q308 130 327.5 145.5 Q347 161 358 184 L486 111 Q456 51 402.5 20.5 Q349 -10 279 -10 Z M275 395 Q243 395 226 373.5 Q209 352 204 315 L342 315 Q339 353 323 374 Q307 395 275 395 Z M283 659 L191 551 L103 613 L222 777 L345 777 L463 613 L375 551 L283 659 Z " />
<glyph glyph-name="edieresis" unicode="&#xeb;" horiz-adv-x="541" d="M279 -10 Q223 -10 177.5 8.5 Q132 27 100 62 Q68 97 51 146 Q34 195 34 257 Q34 320 52 370.5 Q70 421 102.5 456.5 Q135 492 181 511.5 Q227 531 283 531 Q386 531 446 465 Q506 399 506 275 Q506 261 505 245.5 Q504 230 502 214 L202 214 Q208 170 228 150 Q248 130 280 130 Q308 130 327.5 145.5 Q347 161 358 184 L486 111 Q456 51 402.5 20.5 Q349 -10 279 -10 Z M275 395 Q243 395 226 373.5 Q209 352 204 315 L342 315 Q339 353 323 374 Q307 395 275 395 Z M186 568 Q150 568 129 589.5 Q108 611 108 646 Q108 684 129 705 Q150 726 186 726 Q224 726 245 705 Q266 684 266 646 Q266 611 245 589.5 Q224 568 186 568 Z M378 568 Q343 568 322 589.5 Q301 611 301 646 Q301 684 322 705 Q343 726 378 726 Q416 726 437 705 Q458 684 458 646 Q458 611 437 589.5 Q416 568 378 568 Z " />
<glyph glyph-name="igrave" unicode="&#xec;" horiz-adv-x="286" d="M61 0 L61 521 L225 521 L225 0 L61 0 Z M-3 702 L114 777 L209 613 L109 551 L-3 702 Z " />
<glyph glyph-name="iacute" unicode="&#xed;" horiz-adv-x="286" d="M61 0 L61 521 L225 521 L225 0 L61 0 Z M155 551 L55 613 L149 777 L267 702 L155 551 Z " />
<glyph glyph-name="icircumflex" unicode="&#xee;" horiz-adv-x="286" d="M61 0 L61 521 L225 521 L225 0 L61 0 Z M143 659 L51 551 L-37 613 L82 777 L205 777 L323 613 L235 551 L143 659 Z " />
<glyph glyph-name="idieresis" unicode="&#xef;" horiz-adv-x="286" d="M61 0 L61 521 L225 521 L225 0 L61 0 Z M46 568 Q10 568 -11 589.5 Q-32 611 -32 646 Q-32 684 -11 705 Q10 726 46 726 Q84 726 105 705 Q126 684 126 646 Q126 611 105 589.5 Q84 568 46 568 Z M238 568 Q203 568 182 589.5 Q161 611 161 646 Q161 684 182 705 Q203 726 238 726 Q276 726 297 705 Q318 684 318 646 Q318 611 297 589.5 Q276 568 238 568 Z " />
<glyph glyph-name="eth" unicode="&#xf0;" horiz-adv-x="584" d="M215 740 L262 716 L293 759 L345 723 L317 684 Q429 611 488 511.5 Q547 412 550 276 L550 264 Q550 201 530.5 150.5 Q511 100 476.5 64.5 Q442 29 394.5 9.5 Q347 -10 292 -10 Q233 -10 185.5 8.5 Q138 27 104 62 Q70 97 52 146 Q34 195 34 257 Q34 320 53.5 370.5 Q73 421 107.5 456.5 Q142 492 189.5 511.5 Q237 531 292 531 L306 531 Q282 560 246 586 L216 544 L166 581 L194 621 L155 642 L215 740 Z M292 136 Q332 136 356 165 Q380 194 380 261 Q380 327 357 355.5 Q334 384 292 384 Q252 384 228 355.5 Q204 327 204 260 Q204 193 227 164.5 Q250 136 292 136 Z " />
<glyph glyph-name="ntilde" unicode="&#xf1;" horiz-adv-x="584" d="M61 0 L61 521 L213 521 L213 473 Q236 497 271 514 Q306 531 357 531 Q401 531 433.5 516.5 Q466 502 487 477 Q508 452 518 418.5 Q528 385 528 348 L528 0 L363 0 L363 315 Q363 354 344.5 369 Q326 384 308 384 Q276 384 257.5 373 Q239 362 225 347 L225 0 L61 0 Z M97 631 Q114 676 148 701.5 Q182 727 214 727 Q236 727 253.5 720.5 Q271 714 285 705.5 Q299 697 312.5 690.5 Q326 684 341 684 Q360 684 373.5 694 Q387 704 403 727 L485 658 Q465 613 429 583 Q393 553 355 553 Q332 553 314.5 559.5 Q297 566 282.5 574.5 Q268 583 255 589.5 Q242 596 228 596 Q210 596 198 586 Q186 576 172 559 L97 631 Z " />
<glyph glyph-name="ograve" unicode="&#xf2;" horiz-adv-x="584" d="M292 -10 Q233 -10 185.5 8.5 Q138 27 104 62 Q70 97 52 146 Q34 195 34 257 Q34 320 53.5 370.5 Q73 421 107.5 456.5 Q142 492 189.5 511.5 Q237 531 292 531 Q351 531 398.5 512.5 Q446 494 480 459 Q514 424 532 374.5 Q550 325 550 264 Q550 201 530.5 150.5 Q511 100 476.5 64.5 Q442 29 394.5 9.5 Q347 -10 292 -10 Z M292 136 Q332 136 356 165 Q380 194 380 261 Q380 327 357 355.5 Q334 384 292 384 Q252 384 228 355.5 Q204 327 204 260 Q204 193 227 164.5 Q250 136 292 136 Z M146 702 L263 777 L358 613 L258 551 L146 702 Z " />
<glyph glyph-name="oacute" unicode="&#xf3;" horiz-adv-x="584" d="M292 -10 Q233 -10 185.5 8.5 Q138 27 104 62 Q70 97 52 146 Q34 195 34 257 Q34 320 53.5 370.5 Q73 421 107.5 456.5 Q142 492 189.5 511.5 Q237 531 292 531 Q351 531 398.5 512.5 Q446 494 480 459 Q514 424 532 374.5 Q550 325 550 264 Q550 201 530.5 150.5 Q511 100 476.5 64.5 Q442 29 394.5 9.5 Q347 -10 292 -10 Z M292 136 Q332 136 356 165 Q380 194 380 261 Q380 327 357 355.5 Q334 384 292 384 Q252 384 228 355.5 Q204 327 204 260 Q204 193 227 164.5 Q250 136 292 136 Z M304 551 L204 613 L298 777 L416 702 L304 551 Z " />
<glyph glyph-name="ocircumflex" unicode="&#xf4;" horiz-adv-x="584" d="M292 -10 Q233 -10 185.5 8.5 Q138 27 104 62 Q70 97 52 146 Q34 195 34 257 Q34 320 53.5 370.5 Q73 421 107.5 456.5 Q142 492 189.5 511.5 Q237 531 292 531 Q351 531 398.5 512.5 Q446 494 480 459 Q514 424 532 374.5 Q550 325 550 264 Q550 201 530.5 150.5 Q511 100 476.5 64.5 Q442 29 394.5 9.5 Q347 -10 292 -10 Z M292 136 Q332 136 356 165 Q380 194 380 261 Q380 327 357 355.5 Q334 384 292 384 Q252 384 228 355.5 Q204 327 204 260 Q204 193 227 164.5 Q250 136 292 136 Z M292 659 L200 551 L112 613 L231 777 L354 777 L472 613 L384 551 L292 659 Z " />
<glyph glyph-name="otilde" unicode="&#xf5;" horiz-adv-x="584" d="M292 -10 Q233 -10 185.5 8.5 Q138 27 104 62 Q70 97 52 146 Q34 195 34 257 Q34 320 53.5 370.5 Q73 421 107.5 456.5 Q142 492 189.5 511.5 Q237 531 292 531 Q351 531 398.5 512.5 Q446 494 480 459 Q514 424 532 374.5 Q550 325 550 264 Q550 201 530.5 150.5 Q511 100 476.5 64.5 Q442 29 394.5 9.5 Q347 -10 292 -10 Z M292 136 Q332 136 356 165 Q380 194 380 261 Q380 327 357 355.5 Q334 384 292 384 Q252 384 228 355.5 Q204 327 204 260 Q204 193 227 164.5 Q250 136 292 136 Z M98 631 Q115 676 149 701.5 Q183 727 215 727 Q237 727 254.5 720.5 Q272 714 286 705.5 Q300 697 313.5 690.5 Q327 684 342 684 Q361 684 374.5 694 Q388 704 404 727 L486 658 Q466 613 430 583 Q394 553 356 553 Q333 553 315.5 559.5 Q298 566 283.5 574.5 Q269 583 256 589.5 Q243 596 229 596 Q211 596 199 586 Q187 576 173 559 L98 631 Z " />
<glyph glyph-name="odieresis" unicode="&#xf6;" horiz-adv-x="584" d="M292 -10 Q233 -10 185.5 8.5 Q138 27 104 62 Q70 97 52 146 Q34 195 34 257 Q34 320 53.5 370.5 Q73 421 107.5 456.5 Q142 492 189.5 511.5 Q237 531 292 531 Q351 531 398.5 512.5 Q446 494 480 459 Q514 424 532 374.5 Q550 325 550 264 Q550 201 530.5 150.5 Q511 100 476.5 64.5 Q442 29 394.5 9.5 Q347 -10 292 -10 Z M292 136 Q332 136 356 165 Q380 194 380 261 Q380 327 357 355.5 Q334 384 292 384 Q252 384 228 355.5 Q204 327 204 260 Q204 193 227 164.5 Q250 136 292 136 Z M195 568 Q159 568 138 589.5 Q117 611 117 646 Q117 684 138 705 Q159 726 195 726 Q233 726 254 705 Q275 684 275 646 Q275 611 254 589.5 Q233 568 195 568 Z M387 568 Q352 568 331 589.5 Q310 611 310 646 Q310 684 331 705 Q352 726 387 726 Q425 726 446 705 Q467 684 467 646 Q467 611 446 589.5 Q425 568 387 568 Z " />
<glyph glyph-name="divide" unicode="&#xf7;" horiz-adv-x="482" d="M34 394 L448 394 L448 261 L34 261 L34 394 Z M137 131 Q137 176 164.5 203.5 Q192 231 237 231 Q282 231 309.5 203.5 Q337 176 337 131 Q337 86 309.5 58.5 Q282 31 237 31 Q192 31 164.5 58.5 Q137 86 137 131 Z M135 524 Q135 569 162.5 596.5 Q190 624 235 624 Q280 624 307.5 596.5 Q335 569 335 524 Q335 479 307.5 451.5 Q280 424 235 424 Q190 424 162.5 451.5 Q135 479 135 524 Z " />
<glyph glyph-name="oslash" unicode="&#xf8;" horiz-adv-x="584" d="M50 45 L84 86 Q60 119 47 162 Q34 205 34 257 Q34 320 53.5 370.5 Q73 421 107.5 456.5 Q142 492 189.5 511.5 Q237 531 292 531 Q331 531 365.5 522.5 Q400 514 429 498 L458 532 L526 475 L496 439 Q550 371 550 264 Q550 201 530.5 150.5 Q511 100 476.5 64.5 Q442 29 394.5 9.5 Q347 -10 292 -10 Q209 -10 150 25 L118 -13 L50 45 Z M292 136 Q332 136 356 165 Q380 194 380 261 Q380 271 379.5 280.5 Q379 290 378 298 L250 145 Q268 136 292 136 Z M204 260 Q204 252 204 244.5 Q204 237 205 230 L328 377 Q314 384 292 384 Q252 384 228 355.5 Q204 327 204 260 Z " />
<glyph glyph-name="ugrave" unicode="&#xf9;" horiz-adv-x="564" d="M215 -10 Q173 -10 143 4.5 Q113 19 93.5 44 Q74 69 64.5 102 Q55 135 55 173 L55 521 L219 521 L219 206 Q219 167 233 151.5 Q247 136 264 136 Q292 136 308.5 146.5 Q325 157 337 171 L337 521 L502 521 L502 0 L349 0 L349 43 Q326 20 294 5 Q262 -10 215 -10 Z M135 702 L252 777 L347 613 L247 551 L135 702 Z " />
<glyph glyph-name="uacute" unicode="&#xfa;" horiz-adv-x="564" d="M215 -10 Q173 -10 143 4.5 Q113 19 93.5 44 Q74 69 64.5 102 Q55 135 55 173 L55 521 L219 521 L219 206 Q219 167 233 151.5 Q247 136 264 136 Q292 136 308.5 146.5 Q325 157 337 171 L337 521 L502 521 L502 0 L349 0 L349 43 Q326 20 294 5 Q262 -10 215 -10 Z M293 551 L193 613 L287 777 L405 702 L293 551 Z " />
<glyph glyph-name="ucircumflex" unicode="&#xfb;" horiz-adv-x="564" d="M215 -10 Q173 -10 143 4.5 Q113 19 93.5 44 Q74 69 64.5 102 Q55 135 55 173 L55 521 L219 521 L219 206 Q219 167 233 151.5 Q247 136 264 136 Q292 136 308.5 146.5 Q325 157 337 171 L337 521 L502 521 L502 0 L349 0 L349 43 Q326 20 294 5 Q262 -10 215 -10 Z M281 659 L189 551 L101 613 L220 777 L343 777 L461 613 L373 551 L281 659 Z " />
<glyph glyph-name="udieresis" unicode="&#xfc;" horiz-adv-x="564" d="M215 -10 Q173 -10 143 4.5 Q113 19 93.5 44 Q74 69 64.5 102 Q55 135 55 173 L55 521 L219 521 L219 206 Q219 167 233 151.5 Q247 136 264 136 Q292 136 308.5 146.5 Q325 157 337 171 L337 521 L502 521 L502 0 L349 0 L349 43 Q326 20 294 5 Q262 -10 215 -10 Z M184 568 Q148 568 127 589.5 Q106 611 106 646 Q106 684 127 705 Q148 726 184 726 Q222 726 243 705 Q264 684 264 646 Q264 611 243 589.5 Q222 568 184 568 Z M376 568 Q341 568 320 589.5 Q299 611 299 646 Q299 684 320 705 Q341 726 376 726 Q414 726 435 705 Q456 684 456 646 Q456 611 435 589.5 Q414 568 376 568 Z " />
<glyph glyph-name="yacute" unicode="&#xfd;" horiz-adv-x="563" d="M212 -22 L4 521 L182 521 L287 169 L397 521 L565 521 L349 -41 Q330 -91 306 -129.5 Q282 -168 250.5 -195 Q219 -222 178 -236 Q137 -250 83 -250 L26 -250 L26 -121 L79 -121 Q125 -121 150.5 -104.5 Q176 -88 197 -49 L212 -22 Z M291 551 L191 613 L285 777 L403 702 L291 551 Z " />
<glyph glyph-name="thorn" unicode="&#xfe;" horiz-adv-x="590" d="M61 -250 L61 740 L225 740 L225 496 Q245 513 271.5 522 Q298 531 331 531 Q437 531 494.5 463 Q552 395 552 266 Q552 203 533 152 Q514 101 482.5 65 Q451 29 409.5 9.5 Q368 -10 323 -10 Q292 -10 268 -3 Q244 4 225 17 L225 -250 L61 -250 Z M293 384 Q279 384 257.5 374.5 Q236 365 225 344 L225 174 Q243 136 294 136 Q336 136 359 165.5 Q382 195 382 262 Q382 329 361 356.5 Q340 384 293 384 Z " />
<glyph glyph-name="ydieresis" unicode="&#xff;" horiz-adv-x="563" d="M212 -22 L4 521 L182 521 L287 169 L397 521 L565 521 L349 -41 Q330 -91 306 -129.5 Q282 -168 250.5 -195 Q219 -222 178 -236 Q137 -250 83 -250 L26 -250 L26 -121 L79 -121 Q125 -121 150.5 -104.5 Q176 -88 197 -49 L212 -22 Z M182 568 Q146 568 125 589.5 Q104 611 104 646 Q104 684 125 705 Q146 726 182 726 Q220 726 241 705 Q262 684 262 646 Q262 611 241 589.5 Q220 568 182 568 Z M374 568 Q339 568 318 589.5 Q297 611 297 646 Q297 684 318 705 Q339 726 374 726 Q412 726 433 705 Q454 684 454 646 Q454 611 433 589.5 Q412 568 374 568 Z " />
<glyph glyph-name="Amacron" unicode="&#x100;" horiz-adv-x="716" d="M12 0 L284 690 L434 690 L704 0 L512 0 L475 111 L227 111 L188 0 L12 0 Z M277 252 L427 252 L354 470 L277 252 Z M208 769 L208 883 L507 883 L507 769 L208 769 Z " />
<glyph glyph-name="amacron" unicode="&#x101;" horiz-adv-x="530" d="M196 -10 Q161 -10 131 -0.5 Q101 9 78.5 28 Q56 47 43 76 Q30 105 30 144 Q30 225 90.5 265 Q151 305 261 305 L311 305 L311 315 Q311 353 293.5 368.5 Q276 384 233 384 Q198 384 165 367.5 Q132 351 107 325 L24 448 Q65 488 124 509.5 Q183 531 248 531 Q312 531 356 516.5 Q400 502 426 477 Q452 452 463.5 418.5 Q475 385 475 348 L475 0 L323 0 L323 45 Q298 15 265.5 2.5 Q233 -10 196 -10 Z M248 115 Q263 115 279.5 123 Q296 131 311 155 L311 203 L254 203 Q232 203 216 191 Q200 179 200 156 Q200 136 213 125.5 Q226 115 248 115 Z M111 600 L111 714 L410 714 L410 600 L111 600 Z " />
<glyph glyph-name="Abreve" unicode="&#x102;" horiz-adv-x="716" d="M12 0 L284 690 L434 690 L704 0 L512 0 L475 111 L227 111 L188 0 L12 0 Z M277 252 L427 252 L354 470 L277 252 Z M357 720 Q284 720 238.5 772.5 Q193 825 176 925 L277 952 Q290 895 307.5 867.5 Q325 840 357 840 Q389 840 407 867.5 Q425 895 437 952 L539 925 Q522 825 476.5 772.5 Q431 720 357 720 Z " />
<glyph glyph-name="abreve" unicode="&#x103;" horiz-adv-x="530" d="M196 -10 Q161 -10 131 -0.5 Q101 9 78.5 28 Q56 47 43 76 Q30 105 30 144 Q30 225 90.5 265 Q151 305 261 305 L311 305 L311 315 Q311 353 293.5 368.5 Q276 384 233 384 Q198 384 165 367.5 Q132 351 107 325 L24 448 Q65 488 124 509.5 Q183 531 248 531 Q312 531 356 516.5 Q400 502 426 477 Q452 452 463.5 418.5 Q475 385 475 348 L475 0 L323 0 L323 45 Q298 15 265.5 2.5 Q233 -10 196 -10 Z M248 115 Q263 115 279.5 123 Q296 131 311 155 L311 203 L254 203 Q232 203 216 191 Q200 179 200 156 Q200 136 213 125.5 Q226 115 248 115 Z M260 551 Q187 551 141.5 603.5 Q96 656 79 756 L180 783 Q193 726 210.5 698.5 Q228 671 260 671 Q292 671 310 698.5 Q328 726 340 783 L442 756 Q425 656 379.5 603.5 Q334 551 260 551 Z " />
<glyph glyph-name="Aogonek" unicode="&#x104;" horiz-adv-x="716" d="M12 0 L284 690 L434 690 L704 0 L578 0 Q554 -29 539.5 -55 Q525 -81 525 -115 Q525 -142 537 -157.5 Q549 -173 570 -173 Q592 -173 609.5 -161.5 Q627 -150 642 -132 L697 -189 Q691 -198 679 -210 Q667 -222 649 -233.5 Q631 -245 607 -252.5 Q583 -260 553 -260 Q489 -260 453 -229 Q417 -198 417 -141 Q417 -97 439 -58 Q461 -19 502 29 L475 111 L227 111 L188 0 L12 0 Z M277 252 L427 252 L354 470 L277 252 Z " />
<glyph glyph-name="aogonek" unicode="&#x105;" horiz-adv-x="530" d="M196 -10 Q161 -10 131 -0.5 Q101 9 78.5 28 Q56 47 43 76 Q30 105 30 144 Q30 225 90.5 265 Q151 305 261 305 L311 305 L311 315 Q311 353 293.5 368.5 Q276 384 233 384 Q198 384 165 367.5 Q132 351 107 325 L24 448 Q65 488 124 509.5 Q183 531 248 531 Q312 531 356 516.5 Q400 502 426 477 Q452 452 463.5 418.5 Q475 385 475 348 L475 0 L407 0 Q383 -29 369 -55.5 Q355 -82 355 -115 Q355 -142 367 -157.5 Q379 -173 399 -173 Q422 -173 439 -161.5 Q456 -150 472 -132 L527 -189 Q521 -198 509 -210 Q497 -222 479 -233.5 Q461 -245 437 -252.5 Q413 -260 382 -260 Q319 -260 283 -229 Q247 -198 247 -141 Q247 -101 266.5 -63.5 Q286 -26 323 18 L323 45 Q298 15 265.5 2.5 Q233 -10 196 -10 Z M248 115 Q263 115 279.5 123 Q296 131 311 155 L311 203 L254 203 Q232 203 216 191 Q200 179 200 156 Q200 136 213 125.5 Q226 115 248 115 Z " />
<glyph glyph-name="Cacute" unicode="&#x106;" horiz-adv-x="652" d="M362 -10 Q288 -10 228.5 15 Q169 40 127 86 Q85 132 62.5 197.5 Q40 263 40 344 Q40 426 64.5 492 Q89 558 132 604.5 Q175 651 234 675.5 Q293 700 362 700 Q422 700 466 685.5 Q510 671 541.5 646.5 Q573 622 594 590.5 Q615 559 630 525 L463 462 Q448 497 423 520 Q398 543 354 543 Q289 543 255 489 Q221 435 221 345 Q221 147 367 147 Q411 147 444.5 170 Q478 193 503 230 L632 133 Q589 67 521.5 28.5 Q454 -10 362 -10 Z M357 720 L257 782 L351 946 L469 871 L357 720 Z " />
<glyph glyph-name="cacute" unicode="&#x107;" horiz-adv-x="500" d="M488 118 Q459 55 404.5 22.5 Q350 -10 274 -10 Q220 -10 175.5 8.5 Q131 27 99.5 62 Q68 97 51 146 Q34 195 34 257 Q34 320 51.5 370.5 Q69 421 101 456.5 Q133 492 178 511.5 Q223 531 278 531 Q364 531 417.5 495 Q471 459 494 379 L341 331 Q327 384 277 384 Q239 384 221.5 355.5 Q204 327 204 260 Q204 193 222 164.5 Q240 136 280 136 Q312 136 328 153 Q344 170 354 193 L488 118 Z M296 551 L196 613 L290 777 L408 702 L296 551 Z " />
<glyph glyph-name="Ccircumflex" unicode="&#x108;" horiz-adv-x="652" d="M362 -10 Q288 -10 228.5 15 Q169 40 127 86 Q85 132 62.5 197.5 Q40 263 40 344 Q40 426 64.5 492 Q89 558 132 604.5 Q175 651 234 675.5 Q293 700 362 700 Q422 700 466 685.5 Q510 671 541.5 646.5 Q573 622 594 590.5 Q615 559 630 525 L463 462 Q448 497 423 520 Q398 543 354 543 Q289 543 255 489 Q221 435 221 345 Q221 147 367 147 Q411 147 444.5 170 Q478 193 503 230 L632 133 Q589 67 521.5 28.5 Q454 -10 362 -10 Z M355 828 L263 720 L175 782 L294 946 L417 946 L535 782 L447 720 L355 828 Z " />
<glyph glyph-name="ccircumflex" unicode="&#x109;" horiz-adv-x="500" d="M488 118 Q459 55 404.5 22.5 Q350 -10 274 -10 Q220 -10 175.5 8.5 Q131 27 99.5 62 Q68 97 51 146 Q34 195 34 257 Q34 320 51.5 370.5 Q69 421 101 456.5 Q133 492 178 511.5 Q223 531 278 531 Q364 531 417.5 495 Q471 459 494 379 L341 331 Q327 384 277 384 Q239 384 221.5 355.5 Q204 327 204 260 Q204 193 222 164.5 Q240 136 280 136 Q312 136 328 153 Q344 170 354 193 L488 118 Z M284 659 L192 551 L104 613 L223 777 L346 777 L464 613 L376 551 L284 659 Z " />
<glyph glyph-name="Cdotaccent" unicode="&#x10a;" horiz-adv-x="652" d="M362 -10 Q288 -10 228.5 15 Q169 40 127 86 Q85 132 62.5 197.5 Q40 263 40 344 Q40 426 64.5 492 Q89 558 132 604.5 Q175 651 234 675.5 Q293 700 362 700 Q422 700 466 685.5 Q510 671 541.5 646.5 Q573 622 594 590.5 Q615 559 630 525 L463 462 Q448 497 423 520 Q398 543 354 543 Q289 543 255 489 Q221 435 221 345 Q221 147 367 147 Q411 147 444.5 170 Q478 193 503 230 L632 133 Q589 67 521.5 28.5 Q454 -10 362 -10 Z M354 737 Q314 737 291 761 Q268 785 268 824 Q268 866 291 890 Q314 914 354 914 Q396 914 420.5 890 Q445 866 445 824 Q445 785 420.5 761 Q396 737 354 737 Z " />
<glyph glyph-name="cdotaccent" unicode="&#x10b;" horiz-adv-x="500" d="M488 118 Q459 55 404.5 22.5 Q350 -10 274 -10 Q220 -10 175.5 8.5 Q131 27 99.5 62 Q68 97 51 146 Q34 195 34 257 Q34 320 51.5 370.5 Q69 421 101 456.5 Q133 492 178 511.5 Q223 531 278 531 Q364 531 417.5 495 Q471 459 494 379 L341 331 Q327 384 277 384 Q239 384 221.5 355.5 Q204 327 204 260 Q204 193 222 164.5 Q240 136 280 136 Q312 136 328 153 Q344 170 354 193 L488 118 Z M283 568 Q243 568 220 592 Q197 616 197 655 Q197 697 220 721 Q243 745 283 745 Q325 745 349.5 721 Q374 697 374 655 Q374 616 349.5 592 Q325 568 283 568 Z " />
<glyph glyph-name="Ccaron" unicode="&#x10c;" horiz-adv-x="652" d="M362 -10 Q288 -10 228.5 15 Q169 40 127 86 Q85 132 62.5 197.5 Q40 263 40 344 Q40 426 64.5 492 Q89 558 132 604.5 Q175 651 234 675.5 Q293 700 362 700 Q422 700 466 685.5 Q510 671 541.5 646.5 Q573 622 594 590.5 Q615 559 630 525 L463 462 Q448 497 423 520 Q398 543 354 543 Q289 543 255 489 Q221 435 221 345 Q221 147 367 147 Q411 147 444.5 170 Q478 193 503 230 L632 133 Q589 67 521.5 28.5 Q454 -10 362 -10 Z M438 946 L526 884 L407 720 L284 720 L166 884 L254 946 L346 838 L438 946 Z " />
<glyph glyph-name="ccaron" unicode="&#x10d;" horiz-adv-x="500" d="M488 118 Q459 55 404.5 22.5 Q350 -10 274 -10 Q220 -10 175.5 8.5 Q131 27 99.5 62 Q68 97 51 146 Q34 195 34 257 Q34 320 51.5 370.5 Q69 421 101 456.5 Q133 492 178 511.5 Q223 531 278 531 Q364 531 417.5 495 Q471 459 494 379 L341 331 Q327 384 277 384 Q239 384 221.5 355.5 Q204 327 204 260 Q204 193 222 164.5 Q240 136 280 136 Q312 136 328 153 Q344 170 354 193 L488 118 Z M367 777 L455 715 L336 551 L213 551 L95 715 L183 777 L275 669 L367 777 Z " />
<glyph glyph-name="Dcaron" unicode="&#x10e;" horiz-adv-x="706" d="M70 0 L70 690 L306 690 Q390 690 456.5 666.5 Q523 643 569.5 599 Q616 555 641 491 Q666 427 666 345 Q666 272 639.5 209 Q613 146 564.5 99.5 Q516 53 446 26.5 Q376 0 289 0 L70 0 Z M286 141 Q340 141 377.5 157.5 Q415 174 439 202 Q463 230 474 267 Q485 304 485 345 Q485 391 475 428.5 Q465 466 443.5 492 Q422 518 388 532 Q354 546 305 546 L245 546 L245 141 L286 141 Z M385 946 L473 884 L354 720 L231 720 L113 884 L201 946 L293 838 L385 946 Z " />
<glyph glyph-name="dcaron" unicode="&#x10f;" horiz-adv-x="731" d="M254 -10 Q148 -10 91 58 Q34 126 34 255 Q34 318 53 369 Q72 420 103.5 456 Q135 492 176.5 511.5 Q218 531 263 531 Q293 531 316.5 524 Q340 517 359 504 L359 740 L523 740 L523 0 L371 0 L371 35 Q350 14 321 2 Q292 -10 254 -10 Z M292 136 Q306 136 326.5 145 Q347 154 359 174 L359 348 Q340 384 292 384 Q250 384 227 355 Q204 326 204 258 Q204 192 224 164 Q244 136 292 136 Z M592 740 L741 740 L691 553 L575 554 L592 740 Z " />
<glyph glyph-name="Dcroat" unicode="&#x110;" horiz-adv-x="718" d="M10 398 L82 398 L82 690 L318 690 Q402 690 468.5 666.5 Q535 643 581.5 599 Q628 555 653 491 Q678 427 678 345 Q678 272 651.5 209 Q625 146 576.5 99.5 Q528 53 458 26.5 Q388 0 301 0 L82 0 L82 308 L10 308 L10 398 Z M257 546 L257 398 L375 398 L375 308 L257 308 L257 141 L298 141 Q349 141 386.5 156.5 Q424 172 448.5 199 Q473 226 485 263.5 Q497 301 497 345 Q497 391 487 428.5 Q477 466 455.5 492 Q434 518 400 532 Q366 546 317 546 L257 546 Z " />
<glyph glyph-name="dcroat" unicode="&#x111;" horiz-adv-x="578" d="M523 578 L523 0 L371 0 L371 35 Q350 14 321 2 Q292 -10 254 -10 Q148 -10 91 58 Q34 126 34 255 Q34 318 53 369 Q72 420 103.5 456 Q135 492 176.5 511.5 Q218 531 263 531 Q293 531 316.5 524 Q340 517 359 504 L359 578 L267 578 L267 692 L359 692 L359 740 L523 740 L523 692 L566 692 L566 578 L523 578 Z M292 136 Q306 136 326.5 145 Q347 154 359 174 L359 348 Q340 384 292 384 Q250 384 227 355 Q204 326 204 258 Q204 192 224 164 Q244 136 292 136 Z " />
<glyph glyph-name="Emacron" unicode="&#x112;" horiz-adv-x="565" d="M70 0 L70 690 L519 690 L519 549 L245 549 L245 428 L434 428 L434 286 L245 286 L245 141 L525 141 L525 0 L70 0 Z M153 769 L153 883 L452 883 L452 769 L153 769 Z " />
<glyph glyph-name="emacron" unicode="&#x113;" horiz-adv-x="541" d="M279 -10 Q223 -10 177.5 8.5 Q132 27 100 62 Q68 97 51 146 Q34 195 34 257 Q34 320 52 370.5 Q70 421 102.5 456.5 Q135 492 181 511.5 Q227 531 283 531 Q386 531 446 465 Q506 399 506 275 Q506 261 505 245.5 Q504 230 502 214 L202 214 Q208 170 228 150 Q248 130 280 130 Q308 130 327.5 145.5 Q347 161 358 184 L486 111 Q456 51 402.5 20.5 Q349 -10 279 -10 Z M275 395 Q243 395 226 373.5 Q209 352 204 315 L342 315 Q339 353 323 374 Q307 395 275 395 Z M134 600 L134 714 L433 714 L433 600 L134 600 Z " />
<glyph glyph-name="Ebreve" unicode="&#x114;" horiz-adv-x="565" d="M70 0 L70 690 L519 690 L519 549 L245 549 L245 428 L434 428 L434 286 L245 286 L245 141 L525 141 L525 0 L70 0 Z M302 720 Q229 720 183.5 772.5 Q138 825 121 925 L222 952 Q235 895 252.5 867.5 Q270 840 302 840 Q334 840 352 867.5 Q370 895 382 952 L484 925 Q467 825 421.5 772.5 Q376 720 302 720 Z " />
<glyph glyph-name="ebreve" unicode="&#x115;" horiz-adv-x="541" d="M279 -10 Q223 -10 177.5 8.5 Q132 27 100 62 Q68 97 51 146 Q34 195 34 257 Q34 320 52 370.5 Q70 421 102.5 456.5 Q135 492 181 511.5 Q227 531 283 531 Q386 531 446 465 Q506 399 506 275 Q506 261 505 245.5 Q504 230 502 214 L202 214 Q208 170 228 150 Q248 130 280 130 Q308 130 327.5 145.5 Q347 161 358 184 L486 111 Q456 51 402.5 20.5 Q349 -10 279 -10 Z M275 395 Q243 395 226 373.5 Q209 352 204 315 L342 315 Q339 353 323 374 Q307 395 275 395 Z M283 551 Q210 551 164.5 603.5 Q119 656 102 756 L203 783 Q216 726 233.5 698.5 Q251 671 283 671 Q315 671 333 698.5 Q351 726 363 783 L465 756 Q448 656 402.5 603.5 Q357 551 283 551 Z " />
<glyph glyph-name="Edotaccent" unicode="&#x116;" horiz-adv-x="565" d="M70 0 L70 690 L519 690 L519 549 L245 549 L245 428 L434 428 L434 286 L245 286 L245 141 L525 141 L525 0 L70 0 Z M301 737 Q261 737 238 761 Q215 785 215 824 Q215 866 238 890 Q261 914 301 914 Q343 914 367.5 890 Q392 866 392 824 Q392 785 367.5 761 Q343 737 301 737 Z " />
<glyph glyph-name="edotaccent" unicode="&#x117;" horiz-adv-x="541" d="M279 -10 Q223 -10 177.5 8.5 Q132 27 100 62 Q68 97 51 146 Q34 195 34 257 Q34 320 52 370.5 Q70 421 102.5 456.5 Q135 492 181 511.5 Q227 531 283 531 Q386 531 446 465 Q506 399 506 275 Q506 261 505 245.5 Q504 230 502 214 L202 214 Q208 170 228 150 Q248 130 280 130 Q308 130 327.5 145.5 Q347 161 358 184 L486 111 Q456 51 402.5 20.5 Q349 -10 279 -10 Z M275 395 Q243 395 226 373.5 Q209 352 204 315 L342 315 Q339 353 323 374 Q307 395 275 395 Z M272 568 Q232 568 209 592 Q186 616 186 655 Q186 697 209 721 Q232 745 272 745 Q314 745 338.5 721 Q363 697 363 655 Q363 616 338.5 592 Q314 568 272 568 Z " />
<glyph glyph-name="Eogonek" unicode="&#x118;" horiz-adv-x="565" d="M480 0 Q456 -30 441.5 -56 Q427 -82 427 -115 Q427 -142 439 -157.5 Q451 -173 472 -173 Q495 -173 512 -161.5 Q529 -150 544 -132 L600 -189 Q594 -198 582 -210 Q570 -222 552 -233.5 Q534 -245 510 -252.5 Q486 -260 455 -260 Q392 -260 356 -229 Q320 -198 320 -141 Q320 -104 336 -71 Q352 -38 382 0 L70 0 L70 690 L519 690 L519 549 L245 549 L245 428 L434 428 L434 286 L245 286 L245 141 L525 141 L525 0 L480 0 Z " />
<glyph glyph-name="eogonek" unicode="&#x119;" horiz-adv-x="541" d="M279 -10 Q223 -10 177.5 8.5 Q132 27 100 62 Q68 97 51 146 Q34 195 34 257 Q34 320 52 370.5 Q70 421 102.5 456.5 Q135 492 181 511.5 Q227 531 283 531 Q386 531 446 465 Q506 399 506 275 Q506 261 505 245.5 Q504 230 502 214 L202 214 Q208 170 228 150 Q248 130 280 130 Q308 130 327.5 145.5 Q347 161 358 184 L486 111 Q478 94 467 80.5 Q456 67 445 54 Q422 29 404 8 Q386 -13 373.5 -32.5 Q361 -52 354 -72 Q347 -92 347 -115 Q347 -142 359 -157.5 Q371 -173 391 -173 Q414 -173 431 -161.5 Q448 -150 464 -132 L519 -189 Q513 -198 501 -210 Q489 -222 471 -233.5 Q453 -245 429 -252.5 Q405 -260 374 -260 Q311 -260 275 -229 Q239 -198 239 -141 Q239 -107 253 -75.5 Q267 -44 293 -9 Q289 -9 286 -9.5 Q283 -10 279 -10 Z M275 395 Q243 395 226 373.5 Q209 352 204 315 L342 315 Q339 353 323 374 Q307 395 275 395 Z " />
<glyph glyph-name="Ecaron" unicode="&#x11a;" horiz-adv-x="565" d="M70 0 L70 690 L519 690 L519 549 L245 549 L245 428 L434 428 L434 286 L245 286 L245 141 L525 141 L525 0 L70 0 Z M385 946 L473 884 L354 720 L231 720 L113 884 L201 946 L293 838 L385 946 Z " />
<glyph glyph-name="ecaron" unicode="&#x11b;" horiz-adv-x="541" d="M279 -10 Q223 -10 177.5 8.5 Q132 27 100 62 Q68 97 51 146 Q34 195 34 257 Q34 320 52 370.5 Q70 421 102.5 456.5 Q135 492 181 511.5 Q227 531 283 531 Q386 531 446 465 Q506 399 506 275 Q506 261 505 245.5 Q504 230 502 214 L202 214 Q208 170 228 150 Q248 130 280 130 Q308 130 327.5 145.5 Q347 161 358 184 L486 111 Q456 51 402.5 20.5 Q349 -10 279 -10 Z M275 395 Q243 395 226 373.5 Q209 352 204 315 L342 315 Q339 353 323 374 Q307 395 275 395 Z M366 777 L454 715 L335 551 L212 551 L94 715 L182 777 L274 669 L366 777 Z " />
<glyph glyph-name="Gcircumflex" unicode="&#x11c;" horiz-adv-x="726" d="M365 543 Q294 543 257.5 489 Q221 435 221 345 Q221 245 259 193 Q297 141 374 141 Q431 141 466.5 165.5 Q502 190 513 251 L410 251 L410 395 L686 395 L686 323 Q686 252 666 191.5 Q646 131 607 86 Q568 41 510.5 15.5 Q453 -10 378 -10 Q300 -10 237.5 15 Q175 40 131 86 Q87 132 63.5 197.5 Q40 263 40 344 Q40 421 65 486.5 Q90 552 134.5 599.5 Q179 647 239.5 673.5 Q300 700 372 700 Q428 700 471 688 Q514 676 547 654 Q580 632 604.5 602.5 Q629 573 647 537 L485 462 Q468 498 438 520.5 Q408 543 365 543 Z M362 828 L270 720 L182 782 L301 946 L424 946 L542 782 L454 720 L362 828 Z " />
<glyph glyph-name="gcircumflex" unicode="&#x11d;" horiz-adv-x="548" d="M554 399 Q528 399 504 397 Q480 395 459 390 Q465 364 465 338 Q465 298 451.5 262 Q438 226 410 198.5 Q382 171 340.5 155 Q299 139 244 139 Q229 139 215.5 140 Q202 141 190 143 Q185 137 184 132 Q183 127 183 122 Q183 113 189.5 106 Q196 99 221 99 L321 99 Q389 99 432 85.5 Q475 72 499 51 Q523 30 532 3.5 Q541 -23 541 -49 Q541 -98 514.5 -137 Q488 -176 443 -203.5 Q398 -231 339 -245.5 Q280 -260 216 -260 Q113 -260 65 -225.5 Q17 -191 17 -131 Q17 -91 36.5 -62 Q56 -33 88 -11 Q62 5 51 28.5 Q40 52 40 77 Q40 109 56 133 Q72 157 104 179 Q67 207 50 247.5 Q33 288 33 334 Q33 377 48 413.5 Q63 450 91.5 476 Q120 502 161 516.5 Q202 531 254 531 Q302 531 338.5 518.5 Q375 506 401 484 Q416 494 431 503 Q446 512 463.5 518 Q481 524 503 527.5 Q525 531 554 531 L554 399 Z M189 -35 Q178 -47 174.5 -58.5 Q171 -70 171 -80 Q171 -103 190.5 -111 Q210 -119 249 -119 Q303 -119 337.5 -106 Q372 -93 372 -67 Q372 -54 359 -44.5 Q346 -35 311 -35 L189 -35 Z M249 272 Q267 272 278 278 Q289 284 295.5 293 Q302 302 304.5 313 Q307 324 307 334 Q307 345 304.5 356.5 Q302 368 295.5 377 Q289 386 277.5 392 Q266 398 249 398 Q232 398 221 392 Q210 386 203 377 Q196 368 193.5 357 Q191 346 191 335 Q191 324 193.5 313 Q196 302 202.5 293 Q209 284 220.5 278 Q232 272 249 272 Z M253 659 L161 551 L73 613 L192 777 L315 777 L433 613 L345 551 L253 659 Z " />
<glyph glyph-name="Gbreve" unicode="&#x11e;" horiz-adv-x="726" d="M365 543 Q294 543 257.5 489 Q221 435 221 345 Q221 245 259 193 Q297 141 374 141 Q431 141 466.5 165.5 Q502 190 513 251 L410 251 L410 395 L686 395 L686 323 Q686 252 666 191.5 Q646 131 607 86 Q568 41 510.5 15.5 Q453 -10 378 -10 Q300 -10 237.5 15 Q175 40 131 86 Q87 132 63.5 197.5 Q40 263 40 344 Q40 421 65 486.5 Q90 552 134.5 599.5 Q179 647 239.5 673.5 Q300 700 372 700 Q428 700 471 688 Q514 676 547 654 Q580 632 604.5 602.5 Q629 573 647 537 L485 462 Q468 498 438 520.5 Q408 543 365 543 Z M362 720 Q289 720 243.5 772.5 Q198 825 181 925 L282 952 Q295 895 312.5 867.5 Q330 840 362 840 Q394 840 412 867.5 Q430 895 442 952 L544 925 Q527 825 481.5 772.5 Q436 720 362 720 Z " />
<glyph glyph-name="gbreve" unicode="&#x11f;" horiz-adv-x="548" d="M554 399 Q528 399 504 397 Q480 395 459 390 Q465 364 465 338 Q465 298 451.5 262 Q438 226 410 198.5 Q382 171 340.5 155 Q299 139 244 139 Q229 139 215.5 140 Q202 141 190 143 Q185 137 184 132 Q183 127 183 122 Q183 113 189.5 106 Q196 99 221 99 L321 99 Q389 99 432 85.5 Q475 72 499 51 Q523 30 532 3.5 Q541 -23 541 -49 Q541 -98 514.5 -137 Q488 -176 443 -203.5 Q398 -231 339 -245.5 Q280 -260 216 -260 Q113 -260 65 -225.5 Q17 -191 17 -131 Q17 -91 36.5 -62 Q56 -33 88 -11 Q62 5 51 28.5 Q40 52 40 77 Q40 109 56 133 Q72 157 104 179 Q67 207 50 247.5 Q33 288 33 334 Q33 377 48 413.5 Q63 450 91.5 476 Q120 502 161 516.5 Q202 531 254 531 Q302 531 338.5 518.5 Q375 506 401 484 Q416 494 431 503 Q446 512 463.5 518 Q481 524 503 527.5 Q525 531 554 531 L554 399 Z M189 -35 Q178 -47 174.5 -58.5 Q171 -70 171 -80 Q171 -103 190.5 -111 Q210 -119 249 -119 Q303 -119 337.5 -106 Q372 -93 372 -67 Q372 -54 359 -44.5 Q346 -35 311 -35 L189 -35 Z M249 272 Q267 272 278 278 Q289 284 295.5 293 Q302 302 304.5 313 Q307 324 307 334 Q307 345 304.5 356.5 Q302 368 295.5 377 Q289 386 277.5 392 Q266 398 249 398 Q232 398 221 392 Q210 386 203 377 Q196 368 193.5 357 Q191 346 191 335 Q191 324 193.5 313 Q196 302 202.5 293 Q209 284 220.5 278 Q232 272 249 272 Z M253 551 Q180 551 134.5 603.5 Q89 656 72 756 L173 783 Q186 726 203.5 698.5 Q221 671 253 671 Q285 671 303 698.5 Q321 726 333 783 L435 756 Q418 656 372.5 603.5 Q327 551 253 551 Z " />
<glyph glyph-name="Gdotaccent" unicode="&#x120;" horiz-adv-x="726" d="M365 543 Q294 543 257.5 489 Q221 435 221 345 Q221 245 259 193 Q297 141 374 141 Q431 141 466.5 165.5 Q502 190 513 251 L410 251 L410 395 L686 395 L686 323 Q686 252 666 191.5 Q646 131 607 86 Q568 41 510.5 15.5 Q453 -10 378 -10 Q300 -10 237.5 15 Q175 40 131 86 Q87 132 63.5 197.5 Q40 263 40 344 Q40 421 65 486.5 Q90 552 134.5 599.5 Q179 647 239.5 673.5 Q300 700 372 700 Q428 700 471 688 Q514 676 547 654 Q580 632 604.5 602.5 Q629 573 647 537 L485 462 Q468 498 438 520.5 Q408 543 365 543 Z M361 737 Q321 737 298 761 Q275 785 275 824 Q275 866 298 890 Q321 914 361 914 Q403 914 427.5 890 Q452 866 452 824 Q452 785 427.5 761 Q403 737 361 737 Z " />
<glyph glyph-name="gdotaccent" unicode="&#x121;" horiz-adv-x="548" d="M554 399 Q528 399 504 397 Q480 395 459 390 Q465 364 465 338 Q465 298 451.5 262 Q438 226 410 198.5 Q382 171 340.5 155 Q299 139 244 139 Q229 139 215.5 140 Q202 141 190 143 Q185 137 184 132 Q183 127 183 122 Q183 113 189.5 106 Q196 99 221 99 L321 99 Q389 99 432 85.5 Q475 72 499 51 Q523 30 532 3.5 Q541 -23 541 -49 Q541 -98 514.5 -137 Q488 -176 443 -203.5 Q398 -231 339 -245.5 Q280 -260 216 -260 Q113 -260 65 -225.5 Q17 -191 17 -131 Q17 -91 36.5 -62 Q56 -33 88 -11 Q62 5 51 28.5 Q40 52 40 77 Q40 109 56 133 Q72 157 104 179 Q67 207 50 247.5 Q33 288 33 334 Q33 377 48 413.5 Q63 450 91.5 476 Q120 502 161 516.5 Q202 531 254 531 Q302 531 338.5 518.5 Q375 506 401 484 Q416 494 431 503 Q446 512 463.5 518 Q481 524 503 527.5 Q525 531 554 531 L554 399 Z M189 -35 Q178 -47 174.5 -58.5 Q171 -70 171 -80 Q171 -103 190.5 -111 Q210 -119 249 -119 Q303 -119 337.5 -106 Q372 -93 372 -67 Q372 -54 359 -44.5 Q346 -35 311 -35 L189 -35 Z M249 272 Q267 272 278 278 Q289 284 295.5 293 Q302 302 304.5 313 Q307 324 307 334 Q307 345 304.5 356.5 Q302 368 295.5 377 Q289 386 277.5 392 Q266 398 249 398 Q232 398 221 392 Q210 386 203 377 Q196 368 193.5 357 Q191 346 191 335 Q191 324 193.5 313 Q196 302 202.5 293 Q209 284 220.5 278 Q232 272 249 272 Z M252 568 Q212 568 189 592 Q166 616 166 655 Q166 697 189 721 Q212 745 252 745 Q294 745 318.5 721 Q343 697 343 655 Q343 616 318.5 592 Q294 568 252 568 Z " />
<glyph glyph-name="Gcommaaccent" unicode="&#x122;" horiz-adv-x="726" d="M365 543 Q294 543 257.5 489 Q221 435 221 345 Q221 245 259 193 Q297 141 374 141 Q431 141 466.5 165.5 Q502 190 513 251 L410 251 L410 395 L686 395 L686 323 Q686 252 666 191.5 Q646 131 607 86 Q568 41 510.5 15.5 Q453 -10 378 -10 Q300 -10 237.5 15 Q175 40 131 86 Q87 132 63.5 197.5 Q40 263 40 344 Q40 421 65 486.5 Q90 552 134.5 599.5 Q179 647 239.5 673.5 Q300 700 372 700 Q428 700 471 688 Q514 676 547 654 Q580 632 604.5 602.5 Q629 573 647 537 L485 462 Q468 498 438 520.5 Q408 543 365 543 Z M296 -49 L456 -49 L406 -236 L279 -236 L296 -49 Z " />
<glyph glyph-name="gcommaaccent" unicode="&#x123;" horiz-adv-x="548" d="M554 399 Q528 399 504 397 Q480 395 459 390 Q465 364 465 338 Q465 298 451.5 262 Q438 226 410 198.5 Q382 171 340.5 155 Q299 139 244 139 Q229 139 215.5 140 Q202 141 190 143 Q185 137 184 132 Q183 127 183 122 Q183 113 189.5 106 Q196 99 221 99 L321 99 Q389 99 432 85.5 Q475 72 499 51 Q523 30 532 3.5 Q541 -23 541 -49 Q541 -98 514.5 -137 Q488 -176 443 -203.5 Q398 -231 339 -245.5 Q280 -260 216 -260 Q113 -260 65 -225.5 Q17 -191 17 -131 Q17 -91 36.5 -62 Q56 -33 88 -11 Q62 5 51 28.5 Q40 52 40 77 Q40 109 56 133 Q72 157 104 179 Q67 207 50 247.5 Q33 288 33 334 Q33 377 48 413.5 Q63 450 91.5 476 Q120 502 161 516.5 Q202 531 254 531 Q302 531 338.5 518.5 Q375 506 401 484 Q416 494 431 503 Q446 512 463.5 518 Q481 524 503 527.5 Q525 531 554 531 L554 399 Z M189 -35 Q178 -47 174.5 -58.5 Q171 -70 171 -80 Q171 -103 190.5 -111 Q210 -119 249 -119 Q303 -119 337.5 -106 Q372 -93 372 -67 Q372 -54 359 -44.5 Q346 -35 311 -35 L189 -35 Z M249 272 Q267 272 278 278 Q289 284 295.5 293 Q302 302 304.5 313 Q307 324 307 334 Q307 345 304.5 356.5 Q302 368 295.5 377 Q289 386 277.5 392 Q266 398 249 398 Q232 398 221 392 Q210 386 203 377 Q196 368 193.5 357 Q191 346 191 335 Q191 324 193.5 313 Q196 302 202.5 293 Q209 284 220.5 278 Q232 272 249 272 Z M326 591 L176 591 L226 778 L343 777 L326 591 Z " />
<glyph glyph-name="Hcircumflex" unicode="&#x124;" horiz-adv-x="733" d="M70 0 L70 690 L245 690 L245 416 L488 416 L488 690 L663 690 L663 0 L488 0 L488 275 L245 275 L245 0 L70 0 Z M366 828 L274 720 L186 782 L305 946 L428 946 L546 782 L458 720 L366 828 Z " />
<glyph glyph-name="hcircumflex" unicode="&#x125;" horiz-adv-x="584" d="M61 0 L61 740 L225 740 L225 485 Q248 505 280 518 Q312 531 357 531 Q401 531 433.5 516.5 Q466 502 487 477 Q508 452 518 418.5 Q528 385 528 348 L528 0 L363 0 L363 315 Q363 354 344.5 369 Q326 384 308 384 Q276 384 257.5 373 Q239 362 225 347 L225 0 L61 0 Z M269 879 L177 771 L89 833 L208 997 L331 997 L449 833 L361 771 L269 879 Z " />
<glyph glyph-name="Hbar" unicode="&#x126;" horiz-adv-x="733" d="M70 0 L70 502 L28 502 L28 616 L70 616 L70 690 L245 690 L245 616 L488 616 L488 690 L663 690 L663 616 L705 616 L705 502 L663 502 L663 0 L488 0 L488 275 L245 275 L245 0 L70 0 Z M245 416 L488 416 L488 502 L245 502 L245 416 Z " />
<glyph glyph-name="hbar" unicode="&#x127;" horiz-adv-x="584" d="M225 580 L225 485 Q248 505 280 518 Q312 531 357 531 Q401 531 433.5 516.5 Q466 502 487 477 Q508 452 518 418.5 Q528 385 528 348 L528 0 L363 0 L363 315 Q363 354 344.5 369 Q326 384 308 384 Q276 384 257.5 373 Q239 362 225 347 L225 0 L61 0 L61 580 L23 580 L23 694 L61 694 L61 740 L225 740 L225 694 L322 694 L322 580 L225 580 Z " />
<glyph glyph-name="Itilde" unicode="&#x128;" horiz-adv-x="315" d="M70 0 L70 690 L245 690 L245 0 L70 0 Z M-37 800 Q-20 845 14 870.5 Q48 896 80 896 Q102 896 119.5 889.5 Q137 883 151 874.5 Q165 866 178.5 859.5 Q192 853 207 853 Q226 853 239.5 863 Q253 873 269 896 L351 827 Q331 782 295 752 Q259 722 221 722 Q198 722 180.5 728.5 Q163 735 148.5 743.5 Q134 752 121 758.5 Q108 765 94 765 Q76 765 64 755 Q52 745 38 728 L-37 800 Z " />
<glyph glyph-name="itilde" unicode="&#x129;" horiz-adv-x="286" d="M61 0 L61 521 L225 521 L225 0 L61 0 Z M-51 631 Q-34 676 0 701.5 Q34 727 66 727 Q88 727 105.5 720.5 Q123 714 137 705.5 Q151 697 164.5 690.5 Q178 684 193 684 Q212 684 225.5 694 Q239 704 255 727 L337 658 Q317 613 281 583 Q245 553 207 553 Q184 553 166.5 559.5 Q149 566 134.5 574.5 Q120 583 107 589.5 Q94 596 80 596 Q62 596 50 586 Q38 576 24 559 L-51 631 Z " />
<glyph glyph-name="Imacron" unicode="&#x12a;" horiz-adv-x="315" d="M70 0 L70 690 L245 690 L245 0 L70 0 Z M8 769 L8 883 L307 883 L307 769 L8 769 Z " />
<glyph glyph-name="imacron" unicode="&#x12b;" horiz-adv-x="286" d="M61 0 L61 521 L225 521 L225 0 L61 0 Z M-6 600 L-6 714 L293 714 L293 600 L-6 600 Z " />
<glyph glyph-name="Ibreve" unicode="&#x12c;" horiz-adv-x="315" d="M70 0 L70 690 L245 690 L245 0 L70 0 Z M157 720 Q84 720 38.5 772.5 Q-7 825 -24 925 L77 952 Q90 895 107.5 867.5 Q125 840 157 840 Q189 840 207 867.5 Q225 895 237 952 L339 925 Q322 825 276.5 772.5 Q231 720 157 720 Z " />
<glyph glyph-name="ibreve" unicode="&#x12d;" horiz-adv-x="286" d="M61 0 L61 521 L225 521 L225 0 L61 0 Z M143 551 Q70 551 24.5 603.5 Q-21 656 -38 756 L63 783 Q76 726 93.5 698.5 Q111 671 143 671 Q175 671 193 698.5 Q211 726 223 783 L325 756 Q308 656 262.5 603.5 Q217 551 143 551 Z " />
<glyph glyph-name="Iogonek" unicode="&#x12e;" horiz-adv-x="315" d="M146 0 Q121 -30 106.5 -55.5 Q92 -81 92 -115 Q92 -142 104 -157.5 Q116 -173 137 -173 Q160 -173 177 -161.5 Q194 -150 209 -132 L265 -189 Q259 -198 247 -210 Q235 -222 217 -233.5 Q199 -245 175 -252.5 Q151 -260 120 -260 Q57 -260 21 -229 Q-15 -198 -15 -141 Q-15 -98 7 -58.5 Q29 -19 70 28 L70 690 L245 690 L245 0 L146 0 Z " />
<glyph glyph-name="iogonek" unicode="&#x12f;" horiz-adv-x="286" d="M119 0 Q94 -29 80 -55.5 Q66 -82 66 -115 Q66 -142 78 -157.5 Q90 -173 111 -173 Q134 -173 151 -161.5 Q168 -150 183 -132 L239 -189 Q233 -198 221 -210 Q209 -222 191 -233.5 Q173 -245 149 -252.5 Q125 -260 94 -260 Q31 -260 -5 -229 Q-41 -198 -41 -141 Q-41 -94 -14 -51 Q13 -8 61 46 L61 521 L225 521 L225 0 L119 0 Z M143 568 Q103 568 80 592 Q57 616 57 655 Q57 697 80 721 Q103 745 143 745 Q185 745 209.5 721 Q234 697 234 655 Q234 616 209.5 592 Q185 568 143 568 Z " />
<glyph glyph-name="Idotaccent" unicode="&#x130;" horiz-adv-x="315" d="M70 0 L70 690 L245 690 L245 0 L70 0 Z M156 737 Q116 737 93 761 Q70 785 70 824 Q70 866 93 890 Q116 914 156 914 Q198 914 222.5 890 Q247 866 247 824 Q247 785 222.5 761 Q198 737 156 737 Z " />
<glyph glyph-name="dotlessi" unicode="&#x131;" horiz-adv-x="286" d="M61 0 L61 521 L225 521 L225 0 L61 0 Z " />
<glyph glyph-name="IJ" unicode="&#x132;" horiz-adv-x="654" d="M70 0 L70 690 L245 690 L245 0 L70 0 Z M584 4 Q584 -64 565.5 -110.5 Q547 -157 514 -185.5 Q481 -214 435.5 -227 Q390 -240 337 -240 L310 -240 L309 -98 L321 -98 Q374 -98 391.5 -65 Q409 -32 409 34 L409 690 L584 690 L584 4 Z " />
<glyph glyph-name="ij" unicode="&#x133;" horiz-adv-x="572" d="M143 568 Q103 568 80 592 Q57 616 57 655 Q57 697 80 721 Q103 745 143 745 Q185 745 209.5 721 Q234 697 234 655 Q234 616 209.5 592 Q185 568 143 568 Z M61 0 L61 521 L225 521 L225 0 L61 0 Z M259 -146 L268 -146 Q310 -146 328.5 -126.5 Q347 -107 347 -74 L347 521 L511 521 L511 -68 Q511 -168 458.5 -221.5 Q406 -275 294 -275 L259 -275 L259 -146 Z M427 568 Q387 568 364 592 Q341 616 341 655 Q341 697 364 721 Q387 745 427 745 Q469 745 493.5 721 Q518 697 518 655 Q518 616 493.5 592 Q469 568 427 568 Z " />
<glyph glyph-name="Jcircumflex" unicode="&#x134;" horiz-adv-x="320" d="M250 4 Q250 -64 231.5 -110.5 Q213 -157 180 -185.5 Q147 -214 101.5 -227 Q56 -240 3 -240 L-24 -240 L-25 -98 L-13 -98 Q40 -98 57.5 -65 Q75 -32 75 34 L75 690 L250 690 L250 4 Z M160 828 L68 720 L-20 782 L99 946 L222 946 L340 782 L252 720 L160 828 Z " />
<glyph glyph-name="jcircumflex" unicode="&#x135;" horiz-adv-x="286" d="M-27 -146 L-18 -146 Q24 -146 42.5 -126.5 Q61 -107 61 -74 L61 521 L225 521 L225 -68 Q225 -168 172.5 -221.5 Q120 -275 8 -275 L-26 -275 L-27 -146 Z M129 659 L37 551 L-51 613 L68 777 L191 777 L309 613 L221 551 L129 659 Z " />
<glyph glyph-name="Kcommaaccent" unicode="&#x136;" horiz-adv-x="658" d="M70 0 L70 690 L245 690 L245 424 L272 424 Q308 424 334.5 434.5 Q361 445 378 463.5 Q395 482 403.5 506.5 Q412 531 412 558 Q412 591 403 612 Q394 633 382 655 L540 724 Q560 701 573.5 659 Q587 617 587 573 Q587 514 559 458 Q531 402 469 361 Q526 329 558 265.5 Q590 202 607 97 Q612 68 616.5 43 Q621 18 628 0 L449 0 Q446 18 443 36 Q440 54 435 83 Q423 147 409.5 186 Q396 225 378.5 246.5 Q361 268 338 275 Q315 282 284 282 L245 282 L245 0 L70 0 Z M257 -49 L417 -49 L367 -236 L240 -236 L257 -49 Z " />
<glyph glyph-name="kcommaaccent" unicode="&#x137;" horiz-adv-x="580" d="M61 0 L61 740 L225 740 L225 270 L385 521 L562 521 L391 267 L426 209 Q446 177 471 159 Q496 141 536 141 L543 141 L543 0 L511 0 Q474 0 443.5 6 Q413 12 387.5 26 Q362 40 341 63 Q320 86 301 121 L225 263 L225 0 L61 0 Z M241 -49 L401 -49 L351 -236 L224 -236 L241 -49 Z " />
<glyph glyph-name="Lacute" unicode="&#x139;" horiz-adv-x="550" d="M515 141 L515 0 L70 0 L70 690 L245 690 L245 141 L515 141 Z M206 720 L106 782 L200 946 L318 871 L206 720 Z " />
<glyph glyph-name="lacute" unicode="&#x13a;" horiz-adv-x="286" d="M61 0 L61 740 L225 740 L225 0 L61 0 Z M167 771 L67 833 L161 997 L279 922 L167 771 Z " />
<glyph glyph-name="Lcommaaccent" unicode="&#x13b;" horiz-adv-x="550" d="M515 141 L515 0 L70 0 L70 690 L245 690 L245 141 L515 141 Z M220 -49 L380 -49 L330 -236 L203 -236 L220 -49 Z " />
<glyph glyph-name="lcommaaccent" unicode="&#x13c;" horiz-adv-x="286" d="M61 0 L61 740 L225 740 L225 0 L61 0 Z M66 -49 L226 -49 L176 -236 L49 -236 L66 -49 Z " />
<glyph glyph-name="Lcaron" unicode="&#x13d;" horiz-adv-x="550" d="M515 141 L515 0 L70 0 L70 690 L245 690 L245 141 L515 141 Z M323 740 L473 740 L423 553 L306 554 L323 740 Z " />
<glyph glyph-name="lcaron" unicode="&#x13e;" horiz-adv-x="443" d="M61 0 L61 740 L225 740 L225 0 L61 0 Z M303 740 L453 740 L403 553 L286 554 L303 740 Z " />
<glyph glyph-name="Ldot" unicode="&#x13f;" horiz-adv-x="550" d="M515 141 L515 0 L70 0 L70 690 L245 690 L245 141 L515 141 Z M417 254 Q377 254 354 278 Q331 302 331 341 Q331 383 354 407 Q377 431 417 431 Q459 431 483.5 407 Q508 383 508 341 Q508 302 483.5 278 Q459 254 417 254 Z " />
<glyph glyph-name="ldot" unicode="&#x140;" horiz-adv-x="410" d="M61 0 L61 740 L225 740 L225 0 L61 0 Z M354 234 Q314 234 291 258 Q268 282 268 321 Q268 363 291 387 Q314 411 354 411 Q396 411 420.5 387 Q445 363 445 321 Q445 282 420.5 258 Q396 234 354 234 Z " />
<glyph glyph-name="Lslash" unicode="&#x141;" horiz-adv-x="550" d="M19 275 L70 309 L70 690 L245 690 L245 426 L304 466 L304 357 L245 317 L245 141 L515 141 L515 0 L70 0 L70 201 L19 167 L19 275 Z " />
<glyph glyph-name="lslash" unicode="&#x142;" horiz-adv-x="294" d="M9 275 L65 312 L65 740 L229 740 L229 422 L294 466 L294 357 L229 313 L229 0 L65 0 L65 204 L9 167 L9 275 Z " />
<glyph glyph-name="Nacute" unicode="&#x143;" horiz-adv-x="718" d="M233 406 L233 0 L70 0 L70 690 L233 690 L485 284 L485 690 L648 690 L648 0 L485 0 L233 406 Z M370 720 L270 782 L364 946 L482 871 L370 720 Z " />
<glyph glyph-name="nacute" unicode="&#x144;" horiz-adv-x="584" d="M61 0 L61 521 L213 521 L213 473 Q236 497 271 514 Q306 531 357 531 Q401 531 433.5 516.5 Q466 502 487 477 Q508 452 518 418.5 Q528 385 528 348 L528 0 L363 0 L363 315 Q363 354 344.5 369 Q326 384 308 384 Q276 384 257.5 373 Q239 362 225 347 L225 0 L61 0 Z M303 551 L203 613 L297 777 L415 702 L303 551 Z " />
<glyph glyph-name="Ncommaaccent" unicode="&#x145;" horiz-adv-x="718" d="M233 406 L233 0 L70 0 L70 690 L233 690 L485 284 L485 690 L648 690 L648 0 L485 0 L233 406 Z M281 -49 L441 -49 L391 -236 L264 -236 L281 -49 Z " />
<glyph glyph-name="ncommaaccent" unicode="&#x146;" horiz-adv-x="584" d="M61 0 L61 521 L213 521 L213 473 Q236 497 271 514 Q306 531 357 531 Q401 531 433.5 516.5 Q466 502 487 477 Q508 452 518 418.5 Q528 385 528 348 L528 0 L363 0 L363 315 Q363 354 344.5 369 Q326 384 308 384 Q276 384 257.5 373 Q239 362 225 347 L225 0 L61 0 Z M224 -49 L384 -49 L334 -236 L207 -236 L224 -49 Z " />
<glyph glyph-name="Ncaron" unicode="&#x147;" horiz-adv-x="718" d="M233 406 L233 0 L70 0 L70 690 L233 690 L485 284 L485 690 L648 690 L648 0 L485 0 L233 406 Z M441 946 L529 884 L410 720 L287 720 L169 884 L257 946 L349 838 L441 946 Z " />
<glyph glyph-name="ncaron" unicode="&#x148;" horiz-adv-x="584" d="M61 0 L61 521 L213 521 L213 473 Q236 497 271 514 Q306 531 357 531 Q401 531 433.5 516.5 Q466 502 487 477 Q508 452 518 418.5 Q528 385 528 348 L528 0 L363 0 L363 315 Q363 354 344.5 369 Q326 384 308 384 Q276 384 257.5 373 Q239 362 225 347 L225 0 L61 0 Z M374 777 L462 715 L343 551 L220 551 L102 715 L190 777 L282 669 L374 777 Z " />
<glyph glyph-name="Omacron" unicode="&#x14c;" horiz-adv-x="750" d="M376 -10 Q299 -10 237 15 Q175 40 131 86 Q87 132 63.5 197.5 Q40 263 40 345 Q40 423 65.5 488 Q91 553 135.5 600 Q180 647 241 673.5 Q302 700 374 700 Q451 700 513 675 Q575 650 619 604 Q663 558 686.5 492.5 Q710 427 710 345 Q710 267 684.5 202 Q659 137 614.5 90 Q570 43 509 16.5 Q448 -10 376 -10 Z M376 147 Q453 147 491 200 Q529 253 529 344 Q529 543 374 543 Q297 543 259 490 Q221 437 221 346 Q221 147 376 147 Z M225 769 L225 883 L524 883 L524 769 L225 769 Z " />
<glyph glyph-name="omacron" unicode="&#x14d;" horiz-adv-x="584" d="M292 -10 Q233 -10 185.5 8.5 Q138 27 104 62 Q70 97 52 146 Q34 195 34 257 Q34 320 53.5 370.5 Q73 421 107.5 456.5 Q142 492 189.5 511.5 Q237 531 292 531 Q351 531 398.5 512.5 Q446 494 480 459 Q514 424 532 374.5 Q550 325 550 264 Q550 201 530.5 150.5 Q511 100 476.5 64.5 Q442 29 394.5 9.5 Q347 -10 292 -10 Z M292 136 Q332 136 356 165 Q380 194 380 261 Q380 327 357 355.5 Q334 384 292 384 Q252 384 228 355.5 Q204 327 204 260 Q204 193 227 164.5 Q250 136 292 136 Z M143 600 L143 714 L442 714 L442 600 L143 600 Z " />
<glyph glyph-name="Obreve" unicode="&#x14e;" horiz-adv-x="750" d="M376 -10 Q299 -10 237 15 Q175 40 131 86 Q87 132 63.5 197.5 Q40 263 40 345 Q40 423 65.5 488 Q91 553 135.5 600 Q180 647 241 673.5 Q302 700 374 700 Q451 700 513 675 Q575 650 619 604 Q663 558 686.5 492.5 Q710 427 710 345 Q710 267 684.5 202 Q659 137 614.5 90 Q570 43 509 16.5 Q448 -10 376 -10 Z M376 147 Q453 147 491 200 Q529 253 529 344 Q529 543 374 543 Q297 543 259 490 Q221 437 221 346 Q221 147 376 147 Z M374 720 Q301 720 255.5 772.5 Q210 825 193 925 L294 952 Q307 895 324.5 867.5 Q342 840 374 840 Q406 840 424 867.5 Q442 895 454 952 L556 925 Q539 825 493.5 772.5 Q448 720 374 720 Z " />
<glyph glyph-name="obreve" unicode="&#x14f;" horiz-adv-x="584" d="M292 -10 Q233 -10 185.5 8.5 Q138 27 104 62 Q70 97 52 146 Q34 195 34 257 Q34 320 53.5 370.5 Q73 421 107.5 456.5 Q142 492 189.5 511.5 Q237 531 292 531 Q351 531 398.5 512.5 Q446 494 480 459 Q514 424 532 374.5 Q550 325 550 264 Q550 201 530.5 150.5 Q511 100 476.5 64.5 Q442 29 394.5 9.5 Q347 -10 292 -10 Z M292 136 Q332 136 356 165 Q380 194 380 261 Q380 327 357 355.5 Q334 384 292 384 Q252 384 228 355.5 Q204 327 204 260 Q204 193 227 164.5 Q250 136 292 136 Z M292 551 Q219 551 173.5 603.5 Q128 656 111 756 L212 783 Q225 726 242.5 698.5 Q260 671 292 671 Q324 671 342 698.5 Q360 726 372 783 L474 756 Q457 656 411.5 603.5 Q366 551 292 551 Z " />
<glyph glyph-name="Ohungarumlaut" unicode="&#x150;" horiz-adv-x="750" d="M376 -10 Q299 -10 237 15 Q175 40 131 86 Q87 132 63.5 197.5 Q40 263 40 345 Q40 423 65.5 488 Q91 553 135.5 600 Q180 647 241 673.5 Q302 700 374 700 Q451 700 513 675 Q575 650 619 604 Q663 558 686.5 492.5 Q710 427 710 345 Q710 267 684.5 202 Q659 137 614.5 90 Q570 43 509 16.5 Q448 -10 376 -10 Z M376 147 Q453 147 491 200 Q529 253 529 344 Q529 543 374 543 Q297 543 259 490 Q221 437 221 346 Q221 147 376 147 Z M295 720 L207 764 L282 946 L388 889 L295 720 Z M467 720 L379 764 L454 946 L560 889 L467 720 Z " />
<glyph glyph-name="ohungarumlaut" unicode="&#x151;" horiz-adv-x="584" d="M292 -10 Q233 -10 185.5 8.5 Q138 27 104 62 Q70 97 52 146 Q34 195 34 257 Q34 320 53.5 370.5 Q73 421 107.5 456.5 Q142 492 189.5 511.5 Q237 531 292 531 Q351 531 398.5 512.5 Q446 494 480 459 Q514 424 532 374.5 Q550 325 550 264 Q550 201 530.5 150.5 Q511 100 476.5 64.5 Q442 29 394.5 9.5 Q347 -10 292 -10 Z M292 136 Q332 136 356 165 Q380 194 380 261 Q380 327 357 355.5 Q334 384 292 384 Q252 384 228 355.5 Q204 327 204 260 Q204 193 227 164.5 Q250 136 292 136 Z M227 551 L139 595 L214 777 L320 720 L227 551 Z M399 551 L311 595 L386 777 L492 720 L399 551 Z " />
<glyph glyph-name="OE" unicode="&#x152;" horiz-adv-x="988" d="M493 0 L493 25 Q438 -10 376 -10 Q299 -10 237 15 Q175 40 131 86 Q87 132 63.5 197.5 Q40 263 40 345 Q40 423 65.5 488 Q91 553 135.5 600 Q180 647 241 673.5 Q302 700 374 700 Q438 700 493 668 L493 690 L942 690 L942 549 L668 549 L668 428 L857 428 L857 286 L668 286 L668 141 L948 141 L948 0 L493 0 Z M376 147 Q454 147 493 203 L493 492 Q473 518 442.5 530.5 Q412 543 374 543 Q297 543 259 490 Q221 437 221 346 Q221 147 376 147 Z " />
<glyph glyph-name="oe" unicode="&#x153;" horiz-adv-x="850" d="M288 -10 Q230 -10 183 8.5 Q136 27 103 62 Q70 97 52 146 Q34 195 34 257 Q34 320 53.5 370.5 Q73 421 107 456.5 Q141 492 187.5 511.5 Q234 531 288 531 Q389 531 451 474 Q480 501 519 516 Q558 531 607 531 Q706 531 765.5 463 Q825 395 825 269 Q825 242 822 214 L531 214 Q537 171 556 150.5 Q575 130 610 130 Q633 130 654.5 145.5 Q676 161 687 184 L815 111 Q783 53 731 21.5 Q679 -10 610 -10 Q506 -10 446 48 Q385 -10 288 -10 Z M288 136 Q325 136 347.5 165 Q370 194 370 261 Q370 327 349 355.5 Q328 384 288 384 Q250 384 227 355.5 Q204 327 204 260 Q204 193 225.5 164.5 Q247 136 288 136 Z M599 395 Q538 395 527 315 L665 315 Q661 353 645 374 Q629 395 599 395 Z " />
<glyph glyph-name="Racute" unicode="&#x154;" horiz-adv-x="611" d="M70 0 L70 690 L270 690 Q342 690 394 673.5 Q446 657 480 628.5 Q514 600 530 561 Q546 522 546 476 Q546 419 522.5 382.5 Q499 346 459 323 Q500 297 526 244.5 Q552 192 567 103 Q572 75 577.5 49 Q583 23 591 0 L412 0 Q409 11 405.5 32 Q402 53 395 85 Q385 130 375.5 159.5 Q366 189 353 207 Q340 225 323.5 232 Q307 239 284 239 L245 239 L245 0 L70 0 Z M245 381 L282 381 Q314 381 339.5 402.5 Q365 424 365 466 Q365 491 356.5 507 Q348 523 332.5 532 Q317 541 294.5 545 Q272 549 245 549 L245 381 Z M317 720 L217 782 L311 946 L429 871 L317 720 Z " />
<glyph glyph-name="racute" unicode="&#x155;" horiz-adv-x="403" d="M61 0 L61 521 L213 521 L213 471 Q237 496 284 513.5 Q331 531 388 531 L388 368 Q338 368 298 362.5 Q258 357 225 337 L225 0 L61 0 Z M252 551 L152 613 L246 777 L364 702 L252 551 Z " />
<glyph glyph-name="Rcommaaccent" unicode="&#x156;" horiz-adv-x="611" d="M70 0 L70 690 L270 690 Q342 690 394 673.5 Q446 657 480 628.5 Q514 600 530 561 Q546 522 546 476 Q546 419 522.5 382.5 Q499 346 459 323 Q500 297 526 244.5 Q552 192 567 103 Q572 75 577.5 49 Q583 23 591 0 L412 0 Q409 11 405.5 32 Q402 53 395 85 Q385 130 375.5 159.5 Q366 189 353 207 Q340 225 323.5 232 Q307 239 284 239 L245 239 L245 0 L70 0 Z M245 381 L282 381 Q314 381 339.5 402.5 Q365 424 365 466 Q365 491 356.5 507 Q348 523 332.5 532 Q317 541 294.5 545 Q272 549 245 549 L245 381 Z M242 -49 L402 -49 L352 -236 L225 -236 L242 -49 Z " />
<glyph glyph-name="rcommaaccent" unicode="&#x157;" horiz-adv-x="403" d="M61 0 L61 521 L213 521 L213 471 Q237 496 284 513.5 Q331 531 388 531 L388 368 Q338 368 298 362.5 Q258 357 225 337 L225 0 L61 0 Z M71 -49 L231 -49 L181 -236 L54 -236 L71 -49 Z " />
<glyph glyph-name="Rcaron" unicode="&#x158;" horiz-adv-x="611" d="M70 0 L70 690 L270 690 Q342 690 394 673.5 Q446 657 480 628.5 Q514 600 530 561 Q546 522 546 476 Q546 419 522.5 382.5 Q499 346 459 323 Q500 297 526 244.5 Q552 192 567 103 Q572 75 577.5 49 Q583 23 591 0 L412 0 Q409 11 405.5 32 Q402 53 395 85 Q385 130 375.5 159.5 Q366 189 353 207 Q340 225 323.5 232 Q307 239 284 239 L245 239 L245 0 L70 0 Z M245 381 L282 381 Q314 381 339.5 402.5 Q365 424 365 466 Q365 491 356.5 507 Q348 523 332.5 532 Q317 541 294.5 545 Q272 549 245 549 L245 381 Z M388 946 L476 884 L357 720 L234 720 L116 884 L204 946 L296 838 L388 946 Z " />
<glyph glyph-name="rcaron" unicode="&#x159;" horiz-adv-x="403" d="M61 0 L61 521 L213 521 L213 471 Q237 496 284 513.5 Q331 531 388 531 L388 368 Q338 368 298 362.5 Q258 357 225 337 L225 0 L61 0 Z M323 777 L411 715 L292 551 L169 551 L51 715 L139 777 L231 669 L323 777 Z " />
<glyph glyph-name="Sacute" unicode="&#x15a;" horiz-adv-x="555" d="M288 700 Q338 700 380.5 685.5 Q423 671 454 643.5 Q485 616 501.5 576 Q518 536 517 484 L345 463 Q340 510 321.5 529.5 Q303 549 274 549 Q253 549 240.5 535.5 Q228 522 228 500 Q228 483 236.5 470.5 Q245 458 259.5 448.5 Q274 439 292.5 430.5 Q311 422 332 415 Q383 396 420 376 Q457 356 481 331.5 Q505 307 516.5 277 Q528 247 528 209 Q528 156 507.5 115 Q487 74 452 46.5 Q417 19 371.5 4.5 Q326 -10 277 -10 Q215 -10 171 5.5 Q127 21 96 48.5 Q65 76 46.5 113 Q28 150 18 192 L183 241 Q187 224 194 206.5 Q201 189 212.5 174.5 Q224 160 241 151 Q258 142 282 142 Q291 142 303 144 Q315 146 325.5 152 Q336 158 343.5 169 Q351 180 351 199 Q351 230 317.5 247 Q284 264 229 281 Q200 289 169 304.5 Q138 320 111.5 345 Q85 370 68 404.5 Q51 439 51 485 Q51 528 65 567.5 Q79 607 108.5 636 Q138 665 182.5 682.5 Q227 700 288 700 Z M289 720 L189 782 L283 946 L401 871 L289 720 Z " />
<glyph glyph-name="sacute" unicode="&#x15b;" horiz-adv-x="472" d="M241 532 Q286 532 320.5 521.5 Q355 511 379 493 Q403 475 417.5 450.5 Q432 426 438 399 L294 350 Q282 373 265 385.5 Q248 398 224 398 Q204 398 194 388.5 Q184 379 184 365 Q184 345 204 336 Q224 327 275 317 Q313 309 346 299 Q379 289 403 272 Q427 255 440.5 228 Q454 201 454 159 Q454 79 393 34.5 Q332 -10 226 -10 Q131 -10 81 29.5 Q31 69 17 137 L163 174 Q173 152 189.5 137.5 Q206 123 241 123 Q263 123 279.5 130.5 Q296 138 296 156 Q296 173 277.5 181 Q259 189 215 196 Q202 198 183.5 201.5 Q165 205 144 211.5 Q123 218 102 229 Q81 240 64 257.5 Q47 275 36.5 299.5 Q26 324 26 358 Q26 437 82 484.5 Q138 532 241 532 Z M249 551 L149 613 L243 777 L361 702 L249 551 Z " />
<glyph glyph-name="Scircumflex" unicode="&#x15c;" horiz-adv-x="555" d="M288 700 Q338 700 380.5 685.5 Q423 671 454 643.5 Q485 616 501.5 576 Q518 536 517 484 L345 463 Q340 510 321.5 529.5 Q303 549 274 549 Q253 549 240.5 535.5 Q228 522 228 500 Q228 483 236.5 470.5 Q245 458 259.5 448.5 Q274 439 292.5 430.5 Q311 422 332 415 Q383 396 420 376 Q457 356 481 331.5 Q505 307 516.5 277 Q528 247 528 209 Q528 156 507.5 115 Q487 74 452 46.5 Q417 19 371.5 4.5 Q326 -10 277 -10 Q215 -10 171 5.5 Q127 21 96 48.5 Q65 76 46.5 113 Q28 150 18 192 L183 241 Q187 224 194 206.5 Q201 189 212.5 174.5 Q224 160 241 151 Q258 142 282 142 Q291 142 303 144 Q315 146 325.5 152 Q336 158 343.5 169 Q351 180 351 199 Q351 230 317.5 247 Q284 264 229 281 Q200 289 169 304.5 Q138 320 111.5 345 Q85 370 68 404.5 Q51 439 51 485 Q51 528 65 567.5 Q79 607 108.5 636 Q138 665 182.5 682.5 Q227 700 288 700 Z M287 828 L195 720 L107 782 L226 946 L349 946 L467 782 L379 720 L287 828 Z " />
<glyph glyph-name="scircumflex" unicode="&#x15d;" horiz-adv-x="472" d="M241 532 Q286 532 320.5 521.5 Q355 511 379 493 Q403 475 417.5 450.5 Q432 426 438 399 L294 350 Q282 373 265 385.5 Q248 398 224 398 Q204 398 194 388.5 Q184 379 184 365 Q184 345 204 336 Q224 327 275 317 Q313 309 346 299 Q379 289 403 272 Q427 255 440.5 228 Q454 201 454 159 Q454 79 393 34.5 Q332 -10 226 -10 Q131 -10 81 29.5 Q31 69 17 137 L163 174 Q173 152 189.5 137.5 Q206 123 241 123 Q263 123 279.5 130.5 Q296 138 296 156 Q296 173 277.5 181 Q259 189 215 196 Q202 198 183.5 201.5 Q165 205 144 211.5 Q123 218 102 229 Q81 240 64 257.5 Q47 275 36.5 299.5 Q26 324 26 358 Q26 437 82 484.5 Q138 532 241 532 Z M237 659 L145 551 L57 613 L176 777 L299 777 L417 613 L329 551 L237 659 Z " />
<glyph glyph-name="Scedilla" unicode="&#x15e;" horiz-adv-x="555" d="M288 700 Q338 700 380.5 685.5 Q423 671 454 643.5 Q485 616 501.5 576 Q518 536 517 484 L345 463 Q340 510 321.5 529.5 Q303 549 274 549 Q253 549 240.5 535.5 Q228 522 228 500 Q228 483 236.5 470.5 Q245 458 259.5 448.5 Q274 439 292.5 430.5 Q311 422 332 415 Q383 396 420 376 Q457 356 481 331.5 Q505 307 516.5 277 Q528 247 528 209 Q528 159 510 120.5 Q492 82 461 54 Q430 26 389 10 Q348 -6 303 -9 L303 -53 Q310 -51 316.5 -51 Q323 -51 325 -51 Q373 -51 399.5 -75.5 Q426 -100 426 -145 Q426 -179 412 -201 Q398 -223 375.5 -236 Q353 -249 325.5 -254.5 Q298 -260 271 -260 Q230 -260 198.5 -246 Q167 -232 152 -217 L198 -143 Q210 -151 228 -161.5 Q246 -172 275 -172 Q293 -172 305.5 -166 Q318 -160 318 -146 Q318 -121 270 -121 Q255 -121 241.5 -123 Q228 -125 219 -127 L219 -6 Q173 1 139 19 Q105 37 81 63 Q57 89 42 122 Q27 155 18 192 L183 241 Q187 224 194 206.5 Q201 189 212.5 174.5 Q224 160 241 151 Q258 142 282 142 Q291 142 303 144 Q315 146 325.5 152 Q336 158 343.5 169 Q351 180 351 199 Q351 230 317.5 247 Q284 264 229 281 Q200 289 169 304.5 Q138 320 111.5 345 Q85 370 68 404.5 Q51 439 51 485 Q51 528 65 567.5 Q79 607 108.5 636 Q138 665 182.5 682.5 Q227 700 288 700 Z " />
<glyph glyph-name="scedilla" unicode="&#x15f;" horiz-adv-x="472" d="M241 532 Q286 532 320.5 521.5 Q355 511 379 493 Q403 475 417.5 450.5 Q432 426 438 399 L294 350 Q282 373 265 385.5 Q248 398 224 398 Q204 398 194 388.5 Q184 379 184 365 Q184 345 204 336 Q224 327 275 317 Q313 309 346 299 Q379 289 403 272 Q427 255 440.5 228 Q454 201 454 159 Q454 87 403.5 43.5 Q353 0 265 -8 L265 -53 Q272 -51 278.5 -51 Q285 -51 287 -51 Q335 -51 361.5 -75.5 Q388 -100 388 -145 Q388 -179 374 -201 Q360 -223 337.5 -236 Q315 -249 287.5 -254.5 Q260 -260 233 -260 Q192 -260 160.5 -246 Q129 -232 114 -217 L160 -143 Q172 -151 190 -161.5 Q208 -172 237 -172 Q255 -172 267.5 -166 Q280 -160 280 -146 Q280 -121 232 -121 Q217 -121 203.5 -123 Q190 -125 181 -127 L181 -7 Q113 4 72 36.5 Q31 69 17 137 L163 174 Q173 152 189.5 137.5 Q206 123 241 123 Q263 123 279.5 130.5 Q296 138 296 156 Q296 173 277.5 181 Q259 189 215 196 Q202 198 183.5 201.5 Q165 205 144 211.5 Q123 218 102 229 Q81 240 64 257.5 Q47 275 36.5 299.5 Q26 324 26 358 Q26 437 82 484.5 Q138 532 241 532 Z " />
<glyph glyph-name="Scaron" unicode="&#x160;" horiz-adv-x="555" d="M288 700 Q338 700 380.5 685.5 Q423 671 454 643.5 Q485 616 501.5 576 Q518 536 517 484 L345 463 Q340 510 321.5 529.5 Q303 549 274 549 Q253 549 240.5 535.5 Q228 522 228 500 Q228 483 236.5 470.5 Q245 458 259.5 448.5 Q274 439 292.5 430.5 Q311 422 332 415 Q383 396 420 376 Q457 356 481 331.5 Q505 307 516.5 277 Q528 247 528 209 Q528 156 507.5 115 Q487 74 452 46.5 Q417 19 371.5 4.5 Q326 -10 277 -10 Q215 -10 171 5.5 Q127 21 96 48.5 Q65 76 46.5 113 Q28 150 18 192 L183 241 Q187 224 194 206.5 Q201 189 212.5 174.5 Q224 160 241 151 Q258 142 282 142 Q291 142 303 144 Q315 146 325.5 152 Q336 158 343.5 169 Q351 180 351 199 Q351 230 317.5 247 Q284 264 229 281 Q200 289 169 304.5 Q138 320 111.5 345 Q85 370 68 404.5 Q51 439 51 485 Q51 528 65 567.5 Q79 607 108.5 636 Q138 665 182.5 682.5 Q227 700 288 700 Z M380 946 L468 884 L349 720 L226 720 L108 884 L196 946 L288 838 L380 946 Z " />
<glyph glyph-name="scaron" unicode="&#x161;" horiz-adv-x="472" d="M241 532 Q286 532 320.5 521.5 Q355 511 379 493 Q403 475 417.5 450.5 Q432 426 438 399 L294 350 Q282 373 265 385.5 Q248 398 224 398 Q204 398 194 388.5 Q184 379 184 365 Q184 345 204 336 Q224 327 275 317 Q313 309 346 299 Q379 289 403 272 Q427 255 440.5 228 Q454 201 454 159 Q454 79 393 34.5 Q332 -10 226 -10 Q131 -10 81 29.5 Q31 69 17 137 L163 174 Q173 152 189.5 137.5 Q206 123 241 123 Q263 123 279.5 130.5 Q296 138 296 156 Q296 173 277.5 181 Q259 189 215 196 Q202 198 183.5 201.5 Q165 205 144 211.5 Q123 218 102 229 Q81 240 64 257.5 Q47 275 36.5 299.5 Q26 324 26 358 Q26 437 82 484.5 Q138 532 241 532 Z M330 777 L418 715 L299 551 L176 551 L58 715 L146 777 L238 669 L330 777 Z " />
<glyph glyph-name="uni0162" unicode="&#x162;" horiz-adv-x="573" d="M199 0 L199 549 L25 549 L25 690 L548 690 L548 549 L374 549 L374 0 L199 0 Z M209 -49 L369 -49 L319 -236 L192 -236 L209 -49 Z " />
<glyph glyph-name="uni0163" unicode="&#x163;" horiz-adv-x="377" d="M4 521 L81 521 L81 625 L245 657 L245 521 L354 521 L354 401 L245 401 L245 200 Q245 164 262.5 146.5 Q280 129 322 129 L354 129 L354 0 L293 0 Q232 0 191.5 12.5 Q151 25 126.5 50 Q102 75 91.5 112.5 Q81 150 81 198 L81 401 L4 401 L4 521 Z M143 -49 L303 -49 L253 -236 L126 -236 L143 -49 Z " />
<glyph glyph-name="Tcaron" unicode="&#x164;" horiz-adv-x="573" d="M199 0 L199 549 L25 549 L25 690 L548 690 L548 549 L374 549 L374 0 L199 0 Z M369 946 L457 884 L338 720 L215 720 L97 884 L185 946 L277 838 L369 946 Z " />
<glyph glyph-name="tcaron" unicode="&#x165;" horiz-adv-x="377" d="M4 521 L81 521 L81 625 L245 657 L245 521 L354 521 L354 401 L245 401 L245 200 Q245 164 262.5 146.5 Q280 129 322 129 L354 129 L354 0 L293 0 Q232 0 191.5 12.5 Q151 25 126.5 50 Q102 75 91.5 112.5 Q81 150 81 198 L81 401 L4 401 L4 521 Z M290 740 L440 740 L390 553 L273 554 L290 740 Z " />
<glyph glyph-name="Tbar" unicode="&#x166;" horiz-adv-x="573" d="M199 0 L199 277 L114 277 L114 391 L199 391 L199 549 L25 549 L25 690 L548 690 L548 549 L374 549 L374 391 L461 391 L461 277 L374 277 L374 0 L199 0 Z " />
<glyph glyph-name="tbar" unicode="&#x167;" horiz-adv-x="377" d="M4 521 L81 521 L81 625 L245 657 L245 521 L354 521 L354 401 L245 401 L245 334 L327 334 L327 220 L245 220 L245 200 Q245 164 262.5 146.5 Q280 129 322 129 L354 129 L354 0 L293 0 Q232 0 191.5 12.5 Q151 25 126.5 50 Q102 75 91.5 112.5 Q81 150 81 198 L81 220 L28 220 L28 334 L81 334 L81 401 L4 401 L4 521 Z " />
<glyph glyph-name="Utilde" unicode="&#x168;" horiz-adv-x="681" d="M338 -10 Q277 -10 226.5 6 Q176 22 140 54 Q104 86 84.5 134.5 Q65 183 65 249 L65 690 L240 691 L240 238 Q240 191 268 166.5 Q296 142 342 142 Q360 142 377.5 147 Q395 152 409.5 163.5 Q424 175 432.5 192.5 Q441 210 441 235 L441 690 L616 690 L616 253 Q616 191 596 142 Q576 93 540 59 Q504 25 452.5 7.5 Q401 -10 338 -10 Z M146 800 Q163 845 197 870.5 Q231 896 263 896 Q285 896 302.5 889.5 Q320 883 334 874.5 Q348 866 361.5 859.5 Q375 853 390 853 Q409 853 422.5 863 Q436 873 452 896 L534 827 Q514 782 478 752 Q442 722 404 722 Q381 722 363.5 728.5 Q346 735 331.5 743.5 Q317 752 304 758.5 Q291 765 277 765 Q259 765 247 755 Q235 745 221 728 L146 800 Z " />
<glyph glyph-name="utilde" unicode="&#x169;" horiz-adv-x="564" d="M215 -10 Q173 -10 143 4.5 Q113 19 93.5 44 Q74 69 64.5 102 Q55 135 55 173 L55 521 L219 521 L219 206 Q219 167 233 151.5 Q247 136 264 136 Q292 136 308.5 146.5 Q325 157 337 171 L337 521 L502 521 L502 0 L349 0 L349 43 Q326 20 294 5 Q262 -10 215 -10 Z M87 631 Q104 676 138 701.5 Q172 727 204 727 Q226 727 243.5 720.5 Q261 714 275 705.5 Q289 697 302.5 690.5 Q316 684 331 684 Q350 684 363.5 694 Q377 704 393 727 L475 658 Q455 613 419 583 Q383 553 345 553 Q322 553 304.5 559.5 Q287 566 272.5 574.5 Q258 583 245 589.5 Q232 596 218 596 Q200 596 188 586 Q176 576 162 559 L87 631 Z " />
<glyph glyph-name="Umacron" unicode="&#x16a;" horiz-adv-x="681" d="M338 -10 Q277 -10 226.5 6 Q176 22 140 54 Q104 86 84.5 134.5 Q65 183 65 249 L65 690 L240 691 L240 238 Q240 191 268 166.5 Q296 142 342 142 Q360 142 377.5 147 Q395 152 409.5 163.5 Q424 175 432.5 192.5 Q441 210 441 235 L441 690 L616 690 L616 253 Q616 191 596 142 Q576 93 540 59 Q504 25 452.5 7.5 Q401 -10 338 -10 Z M191 769 L191 883 L490 883 L490 769 L191 769 Z " />
<glyph glyph-name="umacron" unicode="&#x16b;" horiz-adv-x="564" d="M215 -10 Q173 -10 143 4.5 Q113 19 93.5 44 Q74 69 64.5 102 Q55 135 55 173 L55 521 L219 521 L219 206 Q219 167 233 151.5 Q247 136 264 136 Q292 136 308.5 146.5 Q325 157 337 171 L337 521 L502 521 L502 0 L349 0 L349 43 Q326 20 294 5 Q262 -10 215 -10 Z M132 600 L132 714 L431 714 L431 600 L132 600 Z " />
<glyph glyph-name="Ubreve" unicode="&#x16c;" horiz-adv-x="681" d="M338 -10 Q277 -10 226.5 6 Q176 22 140 54 Q104 86 84.5 134.5 Q65 183 65 249 L65 690 L240 691 L240 238 Q240 191 268 166.5 Q296 142 342 142 Q360 142 377.5 147 Q395 152 409.5 163.5 Q424 175 432.5 192.5 Q441 210 441 235 L441 690 L616 690 L616 253 Q616 191 596 142 Q576 93 540 59 Q504 25 452.5 7.5 Q401 -10 338 -10 Z M340 720 Q267 720 221.5 772.5 Q176 825 159 925 L260 952 Q273 895 290.5 867.5 Q308 840 340 840 Q372 840 390 867.5 Q408 895 420 952 L522 925 Q505 825 459.5 772.5 Q414 720 340 720 Z " />
<glyph glyph-name="ubreve" unicode="&#x16d;" horiz-adv-x="564" d="M215 -10 Q173 -10 143 4.5 Q113 19 93.5 44 Q74 69 64.5 102 Q55 135 55 173 L55 521 L219 521 L219 206 Q219 167 233 151.5 Q247 136 264 136 Q292 136 308.5 146.5 Q325 157 337 171 L337 521 L502 521 L502 0 L349 0 L349 43 Q326 20 294 5 Q262 -10 215 -10 Z M281 551 Q208 551 162.5 603.5 Q117 656 100 756 L201 783 Q214 726 231.5 698.5 Q249 671 281 671 Q313 671 331 698.5 Q349 726 361 783 L463 756 Q446 656 400.5 603.5 Q355 551 281 551 Z " />
<glyph glyph-name="Uring" unicode="&#x16e;" horiz-adv-x="681" d="M338 -10 Q277 -10 226.5 6 Q176 22 140 54 Q104 86 84.5 134.5 Q65 183 65 249 L65 690 L240 691 L240 238 Q240 191 268 166.5 Q296 142 342 142 Q360 142 377.5 147 Q395 152 409.5 163.5 Q424 175 432.5 192.5 Q441 210 441 235 L441 690 L616 690 L616 253 Q616 191 596 142 Q576 93 540 59 Q504 25 452.5 7.5 Q401 -10 338 -10 Z M338 720 Q287 720 257 750 Q227 780 227 830 Q227 885 257 915.5 Q287 946 338 946 Q392 946 422.5 915.5 Q453 885 453 831 Q453 780 422.5 750 Q392 720 338 720 Z M339 795 Q358 795 368.5 805 Q379 815 379 832 Q379 850 368.5 860.5 Q358 871 339 871 Q322 871 312 860.5 Q302 850 302 832 Q302 815 312 805 Q322 795 339 795 Z " />
<glyph glyph-name="uring" unicode="&#x16f;" horiz-adv-x="564" d="M215 -10 Q173 -10 143 4.5 Q113 19 93.5 44 Q74 69 64.5 102 Q55 135 55 173 L55 521 L219 521 L219 206 Q219 167 233 151.5 Q247 136 264 136 Q292 136 308.5 146.5 Q325 157 337 171 L337 521 L502 521 L502 0 L349 0 L349 43 Q326 20 294 5 Q262 -10 215 -10 Z M279 551 Q228 551 198 581 Q168 611 168 661 Q168 716 198 746.5 Q228 777 279 777 Q333 777 363.5 746.5 Q394 716 394 662 Q394 611 363.5 581 Q333 551 279 551 Z M280 626 Q299 626 309.5 636 Q320 646 320 663 Q320 681 309.5 691.5 Q299 702 280 702 Q263 702 253 691.5 Q243 681 243 663 Q243 646 253 636 Q263 626 280 626 Z " />
<glyph glyph-name="Uhungarumlaut" unicode="&#x170;" horiz-adv-x="681" d="M338 -10 Q277 -10 226.5 6 Q176 22 140 54 Q104 86 84.5 134.5 Q65 183 65 249 L65 690 L240 691 L240 238 Q240 191 268 166.5 Q296 142 342 142 Q360 142 377.5 147 Q395 152 409.5 163.5 Q424 175 432.5 192.5 Q441 210 441 235 L441 690 L616 690 L616 253 Q616 191 596 142 Q576 93 540 59 Q504 25 452.5 7.5 Q401 -10 338 -10 Z M261 720 L173 764 L248 946 L354 889 L261 720 Z M433 720 L345 764 L420 946 L526 889 L433 720 Z " />
<glyph glyph-name="uhungarumlaut" unicode="&#x171;" horiz-adv-x="564" d="M215 -10 Q173 -10 143 4.5 Q113 19 93.5 44 Q74 69 64.5 102 Q55 135 55 173 L55 521 L219 521 L219 206 Q219 167 233 151.5 Q247 136 264 136 Q292 136 308.5 146.5 Q325 157 337 171 L337 521 L502 521 L502 0 L349 0 L349 43 Q326 20 294 5 Q262 -10 215 -10 Z M202 551 L114 595 L189 777 L295 720 L202 551 Z M374 551 L286 595 L361 777 L467 720 L374 551 Z " />
<glyph glyph-name="Uogonek" unicode="&#x172;" horiz-adv-x="681" d="M616 253 Q616 156 570 93 Q524 30 443 5 Q417 -26 401.5 -53 Q386 -80 386 -115 Q386 -142 398 -157.5 Q410 -173 431 -173 Q454 -173 471 -161.5 Q488 -150 503 -132 L559 -189 Q553 -198 541 -210 Q529 -222 511 -233.5 Q493 -245 469 -252.5 Q445 -260 414 -260 Q351 -260 314.5 -229 Q278 -198 278 -141 Q278 -107 292 -76 Q306 -45 332 -10 Q272 -9 223 7 Q174 23 138.5 55.5 Q103 88 84 136 Q65 184 65 249 L65 690 L240 691 L240 238 Q240 191 268 166.5 Q296 142 342 142 Q360 142 377.5 147 Q395 152 409.5 163.5 Q424 175 432.5 192.5 Q441 210 441 235 L441 690 L616 690 L616 253 L616 253 Z " />
<glyph glyph-name="uogonek" unicode="&#x173;" horiz-adv-x="564" d="M215 -10 Q173 -10 143 4.5 Q113 19 93.5 44 Q74 69 64.5 102 Q55 135 55 173 L55 521 L219 521 L219 206 Q219 167 234.5 151.5 Q250 136 264 136 Q292 136 308.5 146.5 Q325 157 337 171 L337 521 L502 521 L502 0 L439 0 Q414 -29 400.5 -55.5 Q387 -82 387 -115 Q387 -142 399 -157.5 Q411 -173 432 -173 Q455 -173 472 -161.5 Q489 -150 504 -132 L560 -189 Q554 -198 542 -210 Q530 -222 512 -233.5 Q494 -245 470 -252.5 Q446 -260 415 -260 Q352 -260 315.5 -229 Q279 -198 279 -141 Q279 -103 297 -67 Q315 -31 349 10 L349 43 Q326 20 294 5 Q262 -10 215 -10 Z " />
<glyph glyph-name="Wcircumflex" unicode="&#x174;" horiz-adv-x="966" d="M218 0 L15 690 L195 690 L305 247 L416 572 L554 572 L668 258 L781 690 L951 690 L744 0 L612 0 L477 389 L352 0 L218 0 Z M482 828 L390 720 L302 782 L421 946 L544 946 L662 782 L574 720 L482 828 Z " />
<glyph glyph-name="wcircumflex" unicode="&#x175;" horiz-adv-x="799" d="M10 521 L178 521 L261 179 L349 443 L457 443 L549 180 L623 521 L789 521 L641 0 L470 0 L394 220 L324 0 L158 0 L10 521 Z M398 659 L306 551 L218 613 L337 777 L460 777 L578 613 L490 551 L398 659 Z " />
<glyph glyph-name="Ycircumflex" unicode="&#x176;" horiz-adv-x="638" d="M233 0 L233 226 L5 690 L195 690 L327 373 L460 690 L633 690 L408 226 L408 0 L233 0 Z M318 828 L226 720 L138 782 L257 946 L380 946 L498 782 L410 720 L318 828 Z " />
<glyph glyph-name="ycircumflex" unicode="&#x177;" horiz-adv-x="563" d="M212 -22 L4 521 L182 521 L287 169 L397 521 L565 521 L349 -41 Q330 -91 306 -129.5 Q282 -168 250.5 -195 Q219 -222 178 -236 Q137 -250 83 -250 L26 -250 L26 -121 L79 -121 Q125 -121 150.5 -104.5 Q176 -88 197 -49 L212 -22 Z M279 659 L187 551 L99 613 L218 777 L341 777 L459 613 L371 551 L279 659 Z " />
<glyph glyph-name="Ydieresis" unicode="&#x178;" horiz-adv-x="638" d="M233 0 L233 226 L5 690 L195 690 L327 373 L460 690 L633 690 L408 226 L408 0 L233 0 Z M221 737 Q185 737 164 758.5 Q143 780 143 815 Q143 853 164 874 Q185 895 221 895 Q259 895 280 874 Q301 853 301 815 Q301 780 280 758.5 Q259 737 221 737 Z M413 737 Q378 737 357 758.5 Q336 780 336 815 Q336 853 357 874 Q378 895 413 895 Q451 895 472 874 Q493 853 493 815 Q493 780 472 758.5 Q451 737 413 737 Z " />
<glyph glyph-name="Zacute" unicode="&#x179;" horiz-adv-x="591" d="M236 141 L551 141 L551 0 L40 0 L40 139 L351 549 L57 549 L57 690 L548 690 L548 549 L236 141 Z M327 720 L227 782 L321 946 L439 871 L327 720 Z " />
<glyph glyph-name="zacute" unicode="&#x17a;" horiz-adv-x="463" d="M208 129 L438 129 L438 0 L25 0 L25 120 L244 391 L42 391 L42 521 L432 521 L432 400 L208 129 Z M253 551 L153 613 L247 777 L365 702 L253 551 Z " />
<glyph glyph-name="Zdotaccent" unicode="&#x17b;" horiz-adv-x="591" d="M236 141 L551 141 L551 0 L40 0 L40 139 L351 549 L57 549 L57 690 L548 690 L548 549 L236 141 Z M314 737 Q274 737 251 761 Q228 785 228 824 Q228 866 251 890 Q274 914 314 914 Q356 914 380.5 890 Q405 866 405 824 Q405 785 380.5 761 Q356 737 314 737 Z " />
<glyph glyph-name="zdotaccent" unicode="&#x17c;" horiz-adv-x="463" d="M208 129 L438 129 L438 0 L25 0 L25 120 L244 391 L42 391 L42 521 L432 521 L432 400 L208 129 Z M230 568 Q190 568 167 592 Q144 616 144 655 Q144 697 167 721 Q190 745 230 745 Q272 745 296.5 721 Q321 697 321 655 Q321 616 296.5 592 Q272 568 230 568 Z " />
<glyph glyph-name="Zcaron" unicode="&#x17d;" horiz-adv-x="591" d="M236 141 L551 141 L551 0 L40 0 L40 139 L351 549 L57 549 L57 690 L548 690 L548 549 L236 141 Z M398 946 L486 884 L367 720 L244 720 L126 884 L214 946 L306 838 L398 946 Z " />
<glyph glyph-name="zcaron" unicode="&#x17e;" horiz-adv-x="463" d="M208 129 L438 129 L438 0 L25 0 L25 120 L244 391 L42 391 L42 521 L432 521 L432 400 L208 129 Z M324 777 L412 715 L293 551 L170 551 L52 715 L140 777 L232 669 L324 777 Z " />
<glyph glyph-name="florin" unicode="&#x192;" horiz-adv-x="430" d="M65 481 L140 481 L140 556 Q140 603 149.5 639 Q159 675 183 699.5 Q207 724 247.5 736 Q288 748 350 748 L443 748 L442 628 L380 628 Q338 629 321 609.5 Q304 590 304 552 L304 481 L433 482 L433 362 L304 361 L304 194 Q304 147 294 111 Q284 75 260 50.5 Q236 26 195.5 14 Q155 2 94 2 L1 2 L2 122 L64 122 Q106 121 123 140.5 Q140 160 140 198 L140 361 L64 361 L65 481 Z " />
<glyph glyph-name="uni0218" unicode="&#x218;" horiz-adv-x="555" d="M288 700 Q338 700 380.5 685.5 Q423 671 454 643.5 Q485 616 501.5 576 Q518 536 517 484 L345 463 Q340 510 321.5 529.5 Q303 549 274 549 Q253 549 240.5 535.5 Q228 522 228 500 Q228 483 236.5 470.5 Q245 458 259.5 448.5 Q274 439 292.5 430.5 Q311 422 332 415 Q383 396 420 376 Q457 356 481 331.5 Q505 307 516.5 277 Q528 247 528 209 Q528 156 507.5 115 Q487 74 452 46.5 Q417 19 371.5 4.5 Q326 -10 277 -10 Q215 -10 171 5.5 Q127 21 96 48.5 Q65 76 46.5 113 Q28 150 18 192 L183 241 Q187 224 194 206.5 Q201 189 212.5 174.5 Q224 160 241 151 Q258 142 282 142 Q291 142 303 144 Q315 146 325.5 152 Q336 158 343.5 169 Q351 180 351 199 Q351 230 317.5 247 Q284 264 229 281 Q200 289 169 304.5 Q138 320 111.5 345 Q85 370 68 404.5 Q51 439 51 485 Q51 528 65 567.5 Q79 607 108.5 636 Q138 665 182.5 682.5 Q227 700 288 700 Z M210 -49 L370 -49 L320 -236 L193 -236 L210 -49 Z " />
<glyph glyph-name="uni0219" unicode="&#x219;" horiz-adv-x="472" d="M241 532 Q286 532 320.5 521.5 Q355 511 379 493 Q403 475 417.5 450.5 Q432 426 438 399 L294 350 Q282 373 265 385.5 Q248 398 224 398 Q204 398 194 388.5 Q184 379 184 365 Q184 345 204 336 Q224 327 275 317 Q313 309 346 299 Q379 289 403 272 Q427 255 440.5 228 Q454 201 454 159 Q454 79 393 34.5 Q332 -10 226 -10 Q131 -10 81 29.5 Q31 69 17 137 L163 174 Q173 152 189.5 137.5 Q206 123 241 123 Q263 123 279.5 130.5 Q296 138 296 156 Q296 173 277.5 181 Q259 189 215 196 Q202 198 183.5 201.5 Q165 205 144 211.5 Q123 218 102 229 Q81 240 64 257.5 Q47 275 36.5 299.5 Q26 324 26 358 Q26 437 82 484.5 Q138 532 241 532 Z M160 -49 L320 -49 L270 -236 L143 -236 L160 -49 Z " />
<glyph glyph-name="uni021A" unicode="&#x21a;" horiz-adv-x="573" d="M199 0 L199 549 L25 549 L25 690 L548 690 L548 549 L374 549 L374 0 L199 0 Z M209 -49 L369 -49 L319 -236 L192 -236 L209 -49 Z " />
<glyph glyph-name="uni021B" unicode="&#x21b;" horiz-adv-x="377" d="M4 521 L81 521 L81 625 L245 657 L245 521 L354 521 L354 401 L245 401 L245 200 Q245 164 262.5 146.5 Q280 129 322 129 L354 129 L354 0 L293 0 Q232 0 191.5 12.5 Q151 25 126.5 50 Q102 75 91.5 112.5 Q81 150 81 198 L81 401 L4 401 L4 521 Z M143 -49 L303 -49 L253 -236 L126 -236 L143 -49 Z " />
<glyph glyph-name="dotlessj" unicode="&#x237;" horiz-adv-x="286" d="M-27 -146 L-18 -146 Q24 -146 42.5 -126.5 Q61 -107 61 -74 L61 521 L225 521 L225 -68 Q225 -168 172.5 -221.5 Q120 -275 8 -275 L-26 -275 L-27 -146 Z " />
<glyph glyph-name="circumflex" unicode="&#x2c6;" horiz-adv-x="541" d="M270 659 L178 551 L90 613 L209 777 L332 777 L450 613 L362 551 L270 659 Z " />
<glyph glyph-name="caron" unicode="&#x2c7;" horiz-adv-x="541" d="M353 777 L441 715 L322 551 L199 551 L81 715 L169 777 L261 669 L353 777 Z " />
<glyph glyph-name="breve" unicode="&#x2d8;" horiz-adv-x="541" d="M270 551 Q197 551 151.5 603.5 Q106 656 89 756 L190 783 Q203 726 220.5 698.5 Q238 671 270 671 Q302 671 320 698.5 Q338 726 350 783 L452 756 Q435 656 389.5 603.5 Q344 551 270 551 Z " />
<glyph glyph-name="dotaccent" unicode="&#x2d9;" horiz-adv-x="541" d="M269 568 Q229 568 206 592 Q183 616 183 655 Q183 697 206 721 Q229 745 269 745 Q311 745 335.5 721 Q360 697 360 655 Q360 616 335.5 592 Q311 568 269 568 Z " />
<glyph glyph-name="ring" unicode="&#x2da;" horiz-adv-x="541" d="M268 551 Q217 551 187 581 Q157 611 157 661 Q157 716 187 746.5 Q217 777 268 777 Q322 777 352.5 746.5 Q383 716 383 662 Q383 611 352.5 581 Q322 551 268 551 Z M269 626 Q288 626 298.5 636 Q309 646 309 663 Q309 681 298.5 691.5 Q288 702 269 702 Q252 702 242 691.5 Q232 681 232 663 Q232 646 242 636 Q252 626 269 626 Z " />
<glyph glyph-name="ogonek" unicode="&#x2db;" horiz-adv-x="541" d="M332 86 Q306 52 283.5 26 Q261 0 244.5 -22.5 Q228 -45 218.5 -67 Q209 -89 209 -115 Q209 -142 221 -157.5 Q233 -173 253 -173 Q276 -173 293 -161.5 Q310 -150 326 -132 L381 -189 Q375 -198 363 -210 Q351 -222 333 -233.5 Q315 -245 291 -252.5 Q267 -260 236 -260 Q173 -260 137 -229 Q101 -198 101 -141 Q101 -110 113 -80.5 Q125 -51 148 -19.5 Q171 12 203.5 48 Q236 84 277 128 L332 86 Z " />
<glyph glyph-name="tilde" unicode="&#x2dc;" horiz-adv-x="541" d="M76 631 Q93 676 127 701.5 Q161 727 193 727 Q215 727 232.5 720.5 Q250 714 264 705.5 Q278 697 291.5 690.5 Q305 684 320 684 Q339 684 352.5 694 Q366 704 382 727 L464 658 Q444 613 408 583 Q372 553 334 553 Q311 553 293.5 559.5 Q276 566 261.5 574.5 Q247 583 234 589.5 Q221 596 207 596 Q189 596 177 586 Q165 576 151 559 L76 631 Z " />
<glyph glyph-name="hungarumlaut" unicode="&#x2dd;" horiz-adv-x="541" d="M191 551 L103 595 L178 777 L284 720 L191 551 Z M363 551 L275 595 L350 777 L456 720 L363 551 Z " />
<glyph glyph-name="uni0394" unicode="&#x394;" horiz-adv-x="624" d="M609 0 L15 0 L15 109 L256 690 L368 690 L609 109 L609 0 Z M444 132 L310 480 L179 132 L444 132 Z " />
<glyph glyph-name="uni03A9" unicode="&#x3a9;" horiz-adv-x="702" d="M24 132 L127 132 Q107 148 88.5 168.5 Q70 189 56 216.5 Q42 244 33 279.5 Q24 315 24 362 Q24 433 48 495 Q72 557 115 602.5 Q158 648 218 674 Q278 700 350 700 Q428 700 489 675.5 Q550 651 592 606.5 Q634 562 656 499.5 Q678 437 678 362 Q678 315 668 279.5 Q658 244 642 217 Q626 190 606 169.5 Q586 149 567 132 L678 132 L678 0 L406 0 L406 132 Q424 145 440.5 163.5 Q457 182 469.5 207.5 Q482 233 489.5 266.5 Q497 300 497 344 Q497 444 464 493.5 Q431 543 350 543 Q311 543 283 529 Q255 515 238 489.5 Q221 464 213 427.5 Q205 391 205 346 Q205 296 211 262 Q217 228 230 203.5 Q243 179 262.5 162.5 Q282 146 308 132 L308 0 L24 0 L24 132 Z " />
<glyph glyph-name="pi" unicode="&#x3c0;" horiz-adv-x="620" d="M99 0 L99 401 L11 401 L11 521 L611 521 L611 401 L525 401 L525 0 L360 0 L360 401 L263 401 L263 0 L99 0 Z " />
<glyph glyph-name="Wgrave" unicode="&#x1e80;" horiz-adv-x="966" d="M218 0 L15 690 L195 690 L305 247 L416 572 L554 572 L668 258 L781 690 L951 690 L744 0 L612 0 L477 389 L352 0 L218 0 Z M336 871 L453 946 L548 782 L448 720 L336 871 Z " />
<glyph glyph-name="wgrave" unicode="&#x1e81;" horiz-adv-x="799" d="M10 521 L178 521 L261 179 L349 443 L457 443 L549 180 L623 521 L789 521 L641 0 L470 0 L394 220 L324 0 L158 0 L10 521 Z M252 702 L369 777 L464 613 L364 551 L252 702 Z " />
<glyph glyph-name="Wacute" unicode="&#x1e82;" horiz-adv-x="966" d="M218 0 L15 690 L195 690 L305 247 L416 572 L554 572 L668 258 L781 690 L951 690 L744 0 L612 0 L477 389 L352 0 L218 0 Z M494 720 L394 782 L488 946 L606 871 L494 720 Z " />
<glyph glyph-name="wacute" unicode="&#x1e83;" horiz-adv-x="799" d="M10 521 L178 521 L261 179 L349 443 L457 443 L549 180 L623 521 L789 521 L641 0 L470 0 L394 220 L324 0 L158 0 L10 521 Z M410 551 L310 613 L404 777 L522 702 L410 551 Z " />
<glyph glyph-name="Wdieresis" unicode="&#x1e84;" horiz-adv-x="966" d="M218 0 L15 690 L195 690 L305 247 L416 572 L554 572 L668 258 L781 690 L951 690 L744 0 L612 0 L477 389 L352 0 L218 0 Z M385 737 Q349 737 328 758.5 Q307 780 307 815 Q307 853 328 874 Q349 895 385 895 Q423 895 444 874 Q465 853 465 815 Q465 780 444 758.5 Q423 737 385 737 Z M577 737 Q542 737 521 758.5 Q500 780 500 815 Q500 853 521 874 Q542 895 577 895 Q615 895 636 874 Q657 853 657 815 Q657 780 636 758.5 Q615 737 577 737 Z " />
<glyph glyph-name="wdieresis" unicode="&#x1e85;" horiz-adv-x="799" d="M10 521 L178 521 L261 179 L349 443 L457 443 L549 180 L623 521 L789 521 L641 0 L470 0 L394 220 L324 0 L158 0 L10 521 Z M301 568 Q265 568 244 589.5 Q223 611 223 646 Q223 684 244 705 Q265 726 301 726 Q339 726 360 705 Q381 684 381 646 Q381 611 360 589.5 Q339 568 301 568 Z M493 568 Q458 568 437 589.5 Q416 611 416 646 Q416 684 437 705 Q458 726 493 726 Q531 726 552 705 Q573 684 573 646 Q573 611 552 589.5 Q531 568 493 568 Z " />
<glyph glyph-name="Ygrave" unicode="&#x1ef2;" horiz-adv-x="638" d="M233 0 L233 226 L5 690 L195 690 L327 373 L460 690 L633 690 L408 226 L408 0 L233 0 Z M172 871 L289 946 L384 782 L284 720 L172 871 Z " />
<glyph glyph-name="ygrave" unicode="&#x1ef3;" horiz-adv-x="563" d="M212 -22 L4 521 L182 521 L287 169 L397 521 L565 521 L349 -41 Q330 -91 306 -129.5 Q282 -168 250.5 -195 Q219 -222 178 -236 Q137 -250 83 -250 L26 -250 L26 -121 L79 -121 Q125 -121 150.5 -104.5 Q176 -88 197 -49 L212 -22 Z M133 702 L250 777 L345 613 L245 551 L133 702 Z " />
<glyph glyph-name="endash" unicode="&#x2013;" horiz-adv-x="480" d="M28 204 L28 324 L452 324 L452 204 L28 204 Z " />
<glyph glyph-name="emdash" unicode="&#x2014;" horiz-adv-x="980" d="M28 204 L28 324 L952 324 L952 204 L28 204 Z " />
<glyph glyph-name="quoteleft" unicode="&#x2018;" horiz-adv-x="238" d="M193 508 L27 508 L79 740 L212 739 L193 508 Z " />
<glyph glyph-name="quoteright" unicode="&#x2019;" horiz-adv-x="238" d="M56 740 L222 740 L169 508 L36 509 L56 740 Z " />
<glyph glyph-name="quotesinglbase" unicode="&#x201a;" horiz-adv-x="238" d="M37 20 L203 20 L150 -212 L17 -211 L37 20 Z " />
<glyph glyph-name="quotedblleft" unicode="&#x201c;" horiz-adv-x="454" d="M409 508 L243 508 L295 740 L428 739 L409 508 Z M193 508 L27 508 L79 740 L212 739 L193 508 Z " />
<glyph glyph-name="quotedblright" unicode="&#x201d;" horiz-adv-x="454" d="M272 740 L438 740 L385 508 L252 509 L272 740 Z M56 740 L222 740 L169 508 L36 509 L56 740 Z " />
<glyph glyph-name="quotedblbase" unicode="&#x201e;" horiz-adv-x="454" d="M253 20 L419 20 L366 -212 L233 -211 L253 20 Z M37 20 L203 20 L150 -212 L17 -211 L37 20 Z " />
<glyph glyph-name="dagger" unicode="&#x2020;" horiz-adv-x="455" d="M22 554 L143 554 L143 700 L300 700 L300 555 L433 555 L433 417 L300 417 L300 0 L143 0 L143 416 L22 416 L22 554 Z " />
<glyph glyph-name="daggerdbl" unicode="&#x2021;" horiz-adv-x="455" d="M22 554 L143 554 L143 700 L300 700 L300 555 L433 555 L433 417 L300 417 L300 284 L433 284 L433 146 L300 146 L300 0 L143 0 L143 145 L22 145 L22 283 L143 283 L143 416 L22 416 L22 554 Z " />
<glyph glyph-name="bullet" unicode="&#x2022;" horiz-adv-x="378" d="M65 342 Q65 367 75 389.5 Q85 412 102 429 Q119 446 141.5 456 Q164 466 189 466 Q214 466 236.5 456 Q259 446 276 429 Q293 412 303 389.5 Q313 367 313 342 Q313 317 303 294.5 Q293 272 276 255 Q259 238 236.5 228 Q214 218 189 218 Q164 218 141.5 228 Q119 238 102 255 Q85 272 75 294.5 Q65 317 65 342 Z " />
<glyph glyph-name="ellipsis" unicode="&#x2026;" horiz-adv-x="778" d="M43 78 Q43 123 70.5 150.5 Q98 178 143 178 Q188 178 215.5 150.5 Q243 123 243 78 Q243 33 215.5 5.5 Q188 -22 143 -22 Q98 -22 70.5 5.5 Q43 33 43 78 Z M289 78 Q289 123 316.5 150.5 Q344 178 389 178 Q434 178 461.5 150.5 Q489 123 489 78 Q489 33 461.5 5.5 Q434 -22 389 -22 Q344 -22 316.5 5.5 Q289 33 289 78 Z M535 78 Q535 123 562.5 150.5 Q590 178 635 178 Q680 178 707.5 150.5 Q735 123 735 78 Q735 33 707.5 5.5 Q680 -22 635 -22 Q590 -22 562.5 5.5 Q535 33 535 78 Z " />
<glyph glyph-name="perthousand" unicode="&#x2030;" horiz-adv-x="1230" d="M116 54 L645 712 L732 639 L204 -22 L116 54 Z M212 452 Q229 452 238.5 468 Q248 484 248 522 Q248 559 238.5 575 Q229 591 212 591 Q195 591 185 575 Q175 559 175 521 Q175 484 184.5 468 Q194 452 212 452 Z M212 331 Q134 331 87 378 Q40 425 40 519 Q40 570 55 607 Q70 644 94 667 Q118 690 149 701 Q180 712 212 712 Q290 712 337 665 Q384 618 384 524 Q384 473 369 436 Q354 399 330 376 Q306 353 275 342 Q244 331 212 331 Z M636 99 Q653 99 662.5 115 Q672 131 672 169 Q672 206 662.5 222 Q653 238 636 238 Q619 238 609.5 222 Q600 206 600 168 Q600 131 609.5 115 Q619 99 636 99 Z M636 -22 Q558 -22 511 25 Q464 72 464 166 Q464 217 479 254 Q494 291 518 314 Q542 337 573 348 Q604 359 636 359 Q714 359 761 312 Q808 265 808 171 Q808 120 793 83 Q778 46 754 23 Q730 0 699 -11 Q668 -22 636 -22 Z M1018 99 Q1035 99 1044.5 115 Q1054 131 1054 169 Q1054 206 1044.5 222 Q1035 238 1018 238 Q1001 238 991.5 222 Q982 206 982 168 Q982 131 991.5 115 Q1001 99 1018 99 Z M1018 -22 Q940 -22 893 25 Q846 72 846 166 Q846 217 861 254 Q876 291 900 314 Q924 337 955 348 Q986 359 1018 359 Q1096 359 1143 312 Q1190 265 1190 171 Q1190 120 1175 83 Q1160 46 1136 23 Q1112 0 1081 -11 Q1050 -22 1018 -22 Z " />
<glyph glyph-name="guilsinglleft" unicode="&#x2039;" horiz-adv-x="334" d="M35 318 L199 489 L294 387 L162 264 L293 141 L199 40 L35 210 L35 318 Z " />
<glyph glyph-name="guilsinglright" unicode="&#x203a;" horiz-adv-x="333" d="M298 210 L134 40 L40 141 L171 264 L40 387 L134 489 L298 318 L298 210 Z " />
<glyph glyph-name="fraction" unicode="&#x2044;" horiz-adv-x="78" d="M-269 54 L260 712 L347 639 L-181 -22 L-269 54 Z " />
<glyph glyph-name="foursuperior" unicode="&#x2074;" horiz-adv-x="361" d="M-6 475 L161 704 L285 704 L285 493 L326 493 L326 395 L285 395 L285 335 L172 335 L172 395 L-6 395 L-6 475 Z M101 493 L172 493 L172 594 L101 493 Z " />
<glyph glyph-name="Euro" unicode="&#x20ac;" horiz-adv-x="631" d="M18 476 L93 476 Q108 533 135.5 575 Q163 617 199 645 Q235 673 278 686.5 Q321 700 368 700 Q417 700 458.5 689 Q500 678 532 655.5 Q564 633 585 597.5 Q606 562 614 514 L448 473 Q438 511 417.5 530 Q397 549 368 549 Q336 549 312.5 532 Q289 515 275 476 L386 476 L386 367 L259 367 L259 346 Q259 338 259 330.5 Q259 323 260 316 L386 316 L386 207 L280 207 Q295 171 318 156.5 Q341 142 370 142 Q405 142 428.5 162.5 Q452 183 456 231 L626 200 Q614 146 589.5 106.5 Q565 67 531.5 41 Q498 15 456.5 2.5 Q415 -10 370 -10 Q261 -10 190 43.5 Q119 97 93 207 L18 207 L18 316 L78 316 L78 367 L18 367 L18 476 Z " />
<glyph glyph-name="uni2113" unicode="&#x2113;" horiz-adv-x="573" d="M-5 177 Q22 189 47.5 202 Q73 215 96 229 Q99 340 132 427 Q165 514 214 575 Q263 636 320.5 668 Q378 700 431 700 Q466 700 491 689 Q516 678 532 660 Q548 642 555.5 618.5 Q563 595 563 570 Q563 520 538 467.5 Q513 415 470.5 364 Q428 313 370 265.5 Q312 218 246 176 Q254 150 267 138.5 Q280 127 297 127 Q314 127 328.5 132.5 Q343 138 357.5 149 Q372 160 387.5 177 Q403 194 423 217 L513 132 Q491 103 465 77 Q439 51 408.5 31.5 Q378 12 343 1 Q308 -10 268 -10 Q220 -10 178.5 19 Q137 48 114 103 Q98 95 82 88 Q66 81 49 74 L-5 177 Z M395 561 Q380 561 359 541 Q338 521 316.5 488.5 Q295 456 276 414.5 Q257 373 247 330 Q328 394 370 450.5 Q412 507 412 538 Q412 546 408.5 553.5 Q405 561 395 561 Z " />
<glyph glyph-name="trademark" unicode="&#x2122;" horiz-adv-x="859" d="M392 337 L392 708 L498 708 L591 553 L679 708 L794 708 L794 337 L679 337 L679 558 L610 433 L567 433 L498 545 L498 337 L392 337 Z M121 337 L121 615 L26 615 L26 708 L337 708 L337 615 L242 615 L242 337 L121 337 Z " />
<glyph glyph-name="Omega" unicode="&#x2126;" horiz-adv-x="702" d="M24 132 L127 132 Q107 148 88.5 168.5 Q70 189 56 216.5 Q42 244 33 279.5 Q24 315 24 362 Q24 433 48 495 Q72 557 115 602.5 Q158 648 218 674 Q278 700 350 700 Q428 700 489 675.5 Q550 651 592 606.5 Q634 562 656 499.5 Q678 437 678 362 Q678 315 668 279.5 Q658 244 642 217 Q626 190 606 169.5 Q586 149 567 132 L678 132 L678 0 L406 0 L406 132 Q424 145 440.5 163.5 Q457 182 469.5 207.5 Q482 233 489.5 266.5 Q497 300 497 344 Q497 444 464 493.5 Q431 543 350 543 Q311 543 283 529 Q255 515 238 489.5 Q221 464 213 427.5 Q205 391 205 346 Q205 296 211 262 Q217 228 230 203.5 Q243 179 262.5 162.5 Q282 146 308 132 L308 0 L24 0 L24 132 Z " />
<glyph glyph-name="estimated" unicode="&#x212e;" horiz-adv-x="695" d="M157 257 Q153 257 153 254 L153 104 Q153 95 160 86 Q195 49 243.5 27.5 Q292 6 348 6 Q408 6 458.5 30 Q509 54 545 96 L589 96 Q547 48 484.5 18.5 Q422 -11 347 -11 Q284 -11 228 10.5 Q172 32 130.5 69.5 Q89 107 65 157 Q41 207 41 264 Q41 321 65 371.5 Q89 422 130.5 459.5 Q172 497 228 519 Q284 541 347 541 Q410 541 466 519 Q522 497 563.5 459.5 Q605 422 629 371.5 Q653 321 653 264 L653 257 L157 257 Z M541 427 Q541 438 533 446 Q498 482 450.5 503 Q403 524 348 524 Q293 524 244.5 502.5 Q196 481 161 443 Q153 437 153 424 L153 276 Q153 272 157 272 L538 272 Q541 272 541 276 L541 427 Z " />
<glyph glyph-name="partialdiff" unicode="&#x2202;" horiz-adv-x="524" d="M262 -10 Q206 -10 160.5 8.5 Q115 27 83 62 Q51 97 33.5 146 Q16 195 16 257 Q16 320 34.5 370.5 Q53 421 86 456.5 Q119 492 164 511.5 Q209 531 262 531 Q267 531 272 531 Q277 531 282 530 Q259 566 226.5 592.5 Q194 619 149 642 L209 740 Q350 677 429 555.5 Q508 434 508 264 Q508 201 489 150.5 Q470 100 437 64.5 Q404 29 359 9.5 Q314 -10 262 -10 Z M262 136 Q297 136 317.5 165 Q338 194 338 261 L338 274 Q336 333 316.5 358.5 Q297 384 262 384 Q227 384 206.5 355.5 Q186 327 186 260 Q186 193 205.5 164.5 Q225 136 262 136 Z " />
<glyph glyph-name="Delta" unicode="&#x2206;" horiz-adv-x="624" d="M609 0 L15 0 L15 109 L256 690 L368 690 L609 109 L609 0 Z M444 132 L310 480 L179 132 L444 132 Z " />
<glyph glyph-name="product" unicode="&#x220f;" horiz-adv-x="790" d="M495 -180 L495 549 L295 549 L295 -180 L120 -180 L120 549 L38 549 L38 690 L752 690 L752 549 L670 549 L670 -180 L495 -180 Z " />
<glyph glyph-name="summation" unicode="&#x2211;" horiz-adv-x="621" d="M581 -39 L581 -180 L40 -180 L40 -39 L251 277 L44 549 L44 690 L577 690 L577 549 L229 549 L433 277 L218 -39 L581 -39 Z " />
<glyph glyph-name="minus" unicode="&#x2212;" horiz-adv-x="482" d="M34 394 L448 394 L448 261 L34 261 L34 394 Z " />
<glyph glyph-name="uni2215" unicode="&#x2215;" horiz-adv-x="78" d="M-269 54 L260 712 L347 639 L-181 -22 L-269 54 Z " />
<glyph glyph-name="radical" unicode="&#x221a;" horiz-adv-x="673" d="M667 691 L378 -6 L202 -6 L25 395 L146 450 L290 111 L522 690 L667 691 Z " />
<glyph glyph-name="infinity" unicode="&#x221e;" horiz-adv-x="722" d="M210 115 Q169 115 133.5 130 Q98 145 72.5 174 Q47 203 32.5 245.5 Q18 288 18 343 Q18 455 68.5 515 Q119 575 204 575 Q266 575 303.5 547 Q341 519 361 473 Q381 519 418.5 547 Q456 575 519 575 Q602 575 653 514.5 Q704 454 704 343 Q704 288 689 245.5 Q674 203 648 174 Q622 145 587 130 Q552 115 511 115 Q451 115 415 141 Q379 167 361 210 Q342 167 306 141 Q270 115 210 115 Z M221 285 Q249 285 268 299 Q287 313 287 345 Q287 368 273 386.5 Q259 405 222 405 Q193 405 177 388.5 Q161 372 161 346 Q161 323 176.5 304 Q192 285 221 285 Z M503 285 Q532 285 546.5 303.5 Q561 322 561 346 Q561 372 546 388.5 Q531 405 503 405 Q465 405 450.5 386.5 Q436 368 436 345 Q436 314 455 299.5 Q474 285 503 285 Z " />
<glyph glyph-name="integral" unicode="&#x222b;" horiz-adv-x="472" d="M15 -90 L78 -90 Q120 -90 137 -71 Q154 -52 154 -14 L154 556 Q154 603 163.5 639 Q173 675 197 699 Q221 723 261.5 735.5 Q302 748 364 748 L457 748 L457 628 L394 628 Q352 628 335 609 Q318 590 318 552 L318 -18 Q318 -65 308 -101 Q298 -137 274 -161 Q250 -185 209.5 -197.5 Q169 -210 108 -210 L15 -210 L15 -90 Z " />
<glyph glyph-name="approxequal" unicode="&#x2248;" horiz-adv-x="482" d="M34 281 Q63 312 89.5 324 Q116 336 140 336 Q168 336 194.5 323.5 Q221 311 247 296 Q273 281 299.5 268.5 Q326 256 354 256 Q376 256 399 266 Q422 276 448 301 L448 168 Q422 143 399 133 Q376 123 354 123 Q326 123 299.5 135.5 Q273 148 247 163 Q221 178 194.5 190.5 Q168 203 140 203 Q116 203 89.5 191 Q63 179 34 148 L34 281 Z M34 483 Q63 514 89.5 526 Q116 538 140 538 Q168 538 194.5 525.5 Q221 513 247 498 Q273 483 299.5 470.5 Q326 458 354 458 Q376 458 399 468 Q422 478 448 503 L448 370 Q422 345 399 335 Q376 325 354 325 Q326 325 299.5 337.5 Q273 350 247 365 Q221 380 194.5 392.5 Q168 405 140 405 Q116 405 89.5 393 Q63 381 34 350 L34 483 Z " />
<glyph glyph-name="notequal" unicode="&#x2260;" horiz-adv-x="482" d="M34 494 L281 494 L327 572 L423 518 L409 494 L448 494 L448 361 L330 361 L290 294 L448 294 L448 161 L211 161 L165 84 L70 138 L83 161 L34 161 L34 294 L162 294 L202 361 L34 361 L34 494 Z " />
<glyph glyph-name="lessequal" unicode="&#x2264;" horiz-adv-x="482" d="M34 466 L448 648 L448 491 L208 399 L448 308 L448 151 L34 333 L34 466 Z M34 129 L448 129 L448 -4 L34 -4 L34 129 Z " />
<glyph glyph-name="greaterequal" unicode="&#x2265;" horiz-adv-x="482" d="M448 333 L34 151 L34 308 L274 399 L34 491 L34 648 L448 466 L448 333 Z M34 129 L448 129 L448 -4 L34 -4 L34 129 Z " />
<glyph glyph-name="lozenge" unicode="&#x25ca;" horiz-adv-x="526" d="M500 338 L337 0 L201 0 L26 338 L26 351 L201 690 L337 690 L500 351 L500 338 Z M269 129 L363 345 L269 559 L163 345 L269 129 Z " />
<glyph glyph-name="heart" unicode="&#x2665;" horiz-adv-x="582" d="M295 435 Q311 464 336.5 482 Q362 500 393 500 Q436 500 464 470.5 Q492 441 492 395 Q492 365 478.5 330 Q465 295 439.5 260 Q414 225 376.5 192.5 Q339 160 291 135 Q243 160 205.5 192.5 Q168 225 142.5 260 Q117 295 103.5 330 Q90 365 90 395 Q90 441 118 470.5 Q146 500 189 500 Q220 500 245.5 482 Q271 464 287 435 L295 435 Z " />
<glyph glyph-name="i.dot" unicode="&#xe166;" horiz-adv-x="286" d="M143 568 Q103 568 80 592 Q57 616 57 655 Q57 697 80 721 Q103 745 143 745 Q185 745 209.5 721 Q234 697 234 655 Q234 616 209.5 592 Q185 568 143 568 Z M61 0 L61 521 L225 521 L225 0 L61 0 Z " />
<glyph glyph-name="commaaccent" unicode="&#xf6c3;" horiz-adv-x="541" d="M193 -49 L353 -49 L303 -236 L176 -236 L193 -49 Z " />
<glyph glyph-name="fi" unicode="&#xfb01;" horiz-adv-x="621" d="M93 0 L93 401 L18 401 L18 521 L93 521 L93 543 Q93 590 104 627 Q115 664 140 689 Q165 714 205 727 Q245 740 303 740 L360 740 L360 610 L339 610 Q297 610 277 594.5 Q257 579 257 544 L257 521 L560 521 L560 0 L396 0 L396 401 L257 401 L257 0 L93 0 Z M472 568 Q432 568 409 592 Q386 616 386 655 Q386 697 409 721 Q432 745 472 745 Q514 745 538.5 721 Q563 697 563 655 Q563 616 538.5 592 Q514 568 472 568 Z " />
<glyph glyph-name="fl" unicode="&#xfb02;" horiz-adv-x="621" d="M396 0 L396 610 L333 610 Q291 610 274 591.5 Q257 573 257 544 L257 521 L369 521 L369 401 L257 401 L257 0 L93 0 L93 401 L18 401 L18 521 L93 521 L93 543 Q93 592 105 629 Q117 666 143.5 690.5 Q170 715 212.5 727.5 Q255 740 316 740 L560 740 L560 0 L396 0 Z " />
</font>
</svg>
